<?xml version="1.0" encoding="UTF-8" standalone="no"?>
<!-- This is a Stata 16.1 generated SVG file (http://www.stata.com) -->

<svg version="1.1" width="11.30in" height="12.00in" viewBox="0 0 8137 8640" xmlns="http://www.w3.org/2000/svg" xmlns:xlink="http://www.w3.org/1999/xlink">
	<desc>Stata Graph - Graph</desc>
	<rect x="0" y="0" width="8137" height="8640" style="fill:#F0F0F0;stroke:none"/>
	<rect x="0.00" y="0.00" width="8137.00" height="8640.00" style="fill:#FFFFFF"/>
	<rect x="8.14" y="8.14" width="8120.73" height="8623.73" style="fill:none;stroke:#FFFFFF;stroke-width:16.27"/>
	<rect x="446.84" y="703.89" width="7328.11" height="7483.86" style="fill:#FFFFFF"/>
	<rect x="454.97" y="712.03" width="7311.83" height="7467.59" style="fill:none;stroke:#FFFFFF;stroke-width:16.27"/>
	<line x1="446.84" y1="1542.51" x2="7774.94" y2="1542.51" style="stroke:#C0C0C0;stroke-width:16.27"/>
	<text x="565.36" y="7870.18" style="font-family:'Helvetica';font-size:197.90px;fill:#000000">NOTE: Weights are from random effects analysis</text>
	<line x1="4329.58" y1="8187.75" x2="4329.58" y2="1542.51" style="stroke:#000000;stroke-width:16.27"/>
	<text x="565.36" y="3095.77" style="font-family:'Helvetica';font-size:197.90px;fill:#000000">.</text>
	<text x="565.36" y="4644.22" style="font-family:'Helvetica';font-size:197.90px;fill:#000000">.</text>
	<text x="565.36" y="6192.67" style="font-family:'Helvetica';font-size:197.90px;fill:#000000">.</text>
	<text x="565.36" y="7741.12" style="font-family:'Helvetica';font-size:197.90px;fill:#000000">.</text>
	<line x1="4183.52" y1="1994.22" x2="4662.75" y2="1994.22" style="stroke:#000000;stroke-width:24.41"/>
	<line x1="4058.24" y1="2252.34" x2="4531.00" y2="2252.34" style="stroke:#000000;stroke-width:24.41"/>
	<line x1="3991.28" y1="2510.46" x2="4922.21" y2="2510.46" style="stroke:#000000;stroke-width:24.41"/>
	<line x1="4014.23" y1="2768.58" x2="4621.71" y2="2768.58" style="stroke:#000000;stroke-width:24.41"/>
	<line x1="4188.38" y1="3542.67" x2="4677.60" y2="3542.67" style="stroke:#000000;stroke-width:24.41"/>
	<line x1="4063.64" y1="3800.79" x2="4559.34" y2="3800.79" style="stroke:#000000;stroke-width:24.41"/>
	<line x1="3996.95" y1="4058.91" x2="4944.89" y2="4058.91" style="stroke:#000000;stroke-width:24.41"/>
	<line x1="4026.92" y1="4316.76" x2="4669.23" y2="4316.76" style="stroke:#000000;stroke-width:24.41"/>
	<line x1="4073.09" y1="5091.12" x2="4557.99" y2="5091.12" style="stroke:#000000;stroke-width:24.41"/>
	<line x1="3995.60" y1="5349.24" x2="4492.93" y2="5349.24" style="stroke:#000000;stroke-width:24.41"/>
	<line x1="4027.46" y1="5607.09" x2="5550.75" y2="5607.09" style="stroke:#000000;stroke-width:24.41"/>
	<line x1="4016.66" y1="5865.21" x2="4918.97" y2="5865.21" style="stroke:#000000;stroke-width:24.41"/>
	<line x1="4052.57" y1="6639.57" x2="4531.27" y2="6639.57" style="stroke:#000000;stroke-width:24.41"/>
	<line x1="3990.74" y1="6897.42" x2="4481.86" y2="6897.42" style="stroke:#000000;stroke-width:24.41"/>
	<line x1="4032.59" y1="7155.54" x2="5582.88" y2="7155.54" style="stroke:#000000;stroke-width:24.41"/>
	<line x1="4013.42" y1="7413.66" x2="4906.55" y2="7413.66" style="stroke:#000000;stroke-width:24.41"/>
	<text x="565.36" y="1805.44" style="font-family:'Helvetica';font-size:197.90px;fill:#000000">Age-sex</text>
	<text x="565.36" y="2063.56" style="font-family:'Helvetica';font-size:197.90px;fill:#000000">South Asian</text>
	<text x="565.36" y="2321.68" style="font-family:'Helvetica';font-size:197.90px;fill:#000000">Black</text>
	<text x="565.36" y="2579.80" style="font-family:'Helvetica';font-size:197.90px;fill:#000000">Mixed</text>
	<text x="565.36" y="2837.92" style="font-family:'Helvetica';font-size:197.90px;fill:#000000">Other</text>
	<text x="565.36" y="3353.89" style="font-family:'Helvetica';font-size:197.90px;fill:#000000">Age-sex-IMD</text>
	<text x="565.36" y="3612.01" style="font-family:'Helvetica';font-size:197.90px;fill:#000000">South Asian</text>
	<text x="565.36" y="3870.13" style="font-family:'Helvetica';font-size:197.90px;fill:#000000">Black</text>
	<text x="565.36" y="4128.25" style="font-family:'Helvetica';font-size:197.90px;fill:#000000">Mixed</text>
	<text x="565.36" y="4386.10" style="font-family:'Helvetica';font-size:197.90px;fill:#000000">Other</text>
	<text x="565.36" y="4902.34" style="font-family:'Helvetica';font-size:197.90px;fill:#000000">+ co-morbidities</text>
	<text x="565.36" y="5160.46" style="font-family:'Helvetica';font-size:197.90px;fill:#000000">South Asian</text>
	<text x="565.36" y="5418.58" style="font-family:'Helvetica';font-size:197.90px;fill:#000000">Black</text>
	<text x="565.36" y="5676.43" style="font-family:'Helvetica';font-size:197.90px;fill:#000000">Mixed</text>
	<text x="565.36" y="5934.55" style="font-family:'Helvetica';font-size:197.90px;fill:#000000">Other</text>
	<text x="565.36" y="6450.79" style="font-family:'Helvetica';font-size:197.90px;fill:#000000">+ household size</text>
	<text x="565.36" y="6708.91" style="font-family:'Helvetica';font-size:197.90px;fill:#000000">South Asian</text>
	<text x="565.36" y="6966.76" style="font-family:'Helvetica';font-size:197.90px;fill:#000000">Black</text>
	<text x="565.36" y="7224.88" style="font-family:'Helvetica';font-size:197.90px;fill:#000000">Mixed</text>
	<text x="565.36" y="7483.00" style="font-family:'Helvetica';font-size:197.90px;fill:#000000">Other</text>
	<text x="565.36" y="1289.47" style="font-family:'Helvetica';font-size:197.90px;fill:#000000">eth5</text>
	<text x="5701.41" y="2063.56" style="font-family:'Helvetica';font-size:197.90px;fill:#000000">1.09 (0.75, 1.58)</text>
	<text x="5701.41" y="2321.68" style="font-family:'Helvetica';font-size:197.90px;fill:#000000">0.85 (0.53, 1.35)</text>
	<text x="5701.41" y="2579.80" style="font-family:'Helvetica';font-size:197.90px;fill:#000000">0.92 (0.42, 2.02)</text>
	<text x="5701.41" y="2837.92" style="font-family:'Helvetica';font-size:197.90px;fill:#000000">0.83 (0.46, 1.50)</text>
	<text x="5701.41" y="3612.01" style="font-family:'Helvetica';font-size:197.90px;fill:#000000">1.10 (0.76, 1.60)</text>
	<text x="5701.41" y="3870.13" style="font-family:'Helvetica';font-size:197.90px;fill:#000000">0.87 (0.54, 1.40)</text>
	<text x="5701.41" y="4128.25" style="font-family:'Helvetica';font-size:197.90px;fill:#000000">0.94 (0.43, 2.06)</text>
	<text x="5701.41" y="4386.10" style="font-family:'Helvetica';font-size:197.90px;fill:#000000">0.87 (0.48, 1.59)</text>
	<text x="5701.41" y="5160.46" style="font-family:'Helvetica';font-size:197.90px;fill:#000000">0.88 (0.56, 1.39)</text>
	<text x="5701.41" y="5418.58" style="font-family:'Helvetica';font-size:197.90px;fill:#000000">0.74 (0.42, 1.28)</text>
	<text x="5701.41" y="5676.43" style="font-family:'Helvetica';font-size:197.90px;fill:#000000">1.22 (0.48, 3.11)</text>
	<text x="5701.41" y="5934.55" style="font-family:'Helvetica';font-size:197.90px;fill:#000000">0.96 (0.46, 2.02)</text>
	<text x="5701.41" y="6708.91" style="font-family:'Helvetica';font-size:197.90px;fill:#000000">0.84 (0.52, 1.35)</text>
	<text x="5701.41" y="6966.76" style="font-family:'Helvetica';font-size:197.90px;fill:#000000">0.72 (0.41, 1.26)</text>
	<text x="5701.41" y="7224.88" style="font-family:'Helvetica';font-size:197.90px;fill:#000000">1.24 (0.49, 3.16)</text>
	<text x="5701.41" y="7483.00" style="font-family:'Helvetica';font-size:197.90px;fill:#000000">0.95 (0.45, 2.00)</text>
	<text x="5701.41" y="1289.47" style="font-family:'Helvetica';font-size:197.90px;fill:#000000">Ratio (95% CI)</text>
	<text x="5701.41" y="1031.35" style="font-family:'Helvetica';font-size:197.90px;fill:#000000">Odds</text>
	<text x="5701.41" y="2063.56" style="font-family:'Helvetica';font-size:197.90px;fill:#000000">1.09 (0.75, 1.58)</text>
	<text x="5701.41" y="2321.68" style="font-family:'Helvetica';font-size:197.90px;fill:#000000">0.85 (0.53, 1.35)</text>
	<text x="5701.41" y="2579.80" style="font-family:'Helvetica';font-size:197.90px;fill:#000000">0.92 (0.42, 2.02)</text>
	<text x="5701.41" y="2837.92" style="font-family:'Helvetica';font-size:197.90px;fill:#000000">0.83 (0.46, 1.50)</text>
	<text x="5701.41" y="3612.01" style="font-family:'Helvetica';font-size:197.90px;fill:#000000">1.10 (0.76, 1.60)</text>
	<text x="5701.41" y="3870.13" style="font-family:'Helvetica';font-size:197.90px;fill:#000000">0.87 (0.54, 1.40)</text>
	<text x="5701.41" y="4128.25" style="font-family:'Helvetica';font-size:197.90px;fill:#000000">0.94 (0.43, 2.06)</text>
	<text x="5701.41" y="4386.10" style="font-family:'Helvetica';font-size:197.90px;fill:#000000">0.87 (0.48, 1.59)</text>
	<text x="5701.41" y="5160.46" style="font-family:'Helvetica';font-size:197.90px;fill:#000000">0.88 (0.56, 1.39)</text>
	<text x="5701.41" y="5418.58" style="font-family:'Helvetica';font-size:197.90px;fill:#000000">0.74 (0.42, 1.28)</text>
	<text x="5701.41" y="5676.43" style="font-family:'Helvetica';font-size:197.90px;fill:#000000">1.22 (0.48, 3.11)</text>
	<text x="5701.41" y="5934.55" style="font-family:'Helvetica';font-size:197.90px;fill:#000000">0.96 (0.46, 2.02)</text>
	<text x="5701.41" y="6708.91" style="font-family:'Helvetica';font-size:197.90px;fill:#000000">0.84 (0.52, 1.35)</text>
	<text x="5701.41" y="6966.76" style="font-family:'Helvetica';font-size:197.90px;fill:#000000">0.72 (0.41, 1.26)</text>
	<text x="5701.41" y="7224.88" style="font-family:'Helvetica';font-size:197.90px;fill:#000000">1.24 (0.49, 3.16)</text>
	<text x="5701.41" y="7483.00" style="font-family:'Helvetica';font-size:197.90px;fill:#000000">0.95 (0.45, 2.00)</text>
	<text x="5701.41" y="1289.47" style="font-family:'Helvetica';font-size:197.90px;fill:#000000">Ratio (95% CI)</text>
	<text x="5701.41" y="1031.35" style="font-family:'Helvetica';font-size:197.90px;fill:#000000">Odds</text>
	<polygon points="4332.03,1994.49 4378.99,1947.53 4425.95,1994.49 4378.99,2041.45" style="fill:#000000"/>
	<polygon points="4349.29,1994.49 4378.99,1964.79 4408.69,1994.49 4378.99,2024.19" style="fill:none;stroke:#000000;stroke-width:24.41"/>
	<polygon points="4193.25,2252.34 4240.21,2205.38 4287.17,2252.34 4240.21,2299.30" style="fill:#000000"/>
	<polygon points="4210.52,2252.34 4240.21,2222.64 4269.91,2252.34 4240.21,2282.04" style="fill:none;stroke:#000000;stroke-width:24.41"/>
	<polygon points="4234.29,2510.46 4281.25,2463.50 4328.21,2510.46 4281.25,2557.42" style="fill:#000000"/>
	<polygon points="4251.55,2510.46 4281.25,2480.76 4310.95,2510.46 4281.25,2540.16" style="fill:none;stroke:#000000;stroke-width:24.41"/>
	<polygon points="4182.72,2768.58 4229.68,2721.62 4276.65,2768.58 4229.68,2815.54" style="fill:#000000"/>
	<polygon points="4199.99,2768.58 4229.68,2738.88 4259.38,2768.58 4229.68,2798.28" style="fill:none;stroke:#000000;stroke-width:24.41"/>
	<polygon points="4340.67,3542.67 4387.63,3495.71 4434.59,3542.67 4387.63,3589.63" style="fill:#000000"/>
	<polygon points="4357.93,3542.67 4387.63,3512.97 4417.33,3542.67 4387.63,3572.37" style="fill:none;stroke:#000000;stroke-width:24.41"/>
	<polygon points="4206.75,3800.79 4253.71,3753.83 4300.67,3800.79 4253.71,3847.75" style="fill:#000000"/>
	<polygon points="4224.02,3800.79 4253.71,3771.09 4283.41,3800.79 4253.71,3830.49" style="fill:none;stroke:#000000;stroke-width:24.41"/>
	<polygon points="4245.90,4058.91 4292.86,4011.95 4339.82,4058.91 4292.86,4105.87" style="fill:#000000"/>
	<polygon points="4263.16,4058.91 4292.86,4029.21 4322.56,4058.91 4292.86,4088.61" style="fill:none;stroke:#000000;stroke-width:24.41"/>
	<polygon points="4207.29,4317.03 4254.25,4270.07 4301.21,4317.03 4254.25,4363.99" style="fill:#000000"/>
	<polygon points="4224.56,4317.03 4254.25,4287.33 4283.95,4317.03 4254.25,4346.73" style="fill:none;stroke:#000000;stroke-width:24.41"/>
	<polygon points="4213.77,5091.12 4260.73,5044.16 4307.69,5091.12 4260.73,5138.08" style="fill:#000000"/>
	<polygon points="4231.03,5091.12 4260.73,5061.42 4290.43,5091.12 4260.73,5120.82" style="fill:none;stroke:#000000;stroke-width:24.41"/>
	<polygon points="4129.81,5349.24 4176.77,5302.28 4223.73,5349.24 4176.77,5396.20" style="fill:#000000"/>
	<polygon points="4147.07,5349.24 4176.77,5319.54 4206.47,5349.24 4176.77,5378.94" style="fill:none;stroke:#000000;stroke-width:24.41"/>
	<polygon points="4409.25,5607.36 4456.21,5560.40 4503.17,5607.36 4456.21,5654.32" style="fill:#000000"/>
	<polygon points="4426.51,5607.36 4456.21,5577.66 4485.91,5607.36 4456.21,5637.06" style="fill:none;stroke:#000000;stroke-width:24.41"/>
	<polygon points="4261.02,5865.48 4307.98,5818.52 4354.94,5865.48 4307.98,5912.44" style="fill:#000000"/>
	<polygon points="4278.28,5865.48 4307.98,5835.78 4337.68,5865.48 4307.98,5895.18" style="fill:none;stroke:#000000;stroke-width:24.41"/>
	<polygon points="4188.93,6639.57 4235.89,6592.61 4282.85,6639.57 4235.89,6686.53" style="fill:#000000"/>
	<polygon points="4206.20,6639.57 4235.89,6609.87 4265.59,6639.57 4235.89,6669.27" style="fill:none;stroke:#000000;stroke-width:24.41"/>
	<polygon points="4122.52,6897.69 4169.48,6850.73 4216.44,6897.69 4169.48,6944.65" style="fill:#000000"/>
	<polygon points="4139.78,6897.69 4169.48,6867.99 4199.18,6897.69 4169.48,6927.39" style="fill:none;stroke:#000000;stroke-width:24.41"/>
	<polygon points="4422.48,7155.81 4469.44,7108.85 4516.40,7155.81 4469.44,7202.77" style="fill:#000000"/>
	<polygon points="4439.74,7155.81 4469.44,7126.11 4499.14,7155.81 4469.44,7185.51" style="fill:none;stroke:#000000;stroke-width:24.41"/>
	<polygon points="4254.81,7413.93 4301.77,7366.97 4348.73,7413.93 4301.77,7460.89" style="fill:#000000"/>
	<polygon points="4272.07,7413.93 4301.77,7384.23 4331.47,7413.93 4301.77,7443.63" style="fill:none;stroke:#000000;stroke-width:24.41"/>
	<line x1="446.84" y1="8187.75" x2="7774.94" y2="8187.75" style="stroke:#000000;stroke-width:16.27"/>
	<text x="3124.07" y="8382.85" style="font-family:'Helvetica';font-size:197.90px;fill:#000000" text-anchor="middle"> </text>
	<text x="4956.23" y="8382.85" style="font-family:'Helvetica';font-size:197.90px;fill:#000000" text-anchor="middle"> </text>
	<line x1="4329.58" y1="8187.75" x2="4329.58" y2="8300.88" style="stroke:#000000;stroke-width:16.27"/>
	<text x="4329.58" y="8495.71" style="font-family:'Helvetica';font-size:197.90px;fill:#000000" text-anchor="middle">1</text>
	<line x1="1918.56" y1="8187.75" x2="1918.56" y2="8300.88" style="stroke:#000000;stroke-width:16.27"/>
	<text x="1918.56" y="8495.71" style="font-family:'Helvetica';font-size:197.90px;fill:#000000" text-anchor="middle">-3.16</text>
	<line x1="4329.58" y1="8187.75" x2="4329.58" y2="8300.88" style="stroke:#000000;stroke-width:16.27"/>
	<text x="4329.58" y="8495.71" style="font-family:'Helvetica';font-size:197.90px;fill:#000000" text-anchor="middle">1</text>
	<line x1="5582.88" y1="8187.75" x2="5582.88" y2="8300.88" style="stroke:#000000;stroke-width:16.27"/>
	<text x="5582.88" y="8495.71" style="font-family:'Helvetica';font-size:197.90px;fill:#000000" text-anchor="middle">3.16</text>
	<line x1="4329.58" y1="8187.75" x2="4329.58" y2="8300.88" style="stroke:#000000;stroke-width:16.27"/>
	<text x="4110.89" y="587.09" style="font-family:'Helvetica';font-size:225.98px;fill:#000000" text-anchor="middle">complete case analysis</text>
	<text x="4110.89" y="246.70" style="font-family:'Helvetica';font-size:282.41px;fill:#000000" text-anchor="middle">Ventilation</text>
</svg>
