<?xml version="1.0" encoding="UTF-8" standalone="no"?>
<!-- This is a Stata 16.1 generated SVG file (http://www.stata.com) -->

<svg version="1.1" width="11.48in" height="11.89in" viewBox="0 0 8267 8564" xmlns="http://www.w3.org/2000/svg" xmlns:xlink="http://www.w3.org/1999/xlink">
	<desc>Stata Graph - Graph</desc>
	<rect x="0" y="0" width="8267" height="8564" style="fill:#F0F0F0;stroke:none"/>
	<rect x="0.00" y="0.00" width="8267.00" height="8564.00" style="fill:#FFFFFF"/>
	<rect x="8.27" y="8.27" width="8250.47" height="8547.47" style="fill:none;stroke:#FFFFFF;stroke-width:16.53"/>
	<rect x="439.71" y="715.09" width="7473.75" height="7408.40" style="fill:#FFFFFF"/>
	<rect x="447.98" y="723.36" width="7457.22" height="7391.86" style="fill:none;stroke:#FFFFFF;stroke-width:16.53"/>
	<line x1="439.71" y1="1467.66" x2="7913.46" y2="1467.66" style="stroke:#C0C0C0;stroke-width:16.53"/>
	<text x="560.14" y="7839.97" style="font-family:'Helvetica';font-size:182.25px;fill:#000000">NOTE: Weights are from random effects analysis</text>
	<line x1="5043.16" y1="8123.49" x2="5043.16" y2="1467.66" style="stroke:#000000;stroke-width:16.53"/>
	<text x="560.14" y="7724.35" style="font-family:'Helvetica';font-size:182.25px;fill:#000000">.</text>
	<line x1="5043.16" y1="1872.57" x2="5043.16" y2="1872.57" style="stroke:#000000;stroke-width:24.80"/>
	<line x1="4963.95" y1="2104.07" x2="4970.10" y2="2104.07" style="stroke:#000000;stroke-width:24.80"/>
	<line x1="4995.53" y1="2335.83" x2="5007.03" y2="2335.83" style="stroke:#000000;stroke-width:24.80"/>
	<line x1="4990.17" y1="2567.33" x2="5006.50" y2="2567.33" style="stroke:#000000;stroke-width:24.80"/>
	<line x1="4901.59" y1="2798.82" x2="4911.22" y2="2798.82" style="stroke:#000000;stroke-width:24.80"/>
	<line x1="5043.16" y1="3030.32" x2="5043.16" y2="3030.32" style="stroke:#000000;stroke-width:24.80"/>
	<line x1="5012.39" y1="3261.81" x2="5020.42" y2="3261.81" style="stroke:#000000;stroke-width:24.80"/>
	<line x1="5055.48" y1="3493.31" x2="5069.66" y2="3493.31" style="stroke:#000000;stroke-width:24.80"/>
	<line x1="5030.85" y1="3724.80" x2="5049.59" y2="3724.80" style="stroke:#000000;stroke-width:24.80"/>
	<line x1="4932.63" y1="3956.30" x2="4943.87" y2="3956.30" style="stroke:#000000;stroke-width:24.80"/>
	<line x1="5043.16" y1="4187.80" x2="5043.16" y2="4187.80" style="stroke:#000000;stroke-width:24.80"/>
	<line x1="4989.91" y1="4419.29" x2="4997.40" y2="4419.29" style="stroke:#000000;stroke-width:24.80"/>
	<line x1="5020.42" y1="4650.79" x2="5033.26" y2="4650.79" style="stroke:#000000;stroke-width:24.80"/>
	<line x1="5015.06" y1="4882.28" x2="5032.99" y2="4882.28" style="stroke:#000000;stroke-width:24.80"/>
	<line x1="4924.34" y1="5113.78" x2="4935.31" y2="5113.78" style="stroke:#000000;stroke-width:24.80"/>
	<line x1="5043.16" y1="5345.27" x2="5043.16" y2="5345.27" style="stroke:#000000;stroke-width:24.80"/>
	<line x1="5009.44" y1="5576.77" x2="5019.08" y2="5576.77" style="stroke:#000000;stroke-width:24.80"/>
	<line x1="5046.91" y1="5808.27" x2="5063.77" y2="5808.27" style="stroke:#000000;stroke-width:24.80"/>
	<line x1="5030.59" y1="6039.76" x2="5053.60" y2="6039.76" style="stroke:#000000;stroke-width:24.80"/>
	<line x1="4999.27" y1="6271.52" x2="5017.74" y2="6271.52" style="stroke:#000000;stroke-width:24.80"/>
	<line x1="5043.16" y1="6503.02" x2="5043.16" y2="6503.02" style="stroke:#000000;stroke-width:24.80"/>
	<line x1="5004.63" y1="6734.52" x2="5013.99" y2="6734.52" style="stroke:#000000;stroke-width:24.80"/>
	<line x1="5044.77" y1="6966.01" x2="5061.63" y2="6966.01" style="stroke:#000000;stroke-width:24.80"/>
	<line x1="5029.52" y1="7197.51" x2="5052.80" y2="7197.51" style="stroke:#000000;stroke-width:24.80"/>
	<line x1="4997.40" y1="7429.00" x2="5015.87" y2="7429.00" style="stroke:#000000;stroke-width:24.80"/>
	<text x="560.14" y="1704.93" style="font-family:'Helvetica';font-size:182.25px;fill:#000000">ae</text>
	<text x="560.14" y="1936.43" style="font-family:'Helvetica';font-size:182.25px;fill:#000000">Crude</text>
	<text x="560.14" y="3094.17" style="font-family:'Helvetica';font-size:182.25px;fill:#000000">Age-sex</text>
	<text x="560.14" y="4251.65" style="font-family:'Helvetica';font-size:182.25px;fill:#000000">Age-sex-IMD</text>
	<text x="560.14" y="5409.13" style="font-family:'Helvetica';font-size:182.25px;fill:#000000">+ co-morbidities</text>
	<text x="560.14" y="6566.88" style="font-family:'Helvetica';font-size:182.25px;fill:#000000">+ household size</text>
	<text x="560.14" y="1241.94" style="font-family:'Helvetica';font-size:182.25px;fill:#000000">adjusted</text>
	<text x="2260.38" y="1936.43" style="font-family:'Helvetica';font-size:182.25px;fill:#000000">White</text>
	<text x="2260.38" y="2167.92" style="font-family:'Helvetica';font-size:182.25px;fill:#000000">South Asian</text>
	<text x="2260.38" y="2399.69" style="font-family:'Helvetica';font-size:182.25px;fill:#000000">Black</text>
	<text x="2260.38" y="2631.18" style="font-family:'Helvetica';font-size:182.25px;fill:#000000">Mixed</text>
	<text x="2260.38" y="2862.68" style="font-family:'Helvetica';font-size:182.25px;fill:#000000">Other</text>
	<text x="2260.38" y="3094.17" style="font-family:'Helvetica';font-size:182.25px;fill:#000000">White</text>
	<text x="2260.38" y="3325.67" style="font-family:'Helvetica';font-size:182.25px;fill:#000000">South Asian</text>
	<text x="2260.38" y="3557.16" style="font-family:'Helvetica';font-size:182.25px;fill:#000000">Black</text>
	<text x="2260.38" y="3788.66" style="font-family:'Helvetica';font-size:182.25px;fill:#000000">Mixed</text>
	<text x="2260.38" y="4020.16" style="font-family:'Helvetica';font-size:182.25px;fill:#000000">Other</text>
	<text x="2260.38" y="4251.65" style="font-family:'Helvetica';font-size:182.25px;fill:#000000">White</text>
	<text x="2260.38" y="4483.15" style="font-family:'Helvetica';font-size:182.25px;fill:#000000">South Asian</text>
	<text x="2260.38" y="4714.64" style="font-family:'Helvetica';font-size:182.25px;fill:#000000">Black</text>
	<text x="2260.38" y="4946.14" style="font-family:'Helvetica';font-size:182.25px;fill:#000000">Mixed</text>
	<text x="2260.38" y="5177.63" style="font-family:'Helvetica';font-size:182.25px;fill:#000000">Other</text>
	<text x="2260.38" y="5409.13" style="font-family:'Helvetica';font-size:182.25px;fill:#000000">White</text>
	<text x="2260.38" y="5640.63" style="font-family:'Helvetica';font-size:182.25px;fill:#000000">South Asian</text>
	<text x="2260.38" y="5872.12" style="font-family:'Helvetica';font-size:182.25px;fill:#000000">Black</text>
	<text x="2260.38" y="6103.62" style="font-family:'Helvetica';font-size:182.25px;fill:#000000">Mixed</text>
	<text x="2260.38" y="6335.38" style="font-family:'Helvetica';font-size:182.25px;fill:#000000">Other</text>
	<text x="2260.38" y="6566.88" style="font-family:'Helvetica';font-size:182.25px;fill:#000000">White</text>
	<text x="2260.38" y="6798.37" style="font-family:'Helvetica';font-size:182.25px;fill:#000000">South Asian</text>
	<text x="2260.38" y="7029.87" style="font-family:'Helvetica';font-size:182.25px;fill:#000000">Black</text>
	<text x="2260.38" y="7261.36" style="font-family:'Helvetica';font-size:182.25px;fill:#000000">Mixed</text>
	<text x="2260.38" y="7492.86" style="font-family:'Helvetica';font-size:182.25px;fill:#000000">Other</text>
	<text x="2260.38" y="1241.94" style="font-family:'Helvetica';font-size:182.25px;fill:#000000">eth5</text>
	<text x="6144.72" y="1936.43" style="font-family:'Helvetica';font-size:182.25px;fill:#000000">1.00 (1.00, 1.00)</text>
	<text x="6144.72" y="2167.92" style="font-family:'Helvetica';font-size:182.25px;fill:#000000">0.77 (0.76, 0.78)</text>
	<text x="6144.72" y="2399.69" style="font-family:'Helvetica';font-size:182.25px;fill:#000000">0.87 (0.85, 0.89)</text>
	<text x="6144.72" y="2631.18" style="font-family:'Helvetica';font-size:182.25px;fill:#000000">0.86 (0.84, 0.89)</text>
	<text x="6144.72" y="2862.68" style="font-family:'Helvetica';font-size:182.25px;fill:#000000">0.58 (0.57, 0.60)</text>
	<text x="6144.72" y="3094.17" style="font-family:'Helvetica';font-size:182.25px;fill:#000000">1.00 (1.00, 1.00)</text>
	<text x="6144.72" y="3325.67" style="font-family:'Helvetica';font-size:182.25px;fill:#000000">0.92 (0.91, 0.93)</text>
	<text x="6144.72" y="3557.16" style="font-family:'Helvetica';font-size:182.25px;fill:#000000">1.06 (1.04, 1.08)</text>
	<text x="6144.72" y="3788.66" style="font-family:'Helvetica';font-size:182.25px;fill:#000000">0.99 (0.96, 1.02)</text>
	<text x="6144.72" y="4020.16" style="font-family:'Helvetica';font-size:182.25px;fill:#000000">0.68 (0.66, 0.70)</text>
	<text x="6144.72" y="4251.65" style="font-family:'Helvetica';font-size:182.25px;fill:#000000">1.00 (1.00, 1.00)</text>
	<text x="6144.72" y="4483.15" style="font-family:'Helvetica';font-size:182.25px;fill:#000000">0.85 (0.84, 0.86)</text>
	<text x="6144.72" y="4714.64" style="font-family:'Helvetica';font-size:182.25px;fill:#000000">0.95 (0.93, 0.97)</text>
	<text x="6144.72" y="4946.14" style="font-family:'Helvetica';font-size:182.25px;fill:#000000">0.94 (0.91, 0.97)</text>
	<text x="6144.72" y="5177.63" style="font-family:'Helvetica';font-size:182.25px;fill:#000000">0.65 (0.64, 0.67)</text>
	<text x="6144.72" y="5409.13" style="font-family:'Helvetica';font-size:182.25px;fill:#000000">1.00 (1.00, 1.00)</text>
	<text x="6144.72" y="5640.63" style="font-family:'Helvetica';font-size:182.25px;fill:#000000">0.91 (0.90, 0.93)</text>
	<text x="6144.72" y="5872.12" style="font-family:'Helvetica';font-size:182.25px;fill:#000000">1.04 (1.01, 1.06)</text>
	<text x="6144.72" y="6103.62" style="font-family:'Helvetica';font-size:182.25px;fill:#000000">1.00 (0.96, 1.03)</text>
	<text x="6144.72" y="6335.38" style="font-family:'Helvetica';font-size:182.25px;fill:#000000">0.89 (0.87, 0.92)</text>
	<text x="6144.72" y="6566.88" style="font-family:'Helvetica';font-size:182.25px;fill:#000000">1.00 (1.00, 1.00)</text>
	<text x="6144.72" y="6798.37" style="font-family:'Helvetica';font-size:182.25px;fill:#000000">0.90 (0.88, 0.91)</text>
	<text x="6144.72" y="7029.87" style="font-family:'Helvetica';font-size:182.25px;fill:#000000">1.03 (1.00, 1.06)</text>
	<text x="6144.72" y="7261.36" style="font-family:'Helvetica';font-size:182.25px;fill:#000000">0.99 (0.96, 1.03)</text>
	<text x="6144.72" y="7492.86" style="font-family:'Helvetica';font-size:182.25px;fill:#000000">0.89 (0.86, 0.92)</text>
	<text x="6144.72" y="1241.94" style="font-family:'Helvetica';font-size:182.25px;fill:#000000">Ratio (95% CI)</text>
	<text x="6144.72" y="1010.44" style="font-family:'Helvetica';font-size:182.25px;fill:#000000">Hazard</text>
	<text x="6144.72" y="1936.43" style="font-family:'Helvetica';font-size:182.25px;fill:#000000">1.00 (1.00, 1.00)</text>
	<text x="6144.72" y="2167.92" style="font-family:'Helvetica';font-size:182.25px;fill:#000000">0.77 (0.76, 0.78)</text>
	<text x="6144.72" y="2399.69" style="font-family:'Helvetica';font-size:182.25px;fill:#000000">0.87 (0.85, 0.89)</text>
	<text x="6144.72" y="2631.18" style="font-family:'Helvetica';font-size:182.25px;fill:#000000">0.86 (0.84, 0.89)</text>
	<text x="6144.72" y="2862.68" style="font-family:'Helvetica';font-size:182.25px;fill:#000000">0.58 (0.57, 0.60)</text>
	<text x="6144.72" y="3094.17" style="font-family:'Helvetica';font-size:182.25px;fill:#000000">1.00 (1.00, 1.00)</text>
	<text x="6144.72" y="3325.67" style="font-family:'Helvetica';font-size:182.25px;fill:#000000">0.92 (0.91, 0.93)</text>
	<text x="6144.72" y="3557.16" style="font-family:'Helvetica';font-size:182.25px;fill:#000000">1.06 (1.04, 1.08)</text>
	<text x="6144.72" y="3788.66" style="font-family:'Helvetica';font-size:182.25px;fill:#000000">0.99 (0.96, 1.02)</text>
	<text x="6144.72" y="4020.16" style="font-family:'Helvetica';font-size:182.25px;fill:#000000">0.68 (0.66, 0.70)</text>
	<text x="6144.72" y="4251.65" style="font-family:'Helvetica';font-size:182.25px;fill:#000000">1.00 (1.00, 1.00)</text>
	<text x="6144.72" y="4483.15" style="font-family:'Helvetica';font-size:182.25px;fill:#000000">0.85 (0.84, 0.86)</text>
	<text x="6144.72" y="4714.64" style="font-family:'Helvetica';font-size:182.25px;fill:#000000">0.95 (0.93, 0.97)</text>
	<text x="6144.72" y="4946.14" style="font-family:'Helvetica';font-size:182.25px;fill:#000000">0.94 (0.91, 0.97)</text>
	<text x="6144.72" y="5177.63" style="font-family:'Helvetica';font-size:182.25px;fill:#000000">0.65 (0.64, 0.67)</text>
	<text x="6144.72" y="5409.13" style="font-family:'Helvetica';font-size:182.25px;fill:#000000">1.00 (1.00, 1.00)</text>
	<text x="6144.72" y="5640.63" style="font-family:'Helvetica';font-size:182.25px;fill:#000000">0.91 (0.90, 0.93)</text>
	<text x="6144.72" y="5872.12" style="font-family:'Helvetica';font-size:182.25px;fill:#000000">1.04 (1.01, 1.06)</text>
	<text x="6144.72" y="6103.62" style="font-family:'Helvetica';font-size:182.25px;fill:#000000">1.00 (0.96, 1.03)</text>
	<text x="6144.72" y="6335.38" style="font-family:'Helvetica';font-size:182.25px;fill:#000000">0.89 (0.87, 0.92)</text>
	<text x="6144.72" y="6566.88" style="font-family:'Helvetica';font-size:182.25px;fill:#000000">1.00 (1.00, 1.00)</text>
	<text x="6144.72" y="6798.37" style="font-family:'Helvetica';font-size:182.25px;fill:#000000">0.90 (0.88, 0.91)</text>
	<text x="6144.72" y="7029.87" style="font-family:'Helvetica';font-size:182.25px;fill:#000000">1.03 (1.00, 1.06)</text>
	<text x="6144.72" y="7261.36" style="font-family:'Helvetica';font-size:182.25px;fill:#000000">0.99 (0.96, 1.03)</text>
	<text x="6144.72" y="7492.86" style="font-family:'Helvetica';font-size:182.25px;fill:#000000">0.89 (0.86, 0.92)</text>
	<text x="6144.72" y="1241.94" style="font-family:'Helvetica';font-size:182.25px;fill:#000000">Ratio (95% CI)</text>
	<text x="6144.72" y="1010.44" style="font-family:'Helvetica';font-size:182.25px;fill:#000000">Hazard</text>
	<polygon points="4995.39,1872.84 5043.16,1825.06 5090.94,1872.84 5043.16,1920.62" style="fill:#000000"/>
	<polygon points="5012.92,1872.84 5043.16,1842.60 5073.41,1872.84 5043.16,1903.08" style="fill:none;stroke:#000000;stroke-width:24.80"/>
	<polygon points="4919.11,2104.34 4966.89,2056.56 5014.67,2104.34 4966.89,2152.11" style="fill:#000000"/>
	<polygon points="4936.65,2104.34 4966.89,2074.09 4997.13,2104.34 4966.89,2134.58" style="fill:none;stroke:#000000;stroke-width:24.80"/>
	<polygon points="4953.37,2335.83 5001.15,2288.05 5048.93,2335.83 5001.15,2383.61" style="fill:#000000"/>
	<polygon points="4970.91,2335.83 5001.15,2305.59 5031.39,2335.83 5001.15,2366.07" style="fill:none;stroke:#000000;stroke-width:24.80"/>
	<polygon points="4950.42,2567.33 4998.20,2519.55 5045.98,2567.33 4998.20,2615.11" style="fill:#000000"/>
	<polygon points="4967.96,2567.33 4998.20,2537.08 5028.44,2567.33 4998.20,2597.57" style="fill:none;stroke:#000000;stroke-width:24.80"/>
	<polygon points="4858.36,2798.82 4906.14,2751.04 4953.92,2798.82 4906.14,2846.60" style="fill:#000000"/>
	<polygon points="4875.90,2798.82 4906.14,2768.58 4936.38,2798.82 4906.14,2829.06" style="fill:none;stroke:#000000;stroke-width:24.80"/>
	<polygon points="4995.39,3030.32 5043.16,2982.54 5090.94,3030.32 5043.16,3078.10" style="fill:#000000"/>
	<polygon points="5012.92,3030.32 5043.16,3000.08 5073.41,3030.32 5043.16,3060.56" style="fill:none;stroke:#000000;stroke-width:24.80"/>
	<polygon points="4968.36,3261.81 5016.13,3214.03 5063.91,3261.81 5016.13,3309.59" style="fill:#000000"/>
	<polygon points="4985.89,3261.81 5016.13,3231.57 5046.38,3261.81 5016.13,3292.06" style="fill:none;stroke:#000000;stroke-width:24.80"/>
	<polygon points="5014.65,3493.31 5062.43,3445.53 5110.21,3493.31 5062.43,3541.09" style="fill:#000000"/>
	<polygon points="5032.19,3493.31 5062.43,3463.07 5092.68,3493.31 5062.43,3523.55" style="fill:none;stroke:#000000;stroke-width:24.80"/>
	<polygon points="4992.17,3724.80 5039.95,3677.03 5087.73,3724.80 5039.95,3772.58" style="fill:#000000"/>
	<polygon points="5009.71,3724.80 5039.95,3694.56 5070.19,3724.80 5039.95,3755.05" style="fill:none;stroke:#000000;stroke-width:24.80"/>
	<polygon points="4890.21,3956.30 4937.99,3908.52 4985.77,3956.30 4937.99,4004.08" style="fill:#000000"/>
	<polygon points="4907.75,3956.30 4937.99,3926.06 4968.23,3956.30 4937.99,3986.54" style="fill:none;stroke:#000000;stroke-width:24.80"/>
	<polygon points="4995.39,4188.06 5043.16,4140.28 5090.94,4188.06 5043.16,4235.84" style="fill:#000000"/>
	<polygon points="5012.92,4188.06 5043.16,4157.82 5073.41,4188.06 5043.16,4218.31" style="fill:none;stroke:#000000;stroke-width:24.80"/>
	<polygon points="4945.87,4419.56 4993.65,4371.78 5041.43,4419.56 4993.65,4467.34" style="fill:#000000"/>
	<polygon points="4963.41,4419.56 4993.65,4389.32 5023.90,4419.56 4993.65,4449.80" style="fill:none;stroke:#000000;stroke-width:24.80"/>
	<polygon points="4978.79,4651.05 5026.57,4603.28 5074.35,4651.05 5026.57,4698.83" style="fill:#000000"/>
	<polygon points="4996.33,4651.05 5026.57,4620.81 5056.81,4651.05 5026.57,4681.30" style="fill:none;stroke:#000000;stroke-width:24.80"/>
	<polygon points="4976.12,4882.55 5023.90,4834.77 5071.67,4882.55 5023.90,4930.33" style="fill:#000000"/>
	<polygon points="4993.65,4882.55 5023.90,4852.31 5054.14,4882.55 5023.90,4912.79" style="fill:none;stroke:#000000;stroke-width:24.80"/>
	<polygon points="4881.91,5114.05 4929.69,5066.27 4977.47,5114.05 4929.69,5161.82" style="fill:#000000"/>
	<polygon points="4899.45,5114.05 4929.69,5083.80 4959.93,5114.05 4929.69,5144.29" style="fill:none;stroke:#000000;stroke-width:24.80"/>
	<polygon points="4995.39,5345.54 5043.16,5297.76 5090.94,5345.54 5043.16,5393.32" style="fill:#000000"/>
	<polygon points="5012.92,5345.54 5043.16,5315.30 5073.41,5345.54 5043.16,5375.78" style="fill:none;stroke:#000000;stroke-width:24.80"/>
	<polygon points="4966.21,5577.04 5013.99,5529.26 5061.77,5577.04 5013.99,5624.82" style="fill:#000000"/>
	<polygon points="4983.75,5577.04 5013.99,5546.80 5044.23,5577.04 5013.99,5607.28" style="fill:none;stroke:#000000;stroke-width:24.80"/>
	<polygon points="5007.43,5808.53 5055.21,5760.75 5102.99,5808.53 5055.21,5856.31" style="fill:#000000"/>
	<polygon points="5024.97,5808.53 5055.21,5778.29 5085.45,5808.53 5055.21,5838.77" style="fill:none;stroke:#000000;stroke-width:24.80"/>
	<polygon points="4994.05,6040.03 5041.83,5992.25 5089.61,6040.03 5041.83,6087.81" style="fill:#000000"/>
	<polygon points="5011.58,6040.03 5041.83,6009.79 5072.07,6040.03 5041.83,6070.27" style="fill:none;stroke:#000000;stroke-width:24.80"/>
	<polygon points="4960.33,6271.52 5008.11,6223.75 5055.88,6271.52 5008.11,6319.30" style="fill:#000000"/>
	<polygon points="4977.86,6271.52 5008.11,6241.28 5038.35,6271.52 5008.11,6301.77" style="fill:none;stroke:#000000;stroke-width:24.80"/>
	<polygon points="4995.39,6503.02 5043.16,6455.24 5090.94,6503.02 5043.16,6550.80" style="fill:#000000"/>
	<polygon points="5012.92,6503.02 5043.16,6472.78 5073.41,6503.02 5043.16,6533.26" style="fill:none;stroke:#000000;stroke-width:24.80"/>
	<polygon points="4961.40,6734.52 5009.18,6686.74 5056.95,6734.52 5009.18,6782.29" style="fill:#000000"/>
	<polygon points="4978.93,6734.52 5009.18,6704.27 5039.42,6734.52 5009.18,6764.76" style="fill:none;stroke:#000000;stroke-width:24.80"/>
	<polygon points="5005.02,6966.01 5052.80,6918.23 5100.58,6966.01 5052.80,7013.79" style="fill:#000000"/>
	<polygon points="5022.56,6966.01 5052.80,6935.77 5083.04,6966.01 5052.80,6996.25" style="fill:none;stroke:#000000;stroke-width:24.80"/>
	<polygon points="4992.98,7197.51 5040.76,7149.73 5088.53,7197.51 5040.76,7245.29" style="fill:#000000"/>
	<polygon points="5010.51,7197.51 5040.76,7167.26 5071.00,7197.51 5040.76,7227.75" style="fill:none;stroke:#000000;stroke-width:24.80"/>
	<polygon points="4958.72,7429.00 5006.50,7381.22 5054.28,7429.00 5006.50,7476.78" style="fill:#000000"/>
	<polygon points="4976.26,7429.00 5006.50,7398.76 5036.74,7429.00 5006.50,7459.24" style="fill:none;stroke:#000000;stroke-width:24.80"/>
	<line x1="439.71" y1="8123.49" x2="7913.46" y2="8123.49" style="stroke:#000000;stroke-width:16.53"/>
	<text x="4225.83" y="8308.20" style="font-family:'Helvetica';font-size:182.25px;fill:#000000" text-anchor="middle"> </text>
	<text x="5533.72" y="8308.20" style="font-family:'Helvetica';font-size:182.25px;fill:#000000" text-anchor="middle"> </text>
	<line x1="5043.16" y1="8123.49" x2="5043.16" y2="8238.30" style="stroke:#000000;stroke-width:16.53"/>
	<text x="5043.16" y="8423.02" style="font-family:'Helvetica';font-size:182.25px;fill:#000000" text-anchor="middle">1</text>
	<line x1="4798.02" y1="8123.49" x2="4798.02" y2="8238.30" style="stroke:#000000;stroke-width:16.53"/>
	<text x="4798.02" y="8423.02" style="font-family:'Helvetica';font-size:182.25px;fill:#000000" text-anchor="middle">.25</text>
	<line x1="4879.64" y1="8123.49" x2="4879.64" y2="8238.30" style="stroke:#000000;stroke-width:16.53"/>
	<text x="4879.64" y="8423.02" style="font-family:'Helvetica';font-size:182.25px;fill:#000000" text-anchor="middle">.5</text>
	<line x1="5043.16" y1="8123.49" x2="5043.16" y2="8238.30" style="stroke:#000000;stroke-width:16.53"/>
	<text x="5043.16" y="8423.02" style="font-family:'Helvetica';font-size:182.25px;fill:#000000" text-anchor="middle">1</text>
	<line x1="5370.20" y1="8123.49" x2="5370.20" y2="8238.30" style="stroke:#000000;stroke-width:16.53"/>
	<text x="5370.20" y="8423.02" style="font-family:'Helvetica';font-size:182.25px;fill:#000000" text-anchor="middle">2</text>
	<line x1="6024.29" y1="8123.49" x2="6024.29" y2="8238.30" style="stroke:#000000;stroke-width:16.53"/>
	<text x="6024.29" y="8423.02" style="font-family:'Helvetica';font-size:182.25px;fill:#000000" text-anchor="middle">4</text>
	<line x1="5043.16" y1="8123.49" x2="5043.16" y2="8238.30" style="stroke:#000000;stroke-width:16.53"/>
	<text x="4176.59" y="596.56" style="font-family:'Helvetica';font-size:229.62px;fill:#000000" text-anchor="middle">complete case analysis</text>
	<text x="4176.59" y="250.39" style="font-family:'Helvetica';font-size:287.16px;fill:#000000" text-anchor="middle">ae</text>
</svg>
