<?xml version="1.0" encoding="UTF-8" standalone="no"?>
<!-- This is a Stata 16.1 generated SVG file (http://www.stata.com) -->

<svg version="1.1" width="11.48in" height="11.89in" viewBox="0 0 8267 8564" xmlns="http://www.w3.org/2000/svg" xmlns:xlink="http://www.w3.org/1999/xlink">
	<desc>Stata Graph - Graph</desc>
	<rect x="0" y="0" width="8267" height="8564" style="fill:#F0F0F0;stroke:none"/>
	<rect x="0.00" y="0.00" width="8267.00" height="8564.00" style="fill:#FFFFFF"/>
	<rect x="8.27" y="8.27" width="8250.47" height="8547.47" style="fill:none;stroke:#FFFFFF;stroke-width:16.53"/>
	<rect x="439.71" y="715.09" width="7473.75" height="7408.40" style="fill:#FFFFFF"/>
	<rect x="447.98" y="723.36" width="7457.22" height="7391.86" style="fill:none;stroke:#FFFFFF;stroke-width:16.53"/>
	<line x1="439.71" y1="1467.66" x2="7913.46" y2="1467.66" style="stroke:#C0C0C0;stroke-width:16.53"/>
	<text x="560.14" y="7839.97" style="font-family:'Helvetica';font-size:182.25px;fill:#000000">NOTE: Weights are from random effects analysis</text>
	<line x1="5043.16" y1="8123.49" x2="5043.16" y2="1467.66" style="stroke:#000000;stroke-width:16.53"/>
	<text x="560.14" y="7724.35" style="font-family:'Helvetica';font-size:182.25px;fill:#000000">.</text>
	<line x1="5043.16" y1="1872.57" x2="5043.16" y2="1872.57" style="stroke:#000000;stroke-width:24.80"/>
	<line x1="5375.02" y1="2104.07" x2="5414.63" y2="2104.07" style="stroke:#000000;stroke-width:24.80"/>
	<line x1="5159.58" y1="2335.83" x2="5213.38" y2="2335.83" style="stroke:#000000;stroke-width:24.80"/>
	<line x1="5019.08" y1="2567.33" x2="5081.97" y2="2567.33" style="stroke:#000000;stroke-width:24.80"/>
	<line x1="4974.65" y1="2798.82" x2="5016.94" y2="2798.82" style="stroke:#000000;stroke-width:24.80"/>
	<line x1="5043.16" y1="3030.32" x2="5043.16" y2="3030.32" style="stroke:#000000;stroke-width:24.80"/>
	<line x1="5529.44" y1="3261.81" x2="5583.50" y2="3261.81" style="stroke:#000000;stroke-width:24.80"/>
	<line x1="5289.65" y1="3493.31" x2="5360.84" y2="3493.31" style="stroke:#000000;stroke-width:24.80"/>
	<line x1="5167.88" y1="3724.80" x2="5262.62" y2="3724.80" style="stroke:#000000;stroke-width:24.80"/>
	<line x1="5099.63" y1="3956.30" x2="5163.06" y2="3956.30" style="stroke:#000000;stroke-width:24.80"/>
	<line x1="5043.16" y1="4187.80" x2="5043.16" y2="4187.80" style="stroke:#000000;stroke-width:24.80"/>
	<line x1="5463.87" y1="4419.29" x2="5514.72" y2="4419.29" style="stroke:#000000;stroke-width:24.80"/>
	<line x1="5231.04" y1="4650.79" x2="5295.54" y2="4650.79" style="stroke:#000000;stroke-width:24.80"/>
	<line x1="5142.72" y1="4882.28" x2="5232.91" y2="4882.28" style="stroke:#000000;stroke-width:24.80"/>
	<line x1="5082.77" y1="5113.78" x2="5143.79" y2="5113.78" style="stroke:#000000;stroke-width:24.80"/>
	<line x1="5043.16" y1="5345.27" x2="5043.16" y2="5345.27" style="stroke:#000000;stroke-width:24.80"/>
	<line x1="5364.32" y1="5576.77" x2="5417.31" y2="5576.77" style="stroke:#000000;stroke-width:24.80"/>
	<line x1="5191.16" y1="5808.27" x2="5260.48" y2="5808.27" style="stroke:#000000;stroke-width:24.80"/>
	<line x1="5159.31" y1="6039.76" x2="5266.10" y2="6039.76" style="stroke:#000000;stroke-width:24.80"/>
	<line x1="5140.85" y1="6271.52" x2="5225.42" y2="6271.52" style="stroke:#000000;stroke-width:24.80"/>
	<line x1="5043.16" y1="6503.02" x2="5043.16" y2="6503.02" style="stroke:#000000;stroke-width:24.80"/>
	<line x1="5291.25" y1="6734.52" x2="5339.70" y2="6734.52" style="stroke:#000000;stroke-width:24.80"/>
	<line x1="5179.65" y1="6966.01" x2="5247.36" y2="6966.01" style="stroke:#000000;stroke-width:24.80"/>
	<line x1="5152.62" y1="7197.51" x2="5258.07" y2="7197.51" style="stroke:#000000;stroke-width:24.80"/>
	<line x1="5124.79" y1="7429.00" x2="5206.42" y2="7429.00" style="stroke:#000000;stroke-width:24.80"/>
	<text x="560.14" y="1704.93" style="font-family:'Helvetica';font-size:182.25px;fill:#000000">confirmed</text>
	<text x="560.14" y="1936.43" style="font-family:'Helvetica';font-size:182.25px;fill:#000000">Crude</text>
	<text x="560.14" y="3094.17" style="font-family:'Helvetica';font-size:182.25px;fill:#000000">Age-sex</text>
	<text x="560.14" y="4251.65" style="font-family:'Helvetica';font-size:182.25px;fill:#000000">Age-sex-IMD</text>
	<text x="560.14" y="5409.13" style="font-family:'Helvetica';font-size:182.25px;fill:#000000">+ co-morbidities</text>
	<text x="560.14" y="6566.88" style="font-family:'Helvetica';font-size:182.25px;fill:#000000">+ household size</text>
	<text x="560.14" y="1241.94" style="font-family:'Helvetica';font-size:182.25px;fill:#000000">adjusted</text>
	<text x="2260.38" y="1936.43" style="font-family:'Helvetica';font-size:182.25px;fill:#000000">White</text>
	<text x="2260.38" y="2167.92" style="font-family:'Helvetica';font-size:182.25px;fill:#000000">South Asian</text>
	<text x="2260.38" y="2399.69" style="font-family:'Helvetica';font-size:182.25px;fill:#000000">Black</text>
	<text x="2260.38" y="2631.18" style="font-family:'Helvetica';font-size:182.25px;fill:#000000">Mixed</text>
	<text x="2260.38" y="2862.68" style="font-family:'Helvetica';font-size:182.25px;fill:#000000">Other</text>
	<text x="2260.38" y="3094.17" style="font-family:'Helvetica';font-size:182.25px;fill:#000000">White</text>
	<text x="2260.38" y="3325.67" style="font-family:'Helvetica';font-size:182.25px;fill:#000000">South Asian</text>
	<text x="2260.38" y="3557.16" style="font-family:'Helvetica';font-size:182.25px;fill:#000000">Black</text>
	<text x="2260.38" y="3788.66" style="font-family:'Helvetica';font-size:182.25px;fill:#000000">Mixed</text>
	<text x="2260.38" y="4020.16" style="font-family:'Helvetica';font-size:182.25px;fill:#000000">Other</text>
	<text x="2260.38" y="4251.65" style="font-family:'Helvetica';font-size:182.25px;fill:#000000">White</text>
	<text x="2260.38" y="4483.15" style="font-family:'Helvetica';font-size:182.25px;fill:#000000">South Asian</text>
	<text x="2260.38" y="4714.64" style="font-family:'Helvetica';font-size:182.25px;fill:#000000">Black</text>
	<text x="2260.38" y="4946.14" style="font-family:'Helvetica';font-size:182.25px;fill:#000000">Mixed</text>
	<text x="2260.38" y="5177.63" style="font-family:'Helvetica';font-size:182.25px;fill:#000000">Other</text>
	<text x="2260.38" y="5409.13" style="font-family:'Helvetica';font-size:182.25px;fill:#000000">White</text>
	<text x="2260.38" y="5640.63" style="font-family:'Helvetica';font-size:182.25px;fill:#000000">South Asian</text>
	<text x="2260.38" y="5872.12" style="font-family:'Helvetica';font-size:182.25px;fill:#000000">Black</text>
	<text x="2260.38" y="6103.62" style="font-family:'Helvetica';font-size:182.25px;fill:#000000">Mixed</text>
	<text x="2260.38" y="6335.38" style="font-family:'Helvetica';font-size:182.25px;fill:#000000">Other</text>
	<text x="2260.38" y="6566.88" style="font-family:'Helvetica';font-size:182.25px;fill:#000000">White</text>
	<text x="2260.38" y="6798.37" style="font-family:'Helvetica';font-size:182.25px;fill:#000000">South Asian</text>
	<text x="2260.38" y="7029.87" style="font-family:'Helvetica';font-size:182.25px;fill:#000000">Black</text>
	<text x="2260.38" y="7261.36" style="font-family:'Helvetica';font-size:182.25px;fill:#000000">Mixed</text>
	<text x="2260.38" y="7492.86" style="font-family:'Helvetica';font-size:182.25px;fill:#000000">Other</text>
	<text x="2260.38" y="1241.94" style="font-family:'Helvetica';font-size:182.25px;fill:#000000">eth5</text>
	<text x="6144.72" y="1936.43" style="font-family:'Helvetica';font-size:182.25px;fill:#000000">1.00 (1.00, 1.00)</text>
	<text x="6144.72" y="2167.92" style="font-family:'Helvetica';font-size:182.25px;fill:#000000">2.07 (2.01, 2.14)</text>
	<text x="6144.72" y="2399.69" style="font-family:'Helvetica';font-size:182.25px;fill:#000000">1.44 (1.36, 1.52)</text>
	<text x="6144.72" y="2631.18" style="font-family:'Helvetica';font-size:182.25px;fill:#000000">1.02 (0.93, 1.12)</text>
	<text x="6144.72" y="2862.68" style="font-family:'Helvetica';font-size:182.25px;fill:#000000">0.85 (0.79, 0.92)</text>
	<text x="6144.72" y="3094.17" style="font-family:'Helvetica';font-size:182.25px;fill:#000000">1.00 (1.00, 1.00)</text>
	<text x="6144.72" y="3325.67" style="font-family:'Helvetica';font-size:182.25px;fill:#000000">2.57 (2.49, 2.65)</text>
	<text x="6144.72" y="3557.16" style="font-family:'Helvetica';font-size:182.25px;fill:#000000">1.86 (1.75, 1.97)</text>
	<text x="6144.72" y="3788.66" style="font-family:'Helvetica';font-size:182.25px;fill:#000000">1.52 (1.38, 1.67)</text>
	<text x="6144.72" y="4020.16" style="font-family:'Helvetica';font-size:182.25px;fill:#000000">1.27 (1.17, 1.37)</text>
	<text x="6144.72" y="4251.65" style="font-family:'Helvetica';font-size:182.25px;fill:#000000">1.00 (1.00, 1.00)</text>
	<text x="6144.72" y="4483.15" style="font-family:'Helvetica';font-size:182.25px;fill:#000000">2.36 (2.29, 2.44)</text>
	<text x="6144.72" y="4714.64" style="font-family:'Helvetica';font-size:182.25px;fill:#000000">1.67 (1.57, 1.77)</text>
	<text x="6144.72" y="4946.14" style="font-family:'Helvetica';font-size:182.25px;fill:#000000">1.44 (1.30, 1.58)</text>
	<text x="6144.72" y="5177.63" style="font-family:'Helvetica';font-size:182.25px;fill:#000000">1.21 (1.12, 1.31)</text>
	<text x="6144.72" y="5409.13" style="font-family:'Helvetica';font-size:182.25px;fill:#000000">1.00 (1.00, 1.00)</text>
	<text x="6144.72" y="5640.63" style="font-family:'Helvetica';font-size:182.25px;fill:#000000">2.06 (1.98, 2.14)</text>
	<text x="6144.72" y="5872.12" style="font-family:'Helvetica';font-size:182.25px;fill:#000000">1.56 (1.45, 1.66)</text>
	<text x="6144.72" y="6103.62" style="font-family:'Helvetica';font-size:182.25px;fill:#000000">1.51 (1.35, 1.68)</text>
	<text x="6144.72" y="6335.38" style="font-family:'Helvetica';font-size:182.25px;fill:#000000">1.42 (1.30, 1.56)</text>
	<text x="6144.72" y="6566.88" style="font-family:'Helvetica';font-size:182.25px;fill:#000000">1.00 (1.00, 1.00)</text>
	<text x="6144.72" y="6798.37" style="font-family:'Helvetica';font-size:182.25px;fill:#000000">1.83 (1.76, 1.91)</text>
	<text x="6144.72" y="7029.87" style="font-family:'Helvetica';font-size:182.25px;fill:#000000">1.52 (1.42, 1.62)</text>
	<text x="6144.72" y="7261.36" style="font-family:'Helvetica';font-size:182.25px;fill:#000000">1.49 (1.33, 1.66)</text>
	<text x="6144.72" y="7492.86" style="font-family:'Helvetica';font-size:182.25px;fill:#000000">1.37 (1.25, 1.50)</text>
	<text x="6144.72" y="1241.94" style="font-family:'Helvetica';font-size:182.25px;fill:#000000">Ratio (95% CI)</text>
	<text x="6144.72" y="1010.44" style="font-family:'Helvetica';font-size:182.25px;fill:#000000">Hazard</text>
	<text x="6144.72" y="1936.43" style="font-family:'Helvetica';font-size:182.25px;fill:#000000">1.00 (1.00, 1.00)</text>
	<text x="6144.72" y="2167.92" style="font-family:'Helvetica';font-size:182.25px;fill:#000000">2.07 (2.01, 2.14)</text>
	<text x="6144.72" y="2399.69" style="font-family:'Helvetica';font-size:182.25px;fill:#000000">1.44 (1.36, 1.52)</text>
	<text x="6144.72" y="2631.18" style="font-family:'Helvetica';font-size:182.25px;fill:#000000">1.02 (0.93, 1.12)</text>
	<text x="6144.72" y="2862.68" style="font-family:'Helvetica';font-size:182.25px;fill:#000000">0.85 (0.79, 0.92)</text>
	<text x="6144.72" y="3094.17" style="font-family:'Helvetica';font-size:182.25px;fill:#000000">1.00 (1.00, 1.00)</text>
	<text x="6144.72" y="3325.67" style="font-family:'Helvetica';font-size:182.25px;fill:#000000">2.57 (2.49, 2.65)</text>
	<text x="6144.72" y="3557.16" style="font-family:'Helvetica';font-size:182.25px;fill:#000000">1.86 (1.75, 1.97)</text>
	<text x="6144.72" y="3788.66" style="font-family:'Helvetica';font-size:182.25px;fill:#000000">1.52 (1.38, 1.67)</text>
	<text x="6144.72" y="4020.16" style="font-family:'Helvetica';font-size:182.25px;fill:#000000">1.27 (1.17, 1.37)</text>
	<text x="6144.72" y="4251.65" style="font-family:'Helvetica';font-size:182.25px;fill:#000000">1.00 (1.00, 1.00)</text>
	<text x="6144.72" y="4483.15" style="font-family:'Helvetica';font-size:182.25px;fill:#000000">2.36 (2.29, 2.44)</text>
	<text x="6144.72" y="4714.64" style="font-family:'Helvetica';font-size:182.25px;fill:#000000">1.67 (1.57, 1.77)</text>
	<text x="6144.72" y="4946.14" style="font-family:'Helvetica';font-size:182.25px;fill:#000000">1.44 (1.30, 1.58)</text>
	<text x="6144.72" y="5177.63" style="font-family:'Helvetica';font-size:182.25px;fill:#000000">1.21 (1.12, 1.31)</text>
	<text x="6144.72" y="5409.13" style="font-family:'Helvetica';font-size:182.25px;fill:#000000">1.00 (1.00, 1.00)</text>
	<text x="6144.72" y="5640.63" style="font-family:'Helvetica';font-size:182.25px;fill:#000000">2.06 (1.98, 2.14)</text>
	<text x="6144.72" y="5872.12" style="font-family:'Helvetica';font-size:182.25px;fill:#000000">1.56 (1.45, 1.66)</text>
	<text x="6144.72" y="6103.62" style="font-family:'Helvetica';font-size:182.25px;fill:#000000">1.51 (1.35, 1.68)</text>
	<text x="6144.72" y="6335.38" style="font-family:'Helvetica';font-size:182.25px;fill:#000000">1.42 (1.30, 1.56)</text>
	<text x="6144.72" y="6566.88" style="font-family:'Helvetica';font-size:182.25px;fill:#000000">1.00 (1.00, 1.00)</text>
	<text x="6144.72" y="6798.37" style="font-family:'Helvetica';font-size:182.25px;fill:#000000">1.83 (1.76, 1.91)</text>
	<text x="6144.72" y="7029.87" style="font-family:'Helvetica';font-size:182.25px;fill:#000000">1.52 (1.42, 1.62)</text>
	<text x="6144.72" y="7261.36" style="font-family:'Helvetica';font-size:182.25px;fill:#000000">1.49 (1.33, 1.66)</text>
	<text x="6144.72" y="7492.86" style="font-family:'Helvetica';font-size:182.25px;fill:#000000">1.37 (1.25, 1.50)</text>
	<text x="6144.72" y="1241.94" style="font-family:'Helvetica';font-size:182.25px;fill:#000000">Ratio (95% CI)</text>
	<text x="6144.72" y="1010.44" style="font-family:'Helvetica';font-size:182.25px;fill:#000000">Hazard</text>
	<polygon points="4995.39,1872.84 5043.16,1825.06 5090.94,1872.84 5043.16,1920.62" style="fill:#000000"/>
	<polygon points="5012.92,1872.84 5043.16,1842.60 5073.41,1872.84 5043.16,1903.08" style="fill:none;stroke:#000000;stroke-width:24.80"/>
	<polygon points="5346.51,2104.34 5394.29,2056.56 5442.07,2104.34 5394.29,2152.11" style="fill:#000000"/>
	<polygon points="5364.05,2104.34 5394.29,2074.09 5424.53,2104.34 5394.29,2134.58" style="fill:none;stroke:#000000;stroke-width:24.80"/>
	<polygon points="5137.76,2335.83 5185.54,2288.05 5233.32,2335.83 5185.54,2383.61" style="fill:#000000"/>
	<polygon points="5155.30,2335.83 5185.54,2305.59 5215.78,2335.83 5185.54,2366.07" style="fill:none;stroke:#000000;stroke-width:24.80"/>
	<polygon points="5001.27,2567.33 5049.05,2519.55 5096.83,2567.33 5049.05,2615.11" style="fill:#000000"/>
	<polygon points="5018.81,2567.33 5049.05,2537.08 5079.29,2567.33 5049.05,2597.57" style="fill:none;stroke:#000000;stroke-width:24.80"/>
	<polygon points="4947.21,2798.82 4994.99,2751.04 5042.77,2798.82 4994.99,2846.60" style="fill:#000000"/>
	<polygon points="4964.75,2798.82 4994.99,2768.58 5025.23,2798.82 4994.99,2829.06" style="fill:none;stroke:#000000;stroke-width:24.80"/>
	<polygon points="4995.39,3030.32 5043.16,2982.54 5090.94,3030.32 5043.16,3078.10" style="fill:#000000"/>
	<polygon points="5012.92,3030.32 5043.16,3000.08 5073.41,3030.32 5043.16,3060.56" style="fill:none;stroke:#000000;stroke-width:24.80"/>
	<polygon points="5508.16,3261.81 5555.94,3214.03 5603.72,3261.81 5555.94,3309.59" style="fill:#000000"/>
	<polygon points="5525.70,3261.81 5555.94,3231.57 5586.18,3261.81 5555.94,3292.06" style="fill:none;stroke:#000000;stroke-width:24.80"/>
	<polygon points="5276.13,3493.31 5323.91,3445.53 5371.68,3493.31 5323.91,3541.09" style="fill:#000000"/>
	<polygon points="5293.66,3493.31 5323.91,3463.07 5354.15,3493.31 5323.91,3523.55" style="fill:none;stroke:#000000;stroke-width:24.80"/>
	<polygon points="5165.06,3724.80 5212.84,3677.03 5260.62,3724.80 5212.84,3772.58" style="fill:#000000"/>
	<polygon points="5182.60,3724.80 5212.84,3694.56 5243.08,3724.80 5212.84,3755.05" style="fill:none;stroke:#000000;stroke-width:24.80"/>
	<polygon points="5082.36,3956.30 5130.14,3908.52 5177.92,3956.30 5130.14,4004.08" style="fill:#000000"/>
	<polygon points="5099.90,3956.30 5130.14,3926.06 5160.39,3956.30 5130.14,3986.54" style="fill:none;stroke:#000000;stroke-width:24.80"/>
	<polygon points="4995.39,4188.06 5043.16,4140.28 5090.94,4188.06 5043.16,4235.84" style="fill:#000000"/>
	<polygon points="5012.92,4188.06 5043.16,4157.82 5073.41,4188.06 5043.16,4218.31" style="fill:none;stroke:#000000;stroke-width:24.80"/>
	<polygon points="5440.98,4419.56 5488.76,4371.78 5536.54,4419.56 5488.76,4467.34" style="fill:#000000"/>
	<polygon points="5458.52,4419.56 5488.76,4389.32 5519.01,4419.56 5488.76,4449.80" style="fill:none;stroke:#000000;stroke-width:24.80"/>
	<polygon points="5214.30,4651.05 5262.08,4603.28 5309.86,4651.05 5262.08,4698.83" style="fill:#000000"/>
	<polygon points="5231.84,4651.05 5262.08,4620.81 5292.33,4651.05 5262.08,4681.30" style="fill:none;stroke:#000000;stroke-width:24.80"/>
	<polygon points="5137.76,4882.55 5185.54,4834.77 5233.32,4882.55 5185.54,4930.33" style="fill:#000000"/>
	<polygon points="5155.30,4882.55 5185.54,4852.31 5215.78,4882.55 5185.54,4912.79" style="fill:none;stroke:#000000;stroke-width:24.80"/>
	<polygon points="5064.17,5114.05 5111.94,5066.27 5159.72,5114.05 5111.94,5161.82" style="fill:#000000"/>
	<polygon points="5081.70,5114.05 5111.94,5083.80 5142.19,5114.05 5111.94,5144.29" style="fill:none;stroke:#000000;stroke-width:24.80"/>
	<polygon points="4995.39,5345.54 5043.16,5297.76 5090.94,5345.54 5043.16,5393.32" style="fill:#000000"/>
	<polygon points="5012.92,5345.54 5043.16,5315.30 5073.41,5345.54 5043.16,5375.78" style="fill:none;stroke:#000000;stroke-width:24.80"/>
	<polygon points="5342.23,5577.04 5390.01,5529.26 5437.79,5577.04 5390.01,5624.82" style="fill:#000000"/>
	<polygon points="5359.77,5577.04 5390.01,5546.80 5420.25,5577.04 5390.01,5607.28" style="fill:none;stroke:#000000;stroke-width:24.80"/>
	<polygon points="5176.84,5808.53 5224.62,5760.75 5272.39,5808.53 5224.62,5856.31" style="fill:#000000"/>
	<polygon points="5194.37,5808.53 5224.62,5778.29 5254.86,5808.53 5224.62,5838.77" style="fill:none;stroke:#000000;stroke-width:24.80"/>
	<polygon points="5161.85,6040.03 5209.63,5992.25 5257.41,6040.03 5209.63,6087.81" style="fill:#000000"/>
	<polygon points="5179.39,6040.03 5209.63,6009.79 5239.87,6040.03 5209.63,6070.27" style="fill:none;stroke:#000000;stroke-width:24.80"/>
	<polygon points="5133.21,6271.52 5180.99,6223.75 5228.77,6271.52 5180.99,6319.30" style="fill:#000000"/>
	<polygon points="5150.75,6271.52 5180.99,6241.28 5211.23,6271.52 5180.99,6301.77" style="fill:none;stroke:#000000;stroke-width:24.80"/>
	<polygon points="4995.39,6503.02 5043.16,6455.24 5090.94,6503.02 5043.16,6550.80" style="fill:#000000"/>
	<polygon points="5012.92,6503.02 5043.16,6472.78 5073.41,6503.02 5043.16,6533.26" style="fill:none;stroke:#000000;stroke-width:24.80"/>
	<polygon points="5267.03,6734.52 5314.81,6686.74 5362.58,6734.52 5314.81,6782.29" style="fill:#000000"/>
	<polygon points="5284.56,6734.52 5314.81,6704.27 5345.05,6734.52 5314.81,6764.76" style="fill:none;stroke:#000000;stroke-width:24.80"/>
	<polygon points="5164.53,6966.01 5212.30,6918.23 5260.08,6966.01 5212.30,7013.79" style="fill:#000000"/>
	<polygon points="5182.06,6966.01 5212.30,6935.77 5242.55,6966.01 5212.30,6996.25" style="fill:none;stroke:#000000;stroke-width:24.80"/>
	<polygon points="5154.62,7197.51 5202.40,7149.73 5250.18,7197.51 5202.40,7245.29" style="fill:#000000"/>
	<polygon points="5172.16,7197.51 5202.40,7167.26 5232.64,7197.51 5202.40,7227.75" style="fill:none;stroke:#000000;stroke-width:24.80"/>
	<polygon points="5115.82,7429.00 5163.60,7381.22 5211.38,7429.00 5163.60,7476.78" style="fill:#000000"/>
	<polygon points="5133.35,7429.00 5163.60,7398.76 5193.84,7429.00 5163.60,7459.24" style="fill:none;stroke:#000000;stroke-width:24.80"/>
	<line x1="439.71" y1="8123.49" x2="7913.46" y2="8123.49" style="stroke:#000000;stroke-width:16.53"/>
	<text x="4225.83" y="8308.20" style="font-family:'Helvetica';font-size:182.25px;fill:#000000" text-anchor="middle"> </text>
	<text x="5533.72" y="8308.20" style="font-family:'Helvetica';font-size:182.25px;fill:#000000" text-anchor="middle"> </text>
	<line x1="5043.16" y1="8123.49" x2="5043.16" y2="8238.30" style="stroke:#000000;stroke-width:16.53"/>
	<text x="5043.16" y="8423.02" style="font-family:'Helvetica';font-size:182.25px;fill:#000000" text-anchor="middle">1</text>
	<line x1="4798.02" y1="8123.49" x2="4798.02" y2="8238.30" style="stroke:#000000;stroke-width:16.53"/>
	<text x="4798.02" y="8423.02" style="font-family:'Helvetica';font-size:182.25px;fill:#000000" text-anchor="middle">.25</text>
	<line x1="4879.64" y1="8123.49" x2="4879.64" y2="8238.30" style="stroke:#000000;stroke-width:16.53"/>
	<text x="4879.64" y="8423.02" style="font-family:'Helvetica';font-size:182.25px;fill:#000000" text-anchor="middle">.5</text>
	<line x1="5043.16" y1="8123.49" x2="5043.16" y2="8238.30" style="stroke:#000000;stroke-width:16.53"/>
	<text x="5043.16" y="8423.02" style="font-family:'Helvetica';font-size:182.25px;fill:#000000" text-anchor="middle">1</text>
	<line x1="5370.20" y1="8123.49" x2="5370.20" y2="8238.30" style="stroke:#000000;stroke-width:16.53"/>
	<text x="5370.20" y="8423.02" style="font-family:'Helvetica';font-size:182.25px;fill:#000000" text-anchor="middle">2</text>
	<line x1="6024.29" y1="8123.49" x2="6024.29" y2="8238.30" style="stroke:#000000;stroke-width:16.53"/>
	<text x="6024.29" y="8423.02" style="font-family:'Helvetica';font-size:182.25px;fill:#000000" text-anchor="middle">4</text>
	<line x1="5043.16" y1="8123.49" x2="5043.16" y2="8238.30" style="stroke:#000000;stroke-width:16.53"/>
	<text x="4176.59" y="596.56" style="font-family:'Helvetica';font-size:229.62px;fill:#000000" text-anchor="middle">complete case analysis</text>
	<text x="4176.59" y="250.39" style="font-family:'Helvetica';font-size:287.16px;fill:#000000" text-anchor="middle">confirmed</text>
</svg>
