<?xml version="1.0" encoding="UTF-8" standalone="no"?>
<!-- This is a Stata 16.1 generated SVG file (http://www.stata.com) -->

<svg version="1.1" width="11.48in" height="11.89in" viewBox="0 0 8267 8564" xmlns="http://www.w3.org/2000/svg" xmlns:xlink="http://www.w3.org/1999/xlink">
	<desc>Stata Graph - Graph</desc>
	<rect x="0" y="0" width="8267" height="8564" style="fill:#F0F0F0;stroke:none"/>
	<rect x="0.00" y="0.00" width="8267.00" height="8564.00" style="fill:#FFFFFF"/>
	<rect x="8.27" y="8.27" width="8250.47" height="8547.47" style="fill:none;stroke:#FFFFFF;stroke-width:16.53"/>
	<rect x="439.71" y="715.09" width="7473.75" height="7408.40" style="fill:#FFFFFF"/>
	<rect x="447.98" y="723.36" width="7457.22" height="7391.86" style="fill:none;stroke:#FFFFFF;stroke-width:16.53"/>
	<line x1="439.71" y1="1467.66" x2="7913.46" y2="1467.66" style="stroke:#C0C0C0;stroke-width:16.53"/>
	<text x="560.14" y="7839.97" style="font-family:'Helvetica';font-size:182.25px;fill:#000000">NOTE: Weights are from random effects analysis</text>
	<line x1="5043.16" y1="8123.49" x2="5043.16" y2="1467.66" style="stroke:#000000;stroke-width:16.53"/>
	<text x="560.14" y="7724.35" style="font-family:'Helvetica';font-size:182.25px;fill:#000000">.</text>
	<line x1="5043.16" y1="1872.57" x2="5043.16" y2="1872.57" style="stroke:#000000;stroke-width:24.80"/>
	<line x1="5022.02" y1="2104.07" x2="5028.44" y2="2104.07" style="stroke:#000000;stroke-width:24.80"/>
	<line x1="5024.43" y1="2335.83" x2="5035.40" y2="2335.83" style="stroke:#000000;stroke-width:24.80"/>
	<line x1="4992.85" y1="2567.33" x2="5007.57" y2="2567.33" style="stroke:#000000;stroke-width:24.80"/>
	<line x1="4898.38" y1="2798.82" x2="4907.21" y2="2798.82" style="stroke:#000000;stroke-width:24.80"/>
	<line x1="5043.16" y1="3030.32" x2="5043.16" y2="3030.32" style="stroke:#000000;stroke-width:24.80"/>
	<line x1="5069.39" y1="3261.81" x2="5077.42" y2="3261.81" style="stroke:#000000;stroke-width:24.80"/>
	<line x1="5077.15" y1="3493.31" x2="5090.27" y2="3493.31" style="stroke:#000000;stroke-width:24.80"/>
	<line x1="5051.19" y1="3724.80" x2="5069.12" y2="3724.80" style="stroke:#000000;stroke-width:24.80"/>
	<line x1="4940.13" y1="3956.30" x2="4951.10" y2="3956.30" style="stroke:#000000;stroke-width:24.80"/>
	<line x1="5043.16" y1="4187.80" x2="5043.16" y2="4187.80" style="stroke:#000000;stroke-width:24.80"/>
	<line x1="5049.05" y1="4419.29" x2="5056.55" y2="4419.29" style="stroke:#000000;stroke-width:24.80"/>
	<line x1="5049.86" y1="4650.79" x2="5062.43" y2="4650.79" style="stroke:#000000;stroke-width:24.80"/>
	<line x1="5038.35" y1="4882.28" x2="5056.01" y2="4882.28" style="stroke:#000000;stroke-width:24.80"/>
	<line x1="4934.24" y1="5113.78" x2="4944.95" y2="5113.78" style="stroke:#000000;stroke-width:24.80"/>
	<line x1="5043.16" y1="5345.27" x2="5043.16" y2="5345.27" style="stroke:#000000;stroke-width:24.80"/>
	<line x1="5043.70" y1="5576.77" x2="5052.53" y2="5576.77" style="stroke:#000000;stroke-width:24.80"/>
	<line x1="5056.55" y1="5808.27" x2="5071.53" y2="5808.27" style="stroke:#000000;stroke-width:24.80"/>
	<line x1="5045.31" y1="6039.76" x2="5066.18" y2="6039.76" style="stroke:#000000;stroke-width:24.80"/>
	<line x1="4996.06" y1="6271.52" x2="5012.39" y2="6271.52" style="stroke:#000000;stroke-width:24.80"/>
	<line x1="5043.16" y1="6503.02" x2="5043.16" y2="6503.02" style="stroke:#000000;stroke-width:24.80"/>
	<line x1="5042.36" y1="6734.52" x2="5051.19" y2="6734.52" style="stroke:#000000;stroke-width:24.80"/>
	<line x1="5056.55" y1="6966.01" x2="5071.27" y2="6966.01" style="stroke:#000000;stroke-width:24.80"/>
	<line x1="5045.04" y1="7197.51" x2="5066.18" y2="7197.51" style="stroke:#000000;stroke-width:24.80"/>
	<line x1="4995.79" y1="7429.00" x2="5012.12" y2="7429.00" style="stroke:#000000;stroke-width:24.80"/>
	<text x="560.14" y="1704.93" style="font-family:'Helvetica';font-size:182.25px;fill:#000000">suspected</text>
	<text x="560.14" y="1936.43" style="font-family:'Helvetica';font-size:182.25px;fill:#000000">Crude</text>
	<text x="560.14" y="3094.17" style="font-family:'Helvetica';font-size:182.25px;fill:#000000">Age-sex</text>
	<text x="560.14" y="4251.65" style="font-family:'Helvetica';font-size:182.25px;fill:#000000">Age-sex-IMD</text>
	<text x="560.14" y="5409.13" style="font-family:'Helvetica';font-size:182.25px;fill:#000000">+ co-morbidities</text>
	<text x="560.14" y="6566.88" style="font-family:'Helvetica';font-size:182.25px;fill:#000000">+ household size</text>
	<text x="560.14" y="1241.94" style="font-family:'Helvetica';font-size:182.25px;fill:#000000">adjusted</text>
	<text x="2260.38" y="1936.43" style="font-family:'Helvetica';font-size:182.25px;fill:#000000">White</text>
	<text x="2260.38" y="2167.92" style="font-family:'Helvetica';font-size:182.25px;fill:#000000">South Asian</text>
	<text x="2260.38" y="2399.69" style="font-family:'Helvetica';font-size:182.25px;fill:#000000">Black</text>
	<text x="2260.38" y="2631.18" style="font-family:'Helvetica';font-size:182.25px;fill:#000000">Mixed</text>
	<text x="2260.38" y="2862.68" style="font-family:'Helvetica';font-size:182.25px;fill:#000000">Other</text>
	<text x="2260.38" y="3094.17" style="font-family:'Helvetica';font-size:182.25px;fill:#000000">White</text>
	<text x="2260.38" y="3325.67" style="font-family:'Helvetica';font-size:182.25px;fill:#000000">South Asian</text>
	<text x="2260.38" y="3557.16" style="font-family:'Helvetica';font-size:182.25px;fill:#000000">Black</text>
	<text x="2260.38" y="3788.66" style="font-family:'Helvetica';font-size:182.25px;fill:#000000">Mixed</text>
	<text x="2260.38" y="4020.16" style="font-family:'Helvetica';font-size:182.25px;fill:#000000">Other</text>
	<text x="2260.38" y="4251.65" style="font-family:'Helvetica';font-size:182.25px;fill:#000000">White</text>
	<text x="2260.38" y="4483.15" style="font-family:'Helvetica';font-size:182.25px;fill:#000000">South Asian</text>
	<text x="2260.38" y="4714.64" style="font-family:'Helvetica';font-size:182.25px;fill:#000000">Black</text>
	<text x="2260.38" y="4946.14" style="font-family:'Helvetica';font-size:182.25px;fill:#000000">Mixed</text>
	<text x="2260.38" y="5177.63" style="font-family:'Helvetica';font-size:182.25px;fill:#000000">Other</text>
	<text x="2260.38" y="5409.13" style="font-family:'Helvetica';font-size:182.25px;fill:#000000">White</text>
	<text x="2260.38" y="5640.63" style="font-family:'Helvetica';font-size:182.25px;fill:#000000">South Asian</text>
	<text x="2260.38" y="5872.12" style="font-family:'Helvetica';font-size:182.25px;fill:#000000">Black</text>
	<text x="2260.38" y="6103.62" style="font-family:'Helvetica';font-size:182.25px;fill:#000000">Mixed</text>
	<text x="2260.38" y="6335.38" style="font-family:'Helvetica';font-size:182.25px;fill:#000000">Other</text>
	<text x="2260.38" y="6566.88" style="font-family:'Helvetica';font-size:182.25px;fill:#000000">White</text>
	<text x="2260.38" y="6798.37" style="font-family:'Helvetica';font-size:182.25px;fill:#000000">South Asian</text>
	<text x="2260.38" y="7029.87" style="font-family:'Helvetica';font-size:182.25px;fill:#000000">Black</text>
	<text x="2260.38" y="7261.36" style="font-family:'Helvetica';font-size:182.25px;fill:#000000">Mixed</text>
	<text x="2260.38" y="7492.86" style="font-family:'Helvetica';font-size:182.25px;fill:#000000">Other</text>
	<text x="2260.38" y="1241.94" style="font-family:'Helvetica';font-size:182.25px;fill:#000000">eth5</text>
	<text x="6144.72" y="1936.43" style="font-family:'Helvetica';font-size:182.25px;fill:#000000">1.00 (1.00, 1.00)</text>
	<text x="6144.72" y="2167.92" style="font-family:'Helvetica';font-size:182.25px;fill:#000000">0.94 (0.93, 0.96)</text>
	<text x="6144.72" y="2399.69" style="font-family:'Helvetica';font-size:182.25px;fill:#000000">0.96 (0.94, 0.98)</text>
	<text x="6144.72" y="2631.18" style="font-family:'Helvetica';font-size:182.25px;fill:#000000">0.87 (0.85, 0.89)</text>
	<text x="6144.72" y="2862.68" style="font-family:'Helvetica';font-size:182.25px;fill:#000000">0.57 (0.56, 0.58)</text>
	<text x="6144.72" y="3094.17" style="font-family:'Helvetica';font-size:182.25px;fill:#000000">1.00 (1.00, 1.00)</text>
	<text x="6144.72" y="3325.67" style="font-family:'Helvetica';font-size:182.25px;fill:#000000">1.09 (1.08, 1.10)</text>
	<text x="6144.72" y="3557.16" style="font-family:'Helvetica';font-size:182.25px;fill:#000000">1.12 (1.10, 1.14)</text>
	<text x="6144.72" y="3788.66" style="font-family:'Helvetica';font-size:182.25px;fill:#000000">1.05 (1.02, 1.08)</text>
	<text x="6144.72" y="4020.16" style="font-family:'Helvetica';font-size:182.25px;fill:#000000">0.70 (0.69, 0.72)</text>
	<text x="6144.72" y="4251.65" style="font-family:'Helvetica';font-size:182.25px;fill:#000000">1.00 (1.00, 1.00)</text>
	<text x="6144.72" y="4483.15" style="font-family:'Helvetica';font-size:182.25px;fill:#000000">1.03 (1.02, 1.04)</text>
	<text x="6144.72" y="4714.64" style="font-family:'Helvetica';font-size:182.25px;fill:#000000">1.04 (1.02, 1.06)</text>
	<text x="6144.72" y="4946.14" style="font-family:'Helvetica';font-size:182.25px;fill:#000000">1.01 (0.99, 1.04)</text>
	<text x="6144.72" y="5177.63" style="font-family:'Helvetica';font-size:182.25px;fill:#000000">0.68 (0.67, 0.70)</text>
	<text x="6144.72" y="5409.13" style="font-family:'Helvetica';font-size:182.25px;fill:#000000">1.00 (1.00, 1.00)</text>
	<text x="6144.72" y="5640.63" style="font-family:'Helvetica';font-size:182.25px;fill:#000000">1.01 (1.00, 1.03)</text>
	<text x="6144.72" y="5872.12" style="font-family:'Helvetica';font-size:182.25px;fill:#000000">1.06 (1.04, 1.09)</text>
	<text x="6144.72" y="6103.62" style="font-family:'Helvetica';font-size:182.25px;fill:#000000">1.04 (1.01, 1.07)</text>
	<text x="6144.72" y="6335.38" style="font-family:'Helvetica';font-size:182.25px;fill:#000000">0.88 (0.86, 0.91)</text>
	<text x="6144.72" y="6566.88" style="font-family:'Helvetica';font-size:182.25px;fill:#000000">1.00 (1.00, 1.00)</text>
	<text x="6144.72" y="6798.37" style="font-family:'Helvetica';font-size:182.25px;fill:#000000">1.01 (1.00, 1.02)</text>
	<text x="6144.72" y="7029.87" style="font-family:'Helvetica';font-size:182.25px;fill:#000000">1.06 (1.04, 1.09)</text>
	<text x="6144.72" y="7261.36" style="font-family:'Helvetica';font-size:182.25px;fill:#000000">1.04 (1.01, 1.07)</text>
	<text x="6144.72" y="7492.86" style="font-family:'Helvetica';font-size:182.25px;fill:#000000">0.88 (0.85, 0.90)</text>
	<text x="6144.72" y="1241.94" style="font-family:'Helvetica';font-size:182.25px;fill:#000000">Ratio (95% CI)</text>
	<text x="6144.72" y="1010.44" style="font-family:'Helvetica';font-size:182.25px;fill:#000000">Hazard</text>
	<text x="6144.72" y="1936.43" style="font-family:'Helvetica';font-size:182.25px;fill:#000000">1.00 (1.00, 1.00)</text>
	<text x="6144.72" y="2167.92" style="font-family:'Helvetica';font-size:182.25px;fill:#000000">0.94 (0.93, 0.96)</text>
	<text x="6144.72" y="2399.69" style="font-family:'Helvetica';font-size:182.25px;fill:#000000">0.96 (0.94, 0.98)</text>
	<text x="6144.72" y="2631.18" style="font-family:'Helvetica';font-size:182.25px;fill:#000000">0.87 (0.85, 0.89)</text>
	<text x="6144.72" y="2862.68" style="font-family:'Helvetica';font-size:182.25px;fill:#000000">0.57 (0.56, 0.58)</text>
	<text x="6144.72" y="3094.17" style="font-family:'Helvetica';font-size:182.25px;fill:#000000">1.00 (1.00, 1.00)</text>
	<text x="6144.72" y="3325.67" style="font-family:'Helvetica';font-size:182.25px;fill:#000000">1.09 (1.08, 1.10)</text>
	<text x="6144.72" y="3557.16" style="font-family:'Helvetica';font-size:182.25px;fill:#000000">1.12 (1.10, 1.14)</text>
	<text x="6144.72" y="3788.66" style="font-family:'Helvetica';font-size:182.25px;fill:#000000">1.05 (1.02, 1.08)</text>
	<text x="6144.72" y="4020.16" style="font-family:'Helvetica';font-size:182.25px;fill:#000000">0.70 (0.69, 0.72)</text>
	<text x="6144.72" y="4251.65" style="font-family:'Helvetica';font-size:182.25px;fill:#000000">1.00 (1.00, 1.00)</text>
	<text x="6144.72" y="4483.15" style="font-family:'Helvetica';font-size:182.25px;fill:#000000">1.03 (1.02, 1.04)</text>
	<text x="6144.72" y="4714.64" style="font-family:'Helvetica';font-size:182.25px;fill:#000000">1.04 (1.02, 1.06)</text>
	<text x="6144.72" y="4946.14" style="font-family:'Helvetica';font-size:182.25px;fill:#000000">1.01 (0.99, 1.04)</text>
	<text x="6144.72" y="5177.63" style="font-family:'Helvetica';font-size:182.25px;fill:#000000">0.68 (0.67, 0.70)</text>
	<text x="6144.72" y="5409.13" style="font-family:'Helvetica';font-size:182.25px;fill:#000000">1.00 (1.00, 1.00)</text>
	<text x="6144.72" y="5640.63" style="font-family:'Helvetica';font-size:182.25px;fill:#000000">1.01 (1.00, 1.03)</text>
	<text x="6144.72" y="5872.12" style="font-family:'Helvetica';font-size:182.25px;fill:#000000">1.06 (1.04, 1.09)</text>
	<text x="6144.72" y="6103.62" style="font-family:'Helvetica';font-size:182.25px;fill:#000000">1.04 (1.01, 1.07)</text>
	<text x="6144.72" y="6335.38" style="font-family:'Helvetica';font-size:182.25px;fill:#000000">0.88 (0.86, 0.91)</text>
	<text x="6144.72" y="6566.88" style="font-family:'Helvetica';font-size:182.25px;fill:#000000">1.00 (1.00, 1.00)</text>
	<text x="6144.72" y="6798.37" style="font-family:'Helvetica';font-size:182.25px;fill:#000000">1.01 (1.00, 1.02)</text>
	<text x="6144.72" y="7029.87" style="font-family:'Helvetica';font-size:182.25px;fill:#000000">1.06 (1.04, 1.09)</text>
	<text x="6144.72" y="7261.36" style="font-family:'Helvetica';font-size:182.25px;fill:#000000">1.04 (1.01, 1.07)</text>
	<text x="6144.72" y="7492.86" style="font-family:'Helvetica';font-size:182.25px;fill:#000000">0.88 (0.85, 0.90)</text>
	<text x="6144.72" y="1241.94" style="font-family:'Helvetica';font-size:182.25px;fill:#000000">Ratio (95% CI)</text>
	<text x="6144.72" y="1010.44" style="font-family:'Helvetica';font-size:182.25px;fill:#000000">Hazard</text>
	<polygon points="4995.39,1872.84 5043.16,1825.06 5090.94,1872.84 5043.16,1920.62" style="fill:#000000"/>
	<polygon points="5012.92,1872.84 5043.16,1842.60 5073.41,1872.84 5043.16,1903.08" style="fill:none;stroke:#000000;stroke-width:24.80"/>
	<polygon points="4977.19,2104.34 5024.97,2056.56 5072.74,2104.34 5024.97,2152.11" style="fill:#000000"/>
	<polygon points="4994.72,2104.34 5024.97,2074.09 5055.21,2104.34 5024.97,2134.58" style="fill:none;stroke:#000000;stroke-width:24.80"/>
	<polygon points="4982.00,2335.83 5029.78,2288.05 5077.56,2335.83 5029.78,2383.61" style="fill:#000000"/>
	<polygon points="4999.54,2335.83 5029.78,2305.59 5060.02,2335.83 5029.78,2366.07" style="fill:none;stroke:#000000;stroke-width:24.80"/>
	<polygon points="4952.30,2567.33 5000.08,2519.55 5047.86,2567.33 5000.08,2615.11" style="fill:#000000"/>
	<polygon points="4969.83,2567.33 5000.08,2537.08 5030.32,2567.33 5000.08,2597.57" style="fill:none;stroke:#000000;stroke-width:24.80"/>
	<polygon points="4854.88,2798.82 4902.66,2751.04 4950.44,2798.82 4902.66,2846.60" style="fill:#000000"/>
	<polygon points="4872.42,2798.82 4902.66,2768.58 4932.90,2798.82 4902.66,2829.06" style="fill:none;stroke:#000000;stroke-width:24.80"/>
	<polygon points="4995.39,3030.32 5043.16,2982.54 5090.94,3030.32 5043.16,3078.10" style="fill:#000000"/>
	<polygon points="5012.92,3030.32 5043.16,3000.08 5073.41,3030.32 5043.16,3060.56" style="fill:none;stroke:#000000;stroke-width:24.80"/>
	<polygon points="5025.63,3261.81 5073.41,3214.03 5121.19,3261.81 5073.41,3309.59" style="fill:#000000"/>
	<polygon points="5043.16,3261.81 5073.41,3231.57 5103.65,3261.81 5073.41,3292.06" style="fill:none;stroke:#000000;stroke-width:24.80"/>
	<polygon points="5035.80,3493.31 5083.58,3445.53 5131.35,3493.31 5083.58,3541.09" style="fill:#000000"/>
	<polygon points="5053.33,3493.31 5083.58,3463.07 5113.82,3493.31 5083.58,3523.55" style="fill:none;stroke:#000000;stroke-width:24.80"/>
	<polygon points="5012.25,3724.80 5060.02,3677.03 5107.80,3724.80 5060.02,3772.58" style="fill:#000000"/>
	<polygon points="5029.78,3724.80 5060.02,3694.56 5090.27,3724.80 5060.02,3755.05" style="fill:none;stroke:#000000;stroke-width:24.80"/>
	<polygon points="4897.70,3956.30 4945.48,3908.52 4993.26,3956.30 4945.48,4004.08" style="fill:#000000"/>
	<polygon points="4915.24,3956.30 4945.48,3926.06 4975.72,3956.30 4945.48,3986.54" style="fill:none;stroke:#000000;stroke-width:24.80"/>
	<polygon points="4995.39,4188.06 5043.16,4140.28 5090.94,4188.06 5043.16,4235.84" style="fill:#000000"/>
	<polygon points="5012.92,4188.06 5043.16,4157.82 5073.41,4188.06 5043.16,4218.31" style="fill:none;stroke:#000000;stroke-width:24.80"/>
	<polygon points="5004.75,4419.56 5052.53,4371.78 5100.31,4419.56 5052.53,4467.34" style="fill:#000000"/>
	<polygon points="5022.29,4419.56 5052.53,4389.32 5082.77,4419.56 5052.53,4449.80" style="fill:none;stroke:#000000;stroke-width:24.80"/>
	<polygon points="5008.23,4651.05 5056.01,4603.28 5103.79,4651.05 5056.01,4698.83" style="fill:#000000"/>
	<polygon points="5025.77,4651.05 5056.01,4620.81 5086.25,4651.05 5056.01,4681.30" style="fill:none;stroke:#000000;stroke-width:24.80"/>
	<polygon points="4999.13,4882.55 5046.91,4834.77 5094.69,4882.55 5046.91,4930.33" style="fill:#000000"/>
	<polygon points="5016.67,4882.55 5046.91,4852.31 5077.15,4882.55 5046.91,4912.79" style="fill:none;stroke:#000000;stroke-width:24.80"/>
	<polygon points="4891.55,5114.05 4939.33,5066.27 4987.10,5114.05 4939.33,5161.82" style="fill:#000000"/>
	<polygon points="4909.08,5114.05 4939.33,5083.80 4969.57,5114.05 4939.33,5144.29" style="fill:none;stroke:#000000;stroke-width:24.80"/>
	<polygon points="4995.39,5345.54 5043.16,5297.76 5090.94,5345.54 5043.16,5393.32" style="fill:#000000"/>
	<polygon points="5012.92,5345.54 5043.16,5315.30 5073.41,5345.54 5043.16,5375.78" style="fill:none;stroke:#000000;stroke-width:24.80"/>
	<polygon points="5000.20,5577.04 5047.98,5529.26 5095.76,5577.04 5047.98,5624.82" style="fill:#000000"/>
	<polygon points="5017.74,5577.04 5047.98,5546.80 5078.22,5577.04 5047.98,5607.28" style="fill:none;stroke:#000000;stroke-width:24.80"/>
	<polygon points="5015.99,5808.53 5063.77,5760.75 5111.55,5808.53 5063.77,5856.31" style="fill:#000000"/>
	<polygon points="5033.53,5808.53 5063.77,5778.29 5094.01,5808.53 5063.77,5838.77" style="fill:none;stroke:#000000;stroke-width:24.80"/>
	<polygon points="5007.70,6040.03 5055.48,5992.25 5103.25,6040.03 5055.48,6087.81" style="fill:#000000"/>
	<polygon points="5025.23,6040.03 5055.48,6009.79 5085.72,6040.03 5055.48,6070.27" style="fill:none;stroke:#000000;stroke-width:24.80"/>
	<polygon points="4956.31,6271.52 5004.09,6223.75 5051.87,6271.52 5004.09,6319.30" style="fill:#000000"/>
	<polygon points="4973.85,6271.52 5004.09,6241.28 5034.33,6271.52 5004.09,6301.77" style="fill:none;stroke:#000000;stroke-width:24.80"/>
	<polygon points="4995.39,6503.02 5043.16,6455.24 5090.94,6503.02 5043.16,6550.80" style="fill:#000000"/>
	<polygon points="5012.92,6503.02 5043.16,6472.78 5073.41,6503.02 5043.16,6533.26" style="fill:none;stroke:#000000;stroke-width:24.80"/>
	<polygon points="4998.86,6734.52 5046.64,6686.74 5094.42,6734.52 5046.64,6782.29" style="fill:#000000"/>
	<polygon points="5016.40,6734.52 5046.64,6704.27 5076.89,6734.52 5046.64,6764.76" style="fill:none;stroke:#000000;stroke-width:24.80"/>
	<polygon points="5015.99,6966.01 5063.77,6918.23 5111.55,6966.01 5063.77,7013.79" style="fill:#000000"/>
	<polygon points="5033.53,6966.01 5063.77,6935.77 5094.01,6966.01 5063.77,6996.25" style="fill:none;stroke:#000000;stroke-width:24.80"/>
	<polygon points="5007.70,7197.51 5055.48,7149.73 5103.25,7197.51 5055.48,7245.29" style="fill:#000000"/>
	<polygon points="5025.23,7197.51 5055.48,7167.26 5085.72,7197.51 5055.48,7227.75" style="fill:none;stroke:#000000;stroke-width:24.80"/>
	<polygon points="4955.78,7429.00 5003.56,7381.22 5051.33,7429.00 5003.56,7476.78" style="fill:#000000"/>
	<polygon points="4973.31,7429.00 5003.56,7398.76 5033.80,7429.00 5003.56,7459.24" style="fill:none;stroke:#000000;stroke-width:24.80"/>
	<line x1="439.71" y1="8123.49" x2="7913.46" y2="8123.49" style="stroke:#000000;stroke-width:16.53"/>
	<text x="4225.83" y="8308.20" style="font-family:'Helvetica';font-size:182.25px;fill:#000000" text-anchor="middle"> </text>
	<text x="5533.72" y="8308.20" style="font-family:'Helvetica';font-size:182.25px;fill:#000000" text-anchor="middle"> </text>
	<line x1="5043.16" y1="8123.49" x2="5043.16" y2="8238.30" style="stroke:#000000;stroke-width:16.53"/>
	<text x="5043.16" y="8423.02" style="font-family:'Helvetica';font-size:182.25px;fill:#000000" text-anchor="middle">1</text>
	<line x1="4798.02" y1="8123.49" x2="4798.02" y2="8238.30" style="stroke:#000000;stroke-width:16.53"/>
	<text x="4798.02" y="8423.02" style="font-family:'Helvetica';font-size:182.25px;fill:#000000" text-anchor="middle">.25</text>
	<line x1="4879.64" y1="8123.49" x2="4879.64" y2="8238.30" style="stroke:#000000;stroke-width:16.53"/>
	<text x="4879.64" y="8423.02" style="font-family:'Helvetica';font-size:182.25px;fill:#000000" text-anchor="middle">.5</text>
	<line x1="5043.16" y1="8123.49" x2="5043.16" y2="8238.30" style="stroke:#000000;stroke-width:16.53"/>
	<text x="5043.16" y="8423.02" style="font-family:'Helvetica';font-size:182.25px;fill:#000000" text-anchor="middle">1</text>
	<line x1="5370.20" y1="8123.49" x2="5370.20" y2="8238.30" style="stroke:#000000;stroke-width:16.53"/>
	<text x="5370.20" y="8423.02" style="font-family:'Helvetica';font-size:182.25px;fill:#000000" text-anchor="middle">2</text>
	<line x1="6024.29" y1="8123.49" x2="6024.29" y2="8238.30" style="stroke:#000000;stroke-width:16.53"/>
	<text x="6024.29" y="8423.02" style="font-family:'Helvetica';font-size:182.25px;fill:#000000" text-anchor="middle">4</text>
	<line x1="5043.16" y1="8123.49" x2="5043.16" y2="8238.30" style="stroke:#000000;stroke-width:16.53"/>
	<text x="4176.59" y="596.56" style="font-family:'Helvetica';font-size:229.62px;fill:#000000" text-anchor="middle">complete case analysis</text>
	<text x="4176.59" y="250.39" style="font-family:'Helvetica';font-size:287.16px;fill:#000000" text-anchor="middle">suspected</text>
</svg>
