<?xml version="1.0" encoding="UTF-8" standalone="no"?>
<!-- This is a Stata 16.1 generated SVG file (http://www.stata.com) -->

<svg version="1.1" width="8.94in" height="12.00in" viewBox="0 0 6440 8640" xmlns="http://www.w3.org/2000/svg" xmlns:xlink="http://www.w3.org/1999/xlink">
	<desc>Stata Graph - Graph</desc>
	<rect x="0" y="0" width="6440" height="8640" style="fill:#F0F0F0;stroke:none"/>
	<rect x="0.00" y="0.27" width="6440.00" height="8639.73" style="fill:#FFFFFF"/>
	<rect x="6.44" y="6.71" width="6427.12" height="8626.85" style="fill:none;stroke:#FFFFFF;stroke-width:12.88"/>
	<rect x="340.47" y="557.28" width="5826.29" height="7823.25" style="fill:#FFFFFF"/>
	<rect x="346.91" y="563.72" width="5813.41" height="7810.37" style="fill:none;stroke:#FFFFFF;stroke-width:12.88"/>
	<line x1="340.47" y1="967.41" x2="6166.76" y2="967.41" style="stroke:#C0C0C0;stroke-width:12.88"/>
	<text x="434.43" y="8211.65" style="font-family:'Helvetica';font-size:58.05px;fill:#000000">NOTE: Weights are from random effects analysis</text>
	<line x1="4160.13" y1="8380.53" x2="4160.13" y2="967.41" style="stroke:#000000;stroke-width:12.88"/>
	<text x="434.43" y="8148.74" style="font-family:'Helvetica';font-size:58.05px;fill:#000000">.</text>
	<line x1="4160.13" y1="1188.27" x2="4160.13" y2="1188.27" style="stroke:#000000;stroke-width:19.32"/>
	<line x1="4160.94" y1="1314.36" x2="4179.30" y2="1314.36" style="stroke:#000000;stroke-width:19.32"/>
	<line x1="4063.20" y1="1440.45" x2="4066.71" y2="1440.45" style="stroke:#000000;stroke-width:19.32"/>
	<line x1="4156.89" y1="1566.81" x2="4164.72" y2="1566.81" style="stroke:#000000;stroke-width:19.32"/>
	<line x1="4108.83" y1="1692.90" x2="4117.20" y2="1692.90" style="stroke:#000000;stroke-width:19.32"/>
	<line x1="4121.52" y1="1818.99" x2="4139.34" y2="1818.99" style="stroke:#000000;stroke-width:19.32"/>
	<line x1="4172.55" y1="1945.35" x2="4190.91" y2="1945.35" style="stroke:#000000;stroke-width:19.32"/>
	<line x1="4117.47" y1="2071.44" x2="4128.00" y2="2071.44" style="stroke:#000000;stroke-width:19.32"/>
	<line x1="3972.49" y1="2197.53" x2="3980.59" y2="2197.53" style="stroke:#000000;stroke-width:19.32"/>
	<line x1="4110.72" y1="2323.89" x2="4121.79" y2="2323.89" style="stroke:#000000;stroke-width:19.32"/>
	<line x1="4098.03" y1="2449.98" x2="4104.24" y2="2449.98" style="stroke:#000000;stroke-width:19.32"/>
	<line x1="4160.13" y1="2576.07" x2="4160.13" y2="2576.07" style="stroke:#000000;stroke-width:19.32"/>
	<line x1="4149.33" y1="2702.43" x2="4166.88" y2="2702.43" style="stroke:#000000;stroke-width:19.32"/>
	<line x1="4090.20" y1="2828.52" x2="4094.52" y2="2828.52" style="stroke:#000000;stroke-width:19.32"/>
	<line x1="4202.79" y1="2954.88" x2="4212.51" y2="2954.88" style="stroke:#000000;stroke-width:19.32"/>
	<line x1="4123.14" y1="3080.97" x2="4132.32" y2="3080.97" style="stroke:#000000;stroke-width:19.32"/>
	<line x1="4172.28" y1="3207.06" x2="4194.42" y2="3207.06" style="stroke:#000000;stroke-width:19.32"/>
	<line x1="4186.05" y1="3333.42" x2="4205.49" y2="3333.42" style="stroke:#000000;stroke-width:19.32"/>
	<line x1="4162.83" y1="3459.51" x2="4176.06" y2="3459.51" style="stroke:#000000;stroke-width:19.32"/>
	<line x1="3988.69" y1="3585.60" x2="3998.68" y2="3585.60" style="stroke:#000000;stroke-width:19.32"/>
	<line x1="4153.65" y1="3711.96" x2="4167.15" y2="3711.96" style="stroke:#000000;stroke-width:19.32"/>
	<line x1="4138.26" y1="3838.05" x2="4146.09" y2="3838.05" style="stroke:#000000;stroke-width:19.32"/>
	<line x1="4160.13" y1="3964.14" x2="4160.13" y2="3964.14" style="stroke:#000000;stroke-width:19.32"/>
	<line x1="4143.93" y1="4090.50" x2="4161.21" y2="4090.50" style="stroke:#000000;stroke-width:19.32"/>
	<line x1="4082.64" y1="4216.59" x2="4086.69" y2="4216.59" style="stroke:#000000;stroke-width:19.32"/>
	<line x1="4189.29" y1="4342.68" x2="4198.74" y2="4342.68" style="stroke:#000000;stroke-width:19.32"/>
	<line x1="4100.73" y1="4469.04" x2="4109.10" y2="4469.04" style="stroke:#000000;stroke-width:19.32"/>
	<line x1="4145.28" y1="4595.13" x2="4165.26" y2="4595.13" style="stroke:#000000;stroke-width:19.32"/>
	<line x1="4161.75" y1="4721.22" x2="4179.57" y2="4721.22" style="stroke:#000000;stroke-width:19.32"/>
	<line x1="4139.34" y1="4847.58" x2="4151.49" y2="4847.58" style="stroke:#000000;stroke-width:19.32"/>
	<line x1="3988.42" y1="4973.67" x2="3998.68" y2="4973.67" style="stroke:#000000;stroke-width:19.32"/>
	<line x1="4141.77" y1="5099.76" x2="4154.73" y2="5099.76" style="stroke:#000000;stroke-width:19.32"/>
	<line x1="4125.57" y1="5226.12" x2="4132.86" y2="5226.12" style="stroke:#000000;stroke-width:19.32"/>
	<line x1="4160.13" y1="5352.21" x2="4160.13" y2="5352.21" style="stroke:#000000;stroke-width:19.32"/>
	<line x1="4150.14" y1="5478.30" x2="4169.85" y2="5478.30" style="stroke:#000000;stroke-width:19.32"/>
	<line x1="4124.49" y1="5604.66" x2="4130.43" y2="5604.66" style="stroke:#000000;stroke-width:19.32"/>
	<line x1="4215.48" y1="5730.75" x2="4227.36" y2="5730.75" style="stroke:#000000;stroke-width:19.32"/>
	<line x1="4088.31" y1="5856.84" x2="4097.22" y2="5856.84" style="stroke:#000000;stroke-width:19.32"/>
	<line x1="4138.26" y1="5983.20" x2="4160.40" y2="5983.20" style="stroke:#000000;stroke-width:19.32"/>
	<line x1="4168.50" y1="6109.29" x2="4189.29" y2="6109.29" style="stroke:#000000;stroke-width:19.32"/>
	<line x1="4168.77" y1="6235.38" x2="4184.70" y2="6235.38" style="stroke:#000000;stroke-width:19.32"/>
	<line x1="4059.42" y1="6361.74" x2="4082.10" y2="6361.74" style="stroke:#000000;stroke-width:19.32"/>
	<line x1="4160.94" y1="6487.83" x2="4177.41" y2="6487.83" style="stroke:#000000;stroke-width:19.32"/>
	<line x1="4162.29" y1="6613.92" x2="4172.55" y2="6613.92" style="stroke:#000000;stroke-width:19.32"/>
	<line x1="4160.13" y1="6740.28" x2="4160.13" y2="6740.28" style="stroke:#000000;stroke-width:19.32"/>
	<line x1="4150.14" y1="6866.37" x2="4169.85" y2="6866.37" style="stroke:#000000;stroke-width:19.32"/>
	<line x1="4124.22" y1="6992.46" x2="4130.16" y2="6992.46" style="stroke:#000000;stroke-width:19.32"/>
	<line x1="4212.51" y1="7118.82" x2="4224.12" y2="7118.82" style="stroke:#000000;stroke-width:19.32"/>
	<line x1="4085.88" y1="7244.91" x2="4094.79" y2="7244.91" style="stroke:#000000;stroke-width:19.32"/>
	<line x1="4135.29" y1="7371.00" x2="4157.43" y2="7371.00" style="stroke:#000000;stroke-width:19.32"/>
	<line x1="4168.23" y1="7497.36" x2="4189.02" y2="7497.36" style="stroke:#000000;stroke-width:19.32"/>
	<line x1="4167.69" y1="7623.45" x2="4183.62" y2="7623.45" style="stroke:#000000;stroke-width:19.32"/>
	<line x1="4058.88" y1="7749.54" x2="4081.56" y2="7749.54" style="stroke:#000000;stroke-width:19.32"/>
	<line x1="4160.40" y1="7875.90" x2="4176.87" y2="7875.90" style="stroke:#000000;stroke-width:19.32"/>
	<line x1="4160.94" y1="8001.99" x2="4171.20" y2="8001.99" style="stroke:#000000;stroke-width:19.32"/>
	<text x="434.43" y="1082.29" style="font-family:'Helvetica';font-size:58.05px;fill:#000000">suspected</text>
	<text x="434.43" y="1208.66" style="font-family:'Helvetica';font-size:58.05px;fill:#000000">Crude</text>
	<text x="434.43" y="2596.45" style="font-family:'Helvetica';font-size:58.05px;fill:#000000">Age-sex</text>
	<text x="434.43" y="3984.53" style="font-family:'Helvetica';font-size:58.05px;fill:#000000">Age-sex-IMD</text>
	<text x="434.43" y="5372.60" style="font-family:'Helvetica';font-size:58.05px;fill:#000000">+ co-morbidities</text>
	<text x="434.43" y="6760.66" style="font-family:'Helvetica';font-size:58.05px;fill:#000000">+ household size</text>
	<text x="434.43" y="830.11" style="font-family:'Helvetica';font-size:58.05px;fill:#000000">adjusted</text>
	<text x="1551.95" y="1208.66" style="font-family:'Helvetica';font-size:58.05px;fill:#000000">British or Mixed British</text>
	<text x="1551.95" y="1334.74" style="font-family:'Helvetica';font-size:58.05px;fill:#000000">Irish</text>
	<text x="1551.95" y="1460.83" style="font-family:'Helvetica';font-size:58.05px;fill:#000000">Other White</text>
	<text x="1551.95" y="1587.20" style="font-family:'Helvetica';font-size:58.05px;fill:#000000">Indian</text>
	<text x="1551.95" y="1713.28" style="font-family:'Helvetica';font-size:58.05px;fill:#000000">Pakistani</text>
	<text x="1551.95" y="1839.37" style="font-family:'Helvetica';font-size:58.05px;fill:#000000">Bangladeshi</text>
	<text x="1551.95" y="1965.74" style="font-family:'Helvetica';font-size:58.05px;fill:#000000">Caribbean</text>
	<text x="1551.95" y="2091.82" style="font-family:'Helvetica';font-size:58.05px;fill:#000000">African</text>
	<text x="1551.95" y="2217.91" style="font-family:'Helvetica';font-size:58.05px;fill:#000000">Chinese</text>
	<text x="1551.95" y="2344.28" style="font-family:'Helvetica';font-size:58.05px;fill:#000000">All mixed</text>
	<text x="1551.95" y="2470.36" style="font-family:'Helvetica';font-size:58.05px;fill:#000000">All Other</text>
	<text x="1551.95" y="2596.45" style="font-family:'Helvetica';font-size:58.05px;fill:#000000">British or Mixed British</text>
	<text x="1551.95" y="2722.82" style="font-family:'Helvetica';font-size:58.05px;fill:#000000">Irish</text>
	<text x="1551.95" y="2848.91" style="font-family:'Helvetica';font-size:58.05px;fill:#000000">Other White</text>
	<text x="1551.95" y="2975.27" style="font-family:'Helvetica';font-size:58.05px;fill:#000000">Indian</text>
	<text x="1551.95" y="3101.36" style="font-family:'Helvetica';font-size:58.05px;fill:#000000">Pakistani</text>
	<text x="1551.95" y="3227.45" style="font-family:'Helvetica';font-size:58.05px;fill:#000000">Bangladeshi</text>
	<text x="1551.95" y="3353.81" style="font-family:'Helvetica';font-size:58.05px;fill:#000000">Caribbean</text>
	<text x="1551.95" y="3479.90" style="font-family:'Helvetica';font-size:58.05px;fill:#000000">African</text>
	<text x="1551.95" y="3605.99" style="font-family:'Helvetica';font-size:58.05px;fill:#000000">Chinese</text>
	<text x="1551.95" y="3732.35" style="font-family:'Helvetica';font-size:58.05px;fill:#000000">All mixed</text>
	<text x="1551.95" y="3858.44" style="font-family:'Helvetica';font-size:58.05px;fill:#000000">All Other</text>
	<text x="1551.95" y="3984.53" style="font-family:'Helvetica';font-size:58.05px;fill:#000000">British or Mixed British</text>
	<text x="1551.95" y="4110.89" style="font-family:'Helvetica';font-size:58.05px;fill:#000000">Irish</text>
	<text x="1551.95" y="4236.98" style="font-family:'Helvetica';font-size:58.05px;fill:#000000">Other White</text>
	<text x="1551.95" y="4363.07" style="font-family:'Helvetica';font-size:58.05px;fill:#000000">Indian</text>
	<text x="1551.95" y="4489.43" style="font-family:'Helvetica';font-size:58.05px;fill:#000000">Pakistani</text>
	<text x="1551.95" y="4615.52" style="font-family:'Helvetica';font-size:58.05px;fill:#000000">Bangladeshi</text>
	<text x="1551.95" y="4741.60" style="font-family:'Helvetica';font-size:58.05px;fill:#000000">Caribbean</text>
	<text x="1551.95" y="4867.97" style="font-family:'Helvetica';font-size:58.05px;fill:#000000">African</text>
	<text x="1551.95" y="4994.06" style="font-family:'Helvetica';font-size:58.05px;fill:#000000">Chinese</text>
	<text x="1551.95" y="5120.15" style="font-family:'Helvetica';font-size:58.05px;fill:#000000">All mixed</text>
	<text x="1551.95" y="5246.51" style="font-family:'Helvetica';font-size:58.05px;fill:#000000">All Other</text>
	<text x="1551.95" y="5372.60" style="font-family:'Helvetica';font-size:58.05px;fill:#000000">British or Mixed British</text>
	<text x="1551.95" y="5498.69" style="font-family:'Helvetica';font-size:58.05px;fill:#000000">Irish</text>
	<text x="1551.95" y="5625.05" style="font-family:'Helvetica';font-size:58.05px;fill:#000000">Other White</text>
	<text x="1551.95" y="5751.14" style="font-family:'Helvetica';font-size:58.05px;fill:#000000">Indian</text>
	<text x="1551.95" y="5877.23" style="font-family:'Helvetica';font-size:58.05px;fill:#000000">Pakistani</text>
	<text x="1551.95" y="6003.59" style="font-family:'Helvetica';font-size:58.05px;fill:#000000">Bangladeshi</text>
	<text x="1551.95" y="6129.68" style="font-family:'Helvetica';font-size:58.05px;fill:#000000">Caribbean</text>
	<text x="1551.95" y="6255.77" style="font-family:'Helvetica';font-size:58.05px;fill:#000000">African</text>
	<text x="1551.95" y="6382.13" style="font-family:'Helvetica';font-size:58.05px;fill:#000000">Chinese</text>
	<text x="1551.95" y="6508.22" style="font-family:'Helvetica';font-size:58.05px;fill:#000000">All mixed</text>
	<text x="1551.95" y="6634.31" style="font-family:'Helvetica';font-size:58.05px;fill:#000000">All Other</text>
	<text x="1551.95" y="6760.66" style="font-family:'Helvetica';font-size:58.05px;fill:#000000">British or Mixed British</text>
	<text x="1551.95" y="6886.76" style="font-family:'Helvetica';font-size:58.05px;fill:#000000">Irish</text>
	<text x="1551.95" y="7012.85" style="font-family:'Helvetica';font-size:58.05px;fill:#000000">Other White</text>
	<text x="1551.95" y="7139.20" style="font-family:'Helvetica';font-size:58.05px;fill:#000000">Indian</text>
	<text x="1551.95" y="7265.30" style="font-family:'Helvetica';font-size:58.05px;fill:#000000">Pakistani</text>
	<text x="1551.95" y="7391.39" style="font-family:'Helvetica';font-size:58.05px;fill:#000000">Bangladeshi</text>
	<text x="1551.95" y="7517.74" style="font-family:'Helvetica';font-size:58.05px;fill:#000000">Caribbean</text>
	<text x="1551.95" y="7643.84" style="font-family:'Helvetica';font-size:58.05px;fill:#000000">African</text>
	<text x="1551.95" y="7769.93" style="font-family:'Helvetica';font-size:58.05px;fill:#000000">Chinese</text>
	<text x="1551.95" y="7896.28" style="font-family:'Helvetica';font-size:58.05px;fill:#000000">All mixed</text>
	<text x="1551.95" y="8022.38" style="font-family:'Helvetica';font-size:58.05px;fill:#000000">All Other</text>
	<text x="1551.95" y="830.11" style="font-family:'Helvetica';font-size:58.05px;fill:#000000">eth16</text>
	<text x="5018.73" y="1208.66" style="font-family:'Helvetica';font-size:58.05px;fill:#000000">1.00 (1.00, 1.00)</text>
	<text x="5018.73" y="1334.74" style="font-family:'Helvetica';font-size:58.05px;fill:#000000">1.04 (1.00, 1.08)</text>
	<text x="5018.73" y="1460.83" style="font-family:'Helvetica';font-size:58.05px;fill:#000000">0.63 (0.62, 0.63)</text>
	<text x="5018.73" y="1587.20" style="font-family:'Helvetica';font-size:58.05px;fill:#000000">1.00 (0.99, 1.02)</text>
	<text x="5018.73" y="1713.28" style="font-family:'Helvetica';font-size:58.05px;fill:#000000">0.82 (0.80, 0.83)</text>
	<text x="5018.73" y="1839.37" style="font-family:'Helvetica';font-size:58.05px;fill:#000000">0.88 (0.85, 0.92)</text>
	<text x="5018.73" y="1965.74" style="font-family:'Helvetica';font-size:58.05px;fill:#000000">1.08 (1.05, 1.12)</text>
	<text x="5018.73" y="2091.82" style="font-family:'Helvetica';font-size:58.05px;fill:#000000">0.85 (0.83, 0.87)</text>
	<text x="5018.73" y="2217.91" style="font-family:'Helvetica';font-size:58.05px;fill:#000000">0.28 (0.26, 0.30)</text>
	<text x="5018.73" y="2344.28" style="font-family:'Helvetica';font-size:58.05px;fill:#000000">0.83 (0.81, 0.85)</text>
	<text x="5018.73" y="2470.36" style="font-family:'Helvetica';font-size:58.05px;fill:#000000">0.77 (0.76, 0.78)</text>
	<text x="5018.73" y="2596.45" style="font-family:'Helvetica';font-size:58.05px;fill:#000000">1.00 (1.00, 1.00)</text>
	<text x="5018.73" y="2722.82" style="font-family:'Helvetica';font-size:58.05px;fill:#000000">0.99 (0.96, 1.03)</text>
	<text x="5018.73" y="2848.91" style="font-family:'Helvetica';font-size:58.05px;fill:#000000">0.73 (0.73, 0.74)</text>
	<text x="5018.73" y="2975.27" style="font-family:'Helvetica';font-size:58.05px;fill:#000000">1.19 (1.17, 1.21)</text>
	<text x="5018.73" y="3101.36" style="font-family:'Helvetica';font-size:58.05px;fill:#000000">0.87 (0.86, 0.89)</text>
	<text x="5018.73" y="3227.45" style="font-family:'Helvetica';font-size:58.05px;fill:#000000">1.09 (1.05, 1.14)</text>
	<text x="5018.73" y="3353.81" style="font-family:'Helvetica';font-size:58.05px;fill:#000000">1.14 (1.10, 1.18)</text>
	<text x="5018.73" y="3479.90" style="font-family:'Helvetica';font-size:58.05px;fill:#000000">1.04 (1.01, 1.06)</text>
	<text x="5018.73" y="3605.99" style="font-family:'Helvetica';font-size:58.05px;fill:#000000">0.35 (0.33, 0.37)</text>
	<text x="5018.73" y="3732.35" style="font-family:'Helvetica';font-size:58.05px;fill:#000000">1.00 (0.97, 1.03)</text>
	<text x="5018.73" y="3858.44" style="font-family:'Helvetica';font-size:58.05px;fill:#000000">0.93 (0.91, 0.95)</text>
	<text x="5018.73" y="3984.53" style="font-family:'Helvetica';font-size:58.05px;fill:#000000">1.00 (1.00, 1.00)</text>
	<text x="5018.73" y="4110.89" style="font-family:'Helvetica';font-size:58.05px;fill:#000000">0.97 (0.94, 1.00)</text>
	<text x="5018.73" y="4236.98" style="font-family:'Helvetica';font-size:58.05px;fill:#000000">0.70 (0.70, 0.71)</text>
	<text x="5018.73" y="4363.07" style="font-family:'Helvetica';font-size:58.05px;fill:#000000">1.13 (1.11, 1.15)</text>
	<text x="5018.73" y="4489.43" style="font-family:'Helvetica';font-size:58.05px;fill:#000000">0.78 (0.77, 0.80)</text>
	<text x="5018.73" y="4615.52" style="font-family:'Helvetica';font-size:58.05px;fill:#000000">0.98 (0.94, 1.02)</text>
	<text x="5018.73" y="4741.60" style="font-family:'Helvetica';font-size:58.05px;fill:#000000">1.04 (1.01, 1.08)</text>
	<text x="5018.73" y="4867.97" style="font-family:'Helvetica';font-size:58.05px;fill:#000000">0.94 (0.92, 0.97)</text>
	<text x="5018.73" y="4994.06" style="font-family:'Helvetica';font-size:58.05px;fill:#000000">0.35 (0.33, 0.37)</text>
	<text x="5018.73" y="5120.15" style="font-family:'Helvetica';font-size:58.05px;fill:#000000">0.95 (0.93, 0.98)</text>
	<text x="5018.73" y="5246.51" style="font-family:'Helvetica';font-size:58.05px;fill:#000000">0.88 (0.86, 0.89)</text>
	<text x="5018.73" y="5372.60" style="font-family:'Helvetica';font-size:58.05px;fill:#000000">1.00 (1.00, 1.00)</text>
	<text x="5018.73" y="5498.69" style="font-family:'Helvetica';font-size:58.05px;fill:#000000">1.00 (0.96, 1.04)</text>
	<text x="5018.73" y="5625.05" style="font-family:'Helvetica';font-size:58.05px;fill:#000000">0.87 (0.86, 0.88)</text>
	<text x="5018.73" y="5751.14" style="font-family:'Helvetica';font-size:58.05px;fill:#000000">1.24 (1.22, 1.26)</text>
	<text x="5018.73" y="5877.23" style="font-family:'Helvetica';font-size:58.05px;fill:#000000">0.74 (0.72, 0.75)</text>
	<text x="5018.73" y="6003.59" style="font-family:'Helvetica';font-size:58.05px;fill:#000000">0.96 (0.91, 1.00)</text>
	<text x="5018.73" y="6129.68" style="font-family:'Helvetica';font-size:58.05px;fill:#000000">1.07 (1.03, 1.11)</text>
	<text x="5018.73" y="6255.77" style="font-family:'Helvetica';font-size:58.05px;fill:#000000">1.07 (1.03, 1.10)</text>
	<text x="5018.73" y="6382.13" style="font-family:'Helvetica';font-size:58.05px;fill:#000000">0.65 (0.60, 0.69)</text>
	<text x="5018.73" y="6508.22" style="font-family:'Helvetica';font-size:58.05px;fill:#000000">1.03 (1.00, 1.07)</text>
	<text x="5018.73" y="6634.31" style="font-family:'Helvetica';font-size:58.05px;fill:#000000">1.03 (1.01, 1.05)</text>
	<text x="5018.73" y="6760.66" style="font-family:'Helvetica';font-size:58.05px;fill:#000000">1.00 (1.00, 1.00)</text>
	<text x="5018.73" y="6886.76" style="font-family:'Helvetica';font-size:58.05px;fill:#000000">1.00 (0.96, 1.04)</text>
	<text x="5018.73" y="7012.85" style="font-family:'Helvetica';font-size:58.05px;fill:#000000">0.87 (0.86, 0.88)</text>
	<text x="5018.73" y="7139.20" style="font-family:'Helvetica';font-size:58.05px;fill:#000000">1.23 (1.21, 1.25)</text>
	<text x="5018.73" y="7265.30" style="font-family:'Helvetica';font-size:58.05px;fill:#000000">0.73 (0.71, 0.74)</text>
	<text x="5018.73" y="7391.39" style="font-family:'Helvetica';font-size:58.05px;fill:#000000">0.95 (0.90, 0.99)</text>
	<text x="5018.73" y="7517.74" style="font-family:'Helvetica';font-size:58.05px;fill:#000000">1.07 (1.03, 1.11)</text>
	<text x="5018.73" y="7643.84" style="font-family:'Helvetica';font-size:58.05px;fill:#000000">1.06 (1.03, 1.09)</text>
	<text x="5018.73" y="7769.93" style="font-family:'Helvetica';font-size:58.05px;fill:#000000">0.65 (0.60, 0.69)</text>
	<text x="5018.73" y="7896.28" style="font-family:'Helvetica';font-size:58.05px;fill:#000000">1.03 (1.00, 1.07)</text>
	<text x="5018.73" y="8022.38" style="font-family:'Helvetica';font-size:58.05px;fill:#000000">1.02 (1.00, 1.04)</text>
	<text x="5018.73" y="830.11" style="font-family:'Helvetica';font-size:58.05px;fill:#000000">Ratio (95% CI)</text>
	<text x="5018.73" y="703.75" style="font-family:'Helvetica';font-size:58.05px;fill:#000000">Hazard</text>
	<text x="5018.73" y="1208.66" style="font-family:'Helvetica';font-size:58.05px;fill:#000000">1.00 (1.00, 1.00)</text>
	<text x="5018.73" y="1334.74" style="font-family:'Helvetica';font-size:58.05px;fill:#000000">1.04 (1.00, 1.08)</text>
	<text x="5018.73" y="1460.83" style="font-family:'Helvetica';font-size:58.05px;fill:#000000">0.63 (0.62, 0.63)</text>
	<text x="5018.73" y="1587.20" style="font-family:'Helvetica';font-size:58.05px;fill:#000000">1.00 (0.99, 1.02)</text>
	<text x="5018.73" y="1713.28" style="font-family:'Helvetica';font-size:58.05px;fill:#000000">0.82 (0.80, 0.83)</text>
	<text x="5018.73" y="1839.37" style="font-family:'Helvetica';font-size:58.05px;fill:#000000">0.88 (0.85, 0.92)</text>
	<text x="5018.73" y="1965.74" style="font-family:'Helvetica';font-size:58.05px;fill:#000000">1.08 (1.05, 1.12)</text>
	<text x="5018.73" y="2091.82" style="font-family:'Helvetica';font-size:58.05px;fill:#000000">0.85 (0.83, 0.87)</text>
	<text x="5018.73" y="2217.91" style="font-family:'Helvetica';font-size:58.05px;fill:#000000">0.28 (0.26, 0.30)</text>
	<text x="5018.73" y="2344.28" style="font-family:'Helvetica';font-size:58.05px;fill:#000000">0.83 (0.81, 0.85)</text>
	<text x="5018.73" y="2470.36" style="font-family:'Helvetica';font-size:58.05px;fill:#000000">0.77 (0.76, 0.78)</text>
	<text x="5018.73" y="2596.45" style="font-family:'Helvetica';font-size:58.05px;fill:#000000">1.00 (1.00, 1.00)</text>
	<text x="5018.73" y="2722.82" style="font-family:'Helvetica';font-size:58.05px;fill:#000000">0.99 (0.96, 1.03)</text>
	<text x="5018.73" y="2848.91" style="font-family:'Helvetica';font-size:58.05px;fill:#000000">0.73 (0.73, 0.74)</text>
	<text x="5018.73" y="2975.27" style="font-family:'Helvetica';font-size:58.05px;fill:#000000">1.19 (1.17, 1.21)</text>
	<text x="5018.73" y="3101.36" style="font-family:'Helvetica';font-size:58.05px;fill:#000000">0.87 (0.86, 0.89)</text>
	<text x="5018.73" y="3227.45" style="font-family:'Helvetica';font-size:58.05px;fill:#000000">1.09 (1.05, 1.14)</text>
	<text x="5018.73" y="3353.81" style="font-family:'Helvetica';font-size:58.05px;fill:#000000">1.14 (1.10, 1.18)</text>
	<text x="5018.73" y="3479.90" style="font-family:'Helvetica';font-size:58.05px;fill:#000000">1.04 (1.01, 1.06)</text>
	<text x="5018.73" y="3605.99" style="font-family:'Helvetica';font-size:58.05px;fill:#000000">0.35 (0.33, 0.37)</text>
	<text x="5018.73" y="3732.35" style="font-family:'Helvetica';font-size:58.05px;fill:#000000">1.00 (0.97, 1.03)</text>
	<text x="5018.73" y="3858.44" style="font-family:'Helvetica';font-size:58.05px;fill:#000000">0.93 (0.91, 0.95)</text>
	<text x="5018.73" y="3984.53" style="font-family:'Helvetica';font-size:58.05px;fill:#000000">1.00 (1.00, 1.00)</text>
	<text x="5018.73" y="4110.89" style="font-family:'Helvetica';font-size:58.05px;fill:#000000">0.97 (0.94, 1.00)</text>
	<text x="5018.73" y="4236.98" style="font-family:'Helvetica';font-size:58.05px;fill:#000000">0.70 (0.70, 0.71)</text>
	<text x="5018.73" y="4363.07" style="font-family:'Helvetica';font-size:58.05px;fill:#000000">1.13 (1.11, 1.15)</text>
	<text x="5018.73" y="4489.43" style="font-family:'Helvetica';font-size:58.05px;fill:#000000">0.78 (0.77, 0.80)</text>
	<text x="5018.73" y="4615.52" style="font-family:'Helvetica';font-size:58.05px;fill:#000000">0.98 (0.94, 1.02)</text>
	<text x="5018.73" y="4741.60" style="font-family:'Helvetica';font-size:58.05px;fill:#000000">1.04 (1.01, 1.08)</text>
	<text x="5018.73" y="4867.97" style="font-family:'Helvetica';font-size:58.05px;fill:#000000">0.94 (0.92, 0.97)</text>
	<text x="5018.73" y="4994.06" style="font-family:'Helvetica';font-size:58.05px;fill:#000000">0.35 (0.33, 0.37)</text>
	<text x="5018.73" y="5120.15" style="font-family:'Helvetica';font-size:58.05px;fill:#000000">0.95 (0.93, 0.98)</text>
	<text x="5018.73" y="5246.51" style="font-family:'Helvetica';font-size:58.05px;fill:#000000">0.88 (0.86, 0.89)</text>
	<text x="5018.73" y="5372.60" style="font-family:'Helvetica';font-size:58.05px;fill:#000000">1.00 (1.00, 1.00)</text>
	<text x="5018.73" y="5498.69" style="font-family:'Helvetica';font-size:58.05px;fill:#000000">1.00 (0.96, 1.04)</text>
	<text x="5018.73" y="5625.05" style="font-family:'Helvetica';font-size:58.05px;fill:#000000">0.87 (0.86, 0.88)</text>
	<text x="5018.73" y="5751.14" style="font-family:'Helvetica';font-size:58.05px;fill:#000000">1.24 (1.22, 1.26)</text>
	<text x="5018.73" y="5877.23" style="font-family:'Helvetica';font-size:58.05px;fill:#000000">0.74 (0.72, 0.75)</text>
	<text x="5018.73" y="6003.59" style="font-family:'Helvetica';font-size:58.05px;fill:#000000">0.96 (0.91, 1.00)</text>
	<text x="5018.73" y="6129.68" style="font-family:'Helvetica';font-size:58.05px;fill:#000000">1.07 (1.03, 1.11)</text>
	<text x="5018.73" y="6255.77" style="font-family:'Helvetica';font-size:58.05px;fill:#000000">1.07 (1.03, 1.10)</text>
	<text x="5018.73" y="6382.13" style="font-family:'Helvetica';font-size:58.05px;fill:#000000">0.65 (0.60, 0.69)</text>
	<text x="5018.73" y="6508.22" style="font-family:'Helvetica';font-size:58.05px;fill:#000000">1.03 (1.00, 1.07)</text>
	<text x="5018.73" y="6634.31" style="font-family:'Helvetica';font-size:58.05px;fill:#000000">1.03 (1.01, 1.05)</text>
	<text x="5018.73" y="6760.66" style="font-family:'Helvetica';font-size:58.05px;fill:#000000">1.00 (1.00, 1.00)</text>
	<text x="5018.73" y="6886.76" style="font-family:'Helvetica';font-size:58.05px;fill:#000000">1.00 (0.96, 1.04)</text>
	<text x="5018.73" y="7012.85" style="font-family:'Helvetica';font-size:58.05px;fill:#000000">0.87 (0.86, 0.88)</text>
	<text x="5018.73" y="7139.20" style="font-family:'Helvetica';font-size:58.05px;fill:#000000">1.23 (1.21, 1.25)</text>
	<text x="5018.73" y="7265.30" style="font-family:'Helvetica';font-size:58.05px;fill:#000000">0.73 (0.71, 0.74)</text>
	<text x="5018.73" y="7391.39" style="font-family:'Helvetica';font-size:58.05px;fill:#000000">0.95 (0.90, 0.99)</text>
	<text x="5018.73" y="7517.74" style="font-family:'Helvetica';font-size:58.05px;fill:#000000">1.07 (1.03, 1.11)</text>
	<text x="5018.73" y="7643.84" style="font-family:'Helvetica';font-size:58.05px;fill:#000000">1.06 (1.03, 1.09)</text>
	<text x="5018.73" y="7769.93" style="font-family:'Helvetica';font-size:58.05px;fill:#000000">0.65 (0.60, 0.69)</text>
	<text x="5018.73" y="7896.28" style="font-family:'Helvetica';font-size:58.05px;fill:#000000">1.03 (1.00, 1.07)</text>
	<text x="5018.73" y="8022.38" style="font-family:'Helvetica';font-size:58.05px;fill:#000000">1.02 (1.00, 1.04)</text>
	<text x="5018.73" y="830.11" style="font-family:'Helvetica';font-size:58.05px;fill:#000000">Ratio (95% CI)</text>
	<text x="5018.73" y="703.75" style="font-family:'Helvetica';font-size:58.05px;fill:#000000">Hazard</text>
	<polygon points="4122.44,1188.27 4159.86,1150.85 4197.29,1188.27 4159.86,1225.69" style="fill:#000000"/>
	<polygon points="4136.10,1188.27 4159.86,1164.51 4183.62,1188.27 4159.86,1212.03" style="fill:none;stroke:#000000;stroke-width:19.32"/>
	<polygon points="4132.43,1314.63 4169.85,1277.21 4207.28,1314.63 4169.85,1352.05" style="fill:#000000"/>
	<polygon points="4146.09,1314.63 4169.85,1290.87 4193.61,1314.63 4169.85,1338.39" style="fill:none;stroke:#000000;stroke-width:19.32"/>
	<polygon points="4027.40,1440.72 4064.82,1403.30 4102.25,1440.72 4064.82,1478.14" style="fill:#000000"/>
	<polygon points="4041.06,1440.72 4064.82,1416.96 4088.58,1440.72 4064.82,1464.48" style="fill:none;stroke:#000000;stroke-width:19.32"/>
	<polygon points="4123.25,1566.81 4160.67,1529.39 4198.10,1566.81 4160.67,1604.23" style="fill:#000000"/>
	<polygon points="4136.91,1566.81 4160.67,1543.05 4184.43,1566.81 4160.67,1590.57" style="fill:none;stroke:#000000;stroke-width:19.32"/>
	<polygon points="4075.46,1693.17 4112.88,1655.75 4150.31,1693.17 4112.88,1730.59" style="fill:#000000"/>
	<polygon points="4089.12,1693.17 4112.88,1669.41 4136.64,1693.17 4112.88,1716.93" style="fill:none;stroke:#000000;stroke-width:19.32"/>
	<polygon points="4092.74,1819.26 4130.16,1781.84 4167.59,1819.26 4130.16,1856.68" style="fill:#000000"/>
	<polygon points="4106.40,1819.26 4130.16,1795.50 4153.92,1819.26 4130.16,1843.02" style="fill:none;stroke:#000000;stroke-width:19.32"/>
	<polygon points="4144.04,1945.35 4181.46,1907.93 4218.89,1945.35 4181.46,1982.77" style="fill:#000000"/>
	<polygon points="4157.70,1945.35 4181.46,1921.59 4205.22,1945.35 4181.46,1969.11" style="fill:none;stroke:#000000;stroke-width:19.32"/>
	<polygon points="4085.18,2071.71 4122.60,2034.29 4160.03,2071.71 4122.60,2109.13" style="fill:#000000"/>
	<polygon points="4098.84,2071.71 4122.60,2047.95 4146.36,2071.71 4122.60,2095.47" style="fill:none;stroke:#000000;stroke-width:19.32"/>
	<polygon points="3938.84,2197.80 3976.27,2160.38 4013.69,2197.80 3976.27,2235.22" style="fill:#000000"/>
	<polygon points="3952.51,2197.80 3976.27,2174.04 4000.03,2197.80 3976.27,2221.56" style="fill:none;stroke:#000000;stroke-width:19.32"/>
	<polygon points="4078.70,2323.89 4116.12,2286.47 4153.55,2323.89 4116.12,2361.31" style="fill:#000000"/>
	<polygon points="4092.36,2323.89 4116.12,2300.13 4139.88,2323.89 4116.12,2347.65" style="fill:none;stroke:#000000;stroke-width:19.32"/>
	<polygon points="4063.58,2450.25 4101.00,2412.83 4138.43,2450.25 4101.00,2487.67" style="fill:#000000"/>
	<polygon points="4077.24,2450.25 4101.00,2426.49 4124.76,2450.25 4101.00,2474.01" style="fill:none;stroke:#000000;stroke-width:19.32"/>
	<polygon points="4122.44,2576.34 4159.86,2538.92 4197.29,2576.34 4159.86,2613.76" style="fill:#000000"/>
	<polygon points="4136.10,2576.34 4159.86,2552.58 4183.62,2576.34 4159.86,2600.10" style="fill:none;stroke:#000000;stroke-width:19.32"/>
	<polygon points="4120.28,2702.43 4157.70,2665.01 4195.13,2702.43 4157.70,2739.85" style="fill:#000000"/>
	<polygon points="4133.94,2702.43 4157.70,2678.67 4181.46,2702.43 4157.70,2726.19" style="fill:none;stroke:#000000;stroke-width:19.32"/>
	<polygon points="4054.94,2828.79 4092.36,2791.37 4129.79,2828.79 4092.36,2866.21" style="fill:#000000"/>
	<polygon points="4068.60,2828.79 4092.36,2805.03 4116.12,2828.79 4092.36,2852.55" style="fill:none;stroke:#000000;stroke-width:19.32"/>
	<polygon points="4170.23,2954.88 4207.65,2917.46 4245.08,2954.88 4207.65,2992.30" style="fill:#000000"/>
	<polygon points="4183.89,2954.88 4207.65,2931.12 4231.41,2954.88 4207.65,2978.64" style="fill:none;stroke:#000000;stroke-width:19.32"/>
	<polygon points="4090.04,3080.97 4127.46,3043.55 4164.89,3080.97 4127.46,3118.39" style="fill:#000000"/>
	<polygon points="4103.70,3080.97 4127.46,3057.21 4151.22,3080.97 4127.46,3104.73" style="fill:none;stroke:#000000;stroke-width:19.32"/>
	<polygon points="4145.66,3207.33 4183.08,3169.91 4220.51,3207.33 4183.08,3244.75" style="fill:#000000"/>
	<polygon points="4159.32,3207.33 4183.08,3183.57 4206.84,3207.33 4183.08,3231.09" style="fill:none;stroke:#000000;stroke-width:19.32"/>
	<polygon points="4158.08,3333.42 4195.50,3296.00 4232.93,3333.42 4195.50,3370.84" style="fill:#000000"/>
	<polygon points="4171.74,3333.42 4195.50,3309.66 4219.26,3333.42 4195.50,3357.18" style="fill:none;stroke:#000000;stroke-width:19.32"/>
	<polygon points="4131.89,3459.51 4169.31,3422.09 4206.74,3459.51 4169.31,3496.93" style="fill:#000000"/>
	<polygon points="4145.55,3459.51 4169.31,3435.75 4193.07,3459.51 4169.31,3483.27" style="fill:none;stroke:#000000;stroke-width:19.32"/>
	<polygon points="3956.12,3585.87 3993.55,3548.45 4030.97,3585.87 3993.55,3623.29" style="fill:#000000"/>
	<polygon points="3969.79,3585.87 3993.55,3562.11 4017.31,3585.87 3993.55,3609.63" style="fill:none;stroke:#000000;stroke-width:19.32"/>
	<polygon points="4122.71,3711.96 4160.13,3674.54 4197.56,3711.96 4160.13,3749.38" style="fill:#000000"/>
	<polygon points="4136.37,3711.96 4160.13,3688.20 4183.89,3711.96 4160.13,3735.72" style="fill:none;stroke:#000000;stroke-width:19.32"/>
	<polygon points="4104.62,3838.05 4142.04,3800.63 4179.47,3838.05 4142.04,3875.47" style="fill:#000000"/>
	<polygon points="4118.28,3838.05 4142.04,3814.29 4165.80,3838.05 4142.04,3861.81" style="fill:none;stroke:#000000;stroke-width:19.32"/>
	<polygon points="4122.44,3964.41 4159.86,3926.99 4197.29,3964.41 4159.86,4001.83" style="fill:#000000"/>
	<polygon points="4136.10,3964.41 4159.86,3940.65 4183.62,3964.41 4159.86,3988.17" style="fill:none;stroke:#000000;stroke-width:19.32"/>
	<polygon points="4114.88,4090.50 4152.30,4053.08 4189.73,4090.50 4152.30,4127.92" style="fill:#000000"/>
	<polygon points="4128.54,4090.50 4152.30,4066.74 4176.06,4090.50 4152.30,4114.26" style="fill:none;stroke:#000000;stroke-width:19.32"/>
	<polygon points="4047.11,4216.59 4084.53,4179.17 4121.96,4216.59 4084.53,4254.01" style="fill:#000000"/>
	<polygon points="4060.77,4216.59 4084.53,4192.83 4108.29,4216.59 4084.53,4240.35" style="fill:none;stroke:#000000;stroke-width:19.32"/>
	<polygon points="4156.46,4342.95 4193.88,4305.53 4231.31,4342.95 4193.88,4380.37" style="fill:#000000"/>
	<polygon points="4170.12,4342.95 4193.88,4319.19 4217.64,4342.95 4193.88,4366.71" style="fill:none;stroke:#000000;stroke-width:19.32"/>
	<polygon points="4067.36,4469.04 4104.78,4431.62 4142.21,4469.04 4104.78,4506.46" style="fill:#000000"/>
	<polygon points="4081.02,4469.04 4104.78,4445.28 4128.54,4469.04 4104.78,4492.80" style="fill:none;stroke:#000000;stroke-width:19.32"/>
	<polygon points="4117.58,4595.13 4155.00,4557.71 4192.43,4595.13 4155.00,4632.55" style="fill:#000000"/>
	<polygon points="4131.24,4595.13 4155.00,4571.37 4178.76,4595.13 4155.00,4618.89" style="fill:none;stroke:#000000;stroke-width:19.32"/>
	<polygon points="4132.97,4721.49 4170.39,4684.07 4207.82,4721.49 4170.39,4758.91" style="fill:#000000"/>
	<polygon points="4146.63,4721.49 4170.39,4697.73 4194.15,4721.49 4170.39,4745.25" style="fill:none;stroke:#000000;stroke-width:19.32"/>
	<polygon points="4107.86,4847.58 4145.28,4810.16 4182.71,4847.58 4145.28,4885.00" style="fill:#000000"/>
	<polygon points="4121.52,4847.58 4145.28,4823.82 4169.04,4847.58 4145.28,4871.34" style="fill:none;stroke:#000000;stroke-width:19.32"/>
	<polygon points="3955.85,4973.67 3993.28,4936.25 4030.70,4973.67 3993.28,5011.09" style="fill:#000000"/>
	<polygon points="3969.52,4973.67 3993.28,4949.91 4017.04,4973.67 3993.28,4997.43" style="fill:none;stroke:#000000;stroke-width:19.32"/>
	<polygon points="4110.56,5100.03 4147.98,5062.61 4185.41,5100.03 4147.98,5137.45" style="fill:#000000"/>
	<polygon points="4124.22,5100.03 4147.98,5076.27 4171.74,5100.03 4147.98,5123.79" style="fill:none;stroke:#000000;stroke-width:19.32"/>
	<polygon points="4091.66,5226.12 4129.08,5188.70 4166.51,5226.12 4129.08,5263.54" style="fill:#000000"/>
	<polygon points="4105.32,5226.12 4129.08,5202.36 4152.84,5226.12 4129.08,5249.88" style="fill:none;stroke:#000000;stroke-width:19.32"/>
	<polygon points="4122.44,5352.48 4159.86,5315.06 4197.29,5352.48 4159.86,5389.90" style="fill:#000000"/>
	<polygon points="4136.10,5352.48 4159.86,5328.72 4183.62,5352.48 4159.86,5376.24" style="fill:none;stroke:#000000;stroke-width:19.32"/>
	<polygon points="4122.17,5478.57 4159.59,5441.15 4197.02,5478.57 4159.59,5515.99" style="fill:#000000"/>
	<polygon points="4135.83,5478.57 4159.59,5454.81 4183.35,5478.57 4159.59,5502.33" style="fill:none;stroke:#000000;stroke-width:19.32"/>
	<polygon points="4090.04,5604.66 4127.46,5567.24 4164.89,5604.66 4127.46,5642.08" style="fill:#000000"/>
	<polygon points="4103.70,5604.66 4127.46,5580.90 4151.22,5604.66 4127.46,5628.42" style="fill:none;stroke:#000000;stroke-width:19.32"/>
	<polygon points="4183.73,5731.02 4221.15,5693.60 4258.57,5731.02 4221.15,5768.44" style="fill:#000000"/>
	<polygon points="4197.39,5731.02 4221.15,5707.26 4244.91,5731.02 4221.15,5754.78" style="fill:none;stroke:#000000;stroke-width:19.32"/>
	<polygon points="4055.21,5857.11 4092.63,5819.69 4130.06,5857.11 4092.63,5894.53" style="fill:#000000"/>
	<polygon points="4068.87,5857.11 4092.63,5833.35 4116.39,5857.11 4092.63,5880.87" style="fill:none;stroke:#000000;stroke-width:19.32"/>
	<polygon points="4111.64,5983.20 4149.06,5945.78 4186.49,5983.20 4149.06,6020.62" style="fill:#000000"/>
	<polygon points="4125.30,5983.20 4149.06,5959.44 4172.82,5983.20 4149.06,6006.96" style="fill:none;stroke:#000000;stroke-width:19.32"/>
	<polygon points="4141.07,6109.56 4178.49,6072.14 4215.92,6109.56 4178.49,6146.98" style="fill:#000000"/>
	<polygon points="4154.73,6109.56 4178.49,6085.80 4202.25,6109.56 4178.49,6133.32" style="fill:none;stroke:#000000;stroke-width:19.32"/>
	<polygon points="4139.18,6235.65 4176.60,6198.23 4214.03,6235.65 4176.60,6273.07" style="fill:#000000"/>
	<polygon points="4152.84,6235.65 4176.60,6211.89 4200.36,6235.65 4176.60,6259.41" style="fill:none;stroke:#000000;stroke-width:19.32"/>
	<polygon points="4032.80,6361.74 4070.22,6324.32 4107.65,6361.74 4070.22,6399.16" style="fill:#000000"/>
	<polygon points="4046.46,6361.74 4070.22,6337.98 4093.98,6361.74 4070.22,6385.50" style="fill:none;stroke:#000000;stroke-width:19.32"/>
	<polygon points="4131.35,6488.10 4168.77,6450.68 4206.20,6488.10 4168.77,6525.52" style="fill:#000000"/>
	<polygon points="4145.01,6488.10 4168.77,6464.34 4192.53,6488.10 4168.77,6511.86" style="fill:none;stroke:#000000;stroke-width:19.32"/>
	<polygon points="4129.73,6614.19 4167.15,6576.77 4204.58,6614.19 4167.15,6651.61" style="fill:#000000"/>
	<polygon points="4143.39,6614.19 4167.15,6590.43 4190.91,6614.19 4167.15,6637.95" style="fill:none;stroke:#000000;stroke-width:19.32"/>
	<polygon points="4122.44,6740.28 4159.86,6702.86 4197.29,6740.28 4159.86,6777.70" style="fill:#000000"/>
	<polygon points="4136.10,6740.28 4159.86,6716.52 4183.62,6740.28 4159.86,6764.04" style="fill:none;stroke:#000000;stroke-width:19.32"/>
	<polygon points="4122.17,6866.64 4159.59,6829.22 4197.02,6866.64 4159.59,6904.06" style="fill:#000000"/>
	<polygon points="4135.83,6866.64 4159.59,6842.88 4183.35,6866.64 4159.59,6890.40" style="fill:none;stroke:#000000;stroke-width:19.32"/>
	<polygon points="4089.50,6992.73 4126.92,6955.31 4164.35,6992.73 4126.92,7030.15" style="fill:#000000"/>
	<polygon points="4103.16,6992.73 4126.92,6968.97 4150.68,6992.73 4126.92,7016.49" style="fill:none;stroke:#000000;stroke-width:19.32"/>
	<polygon points="4180.76,7118.82 4218.18,7081.40 4255.60,7118.82 4218.18,7156.24" style="fill:#000000"/>
	<polygon points="4194.42,7118.82 4218.18,7095.06 4241.94,7118.82 4218.18,7142.58" style="fill:none;stroke:#000000;stroke-width:19.32"/>
	<polygon points="4052.78,7245.18 4090.20,7207.76 4127.63,7245.18 4090.20,7282.60" style="fill:#000000"/>
	<polygon points="4066.44,7245.18 4090.20,7221.42 4113.96,7245.18 4090.20,7268.94" style="fill:none;stroke:#000000;stroke-width:19.32"/>
	<polygon points="4108.40,7371.27 4145.82,7333.85 4183.25,7371.27 4145.82,7408.69" style="fill:#000000"/>
	<polygon points="4122.06,7371.27 4145.82,7347.51 4169.58,7371.27 4145.82,7395.03" style="fill:none;stroke:#000000;stroke-width:19.32"/>
	<polygon points="4140.80,7497.36 4178.22,7459.94 4215.65,7497.36 4178.22,7534.78" style="fill:#000000"/>
	<polygon points="4154.46,7497.36 4178.22,7473.60 4201.98,7497.36 4178.22,7521.12" style="fill:none;stroke:#000000;stroke-width:19.32"/>
	<polygon points="4137.83,7623.72 4175.25,7586.30 4212.68,7623.72 4175.25,7661.14" style="fill:#000000"/>
	<polygon points="4151.49,7623.72 4175.25,7599.96 4199.01,7623.72 4175.25,7647.48" style="fill:none;stroke:#000000;stroke-width:19.32"/>
	<polygon points="4032.26,7749.81 4069.68,7712.39 4107.11,7749.81 4069.68,7787.23" style="fill:#000000"/>
	<polygon points="4045.92,7749.81 4069.68,7726.05 4093.44,7749.81 4069.68,7773.57" style="fill:none;stroke:#000000;stroke-width:19.32"/>
	<polygon points="4131.08,7875.90 4168.50,7838.48 4205.93,7875.90 4168.50,7913.32" style="fill:#000000"/>
	<polygon points="4144.74,7875.90 4168.50,7852.14 4192.26,7875.90 4168.50,7899.66" style="fill:none;stroke:#000000;stroke-width:19.32"/>
	<polygon points="4128.38,8002.26 4165.80,7964.84 4203.23,8002.26 4165.80,8039.68" style="fill:#000000"/>
	<polygon points="4142.04,8002.26 4165.80,7978.50 4189.56,8002.26 4165.80,8026.02" style="fill:none;stroke:#000000;stroke-width:19.32"/>
	<line x1="340.47" y1="8380.53" x2="6166.76" y2="8380.53" style="stroke:#000000;stroke-width:12.88"/>
	<text x="3522.94" y="8465.85" style="font-family:'Helvetica';font-size:58.05px;fill:#000000" text-anchor="middle"> </text>
	<text x="4542.45" y="8465.85" style="font-family:'Helvetica';font-size:58.05px;fill:#000000" text-anchor="middle"> </text>
	<line x1="4160.13" y1="8380.53" x2="4160.13" y2="8469.90" style="stroke:#000000;stroke-width:12.88"/>
	<text x="4160.13" y="8555.22" style="font-family:'Helvetica';font-size:58.05px;fill:#000000" text-anchor="middle">1</text>
	<line x1="3968.98" y1="8380.53" x2="3968.98" y2="8469.90" style="stroke:#000000;stroke-width:12.88"/>
	<text x="3968.98" y="8555.22" style="font-family:'Helvetica';font-size:58.05px;fill:#000000" text-anchor="middle">.25</text>
	<line x1="4032.69" y1="8380.53" x2="4032.69" y2="8469.90" style="stroke:#000000;stroke-width:12.88"/>
	<text x="4032.69" y="8555.22" style="font-family:'Helvetica';font-size:58.05px;fill:#000000" text-anchor="middle">.5</text>
	<line x1="4160.13" y1="8380.53" x2="4160.13" y2="8469.90" style="stroke:#000000;stroke-width:12.88"/>
	<text x="4160.13" y="8555.22" style="font-family:'Helvetica';font-size:58.05px;fill:#000000" text-anchor="middle">1</text>
	<line x1="4415.01" y1="8380.53" x2="4415.01" y2="8469.90" style="stroke:#000000;stroke-width:12.88"/>
	<text x="4415.01" y="8555.22" style="font-family:'Helvetica';font-size:58.05px;fill:#000000" text-anchor="middle">2</text>
	<line x1="4924.77" y1="8380.53" x2="4924.77" y2="8469.90" style="stroke:#000000;stroke-width:12.88"/>
	<text x="4924.77" y="8555.22" style="font-family:'Helvetica';font-size:58.05px;fill:#000000" text-anchor="middle">4</text>
	<line x1="4160.13" y1="8380.53" x2="4160.13" y2="8469.90" style="stroke:#000000;stroke-width:12.88"/>
	<text x="3253.48" y="464.91" style="font-family:'Helvetica';font-size:178.74px;fill:#000000" text-anchor="middle">complete case analysis</text>
	<text x="3253.48" y="195.24" style="font-family:'Helvetica';font-size:223.56px;fill:#000000" text-anchor="middle">suspected</text>
</svg>
