<?xml version="1.0" encoding="UTF-8" standalone="no"?>
<!-- This is a Stata 16.1 generated SVG file (http://www.stata.com) -->

<svg version="1.1" width="8.94in" height="12.00in" viewBox="0 0 6440 8640" xmlns="http://www.w3.org/2000/svg" xmlns:xlink="http://www.w3.org/1999/xlink">
	<desc>Stata Graph - Graph</desc>
	<rect x="0" y="0" width="6440" height="8640" style="fill:#F0F0F0;stroke:none"/>
	<rect x="0.00" y="0.27" width="6440.00" height="8639.73" style="fill:#FFFFFF"/>
	<rect x="6.44" y="6.71" width="6427.12" height="8626.85" style="fill:none;stroke:#FFFFFF;stroke-width:12.88"/>
	<rect x="340.47" y="557.28" width="5826.29" height="7823.25" style="fill:#FFFFFF"/>
	<rect x="346.91" y="563.72" width="5813.41" height="7810.37" style="fill:none;stroke:#FFFFFF;stroke-width:12.88"/>
	<line x1="340.47" y1="967.41" x2="6166.76" y2="967.41" style="stroke:#C0C0C0;stroke-width:12.88"/>
	<text x="434.43" y="8211.65" style="font-family:'Helvetica';font-size:58.05px;fill:#000000">NOTE: Weights are from random effects analysis</text>
	<line x1="4160.13" y1="8380.53" x2="4160.13" y2="967.41" style="stroke:#000000;stroke-width:12.88"/>
	<text x="434.43" y="8148.74" style="font-family:'Helvetica';font-size:58.05px;fill:#000000">.</text>
	<line x1="4160.13" y1="1188.27" x2="4160.13" y2="1188.27" style="stroke:#000000;stroke-width:19.32"/>
	<line x1="4245.18" y1="1314.36" x2="4388.82" y2="1314.36" style="stroke:#000000;stroke-width:19.32"/>
	<line x1="4002.46" y1="1440.45" x2="4020.55" y2="1440.45" style="stroke:#000000;stroke-width:19.32"/>
	<line x1="4087.50" y1="1566.81" x2="4131.24" y2="1566.81" style="stroke:#000000;stroke-width:19.32"/>
	<line x1="4056.45" y1="1692.90" x2="4104.78" y2="1692.90" style="stroke:#000000;stroke-width:19.32"/>
	<line x1="4037.01" y1="1818.99" x2="4137.45" y2="1818.99" style="stroke:#000000;stroke-width:19.32"/>
	<line x1="4326.72" y1="1945.35" x2="4481.43" y2="1945.35" style="stroke:#000000;stroke-width:19.32"/>
	<line x1="4015.69" y1="2071.44" x2="4068.60" y2="2071.44" style="stroke:#000000;stroke-width:19.32"/>
	<line x1="3951.97" y1="2197.53" x2="4003.54" y2="2197.53" style="stroke:#000000;stroke-width:19.32"/>
	<line x1="3997.87" y1="2323.89" x2="4049.97" y2="2323.89" style="stroke:#000000;stroke-width:19.32"/>
	<line x1="4035.66" y1="2449.98" x2="4069.95" y2="2449.98" style="stroke:#000000;stroke-width:19.32"/>
	<line x1="4160.13" y1="2576.07" x2="4160.13" y2="2576.07" style="stroke:#000000;stroke-width:19.32"/>
	<line x1="4149.60" y1="2702.43" x2="4253.82" y2="2702.43" style="stroke:#000000;stroke-width:19.32"/>
	<line x1="4116.39" y1="2828.52" x2="4156.89" y2="2828.52" style="stroke:#000000;stroke-width:19.32"/>
	<line x1="4216.29" y1="2954.88" x2="4295.13" y2="2954.88" style="stroke:#000000;stroke-width:19.32"/>
	<line x1="4267.86" y1="3080.97" x2="4385.31" y2="3080.97" style="stroke:#000000;stroke-width:19.32"/>
	<line x1="4331.85" y1="3207.06" x2="4659.63" y2="3207.06" style="stroke:#000000;stroke-width:19.32"/>
	<line x1="4237.62" y1="3333.42" x2="4362.63" y2="3333.42" style="stroke:#000000;stroke-width:19.32"/>
	<line x1="4352.91" y1="3459.51" x2="4572.96" y2="3459.51" style="stroke:#000000;stroke-width:19.32"/>
	<line x1="4082.91" y1="3585.60" x2="4278.93" y2="3585.60" style="stroke:#000000;stroke-width:19.32"/>
	<line x1="4217.91" y1="3711.96" x2="4395.30" y2="3711.96" style="stroke:#000000;stroke-width:19.32"/>
	<line x1="4263.00" y1="3838.05" x2="4361.28" y2="3838.05" style="stroke:#000000;stroke-width:19.32"/>
	<line x1="4160.13" y1="3964.14" x2="4160.13" y2="3964.14" style="stroke:#000000;stroke-width:19.32"/>
	<line x1="4133.67" y1="4090.50" x2="4231.14" y2="4090.50" style="stroke:#000000;stroke-width:19.32"/>
	<line x1="4108.29" y1="4216.59" x2="4147.44" y2="4216.59" style="stroke:#000000;stroke-width:19.32"/>
	<line x1="4188.75" y1="4342.68" x2="4261.38" y2="4342.68" style="stroke:#000000;stroke-width:19.32"/>
	<line x1="4198.47" y1="4469.04" x2="4294.59" y2="4469.04" style="stroke:#000000;stroke-width:19.32"/>
	<line x1="4250.04" y1="4595.13" x2="4515.72" y2="4595.13" style="stroke:#000000;stroke-width:19.32"/>
	<line x1="4186.59" y1="4721.22" x2="4292.97" y2="4721.22" style="stroke:#000000;stroke-width:19.32"/>
	<line x1="4284.33" y1="4847.58" x2="4471.44" y2="4847.58" style="stroke:#000000;stroke-width:19.32"/>
	<line x1="4078.05" y1="4973.67" x2="4268.67" y2="4973.67" style="stroke:#000000;stroke-width:19.32"/>
	<line x1="4190.10" y1="5099.76" x2="4351.83" y2="5099.76" style="stroke:#000000;stroke-width:19.32"/>
	<line x1="4228.98" y1="5226.12" x2="4318.35" y2="5226.12" style="stroke:#000000;stroke-width:19.32"/>
	<line x1="4160.13" y1="5352.21" x2="4160.13" y2="5352.21" style="stroke:#000000;stroke-width:19.32"/>
	<line x1="4145.82" y1="5478.30" x2="4254.63" y2="5478.30" style="stroke:#000000;stroke-width:19.32"/>
	<line x1="4129.35" y1="5604.66" x2="4175.79" y2="5604.66" style="stroke:#000000;stroke-width:19.32"/>
	<line x1="4195.77" y1="5730.75" x2="4278.93" y2="5730.75" style="stroke:#000000;stroke-width:19.32"/>
	<line x1="4140.42" y1="5856.84" x2="4227.36" y2="5856.84" style="stroke:#000000;stroke-width:19.32"/>
	<line x1="4197.12" y1="5983.20" x2="4429.86" y2="5983.20" style="stroke:#000000;stroke-width:19.32"/>
	<line x1="4152.84" y1="6109.29" x2="4255.17" y2="6109.29" style="stroke:#000000;stroke-width:19.32"/>
	<line x1="4250.04" y1="6235.38" x2="4453.35" y2="6235.38" style="stroke:#000000;stroke-width:19.32"/>
	<line x1="4102.08" y1="6361.74" x2="4361.28" y2="6361.74" style="stroke:#000000;stroke-width:19.32"/>
	<line x1="4189.83" y1="6487.83" x2="4371.00" y2="6487.83" style="stroke:#000000;stroke-width:19.32"/>
	<line x1="4245.18" y1="6613.92" x2="4349.13" y2="6613.92" style="stroke:#000000;stroke-width:19.32"/>
	<line x1="4160.13" y1="6740.28" x2="4160.13" y2="6740.28" style="stroke:#000000;stroke-width:19.32"/>
	<line x1="4141.77" y1="6866.37" x2="4248.69" y2="6866.37" style="stroke:#000000;stroke-width:19.32"/>
	<line x1="4125.03" y1="6992.46" x2="4170.66" y2="6992.46" style="stroke:#000000;stroke-width:19.32"/>
	<line x1="4142.58" y1="7118.82" x2="4211.97" y2="7118.82" style="stroke:#000000;stroke-width:19.32"/>
	<line x1="4061.58" y1="7244.91" x2="4120.71" y2="7244.91" style="stroke:#000000;stroke-width:19.32"/>
	<line x1="4097.22" y1="7371.00" x2="4251.93" y2="7371.00" style="stroke:#000000;stroke-width:19.32"/>
	<line x1="4157.97" y1="7497.36" x2="4262.46" y2="7497.36" style="stroke:#000000;stroke-width:19.32"/>
	<line x1="4206.57" y1="7623.45" x2="4384.77" y2="7623.45" style="stroke:#000000;stroke-width:19.32"/>
	<line x1="4084.53" y1="7749.54" x2="4320.51" y2="7749.54" style="stroke:#000000;stroke-width:19.32"/>
	<line x1="4178.22" y1="7875.90" x2="4352.37" y2="7875.90" style="stroke:#000000;stroke-width:19.32"/>
	<line x1="4195.50" y1="8001.99" x2="4285.14" y2="8001.99" style="stroke:#000000;stroke-width:19.32"/>
	<text x="434.43" y="1082.29" style="font-family:'Helvetica';font-size:58.05px;fill:#000000">onscoviddeath</text>
	<text x="434.43" y="1208.66" style="font-family:'Helvetica';font-size:58.05px;fill:#000000">Crude</text>
	<text x="434.43" y="2596.45" style="font-family:'Helvetica';font-size:58.05px;fill:#000000">Age-sex</text>
	<text x="434.43" y="3984.53" style="font-family:'Helvetica';font-size:58.05px;fill:#000000">Age-sex-IMD</text>
	<text x="434.43" y="5372.60" style="font-family:'Helvetica';font-size:58.05px;fill:#000000">+ co-morbidities</text>
	<text x="434.43" y="6760.66" style="font-family:'Helvetica';font-size:58.05px;fill:#000000">+ household size</text>
	<text x="434.43" y="830.11" style="font-family:'Helvetica';font-size:58.05px;fill:#000000">adjusted</text>
	<text x="1551.95" y="1208.66" style="font-family:'Helvetica';font-size:58.05px;fill:#000000">British or Mixed British</text>
	<text x="1551.95" y="1334.74" style="font-family:'Helvetica';font-size:58.05px;fill:#000000">Irish</text>
	<text x="1551.95" y="1460.83" style="font-family:'Helvetica';font-size:58.05px;fill:#000000">Other White</text>
	<text x="1551.95" y="1587.20" style="font-family:'Helvetica';font-size:58.05px;fill:#000000">Indian</text>
	<text x="1551.95" y="1713.28" style="font-family:'Helvetica';font-size:58.05px;fill:#000000">Pakistani</text>
	<text x="1551.95" y="1839.37" style="font-family:'Helvetica';font-size:58.05px;fill:#000000">Bangladeshi</text>
	<text x="1551.95" y="1965.74" style="font-family:'Helvetica';font-size:58.05px;fill:#000000">Caribbean</text>
	<text x="1551.95" y="2091.82" style="font-family:'Helvetica';font-size:58.05px;fill:#000000">African</text>
	<text x="1551.95" y="2217.91" style="font-family:'Helvetica';font-size:58.05px;fill:#000000">Chinese</text>
	<text x="1551.95" y="2344.28" style="font-family:'Helvetica';font-size:58.05px;fill:#000000">All mixed</text>
	<text x="1551.95" y="2470.36" style="font-family:'Helvetica';font-size:58.05px;fill:#000000">All Other</text>
	<text x="1551.95" y="2596.45" style="font-family:'Helvetica';font-size:58.05px;fill:#000000">British or Mixed British</text>
	<text x="1551.95" y="2722.82" style="font-family:'Helvetica';font-size:58.05px;fill:#000000">Irish</text>
	<text x="1551.95" y="2848.91" style="font-family:'Helvetica';font-size:58.05px;fill:#000000">Other White</text>
	<text x="1551.95" y="2975.27" style="font-family:'Helvetica';font-size:58.05px;fill:#000000">Indian</text>
	<text x="1551.95" y="3101.36" style="font-family:'Helvetica';font-size:58.05px;fill:#000000">Pakistani</text>
	<text x="1551.95" y="3227.45" style="font-family:'Helvetica';font-size:58.05px;fill:#000000">Bangladeshi</text>
	<text x="1551.95" y="3353.81" style="font-family:'Helvetica';font-size:58.05px;fill:#000000">Caribbean</text>
	<text x="1551.95" y="3479.90" style="font-family:'Helvetica';font-size:58.05px;fill:#000000">African</text>
	<text x="1551.95" y="3605.99" style="font-family:'Helvetica';font-size:58.05px;fill:#000000">Chinese</text>
	<text x="1551.95" y="3732.35" style="font-family:'Helvetica';font-size:58.05px;fill:#000000">All mixed</text>
	<text x="1551.95" y="3858.44" style="font-family:'Helvetica';font-size:58.05px;fill:#000000">All Other</text>
	<text x="1551.95" y="3984.53" style="font-family:'Helvetica';font-size:58.05px;fill:#000000">British or Mixed British</text>
	<text x="1551.95" y="4110.89" style="font-family:'Helvetica';font-size:58.05px;fill:#000000">Irish</text>
	<text x="1551.95" y="4236.98" style="font-family:'Helvetica';font-size:58.05px;fill:#000000">Other White</text>
	<text x="1551.95" y="4363.07" style="font-family:'Helvetica';font-size:58.05px;fill:#000000">Indian</text>
	<text x="1551.95" y="4489.43" style="font-family:'Helvetica';font-size:58.05px;fill:#000000">Pakistani</text>
	<text x="1551.95" y="4615.52" style="font-family:'Helvetica';font-size:58.05px;fill:#000000">Bangladeshi</text>
	<text x="1551.95" y="4741.60" style="font-family:'Helvetica';font-size:58.05px;fill:#000000">Caribbean</text>
	<text x="1551.95" y="4867.97" style="font-family:'Helvetica';font-size:58.05px;fill:#000000">African</text>
	<text x="1551.95" y="4994.06" style="font-family:'Helvetica';font-size:58.05px;fill:#000000">Chinese</text>
	<text x="1551.95" y="5120.15" style="font-family:'Helvetica';font-size:58.05px;fill:#000000">All mixed</text>
	<text x="1551.95" y="5246.51" style="font-family:'Helvetica';font-size:58.05px;fill:#000000">All Other</text>
	<text x="1551.95" y="5372.60" style="font-family:'Helvetica';font-size:58.05px;fill:#000000">British or Mixed British</text>
	<text x="1551.95" y="5498.69" style="font-family:'Helvetica';font-size:58.05px;fill:#000000">Irish</text>
	<text x="1551.95" y="5625.05" style="font-family:'Helvetica';font-size:58.05px;fill:#000000">Other White</text>
	<text x="1551.95" y="5751.14" style="font-family:'Helvetica';font-size:58.05px;fill:#000000">Indian</text>
	<text x="1551.95" y="5877.23" style="font-family:'Helvetica';font-size:58.05px;fill:#000000">Pakistani</text>
	<text x="1551.95" y="6003.59" style="font-family:'Helvetica';font-size:58.05px;fill:#000000">Bangladeshi</text>
	<text x="1551.95" y="6129.68" style="font-family:'Helvetica';font-size:58.05px;fill:#000000">Caribbean</text>
	<text x="1551.95" y="6255.77" style="font-family:'Helvetica';font-size:58.05px;fill:#000000">African</text>
	<text x="1551.95" y="6382.13" style="font-family:'Helvetica';font-size:58.05px;fill:#000000">Chinese</text>
	<text x="1551.95" y="6508.22" style="font-family:'Helvetica';font-size:58.05px;fill:#000000">All mixed</text>
	<text x="1551.95" y="6634.31" style="font-family:'Helvetica';font-size:58.05px;fill:#000000">All Other</text>
	<text x="1551.95" y="6760.66" style="font-family:'Helvetica';font-size:58.05px;fill:#000000">British or Mixed British</text>
	<text x="1551.95" y="6886.76" style="font-family:'Helvetica';font-size:58.05px;fill:#000000">Irish</text>
	<text x="1551.95" y="7012.85" style="font-family:'Helvetica';font-size:58.05px;fill:#000000">Other White</text>
	<text x="1551.95" y="7139.20" style="font-family:'Helvetica';font-size:58.05px;fill:#000000">Indian</text>
	<text x="1551.95" y="7265.30" style="font-family:'Helvetica';font-size:58.05px;fill:#000000">Pakistani</text>
	<text x="1551.95" y="7391.39" style="font-family:'Helvetica';font-size:58.05px;fill:#000000">Bangladeshi</text>
	<text x="1551.95" y="7517.74" style="font-family:'Helvetica';font-size:58.05px;fill:#000000">Caribbean</text>
	<text x="1551.95" y="7643.84" style="font-family:'Helvetica';font-size:58.05px;fill:#000000">African</text>
	<text x="1551.95" y="7769.93" style="font-family:'Helvetica';font-size:58.05px;fill:#000000">Chinese</text>
	<text x="1551.95" y="7896.28" style="font-family:'Helvetica';font-size:58.05px;fill:#000000">All mixed</text>
	<text x="1551.95" y="8022.38" style="font-family:'Helvetica';font-size:58.05px;fill:#000000">All Other</text>
	<text x="1551.95" y="830.11" style="font-family:'Helvetica';font-size:58.05px;fill:#000000">eth16</text>
	<text x="5018.73" y="1208.66" style="font-family:'Helvetica';font-size:58.05px;fill:#000000">1.00 (1.00, 1.00)</text>
	<text x="5018.73" y="1334.74" style="font-family:'Helvetica';font-size:58.05px;fill:#000000">1.59 (1.33, 1.90)</text>
	<text x="5018.73" y="1460.83" style="font-family:'Helvetica';font-size:58.05px;fill:#000000">0.42 (0.38, 0.45)</text>
	<text x="5018.73" y="1587.20" style="font-family:'Helvetica';font-size:58.05px;fill:#000000">0.80 (0.72, 0.89)</text>
	<text x="5018.73" y="1713.28" style="font-family:'Helvetica';font-size:58.05px;fill:#000000">0.68 (0.59, 0.78)</text>
	<text x="5018.73" y="1839.37" style="font-family:'Helvetica';font-size:58.05px;fill:#000000">0.69 (0.52, 0.91)</text>
	<text x="5018.73" y="1965.74" style="font-family:'Helvetica';font-size:58.05px;fill:#000000">1.93 (1.65, 2.26)</text>
	<text x="5018.73" y="2091.82" style="font-family:'Helvetica';font-size:58.05px;fill:#000000">0.53 (0.43, 0.64)</text>
	<text x="5018.73" y="2217.91" style="font-family:'Helvetica';font-size:58.05px;fill:#000000">0.27 (0.18, 0.39)</text>
	<text x="5018.73" y="2344.28" style="font-family:'Helvetica';font-size:58.05px;fill:#000000">0.45 (0.36, 0.57)</text>
	<text x="5018.73" y="2470.36" style="font-family:'Helvetica';font-size:58.05px;fill:#000000">0.58 (0.51, 0.65)</text>
	<text x="5018.73" y="2596.45" style="font-family:'Helvetica';font-size:58.05px;fill:#000000">1.00 (1.00, 1.00)</text>
	<text x="5018.73" y="2722.82" style="font-family:'Helvetica';font-size:58.05px;fill:#000000">1.15 (0.96, 1.37)</text>
	<text x="5018.73" y="2848.91" style="font-family:'Helvetica';font-size:58.05px;fill:#000000">0.90 (0.83, 0.99)</text>
	<text x="5018.73" y="2975.27" style="font-family:'Helvetica';font-size:58.05px;fill:#000000">1.37 (1.22, 1.53)</text>
	<text x="5018.73" y="3101.36" style="font-family:'Helvetica';font-size:58.05px;fill:#000000">1.64 (1.42, 1.88)</text>
	<text x="5018.73" y="3227.45" style="font-family:'Helvetica';font-size:58.05px;fill:#000000">2.23 (1.67, 2.96)</text>
	<text x="5018.73" y="3353.81" style="font-family:'Helvetica';font-size:58.05px;fill:#000000">1.53 (1.30, 1.80)</text>
	<text x="5018.73" y="3479.90" style="font-family:'Helvetica';font-size:58.05px;fill:#000000">2.15 (1.76, 2.62)</text>
	<text x="5018.73" y="3605.99" style="font-family:'Helvetica';font-size:58.05px;fill:#000000">1.01 (0.70, 1.47)</text>
	<text x="5018.73" y="3732.35" style="font-family:'Helvetica';font-size:58.05px;fill:#000000">1.54 (1.23, 1.92)</text>
	<text x="5018.73" y="3858.44" style="font-family:'Helvetica';font-size:58.05px;fill:#000000">1.59 (1.40, 1.79)</text>
	<text x="5018.73" y="3984.53" style="font-family:'Helvetica';font-size:58.05px;fill:#000000">1.00 (1.00, 1.00)</text>
	<text x="5018.73" y="4110.89" style="font-family:'Helvetica';font-size:58.05px;fill:#000000">1.07 (0.90, 1.28)</text>
	<text x="5018.73" y="4236.98" style="font-family:'Helvetica';font-size:58.05px;fill:#000000">0.87 (0.80, 0.95)</text>
	<text x="5018.73" y="4363.07" style="font-family:'Helvetica';font-size:58.05px;fill:#000000">1.25 (1.11, 1.40)</text>
	<text x="5018.73" y="4489.43" style="font-family:'Helvetica';font-size:58.05px;fill:#000000">1.33 (1.15, 1.53)</text>
	<text x="5018.73" y="4615.52" style="font-family:'Helvetica';font-size:58.05px;fill:#000000">1.80 (1.35, 2.40)</text>
	<text x="5018.73" y="4741.60" style="font-family:'Helvetica';font-size:58.05px;fill:#000000">1.30 (1.10, 1.52)</text>
	<text x="5018.73" y="4867.97" style="font-family:'Helvetica';font-size:58.05px;fill:#000000">1.82 (1.49, 2.22)</text>
	<text x="5018.73" y="4994.06" style="font-family:'Helvetica';font-size:58.05px;fill:#000000">0.98 (0.68, 1.43)</text>
	<text x="5018.73" y="5120.15" style="font-family:'Helvetica';font-size:58.05px;fill:#000000">1.40 (1.12, 1.75)</text>
	<text x="5018.73" y="5246.51" style="font-family:'Helvetica';font-size:58.05px;fill:#000000">1.44 (1.27, 1.62)</text>
	<text x="5018.73" y="5372.60" style="font-family:'Helvetica';font-size:58.05px;fill:#000000">1.00 (1.00, 1.00)</text>
	<text x="5018.73" y="5498.69" style="font-family:'Helvetica';font-size:58.05px;fill:#000000">1.14 (0.94, 1.37)</text>
	<text x="5018.73" y="5625.05" style="font-family:'Helvetica';font-size:58.05px;fill:#000000">0.97 (0.88, 1.06)</text>
	<text x="5018.73" y="5751.14" style="font-family:'Helvetica';font-size:58.05px;fill:#000000">1.29 (1.14, 1.47)</text>
	<text x="5018.73" y="5877.23" style="font-family:'Helvetica';font-size:58.05px;fill:#000000">1.08 (0.92, 1.26)</text>
	<text x="5018.73" y="6003.59" style="font-family:'Helvetica';font-size:58.05px;fill:#000000">1.54 (1.15, 2.06)</text>
	<text x="5018.73" y="6129.68" style="font-family:'Helvetica';font-size:58.05px;fill:#000000">1.15 (0.97, 1.37)</text>
	<text x="5018.73" y="6255.77" style="font-family:'Helvetica';font-size:58.05px;fill:#000000">1.71 (1.35, 2.15)</text>
	<text x="5018.73" y="6382.13" style="font-family:'Helvetica';font-size:58.05px;fill:#000000">1.18 (0.77, 1.79)</text>
	<text x="5018.73" y="6508.22" style="font-family:'Helvetica';font-size:58.05px;fill:#000000">1.43 (1.12, 1.83)</text>
	<text x="5018.73" y="6634.31" style="font-family:'Helvetica';font-size:58.05px;fill:#000000">1.52 (1.33, 1.74)</text>
	<text x="5018.73" y="6760.66" style="font-family:'Helvetica';font-size:58.05px;fill:#000000">1.00 (1.00, 1.00)</text>
	<text x="5018.73" y="6886.76" style="font-family:'Helvetica';font-size:58.05px;fill:#000000">1.12 (0.93, 1.35)</text>
	<text x="5018.73" y="7012.85" style="font-family:'Helvetica';font-size:58.05px;fill:#000000">0.95 (0.86, 1.04)</text>
	<text x="5018.73" y="7139.20" style="font-family:'Helvetica';font-size:58.05px;fill:#000000">1.06 (0.93, 1.20)</text>
	<text x="5018.73" y="7265.30" style="font-family:'Helvetica';font-size:58.05px;fill:#000000">0.72 (0.61, 0.85)</text>
	<text x="5018.73" y="7391.39" style="font-family:'Helvetica';font-size:58.05px;fill:#000000">1.01 (0.75, 1.36)</text>
	<text x="5018.73" y="7517.74" style="font-family:'Helvetica';font-size:58.05px;fill:#000000">1.18 (0.99, 1.40)</text>
	<text x="5018.73" y="7643.84" style="font-family:'Helvetica';font-size:58.05px;fill:#000000">1.49 (1.18, 1.88)</text>
	<text x="5018.73" y="7769.93" style="font-family:'Helvetica';font-size:58.05px;fill:#000000">1.07 (0.70, 1.63)</text>
	<text x="5018.73" y="7896.28" style="font-family:'Helvetica';font-size:58.05px;fill:#000000">1.37 (1.07, 1.75)</text>
	<text x="5018.73" y="8022.38" style="font-family:'Helvetica';font-size:58.05px;fill:#000000">1.30 (1.14, 1.49)</text>
	<text x="5018.73" y="830.11" style="font-family:'Helvetica';font-size:58.05px;fill:#000000">Ratio (95% CI)</text>
	<text x="5018.73" y="703.75" style="font-family:'Helvetica';font-size:58.05px;fill:#000000">Hazard</text>
	<text x="5018.73" y="1208.66" style="font-family:'Helvetica';font-size:58.05px;fill:#000000">1.00 (1.00, 1.00)</text>
	<text x="5018.73" y="1334.74" style="font-family:'Helvetica';font-size:58.05px;fill:#000000">1.59 (1.33, 1.90)</text>
	<text x="5018.73" y="1460.83" style="font-family:'Helvetica';font-size:58.05px;fill:#000000">0.42 (0.38, 0.45)</text>
	<text x="5018.73" y="1587.20" style="font-family:'Helvetica';font-size:58.05px;fill:#000000">0.80 (0.72, 0.89)</text>
	<text x="5018.73" y="1713.28" style="font-family:'Helvetica';font-size:58.05px;fill:#000000">0.68 (0.59, 0.78)</text>
	<text x="5018.73" y="1839.37" style="font-family:'Helvetica';font-size:58.05px;fill:#000000">0.69 (0.52, 0.91)</text>
	<text x="5018.73" y="1965.74" style="font-family:'Helvetica';font-size:58.05px;fill:#000000">1.93 (1.65, 2.26)</text>
	<text x="5018.73" y="2091.82" style="font-family:'Helvetica';font-size:58.05px;fill:#000000">0.53 (0.43, 0.64)</text>
	<text x="5018.73" y="2217.91" style="font-family:'Helvetica';font-size:58.05px;fill:#000000">0.27 (0.18, 0.39)</text>
	<text x="5018.73" y="2344.28" style="font-family:'Helvetica';font-size:58.05px;fill:#000000">0.45 (0.36, 0.57)</text>
	<text x="5018.73" y="2470.36" style="font-family:'Helvetica';font-size:58.05px;fill:#000000">0.58 (0.51, 0.65)</text>
	<text x="5018.73" y="2596.45" style="font-family:'Helvetica';font-size:58.05px;fill:#000000">1.00 (1.00, 1.00)</text>
	<text x="5018.73" y="2722.82" style="font-family:'Helvetica';font-size:58.05px;fill:#000000">1.15 (0.96, 1.37)</text>
	<text x="5018.73" y="2848.91" style="font-family:'Helvetica';font-size:58.05px;fill:#000000">0.90 (0.83, 0.99)</text>
	<text x="5018.73" y="2975.27" style="font-family:'Helvetica';font-size:58.05px;fill:#000000">1.37 (1.22, 1.53)</text>
	<text x="5018.73" y="3101.36" style="font-family:'Helvetica';font-size:58.05px;fill:#000000">1.64 (1.42, 1.88)</text>
	<text x="5018.73" y="3227.45" style="font-family:'Helvetica';font-size:58.05px;fill:#000000">2.23 (1.67, 2.96)</text>
	<text x="5018.73" y="3353.81" style="font-family:'Helvetica';font-size:58.05px;fill:#000000">1.53 (1.30, 1.80)</text>
	<text x="5018.73" y="3479.90" style="font-family:'Helvetica';font-size:58.05px;fill:#000000">2.15 (1.76, 2.62)</text>
	<text x="5018.73" y="3605.99" style="font-family:'Helvetica';font-size:58.05px;fill:#000000">1.01 (0.70, 1.47)</text>
	<text x="5018.73" y="3732.35" style="font-family:'Helvetica';font-size:58.05px;fill:#000000">1.54 (1.23, 1.92)</text>
	<text x="5018.73" y="3858.44" style="font-family:'Helvetica';font-size:58.05px;fill:#000000">1.59 (1.40, 1.79)</text>
	<text x="5018.73" y="3984.53" style="font-family:'Helvetica';font-size:58.05px;fill:#000000">1.00 (1.00, 1.00)</text>
	<text x="5018.73" y="4110.89" style="font-family:'Helvetica';font-size:58.05px;fill:#000000">1.07 (0.90, 1.28)</text>
	<text x="5018.73" y="4236.98" style="font-family:'Helvetica';font-size:58.05px;fill:#000000">0.87 (0.80, 0.95)</text>
	<text x="5018.73" y="4363.07" style="font-family:'Helvetica';font-size:58.05px;fill:#000000">1.25 (1.11, 1.40)</text>
	<text x="5018.73" y="4489.43" style="font-family:'Helvetica';font-size:58.05px;fill:#000000">1.33 (1.15, 1.53)</text>
	<text x="5018.73" y="4615.52" style="font-family:'Helvetica';font-size:58.05px;fill:#000000">1.80 (1.35, 2.40)</text>
	<text x="5018.73" y="4741.60" style="font-family:'Helvetica';font-size:58.05px;fill:#000000">1.30 (1.10, 1.52)</text>
	<text x="5018.73" y="4867.97" style="font-family:'Helvetica';font-size:58.05px;fill:#000000">1.82 (1.49, 2.22)</text>
	<text x="5018.73" y="4994.06" style="font-family:'Helvetica';font-size:58.05px;fill:#000000">0.98 (0.68, 1.43)</text>
	<text x="5018.73" y="5120.15" style="font-family:'Helvetica';font-size:58.05px;fill:#000000">1.40 (1.12, 1.75)</text>
	<text x="5018.73" y="5246.51" style="font-family:'Helvetica';font-size:58.05px;fill:#000000">1.44 (1.27, 1.62)</text>
	<text x="5018.73" y="5372.60" style="font-family:'Helvetica';font-size:58.05px;fill:#000000">1.00 (1.00, 1.00)</text>
	<text x="5018.73" y="5498.69" style="font-family:'Helvetica';font-size:58.05px;fill:#000000">1.14 (0.94, 1.37)</text>
	<text x="5018.73" y="5625.05" style="font-family:'Helvetica';font-size:58.05px;fill:#000000">0.97 (0.88, 1.06)</text>
	<text x="5018.73" y="5751.14" style="font-family:'Helvetica';font-size:58.05px;fill:#000000">1.29 (1.14, 1.47)</text>
	<text x="5018.73" y="5877.23" style="font-family:'Helvetica';font-size:58.05px;fill:#000000">1.08 (0.92, 1.26)</text>
	<text x="5018.73" y="6003.59" style="font-family:'Helvetica';font-size:58.05px;fill:#000000">1.54 (1.15, 2.06)</text>
	<text x="5018.73" y="6129.68" style="font-family:'Helvetica';font-size:58.05px;fill:#000000">1.15 (0.97, 1.37)</text>
	<text x="5018.73" y="6255.77" style="font-family:'Helvetica';font-size:58.05px;fill:#000000">1.71 (1.35, 2.15)</text>
	<text x="5018.73" y="6382.13" style="font-family:'Helvetica';font-size:58.05px;fill:#000000">1.18 (0.77, 1.79)</text>
	<text x="5018.73" y="6508.22" style="font-family:'Helvetica';font-size:58.05px;fill:#000000">1.43 (1.12, 1.83)</text>
	<text x="5018.73" y="6634.31" style="font-family:'Helvetica';font-size:58.05px;fill:#000000">1.52 (1.33, 1.74)</text>
	<text x="5018.73" y="6760.66" style="font-family:'Helvetica';font-size:58.05px;fill:#000000">1.00 (1.00, 1.00)</text>
	<text x="5018.73" y="6886.76" style="font-family:'Helvetica';font-size:58.05px;fill:#000000">1.12 (0.93, 1.35)</text>
	<text x="5018.73" y="7012.85" style="font-family:'Helvetica';font-size:58.05px;fill:#000000">0.95 (0.86, 1.04)</text>
	<text x="5018.73" y="7139.20" style="font-family:'Helvetica';font-size:58.05px;fill:#000000">1.06 (0.93, 1.20)</text>
	<text x="5018.73" y="7265.30" style="font-family:'Helvetica';font-size:58.05px;fill:#000000">0.72 (0.61, 0.85)</text>
	<text x="5018.73" y="7391.39" style="font-family:'Helvetica';font-size:58.05px;fill:#000000">1.01 (0.75, 1.36)</text>
	<text x="5018.73" y="7517.74" style="font-family:'Helvetica';font-size:58.05px;fill:#000000">1.18 (0.99, 1.40)</text>
	<text x="5018.73" y="7643.84" style="font-family:'Helvetica';font-size:58.05px;fill:#000000">1.49 (1.18, 1.88)</text>
	<text x="5018.73" y="7769.93" style="font-family:'Helvetica';font-size:58.05px;fill:#000000">1.07 (0.70, 1.63)</text>
	<text x="5018.73" y="7896.28" style="font-family:'Helvetica';font-size:58.05px;fill:#000000">1.37 (1.07, 1.75)</text>
	<text x="5018.73" y="8022.38" style="font-family:'Helvetica';font-size:58.05px;fill:#000000">1.30 (1.14, 1.49)</text>
	<text x="5018.73" y="830.11" style="font-family:'Helvetica';font-size:58.05px;fill:#000000">Ratio (95% CI)</text>
	<text x="5018.73" y="703.75" style="font-family:'Helvetica';font-size:58.05px;fill:#000000">Hazard</text>
	<polygon points="4122.44,1188.27 4159.86,1150.85 4197.29,1188.27 4159.86,1225.69" style="fill:#000000"/>
	<polygon points="4136.10,1188.27 4159.86,1164.51 4183.62,1188.27 4159.86,1212.03" style="fill:none;stroke:#000000;stroke-width:19.32"/>
	<polygon points="4273.10,1314.63 4310.52,1277.21 4347.94,1314.63 4310.52,1352.05" style="fill:#000000"/>
	<polygon points="4286.76,1314.63 4310.52,1290.87 4334.28,1314.63 4310.52,1338.39" style="fill:none;stroke:#000000;stroke-width:19.32"/>
	<polygon points="3973.40,1440.72 4010.83,1403.30 4048.25,1440.72 4010.83,1478.14" style="fill:#000000"/>
	<polygon points="3987.07,1440.72 4010.83,1416.96 4034.58,1440.72 4010.83,1464.48" style="fill:none;stroke:#000000;stroke-width:19.32"/>
	<polygon points="4070.60,1566.81 4108.02,1529.39 4145.45,1566.81 4108.02,1604.23" style="fill:#000000"/>
	<polygon points="4084.26,1566.81 4108.02,1543.05 4131.78,1566.81 4108.02,1590.57" style="fill:none;stroke:#000000;stroke-width:19.32"/>
	<polygon points="4041.44,1693.17 4078.86,1655.75 4116.29,1693.17 4078.86,1730.59" style="fill:#000000"/>
	<polygon points="4055.10,1693.17 4078.86,1669.41 4102.62,1693.17 4078.86,1716.93" style="fill:none;stroke:#000000;stroke-width:19.32"/>
	<polygon points="4042.52,1819.26 4079.94,1781.84 4117.37,1819.26 4079.94,1856.68" style="fill:#000000"/>
	<polygon points="4056.18,1819.26 4079.94,1795.50 4103.70,1819.26 4079.94,1843.02" style="fill:none;stroke:#000000;stroke-width:19.32"/>
	<polygon points="4360.58,1945.35 4398.00,1907.93 4435.42,1945.35 4398.00,1982.77" style="fill:#000000"/>
	<polygon points="4374.24,1945.35 4398.00,1921.59 4421.76,1945.35 4398.00,1969.11" style="fill:none;stroke:#000000;stroke-width:19.32"/>
	<polygon points="4002.02,2071.71 4039.44,2034.29 4076.87,2071.71 4039.44,2109.13" style="fill:#000000"/>
	<polygon points="4015.69,2071.71 4039.44,2047.95 4063.20,2071.71 4039.44,2095.47" style="fill:none;stroke:#000000;stroke-width:19.32"/>
	<polygon points="3935.60,2197.80 3973.03,2160.38 4010.45,2197.80 3973.03,2235.22" style="fill:#000000"/>
	<polygon points="3949.27,2197.80 3973.03,2174.04 3996.79,2197.80 3973.03,2221.56" style="fill:none;stroke:#000000;stroke-width:19.32"/>
	<polygon points="3983.66,2323.89 4021.09,2286.47 4058.51,2323.89 4021.09,2361.31" style="fill:#000000"/>
	<polygon points="3997.33,2323.89 4021.09,2300.13 4044.84,2323.89 4021.09,2347.65" style="fill:none;stroke:#000000;stroke-width:19.32"/>
	<polygon points="4014.17,2450.25 4051.59,2412.83 4089.02,2450.25 4051.59,2487.67" style="fill:#000000"/>
	<polygon points="4027.83,2450.25 4051.59,2426.49 4075.35,2450.25 4051.59,2474.01" style="fill:none;stroke:#000000;stroke-width:19.32"/>
	<polygon points="4122.44,2576.34 4159.86,2538.92 4197.29,2576.34 4159.86,2613.76" style="fill:#000000"/>
	<polygon points="4136.10,2576.34 4159.86,2552.58 4183.62,2576.34 4159.86,2600.10" style="fill:none;stroke:#000000;stroke-width:19.32"/>
	<polygon points="4159.43,2702.43 4196.85,2665.01 4234.28,2702.43 4196.85,2739.85" style="fill:#000000"/>
	<polygon points="4173.09,2702.43 4196.85,2678.67 4220.61,2702.43 4196.85,2726.19" style="fill:none;stroke:#000000;stroke-width:19.32"/>
	<polygon points="4098.14,2828.79 4135.56,2791.37 4172.99,2828.79 4135.56,2866.21" style="fill:#000000"/>
	<polygon points="4111.80,2828.79 4135.56,2805.03 4159.32,2828.79 4135.56,2852.55" style="fill:none;stroke:#000000;stroke-width:19.32"/>
	<polygon points="4215.86,2954.88 4253.28,2917.46 4290.70,2954.88 4253.28,2992.30" style="fill:#000000"/>
	<polygon points="4229.52,2954.88 4253.28,2931.12 4277.04,2954.88 4253.28,2978.64" style="fill:none;stroke:#000000;stroke-width:19.32"/>
	<polygon points="4284.71,3080.97 4322.13,3043.55 4359.55,3080.97 4322.13,3118.39" style="fill:#000000"/>
	<polygon points="4298.37,3080.97 4322.13,3057.21 4345.89,3080.97 4322.13,3104.73" style="fill:none;stroke:#000000;stroke-width:19.32"/>
	<polygon points="4435.10,3207.33 4472.52,3169.91 4509.94,3207.33 4472.52,3244.75" style="fill:#000000"/>
	<polygon points="4448.76,3207.33 4472.52,3183.57 4496.28,3207.33 4472.52,3231.09" style="fill:none;stroke:#000000;stroke-width:19.32"/>
	<polygon points="4257.44,3333.42 4294.86,3296.00 4332.28,3333.42 4294.86,3370.84" style="fill:#000000"/>
	<polygon points="4271.10,3333.42 4294.86,3309.66 4318.62,3333.42 4294.86,3357.18" style="fill:none;stroke:#000000;stroke-width:19.32"/>
	<polygon points="4414.58,3459.51 4452.00,3422.09 4489.42,3459.51 4452.00,3496.93" style="fill:#000000"/>
	<polygon points="4428.24,3459.51 4452.00,3435.75 4475.76,3459.51 4452.00,3483.27" style="fill:none;stroke:#000000;stroke-width:19.32"/>
	<polygon points="4125.41,3585.87 4162.83,3548.45 4200.26,3585.87 4162.83,3623.29" style="fill:#000000"/>
	<polygon points="4139.07,3585.87 4162.83,3562.11 4186.59,3585.87 4162.83,3609.63" style="fill:none;stroke:#000000;stroke-width:19.32"/>
	<polygon points="4259.06,3711.96 4296.48,3674.54 4333.90,3711.96 4296.48,3749.38" style="fill:#000000"/>
	<polygon points="4272.72,3711.96 4296.48,3688.20 4320.24,3711.96 4296.48,3735.72" style="fill:none;stroke:#000000;stroke-width:19.32"/>
	<polygon points="4271.75,3838.05 4309.17,3800.63 4346.59,3838.05 4309.17,3875.47" style="fill:#000000"/>
	<polygon points="4285.41,3838.05 4309.17,3814.29 4332.93,3838.05 4309.17,3861.81" style="fill:none;stroke:#000000;stroke-width:19.32"/>
	<polygon points="4122.44,3964.41 4159.86,3926.99 4197.29,3964.41 4159.86,4001.83" style="fill:#000000"/>
	<polygon points="4136.10,3964.41 4159.86,3940.65 4183.62,3964.41 4159.86,3988.17" style="fill:none;stroke:#000000;stroke-width:19.32"/>
	<polygon points="4140.53,4090.50 4177.95,4053.08 4215.38,4090.50 4177.95,4127.92" style="fill:#000000"/>
	<polygon points="4154.19,4090.50 4177.95,4066.74 4201.71,4090.50 4177.95,4114.26" style="fill:none;stroke:#000000;stroke-width:19.32"/>
	<polygon points="4089.50,4216.59 4126.92,4179.17 4164.35,4216.59 4126.92,4254.01" style="fill:#000000"/>
	<polygon points="4103.16,4216.59 4126.92,4192.83 4150.68,4216.59 4126.92,4240.35" style="fill:none;stroke:#000000;stroke-width:19.32"/>
	<polygon points="4185.35,4342.95 4222.77,4305.53 4260.19,4342.95 4222.77,4380.37" style="fill:#000000"/>
	<polygon points="4199.01,4342.95 4222.77,4319.19 4246.53,4342.95 4222.77,4366.71" style="fill:none;stroke:#000000;stroke-width:19.32"/>
	<polygon points="4205.60,4469.04 4243.02,4431.62 4280.44,4469.04 4243.02,4506.46" style="fill:#000000"/>
	<polygon points="4219.26,4469.04 4243.02,4445.28 4266.78,4469.04 4243.02,4492.80" style="fill:none;stroke:#000000;stroke-width:19.32"/>
	<polygon points="4326.56,4595.13 4363.98,4557.71 4401.40,4595.13 4363.98,4632.55" style="fill:#000000"/>
	<polygon points="4340.22,4595.13 4363.98,4571.37 4387.74,4595.13 4363.98,4618.89" style="fill:none;stroke:#000000;stroke-width:19.32"/>
	<polygon points="4198.04,4721.49 4235.46,4684.07 4272.88,4721.49 4235.46,4758.91" style="fill:#000000"/>
	<polygon points="4211.70,4721.49 4235.46,4697.73 4259.22,4721.49 4235.46,4745.25" style="fill:none;stroke:#000000;stroke-width:19.32"/>
	<polygon points="4330.88,4847.58 4368.30,4810.16 4405.72,4847.58 4368.30,4885.00" style="fill:#000000"/>
	<polygon points="4344.54,4847.58 4368.30,4823.82 4392.06,4847.58 4368.30,4871.34" style="fill:none;stroke:#000000;stroke-width:19.32"/>
	<polygon points="4118.12,4973.67 4155.54,4936.25 4192.97,4973.67 4155.54,5011.09" style="fill:#000000"/>
	<polygon points="4131.78,4973.67 4155.54,4949.91 4179.30,4973.67 4155.54,4997.43" style="fill:none;stroke:#000000;stroke-width:19.32"/>
	<polygon points="4224.23,5100.03 4261.65,5062.61 4299.07,5100.03 4261.65,5137.45" style="fill:#000000"/>
	<polygon points="4237.89,5100.03 4261.65,5076.27 4285.41,5100.03 4261.65,5123.79" style="fill:none;stroke:#000000;stroke-width:19.32"/>
	<polygon points="4233.41,5226.12 4270.83,5188.70 4308.25,5226.12 4270.83,5263.54" style="fill:#000000"/>
	<polygon points="4247.07,5226.12 4270.83,5202.36 4294.59,5226.12 4270.83,5249.88" style="fill:none;stroke:#000000;stroke-width:19.32"/>
	<polygon points="4122.44,5352.48 4159.86,5315.06 4197.29,5352.48 4159.86,5389.90" style="fill:#000000"/>
	<polygon points="4136.10,5352.48 4159.86,5328.72 4183.62,5352.48 4159.86,5376.24" style="fill:none;stroke:#000000;stroke-width:19.32"/>
	<polygon points="4157.54,5478.57 4194.96,5441.15 4232.39,5478.57 4194.96,5515.99" style="fill:#000000"/>
	<polygon points="4171.20,5478.57 4194.96,5454.81 4218.72,5478.57 4194.96,5502.33" style="fill:none;stroke:#000000;stroke-width:19.32"/>
	<polygon points="4114.07,5604.66 4151.49,5567.24 4188.92,5604.66 4151.49,5642.08" style="fill:#000000"/>
	<polygon points="4127.73,5604.66 4151.49,5580.90 4175.25,5604.66 4151.49,5628.42" style="fill:none;stroke:#000000;stroke-width:19.32"/>
	<polygon points="4197.23,5731.02 4234.65,5693.60 4272.07,5731.02 4234.65,5768.44" style="fill:#000000"/>
	<polygon points="4210.89,5731.02 4234.65,5707.26 4258.41,5731.02 4234.65,5754.78" style="fill:none;stroke:#000000;stroke-width:19.32"/>
	<polygon points="4142.96,5857.11 4180.38,5819.69 4217.81,5857.11 4180.38,5894.53" style="fill:#000000"/>
	<polygon points="4156.62,5857.11 4180.38,5833.35 4204.14,5857.11 4180.38,5880.87" style="fill:none;stroke:#000000;stroke-width:19.32"/>
	<polygon points="4259.06,5983.20 4296.48,5945.78 4333.90,5983.20 4296.48,6020.62" style="fill:#000000"/>
	<polygon points="4272.72,5983.20 4296.48,5959.44 4320.24,5983.20 4296.48,6006.96" style="fill:none;stroke:#000000;stroke-width:19.32"/>
	<polygon points="4162.13,6109.56 4199.55,6072.14 4236.98,6109.56 4199.55,6146.98" style="fill:#000000"/>
	<polygon points="4175.79,6109.56 4199.55,6085.80 4223.31,6109.56 4199.55,6133.32" style="fill:none;stroke:#000000;stroke-width:19.32"/>
	<polygon points="4302.53,6235.65 4339.95,6198.23 4377.37,6235.65 4339.95,6273.07" style="fill:#000000"/>
	<polygon points="4316.19,6235.65 4339.95,6211.89 4363.71,6235.65 4339.95,6259.41" style="fill:none;stroke:#000000;stroke-width:19.32"/>
	<polygon points="4167.26,6361.74 4204.68,6324.32 4242.11,6361.74 4204.68,6399.16" style="fill:#000000"/>
	<polygon points="4180.92,6361.74 4204.68,6337.98 4228.44,6361.74 4204.68,6385.50" style="fill:none;stroke:#000000;stroke-width:19.32"/>
	<polygon points="4231.79,6488.10 4269.21,6450.68 4306.63,6488.10 4269.21,6525.52" style="fill:#000000"/>
	<polygon points="4245.45,6488.10 4269.21,6464.34 4292.97,6488.10 4269.21,6511.86" style="fill:none;stroke:#000000;stroke-width:19.32"/>
	<polygon points="4256.09,6614.19 4293.51,6576.77 4330.93,6614.19 4293.51,6651.61" style="fill:#000000"/>
	<polygon points="4269.75,6614.19 4293.51,6590.43 4317.27,6614.19 4293.51,6637.95" style="fill:none;stroke:#000000;stroke-width:19.32"/>
	<polygon points="4122.44,6740.28 4159.86,6702.86 4197.29,6740.28 4159.86,6777.70" style="fill:#000000"/>
	<polygon points="4136.10,6740.28 4159.86,6716.52 4183.62,6740.28 4159.86,6764.04" style="fill:none;stroke:#000000;stroke-width:19.32"/>
	<polygon points="4152.68,6866.64 4190.10,6829.22 4227.53,6866.64 4190.10,6904.06" style="fill:#000000"/>
	<polygon points="4166.34,6866.64 4190.10,6842.88 4213.86,6866.64 4190.10,6890.40" style="fill:none;stroke:#000000;stroke-width:19.32"/>
	<polygon points="4109.21,6992.73 4146.63,6955.31 4184.06,6992.73 4146.63,7030.15" style="fill:#000000"/>
	<polygon points="4122.87,6992.73 4146.63,6968.97 4170.39,6992.73 4146.63,7016.49" style="fill:none;stroke:#000000;stroke-width:19.32"/>
	<polygon points="4137.56,7118.82 4174.98,7081.40 4212.41,7118.82 4174.98,7156.24" style="fill:#000000"/>
	<polygon points="4151.22,7118.82 4174.98,7095.06 4198.74,7118.82 4174.98,7142.58" style="fill:none;stroke:#000000;stroke-width:19.32"/>
	<polygon points="4051.16,7245.18 4088.58,7207.76 4126.01,7245.18 4088.58,7282.60" style="fill:#000000"/>
	<polygon points="4064.82,7245.18 4088.58,7221.42 4112.34,7245.18 4088.58,7268.94" style="fill:none;stroke:#000000;stroke-width:19.32"/>
	<polygon points="4125.68,7371.27 4163.10,7333.85 4200.53,7371.27 4163.10,7408.69" style="fill:#000000"/>
	<polygon points="4139.34,7371.27 4163.10,7347.51 4186.86,7371.27 4163.10,7395.03" style="fill:none;stroke:#000000;stroke-width:19.32"/>
	<polygon points="4168.07,7497.36 4205.49,7459.94 4242.92,7497.36 4205.49,7534.78" style="fill:#000000"/>
	<polygon points="4181.73,7497.36 4205.49,7473.60 4229.25,7497.36 4205.49,7521.12" style="fill:none;stroke:#000000;stroke-width:19.32"/>
	<polygon points="4247.72,7623.72 4285.14,7586.30 4322.56,7623.72 4285.14,7661.14" style="fill:#000000"/>
	<polygon points="4261.38,7623.72 4285.14,7599.96 4308.90,7623.72 4285.14,7647.48" style="fill:none;stroke:#000000;stroke-width:19.32"/>
	<polygon points="4140.53,7749.81 4177.95,7712.39 4215.38,7749.81 4177.95,7787.23" style="fill:#000000"/>
	<polygon points="4154.19,7749.81 4177.95,7726.05 4201.71,7749.81 4177.95,7773.57" style="fill:none;stroke:#000000;stroke-width:19.32"/>
	<polygon points="4216.94,7875.90 4254.36,7838.48 4291.78,7875.90 4254.36,7913.32" style="fill:#000000"/>
	<polygon points="4230.60,7875.90 4254.36,7852.14 4278.12,7875.90 4254.36,7899.66" style="fill:none;stroke:#000000;stroke-width:19.32"/>
	<polygon points="4199.66,8002.26 4237.08,7964.84 4274.50,8002.26 4237.08,8039.68" style="fill:#000000"/>
	<polygon points="4213.32,8002.26 4237.08,7978.50 4260.84,8002.26 4237.08,8026.02" style="fill:none;stroke:#000000;stroke-width:19.32"/>
	<line x1="340.47" y1="8380.53" x2="6166.76" y2="8380.53" style="stroke:#000000;stroke-width:12.88"/>
	<text x="3522.94" y="8465.85" style="font-family:'Helvetica';font-size:58.05px;fill:#000000" text-anchor="middle"> </text>
	<text x="4542.45" y="8465.85" style="font-family:'Helvetica';font-size:58.05px;fill:#000000" text-anchor="middle"> </text>
	<line x1="4160.13" y1="8380.53" x2="4160.13" y2="8469.90" style="stroke:#000000;stroke-width:12.88"/>
	<text x="4160.13" y="8555.22" style="font-family:'Helvetica';font-size:58.05px;fill:#000000" text-anchor="middle">1</text>
	<line x1="3968.98" y1="8380.53" x2="3968.98" y2="8469.90" style="stroke:#000000;stroke-width:12.88"/>
	<text x="3968.98" y="8555.22" style="font-family:'Helvetica';font-size:58.05px;fill:#000000" text-anchor="middle">.25</text>
	<line x1="4032.69" y1="8380.53" x2="4032.69" y2="8469.90" style="stroke:#000000;stroke-width:12.88"/>
	<text x="4032.69" y="8555.22" style="font-family:'Helvetica';font-size:58.05px;fill:#000000" text-anchor="middle">.5</text>
	<line x1="4160.13" y1="8380.53" x2="4160.13" y2="8469.90" style="stroke:#000000;stroke-width:12.88"/>
	<text x="4160.13" y="8555.22" style="font-family:'Helvetica';font-size:58.05px;fill:#000000" text-anchor="middle">1</text>
	<line x1="4415.01" y1="8380.53" x2="4415.01" y2="8469.90" style="stroke:#000000;stroke-width:12.88"/>
	<text x="4415.01" y="8555.22" style="font-family:'Helvetica';font-size:58.05px;fill:#000000" text-anchor="middle">2</text>
	<line x1="4924.77" y1="8380.53" x2="4924.77" y2="8469.90" style="stroke:#000000;stroke-width:12.88"/>
	<text x="4924.77" y="8555.22" style="font-family:'Helvetica';font-size:58.05px;fill:#000000" text-anchor="middle">4</text>
	<line x1="4160.13" y1="8380.53" x2="4160.13" y2="8469.90" style="stroke:#000000;stroke-width:12.88"/>
	<text x="3253.48" y="464.91" style="font-family:'Helvetica';font-size:178.74px;fill:#000000" text-anchor="middle">complete case analysis</text>
	<text x="3253.48" y="195.24" style="font-family:'Helvetica';font-size:223.56px;fill:#000000" text-anchor="middle">onscoviddeath</text>
</svg>
