<?xml version="1.0" encoding="UTF-8" standalone="no"?>
<!-- This is a Stata 16.1 generated SVG file (http://www.stata.com) -->

<svg version="1.1" width="11.48in" height="11.89in" viewBox="0 0 8267 8564" xmlns="http://www.w3.org/2000/svg" xmlns:xlink="http://www.w3.org/1999/xlink">
	<desc>Stata Graph - Graph</desc>
	<rect x="0" y="0" width="8267" height="8564" style="fill:#F0F0F0;stroke:none"/>
	<rect x="0.00" y="0.00" width="8267.00" height="8564.00" style="fill:#FFFFFF"/>
	<rect x="8.27" y="8.27" width="8250.47" height="8547.47" style="fill:none;stroke:#FFFFFF;stroke-width:16.53"/>
	<rect x="439.71" y="715.09" width="7473.75" height="7408.40" style="fill:#FFFFFF"/>
	<rect x="447.98" y="723.36" width="7457.22" height="7391.86" style="fill:none;stroke:#FFFFFF;stroke-width:16.53"/>
	<line x1="439.71" y1="1467.66" x2="7913.46" y2="1467.66" style="stroke:#C0C0C0;stroke-width:16.53"/>
	<text x="560.14" y="7839.97" style="font-family:'Helvetica';font-size:182.25px;fill:#000000">NOTE: Weights are from random effects analysis</text>
	<line x1="5043.16" y1="8123.49" x2="5043.16" y2="1467.66" style="stroke:#000000;stroke-width:16.53"/>
	<text x="560.14" y="7724.35" style="font-family:'Helvetica';font-size:182.25px;fill:#000000">.</text>
	<line x1="5043.16" y1="1872.57" x2="5043.16" y2="1872.57" style="stroke:#000000;stroke-width:24.80"/>
	<line x1="4952.71" y1="2104.07" x2="4990.71" y2="2104.07" style="stroke:#000000;stroke-width:24.80"/>
	<line x1="4993.12" y1="2335.83" x2="5064.04" y2="2335.83" style="stroke:#000000;stroke-width:24.80"/>
	<line x1="4840.57" y1="2567.33" x2="4911.22" y2="2567.33" style="stroke:#000000;stroke-width:24.80"/>
	<line x1="4837.89" y1="2798.82" x2="4887.41" y2="2798.82" style="stroke:#000000;stroke-width:24.80"/>
	<line x1="5043.16" y1="3030.32" x2="5043.16" y2="3030.32" style="stroke:#000000;stroke-width:24.80"/>
	<line x1="5187.68" y1="3261.81" x2="5268.51" y2="3261.81" style="stroke:#000000;stroke-width:24.80"/>
	<line x1="5225.95" y1="3493.31" x2="5361.91" y2="3493.31" style="stroke:#000000;stroke-width:24.80"/>
	<line x1="5110.34" y1="3724.80" x2="5336.75" y2="3724.80" style="stroke:#000000;stroke-width:24.80"/>
	<line x1="5063.77" y1="3956.30" x2="5207.76" y2="3956.30" style="stroke:#000000;stroke-width:24.80"/>
	<line x1="5043.16" y1="4187.80" x2="5043.16" y2="4187.80" style="stroke:#000000;stroke-width:24.80"/>
	<line x1="5132.02" y1="4419.29" x2="5203.74" y2="4419.29" style="stroke:#000000;stroke-width:24.80"/>
	<line x1="5149.14" y1="4650.79" x2="5265.56" y2="4650.79" style="stroke:#000000;stroke-width:24.80"/>
	<line x1="5076.62" y1="4882.28" x2="5284.03" y2="4882.28" style="stroke:#000000;stroke-width:24.80"/>
	<line x1="5041.29" y1="5113.78" x2="5176.71" y2="5113.78" style="stroke:#000000;stroke-width:24.80"/>
	<line x1="5043.16" y1="5345.27" x2="5043.16" y2="5345.27" style="stroke:#000000;stroke-width:24.80"/>
	<line x1="5103.65" y1="5576.77" x2="5178.85" y2="5576.77" style="stroke:#000000;stroke-width:24.80"/>
	<line x1="5086.25" y1="5808.27" x2="5198.66" y2="5808.27" style="stroke:#000000;stroke-width:24.80"/>
	<line x1="5061.36" y1="6039.76" x2="5284.83" y2="6039.76" style="stroke:#000000;stroke-width:24.80"/>
	<line x1="5047.98" y1="6271.52" x2="5206.42" y2="6271.52" style="stroke:#000000;stroke-width:24.80"/>
	<line x1="5043.16" y1="6503.02" x2="5043.16" y2="6503.02" style="stroke:#000000;stroke-width:24.80"/>
	<line x1="5008.11" y1="6734.52" x2="5067.52" y2="6734.52" style="stroke:#000000;stroke-width:24.80"/>
	<line x1="5076.08" y1="6966.01" x2="5185.81" y2="6966.01" style="stroke:#000000;stroke-width:24.80"/>
	<line x1="5046.64" y1="7197.51" x2="5261.01" y2="7197.51" style="stroke:#000000;stroke-width:24.80"/>
	<line x1="5012.92" y1="7429.00" x2="5154.76" y2="7429.00" style="stroke:#000000;stroke-width:24.80"/>
	<text x="560.14" y="1704.93" style="font-family:'Helvetica';font-size:182.25px;fill:#000000">onscoviddeath</text>
	<text x="560.14" y="1936.43" style="font-family:'Helvetica';font-size:182.25px;fill:#000000">Crude</text>
	<text x="560.14" y="3094.17" style="font-family:'Helvetica';font-size:182.25px;fill:#000000">Age-sex</text>
	<text x="560.14" y="4251.65" style="font-family:'Helvetica';font-size:182.25px;fill:#000000">Age-sex-IMD</text>
	<text x="560.14" y="5409.13" style="font-family:'Helvetica';font-size:182.25px;fill:#000000">+ co-morbidities</text>
	<text x="560.14" y="6566.88" style="font-family:'Helvetica';font-size:182.25px;fill:#000000">+ household size</text>
	<text x="560.14" y="1241.94" style="font-family:'Helvetica';font-size:182.25px;fill:#000000">adjusted</text>
	<text x="2260.38" y="1936.43" style="font-family:'Helvetica';font-size:182.25px;fill:#000000">White</text>
	<text x="2260.38" y="2167.92" style="font-family:'Helvetica';font-size:182.25px;fill:#000000">South Asian</text>
	<text x="2260.38" y="2399.69" style="font-family:'Helvetica';font-size:182.25px;fill:#000000">Black</text>
	<text x="2260.38" y="2631.18" style="font-family:'Helvetica';font-size:182.25px;fill:#000000">Mixed</text>
	<text x="2260.38" y="2862.68" style="font-family:'Helvetica';font-size:182.25px;fill:#000000">Other</text>
	<text x="2260.38" y="3094.17" style="font-family:'Helvetica';font-size:182.25px;fill:#000000">White</text>
	<text x="2260.38" y="3325.67" style="font-family:'Helvetica';font-size:182.25px;fill:#000000">South Asian</text>
	<text x="2260.38" y="3557.16" style="font-family:'Helvetica';font-size:182.25px;fill:#000000">Black</text>
	<text x="2260.38" y="3788.66" style="font-family:'Helvetica';font-size:182.25px;fill:#000000">Mixed</text>
	<text x="2260.38" y="4020.16" style="font-family:'Helvetica';font-size:182.25px;fill:#000000">Other</text>
	<text x="2260.38" y="4251.65" style="font-family:'Helvetica';font-size:182.25px;fill:#000000">White</text>
	<text x="2260.38" y="4483.15" style="font-family:'Helvetica';font-size:182.25px;fill:#000000">South Asian</text>
	<text x="2260.38" y="4714.64" style="font-family:'Helvetica';font-size:182.25px;fill:#000000">Black</text>
	<text x="2260.38" y="4946.14" style="font-family:'Helvetica';font-size:182.25px;fill:#000000">Mixed</text>
	<text x="2260.38" y="5177.63" style="font-family:'Helvetica';font-size:182.25px;fill:#000000">Other</text>
	<text x="2260.38" y="5409.13" style="font-family:'Helvetica';font-size:182.25px;fill:#000000">White</text>
	<text x="2260.38" y="5640.63" style="font-family:'Helvetica';font-size:182.25px;fill:#000000">South Asian</text>
	<text x="2260.38" y="5872.12" style="font-family:'Helvetica';font-size:182.25px;fill:#000000">Black</text>
	<text x="2260.38" y="6103.62" style="font-family:'Helvetica';font-size:182.25px;fill:#000000">Mixed</text>
	<text x="2260.38" y="6335.38" style="font-family:'Helvetica';font-size:182.25px;fill:#000000">Other</text>
	<text x="2260.38" y="6566.88" style="font-family:'Helvetica';font-size:182.25px;fill:#000000">White</text>
	<text x="2260.38" y="6798.37" style="font-family:'Helvetica';font-size:182.25px;fill:#000000">South Asian</text>
	<text x="2260.38" y="7029.87" style="font-family:'Helvetica';font-size:182.25px;fill:#000000">Black</text>
	<text x="2260.38" y="7261.36" style="font-family:'Helvetica';font-size:182.25px;fill:#000000">Mixed</text>
	<text x="2260.38" y="7492.86" style="font-family:'Helvetica';font-size:182.25px;fill:#000000">Other</text>
	<text x="2260.38" y="1241.94" style="font-family:'Helvetica';font-size:182.25px;fill:#000000">eth5</text>
	<text x="6144.72" y="1936.43" style="font-family:'Helvetica';font-size:182.25px;fill:#000000">1.00 (1.00, 1.00)</text>
	<text x="6144.72" y="2167.92" style="font-family:'Helvetica';font-size:182.25px;fill:#000000">0.78 (0.72, 0.84)</text>
	<text x="6144.72" y="2399.69" style="font-family:'Helvetica';font-size:182.25px;fill:#000000">0.95 (0.85, 1.06)</text>
	<text x="6144.72" y="2631.18" style="font-family:'Helvetica';font-size:182.25px;fill:#000000">0.48 (0.38, 0.60)</text>
	<text x="6144.72" y="2862.68" style="font-family:'Helvetica';font-size:182.25px;fill:#000000">0.44 (0.37, 0.52)</text>
	<text x="6144.72" y="3094.17" style="font-family:'Helvetica';font-size:182.25px;fill:#000000">1.00 (1.00, 1.00)</text>
	<text x="6144.72" y="3325.67" style="font-family:'Helvetica';font-size:182.25px;fill:#000000">1.56 (1.44, 1.69)</text>
	<text x="6144.72" y="3557.16" style="font-family:'Helvetica';font-size:182.25px;fill:#000000">1.75 (1.56, 1.98)</text>
	<text x="6144.72" y="3788.66" style="font-family:'Helvetica';font-size:182.25px;fill:#000000">1.51 (1.20, 1.90)</text>
	<text x="6144.72" y="4020.16" style="font-family:'Helvetica';font-size:182.25px;fill:#000000">1.26 (1.06, 1.50)</text>
	<text x="6144.72" y="4251.65" style="font-family:'Helvetica';font-size:182.25px;fill:#000000">1.00 (1.00, 1.00)</text>
	<text x="6144.72" y="4483.15" style="font-family:'Helvetica';font-size:182.25px;fill:#000000">1.38 (1.27, 1.49)</text>
	<text x="6144.72" y="4714.64" style="font-family:'Helvetica';font-size:182.25px;fill:#000000">1.49 (1.32, 1.68)</text>
	<text x="6144.72" y="4946.14" style="font-family:'Helvetica';font-size:182.25px;fill:#000000">1.38 (1.10, 1.74)</text>
	<text x="6144.72" y="5177.63" style="font-family:'Helvetica';font-size:182.25px;fill:#000000">1.18 (0.99, 1.41)</text>
	<text x="6144.72" y="5409.13" style="font-family:'Helvetica';font-size:182.25px;fill:#000000">1.00 (1.00, 1.00)</text>
	<text x="6144.72" y="5640.63" style="font-family:'Helvetica';font-size:182.25px;fill:#000000">1.29 (1.18, 1.41)</text>
	<text x="6144.72" y="5872.12" style="font-family:'Helvetica';font-size:182.25px;fill:#000000">1.29 (1.13, 1.48)</text>
	<text x="6144.72" y="6103.62" style="font-family:'Helvetica';font-size:182.25px;fill:#000000">1.35 (1.06, 1.74)</text>
	<text x="6144.72" y="6335.38" style="font-family:'Helvetica';font-size:182.25px;fill:#000000">1.23 (1.01, 1.50)</text>
	<text x="6144.72" y="6566.88" style="font-family:'Helvetica';font-size:182.25px;fill:#000000">1.00 (1.00, 1.00)</text>
	<text x="6144.72" y="6798.37" style="font-family:'Helvetica';font-size:182.25px;fill:#000000">0.98 (0.89, 1.07)</text>
	<text x="6144.72" y="7029.87" style="font-family:'Helvetica';font-size:182.25px;fill:#000000">1.26 (1.10, 1.44)</text>
	<text x="6144.72" y="7261.36" style="font-family:'Helvetica';font-size:182.25px;fill:#000000">1.30 (1.01, 1.67)</text>
	<text x="6144.72" y="7492.86" style="font-family:'Helvetica';font-size:182.25px;fill:#000000">1.10 (0.91, 1.34)</text>
	<text x="6144.72" y="1241.94" style="font-family:'Helvetica';font-size:182.25px;fill:#000000">Ratio (95% CI)</text>
	<text x="6144.72" y="1010.44" style="font-family:'Helvetica';font-size:182.25px;fill:#000000">Hazard</text>
	<text x="6144.72" y="1936.43" style="font-family:'Helvetica';font-size:182.25px;fill:#000000">1.00 (1.00, 1.00)</text>
	<text x="6144.72" y="2167.92" style="font-family:'Helvetica';font-size:182.25px;fill:#000000">0.78 (0.72, 0.84)</text>
	<text x="6144.72" y="2399.69" style="font-family:'Helvetica';font-size:182.25px;fill:#000000">0.95 (0.85, 1.06)</text>
	<text x="6144.72" y="2631.18" style="font-family:'Helvetica';font-size:182.25px;fill:#000000">0.48 (0.38, 0.60)</text>
	<text x="6144.72" y="2862.68" style="font-family:'Helvetica';font-size:182.25px;fill:#000000">0.44 (0.37, 0.52)</text>
	<text x="6144.72" y="3094.17" style="font-family:'Helvetica';font-size:182.25px;fill:#000000">1.00 (1.00, 1.00)</text>
	<text x="6144.72" y="3325.67" style="font-family:'Helvetica';font-size:182.25px;fill:#000000">1.56 (1.44, 1.69)</text>
	<text x="6144.72" y="3557.16" style="font-family:'Helvetica';font-size:182.25px;fill:#000000">1.75 (1.56, 1.98)</text>
	<text x="6144.72" y="3788.66" style="font-family:'Helvetica';font-size:182.25px;fill:#000000">1.51 (1.20, 1.90)</text>
	<text x="6144.72" y="4020.16" style="font-family:'Helvetica';font-size:182.25px;fill:#000000">1.26 (1.06, 1.50)</text>
	<text x="6144.72" y="4251.65" style="font-family:'Helvetica';font-size:182.25px;fill:#000000">1.00 (1.00, 1.00)</text>
	<text x="6144.72" y="4483.15" style="font-family:'Helvetica';font-size:182.25px;fill:#000000">1.38 (1.27, 1.49)</text>
	<text x="6144.72" y="4714.64" style="font-family:'Helvetica';font-size:182.25px;fill:#000000">1.49 (1.32, 1.68)</text>
	<text x="6144.72" y="4946.14" style="font-family:'Helvetica';font-size:182.25px;fill:#000000">1.38 (1.10, 1.74)</text>
	<text x="6144.72" y="5177.63" style="font-family:'Helvetica';font-size:182.25px;fill:#000000">1.18 (0.99, 1.41)</text>
	<text x="6144.72" y="5409.13" style="font-family:'Helvetica';font-size:182.25px;fill:#000000">1.00 (1.00, 1.00)</text>
	<text x="6144.72" y="5640.63" style="font-family:'Helvetica';font-size:182.25px;fill:#000000">1.29 (1.18, 1.41)</text>
	<text x="6144.72" y="5872.12" style="font-family:'Helvetica';font-size:182.25px;fill:#000000">1.29 (1.13, 1.48)</text>
	<text x="6144.72" y="6103.62" style="font-family:'Helvetica';font-size:182.25px;fill:#000000">1.35 (1.06, 1.74)</text>
	<text x="6144.72" y="6335.38" style="font-family:'Helvetica';font-size:182.25px;fill:#000000">1.23 (1.01, 1.50)</text>
	<text x="6144.72" y="6566.88" style="font-family:'Helvetica';font-size:182.25px;fill:#000000">1.00 (1.00, 1.00)</text>
	<text x="6144.72" y="6798.37" style="font-family:'Helvetica';font-size:182.25px;fill:#000000">0.98 (0.89, 1.07)</text>
	<text x="6144.72" y="7029.87" style="font-family:'Helvetica';font-size:182.25px;fill:#000000">1.26 (1.10, 1.44)</text>
	<text x="6144.72" y="7261.36" style="font-family:'Helvetica';font-size:182.25px;fill:#000000">1.30 (1.01, 1.67)</text>
	<text x="6144.72" y="7492.86" style="font-family:'Helvetica';font-size:182.25px;fill:#000000">1.10 (0.91, 1.34)</text>
	<text x="6144.72" y="1241.94" style="font-family:'Helvetica';font-size:182.25px;fill:#000000">Ratio (95% CI)</text>
	<text x="6144.72" y="1010.44" style="font-family:'Helvetica';font-size:182.25px;fill:#000000">Hazard</text>
	<polygon points="4995.39,1872.84 5043.16,1825.06 5090.94,1872.84 5043.16,1920.62" style="fill:#000000"/>
	<polygon points="5012.92,1872.84 5043.16,1842.60 5073.41,1872.84 5043.16,1903.08" style="fill:none;stroke:#000000;stroke-width:24.80"/>
	<polygon points="4923.13,2104.34 4970.91,2056.56 5018.68,2104.34 4970.91,2152.11" style="fill:#000000"/>
	<polygon points="4940.66,2104.34 4970.91,2074.09 5001.15,2104.34 4970.91,2134.58" style="fill:none;stroke:#000000;stroke-width:24.80"/>
	<polygon points="4978.53,2335.83 5026.30,2288.05 5074.08,2335.83 5026.30,2383.61" style="fill:#000000"/>
	<polygon points="4996.06,2335.83 5026.30,2305.59 5056.55,2335.83 5026.30,2366.07" style="fill:none;stroke:#000000;stroke-width:24.80"/>
	<polygon points="4824.10,2567.33 4871.88,2519.55 4919.66,2567.33 4871.88,2615.11" style="fill:#000000"/>
	<polygon points="4841.64,2567.33 4871.88,2537.08 4902.12,2567.33 4871.88,2597.57" style="fill:none;stroke:#000000;stroke-width:24.80"/>
	<polygon points="4812.60,2798.82 4860.38,2751.04 4908.15,2798.82 4860.38,2846.60" style="fill:#000000"/>
	<polygon points="4830.13,2798.82 4860.38,2768.58 4890.62,2798.82 4860.38,2829.06" style="fill:none;stroke:#000000;stroke-width:24.80"/>
	<polygon points="4995.39,3030.32 5043.16,2982.54 5090.94,3030.32 5043.16,3078.10" style="fill:#000000"/>
	<polygon points="5012.92,3030.32 5043.16,3000.08 5073.41,3030.32 5043.16,3060.56" style="fill:none;stroke:#000000;stroke-width:24.80"/>
	<polygon points="5178.71,3261.81 5226.49,3214.03 5274.27,3261.81 5226.49,3309.59" style="fill:#000000"/>
	<polygon points="5196.25,3261.81 5226.49,3231.57 5256.73,3261.81 5226.49,3292.06" style="fill:none;stroke:#000000;stroke-width:24.80"/>
	<polygon points="5242.14,3493.31 5289.92,3445.53 5337.70,3493.31 5289.92,3541.09" style="fill:#000000"/>
	<polygon points="5259.67,3493.31 5289.92,3463.07 5320.16,3493.31 5289.92,3523.55" style="fill:none;stroke:#000000;stroke-width:24.80"/>
	<polygon points="5162.65,3724.80 5210.43,3677.03 5258.21,3724.80 5210.43,3772.58" style="fill:#000000"/>
	<polygon points="5180.19,3724.80 5210.43,3694.56 5240.67,3724.80 5210.43,3755.05" style="fill:none;stroke:#000000;stroke-width:24.80"/>
	<polygon points="5081.56,3956.30 5129.34,3908.52 5177.12,3956.30 5129.34,4004.08" style="fill:#000000"/>
	<polygon points="5099.10,3956.30 5129.34,3926.06 5159.58,3956.30 5129.34,3986.54" style="fill:none;stroke:#000000;stroke-width:24.80"/>
	<polygon points="4995.39,4188.06 5043.16,4140.28 5090.94,4188.06 5043.16,4235.84" style="fill:#000000"/>
	<polygon points="5012.92,4188.06 5043.16,4157.82 5073.41,4188.06 5043.16,4218.31" style="fill:none;stroke:#000000;stroke-width:24.80"/>
	<polygon points="5118.49,4419.56 5166.27,4371.78 5214.05,4419.56 5166.27,4467.34" style="fill:#000000"/>
	<polygon points="5136.03,4419.56 5166.27,4389.32 5196.51,4419.56 5166.27,4449.80" style="fill:none;stroke:#000000;stroke-width:24.80"/>
	<polygon points="5155.96,4651.05 5203.74,4603.28 5251.52,4651.05 5203.74,4698.83" style="fill:#000000"/>
	<polygon points="5173.50,4651.05 5203.74,4620.81 5233.98,4651.05 5203.74,4681.30" style="fill:none;stroke:#000000;stroke-width:24.80"/>
	<polygon points="5120.90,4882.55 5168.68,4834.77 5216.46,4882.55 5168.68,4930.33" style="fill:#000000"/>
	<polygon points="5138.44,4882.55 5168.68,4852.31 5198.92,4882.55 5168.68,4912.79" style="fill:none;stroke:#000000;stroke-width:24.80"/>
	<polygon points="5055.07,5114.05 5102.85,5066.27 5150.62,5114.05 5102.85,5161.82" style="fill:#000000"/>
	<polygon points="5072.60,5114.05 5102.85,5083.80 5133.09,5114.05 5102.85,5144.29" style="fill:none;stroke:#000000;stroke-width:24.80"/>
	<polygon points="4995.39,5345.54 5043.16,5297.76 5090.94,5345.54 5043.16,5393.32" style="fill:#000000"/>
	<polygon points="5012.92,5345.54 5043.16,5315.30 5073.41,5345.54 5043.16,5375.78" style="fill:none;stroke:#000000;stroke-width:24.80"/>
	<polygon points="5091.73,5577.04 5139.51,5529.26 5187.29,5577.04 5139.51,5624.82" style="fill:#000000"/>
	<polygon points="5109.27,5577.04 5139.51,5546.80 5169.75,5577.04 5139.51,5607.28" style="fill:none;stroke:#000000;stroke-width:24.80"/>
	<polygon points="5090.93,5808.53 5138.71,5760.75 5186.49,5808.53 5138.71,5856.31" style="fill:#000000"/>
	<polygon points="5108.47,5808.53 5138.71,5778.29 5168.95,5808.53 5138.71,5838.77" style="fill:none;stroke:#000000;stroke-width:24.80"/>
	<polygon points="5111.27,6040.03 5159.05,5992.25 5206.83,6040.03 5159.05,6087.81" style="fill:#000000"/>
	<polygon points="5128.81,6040.03 5159.05,6009.79 5189.29,6040.03 5159.05,6070.27" style="fill:none;stroke:#000000;stroke-width:24.80"/>
	<polygon points="5071.66,6271.52 5119.44,6223.75 5167.22,6271.52 5119.44,6319.30" style="fill:#000000"/>
	<polygon points="5089.20,6271.52 5119.44,6241.28 5149.68,6271.52 5119.44,6301.77" style="fill:none;stroke:#000000;stroke-width:24.80"/>
	<polygon points="4995.39,6503.02 5043.16,6455.24 5090.94,6503.02 5043.16,6550.80" style="fill:#000000"/>
	<polygon points="5012.92,6503.02 5043.16,6472.78 5073.41,6503.02 5043.16,6533.26" style="fill:none;stroke:#000000;stroke-width:24.80"/>
	<polygon points="4988.43,6734.52 5036.21,6686.74 5083.98,6734.52 5036.21,6782.29" style="fill:#000000"/>
	<polygon points="5005.96,6734.52 5036.21,6704.27 5066.45,6734.52 5036.21,6764.76" style="fill:none;stroke:#000000;stroke-width:24.80"/>
	<polygon points="5079.42,6966.01 5127.20,6918.23 5174.98,6966.01 5127.20,7013.79" style="fill:#000000"/>
	<polygon points="5096.96,6966.01 5127.20,6935.77 5157.44,6966.01 5127.20,6996.25" style="fill:none;stroke:#000000;stroke-width:24.80"/>
	<polygon points="5092.53,7197.51 5140.31,7149.73 5188.09,7197.51 5140.31,7245.29" style="fill:#000000"/>
	<polygon points="5110.07,7197.51 5140.31,7167.26 5170.55,7197.51 5140.31,7227.75" style="fill:none;stroke:#000000;stroke-width:24.80"/>
	<polygon points="5029.11,7429.00 5076.89,7381.22 5124.66,7429.00 5076.89,7476.78" style="fill:#000000"/>
	<polygon points="5046.64,7429.00 5076.89,7398.76 5107.13,7429.00 5076.89,7459.24" style="fill:none;stroke:#000000;stroke-width:24.80"/>
	<line x1="439.71" y1="8123.49" x2="7913.46" y2="8123.49" style="stroke:#000000;stroke-width:16.53"/>
	<text x="4225.83" y="8308.20" style="font-family:'Helvetica';font-size:182.25px;fill:#000000" text-anchor="middle"> </text>
	<text x="5533.72" y="8308.20" style="font-family:'Helvetica';font-size:182.25px;fill:#000000" text-anchor="middle"> </text>
	<line x1="5043.16" y1="8123.49" x2="5043.16" y2="8238.30" style="stroke:#000000;stroke-width:16.53"/>
	<text x="5043.16" y="8423.02" style="font-family:'Helvetica';font-size:182.25px;fill:#000000" text-anchor="middle">1</text>
	<line x1="4798.02" y1="8123.49" x2="4798.02" y2="8238.30" style="stroke:#000000;stroke-width:16.53"/>
	<text x="4798.02" y="8423.02" style="font-family:'Helvetica';font-size:182.25px;fill:#000000" text-anchor="middle">.25</text>
	<line x1="4879.64" y1="8123.49" x2="4879.64" y2="8238.30" style="stroke:#000000;stroke-width:16.53"/>
	<text x="4879.64" y="8423.02" style="font-family:'Helvetica';font-size:182.25px;fill:#000000" text-anchor="middle">.5</text>
	<line x1="5043.16" y1="8123.49" x2="5043.16" y2="8238.30" style="stroke:#000000;stroke-width:16.53"/>
	<text x="5043.16" y="8423.02" style="font-family:'Helvetica';font-size:182.25px;fill:#000000" text-anchor="middle">1</text>
	<line x1="5370.20" y1="8123.49" x2="5370.20" y2="8238.30" style="stroke:#000000;stroke-width:16.53"/>
	<text x="5370.20" y="8423.02" style="font-family:'Helvetica';font-size:182.25px;fill:#000000" text-anchor="middle">2</text>
	<line x1="6024.29" y1="8123.49" x2="6024.29" y2="8238.30" style="stroke:#000000;stroke-width:16.53"/>
	<text x="6024.29" y="8423.02" style="font-family:'Helvetica';font-size:182.25px;fill:#000000" text-anchor="middle">4</text>
	<line x1="5043.16" y1="8123.49" x2="5043.16" y2="8238.30" style="stroke:#000000;stroke-width:16.53"/>
	<text x="4176.59" y="596.56" style="font-family:'Helvetica';font-size:229.62px;fill:#000000" text-anchor="middle">complete case analysis</text>
	<text x="4176.59" y="250.39" style="font-family:'Helvetica';font-size:287.16px;fill:#000000" text-anchor="middle">onscoviddeath</text>
</svg>
