<?xml version="1.0" encoding="UTF-8" standalone="no"?>
<!-- This is a Stata 16.1 generated SVG file (http://www.stata.com) -->

<svg version="1.1" width="5.50in" height="4.00in" viewBox="0 0 3960 2880" xmlns="http://www.w3.org/2000/svg" xmlns:xlink="http://www.w3.org/1999/xlink">
	<desc>Stata Graph - Graph</desc>
	<rect x="0" y="0" width="3960" height="2880" style="fill:#EAF2F3;stroke:none"/>
	<rect x="0.00" y="0.00" width="3959.88" height="2880.00" style="fill:#EAF2F3"/>
	<rect x="2.88" y="2.88" width="3954.12" height="2874.24" style="fill:none;stroke:#EAF2F3;stroke-width:5.76"/>
	<rect x="197.88" y="182.78" width="924.66" height="776.06" style="fill:#EAF2F3"/>
	<rect x="199.38" y="184.28" width="921.66" height="773.06" style="fill:none;stroke:#EAF2F3;stroke-width:3.00"/>
	<rect x="439.31" y="320.40" width="632.86" height="453.06" style="fill:#FFFFFF"/>
	<rect x="440.81" y="321.90" width="629.86" height="450.06" style="fill:none;stroke:#FFFFFF;stroke-width:3.00"/>
	<line x1="439.31" y1="741.78" x2="1072.17" y2="741.78" style="stroke:#EAF2F3;stroke-width:4.32"/>
	<line x1="439.31" y1="737.82" x2="1072.17" y2="737.82" style="stroke:#EAF2F3;stroke-width:4.32"/>
	<line x1="439.31" y1="733.86" x2="1072.17" y2="733.86" style="stroke:#EAF2F3;stroke-width:4.32"/>
	<line x1="439.31" y1="729.90" x2="1072.17" y2="729.90" style="stroke:#EAF2F3;stroke-width:4.32"/>
	<line x1="439.31" y1="725.94" x2="1072.17" y2="725.94" style="stroke:#EAF2F3;stroke-width:4.32"/>
	<path d=" M474.09 741.78 L496.11 741.78 L496.11 741.78 L502.30 741.78 L502.30 741.78 L521.24 741.78 L521.24 741.78 L543.26 741.78 L543.26 741.78 L577.91 741.78 L577.91 741.78 L593.63 741.78 L593.63 741.53 L647.09 741.53 L647.09 741.53 L650.18 741.53 L650.18 741.29 L656.49 741.29 L656.49 741.29 L662.80 741.29 L662.80 741.29 L669.12 741.29 L669.12 741.04 L678.52 741.04 L678.52 740.79 L688.05 740.79 L688.05 740.54 L706.86 740.54 L706.86 740.17 L728.89 740.17 L728.89 739.92 L732.11 739.92 L732.11 739.68 L735.20 739.68 L735.20 739.18 L741.51 739.18 L741.51 738.81 L760.32 738.81 L760.32 738.56 L779.25 738.56 L779.25 738.32 L804.38 738.32 L804.38 737.82 L810.69 737.82 L810.69 737.20 L813.90 737.20 L813.90 736.95 L817.00 736.95 L817.00 736.95 L820.22 736.95 L820.22 736.46 L826.40 736.46 L826.40 736.21 L829.62 736.21 L829.62 735.84 L835.93 735.84 L835.93 735.35 L839.02 735.35 L839.02 735.10 L842.24 735.10 L842.24 734.60 L848.43 734.60 L848.43 734.23 L851.65 734.23 L851.65 733.98 L854.74 733.98 L854.74 733.49 L857.96 733.49 L857.96 733.49 L864.27 733.49 L864.27 732.87 L867.36 732.87 L867.36 732.62 L870.46 732.62 L870.46 732.38 L873.67 732.38 L873.67 731.88 L876.77 731.88 L876.77 731.01 L879.99 731.01 L879.99 730.52 L883.08 730.52 L883.08 729.41 L886.30 729.41 L886.30 729.16 L889.39 729.16 L889.39 728.66 L892.49 728.66 L892.49 728.29 L895.70 728.29 L895.70 727.80 L902.01 727.80 L902.01 727.30 L905.11 727.30 L905.11 726.68 L908.33 726.68 L908.33 725.69 L911.42 725.69 L911.42 723.96 L914.51 723.96 L914.51 723.47 L917.73 723.47 L917.73 722.10 L920.82 722.10 L920.82 720.74 L924.04 720.74 L924.04 719.75 L927.13 719.75 L927.13 718.89 L930.35 718.89 L930.35 718.02 L933.45 718.02 L933.45 717.28 L936.54 717.28 L936.54 716.41 L939.76 716.41 L939.76 715.42 L942.85 715.42 L942.85 712.70 L946.07 712.70 L946.07 711.58 L949.16 711.58 L949.16 710.22 L952.38 710.22 L952.38 709.48 L955.47 709.48 L955.47 707.25 L958.57 707.25 L958.57 705.15 L961.78 705.15 L961.78 704.28 L964.88 704.28 L964.88 703.54 L968.10 703.54 L968.10 701.31 L971.19 701.31 L971.19 699.46 L974.41 699.46 L974.41 697.60 L977.50 697.60 L977.50 696.49 L980.60 696.49 L980.60 693.76 L983.81 693.76 L983.81 691.91 L986.91 691.91 L986.91 689.43 L990.12 689.43 L990.12 687.08 L993.22 687.08 L993.22 685.72 L996.31 685.72 L996.31 682.13 L999.53 682.13 L999.53 677.80 L1002.62 677.80 L1002.62 674.83 L1005.84 674.83 L1005.84 673.22 L1008.93 673.22 L1008.93 669.51 L1012.15 669.51 L1012.15 666.29 L1015.25 666.29 L1015.25 661.59 L1018.34 661.59 L1018.34 656.51 L1021.56 656.51 L1021.56 652.68 L1024.65 652.68 L1024.65 648.72 L1027.87 648.72 L1027.87 645.75 L1030.96 645.75 L1030.96 638.94 L1034.18 638.94 L1034.18 634.86 L1037.27 634.86 L1037.27 629.29 L1040.37 629.29 L1040.37 363.22" stroke-linejoin="round" style="fill:none;stroke:#FF0000;stroke-width:4.32"/>
	<path d=" M514.92 741.78 L558.98 741.78 L558.98 741.78 L606.13 741.78 L606.13 741.78 L615.66 741.78 L615.66 741.78 L640.78 741.78 L640.78 741.53 L703.77 741.53 L703.77 741.53 L722.58 741.53 L722.58 741.29 L732.11 741.29 L732.11 740.91 L744.60 740.91 L744.60 740.67 L763.54 740.67 L763.54 740.42 L779.25 740.42 L779.25 740.17 L794.97 740.17 L794.97 740.17 L798.19 740.17 L798.19 739.80 L807.59 739.80 L807.59 739.31 L810.69 739.31 L810.69 738.93 L813.90 738.93 L813.90 738.69 L817.00 738.69 L817.00 738.44 L826.40 738.44 L826.40 738.07 L832.71 738.07 L832.71 737.82 L835.93 737.82 L835.93 737.33 L842.24 737.33 L842.24 736.95 L848.43 736.95 L848.43 736.71 L854.74 736.71 L854.74 736.46 L857.96 736.46 L857.96 736.09 L861.05 736.09 L861.05 735.59 L864.27 735.59 L864.27 735.22 L867.36 735.22 L867.36 734.73 L873.67 734.73 L873.67 734.11 L876.77 734.11 L876.77 733.61 L879.99 733.61 L879.99 732.99 L883.08 732.99 L883.08 732.75 L889.39 732.75 L889.39 732.13 L892.49 732.13 L892.49 731.88 L898.80 731.88 L898.80 730.77 L902.01 730.77 L902.01 729.90 L905.11 729.90 L905.11 729.28 L908.33 729.28 L908.33 728.42 L911.42 728.42 L911.42 727.05 L914.51 727.05 L914.51 726.19 L917.73 726.19 L917.73 725.07 L920.82 725.07 L920.82 723.84 L924.04 723.84 L924.04 721.86 L927.13 721.86 L927.13 720.50 L930.35 720.50 L930.35 719.63 L933.45 719.63 L933.45 718.51 L936.54 718.51 L936.54 717.03 L939.76 717.03 L939.76 715.92 L942.85 715.92 L942.85 714.80 L946.07 714.80 L946.07 713.69 L949.16 713.69 L949.16 711.71 L952.38 711.71 L952.38 709.60 L955.47 709.60 L955.47 708.49 L958.57 708.49 L958.57 707.13 L961.78 707.13 L961.78 705.15 L964.88 705.15 L964.88 702.80 L968.10 702.80 L968.10 699.95 L971.19 699.95 L971.19 698.22 L974.41 698.22 L974.41 695.37 L977.50 695.37 L977.50 693.76 L980.60 693.76 L980.60 691.41 L983.81 691.41 L983.81 688.81 L986.91 688.81 L986.91 687.21 L990.12 687.21 L990.12 684.36 L993.22 684.36 L993.22 681.51 L996.31 681.51 L996.31 677.80 L999.53 677.80 L999.53 674.33 L1002.62 674.33 L1002.62 671.24 L1005.84 671.24 L1005.84 668.39 L1008.93 668.39 L1008.93 665.55 L1012.15 665.55 L1012.15 662.33 L1015.25 662.33 L1015.25 658.37 L1018.34 658.37 L1018.34 654.16 L1021.56 654.16 L1021.56 649.58 L1024.65 649.58 L1024.65 645.01 L1027.87 645.01 L1027.87 639.93 L1030.96 639.93 L1030.96 635.35 L1034.18 635.35 L1034.18 630.15 L1037.27 630.15 L1037.27 623.97 L1040.37 623.97 L1040.37 352.20" stroke-linejoin="round" style="fill:none;stroke:#0000FF;stroke-width:4.32"/>
	<line x1="439.31" y1="773.46" x2="439.31" y2="320.40" style="stroke:#000000;stroke-width:3.00"/>
	<line x1="439.31" y1="741.78" x2="419.26" y2="741.78" style="stroke:#000000;stroke-width:3.00"/>
	<text x="409.24" y="759.31" style="font-family:'Helvetica';font-size:49.99px;fill:#000000" text-anchor="end">0.000</text>
	<line x1="439.31" y1="737.82" x2="419.26" y2="737.82" style="stroke:#000000;stroke-width:3.00"/>
	<text x="409.24" y="755.35" style="font-family:'Helvetica';font-size:49.99px;fill:#000000" text-anchor="end">0.002</text>
	<line x1="439.31" y1="733.86" x2="419.26" y2="733.86" style="stroke:#000000;stroke-width:3.00"/>
	<text x="409.24" y="751.39" style="font-family:'Helvetica';font-size:49.99px;fill:#000000" text-anchor="end">0.004</text>
	<line x1="439.31" y1="729.90" x2="419.26" y2="729.90" style="stroke:#000000;stroke-width:3.00"/>
	<text x="409.24" y="747.43" style="font-family:'Helvetica';font-size:49.99px;fill:#000000" text-anchor="end">0.006</text>
	<line x1="439.31" y1="725.94" x2="419.26" y2="725.94" style="stroke:#000000;stroke-width:3.00"/>
	<text x="409.24" y="743.47" style="font-family:'Helvetica';font-size:49.99px;fill:#000000" text-anchor="end">0.008</text>
	<line x1="439.31" y1="773.46" x2="1072.17" y2="773.46" style="stroke:#000000;stroke-width:3.00"/>
	<line x1="470.99" y1="773.46" x2="470.99" y2="793.39" style="stroke:#000000;stroke-width:3.00"/>
	<text x="470.99" y="838.35" style="font-family:'Helvetica';font-size:49.99px;fill:#000000" text-anchor="middle">1 Feb 20</text>
	<line x1="562.20" y1="773.46" x2="562.20" y2="793.39" style="stroke:#000000;stroke-width:3.00"/>
	<text x="562.20" y="838.35" style="font-family:'Helvetica';font-size:49.99px;fill:#000000" text-anchor="middle">1 Mar 20</text>
	<line x1="659.71" y1="773.46" x2="659.71" y2="793.39" style="stroke:#000000;stroke-width:3.00"/>
	<text x="659.71" y="838.35" style="font-family:'Helvetica';font-size:49.99px;fill:#000000" text-anchor="middle">1 Apr 20</text>
	<line x1="757.35" y1="773.46" x2="757.35" y2="793.39" style="stroke:#000000;stroke-width:3.00"/>
	<text x="757.35" y="838.35" style="font-family:'Helvetica';font-size:49.99px;fill:#000000" text-anchor="middle">1 May 20</text>
	<line x1="854.87" y1="773.46" x2="854.87" y2="793.39" style="stroke:#000000;stroke-width:3.00"/>
	<text x="854.87" y="838.35" style="font-family:'Helvetica';font-size:49.99px;fill:#000000" text-anchor="middle">1 Jun 20</text>
	<line x1="949.29" y1="773.46" x2="949.29" y2="793.39" style="stroke:#000000;stroke-width:3.00"/>
	<text x="949.29" y="838.35" style="font-family:'Helvetica';font-size:49.99px;fill:#000000" text-anchor="middle">1 Jul 20</text>
	<text x="755.74" y="886.40" style="font-family:'Helvetica';font-size:39.97px;fill:#000000" text-anchor="middle">Days since 1 Feb 2020</text>
	<text x="755.74" y="290.78" style="font-family:'Helvetica';font-size:70.04px;fill:#1E2D53" text-anchor="middle">eth1</text>
	<rect x="1122.54" y="182.78" width="924.66" height="776.06" style="fill:#EAF2F3"/>
	<rect x="1124.04" y="184.28" width="921.66" height="773.06" style="fill:none;stroke:#EAF2F3;stroke-width:3.00"/>
	<rect x="1363.97" y="320.40" width="632.86" height="453.06" style="fill:#FFFFFF"/>
	<rect x="1365.47" y="321.90" width="629.86" height="450.06" style="fill:none;stroke:#FFFFFF;stroke-width:3.00"/>
	<line x1="1363.97" y1="741.78" x2="1996.83" y2="741.78" style="stroke:#EAF2F3;stroke-width:4.32"/>
	<line x1="1363.97" y1="738.07" x2="1996.83" y2="738.07" style="stroke:#EAF2F3;stroke-width:4.32"/>
	<line x1="1363.97" y1="734.36" x2="1996.83" y2="734.36" style="stroke:#EAF2F3;stroke-width:4.32"/>
	<line x1="1363.97" y1="730.64" x2="1996.83" y2="730.64" style="stroke:#EAF2F3;stroke-width:4.32"/>
	<line x1="1363.97" y1="726.93" x2="1996.83" y2="726.93" style="stroke:#EAF2F3;stroke-width:4.32"/>
	<path d=" M1411.24 741.78 L1414.46 741.78 L1414.46 741.78 L1530.79 741.78 L1530.79 741.78 L1543.41 741.78 L1543.41 741.78 L1603.18 741.78 L1603.18 741.78 L1618.90 741.78 L1618.90 740.54 L1713.32 740.54 L1713.32 740.54 L1729.04 740.54 L1729.04 739.31 L1738.56 739.31 L1738.56 737.94 L1766.78 737.94 L1766.78 736.71 L1770.00 736.71 L1770.00 735.35 L1773.09 735.35 L1773.09 734.11 L1782.62 734.11 L1782.62 732.87 L1788.81 732.87 L1788.81 731.51 L1801.43 731.51 L1801.43 730.27 L1804.65 730.27 L1804.65 728.91 L1807.74 728.91 L1807.74 727.67 L1817.14 727.67 L1817.14 726.31 L1820.36 726.31 L1820.36 725.07 L1836.08 725.07 L1836.08 722.48 L1842.39 722.48 L1842.39 721.24 L1848.70 721.24 L1848.70 718.64 L1861.20 718.64 L1861.20 716.04 L1873.82 716.04 L1873.82 714.80 L1876.92 714.80 L1876.92 712.20 L1880.13 712.20 L1880.13 708.37 L1883.23 708.37 L1883.23 704.41 L1886.44 704.41 L1886.44 701.93 L1889.54 701.93 L1889.54 699.33 L1892.76 699.33 L1892.76 696.73 L1895.85 696.73 L1895.85 692.90 L1898.94 692.90 L1898.94 691.54 L1905.26 691.54 L1905.26 690.30 L1908.47 690.30 L1908.47 688.94 L1911.57 688.94 L1911.57 685.10 L1914.78 685.10 L1914.78 683.86 L1917.88 683.86 L1917.88 681.27 L1920.97 681.27 L1920.97 677.43 L1924.19 677.43 L1924.19 674.83 L1927.28 674.83 L1927.28 668.39 L1930.50 668.39 L1930.50 665.80 L1933.59 665.80 L1933.59 659.36 L1936.81 659.36 L1936.81 655.52 L1939.90 655.52 L1939.90 651.56 L1943.00 651.56 L1943.00 641.29 L1946.22 641.29 L1946.22 634.86 L1949.31 634.86 L1949.31 628.42 L1952.53 628.42 L1952.53 627.18 L1955.62 627.18 L1955.62 621.99 L1958.84 621.99 L1958.84 614.19 L1961.93 614.19 L1961.93 607.76 L1965.03 607.76 L1965.03 355.17" stroke-linejoin="round" style="fill:none;stroke:#FF0000;stroke-width:4.32"/>
	<path d=" M1464.70 740.54 L1725.94 740.54 L1725.94 739.18 L1770.00 739.18 L1770.00 737.82 L1795.12 737.82 L1795.12 736.46 L1814.05 736.46 L1814.05 735.10 L1817.14 735.10 L1817.14 733.74 L1820.36 733.74 L1820.36 729.78 L1826.67 729.78 L1826.67 727.05 L1829.77 727.05 L1829.77 725.82 L1845.48 725.82 L1845.48 724.46 L1848.70 724.46 L1848.70 723.09 L1854.89 723.09 L1854.89 721.73 L1858.11 721.73 L1858.11 717.77 L1861.20 717.77 L1861.20 716.41 L1876.92 716.41 L1876.92 713.69 L1880.13 713.69 L1880.13 711.09 L1886.44 711.09 L1886.44 709.73 L1889.54 709.73 L1889.54 708.37 L1895.85 708.37 L1895.85 707.01 L1898.94 707.01 L1898.94 704.28 L1902.16 704.28 L1902.16 701.68 L1908.47 701.68 L1908.47 700.32 L1911.57 700.32 L1911.57 698.96 L1914.78 698.96 L1914.78 695.00 L1917.88 695.00 L1917.88 690.92 L1920.97 690.92 L1920.97 688.32 L1924.19 688.32 L1924.19 685.60 L1927.28 685.60 L1927.28 681.64 L1930.50 681.64 L1930.50 678.91 L1933.59 678.91 L1933.59 672.23 L1936.81 672.23 L1936.81 670.87 L1939.90 670.87 L1939.90 665.55 L1943.00 665.55 L1943.00 664.19 L1946.22 664.19 L1946.22 658.87 L1949.31 658.87 L1949.31 656.14 L1952.53 656.14 L1952.53 646.74 L1955.62 646.74 L1955.62 642.78 L1958.84 642.78 L1958.84 638.69 L1961.93 638.69 L1961.93 636.09 L1965.03 636.09 L1965.03 352.20" stroke-linejoin="round" style="fill:none;stroke:#0000FF;stroke-width:4.32"/>
	<line x1="1363.97" y1="773.46" x2="1363.97" y2="320.40" style="stroke:#000000;stroke-width:3.00"/>
	<line x1="1363.97" y1="741.78" x2="1343.92" y2="741.78" style="stroke:#000000;stroke-width:3.00"/>
	<text x="1333.90" y="759.31" style="font-family:'Helvetica';font-size:49.99px;fill:#000000" text-anchor="end">0.000</text>
	<line x1="1363.97" y1="738.07" x2="1343.92" y2="738.07" style="stroke:#000000;stroke-width:3.00"/>
	<text x="1333.90" y="755.60" style="font-family:'Helvetica';font-size:49.99px;fill:#000000" text-anchor="end">0.002</text>
	<line x1="1363.97" y1="734.36" x2="1343.92" y2="734.36" style="stroke:#000000;stroke-width:3.00"/>
	<text x="1333.90" y="751.89" style="font-family:'Helvetica';font-size:49.99px;fill:#000000" text-anchor="end">0.004</text>
	<line x1="1363.97" y1="730.64" x2="1343.92" y2="730.64" style="stroke:#000000;stroke-width:3.00"/>
	<text x="1333.90" y="748.17" style="font-family:'Helvetica';font-size:49.99px;fill:#000000" text-anchor="end">0.006</text>
	<line x1="1363.97" y1="726.93" x2="1343.92" y2="726.93" style="stroke:#000000;stroke-width:3.00"/>
	<text x="1333.90" y="744.46" style="font-family:'Helvetica';font-size:49.99px;fill:#000000" text-anchor="end">0.008</text>
	<line x1="1363.97" y1="773.46" x2="1996.83" y2="773.46" style="stroke:#000000;stroke-width:3.00"/>
	<line x1="1395.65" y1="773.46" x2="1395.65" y2="793.39" style="stroke:#000000;stroke-width:3.00"/>
	<text x="1395.65" y="838.35" style="font-family:'Helvetica';font-size:49.99px;fill:#000000" text-anchor="middle">1 Feb 20</text>
	<line x1="1486.86" y1="773.46" x2="1486.86" y2="793.39" style="stroke:#000000;stroke-width:3.00"/>
	<text x="1486.86" y="838.35" style="font-family:'Helvetica';font-size:49.99px;fill:#000000" text-anchor="middle">1 Mar 20</text>
	<line x1="1584.37" y1="773.46" x2="1584.37" y2="793.39" style="stroke:#000000;stroke-width:3.00"/>
	<text x="1584.37" y="838.35" style="font-family:'Helvetica';font-size:49.99px;fill:#000000" text-anchor="middle">1 Apr 20</text>
	<line x1="1681.89" y1="773.46" x2="1681.89" y2="793.39" style="stroke:#000000;stroke-width:3.00"/>
	<text x="1681.89" y="838.35" style="font-family:'Helvetica';font-size:49.99px;fill:#000000" text-anchor="middle">1 May 20</text>
	<line x1="1779.53" y1="773.46" x2="1779.53" y2="793.39" style="stroke:#000000;stroke-width:3.00"/>
	<text x="1779.53" y="838.35" style="font-family:'Helvetica';font-size:49.99px;fill:#000000" text-anchor="middle">1 Jun 20</text>
	<line x1="1873.95" y1="773.46" x2="1873.95" y2="793.39" style="stroke:#000000;stroke-width:3.00"/>
	<text x="1873.95" y="838.35" style="font-family:'Helvetica';font-size:49.99px;fill:#000000" text-anchor="middle">1 Jul 20</text>
	<text x="1680.40" y="886.40" style="font-family:'Helvetica';font-size:39.97px;fill:#000000" text-anchor="middle">Days since 1 Feb 2020</text>
	<text x="1680.40" y="290.78" style="font-family:'Helvetica';font-size:70.04px;fill:#1E2D53" text-anchor="middle">eth2</text>
	<rect x="2047.20" y="182.78" width="924.66" height="776.06" style="fill:#EAF2F3"/>
	<rect x="2048.70" y="184.28" width="921.66" height="773.06" style="fill:none;stroke:#EAF2F3;stroke-width:3.00"/>
	<rect x="2288.51" y="320.40" width="632.98" height="453.06" style="fill:#FFFFFF"/>
	<rect x="2290.01" y="321.90" width="629.98" height="450.06" style="fill:none;stroke:#FFFFFF;stroke-width:3.00"/>
	<line x1="2288.51" y1="741.78" x2="2921.49" y2="741.78" style="stroke:#EAF2F3;stroke-width:4.32"/>
	<line x1="2288.51" y1="738.32" x2="2921.49" y2="738.32" style="stroke:#EAF2F3;stroke-width:4.32"/>
	<line x1="2288.51" y1="734.85" x2="2921.49" y2="734.85" style="stroke:#EAF2F3;stroke-width:4.32"/>
	<line x1="2288.51" y1="731.39" x2="2921.49" y2="731.39" style="stroke:#EAF2F3;stroke-width:4.32"/>
	<line x1="2288.51" y1="727.92" x2="2921.49" y2="727.92" style="stroke:#EAF2F3;stroke-width:4.32"/>
	<path d=" M2420.92 741.78 L2603.33 741.78 L2603.33 739.18 L2672.63 739.18 L2672.63 736.46 L2738.71 736.46 L2738.71 733.74 L2745.02 733.74 L2745.02 731.01 L2751.33 731.01 L2751.33 728.29 L2754.43 728.29 L2754.43 725.57 L2763.83 725.57 L2763.83 722.85 L2779.55 722.85 L2779.55 720.12 L2804.79 720.12 L2804.79 714.80 L2807.89 714.80 L2807.89 712.08 L2811.11 712.08 L2811.11 709.36 L2823.60 709.36 L2823.60 706.63 L2826.82 706.63 L2826.82 701.19 L2829.91 701.19 L2829.91 698.59 L2833.13 698.59 L2833.13 695.87 L2836.23 695.87 L2836.23 693.15 L2842.54 693.15 L2842.54 687.70 L2845.63 687.70 L2845.63 684.98 L2851.94 684.98 L2851.94 676.93 L2855.16 676.93 L2855.16 674.21 L2864.57 674.21 L2864.57 668.77 L2867.66 668.77 L2867.66 655.28 L2870.88 655.28 L2870.88 644.39 L2880.28 644.39 L2880.28 641.66 L2883.38 641.66 L2883.38 636.34 L2886.59 636.34 L2886.59 622.73 L2889.69 622.73 L2889.69 352.20" stroke-linejoin="round" style="fill:none;stroke:#FF0000;stroke-width:4.32"/>
	<path d=" M2376.87 741.78 L2603.33 741.78 L2603.33 741.78 L2688.34 741.78 L2688.34 741.78 L2694.66 741.78 L2694.66 739.31 L2713.47 739.31 L2713.47 736.71 L2716.68 736.71 L2716.68 734.11 L2745.02 734.11 L2745.02 731.63 L2748.12 731.63 L2748.12 729.03 L2763.83 729.03 L2763.83 726.44 L2767.05 726.44 L2767.05 721.36 L2773.36 721.36 L2773.36 718.76 L2782.77 718.76 L2782.77 716.29 L2795.39 716.29 L2795.39 713.69 L2798.48 713.69 L2798.48 711.09 L2804.79 711.09 L2804.79 708.61 L2807.89 708.61 L2807.89 706.02 L2814.20 706.02 L2814.20 703.42 L2817.42 703.42 L2817.42 700.94 L2820.51 700.94 L2820.51 698.34 L2823.60 698.34 L2823.60 693.27 L2826.82 693.27 L2826.82 677.92 L2829.91 677.92 L2829.91 675.32 L2833.13 675.32 L2833.13 672.73 L2836.23 672.73 L2836.23 670.25 L2839.32 670.25 L2839.32 667.65 L2842.54 667.65 L2842.54 665.05 L2845.63 665.05 L2845.63 662.58 L2848.85 662.58 L2848.85 657.38 L2851.94 657.38 L2851.94 654.91 L2858.25 654.91 L2858.25 652.31 L2867.66 652.31 L2867.66 647.11 L2877.19 647.11 L2877.19 642.04 L2883.38 642.04 L2883.38 634.36 L2886.59 634.36 L2886.59 626.69 L2889.69 626.69 L2889.69 360.62" stroke-linejoin="round" style="fill:none;stroke:#0000FF;stroke-width:4.32"/>
	<line x1="2288.51" y1="773.46" x2="2288.51" y2="320.40" style="stroke:#000000;stroke-width:3.00"/>
	<line x1="2288.51" y1="741.78" x2="2268.59" y2="741.78" style="stroke:#000000;stroke-width:3.00"/>
	<text x="2258.56" y="759.31" style="font-family:'Helvetica';font-size:49.99px;fill:#000000" text-anchor="end">0.000</text>
	<line x1="2288.51" y1="738.32" x2="2268.59" y2="738.32" style="stroke:#000000;stroke-width:3.00"/>
	<text x="2258.56" y="755.85" style="font-family:'Helvetica';font-size:49.99px;fill:#000000" text-anchor="end">0.002</text>
	<line x1="2288.51" y1="734.85" x2="2268.59" y2="734.85" style="stroke:#000000;stroke-width:3.00"/>
	<text x="2258.56" y="752.38" style="font-family:'Helvetica';font-size:49.99px;fill:#000000" text-anchor="end">0.004</text>
	<line x1="2288.51" y1="731.39" x2="2268.59" y2="731.39" style="stroke:#000000;stroke-width:3.00"/>
	<text x="2258.56" y="748.92" style="font-family:'Helvetica';font-size:49.99px;fill:#000000" text-anchor="end">0.006</text>
	<line x1="2288.51" y1="727.92" x2="2268.59" y2="727.92" style="stroke:#000000;stroke-width:3.00"/>
	<text x="2258.56" y="745.45" style="font-family:'Helvetica';font-size:49.99px;fill:#000000" text-anchor="end">0.008</text>
	<line x1="2288.51" y1="773.46" x2="2921.49" y2="773.46" style="stroke:#000000;stroke-width:3.00"/>
	<line x1="2320.19" y1="773.46" x2="2320.19" y2="793.39" style="stroke:#000000;stroke-width:3.00"/>
	<text x="2320.19" y="838.35" style="font-family:'Helvetica';font-size:49.99px;fill:#000000" text-anchor="middle">1 Feb 20</text>
	<line x1="2411.52" y1="773.46" x2="2411.52" y2="793.39" style="stroke:#000000;stroke-width:3.00"/>
	<text x="2411.52" y="838.35" style="font-family:'Helvetica';font-size:49.99px;fill:#000000" text-anchor="middle">1 Mar 20</text>
	<line x1="2509.03" y1="773.46" x2="2509.03" y2="793.39" style="stroke:#000000;stroke-width:3.00"/>
	<text x="2509.03" y="838.35" style="font-family:'Helvetica';font-size:49.99px;fill:#000000" text-anchor="middle">1 Apr 20</text>
	<line x1="2606.55" y1="773.46" x2="2606.55" y2="793.39" style="stroke:#000000;stroke-width:3.00"/>
	<text x="2606.55" y="838.35" style="font-family:'Helvetica';font-size:49.99px;fill:#000000" text-anchor="middle">1 May 20</text>
	<line x1="2704.18" y1="773.46" x2="2704.18" y2="793.39" style="stroke:#000000;stroke-width:3.00"/>
	<text x="2704.18" y="838.35" style="font-family:'Helvetica';font-size:49.99px;fill:#000000" text-anchor="middle">1 Jun 20</text>
	<line x1="2798.48" y1="773.46" x2="2798.48" y2="793.39" style="stroke:#000000;stroke-width:3.00"/>
	<text x="2798.48" y="838.35" style="font-family:'Helvetica';font-size:49.99px;fill:#000000" text-anchor="middle">1 Jul 20</text>
	<text x="2605.06" y="886.40" style="font-family:'Helvetica';font-size:39.97px;fill:#000000" text-anchor="middle">Days since 1 Feb 2020</text>
	<text x="2605.06" y="290.78" style="font-family:'Helvetica';font-size:70.04px;fill:#1E2D53" text-anchor="middle">eth3</text>
	<rect x="2971.86" y="182.78" width="924.66" height="776.06" style="fill:#EAF2F3"/>
	<rect x="2973.36" y="184.28" width="921.66" height="773.06" style="fill:none;stroke:#EAF2F3;stroke-width:3.00"/>
	<rect x="3213.17" y="320.40" width="632.98" height="453.06" style="fill:#FFFFFF"/>
	<rect x="3214.67" y="321.90" width="629.98" height="450.06" style="fill:none;stroke:#FFFFFF;stroke-width:3.00"/>
	<line x1="3213.17" y1="741.78" x2="3846.15" y2="741.78" style="stroke:#EAF2F3;stroke-width:4.32"/>
	<line x1="3213.17" y1="738.32" x2="3846.15" y2="738.32" style="stroke:#EAF2F3;stroke-width:4.32"/>
	<line x1="3213.17" y1="734.85" x2="3846.15" y2="734.85" style="stroke:#EAF2F3;stroke-width:4.32"/>
	<line x1="3213.17" y1="731.39" x2="3846.15" y2="731.39" style="stroke:#EAF2F3;stroke-width:4.32"/>
	<line x1="3213.17" y1="727.92" x2="3846.15" y2="727.92" style="stroke:#EAF2F3;stroke-width:4.32"/>
	<path d=" M3559.55 739.31 L3619.32 739.31 L3619.32 736.83 L3691.71 736.83 L3691.71 731.88 L3694.80 731.88 L3694.80 729.41 L3697.90 729.41 L3697.90 726.93 L3704.21 726.93 L3704.21 724.46 L3710.52 724.46 L3710.52 719.50 L3729.45 719.50 L3729.45 717.03 L3732.55 717.03 L3732.55 714.43 L3735.76 714.43 L3735.76 711.96 L3741.95 711.96 L3741.95 709.48 L3745.17 709.48 L3745.17 707.01 L3748.26 707.01 L3748.26 704.53 L3754.57 704.53 L3754.57 697.11 L3757.79 697.11 L3757.79 694.63 L3760.89 694.63 L3760.89 689.68 L3763.98 689.68 L3763.98 682.13 L3767.20 682.13 L3767.20 677.18 L3770.29 677.18 L3770.29 674.71 L3773.51 674.71 L3773.51 669.76 L3779.82 669.76 L3779.82 662.33 L3782.91 662.33 L3782.91 659.86 L3786.01 659.86 L3786.01 649.83 L3792.32 649.83 L3792.32 642.41 L3798.63 642.41 L3798.63 637.46 L3801.85 637.46 L3801.85 634.98 L3804.94 634.98 L3804.94 632.51 L3811.25 632.51 L3811.25 627.43 L3814.35 627.43 L3814.35 388.83" stroke-linejoin="round" style="fill:none;stroke:#FF0000;stroke-width:4.32"/>
	<path d=" M3499.77 739.18 L3518.58 739.18 L3518.58 736.71 L3534.30 736.71 L3534.30 734.11 L3562.64 734.11 L3562.64 731.51 L3631.82 731.51 L3631.82 728.91 L3638.13 728.91 L3638.13 723.71 L3647.66 723.71 L3647.66 721.11 L3666.47 721.11 L3666.47 718.51 L3669.68 718.51 L3669.68 718.51 L3679.09 718.51 L3679.09 715.92 L3694.80 715.92 L3694.80 713.32 L3697.90 713.32 L3697.90 710.72 L3704.21 710.72 L3704.21 708.12 L3710.52 708.12 L3710.52 705.52 L3716.83 705.52 L3716.83 700.32 L3719.93 700.32 L3719.93 697.72 L3726.24 697.72 L3726.24 695.13 L3729.45 695.13 L3729.45 692.53 L3741.95 692.53 L3741.95 689.93 L3745.17 689.93 L3745.17 687.33 L3751.48 687.33 L3751.48 682.13 L3754.57 682.13 L3754.57 679.53 L3757.79 679.53 L3757.79 674.33 L3760.89 674.33 L3760.89 671.74 L3767.20 671.74 L3767.20 669.14 L3776.60 669.14 L3776.60 663.94 L3782.91 663.94 L3782.91 661.34 L3789.22 661.34 L3789.22 658.74 L3792.32 658.74 L3792.32 653.54 L3795.54 653.54 L3795.54 648.35 L3798.63 648.35 L3798.63 645.75 L3801.85 645.75 L3801.85 637.95 L3804.94 637.95 L3804.94 630.15 L3808.03 630.15 L3808.03 627.56 L3811.25 627.56 L3811.25 617.16 L3814.35 617.16 L3814.35 352.20" stroke-linejoin="round" style="fill:none;stroke:#0000FF;stroke-width:4.32"/>
	<line x1="3213.17" y1="773.46" x2="3213.17" y2="320.40" style="stroke:#000000;stroke-width:3.00"/>
	<line x1="3213.17" y1="741.78" x2="3193.24" y2="741.78" style="stroke:#000000;stroke-width:3.00"/>
	<text x="3183.22" y="759.31" style="font-family:'Helvetica';font-size:49.99px;fill:#000000" text-anchor="end">0.000</text>
	<line x1="3213.17" y1="738.32" x2="3193.24" y2="738.32" style="stroke:#000000;stroke-width:3.00"/>
	<text x="3183.22" y="755.85" style="font-family:'Helvetica';font-size:49.99px;fill:#000000" text-anchor="end">0.002</text>
	<line x1="3213.17" y1="734.85" x2="3193.24" y2="734.85" style="stroke:#000000;stroke-width:3.00"/>
	<text x="3183.22" y="752.38" style="font-family:'Helvetica';font-size:49.99px;fill:#000000" text-anchor="end">0.004</text>
	<line x1="3213.17" y1="731.39" x2="3193.24" y2="731.39" style="stroke:#000000;stroke-width:3.00"/>
	<text x="3183.22" y="748.92" style="font-family:'Helvetica';font-size:49.99px;fill:#000000" text-anchor="end">0.006</text>
	<line x1="3213.17" y1="727.92" x2="3193.24" y2="727.92" style="stroke:#000000;stroke-width:3.00"/>
	<text x="3183.22" y="745.45" style="font-family:'Helvetica';font-size:49.99px;fill:#000000" text-anchor="end">0.008</text>
	<line x1="3213.17" y1="773.46" x2="3846.15" y2="773.46" style="stroke:#000000;stroke-width:3.00"/>
	<line x1="3244.85" y1="773.46" x2="3244.85" y2="793.39" style="stroke:#000000;stroke-width:3.00"/>
	<text x="3244.85" y="838.35" style="font-family:'Helvetica';font-size:49.99px;fill:#000000" text-anchor="middle">1 Feb 20</text>
	<line x1="3336.18" y1="773.46" x2="3336.18" y2="793.39" style="stroke:#000000;stroke-width:3.00"/>
	<text x="3336.18" y="838.35" style="font-family:'Helvetica';font-size:49.99px;fill:#000000" text-anchor="middle">1 Mar 20</text>
	<line x1="3433.69" y1="773.46" x2="3433.69" y2="793.39" style="stroke:#000000;stroke-width:3.00"/>
	<text x="3433.69" y="838.35" style="font-family:'Helvetica';font-size:49.99px;fill:#000000" text-anchor="middle">1 Apr 20</text>
	<line x1="3531.21" y1="773.46" x2="3531.21" y2="793.39" style="stroke:#000000;stroke-width:3.00"/>
	<text x="3531.21" y="838.35" style="font-family:'Helvetica';font-size:49.99px;fill:#000000" text-anchor="middle">1 May 20</text>
	<line x1="3628.84" y1="773.46" x2="3628.84" y2="793.39" style="stroke:#000000;stroke-width:3.00"/>
	<text x="3628.84" y="838.35" style="font-family:'Helvetica';font-size:49.99px;fill:#000000" text-anchor="middle">1 Jun 20</text>
	<line x1="3723.14" y1="773.46" x2="3723.14" y2="793.39" style="stroke:#000000;stroke-width:3.00"/>
	<text x="3723.14" y="838.35" style="font-family:'Helvetica';font-size:49.99px;fill:#000000" text-anchor="middle">1 Jul 20</text>
	<text x="3529.72" y="886.40" style="font-family:'Helvetica';font-size:39.97px;fill:#000000" text-anchor="middle">Days since 1 Feb 2020</text>
	<text x="3529.72" y="290.78" style="font-family:'Helvetica';font-size:70.04px;fill:#1E2D53" text-anchor="middle">eth4</text>
	<rect x="197.88" y="958.84" width="924.66" height="776.06" style="fill:#EAF2F3"/>
	<rect x="199.38" y="960.34" width="921.66" height="773.06" style="fill:none;stroke:#EAF2F3;stroke-width:3.00"/>
	<rect x="439.31" y="1096.46" width="632.86" height="453.06" style="fill:#FFFFFF"/>
	<rect x="440.81" y="1097.96" width="629.86" height="450.06" style="fill:none;stroke:#FFFFFF;stroke-width:3.00"/>
	<line x1="439.31" y1="1517.84" x2="1072.17" y2="1517.84" style="stroke:#EAF2F3;stroke-width:4.32"/>
	<line x1="439.31" y1="1514.25" x2="1072.17" y2="1514.25" style="stroke:#EAF2F3;stroke-width:4.32"/>
	<line x1="439.31" y1="1510.79" x2="1072.17" y2="1510.79" style="stroke:#EAF2F3;stroke-width:4.32"/>
	<line x1="439.31" y1="1507.20" x2="1072.17" y2="1507.20" style="stroke:#EAF2F3;stroke-width:4.32"/>
	<line x1="439.31" y1="1503.61" x2="1072.17" y2="1503.61" style="stroke:#EAF2F3;stroke-width:4.32"/>
	<path d=" M854.74 1512.52 L857.96 1512.52 L857.96 1512.52 L911.42 1512.52 L911.42 1507.07 L914.51 1507.07 L914.51 1501.63 L917.73 1501.63 L917.73 1496.31 L942.85 1496.31 L942.85 1490.86 L946.07 1490.86 L946.07 1485.42 L952.38 1485.42 L952.38 1479.97 L977.50 1479.97 L977.50 1474.65 L980.60 1474.65 L980.60 1469.21 L996.31 1469.21 L996.31 1463.76 L1002.62 1463.76 L1002.62 1452.99 L1008.93 1452.99 L1008.93 1447.55 L1015.25 1447.55 L1015.25 1442.10 L1024.65 1442.10 L1024.65 1436.78 L1030.96 1436.78 L1030.96 1431.34 L1037.27 1431.34 L1037.27 1425.89 L1040.37 1425.89 L1040.37 1128.26" stroke-linejoin="round" style="fill:none;stroke:#FF0000;stroke-width:4.32"/>
	<path d=" M678.52 1517.84 L794.97 1517.84 L794.97 1511.53 L813.90 1511.53 L813.90 1505.22 L857.96 1505.22 L857.96 1498.91 L905.11 1498.91 L905.11 1492.60 L939.76 1492.60 L939.76 1486.16 L971.19 1486.16 L971.19 1479.85 L986.91 1479.85 L986.91 1473.54 L993.22 1473.54 L993.22 1467.23 L1002.62 1467.23 L1002.62 1448.17 L1015.25 1448.17 L1015.25 1435.42 L1021.56 1435.42 L1021.56 1429.11 L1027.87 1429.11 L1027.87 1416.49 L1034.18 1416.49 L1034.18 1410.18 L1037.27 1410.18 L1037.27 1403.74 L1040.37 1403.74 L1040.37 1143.86" stroke-linejoin="round" style="fill:none;stroke:#0000FF;stroke-width:4.32"/>
	<line x1="439.31" y1="1549.52" x2="439.31" y2="1096.46" style="stroke:#000000;stroke-width:3.00"/>
	<line x1="439.31" y1="1517.84" x2="419.26" y2="1517.84" style="stroke:#000000;stroke-width:3.00"/>
	<text x="409.24" y="1535.37" style="font-family:'Helvetica';font-size:49.99px;fill:#000000" text-anchor="end">0.000</text>
	<line x1="439.31" y1="1514.25" x2="419.26" y2="1514.25" style="stroke:#000000;stroke-width:3.00"/>
	<text x="409.24" y="1531.78" style="font-family:'Helvetica';font-size:49.99px;fill:#000000" text-anchor="end">0.002</text>
	<line x1="439.31" y1="1510.79" x2="419.26" y2="1510.79" style="stroke:#000000;stroke-width:3.00"/>
	<text x="409.24" y="1528.32" style="font-family:'Helvetica';font-size:49.99px;fill:#000000" text-anchor="end">0.004</text>
	<line x1="439.31" y1="1507.20" x2="419.26" y2="1507.20" style="stroke:#000000;stroke-width:3.00"/>
	<text x="409.24" y="1524.73" style="font-family:'Helvetica';font-size:49.99px;fill:#000000" text-anchor="end">0.006</text>
	<line x1="439.31" y1="1503.61" x2="419.26" y2="1503.61" style="stroke:#000000;stroke-width:3.00"/>
	<text x="409.24" y="1521.14" style="font-family:'Helvetica';font-size:49.99px;fill:#000000" text-anchor="end">0.008</text>
	<line x1="439.31" y1="1549.52" x2="1072.17" y2="1549.52" style="stroke:#000000;stroke-width:3.00"/>
	<line x1="470.99" y1="1549.52" x2="470.99" y2="1569.57" style="stroke:#000000;stroke-width:3.00"/>
	<text x="470.99" y="1614.41" style="font-family:'Helvetica';font-size:49.99px;fill:#000000" text-anchor="middle">1 Feb 20</text>
	<line x1="562.20" y1="1549.52" x2="562.20" y2="1569.57" style="stroke:#000000;stroke-width:3.00"/>
	<text x="562.20" y="1614.41" style="font-family:'Helvetica';font-size:49.99px;fill:#000000" text-anchor="middle">1 Mar 20</text>
	<line x1="659.71" y1="1549.52" x2="659.71" y2="1569.57" style="stroke:#000000;stroke-width:3.00"/>
	<text x="659.71" y="1614.41" style="font-family:'Helvetica';font-size:49.99px;fill:#000000" text-anchor="middle">1 Apr 20</text>
	<line x1="757.35" y1="1549.52" x2="757.35" y2="1569.57" style="stroke:#000000;stroke-width:3.00"/>
	<text x="757.35" y="1614.41" style="font-family:'Helvetica';font-size:49.99px;fill:#000000" text-anchor="middle">1 May 20</text>
	<line x1="854.87" y1="1549.52" x2="854.87" y2="1569.57" style="stroke:#000000;stroke-width:3.00"/>
	<text x="854.87" y="1614.41" style="font-family:'Helvetica';font-size:49.99px;fill:#000000" text-anchor="middle">1 Jun 20</text>
	<line x1="949.29" y1="1549.52" x2="949.29" y2="1569.57" style="stroke:#000000;stroke-width:3.00"/>
	<text x="949.29" y="1614.41" style="font-family:'Helvetica';font-size:49.99px;fill:#000000" text-anchor="middle">1 Jul 20</text>
	<text x="755.74" y="1662.46" style="font-family:'Helvetica';font-size:39.97px;fill:#000000" text-anchor="middle">Days since 1 Feb 2020</text>
	<text x="755.74" y="1066.84" style="font-family:'Helvetica';font-size:70.04px;fill:#1E2D53" text-anchor="middle">eth5</text>
	<rect x="1122.54" y="958.84" width="924.66" height="776.06" style="fill:#EAF2F3"/>
	<rect x="1124.04" y="960.34" width="921.66" height="773.06" style="fill:none;stroke:#EAF2F3;stroke-width:3.00"/>
	<rect x="1363.97" y="1096.46" width="632.86" height="453.06" style="fill:#FFFFFF"/>
	<rect x="1365.47" y="1097.96" width="629.86" height="450.06" style="fill:none;stroke:#FFFFFF;stroke-width:3.00"/>
	<line x1="1363.97" y1="1517.84" x2="1996.83" y2="1517.84" style="stroke:#EAF2F3;stroke-width:4.32"/>
	<line x1="1363.97" y1="1514.38" x2="1996.83" y2="1514.38" style="stroke:#EAF2F3;stroke-width:4.32"/>
	<line x1="1363.97" y1="1511.03" x2="1996.83" y2="1511.03" style="stroke:#EAF2F3;stroke-width:4.32"/>
	<line x1="1363.97" y1="1507.57" x2="1996.83" y2="1507.57" style="stroke:#EAF2F3;stroke-width:4.32"/>
	<line x1="1363.97" y1="1504.10" x2="1996.83" y2="1504.10" style="stroke:#EAF2F3;stroke-width:4.32"/>
	<path d=" M1735.35 1505.96 L1779.40 1505.96 L1779.40 1499.90 L1832.86 1499.90 L1832.86 1493.96 L1876.92 1493.96 L1876.92 1487.89 L1880.13 1487.89 L1880.13 1481.95 L1889.54 1481.95 L1889.54 1475.89 L1892.76 1475.89 L1892.76 1463.88 L1905.26 1463.88 L1905.26 1457.94 L1914.78 1457.94 L1914.78 1452.00 L1927.28 1452.00 L1927.28 1445.94 L1939.90 1445.94 L1939.90 1440.00 L1943.00 1440.00 L1943.00 1433.94 L1946.22 1433.94 L1946.22 1421.93 L1949.31 1421.93 L1949.31 1410.05 L1955.62 1410.05 L1955.62 1391.98 L1961.93 1391.98 L1961.93 1386.04 L1965.03 1386.04 L1965.03 1128.26" stroke-linejoin="round" style="fill:none;stroke:#FF0000;stroke-width:4.32"/>
	<path d=" M1433.27 1517.84 L1590.68 1517.84 L1590.68 1512.02 L1631.52 1512.02 L1631.52 1506.08 L1647.24 1506.08 L1647.24 1500.14 L1795.12 1500.14 L1795.12 1494.20 L1832.86 1494.20 L1832.86 1488.39 L1842.39 1488.39 L1842.39 1488.39 L1845.48 1488.39 L1845.48 1476.51 L1848.70 1476.51 L1848.70 1470.57 L1864.42 1470.57 L1864.42 1464.63 L1883.23 1464.63 L1883.23 1458.69 L1892.76 1458.69 L1892.76 1452.75 L1908.47 1452.75 L1908.47 1446.81 L1911.57 1446.81 L1911.57 1440.87 L1914.78 1440.87 L1914.78 1434.93 L1936.81 1434.93 L1936.81 1428.99 L1955.62 1428.99 L1955.62 1423.05 L1961.93 1423.05 L1961.93 1417.11 L1965.03 1417.11 L1965.03 1144.23" stroke-linejoin="round" style="fill:none;stroke:#0000FF;stroke-width:4.32"/>
	<line x1="1363.97" y1="1549.52" x2="1363.97" y2="1096.46" style="stroke:#000000;stroke-width:3.00"/>
	<line x1="1363.97" y1="1517.84" x2="1343.92" y2="1517.84" style="stroke:#000000;stroke-width:3.00"/>
	<text x="1333.90" y="1535.37" style="font-family:'Helvetica';font-size:49.99px;fill:#000000" text-anchor="end">0.000</text>
	<line x1="1363.97" y1="1514.38" x2="1343.92" y2="1514.38" style="stroke:#000000;stroke-width:3.00"/>
	<text x="1333.90" y="1531.91" style="font-family:'Helvetica';font-size:49.99px;fill:#000000" text-anchor="end">0.002</text>
	<line x1="1363.97" y1="1511.03" x2="1343.92" y2="1511.03" style="stroke:#000000;stroke-width:3.00"/>
	<text x="1333.90" y="1528.56" style="font-family:'Helvetica';font-size:49.99px;fill:#000000" text-anchor="end">0.004</text>
	<line x1="1363.97" y1="1507.57" x2="1343.92" y2="1507.57" style="stroke:#000000;stroke-width:3.00"/>
	<text x="1333.90" y="1525.10" style="font-family:'Helvetica';font-size:49.99px;fill:#000000" text-anchor="end">0.006</text>
	<line x1="1363.97" y1="1504.10" x2="1343.92" y2="1504.10" style="stroke:#000000;stroke-width:3.00"/>
	<text x="1333.90" y="1521.63" style="font-family:'Helvetica';font-size:49.99px;fill:#000000" text-anchor="end">0.008</text>
	<line x1="1363.97" y1="1549.52" x2="1996.83" y2="1549.52" style="stroke:#000000;stroke-width:3.00"/>
	<line x1="1395.65" y1="1549.52" x2="1395.65" y2="1569.57" style="stroke:#000000;stroke-width:3.00"/>
	<text x="1395.65" y="1614.41" style="font-family:'Helvetica';font-size:49.99px;fill:#000000" text-anchor="middle">1 Feb 20</text>
	<line x1="1486.86" y1="1549.52" x2="1486.86" y2="1569.57" style="stroke:#000000;stroke-width:3.00"/>
	<text x="1486.86" y="1614.41" style="font-family:'Helvetica';font-size:49.99px;fill:#000000" text-anchor="middle">1 Mar 20</text>
	<line x1="1584.37" y1="1549.52" x2="1584.37" y2="1569.57" style="stroke:#000000;stroke-width:3.00"/>
	<text x="1584.37" y="1614.41" style="font-family:'Helvetica';font-size:49.99px;fill:#000000" text-anchor="middle">1 Apr 20</text>
	<line x1="1681.89" y1="1549.52" x2="1681.89" y2="1569.57" style="stroke:#000000;stroke-width:3.00"/>
	<text x="1681.89" y="1614.41" style="font-family:'Helvetica';font-size:49.99px;fill:#000000" text-anchor="middle">1 May 20</text>
	<line x1="1779.53" y1="1549.52" x2="1779.53" y2="1569.57" style="stroke:#000000;stroke-width:3.00"/>
	<text x="1779.53" y="1614.41" style="font-family:'Helvetica';font-size:49.99px;fill:#000000" text-anchor="middle">1 Jun 20</text>
	<line x1="1873.95" y1="1549.52" x2="1873.95" y2="1569.57" style="stroke:#000000;stroke-width:3.00"/>
	<text x="1873.95" y="1614.41" style="font-family:'Helvetica';font-size:49.99px;fill:#000000" text-anchor="middle">1 Jul 20</text>
	<text x="1680.40" y="1662.46" style="font-family:'Helvetica';font-size:39.97px;fill:#000000" text-anchor="middle">Days since 1 Feb 2020</text>
	<text x="1680.40" y="1066.84" style="font-family:'Helvetica';font-size:70.04px;fill:#1E2D53" text-anchor="middle">eth6</text>
	<rect x="2047.20" y="958.84" width="924.66" height="776.06" style="fill:#EAF2F3"/>
	<rect x="2048.70" y="960.34" width="921.66" height="773.06" style="fill:none;stroke:#EAF2F3;stroke-width:3.00"/>
	<rect x="2288.51" y="1096.46" width="632.98" height="453.06" style="fill:#FFFFFF"/>
	<rect x="2290.01" y="1097.96" width="629.98" height="450.06" style="fill:none;stroke:#FFFFFF;stroke-width:3.00"/>
	<line x1="2288.51" y1="1517.84" x2="2921.49" y2="1517.84" style="stroke:#EAF2F3;stroke-width:4.32"/>
	<line x1="2288.51" y1="1514.50" x2="2921.49" y2="1514.50" style="stroke:#EAF2F3;stroke-width:4.32"/>
	<line x1="2288.51" y1="1511.16" x2="2921.49" y2="1511.16" style="stroke:#EAF2F3;stroke-width:4.32"/>
	<line x1="2288.51" y1="1507.82" x2="2921.49" y2="1507.82" style="stroke:#EAF2F3;stroke-width:4.32"/>
	<line x1="2288.51" y1="1504.48" x2="2921.49" y2="1504.48" style="stroke:#EAF2F3;stroke-width:4.32"/>
	<path d=" M2767.05 1505.34 L2833.13 1505.34 L2833.13 1492.72 L2842.54 1492.72 L2842.54 1480.22 L2861.35 1480.22 L2861.35 1467.60 L2864.57 1467.60 L2864.57 1455.10 L2867.66 1455.10 L2867.66 1442.48 L2877.19 1442.48 L2877.19 1429.85 L2883.38 1429.85 L2883.38 1417.35 L2889.69 1417.35 L2889.69 1128.26" stroke-linejoin="round" style="fill:none;stroke:#FF0000;stroke-width:4.32"/>
	<path d=" M2471.16 1505.22 L2773.36 1505.22 L2773.36 1492.60 L2801.58 1492.60 L2801.58 1479.85 L2826.82 1479.85 L2826.82 1467.23 L2861.35 1467.23 L2861.35 1454.60 L2870.88 1454.60 L2870.88 1441.86 L2889.69 1441.86 L2889.69 1213.90" stroke-linejoin="round" style="fill:none;stroke:#0000FF;stroke-width:4.32"/>
	<line x1="2288.51" y1="1549.52" x2="2288.51" y2="1096.46" style="stroke:#000000;stroke-width:3.00"/>
	<line x1="2288.51" y1="1517.84" x2="2268.59" y2="1517.84" style="stroke:#000000;stroke-width:3.00"/>
	<text x="2258.56" y="1535.37" style="font-family:'Helvetica';font-size:49.99px;fill:#000000" text-anchor="end">0.000</text>
	<line x1="2288.51" y1="1514.50" x2="2268.59" y2="1514.50" style="stroke:#000000;stroke-width:3.00"/>
	<text x="2258.56" y="1532.03" style="font-family:'Helvetica';font-size:49.99px;fill:#000000" text-anchor="end">0.002</text>
	<line x1="2288.51" y1="1511.16" x2="2268.59" y2="1511.16" style="stroke:#000000;stroke-width:3.00"/>
	<text x="2258.56" y="1528.69" style="font-family:'Helvetica';font-size:49.99px;fill:#000000" text-anchor="end">0.004</text>
	<line x1="2288.51" y1="1507.82" x2="2268.59" y2="1507.82" style="stroke:#000000;stroke-width:3.00"/>
	<text x="2258.56" y="1525.35" style="font-family:'Helvetica';font-size:49.99px;fill:#000000" text-anchor="end">0.006</text>
	<line x1="2288.51" y1="1504.48" x2="2268.59" y2="1504.48" style="stroke:#000000;stroke-width:3.00"/>
	<text x="2258.56" y="1522.01" style="font-family:'Helvetica';font-size:49.99px;fill:#000000" text-anchor="end">0.008</text>
	<line x1="2288.51" y1="1549.52" x2="2921.49" y2="1549.52" style="stroke:#000000;stroke-width:3.00"/>
	<line x1="2320.19" y1="1549.52" x2="2320.19" y2="1569.57" style="stroke:#000000;stroke-width:3.00"/>
	<text x="2320.19" y="1614.41" style="font-family:'Helvetica';font-size:49.99px;fill:#000000" text-anchor="middle">1 Feb 20</text>
	<line x1="2411.52" y1="1549.52" x2="2411.52" y2="1569.57" style="stroke:#000000;stroke-width:3.00"/>
	<text x="2411.52" y="1614.41" style="font-family:'Helvetica';font-size:49.99px;fill:#000000" text-anchor="middle">1 Mar 20</text>
	<line x1="2509.03" y1="1549.52" x2="2509.03" y2="1569.57" style="stroke:#000000;stroke-width:3.00"/>
	<text x="2509.03" y="1614.41" style="font-family:'Helvetica';font-size:49.99px;fill:#000000" text-anchor="middle">1 Apr 20</text>
	<line x1="2606.55" y1="1549.52" x2="2606.55" y2="1569.57" style="stroke:#000000;stroke-width:3.00"/>
	<text x="2606.55" y="1614.41" style="font-family:'Helvetica';font-size:49.99px;fill:#000000" text-anchor="middle">1 May 20</text>
	<line x1="2704.18" y1="1549.52" x2="2704.18" y2="1569.57" style="stroke:#000000;stroke-width:3.00"/>
	<text x="2704.18" y="1614.41" style="font-family:'Helvetica';font-size:49.99px;fill:#000000" text-anchor="middle">1 Jun 20</text>
	<line x1="2798.48" y1="1549.52" x2="2798.48" y2="1569.57" style="stroke:#000000;stroke-width:3.00"/>
	<text x="2798.48" y="1614.41" style="font-family:'Helvetica';font-size:49.99px;fill:#000000" text-anchor="middle">1 Jul 20</text>
	<text x="2605.06" y="1662.46" style="font-family:'Helvetica';font-size:39.97px;fill:#000000" text-anchor="middle">Days since 1 Feb 2020</text>
	<text x="2605.06" y="1066.84" style="font-family:'Helvetica';font-size:70.04px;fill:#1E2D53" text-anchor="middle">eth7</text>
	<rect x="2971.86" y="958.84" width="924.66" height="776.06" style="fill:#EAF2F3"/>
	<rect x="2973.36" y="960.34" width="921.66" height="773.06" style="fill:none;stroke:#EAF2F3;stroke-width:3.00"/>
	<rect x="3213.17" y="1096.46" width="632.98" height="453.06" style="fill:#FFFFFF"/>
	<rect x="3214.67" y="1097.96" width="629.98" height="450.06" style="fill:none;stroke:#FFFFFF;stroke-width:3.00"/>
	<line x1="3213.17" y1="1517.84" x2="3846.15" y2="1517.84" style="stroke:#EAF2F3;stroke-width:4.32"/>
	<line x1="3213.17" y1="1514.00" x2="3846.15" y2="1514.00" style="stroke:#EAF2F3;stroke-width:4.32"/>
	<line x1="3213.17" y1="1510.17" x2="3846.15" y2="1510.17" style="stroke:#EAF2F3;stroke-width:4.32"/>
	<line x1="3213.17" y1="1506.46" x2="3846.15" y2="1506.46" style="stroke:#EAF2F3;stroke-width:4.32"/>
	<line x1="3213.17" y1="1502.62" x2="3846.15" y2="1502.62" style="stroke:#EAF2F3;stroke-width:4.32"/>
	<path d=" M3638.13 1505.34 L3694.80 1505.34 L3694.80 1492.72 L3713.74 1492.72 L3713.74 1480.10 L3735.76 1480.10 L3735.76 1467.47 L3751.48 1467.47 L3751.48 1454.85 L3779.82 1454.85 L3779.82 1442.23 L3801.85 1442.23 L3801.85 1429.60 L3804.94 1429.60 L3804.94 1417.11 L3814.35 1417.11 L3814.35 1190.14" stroke-linejoin="round" style="fill:none;stroke:#FF0000;stroke-width:4.32"/>
	<path d=" M3568.95 1502.87 L3701.11 1502.87 L3701.11 1487.89 L3719.93 1487.89 L3719.93 1472.92 L3723.14 1472.92 L3723.14 1457.94 L3748.26 1457.94 L3748.26 1442.97 L3754.57 1442.97 L3754.57 1428.00 L3770.29 1428.00 L3770.29 1413.02 L3814.35 1413.02 L3814.35 1128.26" stroke-linejoin="round" style="fill:none;stroke:#0000FF;stroke-width:4.32"/>
	<line x1="3213.17" y1="1549.52" x2="3213.17" y2="1096.46" style="stroke:#000000;stroke-width:3.00"/>
	<line x1="3213.17" y1="1517.84" x2="3193.24" y2="1517.84" style="stroke:#000000;stroke-width:3.00"/>
	<text x="3183.22" y="1535.37" style="font-family:'Helvetica';font-size:49.99px;fill:#000000" text-anchor="end">0.000</text>
	<line x1="3213.17" y1="1514.00" x2="3193.24" y2="1514.00" style="stroke:#000000;stroke-width:3.00"/>
	<text x="3183.22" y="1531.53" style="font-family:'Helvetica';font-size:49.99px;fill:#000000" text-anchor="end">0.002</text>
	<line x1="3213.17" y1="1510.17" x2="3193.24" y2="1510.17" style="stroke:#000000;stroke-width:3.00"/>
	<text x="3183.22" y="1527.70" style="font-family:'Helvetica';font-size:49.99px;fill:#000000" text-anchor="end">0.004</text>
	<line x1="3213.17" y1="1506.46" x2="3193.24" y2="1506.46" style="stroke:#000000;stroke-width:3.00"/>
	<text x="3183.22" y="1523.99" style="font-family:'Helvetica';font-size:49.99px;fill:#000000" text-anchor="end">0.006</text>
	<line x1="3213.17" y1="1502.62" x2="3193.24" y2="1502.62" style="stroke:#000000;stroke-width:3.00"/>
	<text x="3183.22" y="1520.15" style="font-family:'Helvetica';font-size:49.99px;fill:#000000" text-anchor="end">0.008</text>
	<line x1="3213.17" y1="1549.52" x2="3846.15" y2="1549.52" style="stroke:#000000;stroke-width:3.00"/>
	<line x1="3244.85" y1="1549.52" x2="3244.85" y2="1569.57" style="stroke:#000000;stroke-width:3.00"/>
	<text x="3244.85" y="1614.41" style="font-family:'Helvetica';font-size:49.99px;fill:#000000" text-anchor="middle">1 Feb 20</text>
	<line x1="3336.18" y1="1549.52" x2="3336.18" y2="1569.57" style="stroke:#000000;stroke-width:3.00"/>
	<text x="3336.18" y="1614.41" style="font-family:'Helvetica';font-size:49.99px;fill:#000000" text-anchor="middle">1 Mar 20</text>
	<line x1="3433.69" y1="1549.52" x2="3433.69" y2="1569.57" style="stroke:#000000;stroke-width:3.00"/>
	<text x="3433.69" y="1614.41" style="font-family:'Helvetica';font-size:49.99px;fill:#000000" text-anchor="middle">1 Apr 20</text>
	<line x1="3531.21" y1="1549.52" x2="3531.21" y2="1569.57" style="stroke:#000000;stroke-width:3.00"/>
	<text x="3531.21" y="1614.41" style="font-family:'Helvetica';font-size:49.99px;fill:#000000" text-anchor="middle">1 May 20</text>
	<line x1="3628.84" y1="1549.52" x2="3628.84" y2="1569.57" style="stroke:#000000;stroke-width:3.00"/>
	<text x="3628.84" y="1614.41" style="font-family:'Helvetica';font-size:49.99px;fill:#000000" text-anchor="middle">1 Jun 20</text>
	<line x1="3723.14" y1="1549.52" x2="3723.14" y2="1569.57" style="stroke:#000000;stroke-width:3.00"/>
	<text x="3723.14" y="1614.41" style="font-family:'Helvetica';font-size:49.99px;fill:#000000" text-anchor="middle">1 Jul 20</text>
	<text x="3529.72" y="1662.46" style="font-family:'Helvetica';font-size:39.97px;fill:#000000" text-anchor="middle">Days since 1 Feb 2020</text>
	<text x="3529.72" y="1066.84" style="font-family:'Helvetica';font-size:70.04px;fill:#1E2D53" text-anchor="middle">eth8</text>
	<rect x="197.88" y="1734.91" width="924.66" height="776.06" style="fill:#EAF2F3"/>
	<rect x="199.38" y="1736.41" width="921.66" height="773.06" style="fill:none;stroke:#EAF2F3;stroke-width:3.00"/>
	<rect x="439.31" y="1872.52" width="632.86" height="453.06" style="fill:#FFFFFF"/>
	<rect x="440.81" y="1874.02" width="629.86" height="450.06" style="fill:none;stroke:#FFFFFF;stroke-width:3.00"/>
	<line x1="439.31" y1="2293.90" x2="1072.17" y2="2293.90" style="stroke:#EAF2F3;stroke-width:4.32"/>
	<line x1="439.31" y1="2290.31" x2="1072.17" y2="2290.31" style="stroke:#EAF2F3;stroke-width:4.32"/>
	<line x1="439.31" y1="2286.60" x2="1072.17" y2="2286.60" style="stroke:#EAF2F3;stroke-width:4.32"/>
	<line x1="439.31" y1="2283.01" x2="1072.17" y2="2283.01" style="stroke:#EAF2F3;stroke-width:4.32"/>
	<line x1="439.31" y1="2279.30" x2="1072.17" y2="2279.30" style="stroke:#EAF2F3;stroke-width:4.32"/>
	<path d=" M725.79 2293.90 L826.40 2293.90 L826.40 2282.52 L854.74 2282.52 L854.74 2271.01 L917.73 2271.01 L917.73 2259.62 L933.45 2259.62 L933.45 2248.11 L983.81 2248.11 L983.81 2236.60 L999.53 2236.60 L999.53 2225.22 L1012.15 2225.22 L1012.15 2202.32 L1015.25 2202.32 L1015.25 2190.81 L1018.34 2190.81 L1018.34 2179.31 L1024.65 2179.31 L1024.65 2167.92 L1030.96 2167.92 L1030.96 2156.41 L1040.37 2156.41 L1040.37 1904.32" stroke-linejoin="round" style="fill:none;stroke:#FF0000;stroke-width:4.32"/>
	<path d=" M936.54 2279.67 L971.19 2279.67 L971.19 2265.31 L1015.25 2265.31 L1015.25 2250.96 L1024.65 2250.96 L1024.65 2236.60 L1027.87 2236.60 L1027.87 2222.25 L1040.37 2222.25 L1040.37 1906.55" stroke-linejoin="round" style="fill:none;stroke:#0000FF;stroke-width:4.32"/>
	<line x1="439.31" y1="2325.58" x2="439.31" y2="1872.52" style="stroke:#000000;stroke-width:3.00"/>
	<line x1="439.31" y1="2293.90" x2="419.26" y2="2293.90" style="stroke:#000000;stroke-width:3.00"/>
	<text x="409.24" y="2311.43" style="font-family:'Helvetica';font-size:49.99px;fill:#000000" text-anchor="end">0.000</text>
	<line x1="439.31" y1="2290.31" x2="419.26" y2="2290.31" style="stroke:#000000;stroke-width:3.00"/>
	<text x="409.24" y="2307.84" style="font-family:'Helvetica';font-size:49.99px;fill:#000000" text-anchor="end">0.002</text>
	<line x1="439.31" y1="2286.60" x2="419.26" y2="2286.60" style="stroke:#000000;stroke-width:3.00"/>
	<text x="409.24" y="2304.13" style="font-family:'Helvetica';font-size:49.99px;fill:#000000" text-anchor="end">0.004</text>
	<line x1="439.31" y1="2283.01" x2="419.26" y2="2283.01" style="stroke:#000000;stroke-width:3.00"/>
	<text x="409.24" y="2300.54" style="font-family:'Helvetica';font-size:49.99px;fill:#000000" text-anchor="end">0.006</text>
	<line x1="439.31" y1="2279.30" x2="419.26" y2="2279.30" style="stroke:#000000;stroke-width:3.00"/>
	<text x="409.24" y="2296.83" style="font-family:'Helvetica';font-size:49.99px;fill:#000000" text-anchor="end">0.008</text>
	<line x1="439.31" y1="2325.58" x2="1072.17" y2="2325.58" style="stroke:#000000;stroke-width:3.00"/>
	<line x1="470.99" y1="2325.58" x2="470.99" y2="2345.63" style="stroke:#000000;stroke-width:3.00"/>
	<text x="470.99" y="2390.47" style="font-family:'Helvetica';font-size:49.99px;fill:#000000" text-anchor="middle">1 Feb 20</text>
	<line x1="562.20" y1="2325.58" x2="562.20" y2="2345.63" style="stroke:#000000;stroke-width:3.00"/>
	<text x="562.20" y="2390.47" style="font-family:'Helvetica';font-size:49.99px;fill:#000000" text-anchor="middle">1 Mar 20</text>
	<line x1="659.71" y1="2325.58" x2="659.71" y2="2345.63" style="stroke:#000000;stroke-width:3.00"/>
	<text x="659.71" y="2390.47" style="font-family:'Helvetica';font-size:49.99px;fill:#000000" text-anchor="middle">1 Apr 20</text>
	<line x1="757.35" y1="2325.58" x2="757.35" y2="2345.63" style="stroke:#000000;stroke-width:3.00"/>
	<text x="757.35" y="2390.47" style="font-family:'Helvetica';font-size:49.99px;fill:#000000" text-anchor="middle">1 May 20</text>
	<line x1="854.87" y1="2325.58" x2="854.87" y2="2345.63" style="stroke:#000000;stroke-width:3.00"/>
	<text x="854.87" y="2390.47" style="font-family:'Helvetica';font-size:49.99px;fill:#000000" text-anchor="middle">1 Jun 20</text>
	<line x1="949.29" y1="2325.58" x2="949.29" y2="2345.63" style="stroke:#000000;stroke-width:3.00"/>
	<text x="949.29" y="2390.47" style="font-family:'Helvetica';font-size:49.99px;fill:#000000" text-anchor="middle">1 Jul 20</text>
	<text x="755.74" y="2438.52" style="font-family:'Helvetica';font-size:39.97px;fill:#000000" text-anchor="middle">Days since 1 Feb 2020</text>
	<text x="755.74" y="1842.91" style="font-family:'Helvetica';font-size:70.04px;fill:#1E2D53" text-anchor="middle">eth9</text>
	<rect x="1122.54" y="1734.91" width="924.66" height="776.06" style="fill:#EAF2F3"/>
	<rect x="1124.04" y="1736.41" width="921.66" height="773.06" style="fill:none;stroke:#EAF2F3;stroke-width:3.00"/>
	<rect x="1363.97" y="1872.52" width="632.86" height="453.06" style="fill:#FFFFFF"/>
	<rect x="1365.47" y="1874.02" width="629.86" height="450.06" style="fill:none;stroke:#FFFFFF;stroke-width:3.00"/>
	<line x1="1363.97" y1="2293.90" x2="1996.83" y2="2293.90" style="stroke:#EAF2F3;stroke-width:4.32"/>
	<line x1="1363.97" y1="2290.19" x2="1996.83" y2="2290.19" style="stroke:#EAF2F3;stroke-width:4.32"/>
	<line x1="1363.97" y1="2286.48" x2="1996.83" y2="2286.48" style="stroke:#EAF2F3;stroke-width:4.32"/>
	<line x1="1363.97" y1="2282.64" x2="1996.83" y2="2282.64" style="stroke:#EAF2F3;stroke-width:4.32"/>
	<line x1="1363.97" y1="2278.93" x2="1996.83" y2="2278.93" style="stroke:#EAF2F3;stroke-width:4.32"/>
	<path d=" M1477.33 2293.28 L1480.55 2293.28 L1480.55 2293.28 L1502.57 2293.28 L1502.57 2292.66 L1587.46 2292.66 L1587.46 2292.05 L1596.87 2292.05 L1596.87 2292.05 L1612.71 2292.05 L1612.71 2292.05 L1622.12 2292.05 L1622.12 2291.30 L1644.14 2291.30 L1644.14 2290.68 L1675.58 2290.68 L1675.58 2290.68 L1678.79 2290.68 L1678.79 2290.07 L1688.20 2290.07 L1688.20 2290.07 L1713.32 2290.07 L1713.32 2289.45 L1735.35 2289.45 L1735.35 2288.70 L1747.97 2288.70 L1747.97 2287.47 L1754.28 2287.47 L1754.28 2286.72 L1763.68 2286.72 L1763.68 2286.11 L1766.78 2286.11 L1766.78 2285.49 L1782.62 2285.49 L1782.62 2284.87 L1785.71 2284.87 L1785.71 2283.51 L1788.81 2283.51 L1788.81 2282.89 L1795.12 2282.89 L1795.12 2280.91 L1798.34 2280.91 L1798.34 2280.29 L1801.43 2280.29 L1801.43 2278.93 L1810.83 2278.93 L1810.83 2277.69 L1814.05 2277.69 L1814.05 2276.95 L1817.14 2276.95 L1817.14 2276.33 L1820.36 2276.33 L1820.36 2275.71 L1823.46 2275.71 L1823.46 2274.35 L1826.67 2274.35 L1826.67 2273.11 L1832.86 2273.11 L1832.86 2272.37 L1836.08 2272.37 L1836.08 2271.75 L1839.17 2271.75 L1839.17 2271.13 L1842.39 2271.13 L1842.39 2270.39 L1848.70 2270.39 L1848.70 2269.77 L1858.11 2269.77 L1858.11 2268.53 L1861.20 2268.53 L1861.20 2266.55 L1864.42 2266.55 L1864.42 2265.81 L1867.51 2265.81 L1867.51 2265.19 L1870.73 2265.19 L1870.73 2261.97 L1873.82 2261.97 L1873.82 2258.63 L1876.92 2258.63 L1876.92 2256.78 L1880.13 2256.78 L1880.13 2256.03 L1883.23 2256.03 L1883.23 2254.05 L1886.44 2254.05 L1886.44 2252.82 L1889.54 2252.82 L1889.54 2250.84 L1895.85 2250.84 L1895.85 2248.86 L1898.94 2248.86 L1898.94 2248.24 L1902.16 2248.24 L1902.16 2246.88 L1905.26 2246.88 L1905.26 2242.30 L1908.47 2242.30 L1908.47 2241.06 L1911.57 2241.06 L1911.57 2240.44 L1914.78 2240.44 L1914.78 2234.50 L1917.88 2234.50 L1917.88 2232.52 L1920.97 2232.52 L1920.97 2231.28 L1924.19 2231.28 L1924.19 2227.32 L1927.28 2227.32 L1927.28 2225.34 L1930.50 2225.34 L1930.50 2222.12 L1933.59 2222.12 L1933.59 2221.38 L1936.81 2221.38 L1936.81 2218.16 L1939.90 2218.16 L1939.90 2216.18 L1943.00 2216.18 L1943.00 2212.22 L1946.22 2212.22 L1946.22 2206.41 L1949.31 2206.41 L1949.31 2203.07 L1952.53 2203.07 L1952.53 2199.23 L1955.62 2199.23 L1955.62 2195.27 L1958.84 2195.27 L1958.84 2192.05 L1961.93 2192.05 L1961.93 2188.09 L1965.03 2188.09 L1965.03 1928.58" stroke-linejoin="round" style="fill:none;stroke:#FF0000;stroke-width:4.32"/>
	<path d=" M1439.58 2293.90 L1477.33 2293.90 L1477.33 2293.28 L1496.26 2293.28 L1496.26 2292.66 L1518.29 2292.66 L1518.29 2291.92 L1552.82 2291.92 L1552.82 2291.30 L1609.49 2291.30 L1609.49 2290.56 L1612.71 2290.56 L1612.71 2290.56 L1640.92 2290.56 L1640.92 2289.94 L1666.17 2289.94 L1666.17 2289.32 L1678.79 2289.32 L1678.79 2289.32 L1697.60 2289.32 L1697.60 2288.58 L1713.32 2288.58 L1713.32 2287.96 L1735.35 2287.96 L1735.35 2287.22 L1738.56 2287.22 L1738.56 2286.60 L1741.66 2286.60 L1741.66 2285.98 L1744.75 2285.98 L1744.75 2285.24 L1754.28 2285.24 L1754.28 2285.24 L1766.78 2285.24 L1766.78 2284.62 L1776.31 2284.62 L1776.31 2283.88 L1785.71 2283.88 L1785.71 2283.26 L1788.81 2283.26 L1788.81 2281.28 L1798.34 2281.28 L1798.34 2280.54 L1810.83 2280.54 L1810.83 2279.17 L1814.05 2279.17 L1814.05 2278.56 L1817.14 2278.56 L1817.14 2277.94 L1823.46 2277.94 L1823.46 2276.58 L1826.67 2276.58 L1826.67 2275.83 L1829.77 2275.83 L1829.77 2273.85 L1832.86 2273.85 L1832.86 2273.23 L1842.39 2273.23 L1842.39 2272.49 L1845.48 2272.49 L1845.48 2271.25 L1848.70 2271.25 L1848.70 2269.15 L1851.80 2269.15 L1851.80 2267.17 L1854.89 2267.17 L1854.89 2266.55 L1858.11 2266.55 L1858.11 2265.81 L1861.20 2265.81 L1861.20 2264.45 L1864.42 2264.45 L1864.42 2263.83 L1867.51 2263.83 L1867.51 2263.21 L1870.73 2263.21 L1870.73 2261.85 L1873.82 2261.85 L1873.82 2259.87 L1876.92 2259.87 L1876.92 2258.51 L1880.13 2258.51 L1880.13 2257.77 L1883.23 2257.77 L1883.23 2257.15 L1886.44 2257.15 L1886.44 2255.79 L1889.54 2255.79 L1889.54 2255.17 L1892.76 2255.17 L1892.76 2253.19 L1895.85 2253.19 L1895.85 2251.08 L1898.94 2251.08 L1898.94 2247.74 L1902.16 2247.74 L1902.16 2246.38 L1905.26 2246.38 L1905.26 2243.04 L1908.47 2243.04 L1908.47 2242.42 L1911.57 2242.42 L1911.57 2239.08 L1914.78 2239.08 L1914.78 2234.38 L1917.88 2234.38 L1917.88 2231.65 L1920.97 2231.65 L1920.97 2231.03 L1924.19 2231.03 L1924.19 2226.33 L1927.28 2226.33 L1927.28 2222.37 L1933.59 2222.37 L1933.59 2215.69 L1936.81 2215.69 L1936.81 2209.63 L1939.90 2209.63 L1939.90 2206.90 L1943.00 2206.90 L1943.00 2202.94 L1946.22 2202.94 L1946.22 2200.22 L1949.31 2200.22 L1949.31 2197.50 L1952.53 2197.50 L1952.53 2192.92 L1955.62 2192.92 L1955.62 2190.20 L1958.84 2190.20 L1958.84 2186.85 L1961.93 2186.85 L1961.93 2183.51 L1965.03 2183.51 L1965.03 1904.32" stroke-linejoin="round" style="fill:none;stroke:#0000FF;stroke-width:4.32"/>
	<line x1="1363.97" y1="2325.58" x2="1363.97" y2="1872.52" style="stroke:#000000;stroke-width:3.00"/>
	<line x1="1363.97" y1="2293.90" x2="1343.92" y2="2293.90" style="stroke:#000000;stroke-width:3.00"/>
	<text x="1333.90" y="2311.43" style="font-family:'Helvetica';font-size:49.99px;fill:#000000" text-anchor="end">0.000</text>
	<line x1="1363.97" y1="2290.19" x2="1343.92" y2="2290.19" style="stroke:#000000;stroke-width:3.00"/>
	<text x="1333.90" y="2307.72" style="font-family:'Helvetica';font-size:49.99px;fill:#000000" text-anchor="end">0.002</text>
	<line x1="1363.97" y1="2286.48" x2="1343.92" y2="2286.48" style="stroke:#000000;stroke-width:3.00"/>
	<text x="1333.90" y="2304.01" style="font-family:'Helvetica';font-size:49.99px;fill:#000000" text-anchor="end">0.004</text>
	<line x1="1363.97" y1="2282.64" x2="1343.92" y2="2282.64" style="stroke:#000000;stroke-width:3.00"/>
	<text x="1333.90" y="2300.17" style="font-family:'Helvetica';font-size:49.99px;fill:#000000" text-anchor="end">0.006</text>
	<line x1="1363.97" y1="2278.93" x2="1343.92" y2="2278.93" style="stroke:#000000;stroke-width:3.00"/>
	<text x="1333.90" y="2296.46" style="font-family:'Helvetica';font-size:49.99px;fill:#000000" text-anchor="end">0.008</text>
	<line x1="1363.97" y1="2325.58" x2="1996.83" y2="2325.58" style="stroke:#000000;stroke-width:3.00"/>
	<line x1="1395.65" y1="2325.58" x2="1395.65" y2="2345.63" style="stroke:#000000;stroke-width:3.00"/>
	<text x="1395.65" y="2390.47" style="font-family:'Helvetica';font-size:49.99px;fill:#000000" text-anchor="middle">1 Feb 20</text>
	<line x1="1486.86" y1="2325.58" x2="1486.86" y2="2345.63" style="stroke:#000000;stroke-width:3.00"/>
	<text x="1486.86" y="2390.47" style="font-family:'Helvetica';font-size:49.99px;fill:#000000" text-anchor="middle">1 Mar 20</text>
	<line x1="1584.37" y1="2325.58" x2="1584.37" y2="2345.63" style="stroke:#000000;stroke-width:3.00"/>
	<text x="1584.37" y="2390.47" style="font-family:'Helvetica';font-size:49.99px;fill:#000000" text-anchor="middle">1 Apr 20</text>
	<line x1="1681.89" y1="2325.58" x2="1681.89" y2="2345.63" style="stroke:#000000;stroke-width:3.00"/>
	<text x="1681.89" y="2390.47" style="font-family:'Helvetica';font-size:49.99px;fill:#000000" text-anchor="middle">1 May 20</text>
	<line x1="1779.53" y1="2325.58" x2="1779.53" y2="2345.63" style="stroke:#000000;stroke-width:3.00"/>
	<text x="1779.53" y="2390.47" style="font-family:'Helvetica';font-size:49.99px;fill:#000000" text-anchor="middle">1 Jun 20</text>
	<line x1="1873.95" y1="2325.58" x2="1873.95" y2="2345.63" style="stroke:#000000;stroke-width:3.00"/>
	<text x="1873.95" y="2390.47" style="font-family:'Helvetica';font-size:49.99px;fill:#000000" text-anchor="middle">1 Jul 20</text>
	<text x="1680.40" y="2438.52" style="font-family:'Helvetica';font-size:39.97px;fill:#000000" text-anchor="middle">Days since 1 Feb 2020</text>
	<text x="1680.40" y="1842.91" style="font-family:'Helvetica';font-size:70.04px;fill:#1E2D53" text-anchor="middle">eth10</text>
	<rect x="2047.20" y="1734.91" width="924.66" height="776.06" style="fill:#EAF2F3"/>
	<rect x="2048.70" y="1736.41" width="921.66" height="773.06" style="fill:none;stroke:#EAF2F3;stroke-width:3.00"/>
	<rect x="2288.51" y="1872.52" width="632.98" height="453.06" style="fill:#FFFFFF"/>
	<rect x="2290.01" y="1874.02" width="629.98" height="450.06" style="fill:none;stroke:#FFFFFF;stroke-width:3.00"/>
	<line x1="2288.51" y1="2293.90" x2="2921.49" y2="2293.90" style="stroke:#EAF2F3;stroke-width:4.32"/>
	<line x1="2288.51" y1="2290.68" x2="2921.49" y2="2290.68" style="stroke:#EAF2F3;stroke-width:4.32"/>
	<line x1="2288.51" y1="2287.47" x2="2921.49" y2="2287.47" style="stroke:#EAF2F3;stroke-width:4.32"/>
	<line x1="2288.51" y1="2284.13" x2="2921.49" y2="2284.13" style="stroke:#EAF2F3;stroke-width:4.32"/>
	<line x1="2288.51" y1="2280.91" x2="2921.49" y2="2280.91" style="stroke:#EAF2F3;stroke-width:4.32"/>
	<path d=" M2726.09 2289.94 L2776.45 2289.94 L2776.45 2285.86 L2779.55 2285.86 L2779.55 2281.90 L2795.39 2281.90 L2795.39 2277.81 L2811.11 2277.81 L2811.11 2273.73 L2823.60 2273.73 L2823.60 2269.77 L2833.13 2269.77 L2833.13 2265.69 L2836.23 2265.69 L2836.23 2257.64 L2842.54 2257.64 L2842.54 2253.56 L2845.63 2253.56 L2845.63 2245.51 L2848.85 2245.51 L2848.85 2241.43 L2851.94 2241.43 L2851.94 2237.47 L2855.16 2237.47 L2855.16 2233.39 L2858.25 2233.39 L2858.25 2229.43 L2861.35 2229.43 L2861.35 2221.26 L2867.66 2221.26 L2867.66 2217.30 L2870.88 2217.30 L2870.88 2209.13 L2873.97 2209.13 L2873.97 2205.17 L2877.19 2205.17 L2877.19 2201.09 L2880.28 2201.09 L2880.28 2193.04 L2883.38 2193.04 L2883.38 2188.96 L2889.69 2188.96 L2889.69 1930.68" stroke-linejoin="round" style="fill:none;stroke:#FF0000;stroke-width:4.32"/>
	<path d=" M2625.36 2289.94 L2628.57 2289.94 L2628.57 2285.98 L2650.60 2285.98 L2650.60 2281.90 L2757.52 2281.90 L2757.52 2277.94 L2767.05 2277.94 L2767.05 2273.85 L2773.36 2273.85 L2773.36 2269.89 L2779.55 2269.89 L2779.55 2265.81 L2785.86 2265.81 L2785.86 2261.85 L2789.08 2261.85 L2789.08 2257.77 L2792.17 2257.77 L2792.17 2253.81 L2795.39 2253.81 L2795.39 2249.72 L2811.11 2249.72 L2811.11 2245.76 L2817.42 2245.76 L2817.42 2241.68 L2839.32 2241.68 L2839.32 2237.72 L2845.63 2237.72 L2845.63 2229.67 L2848.85 2229.67 L2848.85 2221.63 L2858.25 2221.63 L2858.25 2217.67 L2861.35 2217.67 L2861.35 2213.59 L2870.88 2213.59 L2870.88 2209.63 L2880.28 2209.63 L2880.28 2193.54 L2883.38 2193.54 L2883.38 2185.49 L2886.59 2185.49 L2886.59 2181.53 L2889.69 2181.53 L2889.69 1904.32" stroke-linejoin="round" style="fill:none;stroke:#0000FF;stroke-width:4.32"/>
	<line x1="2288.51" y1="2325.58" x2="2288.51" y2="1872.52" style="stroke:#000000;stroke-width:3.00"/>
	<line x1="2288.51" y1="2293.90" x2="2268.59" y2="2293.90" style="stroke:#000000;stroke-width:3.00"/>
	<text x="2258.56" y="2311.43" style="font-family:'Helvetica';font-size:49.99px;fill:#000000" text-anchor="end">0.000</text>
	<line x1="2288.51" y1="2290.68" x2="2268.59" y2="2290.68" style="stroke:#000000;stroke-width:3.00"/>
	<text x="2258.56" y="2308.21" style="font-family:'Helvetica';font-size:49.99px;fill:#000000" text-anchor="end">0.002</text>
	<line x1="2288.51" y1="2287.47" x2="2268.59" y2="2287.47" style="stroke:#000000;stroke-width:3.00"/>
	<text x="2258.56" y="2305.00" style="font-family:'Helvetica';font-size:49.99px;fill:#000000" text-anchor="end">0.004</text>
	<line x1="2288.51" y1="2284.13" x2="2268.59" y2="2284.13" style="stroke:#000000;stroke-width:3.00"/>
	<text x="2258.56" y="2301.65" style="font-family:'Helvetica';font-size:49.99px;fill:#000000" text-anchor="end">0.006</text>
	<line x1="2288.51" y1="2280.91" x2="2268.59" y2="2280.91" style="stroke:#000000;stroke-width:3.00"/>
	<text x="2258.56" y="2298.44" style="font-family:'Helvetica';font-size:49.99px;fill:#000000" text-anchor="end">0.008</text>
	<line x1="2288.51" y1="2325.58" x2="2921.49" y2="2325.58" style="stroke:#000000;stroke-width:3.00"/>
	<line x1="2320.19" y1="2325.58" x2="2320.19" y2="2345.63" style="stroke:#000000;stroke-width:3.00"/>
	<text x="2320.19" y="2390.47" style="font-family:'Helvetica';font-size:49.99px;fill:#000000" text-anchor="middle">1 Feb 20</text>
	<line x1="2411.52" y1="2325.58" x2="2411.52" y2="2345.63" style="stroke:#000000;stroke-width:3.00"/>
	<text x="2411.52" y="2390.47" style="font-family:'Helvetica';font-size:49.99px;fill:#000000" text-anchor="middle">1 Mar 20</text>
	<line x1="2509.03" y1="2325.58" x2="2509.03" y2="2345.63" style="stroke:#000000;stroke-width:3.00"/>
	<text x="2509.03" y="2390.47" style="font-family:'Helvetica';font-size:49.99px;fill:#000000" text-anchor="middle">1 Apr 20</text>
	<line x1="2606.55" y1="2325.58" x2="2606.55" y2="2345.63" style="stroke:#000000;stroke-width:3.00"/>
	<text x="2606.55" y="2390.47" style="font-family:'Helvetica';font-size:49.99px;fill:#000000" text-anchor="middle">1 May 20</text>
	<line x1="2704.18" y1="2325.58" x2="2704.18" y2="2345.63" style="stroke:#000000;stroke-width:3.00"/>
	<text x="2704.18" y="2390.47" style="font-family:'Helvetica';font-size:49.99px;fill:#000000" text-anchor="middle">1 Jun 20</text>
	<line x1="2798.48" y1="2325.58" x2="2798.48" y2="2345.63" style="stroke:#000000;stroke-width:3.00"/>
	<text x="2798.48" y="2390.47" style="font-family:'Helvetica';font-size:49.99px;fill:#000000" text-anchor="middle">1 Jul 20</text>
	<text x="2605.06" y="2438.52" style="font-family:'Helvetica';font-size:39.97px;fill:#000000" text-anchor="middle">Days since 1 Feb 2020</text>
	<text x="2605.06" y="1842.91" style="font-family:'Helvetica';font-size:70.04px;fill:#1E2D53" text-anchor="middle">eth11</text>
	<text x="150.62" y="1346.81" style="font-family:'Helvetica';font-size:99.99px;fill:#000000" transform="rotate(-90 150.62,1346.81)" text-anchor="middle">Cumulative probability of confirmed by ethnic group and sex</text>
	<text x="2047.20" y="132.39" style="font-family:'Helvetica';font-size:110.01px;fill:#000000" text-anchor="middle"></text>
	<rect x="1198.64" y="2545.49" width="1697.11" height="236.62" style="fill:#FFFFFF"/>
	<rect x="1201.52" y="2548.37" width="1691.35" height="230.86" style="fill:none;stroke:#000000;stroke-width:5.76"/>
	<line x1="1241.83" y1="2705.14" x2="1616.17" y2="2705.14" style="stroke:#FF0000;stroke-width:8.64"/>
	<line x1="2096.20" y1="2705.14" x2="2470.55" y2="2705.14" style="stroke:#0000FF;stroke-width:8.64"/>
	<text x="1676.19" y="2733.15" style="font-family:'Helvetica';font-size:79.94px;fill:#000000">Female</text>
	<text x="2530.56" y="2733.15" style="font-family:'Helvetica';font-size:79.94px;fill:#000000">Male</text>
	<text x="2047.20" y="2621.44" style="font-family:'Helvetica';font-size:79.94px;fill:#000000" text-anchor="middle">Sex</text>
</svg>
