<?xml version="1.0" encoding="UTF-8" standalone="no"?>
<!-- This is a Stata 16.1 generated SVG file (http://www.stata.com) -->

<svg version="1.1" width="5.50in" height="4.00in" viewBox="0 0 3960 2880" xmlns="http://www.w3.org/2000/svg" xmlns:xlink="http://www.w3.org/1999/xlink">
	<desc>Stata Graph - Graph</desc>
	<rect x="0" y="0" width="3960" height="2880" style="fill:#EAF2F3;stroke:none"/>
	<rect x="0.00" y="0.00" width="3959.88" height="2880.00" style="fill:#EAF2F3"/>
	<rect x="2.88" y="2.88" width="3954.12" height="2874.24" style="fill:none;stroke:#EAF2F3;stroke-width:5.76"/>
	<rect x="465.67" y="275.35" width="3393.35" height="1278.38" style="fill:#FFFFFF"/>
	<rect x="468.55" y="278.23" width="3387.59" height="1272.62" style="fill:none;stroke:#FFFFFF;stroke-width:5.76"/>
	<line x1="465.67" y1="1490.37" x2="3859.02" y2="1490.37" style="stroke:#EAF2F3;stroke-width:8.64"/>
	<line x1="465.67" y1="1484.18" x2="3859.02" y2="1484.18" style="stroke:#EAF2F3;stroke-width:8.64"/>
	<line x1="465.67" y1="1477.99" x2="3859.02" y2="1477.99" style="stroke:#EAF2F3;stroke-width:8.64"/>
	<line x1="465.67" y1="1471.80" x2="3859.02" y2="1471.80" style="stroke:#EAF2F3;stroke-width:8.64"/>
	<line x1="465.67" y1="1465.62" x2="3859.02" y2="1465.62" style="stroke:#EAF2F3;stroke-width:8.64"/>
	<path d=" M529.03 1490.37 L529.03 1490.37 L529.03 1490.37 L529.03 1490.37 L529.03 1490.37 L529.03 1490.37 L529.03 1490.37 L529.03 1490.37 L529.03 1490.37 L529.03 1490.37 L529.03 1490.37 L529.03 1490.37 L529.03 1490.37 L529.03 1490.37 L529.03 1490.37 L529.03 1490.37 L529.03 1490.37 L529.03 1490.37 L529.03 1490.37 L529.03 1490.37 L529.03 1490.37 L709.46 1490.37 L709.46 1490.37 L1629.91 1490.37 L1629.91 1490.37 L2387.88 1490.37 L2387.88 1490.37 L2586.50 1490.37 L2586.50 1485.79 L2604.57 1485.79 L2604.57 1481.09 L2893.28 1481.09 L2893.28 1476.38 L2929.41 1476.38 L2929.41 1471.68 L3254.25 1471.68 L3254.25 1466.98 L3308.33 1466.98 L3308.33 1462.28 L3344.47 1462.28 L3344.47 1457.70 L3362.53 1457.70 L3362.53 1438.89 L3398.67 1438.89 L3398.67 1424.90 L3470.82 1424.90 L3470.82 1415.50 L3506.95 1415.50 L3506.95 1410.79 L3524.89 1410.79 L3524.89 1406.09 L3542.96 1406.09 L3542.96 1401.39 L3561.03 1401.39 L3561.03 1392.11 L3597.16 1392.11 L3597.16 1387.40 L3615.23 1387.40 L3615.23 1373.30 L3633.18 1373.30 L3633.18 1364.02 L3651.24 1364.02 L3651.24 1359.31 L3687.38 1359.31 L3687.38 1349.91 L3723.51 1349.91 L3723.51 1345.20 L3741.46 1345.20 L3741.46 1331.22 L3759.53 1331.22 L3759.53 1326.52 L3777.59 1326.52 L3777.59 1321.82 L3795.66 1321.82 L3795.66 1017.38" stroke-linejoin="round" style="fill:none;stroke:#1A476F;stroke-width:8.64"/>
	<path d=" M529.03 1490.37 L529.03 1490.37 L529.03 1490.37 L529.03 1490.37 L529.03 1490.37 L529.03 1490.37 L529.03 1490.37 L529.03 1490.37 L529.03 1490.37 L529.03 1490.37 L529.03 1490.37 L529.03 1490.37 L529.03 1490.37 L529.03 1490.37 L529.03 1490.37 L529.03 1490.37 L529.03 1490.37 L529.03 1490.37 L529.03 1490.37 L529.03 1490.37 L529.03 1490.37 L1377.21 1490.37 L1377.21 1490.37 L2424.01 1490.37 L2424.01 1490.37 L2929.41 1490.37 L2929.41 1466.24 L3561.03 1466.24 L3561.03 1441.98 L3687.38 1441.98 L3687.38 1417.72 L3723.51 1417.72 L3723.51 1393.59 L3759.53 1393.59 L3759.53 1369.34 L3795.66 1369.34 L3795.66 909.10" stroke-linejoin="round" style="fill:none;stroke:#90353B;stroke-width:8.64"/>
	<path d=" M529.03 1490.37 L529.03 1490.37 L529.03 1490.37 L529.03 1490.37 L529.03 1490.37 L529.03 1490.37 L529.03 1490.37 L529.03 1490.37 L529.03 1490.37 L529.03 1490.37 L529.03 1490.37 L529.03 1490.37 L529.03 1490.37 L529.03 1490.37 L529.03 1490.37 L529.03 1490.37 L529.03 1490.37 L529.03 1490.37 L529.03 1490.37 L529.03 1490.37 L529.03 1490.37 L3290.26 1490.37 L3290.26 1447.92 L3362.53 1447.92 L3362.53 1405.47 L3398.67 1405.47 L3398.67 1363.03 L3615.23 1363.03 L3615.23 1320.58 L3741.46 1320.58 L3741.46 1278.01 L3795.66 1278.01 L3795.66 768.39" stroke-linejoin="round" style="fill:none;stroke:#55752F;stroke-width:8.64"/>
	<path d=" M529.03 1490.37 L529.03 1490.37 L529.03 1490.37 L529.03 1490.37 L529.03 1490.37 L529.03 1490.37 L529.03 1490.37 L529.03 1490.37 L529.03 1490.37 L529.03 1490.37 L529.03 1490.37 L529.03 1490.37 L529.03 1490.37 L529.03 1490.37 L529.03 1490.37 L529.03 1490.37 L529.03 1490.37 L529.03 1490.37 L529.03 1490.37 L529.03 1490.37 L529.03 1490.37 L3633.18 1490.37 L3633.18 1446.19 L3795.66 1446.19 L3795.66 781.75" stroke-linejoin="round" style="fill:none;stroke:#E37E00;stroke-width:8.64"/>
	<path d=" M529.03 1490.37 L529.03 1490.37 L529.03 1490.37 L529.03 1490.37 L529.03 1490.37 L529.03 1490.37 L529.03 1490.37 L529.03 1490.37 L529.03 1490.37 L529.03 1490.37 L529.03 1490.37 L529.03 1490.37 L529.03 1490.37 L529.03 1490.37 L529.03 1490.37 L529.03 1490.37 L529.03 1490.37 L529.03 1490.37 L529.03 1490.37 L529.03 1490.37 L529.03 1490.37 L3055.76 1490.37 L3055.76 1390.37 L3669.31 1390.37 L3669.31 1190.39 L3795.66 1190.39 L3795.66 1090.40" stroke-linejoin="round" style="fill:none;stroke:#6E8E84;stroke-width:8.64"/>
	<path d=" M529.03 1490.37 L529.03 1490.37 L529.03 1490.37 L529.03 1490.37 L529.03 1490.37 L529.03 1490.37 L529.03 1490.37 L529.03 1490.37 L529.03 1490.37 L529.03 1490.37 L529.03 1490.37 L529.03 1490.37 L529.03 1490.37 L529.03 1490.37 L529.03 1490.37 L529.03 1490.37 L529.03 1490.37 L529.03 1490.37 L529.03 1490.37 L529.03 1490.37 L529.03 1490.37 L1882.61 1490.37 L1882.61 1366.37 L2333.80 1366.37 L2333.80 1242.37 L3037.69 1242.37 L3037.69 1118.36 L3091.77 1118.36 L3091.77 1118.36 L3795.66 1118.36 L3795.66 338.84" stroke-linejoin="round" style="fill:none;stroke:#C10534;stroke-width:8.64"/>
	<path d=" M529.03 1490.37 L529.03 1490.37 L529.03 1490.37 L529.03 1490.37 L529.03 1490.37 L529.03 1490.37 L529.03 1490.37 L529.03 1490.37 L529.03 1490.37 L529.03 1490.37 L529.03 1490.37 L529.03 1490.37 L529.03 1490.37 L529.03 1490.37 L529.03 1490.37 L529.03 1490.37 L529.03 1490.37 L529.03 1490.37 L529.03 1490.37 L529.03 1490.37 L529.03 1490.37 L3254.25 1490.37 L3254.25 1335.43 L3615.23 1335.43 L3615.23 1180.36 L3723.51 1180.36 L3723.51 1025.30 L3795.66 1025.30 L3795.66 715.30" stroke-linejoin="round" style="fill:none;stroke:#938DD2;stroke-width:8.64"/>
	<path d=" M529.03 1490.37 L529.03 1490.37 L529.03 1490.37 L529.03 1490.37 L529.03 1490.37 L529.03 1490.37 L529.03 1490.37 L529.03 1490.37 L529.03 1490.37 L529.03 1490.37 L529.03 1490.37 L529.03 1490.37 L529.03 1490.37 L529.03 1490.37 L529.03 1490.37 L529.03 1490.37 L529.03 1490.37 L529.03 1490.37 L529.03 1490.37 L529.03 1490.37 L529.03 1490.37 L3651.24 1490.37 L3651.24 1268.97 L3759.53 1268.97 L3759.53 1047.45 L3795.66 1047.45 L3795.66 383.02" stroke-linejoin="round" style="fill:none;stroke:#CAC27E;stroke-width:8.64"/>
	<path d=" M529.03 1490.37 L529.03 1490.37 L529.03 1490.37 L529.03 1490.37 L529.03 1490.37 L529.03 1490.37 L529.03 1490.37 L529.03 1490.37 L529.03 1490.37 L529.03 1490.37 L529.03 1490.37 L529.03 1490.37 L529.03 1490.37 L529.03 1490.37 L529.03 1490.37 L529.03 1490.37 L529.03 1490.37 L529.03 1490.37 L529.03 1490.37 L529.03 1490.37 L529.03 1490.37 L3795.66 1490.37 L3795.66 1145.96" stroke-linejoin="round" style="fill:none;stroke:#A0522D;stroke-width:8.64"/>
	<path d=" M529.03 1490.37 L529.03 1490.37 L529.03 1490.37 L529.03 1490.37 L529.03 1490.37 L529.03 1490.37 L529.03 1490.37 L529.03 1490.37 L529.03 1490.37 L529.03 1490.37 L529.03 1490.37 L529.03 1490.37 L529.03 1490.37 L529.03 1490.37 L529.03 1490.37 L529.03 1490.37 L529.03 1490.37 L529.03 1490.37 L529.03 1490.37 L529.03 1490.37 L529.03 1490.37 L2839.07 1490.37 L2839.07 1479.11 L3164.04 1479.11 L3164.04 1467.72 L3290.26 1467.72 L3290.26 1433.69 L3326.40 1433.69 L3326.40 1422.30 L3344.47 1422.30 L3344.47 1410.92 L3398.67 1410.92 L3398.67 1399.53 L3579.10 1399.53 L3579.10 1388.27 L3615.23 1388.27 L3615.23 1376.89 L3705.45 1376.89 L3705.45 1365.50 L3741.46 1365.50 L3741.46 1354.11 L3759.53 1354.11 L3759.53 1342.73 L3795.66 1342.73 L3795.66 877.17" stroke-linejoin="round" style="fill:none;stroke:#7B92A8;stroke-width:8.64"/>
	<path d=" M529.03 1490.37 L529.03 1490.37 L529.03 1490.37 L529.03 1490.37 L529.03 1490.37 L529.03 1490.37 L529.03 1490.37 L529.03 1490.37 L529.03 1490.37 L529.03 1490.37 L529.03 1490.37 L529.03 1490.37 L529.03 1490.37 L529.03 1490.37 L529.03 1490.37 L529.03 1490.37 L529.03 1490.37 L529.03 1490.37 L529.03 1490.37 L529.03 1490.37 L529.03 1490.37 L3398.67 1490.37 L3398.67 1421.56 L3723.51 1421.56 L3723.51 1352.63 L3795.66 1352.63 L3795.66 870.36" stroke-linejoin="round" style="fill:none;stroke:#2D6D66;stroke-width:8.64"/>
	<line x1="465.67" y1="1553.73" x2="465.67" y2="275.35" style="stroke:#000000;stroke-width:5.76"/>
	<line x1="465.67" y1="1490.37" x2="425.70" y2="1490.37" style="stroke:#000000;stroke-width:5.76"/>
	<text x="405.78" y="1525.40" style="font-family:'Helvetica';font-size:99.99px;fill:#000000" text-anchor="end">0.000</text>
	<line x1="465.67" y1="1484.18" x2="425.70" y2="1484.18" style="stroke:#000000;stroke-width:5.76"/>
	<text x="405.78" y="1519.21" style="font-family:'Helvetica';font-size:99.99px;fill:#000000" text-anchor="end">0.002</text>
	<line x1="465.67" y1="1477.99" x2="425.70" y2="1477.99" style="stroke:#000000;stroke-width:5.76"/>
	<text x="405.78" y="1513.02" style="font-family:'Helvetica';font-size:99.99px;fill:#000000" text-anchor="end">0.004</text>
	<line x1="465.67" y1="1471.80" x2="425.70" y2="1471.80" style="stroke:#000000;stroke-width:5.76"/>
	<text x="405.78" y="1506.83" style="font-family:'Helvetica';font-size:99.99px;fill:#000000" text-anchor="end">0.006</text>
	<line x1="465.67" y1="1465.62" x2="425.70" y2="1465.62" style="stroke:#000000;stroke-width:5.76"/>
	<text x="405.78" y="1500.65" style="font-family:'Helvetica';font-size:99.99px;fill:#000000" text-anchor="end">0.008</text>
	<line x1="465.67" y1="1553.73" x2="3859.02" y2="1553.73" style="stroke:#000000;stroke-width:5.76"/>
	<line x1="529.03" y1="1553.73" x2="529.03" y2="1593.70" style="stroke:#000000;stroke-width:5.76"/>
	<text x="529.03" y="1683.68" style="font-family:'Helvetica';font-size:99.99px;fill:#000000" text-anchor="middle">1 Feb 20</text>
	<line x1="1052.49" y1="1553.73" x2="1052.49" y2="1593.70" style="stroke:#000000;stroke-width:5.76"/>
	<text x="1052.49" y="1683.68" style="font-family:'Helvetica';font-size:99.99px;fill:#000000" text-anchor="middle">1 Mar 20</text>
	<line x1="1611.97" y1="1553.73" x2="1611.97" y2="1593.70" style="stroke:#000000;stroke-width:5.76"/>
	<text x="1611.97" y="1683.68" style="font-family:'Helvetica';font-size:99.99px;fill:#000000" text-anchor="middle">1 Apr 20</text>
	<line x1="2171.44" y1="1553.73" x2="2171.44" y2="1593.70" style="stroke:#000000;stroke-width:5.76"/>
	<text x="2171.44" y="1683.68" style="font-family:'Helvetica';font-size:99.99px;fill:#000000" text-anchor="middle">1 May 20</text>
	<line x1="2730.91" y1="1553.73" x2="2730.91" y2="1593.70" style="stroke:#000000;stroke-width:5.76"/>
	<text x="2730.91" y="1683.68" style="font-family:'Helvetica';font-size:99.99px;fill:#000000" text-anchor="middle">1 Jun 20</text>
	<line x1="3272.32" y1="1553.73" x2="3272.32" y2="1593.70" style="stroke:#000000;stroke-width:5.76"/>
	<text x="3272.32" y="1683.68" style="font-family:'Helvetica';font-size:99.99px;fill:#000000" text-anchor="middle">1 Jul 20</text>
	<text x="2162.41" y="1779.67" style="font-family:'Helvetica';font-size:79.94px;fill:#000000" text-anchor="middle">Days since 1 Feb 2020</text>
	<rect x="500.32" y="1858.29" width="3324.17" height="886.33" style="fill:#FFFFFF"/>
	<rect x="503.20" y="1861.17" width="3318.41" height="880.57" style="fill:none;stroke:#000000;stroke-width:5.76"/>
	<line x1="543.51" y1="1951.47" x2="900.40" y2="1951.47" style="stroke:#1A476F;stroke-width:8.64"/>
	<line x1="2451.49" y1="1951.47" x2="2808.51" y2="1951.47" style="stroke:#90353B;stroke-width:8.64"/>
	<line x1="543.51" y1="2091.44" x2="900.40" y2="2091.44" style="stroke:#55752F;stroke-width:8.64"/>
	<line x1="2451.49" y1="2091.44" x2="2808.51" y2="2091.44" style="stroke:#E37E00;stroke-width:8.64"/>
	<line x1="543.51" y1="2231.41" x2="900.40" y2="2231.41" style="stroke:#6E8E84;stroke-width:8.64"/>
	<line x1="2451.49" y1="2231.41" x2="2808.51" y2="2231.41" style="stroke:#C10534;stroke-width:8.64"/>
	<line x1="543.51" y1="2371.50" x2="900.40" y2="2371.50" style="stroke:#938DD2;stroke-width:8.64"/>
	<line x1="2451.49" y1="2371.50" x2="2808.51" y2="2371.50" style="stroke:#CAC27E;stroke-width:8.64"/>
	<line x1="543.51" y1="2511.46" x2="900.40" y2="2511.46" style="stroke:#A0522D;stroke-width:8.64"/>
	<line x1="2451.49" y1="2511.46" x2="2808.51" y2="2511.46" style="stroke:#7B92A8;stroke-width:8.64"/>
	<line x1="543.51" y1="2651.43" x2="900.40" y2="2651.43" style="stroke:#2D6D66;stroke-width:8.64"/>
	<text x="957.58" y="1986.50" style="font-family:'Helvetica';font-size:99.99px;fill:#000000">eth16 = British or Mixed British</text>
	<text x="2865.68" y="1986.50" style="font-family:'Helvetica';font-size:99.99px;fill:#000000">eth16 = Irish</text>
	<text x="957.58" y="2126.47" style="font-family:'Helvetica';font-size:99.99px;fill:#000000">eth16 = Other White</text>
	<text x="2865.68" y="2126.47" style="font-family:'Helvetica';font-size:99.99px;fill:#000000">eth16 = Indian</text>
	<text x="957.58" y="2266.43" style="font-family:'Helvetica';font-size:99.99px;fill:#000000">eth16 = Pakistani</text>
	<text x="2865.68" y="2266.43" style="font-family:'Helvetica';font-size:99.99px;fill:#000000">eth16 = Bangladeshi</text>
	<text x="957.58" y="2406.52" style="font-family:'Helvetica';font-size:99.99px;fill:#000000">eth16 = Caribbean</text>
	<text x="2865.68" y="2406.52" style="font-family:'Helvetica';font-size:99.99px;fill:#000000">eth16 = African</text>
	<text x="957.58" y="2546.49" style="font-family:'Helvetica';font-size:99.99px;fill:#000000">eth16 = Chinese</text>
	<text x="2865.68" y="2546.49" style="font-family:'Helvetica';font-size:99.99px;fill:#000000">eth16 = All mixed</text>
	<text x="957.58" y="2686.46" style="font-family:'Helvetica';font-size:99.99px;fill:#000000">eth16 = All Other</text>
	<text x="2162.41" y="215.98" style="font-family:'Helvetica';font-size:139.96px;fill:#1E2D53" text-anchor="middle">eth5</text>
</svg>
