<?xml version="1.0" encoding="UTF-8" standalone="no"?>
<!-- This is a Stata 16.1 generated SVG file (http://www.stata.com) -->

<svg version="1.1" width="5.50in" height="4.00in" viewBox="0 0 3960 2880" xmlns="http://www.w3.org/2000/svg" xmlns:xlink="http://www.w3.org/1999/xlink">
	<desc>Stata Graph - Graph</desc>
	<rect x="0" y="0" width="3960" height="2880" style="fill:#EAF2F3;stroke:none"/>
	<rect x="0.00" y="0.00" width="3959.88" height="2880.00" style="fill:#EAF2F3"/>
	<rect x="2.88" y="2.88" width="3954.12" height="2874.24" style="fill:none;stroke:#EAF2F3;stroke-width:5.76"/>
	<rect x="197.88" y="182.17" width="924.66" height="776.80" style="fill:#EAF2F3"/>
	<rect x="199.38" y="183.67" width="921.66" height="773.80" style="fill:none;stroke:#EAF2F3;stroke-width:3.00"/>
	<rect x="439.31" y="319.78" width="632.86" height="453.81" style="fill:#FFFFFF"/>
	<rect x="440.81" y="321.28" width="629.86" height="450.81" style="fill:none;stroke:#FFFFFF;stroke-width:3.00"/>
	<line x1="439.31" y1="741.90" x2="1072.17" y2="741.90" style="stroke:#EAF2F3;stroke-width:4.32"/>
	<line x1="439.31" y1="738.07" x2="1072.17" y2="738.07" style="stroke:#EAF2F3;stroke-width:4.32"/>
	<line x1="439.31" y1="734.11" x2="1072.17" y2="734.11" style="stroke:#EAF2F3;stroke-width:4.32"/>
	<line x1="439.31" y1="730.27" x2="1072.17" y2="730.27" style="stroke:#EAF2F3;stroke-width:4.32"/>
	<line x1="439.31" y1="726.44" x2="1072.17" y2="726.44" style="stroke:#EAF2F3;stroke-width:4.32"/>
	<path d=" M474.09 741.90 L496.11 741.90 L496.11 741.90 L502.30 741.90 L502.30 741.90 L521.24 741.90 L521.24 741.90 L543.26 741.90 L543.26 741.66 L577.91 741.66 L577.91 741.66 L634.47 741.66 L634.47 741.41 L647.09 741.41 L647.09 741.41 L656.49 741.41 L656.49 741.41 L662.80 741.41 L662.80 741.16 L669.12 741.16 L669.12 740.91 L725.79 740.91 L725.79 740.67 L732.11 740.67 L732.11 740.42 L741.51 740.42 L741.51 740.05 L766.63 740.05 L766.63 739.80 L772.94 739.80 L772.94 739.55 L779.25 739.55 L779.25 739.31 L794.97 739.31 L794.97 738.81 L798.19 738.81 L798.19 738.56 L801.28 738.56 L801.28 738.19 L813.90 738.19 L813.90 737.94 L817.00 737.94 L817.00 737.70 L829.62 737.70 L829.62 737.45 L835.93 737.45 L835.93 737.20 L839.02 737.20 L839.02 736.95 L842.24 736.95 L842.24 736.46 L845.34 736.46 L845.34 736.09 L848.43 736.09 L848.43 735.10 L854.74 735.10 L854.74 735.10 L857.96 735.10 L857.96 734.85 L861.05 734.85 L861.05 734.60 L864.27 734.60 L864.27 734.23 L873.67 734.23 L873.67 733.74 L876.77 733.74 L876.77 732.99 L879.99 732.99 L879.99 732.75 L883.08 732.75 L883.08 732.13 L892.49 732.13 L892.49 731.14 L895.70 731.14 L895.70 730.64 L898.80 730.64 L898.80 729.28 L902.01 729.28 L902.01 728.79 L905.11 728.79 L905.11 728.17 L908.33 728.17 L908.33 727.67 L911.42 727.67 L911.42 727.18 L914.51 727.18 L914.51 725.32 L917.73 725.32 L917.73 724.83 L920.82 724.83 L920.82 723.96 L924.04 723.96 L924.04 723.22 L927.13 723.22 L927.13 722.35 L930.35 722.35 L930.35 721.36 L933.45 721.36 L933.45 719.26 L936.54 719.26 L936.54 718.64 L939.76 718.64 L939.76 717.65 L942.85 717.65 L942.85 716.53 L946.07 716.53 L946.07 714.68 L949.16 714.68 L949.16 713.07 L952.38 713.07 L952.38 711.83 L955.47 711.83 L955.47 710.47 L958.57 710.47 L958.57 709.48 L961.78 709.48 L961.78 707.62 L964.88 707.62 L964.88 706.02 L968.10 706.02 L968.10 704.65 L971.19 704.65 L971.19 701.44 L974.41 701.44 L974.41 700.69 L977.50 700.69 L977.50 698.10 L980.60 698.10 L980.60 694.88 L983.81 694.88 L983.81 690.67 L986.91 690.67 L986.91 688.57 L990.12 688.57 L990.12 685.84 L993.22 685.84 L993.22 683.25 L996.31 683.25 L996.31 679.28 L999.53 679.28 L999.53 676.93 L1002.62 676.93 L1002.62 673.72 L1005.84 673.72 L1005.84 670.00 L1008.93 670.00 L1008.93 664.43 L1012.15 664.43 L1012.15 659.48 L1015.25 659.48 L1015.25 655.52 L1018.34 655.52 L1018.34 652.80 L1021.56 652.80 L1021.56 647.23 L1024.65 647.23 L1024.65 644.14 L1027.87 644.14 L1027.87 640.18 L1030.96 640.18 L1030.96 634.86 L1034.18 634.86 L1034.18 629.78 L1037.27 629.78 L1037.27 623.47 L1040.37 623.47 L1040.37 351.58" stroke-linejoin="round" style="fill:none;stroke:#FF0000;stroke-width:4.32"/>
	<path d=" M514.92 741.90 L558.98 741.90 L558.98 741.90 L606.13 741.90 L606.13 741.90 L615.66 741.90 L615.66 741.90 L640.78 741.90 L640.78 741.90 L703.77 741.90 L703.77 741.90 L725.79 741.90 L725.79 741.66 L732.11 741.66 L732.11 741.41 L744.60 741.41 L744.60 741.16 L779.25 741.16 L779.25 740.79 L788.66 740.79 L788.66 740.54 L794.97 740.54 L794.97 740.54 L798.19 740.54 L798.19 740.30 L804.38 740.30 L804.38 740.05 L817.00 740.05 L817.00 739.68 L823.31 739.68 L823.31 739.43 L826.40 739.43 L826.40 739.18 L832.71 739.18 L832.71 738.93 L835.93 738.93 L835.93 738.56 L839.02 738.56 L839.02 738.32 L851.65 738.32 L851.65 737.82 L854.74 737.82 L854.74 736.71 L861.05 736.71 L861.05 736.34 L864.27 736.34 L864.27 736.09 L867.36 736.09 L867.36 735.47 L870.46 735.47 L870.46 734.97 L873.67 734.97 L873.67 734.36 L876.77 734.36 L876.77 733.24 L879.99 733.24 L879.99 732.50 L883.08 732.50 L883.08 731.88 L886.30 731.88 L886.30 731.39 L889.39 731.39 L889.39 728.79 L892.49 728.79 L892.49 728.29 L895.70 728.29 L895.70 728.04 L898.80 728.04 L898.80 727.18 L902.01 727.18 L902.01 725.20 L905.11 725.20 L905.11 724.70 L908.33 724.70 L908.33 723.84 L911.42 723.84 L911.42 723.22 L914.51 723.22 L914.51 722.97 L917.73 722.97 L917.73 722.10 L920.82 722.10 L920.82 721.36 L924.04 721.36 L924.04 720.25 L927.13 720.25 L927.13 719.38 L930.35 719.38 L930.35 718.51 L933.45 718.51 L933.45 716.53 L936.54 716.53 L936.54 716.04 L939.76 716.04 L939.76 714.06 L942.85 714.06 L942.85 712.70 L946.07 712.70 L946.07 711.83 L949.16 711.83 L949.16 710.10 L952.38 710.10 L952.38 708.74 L955.47 708.74 L955.47 707.13 L958.57 707.13 L958.57 706.02 L961.78 706.02 L961.78 705.40 L964.88 705.40 L964.88 702.55 L968.10 702.55 L968.10 700.69 L971.19 700.69 L971.19 698.71 L974.41 698.71 L974.41 696.49 L977.50 696.49 L977.50 694.75 L980.60 694.75 L980.60 692.90 L983.81 692.90 L983.81 690.05 L986.91 690.05 L986.91 687.21 L990.12 687.21 L990.12 686.09 L993.22 686.09 L993.22 683.62 L996.31 683.62 L996.31 679.16 L999.53 679.16 L999.53 676.07 L1002.62 676.07 L1002.62 671.61 L1005.84 671.61 L1005.84 667.40 L1008.93 667.40 L1008.93 662.95 L1012.15 662.95 L1012.15 658.49 L1015.25 658.49 L1015.25 656.27 L1018.34 656.27 L1018.34 652.06 L1021.56 652.06 L1021.56 649.09 L1024.65 649.09 L1024.65 645.13 L1027.87 645.13 L1027.87 642.28 L1030.96 642.28 L1030.96 637.83 L1034.18 637.83 L1034.18 632.26 L1037.27 632.26 L1037.27 624.71 L1040.37 624.71 L1040.37 354.06" stroke-linejoin="round" style="fill:none;stroke:#0000FF;stroke-width:4.32"/>
	<line x1="439.31" y1="773.59" x2="439.31" y2="319.78" style="stroke:#000000;stroke-width:3.00"/>
	<line x1="439.31" y1="741.90" x2="419.26" y2="741.90" style="stroke:#000000;stroke-width:3.00"/>
	<text x="409.24" y="759.43" style="font-family:'Helvetica';font-size:49.99px;fill:#000000" text-anchor="end">0.000</text>
	<line x1="439.31" y1="738.07" x2="419.26" y2="738.07" style="stroke:#000000;stroke-width:3.00"/>
	<text x="409.24" y="755.60" style="font-family:'Helvetica';font-size:49.99px;fill:#000000" text-anchor="end">0.002</text>
	<line x1="439.31" y1="734.11" x2="419.26" y2="734.11" style="stroke:#000000;stroke-width:3.00"/>
	<text x="409.24" y="751.64" style="font-family:'Helvetica';font-size:49.99px;fill:#000000" text-anchor="end">0.004</text>
	<line x1="439.31" y1="730.27" x2="419.26" y2="730.27" style="stroke:#000000;stroke-width:3.00"/>
	<text x="409.24" y="747.80" style="font-family:'Helvetica';font-size:49.99px;fill:#000000" text-anchor="end">0.006</text>
	<line x1="439.31" y1="726.44" x2="419.26" y2="726.44" style="stroke:#000000;stroke-width:3.00"/>
	<text x="409.24" y="743.96" style="font-family:'Helvetica';font-size:49.99px;fill:#000000" text-anchor="end">0.008</text>
	<line x1="439.31" y1="773.59" x2="1072.17" y2="773.59" style="stroke:#000000;stroke-width:3.00"/>
	<line x1="470.99" y1="773.59" x2="470.99" y2="793.51" style="stroke:#000000;stroke-width:3.00"/>
	<text x="470.99" y="838.47" style="font-family:'Helvetica';font-size:49.99px;fill:#000000" text-anchor="middle">1 Feb 20</text>
	<line x1="562.20" y1="773.59" x2="562.20" y2="793.51" style="stroke:#000000;stroke-width:3.00"/>
	<text x="562.20" y="838.47" style="font-family:'Helvetica';font-size:49.99px;fill:#000000" text-anchor="middle">1 Mar 20</text>
	<line x1="659.71" y1="773.59" x2="659.71" y2="793.51" style="stroke:#000000;stroke-width:3.00"/>
	<text x="659.71" y="838.47" style="font-family:'Helvetica';font-size:49.99px;fill:#000000" text-anchor="middle">1 Apr 20</text>
	<line x1="757.35" y1="773.59" x2="757.35" y2="793.51" style="stroke:#000000;stroke-width:3.00"/>
	<text x="757.35" y="838.47" style="font-family:'Helvetica';font-size:49.99px;fill:#000000" text-anchor="middle">1 May 20</text>
	<line x1="854.87" y1="773.59" x2="854.87" y2="793.51" style="stroke:#000000;stroke-width:3.00"/>
	<text x="854.87" y="838.47" style="font-family:'Helvetica';font-size:49.99px;fill:#000000" text-anchor="middle">1 Jun 20</text>
	<line x1="949.29" y1="773.59" x2="949.29" y2="793.51" style="stroke:#000000;stroke-width:3.00"/>
	<text x="949.29" y="838.47" style="font-family:'Helvetica';font-size:49.99px;fill:#000000" text-anchor="middle">1 Jul 20</text>
	<text x="755.74" y="886.52" style="font-family:'Helvetica';font-size:39.97px;fill:#000000" text-anchor="middle">Days since 1 Feb 2020</text>
	<text x="755.74" y="290.17" style="font-family:'Helvetica';font-size:70.04px;fill:#1E2D53" text-anchor="middle">eth1</text>
	<rect x="1122.54" y="182.17" width="924.66" height="776.80" style="fill:#EAF2F3"/>
	<rect x="1124.04" y="183.67" width="921.66" height="773.80" style="fill:none;stroke:#EAF2F3;stroke-width:3.00"/>
	<rect x="1363.97" y="319.78" width="632.86" height="453.81" style="fill:#FFFFFF"/>
	<rect x="1365.47" y="321.28" width="629.86" height="450.81" style="fill:none;stroke:#FFFFFF;stroke-width:3.00"/>
	<line x1="1363.97" y1="741.90" x2="1996.83" y2="741.90" style="stroke:#EAF2F3;stroke-width:4.32"/>
	<line x1="1363.97" y1="738.07" x2="1996.83" y2="738.07" style="stroke:#EAF2F3;stroke-width:4.32"/>
	<line x1="1363.97" y1="734.11" x2="1996.83" y2="734.11" style="stroke:#EAF2F3;stroke-width:4.32"/>
	<line x1="1363.97" y1="730.27" x2="1996.83" y2="730.27" style="stroke:#EAF2F3;stroke-width:4.32"/>
	<line x1="1363.97" y1="726.44" x2="1996.83" y2="726.44" style="stroke:#EAF2F3;stroke-width:4.32"/>
	<path d=" M1411.24 740.67 L1414.46 740.67 L1414.46 740.67 L1530.79 740.67 L1530.79 740.67 L1543.41 740.67 L1543.41 740.67 L1603.18 740.67 L1603.18 740.67 L1681.89 740.67 L1681.89 739.31 L1713.32 739.31 L1713.32 737.94 L1722.72 737.94 L1722.72 736.58 L1738.56 736.58 L1738.56 735.22 L1741.66 735.22 L1741.66 733.98 L1763.68 733.98 L1763.68 732.62 L1770.00 732.62 L1770.00 731.26 L1782.62 731.26 L1782.62 729.90 L1814.05 729.90 L1814.05 728.54 L1820.36 728.54 L1820.36 727.30 L1832.86 727.30 L1832.86 725.94 L1845.48 725.94 L1845.48 724.58 L1851.80 724.58 L1851.80 721.86 L1854.89 721.86 L1854.89 719.26 L1858.11 719.26 L1858.11 716.53 L1861.20 716.53 L1861.20 713.94 L1864.42 713.94 L1864.42 712.57 L1867.51 712.57 L1867.51 711.21 L1873.82 711.21 L1873.82 708.49 L1880.13 708.49 L1880.13 700.45 L1883.23 700.45 L1883.23 699.21 L1889.54 699.21 L1889.54 696.49 L1892.76 696.49 L1892.76 695.13 L1895.85 695.13 L1895.85 693.76 L1898.94 693.76 L1898.94 692.53 L1908.47 692.53 L1908.47 691.17 L1911.57 691.17 L1911.57 689.80 L1914.78 689.80 L1914.78 683.12 L1917.88 683.12 L1917.88 681.76 L1920.97 681.76 L1920.97 677.80 L1924.19 677.80 L1924.19 676.44 L1927.28 676.44 L1927.28 673.72 L1930.50 673.72 L1930.50 669.76 L1933.59 669.76 L1933.59 665.80 L1936.81 665.80 L1936.81 660.35 L1939.90 660.35 L1939.90 649.71 L1943.00 649.71 L1943.00 645.75 L1946.22 645.75 L1946.22 640.30 L1949.31 640.30 L1949.31 636.34 L1952.53 636.34 L1952.53 629.66 L1955.62 629.66 L1955.62 622.98 L1958.84 622.98 L1958.84 610.97 L1961.93 610.97 L1961.93 604.29 L1965.03 604.29 L1965.03 351.58" stroke-linejoin="round" style="fill:none;stroke:#FF0000;stroke-width:4.32"/>
	<path d=" M1464.70 741.90 L1697.60 741.90 L1697.60 740.54 L1725.94 740.54 L1725.94 740.54 L1741.66 740.54 L1741.66 739.18 L1757.37 739.18 L1757.37 737.82 L1776.31 737.82 L1776.31 736.34 L1779.40 736.34 L1779.40 734.97 L1782.62 734.97 L1782.62 733.61 L1804.65 733.61 L1804.65 732.25 L1820.36 732.25 L1820.36 729.41 L1829.77 729.41 L1829.77 728.04 L1832.86 728.04 L1832.86 726.68 L1839.17 726.68 L1839.17 725.20 L1854.89 725.20 L1854.89 723.84 L1858.11 723.84 L1858.11 722.48 L1861.20 722.48 L1861.20 721.11 L1864.42 721.11 L1864.42 719.63 L1870.73 719.63 L1870.73 718.27 L1886.44 718.27 L1886.44 712.70 L1892.76 712.70 L1892.76 709.98 L1895.85 709.98 L1895.85 708.49 L1902.16 708.49 L1902.16 707.13 L1905.26 707.13 L1905.26 704.41 L1908.47 704.41 L1908.47 702.92 L1911.57 702.92 L1911.57 701.56 L1924.19 701.56 L1924.19 694.63 L1927.28 694.63 L1927.28 693.27 L1930.50 693.27 L1930.50 686.22 L1933.59 686.22 L1933.59 684.85 L1936.81 684.85 L1936.81 680.65 L1939.90 680.65 L1939.90 676.56 L1943.00 676.56 L1943.00 673.72 L1946.22 673.72 L1946.22 668.15 L1949.31 668.15 L1949.31 662.58 L1952.53 662.58 L1952.53 657.01 L1955.62 657.01 L1955.62 652.93 L1958.84 652.93 L1958.84 650.08 L1961.93 650.08 L1961.93 648.72 L1965.03 648.72 L1965.03 381.41" stroke-linejoin="round" style="fill:none;stroke:#0000FF;stroke-width:4.32"/>
	<line x1="1363.97" y1="773.59" x2="1363.97" y2="319.78" style="stroke:#000000;stroke-width:3.00"/>
	<line x1="1363.97" y1="741.90" x2="1343.92" y2="741.90" style="stroke:#000000;stroke-width:3.00"/>
	<text x="1333.90" y="759.43" style="font-family:'Helvetica';font-size:49.99px;fill:#000000" text-anchor="end">0.000</text>
	<line x1="1363.97" y1="738.07" x2="1343.92" y2="738.07" style="stroke:#000000;stroke-width:3.00"/>
	<text x="1333.90" y="755.60" style="font-family:'Helvetica';font-size:49.99px;fill:#000000" text-anchor="end">0.002</text>
	<line x1="1363.97" y1="734.11" x2="1343.92" y2="734.11" style="stroke:#000000;stroke-width:3.00"/>
	<text x="1333.90" y="751.64" style="font-family:'Helvetica';font-size:49.99px;fill:#000000" text-anchor="end">0.004</text>
	<line x1="1363.97" y1="730.27" x2="1343.92" y2="730.27" style="stroke:#000000;stroke-width:3.00"/>
	<text x="1333.90" y="747.80" style="font-family:'Helvetica';font-size:49.99px;fill:#000000" text-anchor="end">0.006</text>
	<line x1="1363.97" y1="726.44" x2="1343.92" y2="726.44" style="stroke:#000000;stroke-width:3.00"/>
	<text x="1333.90" y="743.96" style="font-family:'Helvetica';font-size:49.99px;fill:#000000" text-anchor="end">0.008</text>
	<line x1="1363.97" y1="773.59" x2="1996.83" y2="773.59" style="stroke:#000000;stroke-width:3.00"/>
	<line x1="1395.65" y1="773.59" x2="1395.65" y2="793.51" style="stroke:#000000;stroke-width:3.00"/>
	<text x="1395.65" y="838.47" style="font-family:'Helvetica';font-size:49.99px;fill:#000000" text-anchor="middle">1 Feb 20</text>
	<line x1="1486.86" y1="773.59" x2="1486.86" y2="793.51" style="stroke:#000000;stroke-width:3.00"/>
	<text x="1486.86" y="838.47" style="font-family:'Helvetica';font-size:49.99px;fill:#000000" text-anchor="middle">1 Mar 20</text>
	<line x1="1584.37" y1="773.59" x2="1584.37" y2="793.51" style="stroke:#000000;stroke-width:3.00"/>
	<text x="1584.37" y="838.47" style="font-family:'Helvetica';font-size:49.99px;fill:#000000" text-anchor="middle">1 Apr 20</text>
	<line x1="1681.89" y1="773.59" x2="1681.89" y2="793.51" style="stroke:#000000;stroke-width:3.00"/>
	<text x="1681.89" y="838.47" style="font-family:'Helvetica';font-size:49.99px;fill:#000000" text-anchor="middle">1 May 20</text>
	<line x1="1779.53" y1="773.59" x2="1779.53" y2="793.51" style="stroke:#000000;stroke-width:3.00"/>
	<text x="1779.53" y="838.47" style="font-family:'Helvetica';font-size:49.99px;fill:#000000" text-anchor="middle">1 Jun 20</text>
	<line x1="1873.95" y1="773.59" x2="1873.95" y2="793.51" style="stroke:#000000;stroke-width:3.00"/>
	<text x="1873.95" y="838.47" style="font-family:'Helvetica';font-size:49.99px;fill:#000000" text-anchor="middle">1 Jul 20</text>
	<text x="1680.40" y="886.52" style="font-family:'Helvetica';font-size:39.97px;fill:#000000" text-anchor="middle">Days since 1 Feb 2020</text>
	<text x="1680.40" y="290.17" style="font-family:'Helvetica';font-size:70.04px;fill:#1E2D53" text-anchor="middle">eth2</text>
	<rect x="2047.20" y="182.17" width="924.66" height="776.80" style="fill:#EAF2F3"/>
	<rect x="2048.70" y="183.67" width="921.66" height="773.80" style="fill:none;stroke:#EAF2F3;stroke-width:3.00"/>
	<rect x="2288.51" y="319.78" width="632.98" height="453.81" style="fill:#FFFFFF"/>
	<rect x="2290.01" y="321.28" width="629.98" height="450.81" style="fill:none;stroke:#FFFFFF;stroke-width:3.00"/>
	<line x1="2288.51" y1="741.90" x2="2921.49" y2="741.90" style="stroke:#EAF2F3;stroke-width:4.32"/>
	<line x1="2288.51" y1="738.19" x2="2921.49" y2="738.19" style="stroke:#EAF2F3;stroke-width:4.32"/>
	<line x1="2288.51" y1="734.48" x2="2921.49" y2="734.48" style="stroke:#EAF2F3;stroke-width:4.32"/>
	<line x1="2288.51" y1="730.77" x2="2921.49" y2="730.77" style="stroke:#EAF2F3;stroke-width:4.32"/>
	<line x1="2288.51" y1="727.05" x2="2921.49" y2="727.05" style="stroke:#EAF2F3;stroke-width:4.32"/>
	<path d=" M2420.92 741.90 L2540.46 741.90 L2540.46 739.06 L2606.55 739.06 L2606.55 736.21 L2757.52 736.21 L2757.52 733.24 L2760.74 733.24 L2760.74 730.40 L2792.17 730.40 L2792.17 727.55 L2801.58 727.55 L2801.58 724.58 L2811.11 724.58 L2811.11 721.73 L2814.20 721.73 L2814.20 718.76 L2817.42 718.76 L2817.42 715.92 L2820.51 715.92 L2820.51 713.07 L2823.60 713.07 L2823.60 710.10 L2826.82 710.10 L2826.82 704.41 L2829.91 704.41 L2829.91 701.44 L2845.63 701.44 L2845.63 698.59 L2848.85 698.59 L2848.85 689.93 L2851.94 689.93 L2851.94 678.29 L2855.16 678.29 L2855.16 672.60 L2858.25 672.60 L2858.25 669.63 L2867.66 669.63 L2867.66 666.79 L2870.88 666.79 L2870.88 663.82 L2873.97 663.82 L2873.97 658.12 L2877.19 658.12 L2877.19 646.49 L2880.28 646.49 L2880.28 640.80 L2883.38 640.80 L2883.38 637.83 L2886.59 637.83 L2886.59 632.01 L2889.69 632.01 L2889.69 351.58" stroke-linejoin="round" style="fill:none;stroke:#FF0000;stroke-width:4.32"/>
	<path d=" M2376.87 739.18 L2603.33 739.18 L2603.33 739.18 L2666.32 739.18 L2666.32 736.46 L2688.34 736.46 L2688.34 736.46 L2716.68 736.46 L2716.68 733.74 L2719.78 733.74 L2719.78 731.01 L2732.40 731.01 L2732.40 728.29 L2745.02 728.29 L2745.02 722.85 L2763.83 722.85 L2763.83 720.12 L2807.89 720.12 L2807.89 717.40 L2814.20 717.40 L2814.20 714.68 L2820.51 714.68 L2820.51 711.96 L2833.13 711.96 L2833.13 709.23 L2836.23 709.23 L2836.23 706.51 L2839.32 706.51 L2839.32 703.66 L2842.54 703.66 L2842.54 695.50 L2851.94 695.50 L2851.94 692.77 L2861.35 692.77 L2861.35 687.33 L2867.66 687.33 L2867.66 681.88 L2870.88 681.88 L2870.88 679.16 L2877.19 679.16 L2877.19 670.87 L2880.28 670.87 L2880.28 662.70 L2883.38 662.70 L2883.38 654.53 L2886.59 654.53 L2886.59 646.24 L2889.69 646.24 L2889.69 372.87" stroke-linejoin="round" style="fill:none;stroke:#0000FF;stroke-width:4.32"/>
	<line x1="2288.51" y1="773.59" x2="2288.51" y2="319.78" style="stroke:#000000;stroke-width:3.00"/>
	<line x1="2288.51" y1="741.90" x2="2268.59" y2="741.90" style="stroke:#000000;stroke-width:3.00"/>
	<text x="2258.56" y="759.43" style="font-family:'Helvetica';font-size:49.99px;fill:#000000" text-anchor="end">0.000</text>
	<line x1="2288.51" y1="738.19" x2="2268.59" y2="738.19" style="stroke:#000000;stroke-width:3.00"/>
	<text x="2258.56" y="755.72" style="font-family:'Helvetica';font-size:49.99px;fill:#000000" text-anchor="end">0.002</text>
	<line x1="2288.51" y1="734.48" x2="2268.59" y2="734.48" style="stroke:#000000;stroke-width:3.00"/>
	<text x="2258.56" y="752.01" style="font-family:'Helvetica';font-size:49.99px;fill:#000000" text-anchor="end">0.004</text>
	<line x1="2288.51" y1="730.77" x2="2268.59" y2="730.77" style="stroke:#000000;stroke-width:3.00"/>
	<text x="2258.56" y="748.30" style="font-family:'Helvetica';font-size:49.99px;fill:#000000" text-anchor="end">0.006</text>
	<line x1="2288.51" y1="727.05" x2="2268.59" y2="727.05" style="stroke:#000000;stroke-width:3.00"/>
	<text x="2258.56" y="744.58" style="font-family:'Helvetica';font-size:49.99px;fill:#000000" text-anchor="end">0.008</text>
	<line x1="2288.51" y1="773.59" x2="2921.49" y2="773.59" style="stroke:#000000;stroke-width:3.00"/>
	<line x1="2320.19" y1="773.59" x2="2320.19" y2="793.51" style="stroke:#000000;stroke-width:3.00"/>
	<text x="2320.19" y="838.47" style="font-family:'Helvetica';font-size:49.99px;fill:#000000" text-anchor="middle">1 Feb 20</text>
	<line x1="2411.52" y1="773.59" x2="2411.52" y2="793.51" style="stroke:#000000;stroke-width:3.00"/>
	<text x="2411.52" y="838.47" style="font-family:'Helvetica';font-size:49.99px;fill:#000000" text-anchor="middle">1 Mar 20</text>
	<line x1="2509.03" y1="773.59" x2="2509.03" y2="793.51" style="stroke:#000000;stroke-width:3.00"/>
	<text x="2509.03" y="838.47" style="font-family:'Helvetica';font-size:49.99px;fill:#000000" text-anchor="middle">1 Apr 20</text>
	<line x1="2606.55" y1="773.59" x2="2606.55" y2="793.51" style="stroke:#000000;stroke-width:3.00"/>
	<text x="2606.55" y="838.47" style="font-family:'Helvetica';font-size:49.99px;fill:#000000" text-anchor="middle">1 May 20</text>
	<line x1="2704.18" y1="773.59" x2="2704.18" y2="793.51" style="stroke:#000000;stroke-width:3.00"/>
	<text x="2704.18" y="838.47" style="font-family:'Helvetica';font-size:49.99px;fill:#000000" text-anchor="middle">1 Jun 20</text>
	<line x1="2798.48" y1="773.59" x2="2798.48" y2="793.51" style="stroke:#000000;stroke-width:3.00"/>
	<text x="2798.48" y="838.47" style="font-family:'Helvetica';font-size:49.99px;fill:#000000" text-anchor="middle">1 Jul 20</text>
	<text x="2605.06" y="886.52" style="font-family:'Helvetica';font-size:39.97px;fill:#000000" text-anchor="middle">Days since 1 Feb 2020</text>
	<text x="2605.06" y="290.17" style="font-family:'Helvetica';font-size:70.04px;fill:#1E2D53" text-anchor="middle">eth3</text>
	<rect x="2971.86" y="182.17" width="924.66" height="776.80" style="fill:#EAF2F3"/>
	<rect x="2973.36" y="183.67" width="921.66" height="773.80" style="fill:none;stroke:#EAF2F3;stroke-width:3.00"/>
	<rect x="3213.17" y="319.78" width="632.98" height="453.81" style="fill:#FFFFFF"/>
	<rect x="3214.67" y="321.28" width="629.98" height="450.81" style="fill:none;stroke:#FFFFFF;stroke-width:3.00"/>
	<line x1="3213.17" y1="741.90" x2="3846.15" y2="741.90" style="stroke:#EAF2F3;stroke-width:4.32"/>
	<line x1="3213.17" y1="738.32" x2="3846.15" y2="738.32" style="stroke:#EAF2F3;stroke-width:4.32"/>
	<line x1="3213.17" y1="734.85" x2="3846.15" y2="734.85" style="stroke:#EAF2F3;stroke-width:4.32"/>
	<line x1="3213.17" y1="731.26" x2="3846.15" y2="731.26" style="stroke:#EAF2F3;stroke-width:4.32"/>
	<line x1="3213.17" y1="727.67" x2="3846.15" y2="727.67" style="stroke:#EAF2F3;stroke-width:4.32"/>
	<path d=" M3613.01 739.43 L3657.06 739.43 L3657.06 734.23 L3669.68 734.23 L3669.68 731.76 L3691.71 731.76 L3691.71 729.16 L3701.11 729.16 L3701.11 726.68 L3710.52 726.68 L3710.52 716.41 L3719.93 716.41 L3719.93 713.94 L3732.55 713.94 L3732.55 711.34 L3735.76 711.34 L3735.76 708.74 L3741.95 708.74 L3741.95 703.66 L3745.17 703.66 L3745.17 701.07 L3748.26 701.07 L3748.26 698.59 L3751.48 698.59 L3751.48 695.99 L3757.79 695.99 L3757.79 693.52 L3760.89 693.52 L3760.89 690.92 L3767.20 690.92 L3767.20 688.32 L3770.29 688.32 L3770.29 683.25 L3773.51 683.25 L3773.51 678.17 L3776.60 678.17 L3776.60 675.57 L3779.82 675.57 L3779.82 667.90 L3782.91 667.90 L3782.91 660.35 L3786.01 660.35 L3786.01 657.75 L3792.32 657.75 L3792.32 650.08 L3798.63 650.08 L3798.63 647.48 L3804.94 647.48 L3804.94 645.01 L3808.03 645.01 L3808.03 642.41 L3811.25 642.41 L3811.25 634.73 L3814.35 634.73 L3814.35 351.58" stroke-linejoin="round" style="fill:none;stroke:#FF0000;stroke-width:4.32"/>
	<path d=" M3499.77 741.90 L3518.58 741.90 L3518.58 741.90 L3578.36 741.90 L3578.36 739.31 L3600.38 739.31 L3600.38 736.58 L3641.34 736.58 L3641.34 733.98 L3647.66 733.98 L3647.66 733.98 L3669.68 733.98 L3669.68 731.26 L3675.87 731.26 L3675.87 728.66 L3688.49 728.66 L3688.49 725.94 L3697.90 725.94 L3697.90 723.22 L3713.74 723.22 L3713.74 720.62 L3723.14 720.62 L3723.14 717.90 L3726.24 717.90 L3726.24 717.90 L3732.55 717.90 L3732.55 715.30 L3738.86 715.30 L3738.86 709.85 L3741.95 709.85 L3741.95 704.53 L3751.48 704.53 L3751.48 699.21 L3760.89 699.21 L3760.89 696.49 L3763.98 696.49 L3763.98 693.89 L3770.29 693.89 L3770.29 691.17 L3779.82 691.17 L3779.82 688.44 L3786.01 688.44 L3786.01 677.80 L3789.22 677.80 L3789.22 675.08 L3795.54 675.08 L3795.54 667.16 L3798.63 667.16 L3798.63 661.71 L3801.85 661.71 L3801.85 659.11 L3804.94 659.11 L3804.94 645.75 L3808.03 645.75 L3808.03 637.70 L3811.25 637.70 L3811.25 632.38 L3814.35 632.38 L3814.35 375.47" stroke-linejoin="round" style="fill:none;stroke:#0000FF;stroke-width:4.32"/>
	<line x1="3213.17" y1="773.59" x2="3213.17" y2="319.78" style="stroke:#000000;stroke-width:3.00"/>
	<line x1="3213.17" y1="741.90" x2="3193.24" y2="741.90" style="stroke:#000000;stroke-width:3.00"/>
	<text x="3183.22" y="759.43" style="font-family:'Helvetica';font-size:49.99px;fill:#000000" text-anchor="end">0.000</text>
	<line x1="3213.17" y1="738.32" x2="3193.24" y2="738.32" style="stroke:#000000;stroke-width:3.00"/>
	<text x="3183.22" y="755.85" style="font-family:'Helvetica';font-size:49.99px;fill:#000000" text-anchor="end">0.002</text>
	<line x1="3213.17" y1="734.85" x2="3193.24" y2="734.85" style="stroke:#000000;stroke-width:3.00"/>
	<text x="3183.22" y="752.38" style="font-family:'Helvetica';font-size:49.99px;fill:#000000" text-anchor="end">0.004</text>
	<line x1="3213.17" y1="731.26" x2="3193.24" y2="731.26" style="stroke:#000000;stroke-width:3.00"/>
	<text x="3183.22" y="748.79" style="font-family:'Helvetica';font-size:49.99px;fill:#000000" text-anchor="end">0.006</text>
	<line x1="3213.17" y1="727.67" x2="3193.24" y2="727.67" style="stroke:#000000;stroke-width:3.00"/>
	<text x="3183.22" y="745.20" style="font-family:'Helvetica';font-size:49.99px;fill:#000000" text-anchor="end">0.008</text>
	<line x1="3213.17" y1="773.59" x2="3846.15" y2="773.59" style="stroke:#000000;stroke-width:3.00"/>
	<line x1="3244.85" y1="773.59" x2="3244.85" y2="793.51" style="stroke:#000000;stroke-width:3.00"/>
	<text x="3244.85" y="838.47" style="font-family:'Helvetica';font-size:49.99px;fill:#000000" text-anchor="middle">1 Feb 20</text>
	<line x1="3336.18" y1="773.59" x2="3336.18" y2="793.51" style="stroke:#000000;stroke-width:3.00"/>
	<text x="3336.18" y="838.47" style="font-family:'Helvetica';font-size:49.99px;fill:#000000" text-anchor="middle">1 Mar 20</text>
	<line x1="3433.69" y1="773.59" x2="3433.69" y2="793.51" style="stroke:#000000;stroke-width:3.00"/>
	<text x="3433.69" y="838.47" style="font-family:'Helvetica';font-size:49.99px;fill:#000000" text-anchor="middle">1 Apr 20</text>
	<line x1="3531.21" y1="773.59" x2="3531.21" y2="793.51" style="stroke:#000000;stroke-width:3.00"/>
	<text x="3531.21" y="838.47" style="font-family:'Helvetica';font-size:49.99px;fill:#000000" text-anchor="middle">1 May 20</text>
	<line x1="3628.84" y1="773.59" x2="3628.84" y2="793.51" style="stroke:#000000;stroke-width:3.00"/>
	<text x="3628.84" y="838.47" style="font-family:'Helvetica';font-size:49.99px;fill:#000000" text-anchor="middle">1 Jun 20</text>
	<line x1="3723.14" y1="773.59" x2="3723.14" y2="793.51" style="stroke:#000000;stroke-width:3.00"/>
	<text x="3723.14" y="838.47" style="font-family:'Helvetica';font-size:49.99px;fill:#000000" text-anchor="middle">1 Jul 20</text>
	<text x="3529.72" y="886.52" style="font-family:'Helvetica';font-size:39.97px;fill:#000000" text-anchor="middle">Days since 1 Feb 2020</text>
	<text x="3529.72" y="290.17" style="font-family:'Helvetica';font-size:70.04px;fill:#1E2D53" text-anchor="middle">eth4</text>
	<rect x="197.88" y="958.97" width="924.66" height="776.80" style="fill:#EAF2F3"/>
	<rect x="199.38" y="960.47" width="921.66" height="773.80" style="fill:none;stroke:#EAF2F3;stroke-width:3.00"/>
	<rect x="439.31" y="1096.58" width="632.86" height="453.81" style="fill:#FFFFFF"/>
	<rect x="440.81" y="1098.08" width="629.86" height="450.81" style="fill:none;stroke:#FFFFFF;stroke-width:3.00"/>
	<line x1="439.31" y1="1518.71" x2="1072.17" y2="1518.71" style="stroke:#EAF2F3;stroke-width:4.32"/>
	<line x1="439.31" y1="1514.50" x2="1072.17" y2="1514.50" style="stroke:#EAF2F3;stroke-width:4.32"/>
	<line x1="439.31" y1="1510.29" x2="1072.17" y2="1510.29" style="stroke:#EAF2F3;stroke-width:4.32"/>
	<line x1="439.31" y1="1506.08" x2="1072.17" y2="1506.08" style="stroke:#EAF2F3;stroke-width:4.32"/>
	<line x1="439.31" y1="1501.88" x2="1072.17" y2="1501.88" style="stroke:#EAF2F3;stroke-width:4.32"/>
	<path d=" M788.66 1512.40 L857.96 1512.40 L857.96 1505.96 L911.42 1505.96 L911.42 1499.53 L927.13 1499.53 L927.13 1493.21 L949.16 1493.21 L949.16 1486.78 L952.38 1486.78 L952.38 1480.34 L961.78 1480.34 L961.78 1473.91 L974.41 1473.91 L974.41 1467.60 L983.81 1467.60 L983.81 1448.42 L993.22 1448.42 L993.22 1441.98 L1012.15 1441.98 L1012.15 1435.54 L1024.65 1435.54 L1024.65 1429.11 L1030.96 1429.11 L1030.96 1422.80 L1034.18 1422.80 L1034.18 1416.36 L1040.37 1416.36 L1040.37 1128.39" stroke-linejoin="round" style="fill:none;stroke:#FF0000;stroke-width:4.32"/>
	<path d=" M678.52 1518.71 L716.26 1518.71 L716.26 1511.28 L835.93 1511.28 L835.93 1503.73 L892.49 1503.73 L892.49 1496.18 L898.80 1496.18 L898.80 1488.64 L917.73 1488.64 L917.73 1481.21 L990.12 1481.21 L990.12 1473.66 L999.53 1473.66 L999.53 1466.11 L1002.62 1466.11 L1002.62 1458.56 L1005.84 1458.56 L1005.84 1436.04 L1008.93 1436.04 L1008.93 1428.49 L1018.34 1428.49 L1018.34 1413.52 L1034.18 1413.52 L1034.18 1398.42 L1037.27 1398.42 L1037.27 1390.87 L1040.37 1390.87 L1040.37 1142.74" stroke-linejoin="round" style="fill:none;stroke:#0000FF;stroke-width:4.32"/>
	<line x1="439.31" y1="1550.39" x2="439.31" y2="1096.58" style="stroke:#000000;stroke-width:3.00"/>
	<line x1="439.31" y1="1518.71" x2="419.26" y2="1518.71" style="stroke:#000000;stroke-width:3.00"/>
	<text x="409.24" y="1536.24" style="font-family:'Helvetica';font-size:49.99px;fill:#000000" text-anchor="end">0.000</text>
	<line x1="439.31" y1="1514.50" x2="419.26" y2="1514.50" style="stroke:#000000;stroke-width:3.00"/>
	<text x="409.24" y="1532.03" style="font-family:'Helvetica';font-size:49.99px;fill:#000000" text-anchor="end">0.002</text>
	<line x1="439.31" y1="1510.29" x2="419.26" y2="1510.29" style="stroke:#000000;stroke-width:3.00"/>
	<text x="409.24" y="1527.82" style="font-family:'Helvetica';font-size:49.99px;fill:#000000" text-anchor="end">0.004</text>
	<line x1="439.31" y1="1506.08" x2="419.26" y2="1506.08" style="stroke:#000000;stroke-width:3.00"/>
	<text x="409.24" y="1523.61" style="font-family:'Helvetica';font-size:49.99px;fill:#000000" text-anchor="end">0.006</text>
	<line x1="439.31" y1="1501.88" x2="419.26" y2="1501.88" style="stroke:#000000;stroke-width:3.00"/>
	<text x="409.24" y="1519.41" style="font-family:'Helvetica';font-size:49.99px;fill:#000000" text-anchor="end">0.008</text>
	<line x1="439.31" y1="1550.39" x2="1072.17" y2="1550.39" style="stroke:#000000;stroke-width:3.00"/>
	<line x1="470.99" y1="1550.39" x2="470.99" y2="1570.31" style="stroke:#000000;stroke-width:3.00"/>
	<text x="470.99" y="1615.27" style="font-family:'Helvetica';font-size:49.99px;fill:#000000" text-anchor="middle">1 Feb 20</text>
	<line x1="562.20" y1="1550.39" x2="562.20" y2="1570.31" style="stroke:#000000;stroke-width:3.00"/>
	<text x="562.20" y="1615.27" style="font-family:'Helvetica';font-size:49.99px;fill:#000000" text-anchor="middle">1 Mar 20</text>
	<line x1="659.71" y1="1550.39" x2="659.71" y2="1570.31" style="stroke:#000000;stroke-width:3.00"/>
	<text x="659.71" y="1615.27" style="font-family:'Helvetica';font-size:49.99px;fill:#000000" text-anchor="middle">1 Apr 20</text>
	<line x1="757.35" y1="1550.39" x2="757.35" y2="1570.31" style="stroke:#000000;stroke-width:3.00"/>
	<text x="757.35" y="1615.27" style="font-family:'Helvetica';font-size:49.99px;fill:#000000" text-anchor="middle">1 May 20</text>
	<line x1="854.87" y1="1550.39" x2="854.87" y2="1570.31" style="stroke:#000000;stroke-width:3.00"/>
	<text x="854.87" y="1615.27" style="font-family:'Helvetica';font-size:49.99px;fill:#000000" text-anchor="middle">1 Jun 20</text>
	<line x1="949.29" y1="1550.39" x2="949.29" y2="1570.31" style="stroke:#000000;stroke-width:3.00"/>
	<text x="949.29" y="1615.27" style="font-family:'Helvetica';font-size:49.99px;fill:#000000" text-anchor="middle">1 Jul 20</text>
	<text x="755.74" y="1663.33" style="font-family:'Helvetica';font-size:39.97px;fill:#000000" text-anchor="middle">Days since 1 Feb 2020</text>
	<text x="755.74" y="1066.97" style="font-family:'Helvetica';font-size:70.04px;fill:#1E2D53" text-anchor="middle">eth5</text>
	<rect x="1122.54" y="958.97" width="924.66" height="776.80" style="fill:#EAF2F3"/>
	<rect x="1124.04" y="960.47" width="921.66" height="773.80" style="fill:none;stroke:#EAF2F3;stroke-width:3.00"/>
	<rect x="1363.97" y="1096.58" width="632.86" height="453.81" style="fill:#FFFFFF"/>
	<rect x="1365.47" y="1098.08" width="629.86" height="450.81" style="fill:none;stroke:#FFFFFF;stroke-width:3.00"/>
	<line x1="1363.97" y1="1518.71" x2="1996.83" y2="1518.71" style="stroke:#EAF2F3;stroke-width:4.32"/>
	<line x1="1363.97" y1="1514.99" x2="1996.83" y2="1514.99" style="stroke:#EAF2F3;stroke-width:4.32"/>
	<line x1="1363.97" y1="1511.41" x2="1996.83" y2="1511.41" style="stroke:#EAF2F3;stroke-width:4.32"/>
	<line x1="1363.97" y1="1507.69" x2="1996.83" y2="1507.69" style="stroke:#EAF2F3;stroke-width:4.32"/>
	<line x1="1363.97" y1="1504.10" x2="1996.83" y2="1504.10" style="stroke:#EAF2F3;stroke-width:4.32"/>
	<path d=" M1832.86 1512.40 L1845.48 1512.40 L1845.48 1505.96 L1848.70 1505.96 L1848.70 1499.53 L1854.89 1499.53 L1854.89 1493.21 L1883.23 1493.21 L1883.23 1486.78 L1889.54 1486.78 L1889.54 1480.34 L1917.88 1480.34 L1917.88 1473.91 L1924.19 1473.91 L1924.19 1467.60 L1930.50 1467.60 L1930.50 1461.16 L1933.59 1461.16 L1933.59 1454.73 L1949.31 1454.73 L1949.31 1441.98 L1955.62 1441.98 L1955.62 1435.54 L1961.93 1435.54 L1961.93 1429.11 L1965.03 1429.11 L1965.03 1128.39" stroke-linejoin="round" style="fill:none;stroke:#FF0000;stroke-width:4.32"/>
	<path d=" M1433.27 1518.71 L1590.68 1518.71 L1590.68 1512.40 L1631.52 1512.40 L1631.52 1506.08 L1672.48 1506.08 L1672.48 1499.77 L1710.22 1499.77 L1710.22 1493.46 L1795.12 1493.46 L1795.12 1487.15 L1826.67 1487.15 L1826.67 1480.84 L1842.39 1480.84 L1842.39 1480.84 L1864.42 1480.84 L1864.42 1474.53 L1870.73 1474.53 L1870.73 1468.22 L1898.94 1468.22 L1898.94 1461.90 L1902.16 1461.90 L1902.16 1455.59 L1930.50 1455.59 L1930.50 1449.28 L1939.90 1449.28 L1939.90 1442.85 L1949.31 1442.85 L1949.31 1436.53 L1952.53 1436.53 L1952.53 1430.22 L1965.03 1430.22 L1965.03 1233.83" stroke-linejoin="round" style="fill:none;stroke:#0000FF;stroke-width:4.32"/>
	<line x1="1363.97" y1="1550.39" x2="1363.97" y2="1096.58" style="stroke:#000000;stroke-width:3.00"/>
	<line x1="1363.97" y1="1518.71" x2="1343.92" y2="1518.71" style="stroke:#000000;stroke-width:3.00"/>
	<text x="1333.90" y="1536.24" style="font-family:'Helvetica';font-size:49.99px;fill:#000000" text-anchor="end">0.000</text>
	<line x1="1363.97" y1="1514.99" x2="1343.92" y2="1514.99" style="stroke:#000000;stroke-width:3.00"/>
	<text x="1333.90" y="1532.52" style="font-family:'Helvetica';font-size:49.99px;fill:#000000" text-anchor="end">0.002</text>
	<line x1="1363.97" y1="1511.41" x2="1343.92" y2="1511.41" style="stroke:#000000;stroke-width:3.00"/>
	<text x="1333.90" y="1528.94" style="font-family:'Helvetica';font-size:49.99px;fill:#000000" text-anchor="end">0.004</text>
	<line x1="1363.97" y1="1507.69" x2="1343.92" y2="1507.69" style="stroke:#000000;stroke-width:3.00"/>
	<text x="1333.90" y="1525.22" style="font-family:'Helvetica';font-size:49.99px;fill:#000000" text-anchor="end">0.006</text>
	<line x1="1363.97" y1="1504.10" x2="1343.92" y2="1504.10" style="stroke:#000000;stroke-width:3.00"/>
	<text x="1333.90" y="1521.63" style="font-family:'Helvetica';font-size:49.99px;fill:#000000" text-anchor="end">0.008</text>
	<line x1="1363.97" y1="1550.39" x2="1996.83" y2="1550.39" style="stroke:#000000;stroke-width:3.00"/>
	<line x1="1395.65" y1="1550.39" x2="1395.65" y2="1570.31" style="stroke:#000000;stroke-width:3.00"/>
	<text x="1395.65" y="1615.27" style="font-family:'Helvetica';font-size:49.99px;fill:#000000" text-anchor="middle">1 Feb 20</text>
	<line x1="1486.86" y1="1550.39" x2="1486.86" y2="1570.31" style="stroke:#000000;stroke-width:3.00"/>
	<text x="1486.86" y="1615.27" style="font-family:'Helvetica';font-size:49.99px;fill:#000000" text-anchor="middle">1 Mar 20</text>
	<line x1="1584.37" y1="1550.39" x2="1584.37" y2="1570.31" style="stroke:#000000;stroke-width:3.00"/>
	<text x="1584.37" y="1615.27" style="font-family:'Helvetica';font-size:49.99px;fill:#000000" text-anchor="middle">1 Apr 20</text>
	<line x1="1681.89" y1="1550.39" x2="1681.89" y2="1570.31" style="stroke:#000000;stroke-width:3.00"/>
	<text x="1681.89" y="1615.27" style="font-family:'Helvetica';font-size:49.99px;fill:#000000" text-anchor="middle">1 May 20</text>
	<line x1="1779.53" y1="1550.39" x2="1779.53" y2="1570.31" style="stroke:#000000;stroke-width:3.00"/>
	<text x="1779.53" y="1615.27" style="font-family:'Helvetica';font-size:49.99px;fill:#000000" text-anchor="middle">1 Jun 20</text>
	<line x1="1873.95" y1="1550.39" x2="1873.95" y2="1570.31" style="stroke:#000000;stroke-width:3.00"/>
	<text x="1873.95" y="1615.27" style="font-family:'Helvetica';font-size:49.99px;fill:#000000" text-anchor="middle">1 Jul 20</text>
	<text x="1680.40" y="1663.33" style="font-family:'Helvetica';font-size:39.97px;fill:#000000" text-anchor="middle">Days since 1 Feb 2020</text>
	<text x="1680.40" y="1066.97" style="font-family:'Helvetica';font-size:70.04px;fill:#1E2D53" text-anchor="middle">eth6</text>
	<rect x="2047.20" y="958.97" width="924.66" height="776.80" style="fill:#EAF2F3"/>
	<rect x="2048.70" y="960.47" width="921.66" height="773.80" style="fill:none;stroke:#EAF2F3;stroke-width:3.00"/>
	<rect x="2288.51" y="1096.58" width="632.98" height="453.81" style="fill:#FFFFFF"/>
	<rect x="2290.01" y="1098.08" width="629.98" height="450.81" style="fill:none;stroke:#FFFFFF;stroke-width:3.00"/>
	<line x1="2288.51" y1="1518.71" x2="2921.49" y2="1518.71" style="stroke:#EAF2F3;stroke-width:4.32"/>
	<line x1="2288.51" y1="1515.24" x2="2921.49" y2="1515.24" style="stroke:#EAF2F3;stroke-width:4.32"/>
	<line x1="2288.51" y1="1511.78" x2="2921.49" y2="1511.78" style="stroke:#EAF2F3;stroke-width:4.32"/>
	<line x1="2288.51" y1="1508.44" x2="2921.49" y2="1508.44" style="stroke:#EAF2F3;stroke-width:4.32"/>
	<line x1="2288.51" y1="1504.97" x2="2921.49" y2="1504.97" style="stroke:#EAF2F3;stroke-width:4.32"/>
	<path d=" M2716.68 1505.84 L2833.13 1505.84 L2833.13 1492.97 L2839.32 1492.97 L2839.32 1479.97 L2851.94 1479.97 L2851.94 1467.10 L2855.16 1467.10 L2855.16 1454.23 L2861.35 1454.23 L2861.35 1441.24 L2870.88 1441.24 L2870.88 1415.50 L2877.19 1415.50 L2877.19 1402.50 L2880.28 1402.50 L2880.28 1389.63 L2889.69 1389.63 L2889.69 1221.70" stroke-linejoin="round" style="fill:none;stroke:#FF0000;stroke-width:4.32"/>
	<path d=" M2637.98 1505.71 L2795.39 1505.71 L2795.39 1492.72 L2817.42 1492.72 L2817.42 1479.72 L2836.23 1479.72 L2836.23 1466.73 L2839.32 1466.73 L2839.32 1453.74 L2858.25 1453.74 L2858.25 1427.62 L2880.28 1427.62 L2880.28 1414.63 L2889.69 1414.63 L2889.69 1128.39" stroke-linejoin="round" style="fill:none;stroke:#0000FF;stroke-width:4.32"/>
	<line x1="2288.51" y1="1550.39" x2="2288.51" y2="1096.58" style="stroke:#000000;stroke-width:3.00"/>
	<line x1="2288.51" y1="1518.71" x2="2268.59" y2="1518.71" style="stroke:#000000;stroke-width:3.00"/>
	<text x="2258.56" y="1536.24" style="font-family:'Helvetica';font-size:49.99px;fill:#000000" text-anchor="end">0.000</text>
	<line x1="2288.51" y1="1515.24" x2="2268.59" y2="1515.24" style="stroke:#000000;stroke-width:3.00"/>
	<text x="2258.56" y="1532.77" style="font-family:'Helvetica';font-size:49.99px;fill:#000000" text-anchor="end">0.002</text>
	<line x1="2288.51" y1="1511.78" x2="2268.59" y2="1511.78" style="stroke:#000000;stroke-width:3.00"/>
	<text x="2258.56" y="1529.31" style="font-family:'Helvetica';font-size:49.99px;fill:#000000" text-anchor="end">0.004</text>
	<line x1="2288.51" y1="1508.44" x2="2268.59" y2="1508.44" style="stroke:#000000;stroke-width:3.00"/>
	<text x="2258.56" y="1525.97" style="font-family:'Helvetica';font-size:49.99px;fill:#000000" text-anchor="end">0.006</text>
	<line x1="2288.51" y1="1504.97" x2="2268.59" y2="1504.97" style="stroke:#000000;stroke-width:3.00"/>
	<text x="2258.56" y="1522.50" style="font-family:'Helvetica';font-size:49.99px;fill:#000000" text-anchor="end">0.008</text>
	<line x1="2288.51" y1="1550.39" x2="2921.49" y2="1550.39" style="stroke:#000000;stroke-width:3.00"/>
	<line x1="2320.19" y1="1550.39" x2="2320.19" y2="1570.31" style="stroke:#000000;stroke-width:3.00"/>
	<text x="2320.19" y="1615.27" style="font-family:'Helvetica';font-size:49.99px;fill:#000000" text-anchor="middle">1 Feb 20</text>
	<line x1="2411.52" y1="1550.39" x2="2411.52" y2="1570.31" style="stroke:#000000;stroke-width:3.00"/>
	<text x="2411.52" y="1615.27" style="font-family:'Helvetica';font-size:49.99px;fill:#000000" text-anchor="middle">1 Mar 20</text>
	<line x1="2509.03" y1="1550.39" x2="2509.03" y2="1570.31" style="stroke:#000000;stroke-width:3.00"/>
	<text x="2509.03" y="1615.27" style="font-family:'Helvetica';font-size:49.99px;fill:#000000" text-anchor="middle">1 Apr 20</text>
	<line x1="2606.55" y1="1550.39" x2="2606.55" y2="1570.31" style="stroke:#000000;stroke-width:3.00"/>
	<text x="2606.55" y="1615.27" style="font-family:'Helvetica';font-size:49.99px;fill:#000000" text-anchor="middle">1 May 20</text>
	<line x1="2704.18" y1="1550.39" x2="2704.18" y2="1570.31" style="stroke:#000000;stroke-width:3.00"/>
	<text x="2704.18" y="1615.27" style="font-family:'Helvetica';font-size:49.99px;fill:#000000" text-anchor="middle">1 Jun 20</text>
	<line x1="2798.48" y1="1550.39" x2="2798.48" y2="1570.31" style="stroke:#000000;stroke-width:3.00"/>
	<text x="2798.48" y="1615.27" style="font-family:'Helvetica';font-size:49.99px;fill:#000000" text-anchor="middle">1 Jul 20</text>
	<text x="2605.06" y="1663.33" style="font-family:'Helvetica';font-size:39.97px;fill:#000000" text-anchor="middle">Days since 1 Feb 2020</text>
	<text x="2605.06" y="1066.97" style="font-family:'Helvetica';font-size:70.04px;fill:#1E2D53" text-anchor="middle">eth7</text>
	<rect x="2971.86" y="958.97" width="924.66" height="776.80" style="fill:#EAF2F3"/>
	<rect x="2973.36" y="960.47" width="921.66" height="773.80" style="fill:none;stroke:#EAF2F3;stroke-width:3.00"/>
	<rect x="3213.17" y="1096.58" width="632.98" height="453.81" style="fill:#FFFFFF"/>
	<rect x="3214.67" y="1098.08" width="629.98" height="450.81" style="fill:none;stroke:#FFFFFF;stroke-width:3.00"/>
	<line x1="3213.17" y1="1518.71" x2="3846.15" y2="1518.71" style="stroke:#EAF2F3;stroke-width:4.32"/>
	<line x1="3213.17" y1="1515.37" x2="3846.15" y2="1515.37" style="stroke:#EAF2F3;stroke-width:4.32"/>
	<line x1="3213.17" y1="1512.02" x2="3846.15" y2="1512.02" style="stroke:#EAF2F3;stroke-width:4.32"/>
	<line x1="3213.17" y1="1508.81" x2="3846.15" y2="1508.81" style="stroke:#EAF2F3;stroke-width:4.32"/>
	<line x1="3213.17" y1="1505.47" x2="3846.15" y2="1505.47" style="stroke:#EAF2F3;stroke-width:4.32"/>
	<path d=" M3609.79 1507.82 L3776.60 1507.82 L3776.60 1496.93 L3779.82 1496.93 L3779.82 1485.91 L3789.22 1485.91 L3789.22 1475.02 L3795.54 1475.02 L3795.54 1464.01 L3808.03 1464.01 L3808.03 1453.12 L3814.35 1453.12 L3814.35 1157.59" stroke-linejoin="round" style="fill:none;stroke:#FF0000;stroke-width:4.32"/>
	<path d=" M3675.87 1505.71 L3726.24 1505.71 L3726.24 1492.72 L3767.20 1492.72 L3767.20 1479.72 L3789.22 1479.72 L3789.22 1466.73 L3798.63 1466.73 L3798.63 1453.74 L3804.94 1453.74 L3804.94 1440.62 L3814.35 1440.62 L3814.35 1128.39" stroke-linejoin="round" style="fill:none;stroke:#0000FF;stroke-width:4.32"/>
	<line x1="3213.17" y1="1550.39" x2="3213.17" y2="1096.58" style="stroke:#000000;stroke-width:3.00"/>
	<line x1="3213.17" y1="1518.71" x2="3193.24" y2="1518.71" style="stroke:#000000;stroke-width:3.00"/>
	<text x="3183.22" y="1536.24" style="font-family:'Helvetica';font-size:49.99px;fill:#000000" text-anchor="end">0.000</text>
	<line x1="3213.17" y1="1515.37" x2="3193.24" y2="1515.37" style="stroke:#000000;stroke-width:3.00"/>
	<text x="3183.22" y="1532.90" style="font-family:'Helvetica';font-size:49.99px;fill:#000000" text-anchor="end">0.002</text>
	<line x1="3213.17" y1="1512.02" x2="3193.24" y2="1512.02" style="stroke:#000000;stroke-width:3.00"/>
	<text x="3183.22" y="1529.55" style="font-family:'Helvetica';font-size:49.99px;fill:#000000" text-anchor="end">0.004</text>
	<line x1="3213.17" y1="1508.81" x2="3193.24" y2="1508.81" style="stroke:#000000;stroke-width:3.00"/>
	<text x="3183.22" y="1526.34" style="font-family:'Helvetica';font-size:49.99px;fill:#000000" text-anchor="end">0.006</text>
	<line x1="3213.17" y1="1505.47" x2="3193.24" y2="1505.47" style="stroke:#000000;stroke-width:3.00"/>
	<text x="3183.22" y="1523.00" style="font-family:'Helvetica';font-size:49.99px;fill:#000000" text-anchor="end">0.008</text>
	<line x1="3213.17" y1="1550.39" x2="3846.15" y2="1550.39" style="stroke:#000000;stroke-width:3.00"/>
	<line x1="3244.85" y1="1550.39" x2="3244.85" y2="1570.31" style="stroke:#000000;stroke-width:3.00"/>
	<text x="3244.85" y="1615.27" style="font-family:'Helvetica';font-size:49.99px;fill:#000000" text-anchor="middle">1 Feb 20</text>
	<line x1="3336.18" y1="1550.39" x2="3336.18" y2="1570.31" style="stroke:#000000;stroke-width:3.00"/>
	<text x="3336.18" y="1615.27" style="font-family:'Helvetica';font-size:49.99px;fill:#000000" text-anchor="middle">1 Mar 20</text>
	<line x1="3433.69" y1="1550.39" x2="3433.69" y2="1570.31" style="stroke:#000000;stroke-width:3.00"/>
	<text x="3433.69" y="1615.27" style="font-family:'Helvetica';font-size:49.99px;fill:#000000" text-anchor="middle">1 Apr 20</text>
	<line x1="3531.21" y1="1550.39" x2="3531.21" y2="1570.31" style="stroke:#000000;stroke-width:3.00"/>
	<text x="3531.21" y="1615.27" style="font-family:'Helvetica';font-size:49.99px;fill:#000000" text-anchor="middle">1 May 20</text>
	<line x1="3628.84" y1="1550.39" x2="3628.84" y2="1570.31" style="stroke:#000000;stroke-width:3.00"/>
	<text x="3628.84" y="1615.27" style="font-family:'Helvetica';font-size:49.99px;fill:#000000" text-anchor="middle">1 Jun 20</text>
	<line x1="3723.14" y1="1550.39" x2="3723.14" y2="1570.31" style="stroke:#000000;stroke-width:3.00"/>
	<text x="3723.14" y="1615.27" style="font-family:'Helvetica';font-size:49.99px;fill:#000000" text-anchor="middle">1 Jul 20</text>
	<text x="3529.72" y="1663.33" style="font-family:'Helvetica';font-size:39.97px;fill:#000000" text-anchor="middle">Days since 1 Feb 2020</text>
	<text x="3529.72" y="1066.97" style="font-family:'Helvetica';font-size:70.04px;fill:#1E2D53" text-anchor="middle">eth8</text>
	<rect x="197.88" y="1735.77" width="924.66" height="776.80" style="fill:#EAF2F3"/>
	<rect x="199.38" y="1737.27" width="921.66" height="773.80" style="fill:none;stroke:#EAF2F3;stroke-width:3.00"/>
	<rect x="439.31" y="1873.39" width="632.86" height="453.81" style="fill:#FFFFFF"/>
	<rect x="440.81" y="1874.89" width="629.86" height="450.81" style="fill:none;stroke:#FFFFFF;stroke-width:3.00"/>
	<line x1="439.31" y1="2295.51" x2="1072.17" y2="2295.51" style="stroke:#EAF2F3;stroke-width:4.32"/>
	<line x1="439.31" y1="2291.55" x2="1072.17" y2="2291.55" style="stroke:#EAF2F3;stroke-width:4.32"/>
	<line x1="439.31" y1="2287.59" x2="1072.17" y2="2287.59" style="stroke:#EAF2F3;stroke-width:4.32"/>
	<line x1="439.31" y1="2283.63" x2="1072.17" y2="2283.63" style="stroke:#EAF2F3;stroke-width:4.32"/>
	<line x1="439.31" y1="2279.67" x2="1072.17" y2="2279.67" style="stroke:#EAF2F3;stroke-width:4.32"/>
	<path d=" M725.79 2283.14 L927.13 2283.14 L927.13 2270.76 L930.35 2270.76 L930.35 2258.38 L942.85 2258.38 L942.85 2246.01 L971.19 2246.01 L971.19 2233.63 L993.22 2233.63 L993.22 2221.26 L999.53 2221.26 L999.53 2208.76 L1008.93 2208.76 L1008.93 2196.38 L1024.65 2196.38 L1024.65 2184.01 L1030.96 2184.01 L1030.96 2159.26 L1040.37 2159.26 L1040.37 1911.38" stroke-linejoin="round" style="fill:none;stroke:#FF0000;stroke-width:4.32"/>
	<path d=" M603.03 2279.92 L851.65 2279.92 L851.65 2264.32 L892.49 2264.32 L892.49 2248.73 L961.78 2248.73 L961.78 2233.14 L968.10 2233.14 L968.10 2217.55 L971.19 2217.55 L971.19 2201.83 L1008.93 2201.83 L1008.93 2186.24 L1018.34 2186.24 L1018.34 2170.64 L1021.56 2170.64 L1021.56 2139.46 L1040.37 2139.46 L1040.37 1905.19" stroke-linejoin="round" style="fill:none;stroke:#0000FF;stroke-width:4.32"/>
	<line x1="439.31" y1="2327.19" x2="439.31" y2="1873.39" style="stroke:#000000;stroke-width:3.00"/>
	<line x1="439.31" y1="2295.51" x2="419.26" y2="2295.51" style="stroke:#000000;stroke-width:3.00"/>
	<text x="409.24" y="2313.04" style="font-family:'Helvetica';font-size:49.99px;fill:#000000" text-anchor="end">0.000</text>
	<line x1="439.31" y1="2291.55" x2="419.26" y2="2291.55" style="stroke:#000000;stroke-width:3.00"/>
	<text x="409.24" y="2309.08" style="font-family:'Helvetica';font-size:49.99px;fill:#000000" text-anchor="end">0.002</text>
	<line x1="439.31" y1="2287.59" x2="419.26" y2="2287.59" style="stroke:#000000;stroke-width:3.00"/>
	<text x="409.24" y="2305.12" style="font-family:'Helvetica';font-size:49.99px;fill:#000000" text-anchor="end">0.004</text>
	<line x1="439.31" y1="2283.63" x2="419.26" y2="2283.63" style="stroke:#000000;stroke-width:3.00"/>
	<text x="409.24" y="2301.16" style="font-family:'Helvetica';font-size:49.99px;fill:#000000" text-anchor="end">0.006</text>
	<line x1="439.31" y1="2279.67" x2="419.26" y2="2279.67" style="stroke:#000000;stroke-width:3.00"/>
	<text x="409.24" y="2297.20" style="font-family:'Helvetica';font-size:49.99px;fill:#000000" text-anchor="end">0.008</text>
	<line x1="439.31" y1="2327.19" x2="1072.17" y2="2327.19" style="stroke:#000000;stroke-width:3.00"/>
	<line x1="470.99" y1="2327.19" x2="470.99" y2="2347.24" style="stroke:#000000;stroke-width:3.00"/>
	<text x="470.99" y="2392.08" style="font-family:'Helvetica';font-size:49.99px;fill:#000000" text-anchor="middle">1 Feb 20</text>
	<line x1="562.20" y1="2327.19" x2="562.20" y2="2347.24" style="stroke:#000000;stroke-width:3.00"/>
	<text x="562.20" y="2392.08" style="font-family:'Helvetica';font-size:49.99px;fill:#000000" text-anchor="middle">1 Mar 20</text>
	<line x1="659.71" y1="2327.19" x2="659.71" y2="2347.24" style="stroke:#000000;stroke-width:3.00"/>
	<text x="659.71" y="2392.08" style="font-family:'Helvetica';font-size:49.99px;fill:#000000" text-anchor="middle">1 Apr 20</text>
	<line x1="757.35" y1="2327.19" x2="757.35" y2="2347.24" style="stroke:#000000;stroke-width:3.00"/>
	<text x="757.35" y="2392.08" style="font-family:'Helvetica';font-size:49.99px;fill:#000000" text-anchor="middle">1 May 20</text>
	<line x1="854.87" y1="2327.19" x2="854.87" y2="2347.24" style="stroke:#000000;stroke-width:3.00"/>
	<text x="854.87" y="2392.08" style="font-family:'Helvetica';font-size:49.99px;fill:#000000" text-anchor="middle">1 Jun 20</text>
	<line x1="949.29" y1="2327.19" x2="949.29" y2="2347.24" style="stroke:#000000;stroke-width:3.00"/>
	<text x="949.29" y="2392.08" style="font-family:'Helvetica';font-size:49.99px;fill:#000000" text-anchor="middle">1 Jul 20</text>
	<text x="755.74" y="2440.13" style="font-family:'Helvetica';font-size:39.97px;fill:#000000" text-anchor="middle">Days since 1 Feb 2020</text>
	<text x="755.74" y="1843.77" style="font-family:'Helvetica';font-size:70.04px;fill:#1E2D53" text-anchor="middle">eth9</text>
	<rect x="1122.54" y="1735.77" width="924.66" height="776.80" style="fill:#EAF2F3"/>
	<rect x="1124.04" y="1737.27" width="921.66" height="773.80" style="fill:none;stroke:#EAF2F3;stroke-width:3.00"/>
	<rect x="1363.97" y="1873.39" width="632.86" height="453.81" style="fill:#FFFFFF"/>
	<rect x="1365.47" y="1874.89" width="629.86" height="450.81" style="fill:none;stroke:#FFFFFF;stroke-width:3.00"/>
	<line x1="1363.97" y1="2295.51" x2="1996.83" y2="2295.51" style="stroke:#EAF2F3;stroke-width:4.32"/>
	<line x1="1363.97" y1="2291.67" x2="1996.83" y2="2291.67" style="stroke:#EAF2F3;stroke-width:4.32"/>
	<line x1="1363.97" y1="2287.84" x2="1996.83" y2="2287.84" style="stroke:#EAF2F3;stroke-width:4.32"/>
	<line x1="1363.97" y1="2284.00" x2="1996.83" y2="2284.00" style="stroke:#EAF2F3;stroke-width:4.32"/>
	<line x1="1363.97" y1="2280.04" x2="1996.83" y2="2280.04" style="stroke:#EAF2F3;stroke-width:4.32"/>
	<path d=" M1477.33 2294.89 L1480.55 2294.89 L1480.55 2294.89 L1502.57 2294.89 L1502.57 2294.89 L1587.46 2294.89 L1587.46 2294.89 L1596.87 2294.89 L1596.87 2294.89 L1612.71 2294.89 L1612.71 2294.27 L1637.83 2294.27 L1637.83 2293.53 L1656.77 2293.53 L1656.77 2292.91 L1675.58 2292.91 L1675.58 2292.91 L1688.20 2292.91 L1688.20 2292.91 L1697.60 2292.91 L1697.60 2292.17 L1722.72 2292.17 L1722.72 2291.55 L1735.35 2291.55 L1735.35 2290.81 L1744.75 2290.81 L1744.75 2290.19 L1747.97 2290.19 L1747.97 2290.19 L1760.59 2290.19 L1760.59 2289.45 L1770.00 2289.45 L1770.00 2288.21 L1773.09 2288.21 L1773.09 2286.11 L1776.31 2286.11 L1776.31 2285.49 L1779.40 2285.49 L1779.40 2284.74 L1782.62 2284.74 L1782.62 2284.13 L1788.81 2284.13 L1788.81 2282.76 L1795.12 2282.76 L1795.12 2282.15 L1798.34 2282.15 L1798.34 2280.04 L1807.74 2280.04 L1807.74 2279.42 L1810.83 2279.42 L1810.83 2278.68 L1823.46 2278.68 L1823.46 2278.06 L1826.67 2278.06 L1826.67 2277.32 L1829.77 2277.32 L1829.77 2276.70 L1832.86 2276.70 L1832.86 2274.72 L1836.08 2274.72 L1836.08 2273.36 L1839.17 2273.36 L1839.17 2272.62 L1842.39 2272.62 L1842.39 2272.00 L1845.48 2272.00 L1845.48 2271.25 L1851.80 2271.25 L1851.80 2269.27 L1854.89 2269.27 L1854.89 2268.66 L1858.11 2268.66 L1858.11 2266.55 L1861.20 2266.55 L1861.20 2265.93 L1864.42 2265.93 L1864.42 2264.57 L1867.51 2264.57 L1867.51 2263.21 L1870.73 2263.21 L1870.73 2261.85 L1873.82 2261.85 L1873.82 2260.49 L1876.92 2260.49 L1876.92 2259.13 L1880.13 2259.13 L1880.13 2258.51 L1883.23 2258.51 L1883.23 2255.17 L1886.44 2255.17 L1886.44 2251.83 L1889.54 2251.83 L1889.54 2250.46 L1892.76 2250.46 L1892.76 2246.38 L1895.85 2246.38 L1895.85 2243.66 L1898.94 2243.66 L1898.94 2241.68 L1902.16 2241.68 L1902.16 2240.32 L1905.26 2240.32 L1905.26 2239.70 L1908.47 2239.70 L1908.47 2238.95 L1911.57 2238.95 L1911.57 2234.87 L1914.78 2234.87 L1914.78 2232.27 L1917.88 2232.27 L1917.88 2229.55 L1920.97 2229.55 L1920.97 2227.57 L1924.19 2227.57 L1924.19 2226.21 L1927.28 2226.21 L1927.28 2224.85 L1930.50 2224.85 L1930.50 2221.51 L1933.59 2221.51 L1933.59 2217.42 L1939.90 2217.42 L1939.90 2214.70 L1943.00 2214.70 L1943.00 2208.02 L1946.22 2208.02 L1946.22 2204.55 L1949.31 2204.55 L1949.31 2199.85 L1952.53 2199.85 L1952.53 2195.89 L1955.62 2195.89 L1955.62 2191.19 L1958.84 2191.19 L1958.84 2185.74 L1961.93 2185.74 L1961.93 2177.70 L1965.03 2177.70 L1965.03 1912.86" stroke-linejoin="round" style="fill:none;stroke:#FF0000;stroke-width:4.32"/>
	<path d=" M1439.58 2295.51 L1477.33 2295.51 L1477.33 2295.51 L1496.26 2295.51 L1496.26 2295.51 L1518.29 2295.51 L1518.29 2295.51 L1612.71 2295.51 L1612.71 2295.51 L1640.92 2295.51 L1640.92 2295.51 L1675.58 2295.51 L1675.58 2294.89 L1678.79 2294.89 L1678.79 2294.89 L1754.28 2294.89 L1754.28 2294.89 L1757.37 2294.89 L1757.37 2294.15 L1763.68 2294.15 L1763.68 2293.53 L1776.31 2293.53 L1776.31 2292.79 L1779.40 2292.79 L1779.40 2292.17 L1788.81 2292.17 L1788.81 2290.68 L1801.43 2290.68 L1801.43 2290.07 L1804.65 2290.07 L1804.65 2289.32 L1814.05 2289.32 L1814.05 2288.70 L1826.67 2288.70 L1826.67 2287.22 L1829.77 2287.22 L1829.77 2285.86 L1832.86 2285.86 L1832.86 2284.50 L1839.17 2284.50 L1839.17 2283.88 L1845.48 2283.88 L1845.48 2283.14 L1848.70 2283.14 L1848.70 2282.39 L1851.80 2282.39 L1851.80 2281.77 L1854.89 2281.77 L1854.89 2279.67 L1858.11 2279.67 L1858.11 2278.31 L1861.20 2278.31 L1861.20 2276.95 L1864.42 2276.95 L1864.42 2276.20 L1867.51 2276.20 L1867.51 2274.84 L1870.73 2274.84 L1870.73 2274.10 L1873.82 2274.10 L1873.82 2273.48 L1876.92 2273.48 L1876.92 2270.02 L1880.13 2270.02 L1880.13 2268.66 L1883.23 2268.66 L1883.23 2267.29 L1886.44 2267.29 L1886.44 2263.83 L1889.54 2263.83 L1889.54 2263.09 L1892.76 2263.09 L1892.76 2260.98 L1895.85 2260.98 L1895.85 2257.52 L1898.94 2257.52 L1898.94 2256.90 L1902.16 2256.90 L1902.16 2254.05 L1905.26 2254.05 L1905.26 2250.71 L1908.47 2250.71 L1908.47 2249.97 L1911.57 2249.97 L1911.57 2247.25 L1914.78 2247.25 L1914.78 2245.76 L1917.88 2245.76 L1917.88 2243.78 L1920.97 2243.78 L1920.97 2241.68 L1924.19 2241.68 L1924.19 2240.94 L1927.28 2240.94 L1927.28 2238.21 L1930.50 2238.21 L1930.50 2234.75 L1933.59 2234.75 L1933.59 2232.64 L1936.81 2232.64 L1936.81 2229.18 L1939.90 2229.18 L1939.90 2226.46 L1943.00 2226.46 L1943.00 2220.27 L1946.22 2220.27 L1946.22 2215.44 L1949.31 2215.44 L1949.31 2211.23 L1952.53 2211.23 L1952.53 2206.41 L1955.62 2206.41 L1955.62 2198.86 L1958.84 2198.86 L1958.84 2193.29 L1961.93 2193.29 L1961.93 2190.57 L1965.03 2190.57 L1965.03 1905.19" stroke-linejoin="round" style="fill:none;stroke:#0000FF;stroke-width:4.32"/>
	<line x1="1363.97" y1="2327.19" x2="1363.97" y2="1873.39" style="stroke:#000000;stroke-width:3.00"/>
	<line x1="1363.97" y1="2295.51" x2="1343.92" y2="2295.51" style="stroke:#000000;stroke-width:3.00"/>
	<text x="1333.90" y="2313.04" style="font-family:'Helvetica';font-size:49.99px;fill:#000000" text-anchor="end">0.000</text>
	<line x1="1363.97" y1="2291.67" x2="1343.92" y2="2291.67" style="stroke:#000000;stroke-width:3.00"/>
	<text x="1333.90" y="2309.20" style="font-family:'Helvetica';font-size:49.99px;fill:#000000" text-anchor="end">0.002</text>
	<line x1="1363.97" y1="2287.84" x2="1343.92" y2="2287.84" style="stroke:#000000;stroke-width:3.00"/>
	<text x="1333.90" y="2305.37" style="font-family:'Helvetica';font-size:49.99px;fill:#000000" text-anchor="end">0.004</text>
	<line x1="1363.97" y1="2284.00" x2="1343.92" y2="2284.00" style="stroke:#000000;stroke-width:3.00"/>
	<text x="1333.90" y="2301.53" style="font-family:'Helvetica';font-size:49.99px;fill:#000000" text-anchor="end">0.006</text>
	<line x1="1363.97" y1="2280.04" x2="1343.92" y2="2280.04" style="stroke:#000000;stroke-width:3.00"/>
	<text x="1333.90" y="2297.57" style="font-family:'Helvetica';font-size:49.99px;fill:#000000" text-anchor="end">0.008</text>
	<line x1="1363.97" y1="2327.19" x2="1996.83" y2="2327.19" style="stroke:#000000;stroke-width:3.00"/>
	<line x1="1395.65" y1="2327.19" x2="1395.65" y2="2347.24" style="stroke:#000000;stroke-width:3.00"/>
	<text x="1395.65" y="2392.08" style="font-family:'Helvetica';font-size:49.99px;fill:#000000" text-anchor="middle">1 Feb 20</text>
	<line x1="1486.86" y1="2327.19" x2="1486.86" y2="2347.24" style="stroke:#000000;stroke-width:3.00"/>
	<text x="1486.86" y="2392.08" style="font-family:'Helvetica';font-size:49.99px;fill:#000000" text-anchor="middle">1 Mar 20</text>
	<line x1="1584.37" y1="2327.19" x2="1584.37" y2="2347.24" style="stroke:#000000;stroke-width:3.00"/>
	<text x="1584.37" y="2392.08" style="font-family:'Helvetica';font-size:49.99px;fill:#000000" text-anchor="middle">1 Apr 20</text>
	<line x1="1681.89" y1="2327.19" x2="1681.89" y2="2347.24" style="stroke:#000000;stroke-width:3.00"/>
	<text x="1681.89" y="2392.08" style="font-family:'Helvetica';font-size:49.99px;fill:#000000" text-anchor="middle">1 May 20</text>
	<line x1="1779.53" y1="2327.19" x2="1779.53" y2="2347.24" style="stroke:#000000;stroke-width:3.00"/>
	<text x="1779.53" y="2392.08" style="font-family:'Helvetica';font-size:49.99px;fill:#000000" text-anchor="middle">1 Jun 20</text>
	<line x1="1873.95" y1="2327.19" x2="1873.95" y2="2347.24" style="stroke:#000000;stroke-width:3.00"/>
	<text x="1873.95" y="2392.08" style="font-family:'Helvetica';font-size:49.99px;fill:#000000" text-anchor="middle">1 Jul 20</text>
	<text x="1680.40" y="2440.13" style="font-family:'Helvetica';font-size:39.97px;fill:#000000" text-anchor="middle">Days since 1 Feb 2020</text>
	<text x="1680.40" y="1843.77" style="font-family:'Helvetica';font-size:70.04px;fill:#1E2D53" text-anchor="middle">eth10</text>
	<rect x="2047.20" y="1735.77" width="924.66" height="776.80" style="fill:#EAF2F3"/>
	<rect x="2048.70" y="1737.27" width="921.66" height="773.80" style="fill:none;stroke:#EAF2F3;stroke-width:3.00"/>
	<rect x="2288.51" y="1873.39" width="632.98" height="453.81" style="fill:#FFFFFF"/>
	<rect x="2290.01" y="1874.89" width="629.98" height="450.81" style="fill:none;stroke:#FFFFFF;stroke-width:3.00"/>
	<line x1="2288.51" y1="2295.51" x2="2921.49" y2="2295.51" style="stroke:#EAF2F3;stroke-width:4.32"/>
	<line x1="2288.51" y1="2292.05" x2="2921.49" y2="2292.05" style="stroke:#EAF2F3;stroke-width:4.32"/>
	<line x1="2288.51" y1="2288.58" x2="2921.49" y2="2288.58" style="stroke:#EAF2F3;stroke-width:4.32"/>
	<line x1="2288.51" y1="2285.12" x2="2921.49" y2="2285.12" style="stroke:#EAF2F3;stroke-width:4.32"/>
	<line x1="2288.51" y1="2281.65" x2="2921.49" y2="2281.65" style="stroke:#EAF2F3;stroke-width:4.32"/>
	<path d=" M2782.77 2291.30 L2795.39 2291.30 L2795.39 2282.64 L2814.20 2282.64 L2814.20 2278.31 L2817.42 2278.31 L2817.42 2274.10 L2820.51 2274.10 L2820.51 2265.44 L2826.82 2265.44 L2826.82 2261.11 L2845.63 2261.11 L2845.63 2256.78 L2855.16 2256.78 L2855.16 2243.91 L2858.25 2243.91 L2858.25 2235.24 L2861.35 2235.24 L2861.35 2230.91 L2873.97 2230.91 L2873.97 2222.25 L2877.19 2222.25 L2877.19 2218.04 L2880.28 2218.04 L2880.28 2213.71 L2883.38 2213.71 L2883.38 2209.38 L2889.69 2209.38 L2889.69 1980.80" stroke-linejoin="round" style="fill:none;stroke:#FF0000;stroke-width:4.32"/>
	<path d=" M2628.57 2295.51 L2713.47 2295.51 L2713.47 2291.30 L2719.78 2291.30 L2719.78 2286.97 L2735.49 2286.97 L2735.49 2282.64 L2776.45 2282.64 L2776.45 2278.43 L2779.55 2278.43 L2779.55 2274.10 L2782.77 2274.10 L2782.77 2269.77 L2792.17 2269.77 L2792.17 2261.23 L2798.48 2261.23 L2798.48 2252.69 L2804.79 2252.69 L2804.79 2248.36 L2807.89 2248.36 L2807.89 2244.03 L2814.20 2244.03 L2814.20 2235.49 L2836.23 2235.49 L2836.23 2231.16 L2839.32 2231.16 L2839.32 2226.95 L2842.54 2226.95 L2842.54 2218.29 L2845.63 2218.29 L2845.63 2214.08 L2848.85 2214.08 L2848.85 2209.75 L2855.16 2209.75 L2855.16 2205.42 L2861.35 2205.42 L2861.35 2192.55 L2867.66 2192.55 L2867.66 2188.34 L2870.88 2188.34 L2870.88 2179.68 L2873.97 2179.68 L2873.97 2175.47 L2877.19 2175.47 L2877.19 2171.14 L2880.28 2171.14 L2880.28 2162.60 L2886.59 2162.60 L2886.59 2154.06 L2889.69 2154.06 L2889.69 1905.19" stroke-linejoin="round" style="fill:none;stroke:#0000FF;stroke-width:4.32"/>
	<line x1="2288.51" y1="2327.19" x2="2288.51" y2="1873.39" style="stroke:#000000;stroke-width:3.00"/>
	<line x1="2288.51" y1="2295.51" x2="2268.59" y2="2295.51" style="stroke:#000000;stroke-width:3.00"/>
	<text x="2258.56" y="2313.04" style="font-family:'Helvetica';font-size:49.99px;fill:#000000" text-anchor="end">0.000</text>
	<line x1="2288.51" y1="2292.05" x2="2268.59" y2="2292.05" style="stroke:#000000;stroke-width:3.00"/>
	<text x="2258.56" y="2309.58" style="font-family:'Helvetica';font-size:49.99px;fill:#000000" text-anchor="end">0.002</text>
	<line x1="2288.51" y1="2288.58" x2="2268.59" y2="2288.58" style="stroke:#000000;stroke-width:3.00"/>
	<text x="2258.56" y="2306.11" style="font-family:'Helvetica';font-size:49.99px;fill:#000000" text-anchor="end">0.004</text>
	<line x1="2288.51" y1="2285.12" x2="2268.59" y2="2285.12" style="stroke:#000000;stroke-width:3.00"/>
	<text x="2258.56" y="2302.64" style="font-family:'Helvetica';font-size:49.99px;fill:#000000" text-anchor="end">0.006</text>
	<line x1="2288.51" y1="2281.65" x2="2268.59" y2="2281.65" style="stroke:#000000;stroke-width:3.00"/>
	<text x="2258.56" y="2299.18" style="font-family:'Helvetica';font-size:49.99px;fill:#000000" text-anchor="end">0.008</text>
	<line x1="2288.51" y1="2327.19" x2="2921.49" y2="2327.19" style="stroke:#000000;stroke-width:3.00"/>
	<line x1="2320.19" y1="2327.19" x2="2320.19" y2="2347.24" style="stroke:#000000;stroke-width:3.00"/>
	<text x="2320.19" y="2392.08" style="font-family:'Helvetica';font-size:49.99px;fill:#000000" text-anchor="middle">1 Feb 20</text>
	<line x1="2411.52" y1="2327.19" x2="2411.52" y2="2347.24" style="stroke:#000000;stroke-width:3.00"/>
	<text x="2411.52" y="2392.08" style="font-family:'Helvetica';font-size:49.99px;fill:#000000" text-anchor="middle">1 Mar 20</text>
	<line x1="2509.03" y1="2327.19" x2="2509.03" y2="2347.24" style="stroke:#000000;stroke-width:3.00"/>
	<text x="2509.03" y="2392.08" style="font-family:'Helvetica';font-size:49.99px;fill:#000000" text-anchor="middle">1 Apr 20</text>
	<line x1="2606.55" y1="2327.19" x2="2606.55" y2="2347.24" style="stroke:#000000;stroke-width:3.00"/>
	<text x="2606.55" y="2392.08" style="font-family:'Helvetica';font-size:49.99px;fill:#000000" text-anchor="middle">1 May 20</text>
	<line x1="2704.18" y1="2327.19" x2="2704.18" y2="2347.24" style="stroke:#000000;stroke-width:3.00"/>
	<text x="2704.18" y="2392.08" style="font-family:'Helvetica';font-size:49.99px;fill:#000000" text-anchor="middle">1 Jun 20</text>
	<line x1="2798.48" y1="2327.19" x2="2798.48" y2="2347.24" style="stroke:#000000;stroke-width:3.00"/>
	<text x="2798.48" y="2392.08" style="font-family:'Helvetica';font-size:49.99px;fill:#000000" text-anchor="middle">1 Jul 20</text>
	<text x="2605.06" y="2440.13" style="font-family:'Helvetica';font-size:39.97px;fill:#000000" text-anchor="middle">Days since 1 Feb 2020</text>
	<text x="2605.06" y="1843.77" style="font-family:'Helvetica';font-size:70.04px;fill:#1E2D53" text-anchor="middle">eth11</text>
	<text x="150.62" y="1347.31" style="font-family:'Helvetica';font-size:99.99px;fill:#000000" transform="rotate(-90 150.62,1347.31)" text-anchor="middle">Cumulative probability of suspected by ethnic group and sex</text>
	<text x="2047.20" y="131.77" style="font-family:'Helvetica';font-size:110.01px;fill:#000000" text-anchor="middle"></text>
	<rect x="1198.64" y="2547.10" width="1697.11" height="235.01" style="fill:#FFFFFF"/>
	<rect x="1201.52" y="2549.98" width="1691.35" height="229.25" style="fill:none;stroke:#000000;stroke-width:5.76"/>
	<line x1="1241.83" y1="2705.63" x2="1616.17" y2="2705.63" style="stroke:#FF0000;stroke-width:8.64"/>
	<line x1="2096.20" y1="2705.63" x2="2470.55" y2="2705.63" style="stroke:#0000FF;stroke-width:8.64"/>
	<text x="1676.19" y="2733.64" style="font-family:'Helvetica';font-size:79.94px;fill:#000000">Female</text>
	<text x="2530.56" y="2733.64" style="font-family:'Helvetica';font-size:79.94px;fill:#000000">Male</text>
	<text x="2047.20" y="2622.31" style="font-family:'Helvetica';font-size:79.94px;fill:#000000" text-anchor="middle">Sex</text>
</svg>
