<?xml version="1.0" encoding="UTF-8" standalone="no"?>
<!-- This is a Stata 16.1 generated SVG file (http://www.stata.com) -->

<svg version="1.1" width="5.50in" height="4.00in" viewBox="0 0 3960 2880" xmlns="http://www.w3.org/2000/svg" xmlns:xlink="http://www.w3.org/1999/xlink">
	<desc>Stata Graph - Graph</desc>
	<rect x="0" y="0" width="3960" height="2880" style="fill:#EAF2F3;stroke:none"/>
	<rect x="0.00" y="0.00" width="3959.88" height="2880.00" style="fill:#EAF2F3"/>
	<rect x="2.88" y="2.88" width="3954.12" height="2874.24" style="fill:none;stroke:#EAF2F3;stroke-width:5.76"/>
	<rect x="480.64" y="100.86" width="3378.38" height="2428.42" style="fill:#FFFFFF"/>
	<rect x="483.52" y="103.74" width="3372.62" height="2422.66" style="fill:none;stroke:#FFFFFF;stroke-width:5.76"/>
	<line x1="480.64" y1="2529.28" x2="3859.02" y2="2529.28" style="stroke:#EAF2F3;stroke-width:5.76"/>
	<line x1="480.64" y1="2056.29" x2="3859.02" y2="2056.29" style="stroke:#EAF2F3;stroke-width:5.76"/>
	<line x1="480.64" y1="1583.18" x2="3859.02" y2="1583.18" style="stroke:#EAF2F3;stroke-width:5.76"/>
	<line x1="480.64" y1="1110.20" x2="3859.02" y2="1110.20" style="stroke:#EAF2F3;stroke-width:5.76"/>
	<line x1="480.64" y1="637.21" x2="3859.02" y2="637.21" style="stroke:#EAF2F3;stroke-width:5.76"/>
	<line x1="480.64" y1="164.22" x2="3859.02" y2="164.22" style="stroke:#EAF2F3;stroke-width:5.76"/>
	<line x1="833.09" y1="2529.28" x2="833.09" y2="100.86" style="stroke:#EAF2F3;stroke-width:5.76"/>
	<line x1="1473.12" y1="2529.28" x2="1473.12" y2="100.86" style="stroke:#EAF2F3;stroke-width:5.76"/>
	<line x1="2092.49" y1="2529.28" x2="2092.49" y2="100.86" style="stroke:#EAF2F3;stroke-width:5.76"/>
	<line x1="2732.52" y1="2529.28" x2="2732.52" y2="100.86" style="stroke:#EAF2F3;stroke-width:5.76"/>
	<line x1="3351.89" y1="2529.28" x2="3351.89" y2="100.86" style="stroke:#EAF2F3;stroke-width:5.76"/>
	<rect x="698.94" y="2527.30" width="309.62" height="1.98" style="fill:#CAC27E"/>
	<rect x="703.26" y="2524.96" width="300.98" height="6.66" style="fill:none;stroke:#D7D29E;stroke-width:8.64"/>
	<rect x="1008.56" y="2401.57" width="309.75" height="127.71" style="fill:#CAC27E"/>
	<rect x="1012.88" y="2405.89" width="301.11" height="119.07" style="fill:none;stroke:#D7D29E;stroke-width:8.64"/>
	<rect x="1318.31" y="961.69" width="309.62" height="1567.59" style="fill:#CAC27E"/>
	<rect x="1322.63" y="966.01" width="300.98" height="1558.95" style="fill:none;stroke:#D7D29E;stroke-width:8.64"/>
	<rect x="1627.93" y="192.56" width="309.75" height="2336.72" style="fill:#CAC27E"/>
	<rect x="1632.25" y="196.88" width="301.11" height="2328.08" style="fill:none;stroke:#D7D29E;stroke-width:8.64"/>
	<rect x="1937.68" y="1019.86" width="309.62" height="1509.43" style="fill:#CAC27E"/>
	<rect x="1942.00" y="1024.18" width="300.98" height="1500.79" style="fill:none;stroke:#D7D29E;stroke-width:8.64"/>
	<rect x="2247.30" y="1701.99" width="309.75" height="827.29" style="fill:#CAC27E"/>
	<rect x="2251.62" y="1706.31" width="301.11" height="818.65" style="fill:none;stroke:#D7D29E;stroke-width:8.64"/>
	<rect x="2557.05" y="2024.49" width="309.62" height="504.79" style="fill:#CAC27E"/>
	<rect x="2561.37" y="2028.81" width="300.98" height="496.15" style="fill:none;stroke:#D7D29E;stroke-width:8.64"/>
	<rect x="2866.67" y="2293.16" width="309.75" height="236.12" style="fill:#CAC27E"/>
	<rect x="2870.99" y="2297.48" width="301.11" height="227.48" style="fill:none;stroke:#D7D29E;stroke-width:8.64"/>
	<rect x="3176.41" y="2376.94" width="309.62" height="152.34" style="fill:#CAC27E"/>
	<rect x="3180.73" y="2381.26" width="300.98" height="143.70" style="fill:none;stroke:#D7D29E;stroke-width:8.64"/>
	<rect x="3486.04" y="2485.72" width="309.75" height="43.56" style="fill:#CAC27E"/>
	<rect x="3490.36" y="2490.04" width="301.11" height="34.92" style="fill:none;stroke:#D7D29E;stroke-width:8.64"/>
	<line x1="480.64" y1="2529.28" x2="480.64" y2="100.86" style="stroke:#000000;stroke-width:5.76"/>
	<line x1="480.64" y1="2529.28" x2="440.67" y2="2529.28" style="stroke:#000000;stroke-width:5.76"/>
	<text x="420.75" y="2557.29" style="font-family:'Helvetica';font-size:79.94px;fill:#000000" text-anchor="end">0</text>
	<line x1="480.64" y1="2056.29" x2="440.67" y2="2056.29" style="stroke:#000000;stroke-width:5.76"/>
	<text x="420.75" y="2084.31" style="font-family:'Helvetica';font-size:79.94px;fill:#000000" text-anchor="end">1000</text>
	<line x1="480.64" y1="1583.18" x2="440.67" y2="1583.18" style="stroke:#000000;stroke-width:5.76"/>
	<text x="420.75" y="1611.19" style="font-family:'Helvetica';font-size:79.94px;fill:#000000" text-anchor="end">2000</text>
	<line x1="480.64" y1="1110.20" x2="440.67" y2="1110.20" style="stroke:#000000;stroke-width:5.76"/>
	<text x="420.75" y="1138.21" style="font-family:'Helvetica';font-size:79.94px;fill:#000000" text-anchor="end">3000</text>
	<line x1="480.64" y1="637.21" x2="440.67" y2="637.21" style="stroke:#000000;stroke-width:5.76"/>
	<text x="420.75" y="665.22" style="font-family:'Helvetica';font-size:79.94px;fill:#000000" text-anchor="end">4000</text>
	<line x1="480.64" y1="164.22" x2="440.67" y2="164.22" style="stroke:#000000;stroke-width:5.76"/>
	<text x="420.75" y="192.23" style="font-family:'Helvetica';font-size:79.94px;fill:#000000" text-anchor="end">5000</text>
	<text x="176.68" y="1315.01" style="font-family:'Helvetica';font-size:79.94px;fill:#000000" transform="rotate(-90 176.68,1315.01)" text-anchor="middle">onscoviddeath</text>
	<line x1="480.64" y1="2529.28" x2="3859.02" y2="2529.28" style="stroke:#000000;stroke-width:5.76"/>
	<line x1="833.09" y1="2529.28" x2="833.09" y2="2569.25" style="stroke:#000000;stroke-width:5.76"/>
	<text x="833.09" y="2645.20" style="font-family:'Helvetica';font-size:79.94px;fill:#000000" text-anchor="middle">01mar2020</text>
	<line x1="1473.12" y1="2529.28" x2="1473.12" y2="2569.25" style="stroke:#000000;stroke-width:5.76"/>
	<text x="1473.12" y="2645.20" style="font-family:'Helvetica';font-size:79.94px;fill:#000000" text-anchor="middle">01apr2020</text>
	<line x1="2092.49" y1="2529.28" x2="2092.49" y2="2569.25" style="stroke:#000000;stroke-width:5.76"/>
	<text x="2092.49" y="2645.20" style="font-family:'Helvetica';font-size:79.94px;fill:#000000" text-anchor="middle">01may2020</text>
	<line x1="2732.52" y1="2529.28" x2="2732.52" y2="2569.25" style="stroke:#000000;stroke-width:5.76"/>
	<text x="2732.52" y="2645.20" style="font-family:'Helvetica';font-size:79.94px;fill:#000000" text-anchor="middle">01jun2020</text>
	<line x1="3351.89" y1="2529.28" x2="3351.89" y2="2569.25" style="stroke:#000000;stroke-width:5.76"/>
	<text x="3351.89" y="2645.20" style="font-family:'Helvetica';font-size:79.94px;fill:#000000" text-anchor="middle">01jul2020</text>
	<text x="2169.83" y="2735.17" style="font-family:'Helvetica';font-size:79.94px;fill:#000000" text-anchor="middle">Date</text>
</svg>
