<?xml version="1.0" encoding="UTF-8" standalone="no"?>
<!-- This is a Stata 16.1 generated SVG file (http://www.stata.com) -->

<svg version="1.1" width="5.50in" height="4.00in" viewBox="0 0 3960 2880" xmlns="http://www.w3.org/2000/svg" xmlns:xlink="http://www.w3.org/1999/xlink">
	<desc>Stata Graph - Graph</desc>
	<rect x="0" y="0" width="3960" height="2880" style="fill:#EAF2F3;stroke:none"/>
	<rect x="0.00" y="0.00" width="3959.88" height="2880.00" style="fill:#EAF2F3"/>
	<rect x="2.88" y="2.88" width="3954.12" height="2874.24" style="fill:none;stroke:#EAF2F3;stroke-width:5.76"/>
	<rect x="480.64" y="100.86" width="3378.38" height="2428.42" style="fill:#FFFFFF"/>
	<rect x="483.52" y="103.74" width="3372.62" height="2422.66" style="fill:none;stroke:#FFFFFF;stroke-width:5.76"/>
	<line x1="480.64" y1="2529.28" x2="3859.02" y2="2529.28" style="stroke:#EAF2F3;stroke-width:5.76"/>
	<line x1="480.64" y1="1740.85" x2="3859.02" y2="1740.85" style="stroke:#EAF2F3;stroke-width:5.76"/>
	<line x1="480.64" y1="952.53" x2="3859.02" y2="952.53" style="stroke:#EAF2F3;stroke-width:5.76"/>
	<line x1="480.64" y1="164.22" x2="3859.02" y2="164.22" style="stroke:#EAF2F3;stroke-width:5.76"/>
	<line x1="807.96" y1="2529.28" x2="807.96" y2="100.86" style="stroke:#EAF2F3;stroke-width:5.76"/>
	<line x1="1392.31" y1="2529.28" x2="1392.31" y2="100.86" style="stroke:#EAF2F3;stroke-width:5.76"/>
	<line x1="1957.85" y1="2529.28" x2="1957.85" y2="100.86" style="stroke:#EAF2F3;stroke-width:5.76"/>
	<line x1="2542.20" y1="2529.28" x2="2542.20" y2="100.86" style="stroke:#EAF2F3;stroke-width:5.76"/>
	<line x1="3107.73" y1="2529.28" x2="3107.73" y2="100.86" style="stroke:#EAF2F3;stroke-width:5.76"/>
	<rect x="685.45" y="2526.93" width="282.77" height="2.35" style="fill:#CAC27E"/>
	<rect x="689.77" y="2524.96" width="274.13" height="6.29" style="fill:none;stroke:#D7D29E;stroke-width:8.64"/>
	<rect x="968.22" y="2339.20" width="282.77" height="190.09" style="fill:#CAC27E"/>
	<rect x="972.54" y="2343.52" width="274.13" height="181.45" style="fill:none;stroke:#D7D29E;stroke-width:8.64"/>
	<rect x="1250.99" y="522.86" width="282.64" height="2006.42" style="fill:#CAC27E"/>
	<rect x="1255.31" y="527.18" width="274.01" height="1997.78" style="fill:none;stroke:#D7D29E;stroke-width:8.64"/>
	<rect x="1533.63" y="217.81" width="282.77" height="2311.47" style="fill:#CAC27E"/>
	<rect x="1537.95" y="222.13" width="274.13" height="2302.84" style="fill:none;stroke:#D7D29E;stroke-width:8.64"/>
	<rect x="1816.40" y="1165.39" width="282.77" height="1363.89" style="fill:#CAC27E"/>
	<rect x="1820.72" y="1169.71" width="274.13" height="1355.25" style="fill:none;stroke:#D7D29E;stroke-width:8.64"/>
	<rect x="2099.17" y="1766.96" width="282.77" height="762.32" style="fill:#CAC27E"/>
	<rect x="2103.49" y="1771.28" width="274.13" height="753.68" style="fill:none;stroke:#D7D29E;stroke-width:8.64"/>
	<rect x="2381.94" y="2006.55" width="282.77" height="522.74" style="fill:#CAC27E"/>
	<rect x="2386.26" y="2010.87" width="274.13" height="514.10" style="fill:none;stroke:#D7D29E;stroke-width:8.64"/>
	<rect x="2664.71" y="2278.56" width="282.77" height="250.73" style="fill:#CAC27E"/>
	<rect x="2669.03" y="2282.88" width="274.13" height="242.09" style="fill:none;stroke:#D7D29E;stroke-width:8.64"/>
	<rect x="2947.48" y="2381.02" width="282.77" height="148.26" style="fill:#CAC27E"/>
	<rect x="2951.80" y="2385.34" width="274.13" height="139.62" style="fill:none;stroke:#D7D29E;stroke-width:8.64"/>
	<rect x="3230.25" y="2455.90" width="282.77" height="73.39" style="fill:#CAC27E"/>
	<rect x="3234.57" y="2460.22" width="274.13" height="64.75" style="fill:none;stroke:#D7D29E;stroke-width:8.64"/>
	<rect x="3513.01" y="2496.98" width="282.77" height="32.30" style="fill:#CAC27E"/>
	<rect x="3517.33" y="2501.30" width="274.13" height="23.66" style="fill:none;stroke:#D7D29E;stroke-width:8.64"/>
	<line x1="480.64" y1="2529.28" x2="480.64" y2="100.86" style="stroke:#000000;stroke-width:5.76"/>
	<line x1="480.64" y1="2529.28" x2="440.67" y2="2529.28" style="stroke:#000000;stroke-width:5.76"/>
	<text x="420.75" y="2557.29" style="font-family:'Helvetica';font-size:79.94px;fill:#000000" text-anchor="end">0</text>
	<line x1="480.64" y1="1740.85" x2="440.67" y2="1740.85" style="stroke:#000000;stroke-width:5.76"/>
	<text x="420.75" y="1768.86" style="font-family:'Helvetica';font-size:79.94px;fill:#000000" text-anchor="end">1000</text>
	<line x1="480.64" y1="952.53" x2="440.67" y2="952.53" style="stroke:#000000;stroke-width:5.76"/>
	<text x="420.75" y="980.55" style="font-family:'Helvetica';font-size:79.94px;fill:#000000" text-anchor="end">2000</text>
	<line x1="480.64" y1="164.22" x2="440.67" y2="164.22" style="stroke:#000000;stroke-width:5.76"/>
	<text x="420.75" y="192.23" style="font-family:'Helvetica';font-size:79.94px;fill:#000000" text-anchor="end">3000</text>
	<text x="176.68" y="1315.01" style="font-family:'Helvetica';font-size:79.94px;fill:#000000" transform="rotate(-90 176.68,1315.01)" text-anchor="middle">cpnsdeath</text>
	<line x1="480.64" y1="2529.28" x2="3859.02" y2="2529.28" style="stroke:#000000;stroke-width:5.76"/>
	<line x1="807.96" y1="2529.28" x2="807.96" y2="2569.25" style="stroke:#000000;stroke-width:5.76"/>
	<text x="807.96" y="2645.20" style="font-family:'Helvetica';font-size:79.94px;fill:#000000" text-anchor="middle">01mar2020</text>
	<line x1="1392.31" y1="2529.28" x2="1392.31" y2="2569.25" style="stroke:#000000;stroke-width:5.76"/>
	<text x="1392.31" y="2645.20" style="font-family:'Helvetica';font-size:79.94px;fill:#000000" text-anchor="middle">01apr2020</text>
	<line x1="1957.85" y1="2529.28" x2="1957.85" y2="2569.25" style="stroke:#000000;stroke-width:5.76"/>
	<text x="1957.85" y="2645.20" style="font-family:'Helvetica';font-size:79.94px;fill:#000000" text-anchor="middle">01may2020</text>
	<line x1="2542.20" y1="2529.28" x2="2542.20" y2="2569.25" style="stroke:#000000;stroke-width:5.76"/>
	<text x="2542.20" y="2645.20" style="font-family:'Helvetica';font-size:79.94px;fill:#000000" text-anchor="middle">01jun2020</text>
	<line x1="3107.73" y1="2529.28" x2="3107.73" y2="2569.25" style="stroke:#000000;stroke-width:5.76"/>
	<text x="3107.73" y="2645.20" style="font-family:'Helvetica';font-size:79.94px;fill:#000000" text-anchor="middle">01jul2020</text>
	<line x1="3692.08" y1="2529.28" x2="3692.08" y2="2569.25" style="stroke:#000000;stroke-width:5.76"/>
	<text x="3692.08" y="2645.20" style="font-family:'Helvetica';font-size:79.94px;fill:#000000" text-anchor="middle">01aug2020</text>
	<text x="2169.83" y="2735.17" style="font-family:'Helvetica';font-size:79.94px;fill:#000000" text-anchor="middle">Date</text>
</svg>
