<?xml version="1.0" encoding="UTF-8" standalone="no"?>
<!-- This is a Stata 16.1 generated SVG file (http://www.stata.com) -->

<svg version="1.1" width="5.50in" height="4.00in" viewBox="0 0 3960 2880" xmlns="http://www.w3.org/2000/svg" xmlns:xlink="http://www.w3.org/1999/xlink">
	<desc>Stata Graph - Graph</desc>
	<rect x="0" y="0" width="3960" height="2880" style="fill:#EAF2F3;stroke:none"/>
	<rect x="0.00" y="0.00" width="3959.88" height="2880.00" style="fill:#EAF2F3"/>
	<rect x="2.88" y="2.88" width="3954.12" height="2874.24" style="fill:none;stroke:#EAF2F3;stroke-width:5.76"/>
	<rect x="599.69" y="100.86" width="3259.33" height="2428.42" style="fill:#FFFFFF"/>
	<rect x="602.57" y="103.74" width="3253.57" height="2422.66" style="fill:none;stroke:#FFFFFF;stroke-width:5.76"/>
	<line x1="599.69" y1="2529.28" x2="3859.02" y2="2529.28" style="stroke:#EAF2F3;stroke-width:5.76"/>
	<line x1="599.69" y1="1937.99" x2="3859.02" y2="1937.99" style="stroke:#EAF2F3;stroke-width:5.76"/>
	<line x1="599.69" y1="1346.69" x2="3859.02" y2="1346.69" style="stroke:#EAF2F3;stroke-width:5.76"/>
	<line x1="599.69" y1="755.39" x2="3859.02" y2="755.39" style="stroke:#EAF2F3;stroke-width:5.76"/>
	<line x1="599.69" y1="164.22" x2="3859.02" y2="164.22" style="stroke:#EAF2F3;stroke-width:5.76"/>
	<line x1="833.21" y1="2529.28" x2="833.21" y2="100.86" style="stroke:#EAF2F3;stroke-width:5.76"/>
	<line x1="1761.46" y1="2529.28" x2="1761.46" y2="100.86" style="stroke:#EAF2F3;stroke-width:5.76"/>
	<line x1="2705.05" y1="2529.28" x2="2705.05" y2="100.86" style="stroke:#EAF2F3;stroke-width:5.76"/>
	<line x1="3648.77" y1="2529.28" x2="3648.77" y2="100.86" style="stroke:#EAF2F3;stroke-width:5.76"/>
	<rect x="779.01" y="2528.66" width="232.03" height="0.62" style="fill:#CAC27E"/>
	<rect x="783.33" y="2524.96" width="223.39" height="8.02" style="fill:none;stroke:#D7D29E;stroke-width:8.64"/>
	<rect x="1011.04" y="2528.54" width="232.16" height="0.74" style="fill:#CAC27E"/>
	<rect x="1015.36" y="2524.96" width="223.52" height="7.90" style="fill:none;stroke:#D7D29E;stroke-width:8.64"/>
	<rect x="1243.19" y="2476.19" width="232.03" height="53.09" style="fill:#CAC27E"/>
	<rect x="1247.51" y="2480.51" width="223.39" height="44.45" style="fill:none;stroke:#D7D29E;stroke-width:8.64"/>
	<rect x="1475.22" y="1873.01" width="232.03" height="656.27" style="fill:#CAC27E"/>
	<rect x="1479.54" y="1877.33" width="223.39" height="647.63" style="fill:none;stroke:#D7D29E;stroke-width:8.64"/>
	<rect x="1707.26" y="771.23" width="232.03" height="1758.05" style="fill:#CAC27E"/>
	<rect x="1711.57" y="775.55" width="223.39" height="1749.41" style="fill:none;stroke:#D7D29E;stroke-width:8.64"/>
	<rect x="1939.29" y="472.74" width="232.03" height="2056.54" style="fill:#CAC27E"/>
	<rect x="1943.61" y="477.06" width="223.39" height="2047.90" style="fill:none;stroke:#D7D29E;stroke-width:8.64"/>
	<rect x="2171.32" y="759.23" width="232.03" height="1770.05" style="fill:#CAC27E"/>
	<rect x="2175.64" y="763.55" width="223.39" height="1761.41" style="fill:none;stroke:#D7D29E;stroke-width:8.64"/>
	<rect x="2403.35" y="1451.51" width="232.15" height="1077.77" style="fill:#CAC27E"/>
	<rect x="2407.67" y="1455.83" width="223.52" height="1069.13" style="fill:none;stroke:#D7D29E;stroke-width:8.64"/>
	<rect x="2635.50" y="1910.14" width="232.03" height="619.14" style="fill:#CAC27E"/>
	<rect x="2639.82" y="1914.46" width="223.39" height="610.50" style="fill:none;stroke:#D7D29E;stroke-width:8.64"/>
	<rect x="2867.53" y="2027.83" width="232.03" height="501.45" style="fill:#CAC27E"/>
	<rect x="2871.85" y="2032.15" width="223.39" height="492.81" style="fill:none;stroke:#D7D29E;stroke-width:8.64"/>
	<rect x="3099.57" y="2222.37" width="232.03" height="306.91" style="fill:#CAC27E"/>
	<rect x="3103.89" y="2226.69" width="223.39" height="298.27" style="fill:none;stroke:#D7D29E;stroke-width:8.64"/>
	<rect x="3331.60" y="2243.78" width="232.03" height="285.50" style="fill:#CAC27E"/>
	<rect x="3335.92" y="2248.10" width="223.39" height="276.86" style="fill:none;stroke:#D7D29E;stroke-width:8.64"/>
	<rect x="3563.63" y="2470.50" width="232.03" height="58.78" style="fill:#CAC27E"/>
	<rect x="3567.95" y="2474.82" width="223.39" height="50.14" style="fill:none;stroke:#D7D29E;stroke-width:8.64"/>
	<line x1="599.69" y1="2529.28" x2="599.69" y2="100.86" style="stroke:#000000;stroke-width:5.76"/>
	<line x1="599.69" y1="2529.28" x2="559.72" y2="2529.28" style="stroke:#000000;stroke-width:5.76"/>
	<text x="539.67" y="2557.29" style="font-family:'Helvetica';font-size:79.94px;fill:#000000" text-anchor="end">0</text>
	<line x1="599.69" y1="1937.99" x2="559.72" y2="1937.99" style="stroke:#000000;stroke-width:5.76"/>
	<text x="539.67" y="1966.00" style="font-family:'Helvetica';font-size:79.94px;fill:#000000" text-anchor="end">5000</text>
	<line x1="599.69" y1="1346.69" x2="559.72" y2="1346.69" style="stroke:#000000;stroke-width:5.76"/>
	<text x="539.67" y="1374.70" style="font-family:'Helvetica';font-size:79.94px;fill:#000000" text-anchor="end">1.0e+04</text>
	<line x1="599.69" y1="755.39" x2="559.72" y2="755.39" style="stroke:#000000;stroke-width:5.76"/>
	<text x="539.67" y="783.41" style="font-family:'Helvetica';font-size:79.94px;fill:#000000" text-anchor="end">1.5e+04</text>
	<line x1="599.69" y1="164.22" x2="559.72" y2="164.22" style="stroke:#000000;stroke-width:5.76"/>
	<text x="539.67" y="192.23" style="font-family:'Helvetica';font-size:79.94px;fill:#000000" text-anchor="end">2.0e+04</text>
	<text x="176.68" y="1315.01" style="font-family:'Helvetica';font-size:79.94px;fill:#000000" transform="rotate(-90 176.68,1315.01)" text-anchor="middle">positivetest</text>
	<line x1="599.69" y1="2529.28" x2="3859.02" y2="2529.28" style="stroke:#000000;stroke-width:5.76"/>
	<line x1="833.21" y1="2529.28" x2="833.21" y2="2569.25" style="stroke:#000000;stroke-width:5.76"/>
	<text x="833.21" y="2645.20" style="font-family:'Helvetica';font-size:79.94px;fill:#000000" text-anchor="middle">01feb2020</text>
	<line x1="1761.46" y1="2529.28" x2="1761.46" y2="2569.25" style="stroke:#000000;stroke-width:5.76"/>
	<text x="1761.46" y="2645.20" style="font-family:'Helvetica';font-size:79.94px;fill:#000000" text-anchor="middle">01apr2020</text>
	<line x1="2705.05" y1="2529.28" x2="2705.05" y2="2569.25" style="stroke:#000000;stroke-width:5.76"/>
	<text x="2705.05" y="2645.20" style="font-family:'Helvetica';font-size:79.94px;fill:#000000" text-anchor="middle">01jun2020</text>
	<line x1="3648.77" y1="2529.28" x2="3648.77" y2="2569.25" style="stroke:#000000;stroke-width:5.76"/>
	<text x="3648.77" y="2645.20" style="font-family:'Helvetica';font-size:79.94px;fill:#000000" text-anchor="middle">01aug2020</text>
	<text x="2229.36" y="2735.17" style="font-family:'Helvetica';font-size:79.94px;fill:#000000" text-anchor="middle">Date</text>
</svg>
