<?xml version="1.0" encoding="UTF-8" standalone="no"?>
<!-- This is a Stata 16.1 generated SVG file (http://www.stata.com) -->

<svg version="1.1" width="5.50in" height="4.00in" viewBox="0 0 3960 2880" xmlns="http://www.w3.org/2000/svg" xmlns:xlink="http://www.w3.org/1999/xlink">
	<desc>Stata Graph - Graph</desc>
	<rect x="0" y="0" width="3960" height="2880" style="fill:#EAF2F3;stroke:none"/>
	<rect x="0.00" y="0.00" width="3959.88" height="2880.00" style="fill:#EAF2F3"/>
	<rect x="2.88" y="2.88" width="3954.12" height="2874.24" style="fill:none;stroke:#EAF2F3;stroke-width:5.76"/>
	<rect x="480.64" y="100.86" width="3378.38" height="2428.42" style="fill:#FFFFFF"/>
	<rect x="483.52" y="103.74" width="3372.62" height="2422.66" style="fill:none;stroke:#FFFFFF;stroke-width:5.76"/>
	<line x1="480.64" y1="2529.28" x2="3859.02" y2="2529.28" style="stroke:#EAF2F3;stroke-width:5.76"/>
	<line x1="480.64" y1="1740.85" x2="3859.02" y2="1740.85" style="stroke:#EAF2F3;stroke-width:5.76"/>
	<line x1="480.64" y1="952.53" x2="3859.02" y2="952.53" style="stroke:#EAF2F3;stroke-width:5.76"/>
	<line x1="480.64" y1="164.22" x2="3859.02" y2="164.22" style="stroke:#EAF2F3;stroke-width:5.76"/>
	<line x1="853.75" y1="2529.28" x2="853.75" y2="100.86" style="stroke:#EAF2F3;stroke-width:5.76"/>
	<line x1="1493.79" y1="2529.28" x2="1493.79" y2="100.86" style="stroke:#EAF2F3;stroke-width:5.76"/>
	<line x1="2113.16" y1="2529.28" x2="2113.16" y2="100.86" style="stroke:#EAF2F3;stroke-width:5.76"/>
	<line x1="2753.07" y1="2529.28" x2="2753.07" y2="100.86" style="stroke:#EAF2F3;stroke-width:5.76"/>
	<line x1="3372.43" y1="2529.28" x2="3372.43" y2="100.86" style="stroke:#EAF2F3;stroke-width:5.76"/>
	<rect x="698.94" y="2516.66" width="309.62" height="12.62" style="fill:#CAC27E"/>
	<rect x="703.26" y="2520.98" width="300.98" height="3.98" style="fill:none;stroke:#D7D29E;stroke-width:8.64"/>
	<rect x="1008.56" y="2139.83" width="309.75" height="389.45" style="fill:#CAC27E"/>
	<rect x="1012.88" y="2144.15" width="301.11" height="380.81" style="fill:none;stroke:#D7D29E;stroke-width:8.64"/>
	<rect x="1318.31" y="507.89" width="309.62" height="2021.40" style="fill:#CAC27E"/>
	<rect x="1322.63" y="512.21" width="300.98" height="2012.76" style="fill:none;stroke:#D7D29E;stroke-width:8.64"/>
	<rect x="1627.93" y="1403.49" width="309.75" height="1125.79" style="fill:#CAC27E"/>
	<rect x="1632.25" y="1407.81" width="301.11" height="1117.15" style="fill:none;stroke:#D7D29E;stroke-width:8.64"/>
	<rect x="1937.68" y="2072.01" width="309.62" height="457.27" style="fill:#CAC27E"/>
	<rect x="1942.00" y="2076.33" width="300.98" height="448.63" style="fill:none;stroke:#D7D29E;stroke-width:8.64"/>
	<rect x="2247.30" y="2269.15" width="309.75" height="260.13" style="fill:#CAC27E"/>
	<rect x="2251.62" y="2273.47" width="301.11" height="251.49" style="fill:none;stroke:#D7D29E;stroke-width:8.64"/>
	<rect x="2557.05" y="2382.63" width="309.62" height="146.65" style="fill:#CAC27E"/>
	<rect x="2561.37" y="2386.95" width="300.98" height="138.01" style="fill:none;stroke:#D7D29E;stroke-width:8.64"/>
	<rect x="2866.67" y="2428.30" width="309.75" height="100.98" style="fill:#CAC27E"/>
	<rect x="2870.99" y="2432.62" width="301.11" height="92.34" style="fill:none;stroke:#D7D29E;stroke-width:8.64"/>
	<rect x="3176.41" y="2463.07" width="309.62" height="66.21" style="fill:#CAC27E"/>
	<rect x="3180.73" y="2467.39" width="300.98" height="57.57" style="fill:none;stroke:#D7D29E;stroke-width:8.64"/>
	<rect x="3486.04" y="2519.75" width="309.75" height="9.53" style="fill:#CAC27E"/>
	<rect x="3490.36" y="2524.07" width="301.11" height="0.89" style="fill:none;stroke:#D7D29E;stroke-width:8.64"/>
	<line x1="480.64" y1="2529.28" x2="480.64" y2="100.86" style="stroke:#000000;stroke-width:5.76"/>
	<line x1="480.64" y1="2529.28" x2="440.67" y2="2529.28" style="stroke:#000000;stroke-width:5.76"/>
	<text x="420.75" y="2557.29" style="font-family:'Helvetica';font-size:79.94px;fill:#000000" text-anchor="end">0</text>
	<line x1="480.64" y1="1740.85" x2="440.67" y2="1740.85" style="stroke:#000000;stroke-width:5.76"/>
	<text x="420.75" y="1768.86" style="font-family:'Helvetica';font-size:79.94px;fill:#000000" text-anchor="end">500</text>
	<line x1="480.64" y1="952.53" x2="440.67" y2="952.53" style="stroke:#000000;stroke-width:5.76"/>
	<text x="420.75" y="980.55" style="font-family:'Helvetica';font-size:79.94px;fill:#000000" text-anchor="end">1000</text>
	<line x1="480.64" y1="164.22" x2="440.67" y2="164.22" style="stroke:#000000;stroke-width:5.76"/>
	<text x="420.75" y="192.23" style="font-family:'Helvetica';font-size:79.94px;fill:#000000" text-anchor="end">1500</text>
	<text x="176.68" y="1315.01" style="font-family:'Helvetica';font-size:79.94px;fill:#000000" transform="rotate(-90 176.68,1315.01)" text-anchor="middle">icu</text>
	<line x1="480.64" y1="2529.28" x2="3859.02" y2="2529.28" style="stroke:#000000;stroke-width:5.76"/>
	<line x1="853.75" y1="2529.28" x2="853.75" y2="2569.25" style="stroke:#000000;stroke-width:5.76"/>
	<text x="853.75" y="2645.20" style="font-family:'Helvetica';font-size:79.94px;fill:#000000" text-anchor="middle">01mar2020</text>
	<line x1="1493.79" y1="2529.28" x2="1493.79" y2="2569.25" style="stroke:#000000;stroke-width:5.76"/>
	<text x="1493.79" y="2645.20" style="font-family:'Helvetica';font-size:79.94px;fill:#000000" text-anchor="middle">01apr2020</text>
	<line x1="2113.16" y1="2529.28" x2="2113.16" y2="2569.25" style="stroke:#000000;stroke-width:5.76"/>
	<text x="2113.16" y="2645.20" style="font-family:'Helvetica';font-size:79.94px;fill:#000000" text-anchor="middle">01may2020</text>
	<line x1="2753.07" y1="2529.28" x2="2753.07" y2="2569.25" style="stroke:#000000;stroke-width:5.76"/>
	<text x="2753.07" y="2645.20" style="font-family:'Helvetica';font-size:79.94px;fill:#000000" text-anchor="middle">01jun2020</text>
	<line x1="3372.43" y1="2529.28" x2="3372.43" y2="2569.25" style="stroke:#000000;stroke-width:5.76"/>
	<text x="3372.43" y="2645.20" style="font-family:'Helvetica';font-size:79.94px;fill:#000000" text-anchor="middle">01jul2020</text>
	<text x="2169.83" y="2735.17" style="font-family:'Helvetica';font-size:79.94px;fill:#000000" text-anchor="middle">Date</text>
</svg>
