<?xml version="1.0" encoding="UTF-8" standalone="no"?>
<!-- This is a Stata 16.1 generated SVG file (http://www.stata.com) -->

<svg version="1.1" width="5.50in" height="4.00in" viewBox="0 0 3960 2880" xmlns="http://www.w3.org/2000/svg" xmlns:xlink="http://www.w3.org/1999/xlink">
	<desc>Stata Graph - Graph</desc>
	<rect x="0" y="0" width="3960" height="2880" style="fill:#EAF2F3;stroke:none"/>
	<rect x="0.00" y="0.00" width="3959.88" height="2880.00" style="fill:#EAF2F3"/>
	<rect x="2.88" y="2.88" width="3954.12" height="2874.24" style="fill:none;stroke:#EAF2F3;stroke-width:5.76"/>
	<rect x="599.69" y="100.86" width="3259.33" height="2428.42" style="fill:#FFFFFF"/>
	<rect x="602.57" y="103.74" width="3253.57" height="2422.66" style="fill:none;stroke:#FFFFFF;stroke-width:5.76"/>
	<line x1="599.69" y1="2529.28" x2="3859.02" y2="2529.28" style="stroke:#EAF2F3;stroke-width:5.76"/>
	<line x1="599.69" y1="1740.85" x2="3859.02" y2="1740.85" style="stroke:#EAF2F3;stroke-width:5.76"/>
	<line x1="599.69" y1="952.53" x2="3859.02" y2="952.53" style="stroke:#EAF2F3;stroke-width:5.76"/>
	<line x1="664.04" y1="2529.28" x2="664.04" y2="100.86" style="stroke:#EAF2F3;stroke-width:5.76"/>
	<line x1="1183.42" y1="2529.28" x2="1183.42" y2="100.86" style="stroke:#EAF2F3;stroke-width:5.76"/>
	<line x1="1702.80" y1="2529.28" x2="1702.80" y2="100.86" style="stroke:#EAF2F3;stroke-width:5.76"/>
	<line x1="2222.05" y1="2529.28" x2="2222.05" y2="100.86" style="stroke:#EAF2F3;stroke-width:5.76"/>
	<line x1="2741.43" y1="2529.28" x2="2741.43" y2="100.86" style="stroke:#EAF2F3;stroke-width:5.76"/>
	<line x1="3260.81" y1="2529.28" x2="3260.81" y2="100.86" style="stroke:#EAF2F3;stroke-width:5.76"/>
	<line x1="3780.19" y1="2529.28" x2="3780.19" y2="100.86" style="stroke:#EAF2F3;stroke-width:5.76"/>
	<rect x="663.55" y="2526.31" width="1.11" height="2.97" style="fill:#CAC27E"/>
	<rect x="660.34" y="2524.96" width="7.53" height="5.67" style="fill:none;stroke:#D7D29E;stroke-width:8.64"/>
	<rect x="1399.37" y="2529.03" width="1.11" height="0.25" style="fill:#CAC27E"/>
	<rect x="1396.16" y="2524.96" width="7.53" height="8.39" style="fill:none;stroke:#D7D29E;stroke-width:8.64"/>
	<rect x="1495.39" y="2529.03" width="1.11" height="0.25" style="fill:#CAC27E"/>
	<rect x="1492.19" y="2524.96" width="7.53" height="8.39" style="fill:none;stroke:#D7D29E;stroke-width:8.64"/>
	<rect x="1527.32" y="2529.03" width="1.11" height="0.25" style="fill:#CAC27E"/>
	<rect x="1524.12" y="2524.96" width="7.53" height="8.39" style="fill:none;stroke:#D7D29E;stroke-width:8.64"/>
	<rect x="1757.74" y="2529.03" width="1.11" height="0.25" style="fill:#CAC27E"/>
	<rect x="1754.54" y="2524.96" width="7.53" height="8.39" style="fill:none;stroke:#D7D29E;stroke-width:8.64"/>
	<rect x="1911.32" y="2529.03" width="0.99" height="0.25" style="fill:#CAC27E"/>
	<rect x="1907.99" y="2524.96" width="7.65" height="8.39" style="fill:none;stroke:#D7D29E;stroke-width:8.64"/>
	<rect x="1923.08" y="2529.03" width="0.99" height="0.25" style="fill:#CAC27E"/>
	<rect x="1919.75" y="2524.96" width="7.65" height="8.39" style="fill:none;stroke:#D7D29E;stroke-width:8.64"/>
	<rect x="2550.12" y="2529.03" width="1.11" height="0.25" style="fill:#CAC27E"/>
	<rect x="2546.91" y="2524.96" width="7.53" height="8.39" style="fill:none;stroke:#D7D29E;stroke-width:8.64"/>
	<rect x="2651.47" y="2529.03" width="0.99" height="0.25" style="fill:#CAC27E"/>
	<rect x="2648.14" y="2524.96" width="7.65" height="8.39" style="fill:none;stroke:#D7D29E;stroke-width:8.64"/>
	<rect x="2675.97" y="2529.03" width="0.99" height="0.25" style="fill:#CAC27E"/>
	<rect x="2672.64" y="2524.96" width="7.65" height="8.39" style="fill:none;stroke:#D7D29E;stroke-width:8.64"/>
	<rect x="2823.11" y="2529.03" width="1.11" height="0.25" style="fill:#CAC27E"/>
	<rect x="2819.90" y="2524.96" width="7.53" height="8.39" style="fill:none;stroke:#D7D29E;stroke-width:8.64"/>
	<rect x="2896.74" y="2529.03" width="0.99" height="0.25" style="fill:#CAC27E"/>
	<rect x="2893.41" y="2524.96" width="7.65" height="8.39" style="fill:none;stroke:#D7D29E;stroke-width:8.64"/>
	<rect x="2935.10" y="2529.03" width="1.11" height="0.25" style="fill:#CAC27E"/>
	<rect x="2931.90" y="2524.96" width="7.53" height="8.39" style="fill:none;stroke:#D7D29E;stroke-width:8.64"/>
	<rect x="3000.20" y="2529.03" width="0.99" height="0.25" style="fill:#CAC27E"/>
	<rect x="2996.87" y="2524.96" width="7.65" height="8.39" style="fill:none;stroke:#D7D29E;stroke-width:8.64"/>
	<rect x="3007.62" y="2529.03" width="1.11" height="0.25" style="fill:#CAC27E"/>
	<rect x="3004.41" y="2524.96" width="7.53" height="8.39" style="fill:none;stroke:#D7D29E;stroke-width:8.64"/>
	<rect x="3012.94" y="2529.03" width="1.11" height="0.25" style="fill:#CAC27E"/>
	<rect x="3009.74" y="2524.96" width="7.53" height="8.39" style="fill:none;stroke:#D7D29E;stroke-width:8.64"/>
	<rect x="3081.25" y="2529.03" width="0.99" height="0.25" style="fill:#CAC27E"/>
	<rect x="3077.92" y="2524.96" width="7.65" height="8.39" style="fill:none;stroke:#D7D29E;stroke-width:8.64"/>
	<rect x="3092.88" y="2529.03" width="1.11" height="0.25" style="fill:#CAC27E"/>
	<rect x="3089.68" y="2524.96" width="7.53" height="8.39" style="fill:none;stroke:#D7D29E;stroke-width:8.64"/>
	<rect x="3111.07" y="2529.03" width="0.99" height="0.25" style="fill:#CAC27E"/>
	<rect x="3107.75" y="2524.96" width="7.65" height="8.39" style="fill:none;stroke:#D7D29E;stroke-width:8.64"/>
	<rect x="3130.26" y="2529.03" width="1.11" height="0.25" style="fill:#CAC27E"/>
	<rect x="3127.05" y="2524.96" width="7.53" height="8.39" style="fill:none;stroke:#D7D29E;stroke-width:8.64"/>
	<rect x="3185.70" y="2529.03" width="1.11" height="0.25" style="fill:#CAC27E"/>
	<rect x="3182.49" y="2524.96" width="7.53" height="8.39" style="fill:none;stroke:#D7D29E;stroke-width:8.64"/>
	<rect x="3223.07" y="2529.03" width="0.99" height="0.25" style="fill:#CAC27E"/>
	<rect x="3219.74" y="2524.96" width="7.65" height="8.39" style="fill:none;stroke:#D7D29E;stroke-width:8.64"/>
	<rect x="3240.15" y="2529.03" width="0.99" height="0.25" style="fill:#CAC27E"/>
	<rect x="3236.82" y="2524.96" width="7.65" height="8.39" style="fill:none;stroke:#D7D29E;stroke-width:8.64"/>
	<rect x="3260.32" y="2529.03" width="1.11" height="0.25" style="fill:#CAC27E"/>
	<rect x="3257.11" y="2524.96" width="7.53" height="8.39" style="fill:none;stroke:#D7D29E;stroke-width:8.64"/>
	<rect x="3272.07" y="2529.03" width="1.11" height="0.25" style="fill:#CAC27E"/>
	<rect x="3268.87" y="2524.96" width="7.53" height="8.39" style="fill:none;stroke:#D7D29E;stroke-width:8.64"/>
	<rect x="3287.05" y="2529.03" width="0.99" height="0.25" style="fill:#CAC27E"/>
	<rect x="3283.72" y="2524.96" width="7.65" height="8.39" style="fill:none;stroke:#D7D29E;stroke-width:8.64"/>
	<rect x="3321.20" y="2529.03" width="0.99" height="0.25" style="fill:#CAC27E"/>
	<rect x="3317.87" y="2524.96" width="7.65" height="8.39" style="fill:none;stroke:#D7D29E;stroke-width:8.64"/>
	<rect x="3339.27" y="2529.03" width="1.11" height="0.25" style="fill:#CAC27E"/>
	<rect x="3336.06" y="2524.96" width="7.53" height="8.39" style="fill:none;stroke:#D7D29E;stroke-width:8.64"/>
	<rect x="3393.72" y="2529.03" width="0.99" height="0.25" style="fill:#CAC27E"/>
	<rect x="3390.39" y="2524.96" width="7.65" height="8.39" style="fill:none;stroke:#D7D29E;stroke-width:8.64"/>
	<rect x="3437.40" y="2529.03" width="1.11" height="0.25" style="fill:#CAC27E"/>
	<rect x="3434.20" y="2524.96" width="7.53" height="8.39" style="fill:none;stroke:#D7D29E;stroke-width:8.64"/>
	<rect x="3440.62" y="2529.03" width="0.99" height="0.25" style="fill:#CAC27E"/>
	<rect x="3437.29" y="2524.96" width="7.65" height="8.39" style="fill:none;stroke:#D7D29E;stroke-width:8.64"/>
	<rect x="3444.83" y="2529.03" width="1.11" height="0.25" style="fill:#CAC27E"/>
	<rect x="3441.62" y="2524.96" width="7.53" height="8.39" style="fill:none;stroke:#D7D29E;stroke-width:8.64"/>
	<rect x="3493.96" y="2529.03" width="0.99" height="0.25" style="fill:#CAC27E"/>
	<rect x="3490.63" y="2524.96" width="7.65" height="8.39" style="fill:none;stroke:#D7D29E;stroke-width:8.64"/>
	<rect x="3502.50" y="2529.03" width="0.99" height="0.25" style="fill:#CAC27E"/>
	<rect x="3499.17" y="2524.96" width="7.65" height="8.39" style="fill:none;stroke:#D7D29E;stroke-width:8.64"/>
	<rect x="3506.70" y="2529.03" width="1.11" height="0.25" style="fill:#CAC27E"/>
	<rect x="3503.50" y="2524.96" width="7.53" height="8.39" style="fill:none;stroke:#D7D29E;stroke-width:8.64"/>
	<rect x="3514.13" y="2529.03" width="1.11" height="0.25" style="fill:#CAC27E"/>
	<rect x="3510.92" y="2524.96" width="7.53" height="8.39" style="fill:none;stroke:#D7D29E;stroke-width:8.64"/>
	<rect x="3519.45" y="2529.03" width="1.11" height="0.25" style="fill:#CAC27E"/>
	<rect x="3516.24" y="2524.96" width="7.53" height="8.39" style="fill:none;stroke:#D7D29E;stroke-width:8.64"/>
	<rect x="3522.67" y="2529.03" width="1.11" height="0.25" style="fill:#CAC27E"/>
	<rect x="3519.46" y="2524.96" width="7.53" height="8.39" style="fill:none;stroke:#D7D29E;stroke-width:8.64"/>
	<rect x="3525.89" y="2529.03" width="1.11" height="0.25" style="fill:#CAC27E"/>
	<rect x="3522.68" y="2524.96" width="7.53" height="8.39" style="fill:none;stroke:#D7D29E;stroke-width:8.64"/>
	<rect x="3545.07" y="2529.03" width="1.11" height="0.25" style="fill:#CAC27E"/>
	<rect x="3541.86" y="2524.96" width="7.53" height="8.39" style="fill:none;stroke:#D7D29E;stroke-width:8.64"/>
	<rect x="3555.71" y="2529.03" width="1.11" height="0.25" style="fill:#CAC27E"/>
	<rect x="3552.50" y="2524.96" width="7.53" height="8.39" style="fill:none;stroke:#D7D29E;stroke-width:8.64"/>
	<rect x="3560.04" y="2529.03" width="1.11" height="0.25" style="fill:#CAC27E"/>
	<rect x="3556.83" y="2524.96" width="7.53" height="8.39" style="fill:none;stroke:#D7D29E;stroke-width:8.64"/>
	<rect x="3569.69" y="2529.03" width="0.99" height="0.25" style="fill:#CAC27E"/>
	<rect x="3566.36" y="2524.96" width="7.65" height="8.39" style="fill:none;stroke:#D7D29E;stroke-width:8.64"/>
	<rect x="3576.00" y="2529.03" width="1.11" height="0.25" style="fill:#CAC27E"/>
	<rect x="3572.80" y="2524.96" width="7.53" height="8.39" style="fill:none;stroke:#D7D29E;stroke-width:8.64"/>
	<rect x="3597.41" y="2528.91" width="0.99" height="0.37" style="fill:#CAC27E"/>
	<rect x="3594.08" y="2524.96" width="7.65" height="8.27" style="fill:none;stroke:#D7D29E;stroke-width:8.64"/>
	<rect x="3598.40" y="2529.03" width="1.11" height="0.25" style="fill:#CAC27E"/>
	<rect x="3595.20" y="2524.96" width="7.53" height="8.39" style="fill:none;stroke:#D7D29E;stroke-width:8.64"/>
	<rect x="3599.52" y="2529.03" width="0.99" height="0.25" style="fill:#CAC27E"/>
	<rect x="3596.19" y="2524.96" width="7.65" height="8.39" style="fill:none;stroke:#D7D29E;stroke-width:8.64"/>
	<rect x="3601.62" y="2528.91" width="1.11" height="0.37" style="fill:#CAC27E"/>
	<rect x="3598.41" y="2524.96" width="7.53" height="8.27" style="fill:none;stroke:#D7D29E;stroke-width:8.64"/>
	<rect x="3609.05" y="2529.03" width="1.11" height="0.25" style="fill:#CAC27E"/>
	<rect x="3605.84" y="2524.96" width="7.53" height="8.39" style="fill:none;stroke:#D7D29E;stroke-width:8.64"/>
	<rect x="3625.13" y="2528.91" width="0.99" height="0.37" style="fill:#CAC27E"/>
	<rect x="3621.80" y="2524.96" width="7.65" height="8.27" style="fill:none;stroke:#D7D29E;stroke-width:8.64"/>
	<rect x="3627.24" y="2529.03" width="1.11" height="0.25" style="fill:#CAC27E"/>
	<rect x="3624.03" y="2524.96" width="7.53" height="8.39" style="fill:none;stroke:#D7D29E;stroke-width:8.64"/>
	<rect x="3628.35" y="2528.91" width="0.99" height="0.37" style="fill:#CAC27E"/>
	<rect x="3625.02" y="2524.96" width="7.65" height="8.27" style="fill:none;stroke:#D7D29E;stroke-width:8.64"/>
	<rect x="3631.44" y="2529.03" width="1.11" height="0.25" style="fill:#CAC27E"/>
	<rect x="3628.24" y="2524.96" width="7.53" height="8.39" style="fill:none;stroke:#D7D29E;stroke-width:8.64"/>
	<rect x="3636.76" y="2529.03" width="1.11" height="0.25" style="fill:#CAC27E"/>
	<rect x="3633.56" y="2524.96" width="7.53" height="8.39" style="fill:none;stroke:#D7D29E;stroke-width:8.64"/>
	<rect x="3639.98" y="2529.03" width="1.11" height="0.25" style="fill:#CAC27E"/>
	<rect x="3636.78" y="2524.96" width="7.53" height="8.39" style="fill:none;stroke:#D7D29E;stroke-width:8.64"/>
	<rect x="3642.21" y="2529.03" width="0.99" height="0.25" style="fill:#CAC27E"/>
	<rect x="3638.88" y="2524.96" width="7.65" height="8.39" style="fill:none;stroke:#D7D29E;stroke-width:8.64"/>
	<rect x="3652.85" y="2528.91" width="0.99" height="0.37" style="fill:#CAC27E"/>
	<rect x="3649.52" y="2524.96" width="7.65" height="8.27" style="fill:none;stroke:#D7D29E;stroke-width:8.64"/>
	<rect x="3653.84" y="2529.03" width="1.11" height="0.25" style="fill:#CAC27E"/>
	<rect x="3650.64" y="2524.96" width="7.53" height="8.39" style="fill:none;stroke:#D7D29E;stroke-width:8.64"/>
	<rect x="3656.07" y="2528.91" width="0.99" height="0.37" style="fill:#CAC27E"/>
	<rect x="3652.74" y="2524.96" width="7.65" height="8.27" style="fill:none;stroke:#D7D29E;stroke-width:8.64"/>
	<rect x="3657.06" y="2529.03" width="1.11" height="0.25" style="fill:#CAC27E"/>
	<rect x="3653.85" y="2524.96" width="7.53" height="8.39" style="fill:none;stroke:#D7D29E;stroke-width:8.64"/>
	<rect x="3660.28" y="2529.03" width="1.11" height="0.25" style="fill:#CAC27E"/>
	<rect x="3657.07" y="2524.96" width="7.53" height="8.39" style="fill:none;stroke:#D7D29E;stroke-width:8.64"/>
	<rect x="3673.02" y="2529.03" width="1.11" height="0.25" style="fill:#CAC27E"/>
	<rect x="3669.82" y="2524.96" width="7.53" height="8.39" style="fill:none;stroke:#D7D29E;stroke-width:8.64"/>
	<rect x="3678.47" y="2529.03" width="0.99" height="0.25" style="fill:#CAC27E"/>
	<rect x="3675.14" y="2524.96" width="7.65" height="8.39" style="fill:none;stroke:#D7D29E;stroke-width:8.64"/>
	<rect x="3679.46" y="2528.66" width="1.11" height="0.62" style="fill:#CAC27E"/>
	<rect x="3676.25" y="2524.96" width="7.53" height="8.02" style="fill:none;stroke:#D7D29E;stroke-width:8.64"/>
	<rect x="3680.57" y="2528.79" width="0.99" height="0.50" style="fill:#CAC27E"/>
	<rect x="3677.24" y="2524.96" width="7.65" height="8.14" style="fill:none;stroke:#D7D29E;stroke-width:8.64"/>
	<rect x="3681.56" y="2529.03" width="1.11" height="0.25" style="fill:#CAC27E"/>
	<rect x="3678.36" y="2524.96" width="7.53" height="8.39" style="fill:none;stroke:#D7D29E;stroke-width:8.64"/>
	<rect x="3685.89" y="2529.03" width="0.99" height="0.25" style="fill:#CAC27E"/>
	<rect x="3682.56" y="2524.96" width="7.65" height="8.39" style="fill:none;stroke:#D7D29E;stroke-width:8.64"/>
	<rect x="3697.65" y="2529.03" width="0.99" height="0.25" style="fill:#CAC27E"/>
	<rect x="3694.32" y="2524.96" width="7.65" height="8.39" style="fill:none;stroke:#D7D29E;stroke-width:8.64"/>
	<rect x="3698.64" y="2529.03" width="1.11" height="0.25" style="fill:#CAC27E"/>
	<rect x="3695.43" y="2524.96" width="7.53" height="8.39" style="fill:none;stroke:#D7D29E;stroke-width:8.64"/>
	<rect x="3699.75" y="2529.03" width="1.11" height="0.25" style="fill:#CAC27E"/>
	<rect x="3696.55" y="2524.96" width="7.53" height="8.39" style="fill:none;stroke:#D7D29E;stroke-width:8.64"/>
	<rect x="3700.87" y="2529.03" width="0.99" height="0.25" style="fill:#CAC27E"/>
	<rect x="3697.54" y="2524.96" width="7.65" height="8.39" style="fill:none;stroke:#D7D29E;stroke-width:8.64"/>
	<rect x="3701.86" y="2528.91" width="1.11" height="0.37" style="fill:#CAC27E"/>
	<rect x="3698.65" y="2524.96" width="7.53" height="8.27" style="fill:none;stroke:#D7D29E;stroke-width:8.64"/>
	<rect x="3703.96" y="2528.91" width="1.11" height="0.37" style="fill:#CAC27E"/>
	<rect x="3700.76" y="2524.96" width="7.53" height="8.27" style="fill:none;stroke:#D7D29E;stroke-width:8.64"/>
	<rect x="3705.07" y="2528.91" width="1.11" height="0.37" style="fill:#CAC27E"/>
	<rect x="3701.87" y="2524.96" width="7.53" height="8.27" style="fill:none;stroke:#D7D29E;stroke-width:8.64"/>
	<rect x="3706.19" y="2528.79" width="0.99" height="0.50" style="fill:#CAC27E"/>
	<rect x="3702.86" y="2524.96" width="7.65" height="8.14" style="fill:none;stroke:#D7D29E;stroke-width:8.64"/>
	<rect x="3707.18" y="2528.91" width="1.11" height="0.37" style="fill:#CAC27E"/>
	<rect x="3703.97" y="2524.96" width="7.53" height="8.27" style="fill:none;stroke:#D7D29E;stroke-width:8.64"/>
	<rect x="3708.29" y="2529.03" width="0.99" height="0.25" style="fill:#CAC27E"/>
	<rect x="3704.96" y="2524.96" width="7.65" height="8.39" style="fill:none;stroke:#D7D29E;stroke-width:8.64"/>
	<rect x="3709.28" y="2529.03" width="1.11" height="0.25" style="fill:#CAC27E"/>
	<rect x="3706.08" y="2524.96" width="7.53" height="8.39" style="fill:none;stroke:#D7D29E;stroke-width:8.64"/>
	<rect x="3713.61" y="2529.03" width="1.11" height="0.25" style="fill:#CAC27E"/>
	<rect x="3710.41" y="2524.96" width="7.53" height="8.39" style="fill:none;stroke:#D7D29E;stroke-width:8.64"/>
	<rect x="3716.83" y="2528.91" width="0.99" height="0.37" style="fill:#CAC27E"/>
	<rect x="3713.50" y="2524.96" width="7.65" height="8.27" style="fill:none;stroke:#D7D29E;stroke-width:8.64"/>
	<rect x="3717.82" y="2529.03" width="1.11" height="0.25" style="fill:#CAC27E"/>
	<rect x="3714.62" y="2524.96" width="7.53" height="8.39" style="fill:none;stroke:#D7D29E;stroke-width:8.64"/>
	<rect x="3722.15" y="2529.03" width="0.99" height="0.25" style="fill:#CAC27E"/>
	<rect x="3718.82" y="2524.96" width="7.65" height="8.39" style="fill:none;stroke:#D7D29E;stroke-width:8.64"/>
	<rect x="3723.14" y="2529.03" width="1.11" height="0.25" style="fill:#CAC27E"/>
	<rect x="3719.94" y="2524.96" width="7.53" height="8.39" style="fill:none;stroke:#D7D29E;stroke-width:8.64"/>
	<rect x="3725.37" y="2529.03" width="0.99" height="0.25" style="fill:#CAC27E"/>
	<rect x="3722.04" y="2524.96" width="7.65" height="8.39" style="fill:none;stroke:#D7D29E;stroke-width:8.64"/>
	<rect x="3726.36" y="2529.03" width="1.11" height="0.25" style="fill:#CAC27E"/>
	<rect x="3723.15" y="2524.96" width="7.53" height="8.39" style="fill:none;stroke:#D7D29E;stroke-width:8.64"/>
	<rect x="3727.47" y="2528.66" width="1.11" height="0.62" style="fill:#CAC27E"/>
	<rect x="3724.27" y="2524.96" width="7.53" height="8.02" style="fill:none;stroke:#D7D29E;stroke-width:8.64"/>
	<rect x="3728.59" y="2528.29" width="0.99" height="0.99" style="fill:#CAC27E"/>
	<rect x="3725.26" y="2524.96" width="7.65" height="7.65" style="fill:none;stroke:#D7D29E;stroke-width:8.64"/>
	<rect x="3729.58" y="2528.66" width="1.11" height="0.62" style="fill:#CAC27E"/>
	<rect x="3726.37" y="2524.96" width="7.53" height="8.02" style="fill:none;stroke:#D7D29E;stroke-width:8.64"/>
	<rect x="3730.69" y="2528.42" width="0.99" height="0.87" style="fill:#CAC27E"/>
	<rect x="3727.36" y="2524.96" width="7.65" height="7.77" style="fill:none;stroke:#D7D29E;stroke-width:8.64"/>
	<rect x="3731.68" y="2528.66" width="1.11" height="0.62" style="fill:#CAC27E"/>
	<rect x="3728.48" y="2524.96" width="7.53" height="8.02" style="fill:none;stroke:#D7D29E;stroke-width:8.64"/>
	<rect x="3732.80" y="2529.03" width="1.11" height="0.25" style="fill:#CAC27E"/>
	<rect x="3729.59" y="2524.96" width="7.53" height="8.39" style="fill:none;stroke:#D7D29E;stroke-width:8.64"/>
	<rect x="3734.90" y="2528.91" width="1.11" height="0.37" style="fill:#CAC27E"/>
	<rect x="3731.69" y="2524.96" width="7.53" height="8.27" style="fill:none;stroke:#D7D29E;stroke-width:8.64"/>
	<rect x="3736.01" y="2529.03" width="1.11" height="0.25" style="fill:#CAC27E"/>
	<rect x="3732.81" y="2524.96" width="7.53" height="8.39" style="fill:none;stroke:#D7D29E;stroke-width:8.64"/>
	<rect x="3737.13" y="2529.03" width="0.99" height="0.25" style="fill:#CAC27E"/>
	<rect x="3733.80" y="2524.96" width="7.65" height="8.39" style="fill:none;stroke:#D7D29E;stroke-width:8.64"/>
	<rect x="3738.12" y="2529.03" width="1.11" height="0.25" style="fill:#CAC27E"/>
	<rect x="3734.91" y="2524.96" width="7.53" height="8.39" style="fill:none;stroke:#D7D29E;stroke-width:8.64"/>
	<rect x="3739.23" y="2529.03" width="0.99" height="0.25" style="fill:#CAC27E"/>
	<rect x="3735.90" y="2524.96" width="7.65" height="8.39" style="fill:none;stroke:#D7D29E;stroke-width:8.64"/>
	<rect x="3740.22" y="2528.91" width="1.11" height="0.37" style="fill:#CAC27E"/>
	<rect x="3737.01" y="2524.96" width="7.53" height="8.27" style="fill:none;stroke:#D7D29E;stroke-width:8.64"/>
	<rect x="3746.66" y="2529.03" width="1.11" height="0.25" style="fill:#CAC27E"/>
	<rect x="3743.45" y="2524.96" width="7.53" height="8.39" style="fill:none;stroke:#D7D29E;stroke-width:8.64"/>
	<rect x="3749.87" y="2528.91" width="1.11" height="0.37" style="fill:#CAC27E"/>
	<rect x="3746.67" y="2524.96" width="7.53" height="8.27" style="fill:none;stroke:#D7D29E;stroke-width:8.64"/>
	<rect x="3750.99" y="2528.79" width="0.99" height="0.50" style="fill:#CAC27E"/>
	<rect x="3747.66" y="2524.96" width="7.65" height="8.14" style="fill:none;stroke:#D7D29E;stroke-width:8.64"/>
	<rect x="3751.98" y="2529.03" width="1.11" height="0.25" style="fill:#CAC27E"/>
	<rect x="3748.77" y="2524.96" width="7.53" height="8.39" style="fill:none;stroke:#D7D29E;stroke-width:8.64"/>
	<rect x="3753.09" y="2528.79" width="0.99" height="0.50" style="fill:#CAC27E"/>
	<rect x="3749.76" y="2524.96" width="7.65" height="8.14" style="fill:none;stroke:#D7D29E;stroke-width:8.64"/>
	<rect x="3754.08" y="2527.67" width="1.11" height="1.61" style="fill:#CAC27E"/>
	<rect x="3750.87" y="2524.96" width="7.53" height="7.03" style="fill:none;stroke:#D7D29E;stroke-width:8.64"/>
	<rect x="3755.19" y="2528.04" width="1.11" height="1.24" style="fill:#CAC27E"/>
	<rect x="3751.99" y="2524.96" width="7.53" height="7.40" style="fill:none;stroke:#D7D29E;stroke-width:8.64"/>
	<rect x="3756.31" y="2527.05" width="0.99" height="2.23" style="fill:#CAC27E"/>
	<rect x="3752.98" y="2524.96" width="7.65" height="6.41" style="fill:none;stroke:#D7D29E;stroke-width:8.64"/>
	<rect x="3757.30" y="2527.67" width="1.11" height="1.61" style="fill:#CAC27E"/>
	<rect x="3754.09" y="2524.96" width="7.53" height="7.03" style="fill:none;stroke:#D7D29E;stroke-width:8.64"/>
	<rect x="3758.41" y="2528.66" width="0.99" height="0.62" style="fill:#CAC27E"/>
	<rect x="3755.08" y="2524.96" width="7.65" height="8.02" style="fill:none;stroke:#D7D29E;stroke-width:8.64"/>
	<rect x="3759.40" y="2528.79" width="1.11" height="0.50" style="fill:#CAC27E"/>
	<rect x="3756.20" y="2524.96" width="7.53" height="8.14" style="fill:none;stroke:#D7D29E;stroke-width:8.64"/>
	<rect x="3760.51" y="2528.79" width="1.11" height="0.50" style="fill:#CAC27E"/>
	<rect x="3757.31" y="2524.96" width="7.53" height="8.14" style="fill:none;stroke:#D7D29E;stroke-width:8.64"/>
	<rect x="3761.63" y="2528.91" width="0.99" height="0.37" style="fill:#CAC27E"/>
	<rect x="3758.30" y="2524.96" width="7.65" height="8.27" style="fill:none;stroke:#D7D29E;stroke-width:8.64"/>
	<rect x="3762.62" y="2528.91" width="1.11" height="0.37" style="fill:#CAC27E"/>
	<rect x="3759.41" y="2524.96" width="7.53" height="8.27" style="fill:none;stroke:#D7D29E;stroke-width:8.64"/>
	<rect x="3763.73" y="2528.91" width="1.11" height="0.37" style="fill:#CAC27E"/>
	<rect x="3760.53" y="2524.96" width="7.53" height="8.27" style="fill:none;stroke:#D7D29E;stroke-width:8.64"/>
	<rect x="3764.85" y="2528.91" width="0.99" height="0.37" style="fill:#CAC27E"/>
	<rect x="3761.52" y="2524.96" width="7.65" height="8.27" style="fill:none;stroke:#D7D29E;stroke-width:8.64"/>
	<rect x="3769.05" y="2529.03" width="1.11" height="0.25" style="fill:#CAC27E"/>
	<rect x="3765.85" y="2524.96" width="7.53" height="8.39" style="fill:none;stroke:#D7D29E;stroke-width:8.64"/>
	<rect x="3770.17" y="2529.03" width="0.99" height="0.25" style="fill:#CAC27E"/>
	<rect x="3766.84" y="2524.96" width="7.65" height="8.39" style="fill:none;stroke:#D7D29E;stroke-width:8.64"/>
	<rect x="3771.16" y="2529.03" width="1.11" height="0.25" style="fill:#CAC27E"/>
	<rect x="3767.95" y="2524.96" width="7.53" height="8.39" style="fill:none;stroke:#D7D29E;stroke-width:8.64"/>
	<rect x="3774.38" y="2528.79" width="1.11" height="0.50" style="fill:#CAC27E"/>
	<rect x="3771.17" y="2524.96" width="7.53" height="8.14" style="fill:none;stroke:#D7D29E;stroke-width:8.64"/>
	<rect x="3778.71" y="2528.42" width="0.99" height="0.87" style="fill:#CAC27E"/>
	<rect x="3775.38" y="2524.96" width="7.65" height="7.77" style="fill:none;stroke:#D7D29E;stroke-width:8.64"/>
	<rect x="3779.70" y="2524.58" width="1.11" height="4.70" style="fill:#CAC27E"/>
	<rect x="3776.49" y="2524.96" width="7.53" height="3.94" style="fill:none;stroke:#D7D29E;stroke-width:8.64"/>
	<rect x="3780.81" y="2526.56" width="0.99" height="2.72" style="fill:#CAC27E"/>
	<rect x="3777.48" y="2524.96" width="7.65" height="5.92" style="fill:none;stroke:#D7D29E;stroke-width:8.64"/>
	<rect x="3781.80" y="2525.94" width="1.11" height="3.34" style="fill:#CAC27E"/>
	<rect x="3778.59" y="2524.96" width="7.53" height="5.30" style="fill:none;stroke:#D7D29E;stroke-width:8.64"/>
	<rect x="3782.91" y="2523.71" width="1.11" height="5.57" style="fill:#CAC27E"/>
	<rect x="3779.71" y="2524.96" width="7.53" height="3.07" style="fill:none;stroke:#D7D29E;stroke-width:8.64"/>
	<rect x="3784.03" y="2495.50" width="0.99" height="33.78" style="fill:#CAC27E"/>
	<rect x="3780.70" y="2499.82" width="7.65" height="25.15" style="fill:none;stroke:#D7D29E;stroke-width:8.64"/>
	<rect x="3785.02" y="2282.64" width="1.11" height="246.64" style="fill:#CAC27E"/>
	<rect x="3781.81" y="2286.96" width="7.53" height="238.00" style="fill:none;stroke:#D7D29E;stroke-width:8.64"/>
	<rect x="3786.13" y="1257.46" width="1.11" height="1271.82" style="fill:#CAC27E"/>
	<rect x="3782.93" y="1261.78" width="7.53" height="1263.18" style="fill:none;stroke:#D7D29E;stroke-width:8.64"/>
	<rect x="3787.24" y="906.74" width="0.99" height="1622.54" style="fill:#CAC27E"/>
	<rect x="3783.92" y="911.06" width="7.65" height="1613.90" style="fill:none;stroke:#D7D29E;stroke-width:8.64"/>
	<rect x="3788.24" y="670.25" width="1.11" height="1859.03" style="fill:#CAC27E"/>
	<rect x="3785.03" y="674.57" width="7.53" height="1850.39" style="fill:none;stroke:#D7D29E;stroke-width:8.64"/>
	<rect x="3789.35" y="1205.49" width="0.99" height="1323.80" style="fill:#CAC27E"/>
	<rect x="3786.02" y="1209.81" width="7.65" height="1315.16" style="fill:none;stroke:#D7D29E;stroke-width:8.64"/>
	<rect x="3790.34" y="1650.51" width="1.11" height="878.78" style="fill:#CAC27E"/>
	<rect x="3787.13" y="1654.83" width="7.53" height="870.14" style="fill:none;stroke:#D7D29E;stroke-width:8.64"/>
	<rect x="3791.45" y="1729.58" width="1.11" height="799.70" style="fill:#CAC27E"/>
	<rect x="3788.25" y="1733.90" width="7.53" height="791.06" style="fill:none;stroke:#D7D29E;stroke-width:8.64"/>
	<rect x="3792.57" y="2028.33" width="0.99" height="500.96" style="fill:#CAC27E"/>
	<rect x="3789.24" y="2032.65" width="7.65" height="492.32" style="fill:none;stroke:#D7D29E;stroke-width:8.64"/>
	<rect x="3793.56" y="2067.80" width="1.11" height="461.48" style="fill:#CAC27E"/>
	<rect x="3790.35" y="2072.12" width="7.53" height="452.84" style="fill:none;stroke:#D7D29E;stroke-width:8.64"/>
	<rect x="3794.67" y="2307.39" width="0.99" height="221.89" style="fill:#CAC27E"/>
	<rect x="3791.34" y="2311.71" width="7.65" height="213.25" style="fill:none;stroke:#D7D29E;stroke-width:8.64"/>
	<line x1="599.69" y1="2529.28" x2="599.69" y2="100.86" style="stroke:#000000;stroke-width:5.76"/>
	<line x1="599.69" y1="2529.28" x2="559.72" y2="2529.28" style="stroke:#000000;stroke-width:5.76"/>
	<text x="539.67" y="2557.29" style="font-family:'Helvetica';font-size:79.94px;fill:#000000" text-anchor="end">0</text>
	<line x1="599.69" y1="1740.85" x2="559.72" y2="1740.85" style="stroke:#000000;stroke-width:5.76"/>
	<text x="539.67" y="1768.86" style="font-family:'Helvetica';font-size:79.94px;fill:#000000" text-anchor="end">5000</text>
	<line x1="599.69" y1="952.53" x2="559.72" y2="952.53" style="stroke:#000000;stroke-width:5.76"/>
	<text x="539.67" y="980.55" style="font-family:'Helvetica';font-size:79.94px;fill:#000000" text-anchor="end">1.0e+04</text>
	<line x1="599.69" y1="164.22" x2="559.72" y2="164.22" style="stroke:#000000;stroke-width:5.76"/>
	<text x="539.67" y="192.23" style="font-family:'Helvetica';font-size:79.94px;fill:#000000" text-anchor="end">1.5e+04</text>
	<text x="176.68" y="1315.01" style="font-family:'Helvetica';font-size:79.94px;fill:#000000" transform="rotate(-90 176.68,1315.01)" text-anchor="middle">confirmed</text>
	<line x1="599.69" y1="2529.28" x2="3859.02" y2="2529.28" style="stroke:#000000;stroke-width:5.76"/>
	<line x1="664.04" y1="2529.28" x2="664.04" y2="2569.25" style="stroke:#000000;stroke-width:5.76"/>
	<text x="664.04" y="2645.20" style="font-family:'Helvetica';font-size:79.94px;fill:#000000" text-anchor="middle">01jan1900</text>
	<line x1="1183.42" y1="2529.28" x2="1183.42" y2="2569.25" style="stroke:#000000;stroke-width:5.76"/>
	<text x="1183.42" y="2645.20" style="font-family:'Helvetica';font-size:79.94px;fill:#000000" text-anchor="middle">01jan1920</text>
	<line x1="1702.80" y1="2529.28" x2="1702.80" y2="2569.25" style="stroke:#000000;stroke-width:5.76"/>
	<text x="1702.80" y="2645.20" style="font-family:'Helvetica';font-size:79.94px;fill:#000000" text-anchor="middle">01jan1940</text>
	<line x1="2222.05" y1="2529.28" x2="2222.05" y2="2569.25" style="stroke:#000000;stroke-width:5.76"/>
	<text x="2222.05" y="2645.20" style="font-family:'Helvetica';font-size:79.94px;fill:#000000" text-anchor="middle">01jan1960</text>
	<line x1="2741.43" y1="2529.28" x2="2741.43" y2="2569.25" style="stroke:#000000;stroke-width:5.76"/>
	<text x="2741.43" y="2645.20" style="font-family:'Helvetica';font-size:79.94px;fill:#000000" text-anchor="middle">01jan1980</text>
	<line x1="3260.81" y1="2529.28" x2="3260.81" y2="2569.25" style="stroke:#000000;stroke-width:5.76"/>
	<text x="3260.81" y="2645.20" style="font-family:'Helvetica';font-size:79.94px;fill:#000000" text-anchor="middle">01jan2000</text>
	<line x1="3780.19" y1="2529.28" x2="3780.19" y2="2569.25" style="stroke:#000000;stroke-width:5.76"/>
	<text x="3780.19" y="2645.20" style="font-family:'Helvetica';font-size:79.94px;fill:#000000" text-anchor="middle">01jan2020</text>
	<text x="2229.36" y="2735.17" style="font-family:'Helvetica';font-size:79.94px;fill:#000000" text-anchor="middle">Date</text>
</svg>
