<?xml version="1.0" encoding="UTF-8" standalone="no"?>
<!-- This is a Stata 16.1 generated SVG file (http://www.stata.com) -->

<svg version="1.1" width="11.28in" height="10.66in" viewBox="0 0 8120 7678" xmlns="http://www.w3.org/2000/svg" xmlns:xlink="http://www.w3.org/1999/xlink">
	<desc>Stata Graph - Graph</desc>
	<rect x="0" y="0" width="8120" height="7678" style="fill:#F0F0F0;stroke:none"/>
	<rect x="0.00" y="0.00" width="8119.75" height="7678.00" style="fill:#FFFFFF"/>
	<rect x="7.68" y="7.68" width="8104.39" height="7662.64" style="fill:none;stroke:#FFFFFF;stroke-width:15.36"/>
	<rect x="426.55" y="664.04" width="7346.82" height="6528.55" style="fill:#FFFFFF"/>
	<rect x="434.23" y="671.72" width="7331.47" height="6513.19" style="fill:none;stroke:#FFFFFF;stroke-width:15.36"/>
	<line x1="426.55" y1="1628.52" x2="7773.38" y2="1628.52" style="stroke:#C0C0C0;stroke-width:15.36"/>
	<text x="538.46" y="6833.47" style="font-family:'Helvetica';font-size:245.38px;fill:#000000">NOTE: Weights are from random effects analysis</text>
	<line x1="4244.98" y1="7192.59" x2="4244.98" y2="1628.52" style="stroke:#000000;stroke-width:15.36"/>
	<text x="538.46" y="6685.03" style="font-family:'Helvetica';font-size:245.38px;fill:#000000">.</text>
	<line x1="4244.98" y1="2147.93" x2="4244.98" y2="2147.93" style="stroke:#000000;stroke-width:23.03"/>
	<line x1="4066.60" y1="2444.56" x2="4148.05" y2="2444.56" style="stroke:#000000;stroke-width:23.03"/>
	<line x1="4075.22" y1="2741.44" x2="4203.88" y2="2741.44" style="stroke:#000000;stroke-width:23.03"/>
	<line x1="3971.19" y1="3038.06" x2="4207.68" y2="3038.06" style="stroke:#000000;stroke-width:23.03"/>
	<line x1="3853.95" y1="3334.94" x2="4035.64" y2="3334.94" style="stroke:#000000;stroke-width:23.03"/>
	<line x1="4244.98" y1="3631.57" x2="4244.98" y2="3631.57" style="stroke:#000000;stroke-width:23.03"/>
	<line x1="4091.21" y1="3928.44" x2="4177.74" y2="3928.44" style="stroke:#000000;stroke-width:23.03"/>
	<line x1="4042.74" y1="4225.07" x2="4179.52" y2="4225.07" style="stroke:#000000;stroke-width:23.03"/>
	<line x1="4004.68" y1="4521.95" x2="4256.15" y2="4521.95" style="stroke:#000000;stroke-width:23.03"/>
	<line x1="3958.50" y1="4818.57" x2="4148.56" y2="4818.57" style="stroke:#000000;stroke-width:23.03"/>
	<line x1="4244.98" y1="5115.45" x2="4244.98" y2="5115.45" style="stroke:#000000;stroke-width:23.03"/>
	<line x1="4097.30" y1="5412.08" x2="4183.83" y2="5412.08" style="stroke:#000000;stroke-width:23.03"/>
	<line x1="4051.12" y1="5708.96" x2="4187.89" y2="5708.96" style="stroke:#000000;stroke-width:23.03"/>
	<line x1="4014.32" y1="6005.58" x2="4265.54" y2="6005.58" style="stroke:#000000;stroke-width:23.03"/>
	<line x1="3965.10" y1="6302.46" x2="4155.16" y2="6302.46" style="stroke:#000000;stroke-width:23.03"/>
	<text x="538.46" y="1937.00" style="font-family:'Helvetica';font-size:245.38px;fill:#000000">onsdeath</text>
	<text x="538.46" y="2233.87" style="font-family:'Helvetica';font-size:245.38px;fill:#000000">model1</text>
	<text x="538.46" y="3717.51" style="font-family:'Helvetica';font-size:245.38px;fill:#000000">model2</text>
	<text x="538.46" y="5201.40" style="font-family:'Helvetica';font-size:245.38px;fill:#000000">model3</text>
	<text x="538.46" y="1343.49" style="font-family:'Helvetica';font-size:245.38px;fill:#000000">model</text>
	<text x="1565.38" y="2233.87" style="font-family:'Helvetica';font-size:245.38px;fill:#000000">White</text>
	<text x="1565.38" y="2530.50" style="font-family:'Helvetica';font-size:245.38px;fill:#000000">South Asian</text>
	<text x="1565.38" y="2827.38" style="font-family:'Helvetica';font-size:245.38px;fill:#000000">Black</text>
	<text x="1565.38" y="3124.00" style="font-family:'Helvetica';font-size:245.38px;fill:#000000">Mixed</text>
	<text x="1565.38" y="3420.88" style="font-family:'Helvetica';font-size:245.38px;fill:#000000">Other</text>
	<text x="1565.38" y="3717.51" style="font-family:'Helvetica';font-size:245.38px;fill:#000000">White</text>
	<text x="1565.38" y="4014.39" style="font-family:'Helvetica';font-size:245.38px;fill:#000000">South Asian</text>
	<text x="1565.38" y="4311.01" style="font-family:'Helvetica';font-size:245.38px;fill:#000000">Black</text>
	<text x="1565.38" y="4607.89" style="font-family:'Helvetica';font-size:245.38px;fill:#000000">Mixed</text>
	<text x="1565.38" y="4904.52" style="font-family:'Helvetica';font-size:245.38px;fill:#000000">Other</text>
	<text x="1565.38" y="5201.40" style="font-family:'Helvetica';font-size:245.38px;fill:#000000">White</text>
	<text x="1565.38" y="5498.02" style="font-family:'Helvetica';font-size:245.38px;fill:#000000">South Asian</text>
	<text x="1565.38" y="5794.90" style="font-family:'Helvetica';font-size:245.38px;fill:#000000">Black</text>
	<text x="1565.38" y="6091.52" style="font-family:'Helvetica';font-size:245.38px;fill:#000000">Mixed</text>
	<text x="1565.38" y="6388.40" style="font-family:'Helvetica';font-size:245.38px;fill:#000000">Other</text>
	<text x="1565.38" y="1343.49" style="font-family:'Helvetica';font-size:245.38px;fill:#000000">eth5</text>
	<text x="5642.39" y="2233.87" style="font-family:'Helvetica';font-size:245.38px;fill:#000000">1.00 (1.00, 1.00)</text>
	<text x="5642.39" y="2530.50" style="font-family:'Helvetica';font-size:245.38px;fill:#000000">0.86 (0.83, 0.90)</text>
	<text x="5642.39" y="2827.38" style="font-family:'Helvetica';font-size:245.38px;fill:#000000">0.89 (0.83, 0.96)</text>
	<text x="5642.39" y="3124.00" style="font-family:'Helvetica';font-size:245.38px;fill:#000000">0.85 (0.74, 0.96)</text>
	<text x="5642.39" y="3420.88" style="font-family:'Helvetica';font-size:245.38px;fill:#000000">0.72 (0.66, 0.80)</text>
	<text x="5642.39" y="3717.51" style="font-family:'Helvetica';font-size:245.38px;fill:#000000">1.00 (1.00, 1.00)</text>
	<text x="5642.39" y="4014.39" style="font-family:'Helvetica';font-size:245.38px;fill:#000000">0.89 (0.85, 0.93)</text>
	<text x="5642.39" y="4311.01" style="font-family:'Helvetica';font-size:245.38px;fill:#000000">0.87 (0.80, 0.93)</text>
	<text x="5642.39" y="4607.89" style="font-family:'Helvetica';font-size:245.38px;fill:#000000">0.88 (0.77, 1.01)</text>
	<text x="5642.39" y="4904.52" style="font-family:'Helvetica';font-size:245.38px;fill:#000000">0.81 (0.73, 0.90)</text>
	<text x="5642.39" y="5201.40" style="font-family:'Helvetica';font-size:245.38px;fill:#000000">1.00 (1.00, 1.00)</text>
	<text x="5642.39" y="5498.02" style="font-family:'Helvetica';font-size:245.38px;fill:#000000">0.89 (0.85, 0.94)</text>
	<text x="5642.39" y="5794.90" style="font-family:'Helvetica';font-size:245.38px;fill:#000000">0.87 (0.81, 0.94)</text>
	<text x="5642.39" y="6091.52" style="font-family:'Helvetica';font-size:245.38px;fill:#000000">0.89 (0.78, 1.02)</text>
	<text x="5642.39" y="6388.40" style="font-family:'Helvetica';font-size:245.38px;fill:#000000">0.82 (0.74, 0.91)</text>
	<text x="5642.39" y="1343.49" style="font-family:'Helvetica';font-size:245.38px;fill:#000000">Ratio (95% CI)</text>
	<text x="5642.39" y="1046.87" style="font-family:'Helvetica';font-size:245.38px;fill:#000000">Hazard</text>
	<text x="5642.39" y="2233.87" style="font-family:'Helvetica';font-size:245.38px;fill:#000000">1.00 (1.00, 1.00)</text>
	<text x="5642.39" y="2530.50" style="font-family:'Helvetica';font-size:245.38px;fill:#000000">0.86 (0.83, 0.90)</text>
	<text x="5642.39" y="2827.38" style="font-family:'Helvetica';font-size:245.38px;fill:#000000">0.89 (0.83, 0.96)</text>
	<text x="5642.39" y="3124.00" style="font-family:'Helvetica';font-size:245.38px;fill:#000000">0.85 (0.74, 0.96)</text>
	<text x="5642.39" y="3420.88" style="font-family:'Helvetica';font-size:245.38px;fill:#000000">0.72 (0.66, 0.80)</text>
	<text x="5642.39" y="3717.51" style="font-family:'Helvetica';font-size:245.38px;fill:#000000">1.00 (1.00, 1.00)</text>
	<text x="5642.39" y="4014.39" style="font-family:'Helvetica';font-size:245.38px;fill:#000000">0.89 (0.85, 0.93)</text>
	<text x="5642.39" y="4311.01" style="font-family:'Helvetica';font-size:245.38px;fill:#000000">0.87 (0.80, 0.93)</text>
	<text x="5642.39" y="4607.89" style="font-family:'Helvetica';font-size:245.38px;fill:#000000">0.88 (0.77, 1.01)</text>
	<text x="5642.39" y="4904.52" style="font-family:'Helvetica';font-size:245.38px;fill:#000000">0.81 (0.73, 0.90)</text>
	<text x="5642.39" y="5201.40" style="font-family:'Helvetica';font-size:245.38px;fill:#000000">1.00 (1.00, 1.00)</text>
	<text x="5642.39" y="5498.02" style="font-family:'Helvetica';font-size:245.38px;fill:#000000">0.89 (0.85, 0.94)</text>
	<text x="5642.39" y="5794.90" style="font-family:'Helvetica';font-size:245.38px;fill:#000000">0.87 (0.81, 0.94)</text>
	<text x="5642.39" y="6091.52" style="font-family:'Helvetica';font-size:245.38px;fill:#000000">0.89 (0.78, 1.02)</text>
	<text x="5642.39" y="6388.40" style="font-family:'Helvetica';font-size:245.38px;fill:#000000">0.82 (0.74, 0.91)</text>
	<text x="5642.39" y="1343.49" style="font-family:'Helvetica';font-size:245.38px;fill:#000000">Ratio (95% CI)</text>
	<text x="5642.39" y="1046.87" style="font-family:'Helvetica';font-size:245.38px;fill:#000000">Hazard</text>
	<polygon points="4200.02,2147.93 4244.73,2103.22 4289.44,2147.93 4244.73,2192.64" style="fill:#000000"/>
	<polygon points="4216.31,2147.93 4244.73,2119.51 4273.15,2147.93 4244.73,2176.35" style="fill:none;stroke:#000000;stroke-width:23.03"/>
	<polygon points="4062.49,2444.81 4107.20,2400.10 4151.91,2444.81 4107.20,2489.52" style="fill:#000000"/>
	<polygon points="4078.78,2444.81 4107.20,2416.39 4135.62,2444.81 4107.20,2473.23" style="fill:none;stroke:#000000;stroke-width:23.03"/>
	<polygon points="4094.72,2741.44 4139.42,2696.73 4184.13,2741.44 4139.42,2786.14" style="fill:#000000"/>
	<polygon points="4111.00,2741.44 4139.42,2713.02 4167.84,2741.44 4139.42,2769.86" style="fill:none;stroke:#000000;stroke-width:23.03"/>
	<polygon points="4044.73,3038.31 4089.43,2993.61 4134.14,3038.31 4089.43,3083.02" style="fill:#000000"/>
	<polygon points="4061.01,3038.31 4089.43,3009.89 4117.85,3038.31 4089.43,3066.73" style="fill:none;stroke:#000000;stroke-width:23.03"/>
	<polygon points="3900.09,3334.94 3944.80,3290.23 3989.51,3334.94 3944.80,3379.65" style="fill:#000000"/>
	<polygon points="3916.38,3334.94 3944.80,3306.52 3973.22,3334.94 3944.80,3363.36" style="fill:none;stroke:#000000;stroke-width:23.03"/>
	<polygon points="4200.02,3631.82 4244.73,3587.11 4289.44,3631.82 4244.73,3676.53" style="fill:#000000"/>
	<polygon points="4216.31,3631.82 4244.73,3603.40 4273.15,3631.82 4244.73,3660.24" style="fill:none;stroke:#000000;stroke-width:23.03"/>
	<polygon points="4089.64,3928.44 4134.35,3883.74 4179.06,3928.44 4134.35,3973.15" style="fill:#000000"/>
	<polygon points="4105.93,3928.44 4134.35,3900.02 4162.77,3928.44 4134.35,3956.86" style="fill:none;stroke:#000000;stroke-width:23.03"/>
	<polygon points="4066.30,4225.32 4111.00,4180.62 4155.71,4225.32 4111.00,4270.03" style="fill:#000000"/>
	<polygon points="4082.58,4225.32 4111.00,4196.90 4139.42,4225.32 4111.00,4253.74" style="fill:none;stroke:#000000;stroke-width:23.03"/>
	<polygon points="4085.58,4521.95 4130.29,4477.24 4175.00,4521.95 4130.29,4566.66" style="fill:#000000"/>
	<polygon points="4101.87,4521.95 4130.29,4493.53 4158.71,4521.95 4130.29,4550.37" style="fill:none;stroke:#000000;stroke-width:23.03"/>
	<polygon points="4008.69,4818.83 4053.40,4774.12 4098.11,4818.83 4053.40,4863.54" style="fill:#000000"/>
	<polygon points="4024.98,4818.83 4053.40,4790.41 4081.82,4818.83 4053.40,4847.25" style="fill:none;stroke:#000000;stroke-width:23.03"/>
	<polygon points="4200.02,5115.45 4244.73,5070.74 4289.44,5115.45 4244.73,5160.16" style="fill:#000000"/>
	<polygon points="4216.31,5115.45 4244.73,5087.03 4273.15,5115.45 4244.73,5143.87" style="fill:none;stroke:#000000;stroke-width:23.03"/>
	<polygon points="4095.73,5412.33 4140.44,5367.62 4185.15,5412.33 4140.44,5457.04" style="fill:#000000"/>
	<polygon points="4112.02,5412.33 4140.44,5383.91 4168.86,5412.33 4140.44,5440.75" style="fill:none;stroke:#000000;stroke-width:23.03"/>
	<polygon points="4074.67,5708.96 4119.38,5664.25 4164.09,5708.96 4119.38,5753.66" style="fill:#000000"/>
	<polygon points="4090.96,5708.96 4119.38,5680.54 4147.80,5708.96 4119.38,5737.38" style="fill:none;stroke:#000000;stroke-width:23.03"/>
	<polygon points="4095.22,6005.84 4139.93,5961.13 4184.64,6005.84 4139.93,6050.54" style="fill:#000000"/>
	<polygon points="4111.51,6005.84 4139.93,5977.42 4168.35,6005.84 4139.93,6034.26" style="fill:none;stroke:#000000;stroke-width:23.03"/>
	<polygon points="4015.29,6302.46 4060.00,6257.75 4104.71,6302.46 4060.00,6347.17" style="fill:#000000"/>
	<polygon points="4031.58,6302.46 4060.00,6274.04 4088.42,6302.46 4060.00,6330.88" style="fill:none;stroke:#000000;stroke-width:23.03"/>
	<line x1="426.55" y1="7192.59" x2="7773.38" y2="7192.59" style="stroke:#000000;stroke-width:15.36"/>
	<text x="3601.98" y="7417.51" style="font-family:'Helvetica';font-size:245.38px;fill:#000000" text-anchor="middle"> </text>
	<text x="4887.73" y="7417.51" style="font-family:'Helvetica';font-size:245.38px;fill:#000000" text-anchor="middle"> </text>
	<line x1="4244.98" y1="7192.59" x2="4244.98" y2="7299.16" style="stroke:#000000;stroke-width:15.36"/>
	<text x="4244.98" y="7524.33" style="font-family:'Helvetica';font-size:245.38px;fill:#000000" text-anchor="middle">1</text>
	<line x1="2959.23" y1="7192.59" x2="2959.23" y2="7299.16" style="stroke:#000000;stroke-width:15.36"/>
	<text x="2959.23" y="7524.33" style="font-family:'Helvetica';font-size:245.38px;fill:#000000" text-anchor="middle">.25</text>
	<line x1="3601.98" y1="7192.59" x2="3601.98" y2="7299.16" style="stroke:#000000;stroke-width:15.36"/>
	<text x="3601.98" y="7524.33" style="font-family:'Helvetica';font-size:245.38px;fill:#000000" text-anchor="middle">.5</text>
	<line x1="4244.98" y1="7192.59" x2="4244.98" y2="7299.16" style="stroke:#000000;stroke-width:15.36"/>
	<text x="4244.98" y="7524.33" style="font-family:'Helvetica';font-size:245.38px;fill:#000000" text-anchor="middle">1</text>
	<line x1="4887.73" y1="7192.59" x2="4887.73" y2="7299.16" style="stroke:#000000;stroke-width:15.36"/>
	<text x="4887.73" y="7524.33" style="font-family:'Helvetica';font-size:245.38px;fill:#000000" text-anchor="middle">2</text>
	<line x1="5530.48" y1="7192.59" x2="5530.48" y2="7299.16" style="stroke:#000000;stroke-width:15.36"/>
	<text x="5530.48" y="7524.33" style="font-family:'Helvetica';font-size:245.38px;fill:#000000" text-anchor="middle">4</text>
	<line x1="4244.98" y1="7192.59" x2="4244.98" y2="7299.16" style="stroke:#000000;stroke-width:15.36"/>
	<text x="4099.84" y="554.05" style="font-family:'Helvetica';font-size:213.15px;fill:#000000" text-anchor="middle">complete case analysis</text>
	<text x="4099.84" y="232.48" style="font-family:'Helvetica';font-size:266.69px;fill:#000000" text-anchor="middle">onsdeath</text>
</svg>
