<?xml version="1.0" encoding="UTF-8" standalone="no"?>
<!-- This is a Stata 16.1 generated SVG file (http://www.stata.com) -->

<svg version="1.1" width="11.28in" height="10.66in" viewBox="0 0 8120 7678" xmlns="http://www.w3.org/2000/svg" xmlns:xlink="http://www.w3.org/1999/xlink">
	<desc>Stata Graph - Graph</desc>
	<rect x="0" y="0" width="8120" height="7678" style="fill:#F0F0F0;stroke:none"/>
	<rect x="0.00" y="0.00" width="8119.75" height="7678.00" style="fill:#FFFFFF"/>
	<rect x="7.68" y="7.68" width="8104.39" height="7662.64" style="fill:none;stroke:#FFFFFF;stroke-width:15.36"/>
	<rect x="426.55" y="664.04" width="7346.82" height="6528.55" style="fill:#FFFFFF"/>
	<rect x="434.23" y="671.72" width="7331.47" height="6513.19" style="fill:none;stroke:#FFFFFF;stroke-width:15.36"/>
	<line x1="426.55" y1="1628.52" x2="7773.38" y2="1628.52" style="stroke:#C0C0C0;stroke-width:15.36"/>
	<text x="538.46" y="6833.47" style="font-family:'Helvetica';font-size:245.38px;fill:#000000">NOTE: Weights are from random effects analysis</text>
	<line x1="4244.98" y1="7192.59" x2="4244.98" y2="1628.52" style="stroke:#000000;stroke-width:15.36"/>
	<text x="538.46" y="6685.03" style="font-family:'Helvetica';font-size:245.38px;fill:#000000">.</text>
	<line x1="4244.98" y1="2147.93" x2="4244.98" y2="2147.93" style="stroke:#000000;stroke-width:23.03"/>
	<line x1="4464.98" y1="2444.56" x2="4613.68" y2="2444.56" style="stroke:#000000;stroke-width:23.03"/>
	<line x1="4507.61" y1="2741.44" x2="4729.39" y2="2741.44" style="stroke:#000000;stroke-width:23.03"/>
	<line x1="4331.01" y1="3038.06" x2="4755.27" y2="3038.06" style="stroke:#000000;stroke-width:23.03"/>
	<line x1="4248.79" y1="3334.94" x2="4571.56" y2="3334.94" style="stroke:#000000;stroke-width:23.03"/>
	<line x1="4244.98" y1="3631.57" x2="4244.98" y2="3631.57" style="stroke:#000000;stroke-width:23.03"/>
	<line x1="4412.20" y1="3928.44" x2="4570.29" y2="3928.44" style="stroke:#000000;stroke-width:23.03"/>
	<line x1="4364.25" y1="4225.07" x2="4600.49" y2="4225.07" style="stroke:#000000;stroke-width:23.03"/>
	<line x1="4253.61" y1="4521.95" x2="4709.60" y2="4521.95" style="stroke:#000000;stroke-width:23.03"/>
	<line x1="4299.79" y1="4818.57" x2="4636.77" y2="4818.57" style="stroke:#000000;stroke-width:23.03"/>
	<line x1="4244.98" y1="5115.45" x2="4244.98" y2="5115.45" style="stroke:#000000;stroke-width:23.03"/>
	<line x1="4422.35" y1="5412.08" x2="4580.44" y2="5412.08" style="stroke:#000000;stroke-width:23.03"/>
	<line x1="4377.44" y1="5708.96" x2="4613.43" y2="5708.96" style="stroke:#000000;stroke-width:23.03"/>
	<line x1="4268.33" y1="6005.58" x2="4724.32" y2="6005.58" style="stroke:#000000;stroke-width:23.03"/>
	<line x1="4310.45" y1="6302.46" x2="4647.18" y2="6302.46" style="stroke:#000000;stroke-width:23.03"/>
	<text x="538.46" y="1937.00" style="font-family:'Helvetica';font-size:245.38px;fill:#000000">onscoviddeath</text>
	<text x="538.46" y="2233.87" style="font-family:'Helvetica';font-size:245.38px;fill:#000000">model1</text>
	<text x="538.46" y="3717.51" style="font-family:'Helvetica';font-size:245.38px;fill:#000000">model2</text>
	<text x="538.46" y="5201.40" style="font-family:'Helvetica';font-size:245.38px;fill:#000000">model3</text>
	<text x="538.46" y="1343.49" style="font-family:'Helvetica';font-size:245.38px;fill:#000000">model</text>
	<text x="1565.38" y="2233.87" style="font-family:'Helvetica';font-size:245.38px;fill:#000000">White</text>
	<text x="1565.38" y="2530.50" style="font-family:'Helvetica';font-size:245.38px;fill:#000000">South Asian</text>
	<text x="1565.38" y="2827.38" style="font-family:'Helvetica';font-size:245.38px;fill:#000000">Black</text>
	<text x="1565.38" y="3124.00" style="font-family:'Helvetica';font-size:245.38px;fill:#000000">Mixed</text>
	<text x="1565.38" y="3420.88" style="font-family:'Helvetica';font-size:245.38px;fill:#000000">Other</text>
	<text x="1565.38" y="3717.51" style="font-family:'Helvetica';font-size:245.38px;fill:#000000">White</text>
	<text x="1565.38" y="4014.39" style="font-family:'Helvetica';font-size:245.38px;fill:#000000">South Asian</text>
	<text x="1565.38" y="4311.01" style="font-family:'Helvetica';font-size:245.38px;fill:#000000">Black</text>
	<text x="1565.38" y="4607.89" style="font-family:'Helvetica';font-size:245.38px;fill:#000000">Mixed</text>
	<text x="1565.38" y="4904.52" style="font-family:'Helvetica';font-size:245.38px;fill:#000000">Other</text>
	<text x="1565.38" y="5201.40" style="font-family:'Helvetica';font-size:245.38px;fill:#000000">White</text>
	<text x="1565.38" y="5498.02" style="font-family:'Helvetica';font-size:245.38px;fill:#000000">South Asian</text>
	<text x="1565.38" y="5794.90" style="font-family:'Helvetica';font-size:245.38px;fill:#000000">Black</text>
	<text x="1565.38" y="6091.52" style="font-family:'Helvetica';font-size:245.38px;fill:#000000">Mixed</text>
	<text x="1565.38" y="6388.40" style="font-family:'Helvetica';font-size:245.38px;fill:#000000">Other</text>
	<text x="1565.38" y="1343.49" style="font-family:'Helvetica';font-size:245.38px;fill:#000000">eth5</text>
	<text x="5642.39" y="2233.87" style="font-family:'Helvetica';font-size:245.38px;fill:#000000">1.00 (1.00, 1.00)</text>
	<text x="5642.39" y="2530.50" style="font-family:'Helvetica';font-size:245.38px;fill:#000000">1.37 (1.27, 1.49)</text>
	<text x="5642.39" y="2827.38" style="font-family:'Helvetica';font-size:245.38px;fill:#000000">1.50 (1.33, 1.69)</text>
	<text x="5642.39" y="3124.00" style="font-family:'Helvetica';font-size:245.38px;fill:#000000">1.38 (1.10, 1.73)</text>
	<text x="5642.39" y="3420.88" style="font-family:'Helvetica';font-size:245.38px;fill:#000000">1.19 (1.00, 1.42)</text>
	<text x="5642.39" y="3717.51" style="font-family:'Helvetica';font-size:245.38px;fill:#000000">1.00 (1.00, 1.00)</text>
	<text x="5642.39" y="4014.39" style="font-family:'Helvetica';font-size:245.38px;fill:#000000">1.30 (1.20, 1.42)</text>
	<text x="5642.39" y="4311.01" style="font-family:'Helvetica';font-size:245.38px;fill:#000000">1.29 (1.14, 1.47)</text>
	<text x="5642.39" y="4607.89" style="font-family:'Helvetica';font-size:245.38px;fill:#000000">1.29 (1.01, 1.65)</text>
	<text x="5642.39" y="4904.52" style="font-family:'Helvetica';font-size:245.38px;fill:#000000">1.27 (1.06, 1.53)</text>
	<text x="5642.39" y="5201.40" style="font-family:'Helvetica';font-size:245.38px;fill:#000000">1.00 (1.00, 1.00)</text>
	<text x="5642.39" y="5498.02" style="font-family:'Helvetica';font-size:245.38px;fill:#000000">1.32 (1.21, 1.44)</text>
	<text x="5642.39" y="5794.90" style="font-family:'Helvetica';font-size:245.38px;fill:#000000">1.31 (1.15, 1.49)</text>
	<text x="5642.39" y="6091.52" style="font-family:'Helvetica';font-size:245.38px;fill:#000000">1.31 (1.03, 1.68)</text>
	<text x="5642.39" y="6388.40" style="font-family:'Helvetica';font-size:245.38px;fill:#000000">1.29 (1.07, 1.54)</text>
	<text x="5642.39" y="1343.49" style="font-family:'Helvetica';font-size:245.38px;fill:#000000">Ratio (95% CI)</text>
	<text x="5642.39" y="1046.87" style="font-family:'Helvetica';font-size:245.38px;fill:#000000">Hazard</text>
	<text x="5642.39" y="2233.87" style="font-family:'Helvetica';font-size:245.38px;fill:#000000">1.00 (1.00, 1.00)</text>
	<text x="5642.39" y="2530.50" style="font-family:'Helvetica';font-size:245.38px;fill:#000000">1.37 (1.27, 1.49)</text>
	<text x="5642.39" y="2827.38" style="font-family:'Helvetica';font-size:245.38px;fill:#000000">1.50 (1.33, 1.69)</text>
	<text x="5642.39" y="3124.00" style="font-family:'Helvetica';font-size:245.38px;fill:#000000">1.38 (1.10, 1.73)</text>
	<text x="5642.39" y="3420.88" style="font-family:'Helvetica';font-size:245.38px;fill:#000000">1.19 (1.00, 1.42)</text>
	<text x="5642.39" y="3717.51" style="font-family:'Helvetica';font-size:245.38px;fill:#000000">1.00 (1.00, 1.00)</text>
	<text x="5642.39" y="4014.39" style="font-family:'Helvetica';font-size:245.38px;fill:#000000">1.30 (1.20, 1.42)</text>
	<text x="5642.39" y="4311.01" style="font-family:'Helvetica';font-size:245.38px;fill:#000000">1.29 (1.14, 1.47)</text>
	<text x="5642.39" y="4607.89" style="font-family:'Helvetica';font-size:245.38px;fill:#000000">1.29 (1.01, 1.65)</text>
	<text x="5642.39" y="4904.52" style="font-family:'Helvetica';font-size:245.38px;fill:#000000">1.27 (1.06, 1.53)</text>
	<text x="5642.39" y="5201.40" style="font-family:'Helvetica';font-size:245.38px;fill:#000000">1.00 (1.00, 1.00)</text>
	<text x="5642.39" y="5498.02" style="font-family:'Helvetica';font-size:245.38px;fill:#000000">1.32 (1.21, 1.44)</text>
	<text x="5642.39" y="5794.90" style="font-family:'Helvetica';font-size:245.38px;fill:#000000">1.31 (1.15, 1.49)</text>
	<text x="5642.39" y="6091.52" style="font-family:'Helvetica';font-size:245.38px;fill:#000000">1.31 (1.03, 1.68)</text>
	<text x="5642.39" y="6388.40" style="font-family:'Helvetica';font-size:245.38px;fill:#000000">1.29 (1.07, 1.54)</text>
	<text x="5642.39" y="1343.49" style="font-family:'Helvetica';font-size:245.38px;fill:#000000">Ratio (95% CI)</text>
	<text x="5642.39" y="1046.87" style="font-family:'Helvetica';font-size:245.38px;fill:#000000">Hazard</text>
	<polygon points="4200.02,2147.93 4244.73,2103.22 4289.44,2147.93 4244.73,2192.64" style="fill:#000000"/>
	<polygon points="4216.31,2147.93 4244.73,2119.51 4273.15,2147.93 4244.73,2176.35" style="fill:none;stroke:#000000;stroke-width:23.03"/>
	<polygon points="4494.37,2444.81 4539.08,2400.10 4583.79,2444.81 4539.08,2489.52" style="fill:#000000"/>
	<polygon points="4510.66,2444.81 4539.08,2416.39 4567.50,2444.81 4539.08,2473.23" style="fill:none;stroke:#000000;stroke-width:23.03"/>
	<polygon points="4573.54,2741.44 4618.25,2696.73 4662.96,2741.44 4618.25,2786.14" style="fill:#000000"/>
	<polygon points="4589.83,2741.44 4618.25,2713.02 4646.67,2741.44 4618.25,2769.86" style="fill:none;stroke:#000000;stroke-width:23.03"/>
	<polygon points="4498.18,3038.31 4542.89,2993.61 4587.59,3038.31 4542.89,3083.02" style="fill:#000000"/>
	<polygon points="4514.47,3038.31 4542.89,3009.89 4571.31,3038.31 4542.89,3066.73" style="fill:none;stroke:#000000;stroke-width:23.03"/>
	<polygon points="4365.21,3334.94 4409.92,3290.23 4454.63,3334.94 4409.92,3379.65" style="fill:#000000"/>
	<polygon points="4381.50,3334.94 4409.92,3306.52 4438.34,3334.94 4409.92,3363.36" style="fill:none;stroke:#000000;stroke-width:23.03"/>
	<polygon points="4200.02,3631.82 4244.73,3587.11 4289.44,3631.82 4244.73,3676.53" style="fill:#000000"/>
	<polygon points="4216.31,3631.82 4244.73,3603.40 4273.15,3631.82 4244.73,3660.24" style="fill:none;stroke:#000000;stroke-width:23.03"/>
	<polygon points="4446.41,3928.44 4491.12,3883.74 4535.83,3928.44 4491.12,3973.15" style="fill:#000000"/>
	<polygon points="4462.70,3928.44 4491.12,3900.02 4519.54,3928.44 4491.12,3956.86" style="fill:none;stroke:#000000;stroke-width:23.03"/>
	<polygon points="4437.53,4225.32 4482.24,4180.62 4526.95,4225.32 4482.24,4270.03" style="fill:#000000"/>
	<polygon points="4453.82,4225.32 4482.24,4196.90 4510.66,4225.32 4482.24,4253.74" style="fill:none;stroke:#000000;stroke-width:23.03"/>
	<polygon points="4436.77,4521.95 4481.48,4477.24 4526.19,4521.95 4481.48,4566.66" style="fill:#000000"/>
	<polygon points="4453.06,4521.95 4481.48,4493.53 4509.90,4521.95 4481.48,4550.37" style="fill:none;stroke:#000000;stroke-width:23.03"/>
	<polygon points="4423.32,4818.83 4468.03,4774.12 4512.74,4818.83 4468.03,4863.54" style="fill:#000000"/>
	<polygon points="4439.61,4818.83 4468.03,4790.41 4496.45,4818.83 4468.03,4847.25" style="fill:none;stroke:#000000;stroke-width:23.03"/>
	<polygon points="4200.02,5115.45 4244.73,5070.74 4289.44,5115.45 4244.73,5160.16" style="fill:#000000"/>
	<polygon points="4216.31,5115.45 4244.73,5087.03 4273.15,5115.45 4244.73,5143.87" style="fill:none;stroke:#000000;stroke-width:23.03"/>
	<polygon points="4456.56,5412.33 4501.27,5367.62 4545.98,5412.33 4501.27,5457.04" style="fill:#000000"/>
	<polygon points="4472.85,5412.33 4501.27,5383.91 4529.69,5412.33 4501.27,5440.75" style="fill:none;stroke:#000000;stroke-width:23.03"/>
	<polygon points="4450.47,5708.96 4495.18,5664.25 4539.89,5708.96 4495.18,5753.66" style="fill:#000000"/>
	<polygon points="4466.76,5708.96 4495.18,5680.54 4523.60,5708.96 4495.18,5737.38" style="fill:none;stroke:#000000;stroke-width:23.03"/>
	<polygon points="4451.49,6005.84 4496.20,5961.13 4540.90,6005.84 4496.20,6050.54" style="fill:#000000"/>
	<polygon points="4467.78,6005.84 4496.20,5977.42 4524.62,6005.84 4496.20,6034.26" style="fill:none;stroke:#000000;stroke-width:23.03"/>
	<polygon points="4433.98,6302.46 4478.69,6257.75 4523.40,6302.46 4478.69,6347.17" style="fill:#000000"/>
	<polygon points="4450.27,6302.46 4478.69,6274.04 4507.11,6302.46 4478.69,6330.88" style="fill:none;stroke:#000000;stroke-width:23.03"/>
	<line x1="426.55" y1="7192.59" x2="7773.38" y2="7192.59" style="stroke:#000000;stroke-width:15.36"/>
	<text x="3601.98" y="7417.51" style="font-family:'Helvetica';font-size:245.38px;fill:#000000" text-anchor="middle"> </text>
	<text x="4887.73" y="7417.51" style="font-family:'Helvetica';font-size:245.38px;fill:#000000" text-anchor="middle"> </text>
	<line x1="4244.98" y1="7192.59" x2="4244.98" y2="7299.16" style="stroke:#000000;stroke-width:15.36"/>
	<text x="4244.98" y="7524.33" style="font-family:'Helvetica';font-size:245.38px;fill:#000000" text-anchor="middle">1</text>
	<line x1="2959.23" y1="7192.59" x2="2959.23" y2="7299.16" style="stroke:#000000;stroke-width:15.36"/>
	<text x="2959.23" y="7524.33" style="font-family:'Helvetica';font-size:245.38px;fill:#000000" text-anchor="middle">.25</text>
	<line x1="3601.98" y1="7192.59" x2="3601.98" y2="7299.16" style="stroke:#000000;stroke-width:15.36"/>
	<text x="3601.98" y="7524.33" style="font-family:'Helvetica';font-size:245.38px;fill:#000000" text-anchor="middle">.5</text>
	<line x1="4244.98" y1="7192.59" x2="4244.98" y2="7299.16" style="stroke:#000000;stroke-width:15.36"/>
	<text x="4244.98" y="7524.33" style="font-family:'Helvetica';font-size:245.38px;fill:#000000" text-anchor="middle">1</text>
	<line x1="4887.73" y1="7192.59" x2="4887.73" y2="7299.16" style="stroke:#000000;stroke-width:15.36"/>
	<text x="4887.73" y="7524.33" style="font-family:'Helvetica';font-size:245.38px;fill:#000000" text-anchor="middle">2</text>
	<line x1="5530.48" y1="7192.59" x2="5530.48" y2="7299.16" style="stroke:#000000;stroke-width:15.36"/>
	<text x="5530.48" y="7524.33" style="font-family:'Helvetica';font-size:245.38px;fill:#000000" text-anchor="middle">4</text>
	<line x1="4244.98" y1="7192.59" x2="4244.98" y2="7299.16" style="stroke:#000000;stroke-width:15.36"/>
	<text x="4099.84" y="554.05" style="font-family:'Helvetica';font-size:213.15px;fill:#000000" text-anchor="middle">complete case analysis</text>
	<text x="4099.84" y="232.48" style="font-family:'Helvetica';font-size:266.69px;fill:#000000" text-anchor="middle">onscoviddeath</text>
</svg>
