<?xml version="1.0" encoding="UTF-8" standalone="no"?>
<!-- This is a Stata 16.1 generated SVG file (http://www.stata.com) -->

<svg version="1.1" width="11.28in" height="10.66in" viewBox="0 0 8120 7678" xmlns="http://www.w3.org/2000/svg" xmlns:xlink="http://www.w3.org/1999/xlink">
	<desc>Stata Graph - Graph</desc>
	<rect x="0" y="0" width="8120" height="7678" style="fill:#F0F0F0;stroke:none"/>
	<rect x="0.00" y="0.00" width="8119.75" height="7678.00" style="fill:#FFFFFF"/>
	<rect x="7.68" y="7.68" width="8104.39" height="7662.64" style="fill:none;stroke:#FFFFFF;stroke-width:15.36"/>
	<rect x="426.55" y="664.04" width="7346.82" height="6528.55" style="fill:#FFFFFF"/>
	<rect x="434.23" y="671.72" width="7331.47" height="6513.19" style="fill:none;stroke:#FFFFFF;stroke-width:15.36"/>
	<line x1="426.55" y1="1628.52" x2="7773.38" y2="1628.52" style="stroke:#C0C0C0;stroke-width:15.36"/>
	<text x="538.46" y="6833.47" style="font-family:'Helvetica';font-size:245.38px;fill:#000000">NOTE: Weights are from random effects analysis</text>
	<line x1="4244.98" y1="7192.59" x2="4244.98" y2="1628.52" style="stroke:#000000;stroke-width:15.36"/>
	<text x="538.46" y="6685.03" style="font-family:'Helvetica';font-size:245.38px;fill:#000000">.</text>
	<line x1="4244.98" y1="2147.93" x2="4244.98" y2="2147.93" style="stroke:#000000;stroke-width:23.03"/>
	<line x1="4973.50" y1="2444.56" x2="5233.59" y2="2444.56" style="stroke:#000000;stroke-width:23.03"/>
	<line x1="5145.29" y1="2741.44" x2="5482.78" y2="2741.44" style="stroke:#000000;stroke-width:23.03"/>
	<line x1="4786.74" y1="3038.06" x2="5378.23" y2="3038.06" style="stroke:#000000;stroke-width:23.03"/>
	<line x1="4935.69" y1="3334.94" x2="5359.20" y2="3334.94" style="stroke:#000000;stroke-width:23.03"/>
	<line x1="4244.98" y1="3631.57" x2="4244.98" y2="3631.57" style="stroke:#000000;stroke-width:23.03"/>
	<line x1="4839.01" y1="3928.44" x2="5135.14" y2="3928.44" style="stroke:#000000;stroke-width:23.03"/>
	<line x1="5005.73" y1="4225.07" x2="5374.93" y2="4225.07" style="stroke:#000000;stroke-width:23.03"/>
	<line x1="4693.36" y1="4521.95" x2="5352.10" y2="4521.95" style="stroke:#000000;stroke-width:23.03"/>
	<line x1="5065.10" y1="4818.57" x2="5530.48" y2="4818.57" style="stroke:#000000;stroke-width:23.03"/>
	<line x1="4244.98" y1="5115.45" x2="4244.98" y2="5115.45" style="stroke:#000000;stroke-width:23.03"/>
	<line x1="4837.49" y1="5412.08" x2="5133.62" y2="5412.08" style="stroke:#000000;stroke-width:23.03"/>
	<line x1="5004.97" y1="5708.96" x2="5373.92" y2="5708.96" style="stroke:#000000;stroke-width:23.03"/>
	<line x1="4692.60" y1="6005.58" x2="5351.59" y2="6005.58" style="stroke:#000000;stroke-width:23.03"/>
	<line x1="5063.33" y1="6302.46" x2="5528.70" y2="6302.46" style="stroke:#000000;stroke-width:23.03"/>
	<line x1="5530.48" y1="4818.57" x2="5479.22" y2="4892.92" style="stroke:#000000;stroke-width:23.03"/>
	<line x1="5530.48" y1="4818.57" x2="5479.22" y2="4744.48" style="stroke:#000000;stroke-width:23.03"/>
	<text x="538.46" y="1937.00" style="font-family:'Helvetica';font-size:245.38px;fill:#000000">icu</text>
	<text x="538.46" y="2233.87" style="font-family:'Helvetica';font-size:245.38px;fill:#000000">model1</text>
	<text x="538.46" y="3717.51" style="font-family:'Helvetica';font-size:245.38px;fill:#000000">model2</text>
	<text x="538.46" y="5201.40" style="font-family:'Helvetica';font-size:245.38px;fill:#000000">model3</text>
	<text x="538.46" y="1343.49" style="font-family:'Helvetica';font-size:245.38px;fill:#000000">model</text>
	<text x="1565.38" y="2233.87" style="font-family:'Helvetica';font-size:245.38px;fill:#000000">White</text>
	<text x="1565.38" y="2530.50" style="font-family:'Helvetica';font-size:245.38px;fill:#000000">South Asian</text>
	<text x="1565.38" y="2827.38" style="font-family:'Helvetica';font-size:245.38px;fill:#000000">Black</text>
	<text x="1565.38" y="3124.00" style="font-family:'Helvetica';font-size:245.38px;fill:#000000">Mixed</text>
	<text x="1565.38" y="3420.88" style="font-family:'Helvetica';font-size:245.38px;fill:#000000">Other</text>
	<text x="1565.38" y="3717.51" style="font-family:'Helvetica';font-size:245.38px;fill:#000000">White</text>
	<text x="1565.38" y="4014.39" style="font-family:'Helvetica';font-size:245.38px;fill:#000000">South Asian</text>
	<text x="1565.38" y="4311.01" style="font-family:'Helvetica';font-size:245.38px;fill:#000000">Black</text>
	<text x="1565.38" y="4607.89" style="font-family:'Helvetica';font-size:245.38px;fill:#000000">Mixed</text>
	<text x="1565.38" y="4904.52" style="font-family:'Helvetica';font-size:245.38px;fill:#000000">Other</text>
	<text x="1565.38" y="5201.40" style="font-family:'Helvetica';font-size:245.38px;fill:#000000">White</text>
	<text x="1565.38" y="5498.02" style="font-family:'Helvetica';font-size:245.38px;fill:#000000">South Asian</text>
	<text x="1565.38" y="5794.90" style="font-family:'Helvetica';font-size:245.38px;fill:#000000">Black</text>
	<text x="1565.38" y="6091.52" style="font-family:'Helvetica';font-size:245.38px;fill:#000000">Mixed</text>
	<text x="1565.38" y="6388.40" style="font-family:'Helvetica';font-size:245.38px;fill:#000000">Other</text>
	<text x="1565.38" y="1343.49" style="font-family:'Helvetica';font-size:245.38px;fill:#000000">eth5</text>
	<text x="5642.39" y="2233.87" style="font-family:'Helvetica';font-size:245.38px;fill:#000000">1.00 (1.00, 1.00)</text>
	<text x="5642.39" y="2530.50" style="font-family:'Helvetica';font-size:245.38px;fill:#000000">2.86 (2.44, 3.35)</text>
	<text x="5642.39" y="2827.38" style="font-family:'Helvetica';font-size:245.38px;fill:#000000">3.70 (3.01, 4.55)</text>
	<text x="5642.39" y="3124.00" style="font-family:'Helvetica';font-size:245.38px;fill:#000000">2.79 (1.94, 4.00)</text>
	<text x="5642.39" y="3420.88" style="font-family:'Helvetica';font-size:245.38px;fill:#000000">3.02 (2.33, 3.91)</text>
	<text x="5642.39" y="3717.51" style="font-family:'Helvetica';font-size:245.38px;fill:#000000">1.00 (1.00, 1.00)</text>
	<text x="5642.39" y="4014.39" style="font-family:'Helvetica';font-size:245.38px;fill:#000000">2.48 (2.07, 2.97)</text>
	<text x="5642.39" y="4311.01" style="font-family:'Helvetica';font-size:245.38px;fill:#000000">3.18 (2.54, 3.98)</text>
	<text x="5642.39" y="4607.89" style="font-family:'Helvetica';font-size:245.38px;fill:#000000">2.59 (1.73, 3.88)</text>
	<text x="5642.39" y="4904.52" style="font-family:'Helvetica';font-size:245.38px;fill:#000000">3.63 (2.73, 4.82)</text>
	<text x="5642.39" y="5201.40" style="font-family:'Helvetica';font-size:245.38px;fill:#000000">1.00 (1.00, 1.00)</text>
	<text x="5642.39" y="5498.02" style="font-family:'Helvetica';font-size:245.38px;fill:#000000">2.47 (2.06, 2.97)</text>
	<text x="5642.39" y="5794.90" style="font-family:'Helvetica';font-size:245.38px;fill:#000000">3.18 (2.53, 3.98)</text>
	<text x="5642.39" y="6091.52" style="font-family:'Helvetica';font-size:245.38px;fill:#000000">2.59 (1.73, 3.87)</text>
	<text x="5642.39" y="6388.40" style="font-family:'Helvetica';font-size:245.38px;fill:#000000">3.62 (2.72, 4.81)</text>
	<text x="5642.39" y="1343.49" style="font-family:'Helvetica';font-size:245.38px;fill:#000000">Ratio (95% CI)</text>
	<text x="5642.39" y="1046.87" style="font-family:'Helvetica';font-size:245.38px;fill:#000000">Hazard</text>
	<text x="5642.39" y="2233.87" style="font-family:'Helvetica';font-size:245.38px;fill:#000000">1.00 (1.00, 1.00)</text>
	<text x="5642.39" y="2530.50" style="font-family:'Helvetica';font-size:245.38px;fill:#000000">2.86 (2.44, 3.35)</text>
	<text x="5642.39" y="2827.38" style="font-family:'Helvetica';font-size:245.38px;fill:#000000">3.70 (3.01, 4.55)</text>
	<text x="5642.39" y="3124.00" style="font-family:'Helvetica';font-size:245.38px;fill:#000000">2.79 (1.94, 4.00)</text>
	<text x="5642.39" y="3420.88" style="font-family:'Helvetica';font-size:245.38px;fill:#000000">3.02 (2.33, 3.91)</text>
	<text x="5642.39" y="3717.51" style="font-family:'Helvetica';font-size:245.38px;fill:#000000">1.00 (1.00, 1.00)</text>
	<text x="5642.39" y="4014.39" style="font-family:'Helvetica';font-size:245.38px;fill:#000000">2.48 (2.07, 2.97)</text>
	<text x="5642.39" y="4311.01" style="font-family:'Helvetica';font-size:245.38px;fill:#000000">3.18 (2.54, 3.98)</text>
	<text x="5642.39" y="4607.89" style="font-family:'Helvetica';font-size:245.38px;fill:#000000">2.59 (1.73, 3.88)</text>
	<text x="5642.39" y="4904.52" style="font-family:'Helvetica';font-size:245.38px;fill:#000000">3.63 (2.73, 4.82)</text>
	<text x="5642.39" y="5201.40" style="font-family:'Helvetica';font-size:245.38px;fill:#000000">1.00 (1.00, 1.00)</text>
	<text x="5642.39" y="5498.02" style="font-family:'Helvetica';font-size:245.38px;fill:#000000">2.47 (2.06, 2.97)</text>
	<text x="5642.39" y="5794.90" style="font-family:'Helvetica';font-size:245.38px;fill:#000000">3.18 (2.53, 3.98)</text>
	<text x="5642.39" y="6091.52" style="font-family:'Helvetica';font-size:245.38px;fill:#000000">2.59 (1.73, 3.87)</text>
	<text x="5642.39" y="6388.40" style="font-family:'Helvetica';font-size:245.38px;fill:#000000">3.62 (2.72, 4.81)</text>
	<text x="5642.39" y="1343.49" style="font-family:'Helvetica';font-size:245.38px;fill:#000000">Ratio (95% CI)</text>
	<text x="5642.39" y="1046.87" style="font-family:'Helvetica';font-size:245.38px;fill:#000000">Hazard</text>
	<polygon points="4200.02,2147.93 4244.73,2103.22 4289.44,2147.93 4244.73,2192.64" style="fill:#000000"/>
	<polygon points="4216.31,2147.93 4244.73,2119.51 4273.15,2147.93 4244.73,2176.35" style="fill:none;stroke:#000000;stroke-width:23.03"/>
	<polygon points="5058.71,2444.81 5103.42,2400.10 5148.13,2444.81 5103.42,2489.52" style="fill:#000000"/>
	<polygon points="5075.00,2444.81 5103.42,2416.39 5131.84,2444.81 5103.42,2473.23" style="fill:none;stroke:#000000;stroke-width:23.03"/>
	<polygon points="5269.07,2741.44 5313.78,2696.73 5358.49,2741.44 5313.78,2786.14" style="fill:#000000"/>
	<polygon points="5285.36,2741.44 5313.78,2713.02 5342.20,2741.44 5313.78,2769.86" style="fill:none;stroke:#000000;stroke-width:23.03"/>
	<polygon points="5037.65,3038.31 5082.36,2993.61 5127.07,3038.31 5082.36,3083.02" style="fill:#000000"/>
	<polygon points="5053.94,3038.31 5082.36,3009.89 5110.78,3038.31 5082.36,3066.73" style="fill:none;stroke:#000000;stroke-width:23.03"/>
	<polygon points="5102.61,3334.94 5147.32,3290.23 5192.03,3334.94 5147.32,3379.65" style="fill:#000000"/>
	<polygon points="5118.90,3334.94 5147.32,3306.52 5175.74,3334.94 5147.32,3363.36" style="fill:none;stroke:#000000;stroke-width:23.03"/>
	<polygon points="4200.02,3631.82 4244.73,3587.11 4289.44,3631.82 4244.73,3676.53" style="fill:#000000"/>
	<polygon points="4216.31,3631.82 4244.73,3603.40 4273.15,3631.82 4244.73,3660.24" style="fill:none;stroke:#000000;stroke-width:23.03"/>
	<polygon points="4942.24,3928.44 4986.95,3883.74 5031.66,3928.44 4986.95,3973.15" style="fill:#000000"/>
	<polygon points="4958.53,3928.44 4986.95,3900.02 5015.37,3928.44 4986.95,3956.86" style="fill:none;stroke:#000000;stroke-width:23.03"/>
	<polygon points="5145.49,4225.32 5190.20,4180.62 5234.91,4225.32 5190.20,4270.03" style="fill:#000000"/>
	<polygon points="5161.78,4225.32 5190.20,4196.90 5218.62,4225.32 5190.20,4253.74" style="fill:none;stroke:#000000;stroke-width:23.03"/>
	<polygon points="4978.02,4521.95 5022.73,4477.24 5067.44,4521.95 5022.73,4566.66" style="fill:#000000"/>
	<polygon points="4994.31,4521.95 5022.73,4493.53 5051.15,4521.95 5022.73,4550.37" style="fill:none;stroke:#000000;stroke-width:23.03"/>
	<polygon points="5253.08,4818.83 5297.79,4774.12 5342.50,4818.83 5297.79,4863.54" style="fill:#000000"/>
	<polygon points="5269.37,4818.83 5297.79,4790.41 5326.21,4818.83 5297.79,4847.25" style="fill:none;stroke:#000000;stroke-width:23.03"/>
	<polygon points="4200.02,5115.45 4244.73,5070.74 4289.44,5115.45 4244.73,5160.16" style="fill:#000000"/>
	<polygon points="4216.31,5115.45 4244.73,5087.03 4273.15,5115.45 4244.73,5143.87" style="fill:none;stroke:#000000;stroke-width:23.03"/>
	<polygon points="4940.72,5412.33 4985.43,5367.62 5030.13,5412.33 4985.43,5457.04" style="fill:#000000"/>
	<polygon points="4957.01,5412.33 4985.43,5383.91 5013.85,5412.33 4985.43,5440.75" style="fill:none;stroke:#000000;stroke-width:23.03"/>
	<polygon points="5144.73,5708.96 5189.44,5664.25 5234.15,5708.96 5189.44,5753.66" style="fill:#000000"/>
	<polygon points="5161.02,5708.96 5189.44,5680.54 5217.86,5708.96 5189.44,5737.38" style="fill:none;stroke:#000000;stroke-width:23.03"/>
	<polygon points="4977.26,6005.84 5021.97,5961.13 5066.67,6005.84 5021.97,6050.54" style="fill:#000000"/>
	<polygon points="4993.55,6005.84 5021.97,5977.42 5050.39,6005.84 5021.97,6034.26" style="fill:none;stroke:#000000;stroke-width:23.03"/>
	<polygon points="5251.31,6302.46 5296.02,6257.75 5340.72,6302.46 5296.02,6347.17" style="fill:#000000"/>
	<polygon points="5267.60,6302.46 5296.02,6274.04 5324.44,6302.46 5296.02,6330.88" style="fill:none;stroke:#000000;stroke-width:23.03"/>
	<line x1="426.55" y1="7192.59" x2="7773.38" y2="7192.59" style="stroke:#000000;stroke-width:15.36"/>
	<text x="3601.98" y="7417.51" style="font-family:'Helvetica';font-size:245.38px;fill:#000000" text-anchor="middle"> </text>
	<text x="4887.73" y="7417.51" style="font-family:'Helvetica';font-size:245.38px;fill:#000000" text-anchor="middle"> </text>
	<line x1="4244.98" y1="7192.59" x2="4244.98" y2="7299.16" style="stroke:#000000;stroke-width:15.36"/>
	<text x="4244.98" y="7524.33" style="font-family:'Helvetica';font-size:245.38px;fill:#000000" text-anchor="middle">1</text>
	<line x1="3111.74" y1="7192.59" x2="3111.74" y2="7299.16" style="stroke:#000000;stroke-width:15.36"/>
	<text x="3111.74" y="7524.33" style="font-family:'Helvetica';font-size:245.38px;fill:#000000" text-anchor="middle">.25</text>
	<line x1="3678.36" y1="7192.59" x2="3678.36" y2="7299.16" style="stroke:#000000;stroke-width:15.36"/>
	<text x="3678.36" y="7524.33" style="font-family:'Helvetica';font-size:245.38px;fill:#000000" text-anchor="middle">.5</text>
	<line x1="4244.98" y1="7192.59" x2="4244.98" y2="7299.16" style="stroke:#000000;stroke-width:15.36"/>
	<text x="4244.98" y="7524.33" style="font-family:'Helvetica';font-size:245.38px;fill:#000000" text-anchor="middle">1</text>
	<line x1="4811.61" y1="7192.59" x2="4811.61" y2="7299.16" style="stroke:#000000;stroke-width:15.36"/>
	<text x="4811.61" y="7524.33" style="font-family:'Helvetica';font-size:245.38px;fill:#000000" text-anchor="middle">2</text>
	<line x1="5377.98" y1="7192.59" x2="5377.98" y2="7299.16" style="stroke:#000000;stroke-width:15.36"/>
	<text x="5377.98" y="7524.33" style="font-family:'Helvetica';font-size:245.38px;fill:#000000" text-anchor="middle">4</text>
	<line x1="4244.98" y1="7192.59" x2="4244.98" y2="7299.16" style="stroke:#000000;stroke-width:15.36"/>
	<text x="4099.84" y="554.05" style="font-family:'Helvetica';font-size:213.15px;fill:#000000" text-anchor="middle">complete case analysis</text>
	<text x="4099.84" y="232.48" style="font-family:'Helvetica';font-size:266.69px;fill:#000000" text-anchor="middle">icu</text>
</svg>
