<?xml version="1.0" encoding="UTF-8" standalone="no"?>
<!-- This is a Stata 16.1 generated SVG file (http://www.stata.com) -->

<svg version="1.1" width="10.47in" height="12.00in" viewBox="0 0 7542 8640" xmlns="http://www.w3.org/2000/svg" xmlns:xlink="http://www.w3.org/1999/xlink">
	<desc>Stata Graph - Graph</desc>
	<rect x="0" y="0" width="7542" height="8640" style="fill:#F0F0F0;stroke:none"/>
	<rect x="0.00" y="0.27" width="7542.00" height="8639.73" style="fill:#FFFFFF"/>
	<rect x="7.54" y="7.81" width="7526.92" height="8624.65" style="fill:none;stroke:#FFFFFF;stroke-width:15.08"/>
	<rect x="397.74" y="652.32" width="6825.09" height="7630.47" style="fill:#FFFFFF"/>
	<rect x="405.29" y="659.86" width="6810.01" height="7615.39" style="fill:none;stroke:#FFFFFF;stroke-width:15.08"/>
	<line x1="397.74" y1="1272.51" x2="7222.83" y2="1272.51" style="stroke:#C0C0C0;stroke-width:15.08"/>
	<text x="507.64" y="8039.45" style="font-family:'Helvetica';font-size:121.51px;fill:#000000">NOTE: Weights are from random effects analysis</text>
	<line x1="4327.11" y1="8282.79" x2="4327.11" y2="1272.51" style="stroke:#000000;stroke-width:15.08"/>
	<text x="507.64" y="7943.87" style="font-family:'Helvetica';font-size:121.51px;fill:#000000">.</text>
	<line x1="4327.11" y1="1606.23" x2="4327.11" y2="1606.23" style="stroke:#000000;stroke-width:22.63"/>
	<line x1="4308.75" y1="1797.12" x2="4447.81" y2="1797.12" style="stroke:#000000;stroke-width:22.63"/>
	<line x1="4169.42" y1="1987.74" x2="4234.22" y2="1987.74" style="stroke:#000000;stroke-width:22.63"/>
	<line x1="4122.97" y1="2178.63" x2="4229.63" y2="2178.63" style="stroke:#000000;stroke-width:22.63"/>
	<line x1="4107.85" y1="2369.25" x2="4243.13" y2="2369.25" style="stroke:#000000;stroke-width:22.63"/>
	<line x1="4136.48" y1="2560.14" x2="4437.82" y2="2560.14" style="stroke:#000000;stroke-width:22.63"/>
	<line x1="4120.54" y1="2750.76" x2="4278.24" y2="2750.76" style="stroke:#000000;stroke-width:22.63"/>
	<line x1="4095.16" y1="2941.65" x2="4315.23" y2="2941.65" style="stroke:#000000;stroke-width:22.63"/>
	<line x1="3624.78" y1="3132.27" x2="3996.06" y2="3132.27" style="stroke:#000000;stroke-width:22.63"/>
	<line x1="4059.52" y1="3323.16" x2="4279.59" y2="3323.16" style="stroke:#000000;stroke-width:22.63"/>
	<line x1="4114.87" y1="3513.78" x2="4235.84" y2="3513.78" style="stroke:#000000;stroke-width:22.63"/>
	<line x1="4327.11" y1="3704.67" x2="4327.11" y2="3704.67" style="stroke:#000000;stroke-width:22.63"/>
	<line x1="4281.75" y1="3895.29" x2="4427.56" y2="3895.29" style="stroke:#000000;stroke-width:22.63"/>
	<line x1="4218.29" y1="4086.18" x2="4287.15" y2="4086.18" style="stroke:#000000;stroke-width:22.63"/>
	<line x1="4185.62" y1="4276.80" x2="4297.95" y2="4276.80" style="stroke:#000000;stroke-width:22.63"/>
	<line x1="4086.25" y1="4467.69" x2="4228.01" y2="4467.69" style="stroke:#000000;stroke-width:22.63"/>
	<line x1="4020.37" y1="4658.31" x2="4329.54" y2="4658.31" style="stroke:#000000;stroke-width:22.63"/>
	<line x1="4059.52" y1="4849.20" x2="4223.69" y2="4849.20" style="stroke:#000000;stroke-width:22.63"/>
	<line x1="4184.00" y1="5039.82" x2="4420.81" y2="5039.82" style="stroke:#000000;stroke-width:22.63"/>
	<line x1="3759.52" y1="5230.71" x2="4155.92" y2="5230.71" style="stroke:#000000;stroke-width:22.63"/>
	<line x1="4097.59" y1="5421.33" x2="4331.43" y2="5421.33" style="stroke:#000000;stroke-width:22.63"/>
	<line x1="4172.66" y1="5612.22" x2="4299.84" y2="5612.22" style="stroke:#000000;stroke-width:22.63"/>
	<line x1="4327.11" y1="5803.11" x2="4327.11" y2="5803.11" style="stroke:#000000;stroke-width:22.63"/>
	<line x1="4283.10" y1="5993.73" x2="4428.64" y2="5993.73" style="stroke:#000000;stroke-width:22.63"/>
	<line x1="4193.72" y1="6184.62" x2="4263.39" y2="6184.62" style="stroke:#000000;stroke-width:22.63"/>
	<line x1="4189.40" y1="6375.24" x2="4301.73" y2="6375.24" style="stroke:#000000;stroke-width:22.63"/>
	<line x1="4087.87" y1="6566.13" x2="4229.36" y2="6566.13" style="stroke:#000000;stroke-width:22.63"/>
	<line x1="4023.88" y1="6756.75" x2="4333.05" y2="6756.75" style="stroke:#000000;stroke-width:22.63"/>
	<line x1="4063.57" y1="6947.64" x2="4227.74" y2="6947.64" style="stroke:#000000;stroke-width:22.63"/>
	<line x1="4192.37" y1="7138.26" x2="4429.18" y2="7138.26" style="stroke:#000000;stroke-width:22.63"/>
	<line x1="3760.60" y1="7329.15" x2="4157.00" y2="7329.15" style="stroke:#000000;stroke-width:22.63"/>
	<line x1="4104.34" y1="7519.77" x2="4337.91" y2="7519.77" style="stroke:#000000;stroke-width:22.63"/>
	<line x1="4178.33" y1="7710.66" x2="4305.24" y2="7710.66" style="stroke:#000000;stroke-width:22.63"/>
	<text x="507.64" y="1458.20" style="font-family:'Helvetica';font-size:121.51px;fill:#000000">onsdeath</text>
	<text x="507.64" y="1648.82" style="font-family:'Helvetica';font-size:121.51px;fill:#000000">model1</text>
	<text x="507.64" y="3747.26" style="font-family:'Helvetica';font-size:121.51px;fill:#000000">model2</text>
	<text x="507.64" y="5845.70" style="font-family:'Helvetica';font-size:121.51px;fill:#000000">model3</text>
	<text x="507.64" y="1076.42" style="font-family:'Helvetica';font-size:121.51px;fill:#000000">model</text>
	<text x="1286.66" y="1648.82" style="font-family:'Helvetica';font-size:121.51px;fill:#000000">British or Mixed British</text>
	<text x="1286.66" y="1839.71" style="font-family:'Helvetica';font-size:121.51px;fill:#000000">Irish</text>
	<text x="1286.66" y="2030.33" style="font-family:'Helvetica';font-size:121.51px;fill:#000000">Other White</text>
	<text x="1286.66" y="2221.22" style="font-family:'Helvetica';font-size:121.51px;fill:#000000">Indian</text>
	<text x="1286.66" y="2411.84" style="font-family:'Helvetica';font-size:121.51px;fill:#000000">Pakistani</text>
	<text x="1286.66" y="2602.73" style="font-family:'Helvetica';font-size:121.51px;fill:#000000">Bangladeshi</text>
	<text x="1286.66" y="2793.35" style="font-family:'Helvetica';font-size:121.51px;fill:#000000">Caribbean</text>
	<text x="1286.66" y="2984.24" style="font-family:'Helvetica';font-size:121.51px;fill:#000000">African</text>
	<text x="1286.66" y="3174.86" style="font-family:'Helvetica';font-size:121.51px;fill:#000000">Chinese</text>
	<text x="1286.66" y="3365.75" style="font-family:'Helvetica';font-size:121.51px;fill:#000000">All mixed</text>
	<text x="1286.66" y="3556.37" style="font-family:'Helvetica';font-size:121.51px;fill:#000000">All Other</text>
	<text x="1286.66" y="3747.26" style="font-family:'Helvetica';font-size:121.51px;fill:#000000">British or Mixed British</text>
	<text x="1286.66" y="3937.88" style="font-family:'Helvetica';font-size:121.51px;fill:#000000">Irish</text>
	<text x="1286.66" y="4128.77" style="font-family:'Helvetica';font-size:121.51px;fill:#000000">Other White</text>
	<text x="1286.66" y="4319.39" style="font-family:'Helvetica';font-size:121.51px;fill:#000000">Indian</text>
	<text x="1286.66" y="4510.28" style="font-family:'Helvetica';font-size:121.51px;fill:#000000">Pakistani</text>
	<text x="1286.66" y="4700.90" style="font-family:'Helvetica';font-size:121.51px;fill:#000000">Bangladeshi</text>
	<text x="1286.66" y="4891.79" style="font-family:'Helvetica';font-size:121.51px;fill:#000000">Caribbean</text>
	<text x="1286.66" y="5082.41" style="font-family:'Helvetica';font-size:121.51px;fill:#000000">African</text>
	<text x="1286.66" y="5273.30" style="font-family:'Helvetica';font-size:121.51px;fill:#000000">Chinese</text>
	<text x="1286.66" y="5463.92" style="font-family:'Helvetica';font-size:121.51px;fill:#000000">All mixed</text>
	<text x="1286.66" y="5654.81" style="font-family:'Helvetica';font-size:121.51px;fill:#000000">All Other</text>
	<text x="1286.66" y="5845.70" style="font-family:'Helvetica';font-size:121.51px;fill:#000000">British or Mixed British</text>
	<text x="1286.66" y="6036.32" style="font-family:'Helvetica';font-size:121.51px;fill:#000000">Irish</text>
	<text x="1286.66" y="6227.21" style="font-family:'Helvetica';font-size:121.51px;fill:#000000">Other White</text>
	<text x="1286.66" y="6417.83" style="font-family:'Helvetica';font-size:121.51px;fill:#000000">Indian</text>
	<text x="1286.66" y="6608.72" style="font-family:'Helvetica';font-size:121.51px;fill:#000000">Pakistani</text>
	<text x="1286.66" y="6799.34" style="font-family:'Helvetica';font-size:121.51px;fill:#000000">Bangladeshi</text>
	<text x="1286.66" y="6990.23" style="font-family:'Helvetica';font-size:121.51px;fill:#000000">Caribbean</text>
	<text x="1286.66" y="7180.85" style="font-family:'Helvetica';font-size:121.51px;fill:#000000">African</text>
	<text x="1286.66" y="7371.74" style="font-family:'Helvetica';font-size:121.51px;fill:#000000">Chinese</text>
	<text x="1286.66" y="7562.36" style="font-family:'Helvetica';font-size:121.51px;fill:#000000">All mixed</text>
	<text x="1286.66" y="7753.25" style="font-family:'Helvetica';font-size:121.51px;fill:#000000">All Other</text>
	<text x="1286.66" y="1076.42" style="font-family:'Helvetica';font-size:121.51px;fill:#000000">eth16</text>
	<text x="5631.32" y="1648.82" style="font-family:'Helvetica';font-size:121.51px;fill:#000000">1.00 (1.00, 1.00)</text>
	<text x="5631.32" y="1839.71" style="font-family:'Helvetica';font-size:121.51px;fill:#000000">1.06 (0.98, 1.15)</text>
	<text x="5631.32" y="2030.33" style="font-family:'Helvetica';font-size:121.51px;fill:#000000">0.86 (0.83, 0.90)</text>
	<text x="5631.32" y="2221.22" style="font-family:'Helvetica';font-size:121.51px;fill:#000000">0.84 (0.79, 0.89)</text>
	<text x="5631.32" y="2411.84" style="font-family:'Helvetica';font-size:121.51px;fill:#000000">0.84 (0.78, 0.91)</text>
	<text x="5631.32" y="2602.73" style="font-family:'Helvetica';font-size:121.51px;fill:#000000">0.95 (0.80, 1.14)</text>
	<text x="5631.32" y="2793.35" style="font-family:'Helvetica';font-size:121.51px;fill:#000000">0.86 (0.79, 0.94)</text>
	<text x="5631.32" y="2984.24" style="font-family:'Helvetica';font-size:121.51px;fill:#000000">0.87 (0.76, 0.99)</text>
	<text x="5631.32" y="3174.86" style="font-family:'Helvetica';font-size:121.51px;fill:#000000">0.55 (0.44, 0.68)</text>
	<text x="5631.32" y="3365.75" style="font-family:'Helvetica';font-size:121.51px;fill:#000000">0.83 (0.73, 0.95)</text>
	<text x="5631.32" y="3556.37" style="font-family:'Helvetica';font-size:121.51px;fill:#000000">0.84 (0.78, 0.90)</text>
	<text x="5631.32" y="3747.26" style="font-family:'Helvetica';font-size:121.51px;fill:#000000">1.00 (1.00, 1.00)</text>
	<text x="5631.32" y="3937.88" style="font-family:'Helvetica';font-size:121.51px;fill:#000000">1.03 (0.95, 1.12)</text>
	<text x="5631.32" y="4128.77" style="font-family:'Helvetica';font-size:121.51px;fill:#000000">0.92 (0.88, 0.95)</text>
	<text x="5631.32" y="4319.39" style="font-family:'Helvetica';font-size:121.51px;fill:#000000">0.91 (0.85, 0.97)</text>
	<text x="5631.32" y="4510.28" style="font-family:'Helvetica';font-size:121.51px;fill:#000000">0.82 (0.76, 0.89)</text>
	<text x="5631.32" y="4700.90" style="font-family:'Helvetica';font-size:121.51px;fill:#000000">0.84 (0.70, 1.00)</text>
	<text x="5631.32" y="4891.79" style="font-family:'Helvetica';font-size:121.51px;fill:#000000">0.81 (0.73, 0.89)</text>
	<text x="5631.32" y="5082.41" style="font-family:'Helvetica';font-size:121.51px;fill:#000000">0.97 (0.85, 1.12)</text>
	<text x="5631.32" y="5273.30" style="font-family:'Helvetica';font-size:121.51px;fill:#000000">0.65 (0.52, 0.82)</text>
	<text x="5631.32" y="5463.92" style="font-family:'Helvetica';font-size:121.51px;fill:#000000">0.88 (0.77, 1.01)</text>
	<text x="5631.32" y="5654.81" style="font-family:'Helvetica';font-size:121.51px;fill:#000000">0.90 (0.84, 0.97)</text>
	<text x="5631.32" y="5845.70" style="font-family:'Helvetica';font-size:121.51px;fill:#000000">1.00 (1.00, 1.00)</text>
	<text x="5631.32" y="6036.32" style="font-family:'Helvetica';font-size:121.51px;fill:#000000">1.03 (0.95, 1.13)</text>
	<text x="5631.32" y="6227.21" style="font-family:'Helvetica';font-size:121.51px;fill:#000000">0.89 (0.86, 0.93)</text>
	<text x="5631.32" y="6417.83" style="font-family:'Helvetica';font-size:121.51px;fill:#000000">0.91 (0.85, 0.97)</text>
	<text x="5631.32" y="6608.72" style="font-family:'Helvetica';font-size:121.51px;fill:#000000">0.82 (0.76, 0.89)</text>
	<text x="5631.32" y="6799.34" style="font-family:'Helvetica';font-size:121.51px;fill:#000000">0.84 (0.70, 1.01)</text>
	<text x="5631.32" y="6990.23" style="font-family:'Helvetica';font-size:121.51px;fill:#000000">0.81 (0.74, 0.89)</text>
	<text x="5631.32" y="7180.85" style="font-family:'Helvetica';font-size:121.51px;fill:#000000">0.98 (0.86, 1.13)</text>
	<text x="5631.32" y="7371.74" style="font-family:'Helvetica';font-size:121.51px;fill:#000000">0.65 (0.52, 0.82)</text>
	<text x="5631.32" y="7562.36" style="font-family:'Helvetica';font-size:121.51px;fill:#000000">0.88 (0.77, 1.01)</text>
	<text x="5631.32" y="7753.25" style="font-family:'Helvetica';font-size:121.51px;fill:#000000">0.91 (0.84, 0.98)</text>
	<text x="5631.32" y="1076.42" style="font-family:'Helvetica';font-size:121.51px;fill:#000000">Ratio (95% CI)</text>
	<text x="5631.32" y="885.80" style="font-family:'Helvetica';font-size:121.51px;fill:#000000">Hazard</text>
	<text x="5631.32" y="1648.82" style="font-family:'Helvetica';font-size:121.51px;fill:#000000">1.00 (1.00, 1.00)</text>
	<text x="5631.32" y="1839.71" style="font-family:'Helvetica';font-size:121.51px;fill:#000000">1.06 (0.98, 1.15)</text>
	<text x="5631.32" y="2030.33" style="font-family:'Helvetica';font-size:121.51px;fill:#000000">0.86 (0.83, 0.90)</text>
	<text x="5631.32" y="2221.22" style="font-family:'Helvetica';font-size:121.51px;fill:#000000">0.84 (0.79, 0.89)</text>
	<text x="5631.32" y="2411.84" style="font-family:'Helvetica';font-size:121.51px;fill:#000000">0.84 (0.78, 0.91)</text>
	<text x="5631.32" y="2602.73" style="font-family:'Helvetica';font-size:121.51px;fill:#000000">0.95 (0.80, 1.14)</text>
	<text x="5631.32" y="2793.35" style="font-family:'Helvetica';font-size:121.51px;fill:#000000">0.86 (0.79, 0.94)</text>
	<text x="5631.32" y="2984.24" style="font-family:'Helvetica';font-size:121.51px;fill:#000000">0.87 (0.76, 0.99)</text>
	<text x="5631.32" y="3174.86" style="font-family:'Helvetica';font-size:121.51px;fill:#000000">0.55 (0.44, 0.68)</text>
	<text x="5631.32" y="3365.75" style="font-family:'Helvetica';font-size:121.51px;fill:#000000">0.83 (0.73, 0.95)</text>
	<text x="5631.32" y="3556.37" style="font-family:'Helvetica';font-size:121.51px;fill:#000000">0.84 (0.78, 0.90)</text>
	<text x="5631.32" y="3747.26" style="font-family:'Helvetica';font-size:121.51px;fill:#000000">1.00 (1.00, 1.00)</text>
	<text x="5631.32" y="3937.88" style="font-family:'Helvetica';font-size:121.51px;fill:#000000">1.03 (0.95, 1.12)</text>
	<text x="5631.32" y="4128.77" style="font-family:'Helvetica';font-size:121.51px;fill:#000000">0.92 (0.88, 0.95)</text>
	<text x="5631.32" y="4319.39" style="font-family:'Helvetica';font-size:121.51px;fill:#000000">0.91 (0.85, 0.97)</text>
	<text x="5631.32" y="4510.28" style="font-family:'Helvetica';font-size:121.51px;fill:#000000">0.82 (0.76, 0.89)</text>
	<text x="5631.32" y="4700.90" style="font-family:'Helvetica';font-size:121.51px;fill:#000000">0.84 (0.70, 1.00)</text>
	<text x="5631.32" y="4891.79" style="font-family:'Helvetica';font-size:121.51px;fill:#000000">0.81 (0.73, 0.89)</text>
	<text x="5631.32" y="5082.41" style="font-family:'Helvetica';font-size:121.51px;fill:#000000">0.97 (0.85, 1.12)</text>
	<text x="5631.32" y="5273.30" style="font-family:'Helvetica';font-size:121.51px;fill:#000000">0.65 (0.52, 0.82)</text>
	<text x="5631.32" y="5463.92" style="font-family:'Helvetica';font-size:121.51px;fill:#000000">0.88 (0.77, 1.01)</text>
	<text x="5631.32" y="5654.81" style="font-family:'Helvetica';font-size:121.51px;fill:#000000">0.90 (0.84, 0.97)</text>
	<text x="5631.32" y="5845.70" style="font-family:'Helvetica';font-size:121.51px;fill:#000000">1.00 (1.00, 1.00)</text>
	<text x="5631.32" y="6036.32" style="font-family:'Helvetica';font-size:121.51px;fill:#000000">1.03 (0.95, 1.13)</text>
	<text x="5631.32" y="6227.21" style="font-family:'Helvetica';font-size:121.51px;fill:#000000">0.89 (0.86, 0.93)</text>
	<text x="5631.32" y="6417.83" style="font-family:'Helvetica';font-size:121.51px;fill:#000000">0.91 (0.85, 0.97)</text>
	<text x="5631.32" y="6608.72" style="font-family:'Helvetica';font-size:121.51px;fill:#000000">0.82 (0.76, 0.89)</text>
	<text x="5631.32" y="6799.34" style="font-family:'Helvetica';font-size:121.51px;fill:#000000">0.84 (0.70, 1.01)</text>
	<text x="5631.32" y="6990.23" style="font-family:'Helvetica';font-size:121.51px;fill:#000000">0.81 (0.74, 0.89)</text>
	<text x="5631.32" y="7180.85" style="font-family:'Helvetica';font-size:121.51px;fill:#000000">0.98 (0.86, 1.13)</text>
	<text x="5631.32" y="7371.74" style="font-family:'Helvetica';font-size:121.51px;fill:#000000">0.65 (0.52, 0.82)</text>
	<text x="5631.32" y="7562.36" style="font-family:'Helvetica';font-size:121.51px;fill:#000000">0.88 (0.77, 1.01)</text>
	<text x="5631.32" y="7753.25" style="font-family:'Helvetica';font-size:121.51px;fill:#000000">0.91 (0.84, 0.98)</text>
	<text x="5631.32" y="1076.42" style="font-family:'Helvetica';font-size:121.51px;fill:#000000">Ratio (95% CI)</text>
	<text x="5631.32" y="885.80" style="font-family:'Helvetica';font-size:121.51px;fill:#000000">Hazard</text>
	<polygon points="4283.03,1606.50 4326.84,1562.69 4370.65,1606.50 4326.84,1650.31" style="fill:#000000"/>
	<polygon points="4299.03,1606.50 4326.84,1578.69 4354.65,1606.50 4326.84,1634.31" style="fill:none;stroke:#000000;stroke-width:22.63"/>
	<polygon points="4334.33,1797.12 4378.15,1753.31 4421.96,1797.12 4378.15,1840.93" style="fill:#000000"/>
	<polygon points="4350.33,1797.12 4378.15,1769.31 4405.96,1797.12 4378.15,1824.93" style="fill:none;stroke:#000000;stroke-width:22.63"/>
	<polygon points="4158.01,1988.01 4201.82,1944.20 4245.63,1988.01 4201.82,2031.82" style="fill:#000000"/>
	<polygon points="4174.01,1988.01 4201.82,1960.20 4229.63,1988.01 4201.82,2015.82" style="fill:none;stroke:#000000;stroke-width:22.63"/>
	<polygon points="4132.36,2178.63 4176.17,2134.82 4219.98,2178.63 4176.17,2222.44" style="fill:#000000"/>
	<polygon points="4148.36,2178.63 4176.17,2150.82 4203.98,2178.63 4176.17,2206.44" style="fill:none;stroke:#000000;stroke-width:22.63"/>
	<polygon points="4131.55,2369.52 4175.36,2325.71 4219.17,2369.52 4175.36,2413.33" style="fill:#000000"/>
	<polygon points="4147.55,2369.52 4175.36,2341.71 4203.17,2369.52 4175.36,2397.33" style="fill:none;stroke:#000000;stroke-width:22.63"/>
	<polygon points="4243.34,2560.14 4287.15,2516.33 4330.96,2560.14 4287.15,2603.95" style="fill:#000000"/>
	<polygon points="4259.34,2560.14 4287.15,2532.33 4314.96,2560.14 4287.15,2587.95" style="fill:none;stroke:#000000;stroke-width:22.63"/>
	<polygon points="4155.58,2751.03 4199.39,2707.22 4243.20,2751.03 4199.39,2794.84" style="fill:#000000"/>
	<polygon points="4171.58,2751.03 4199.39,2723.22 4227.20,2751.03 4199.39,2778.84" style="fill:none;stroke:#000000;stroke-width:22.63"/>
	<polygon points="4161.25,2941.65 4205.06,2897.84 4248.87,2941.65 4205.06,2985.46" style="fill:#000000"/>
	<polygon points="4177.25,2941.65 4205.06,2913.84 4232.87,2941.65 4205.06,2969.46" style="fill:none;stroke:#000000;stroke-width:22.63"/>
	<polygon points="3766.48,3132.54 3810.29,3088.73 3854.10,3132.54 3810.29,3176.35" style="fill:#000000"/>
	<polygon points="3782.48,3132.54 3810.29,3104.73 3838.10,3132.54 3810.29,3160.35" style="fill:none;stroke:#000000;stroke-width:22.63"/>
	<polygon points="4125.61,3323.16 4169.42,3279.35 4213.23,3323.16 4169.42,3366.97" style="fill:#000000"/>
	<polygon points="4141.61,3323.16 4169.42,3295.35 4197.23,3323.16 4169.42,3350.97" style="fill:none;stroke:#000000;stroke-width:22.63"/>
	<polygon points="4131.28,3514.05 4175.09,3470.24 4218.90,3514.05 4175.09,3557.86" style="fill:#000000"/>
	<polygon points="4147.28,3514.05 4175.09,3486.24 4202.90,3514.05 4175.09,3541.86" style="fill:none;stroke:#000000;stroke-width:22.63"/>
	<polygon points="4283.03,3704.67 4326.84,3660.86 4370.65,3704.67 4326.84,3748.48" style="fill:#000000"/>
	<polygon points="4299.03,3704.67 4326.84,3676.86 4354.65,3704.67 4326.84,3732.48" style="fill:none;stroke:#000000;stroke-width:22.63"/>
	<polygon points="4310.84,3895.56 4354.65,3851.75 4398.47,3895.56 4354.65,3939.37" style="fill:#000000"/>
	<polygon points="4326.84,3895.56 4354.65,3867.75 4382.47,3895.56 4354.65,3923.37" style="fill:none;stroke:#000000;stroke-width:22.63"/>
	<polygon points="4208.77,4086.18 4252.59,4042.37 4296.40,4086.18 4252.59,4129.99" style="fill:#000000"/>
	<polygon points="4224.77,4086.18 4252.59,4058.37 4280.40,4086.18 4252.59,4113.99" style="fill:none;stroke:#000000;stroke-width:22.63"/>
	<polygon points="4197.97,4277.07 4241.78,4233.26 4285.60,4277.07 4241.78,4320.88" style="fill:#000000"/>
	<polygon points="4213.97,4277.07 4241.78,4249.26 4269.60,4277.07 4241.78,4304.88" style="fill:none;stroke:#000000;stroke-width:22.63"/>
	<polygon points="4113.19,4467.69 4157.00,4423.88 4200.81,4467.69 4157.00,4511.50" style="fill:#000000"/>
	<polygon points="4129.18,4467.69 4157.00,4439.88 4184.81,4467.69 4157.00,4495.50" style="fill:none;stroke:#000000;stroke-width:22.63"/>
	<polygon points="4131.01,4658.58 4174.82,4614.77 4218.63,4658.58 4174.82,4702.39" style="fill:#000000"/>
	<polygon points="4147.01,4658.58 4174.82,4630.77 4202.63,4658.58 4174.82,4686.39" style="fill:none;stroke:#000000;stroke-width:22.63"/>
	<polygon points="4097.79,4849.20 4141.61,4805.39 4185.42,4849.20 4141.61,4893.01" style="fill:#000000"/>
	<polygon points="4113.79,4849.20 4141.61,4821.39 4169.42,4849.20 4141.61,4877.01" style="fill:none;stroke:#000000;stroke-width:22.63"/>
	<polygon points="4258.46,5040.09 4302.27,4996.28 4346.08,5040.09 4302.27,5083.90" style="fill:#000000"/>
	<polygon points="4274.46,5040.09 4302.27,5012.28 4330.08,5040.09 4302.27,5067.90" style="fill:none;stroke:#000000;stroke-width:22.63"/>
	<polygon points="3913.91,5230.71 3957.72,5186.90 4001.53,5230.71 3957.72,5274.52" style="fill:#000000"/>
	<polygon points="3929.91,5230.71 3957.72,5202.90 3985.53,5230.71 3957.72,5258.52" style="fill:none;stroke:#000000;stroke-width:22.63"/>
	<polygon points="4170.70,5421.60 4214.51,5377.79 4258.32,5421.60 4214.51,5465.41" style="fill:#000000"/>
	<polygon points="4186.70,5421.60 4214.51,5393.79 4242.32,5421.60 4214.51,5449.41" style="fill:none;stroke:#000000;stroke-width:22.63"/>
	<polygon points="4192.30,5612.22 4236.11,5568.41 4279.93,5612.22 4236.11,5656.03" style="fill:#000000"/>
	<polygon points="4208.30,5612.22 4236.11,5584.41 4263.93,5612.22 4236.11,5640.03" style="fill:none;stroke:#000000;stroke-width:22.63"/>
	<polygon points="4283.03,5803.11 4326.84,5759.30 4370.65,5803.11 4326.84,5846.92" style="fill:#000000"/>
	<polygon points="4299.03,5803.11 4326.84,5775.30 4354.65,5803.11 4326.84,5830.92" style="fill:none;stroke:#000000;stroke-width:22.63"/>
	<polygon points="4311.92,5994.00 4355.73,5950.19 4399.55,5994.00 4355.73,6037.81" style="fill:#000000"/>
	<polygon points="4327.92,5994.00 4355.73,5966.19 4383.55,5994.00 4355.73,6021.81" style="fill:none;stroke:#000000;stroke-width:22.63"/>
	<polygon points="4184.47,6184.62 4228.28,6140.81 4272.09,6184.62 4228.28,6228.43" style="fill:#000000"/>
	<polygon points="4200.47,6184.62 4228.28,6156.81 4256.10,6184.62 4228.28,6212.43" style="fill:none;stroke:#000000;stroke-width:22.63"/>
	<polygon points="4201.48,6375.51 4245.29,6331.70 4289.11,6375.51 4245.29,6419.32" style="fill:#000000"/>
	<polygon points="4217.48,6375.51 4245.29,6347.70 4273.11,6375.51 4245.29,6403.32" style="fill:none;stroke:#000000;stroke-width:22.63"/>
	<polygon points="4114.81,6566.13 4158.62,6522.32 4202.43,6566.13 4158.62,6609.94" style="fill:#000000"/>
	<polygon points="4130.81,6566.13 4158.62,6538.32 4186.43,6566.13 4158.62,6593.94" style="fill:none;stroke:#000000;stroke-width:22.63"/>
	<polygon points="4134.52,6757.02 4178.33,6713.21 4222.14,6757.02 4178.33,6800.83" style="fill:#000000"/>
	<polygon points="4150.52,6757.02 4178.33,6729.21 4206.14,6757.02 4178.33,6784.83" style="fill:none;stroke:#000000;stroke-width:22.63"/>
	<polygon points="4101.84,6947.64 4145.66,6903.83 4189.47,6947.64 4145.66,6991.45" style="fill:#000000"/>
	<polygon points="4117.84,6947.64 4145.66,6919.83 4173.47,6947.64 4145.66,6975.45" style="fill:none;stroke:#000000;stroke-width:22.63"/>
	<polygon points="4266.83,7138.53 4310.64,7094.72 4354.45,7138.53 4310.64,7182.34" style="fill:#000000"/>
	<polygon points="4282.83,7138.53 4310.64,7110.72 4338.45,7138.53 4310.64,7166.34" style="fill:none;stroke:#000000;stroke-width:22.63"/>
	<polygon points="3914.99,7329.15 3958.80,7285.34 4002.61,7329.15 3958.80,7372.96" style="fill:#000000"/>
	<polygon points="3930.99,7329.15 3958.80,7301.34 3986.61,7329.15 3958.80,7356.96" style="fill:none;stroke:#000000;stroke-width:22.63"/>
	<polygon points="4177.18,7520.04 4220.99,7476.23 4264.80,7520.04 4220.99,7563.85" style="fill:#000000"/>
	<polygon points="4193.18,7520.04 4220.99,7492.23 4248.80,7520.04 4220.99,7547.85" style="fill:none;stroke:#000000;stroke-width:22.63"/>
	<polygon points="4197.70,7710.66 4241.51,7666.85 4285.33,7710.66 4241.51,7754.47" style="fill:#000000"/>
	<polygon points="4213.70,7710.66 4241.51,7682.85 4269.33,7710.66 4241.51,7738.47" style="fill:none;stroke:#000000;stroke-width:22.63"/>
	<line x1="397.74" y1="8282.79" x2="7222.83" y2="8282.79" style="stroke:#000000;stroke-width:15.08"/>
	<text x="3729.82" y="8420.09" style="font-family:'Helvetica';font-size:121.51px;fill:#000000" text-anchor="middle"> </text>
	<text x="4924.13" y="8420.09" style="font-family:'Helvetica';font-size:121.51px;fill:#000000" text-anchor="middle"> </text>
	<line x1="4327.11" y1="8282.79" x2="4327.11" y2="8387.55" style="stroke:#000000;stroke-width:15.08"/>
	<text x="4327.11" y="8524.85" style="font-family:'Helvetica';font-size:121.51px;fill:#000000" text-anchor="middle">1</text>
	<line x1="3132.53" y1="8282.79" x2="3132.53" y2="8387.55" style="stroke:#000000;stroke-width:15.08"/>
	<text x="3132.53" y="8524.85" style="font-family:'Helvetica';font-size:121.51px;fill:#000000" text-anchor="middle">.25</text>
	<line x1="3729.82" y1="8282.79" x2="3729.82" y2="8387.55" style="stroke:#000000;stroke-width:15.08"/>
	<text x="3729.82" y="8524.85" style="font-family:'Helvetica';font-size:121.51px;fill:#000000" text-anchor="middle">.5</text>
	<line x1="4327.11" y1="8282.79" x2="4327.11" y2="8387.55" style="stroke:#000000;stroke-width:15.08"/>
	<text x="4327.11" y="8524.85" style="font-family:'Helvetica';font-size:121.51px;fill:#000000" text-anchor="middle">1</text>
	<line x1="4924.13" y1="8282.79" x2="4924.13" y2="8387.55" style="stroke:#000000;stroke-width:15.08"/>
	<text x="4924.13" y="8524.85" style="font-family:'Helvetica';font-size:121.51px;fill:#000000" text-anchor="middle">2</text>
	<line x1="5521.42" y1="8282.79" x2="5521.42" y2="8387.55" style="stroke:#000000;stroke-width:15.08"/>
	<text x="5521.42" y="8524.85" style="font-family:'Helvetica';font-size:121.51px;fill:#000000" text-anchor="middle">4</text>
	<line x1="4327.11" y1="8282.79" x2="4327.11" y2="8387.55" style="stroke:#000000;stroke-width:15.08"/>
	<text x="3810.29" y="544.24" style="font-family:'Helvetica';font-size:209.54px;fill:#000000" text-anchor="middle">complete case analysis</text>
	<text x="3810.29" y="228.56" style="font-family:'Helvetica';font-size:261.92px;fill:#000000" text-anchor="middle">onsdeath</text>
</svg>
