<?xml version="1.0" encoding="UTF-8" standalone="no"?>
<!-- This is a Stata 16.1 generated SVG file (http://www.stata.com) -->

<svg version="1.1" width="10.47in" height="12.00in" viewBox="0 0 7542 8640" xmlns="http://www.w3.org/2000/svg" xmlns:xlink="http://www.w3.org/1999/xlink">
	<desc>Stata Graph - Graph</desc>
	<rect x="0" y="0" width="7542" height="8640" style="fill:#F0F0F0;stroke:none"/>
	<rect x="0.00" y="0.27" width="7542.00" height="8639.73" style="fill:#FFFFFF"/>
	<rect x="7.54" y="7.81" width="7526.92" height="8624.65" style="fill:none;stroke:#FFFFFF;stroke-width:15.08"/>
	<rect x="397.74" y="652.32" width="6825.09" height="7630.47" style="fill:#FFFFFF"/>
	<rect x="405.29" y="659.86" width="6810.01" height="7615.39" style="fill:none;stroke:#FFFFFF;stroke-width:15.08"/>
	<line x1="397.74" y1="1272.51" x2="7222.83" y2="1272.51" style="stroke:#C0C0C0;stroke-width:15.08"/>
	<text x="507.64" y="8039.45" style="font-family:'Helvetica';font-size:121.51px;fill:#000000">NOTE: Weights are from random effects analysis</text>
	<line x1="4327.11" y1="8282.79" x2="4327.11" y2="1272.51" style="stroke:#000000;stroke-width:15.08"/>
	<text x="507.64" y="7943.87" style="font-family:'Helvetica';font-size:121.51px;fill:#000000">.</text>
	<line x1="4327.11" y1="1606.23" x2="4327.11" y2="1606.23" style="stroke:#000000;stroke-width:22.63"/>
	<line x1="4363.02" y1="1797.12" x2="4416.76" y2="1797.12" style="stroke:#000000;stroke-width:22.63"/>
	<line x1="4038.46" y1="1987.74" x2="4056.55" y2="1987.74" style="stroke:#000000;stroke-width:22.63"/>
	<line x1="4386.25" y1="2178.63" x2="4411.36" y2="2178.63" style="stroke:#000000;stroke-width:22.63"/>
	<line x1="4292.55" y1="2369.25" x2="4324.68" y2="2369.25" style="stroke:#000000;stroke-width:22.63"/>
	<line x1="4014.70" y1="2560.14" x2="4087.60" y2="2560.14" style="stroke:#000000;stroke-width:22.63"/>
	<line x1="4297.68" y1="2750.76" x2="4353.30" y2="2750.76" style="stroke:#000000;stroke-width:22.63"/>
	<line x1="4316.58" y1="2941.65" x2="4355.46" y2="2941.65" style="stroke:#000000;stroke-width:22.63"/>
	<line x1="3453.86" y1="3132.27" x2="3538.38" y2="3132.27" style="stroke:#000000;stroke-width:22.63"/>
	<line x1="4282.02" y1="3323.16" x2="4323.87" y2="3323.16" style="stroke:#000000;stroke-width:22.63"/>
	<line x1="4270.14" y1="3513.78" x2="4295.52" y2="3513.78" style="stroke:#000000;stroke-width:22.63"/>
	<line x1="4327.11" y1="3704.67" x2="4327.11" y2="3704.67" style="stroke:#000000;stroke-width:22.63"/>
	<line x1="4377.07" y1="3895.29" x2="4436.47" y2="3895.29" style="stroke:#000000;stroke-width:22.63"/>
	<line x1="4193.72" y1="4086.18" x2="4214.78" y2="4086.18" style="stroke:#000000;stroke-width:22.63"/>
	<line x1="4394.08" y1="4276.80" x2="4422.97" y2="4276.80" style="stroke:#000000;stroke-width:22.63"/>
	<line x1="4221.53" y1="4467.69" x2="4257.99" y2="4467.69" style="stroke:#000000;stroke-width:22.63"/>
	<line x1="3932.07" y1="4658.31" x2="4015.51" y2="4658.31" style="stroke:#000000;stroke-width:22.63"/>
	<line x1="4284.72" y1="4849.20" x2="4344.93" y2="4849.20" style="stroke:#000000;stroke-width:22.63"/>
	<line x1="4380.58" y1="5039.82" x2="4425.94" y2="5039.82" style="stroke:#000000;stroke-width:22.63"/>
	<line x1="3854.30" y1="5230.71" x2="3960.69" y2="5230.71" style="stroke:#000000;stroke-width:22.63"/>
	<line x1="4329.54" y1="5421.33" x2="4378.69" y2="5421.33" style="stroke:#000000;stroke-width:22.63"/>
	<line x1="4340.61" y1="5612.22" x2="4370.32" y2="5612.22" style="stroke:#000000;stroke-width:22.63"/>
	<line x1="4327.11" y1="5803.11" x2="4327.11" y2="5803.11" style="stroke:#000000;stroke-width:22.63"/>
	<line x1="4375.45" y1="5993.73" x2="4434.85" y2="5993.73" style="stroke:#000000;stroke-width:22.63"/>
	<line x1="4188.86" y1="6184.62" x2="4209.92" y2="6184.62" style="stroke:#000000;stroke-width:22.63"/>
	<line x1="4391.11" y1="6375.24" x2="4420.00" y2="6375.24" style="stroke:#000000;stroke-width:22.63"/>
	<line x1="4219.91" y1="6566.13" x2="4256.10" y2="6566.13" style="stroke:#000000;stroke-width:22.63"/>
	<line x1="3929.91" y1="6756.75" x2="4013.35" y2="6756.75" style="stroke:#000000;stroke-width:22.63"/>
	<line x1="4283.64" y1="6947.64" x2="4343.85" y2="6947.64" style="stroke:#000000;stroke-width:22.63"/>
	<line x1="4377.88" y1="7138.26" x2="4423.24" y2="7138.26" style="stroke:#000000;stroke-width:22.63"/>
	<line x1="3837.83" y1="7329.15" x2="3944.49" y2="7329.15" style="stroke:#000000;stroke-width:22.63"/>
	<line x1="4327.11" y1="7519.77" x2="4375.99" y2="7519.77" style="stroke:#000000;stroke-width:22.63"/>
	<line x1="4337.91" y1="7710.66" x2="4367.61" y2="7710.66" style="stroke:#000000;stroke-width:22.63"/>
	<text x="507.64" y="1458.20" style="font-family:'Helvetica';font-size:121.51px;fill:#000000">tested</text>
	<text x="507.64" y="1648.82" style="font-family:'Helvetica';font-size:121.51px;fill:#000000">model1</text>
	<text x="507.64" y="3747.26" style="font-family:'Helvetica';font-size:121.51px;fill:#000000">model2</text>
	<text x="507.64" y="5845.70" style="font-family:'Helvetica';font-size:121.51px;fill:#000000">model3</text>
	<text x="507.64" y="1076.42" style="font-family:'Helvetica';font-size:121.51px;fill:#000000">model</text>
	<text x="1286.66" y="1648.82" style="font-family:'Helvetica';font-size:121.51px;fill:#000000">British or Mixed British</text>
	<text x="1286.66" y="1839.71" style="font-family:'Helvetica';font-size:121.51px;fill:#000000">Irish</text>
	<text x="1286.66" y="2030.33" style="font-family:'Helvetica';font-size:121.51px;fill:#000000">Other White</text>
	<text x="1286.66" y="2221.22" style="font-family:'Helvetica';font-size:121.51px;fill:#000000">Indian</text>
	<text x="1286.66" y="2411.84" style="font-family:'Helvetica';font-size:121.51px;fill:#000000">Pakistani</text>
	<text x="1286.66" y="2602.73" style="font-family:'Helvetica';font-size:121.51px;fill:#000000">Bangladeshi</text>
	<text x="1286.66" y="2793.35" style="font-family:'Helvetica';font-size:121.51px;fill:#000000">Caribbean</text>
	<text x="1286.66" y="2984.24" style="font-family:'Helvetica';font-size:121.51px;fill:#000000">African</text>
	<text x="1286.66" y="3174.86" style="font-family:'Helvetica';font-size:121.51px;fill:#000000">Chinese</text>
	<text x="1286.66" y="3365.75" style="font-family:'Helvetica';font-size:121.51px;fill:#000000">All mixed</text>
	<text x="1286.66" y="3556.37" style="font-family:'Helvetica';font-size:121.51px;fill:#000000">All Other</text>
	<text x="1286.66" y="3747.26" style="font-family:'Helvetica';font-size:121.51px;fill:#000000">British or Mixed British</text>
	<text x="1286.66" y="3937.88" style="font-family:'Helvetica';font-size:121.51px;fill:#000000">Irish</text>
	<text x="1286.66" y="4128.77" style="font-family:'Helvetica';font-size:121.51px;fill:#000000">Other White</text>
	<text x="1286.66" y="4319.39" style="font-family:'Helvetica';font-size:121.51px;fill:#000000">Indian</text>
	<text x="1286.66" y="4510.28" style="font-family:'Helvetica';font-size:121.51px;fill:#000000">Pakistani</text>
	<text x="1286.66" y="4700.90" style="font-family:'Helvetica';font-size:121.51px;fill:#000000">Bangladeshi</text>
	<text x="1286.66" y="4891.79" style="font-family:'Helvetica';font-size:121.51px;fill:#000000">Caribbean</text>
	<text x="1286.66" y="5082.41" style="font-family:'Helvetica';font-size:121.51px;fill:#000000">African</text>
	<text x="1286.66" y="5273.30" style="font-family:'Helvetica';font-size:121.51px;fill:#000000">Chinese</text>
	<text x="1286.66" y="5463.92" style="font-family:'Helvetica';font-size:121.51px;fill:#000000">All mixed</text>
	<text x="1286.66" y="5654.81" style="font-family:'Helvetica';font-size:121.51px;fill:#000000">All Other</text>
	<text x="1286.66" y="5845.70" style="font-family:'Helvetica';font-size:121.51px;fill:#000000">British or Mixed British</text>
	<text x="1286.66" y="6036.32" style="font-family:'Helvetica';font-size:121.51px;fill:#000000">Irish</text>
	<text x="1286.66" y="6227.21" style="font-family:'Helvetica';font-size:121.51px;fill:#000000">Other White</text>
	<text x="1286.66" y="6417.83" style="font-family:'Helvetica';font-size:121.51px;fill:#000000">Indian</text>
	<text x="1286.66" y="6608.72" style="font-family:'Helvetica';font-size:121.51px;fill:#000000">Pakistani</text>
	<text x="1286.66" y="6799.34" style="font-family:'Helvetica';font-size:121.51px;fill:#000000">Bangladeshi</text>
	<text x="1286.66" y="6990.23" style="font-family:'Helvetica';font-size:121.51px;fill:#000000">Caribbean</text>
	<text x="1286.66" y="7180.85" style="font-family:'Helvetica';font-size:121.51px;fill:#000000">African</text>
	<text x="1286.66" y="7371.74" style="font-family:'Helvetica';font-size:121.51px;fill:#000000">Chinese</text>
	<text x="1286.66" y="7562.36" style="font-family:'Helvetica';font-size:121.51px;fill:#000000">All mixed</text>
	<text x="1286.66" y="7753.25" style="font-family:'Helvetica';font-size:121.51px;fill:#000000">All Other</text>
	<text x="1286.66" y="1076.42" style="font-family:'Helvetica';font-size:121.51px;fill:#000000">eth16</text>
	<text x="5631.32" y="1648.82" style="font-family:'Helvetica';font-size:121.51px;fill:#000000">1.00 (1.00, 1.00)</text>
	<text x="5631.32" y="1839.71" style="font-family:'Helvetica';font-size:121.51px;fill:#000000">1.08 (1.04, 1.11)</text>
	<text x="5631.32" y="2030.33" style="font-family:'Helvetica';font-size:121.51px;fill:#000000">0.72 (0.72, 0.73)</text>
	<text x="5631.32" y="2221.22" style="font-family:'Helvetica';font-size:121.51px;fill:#000000">1.09 (1.07, 1.10)</text>
	<text x="5631.32" y="2411.84" style="font-family:'Helvetica';font-size:121.51px;fill:#000000">0.98 (0.96, 1.00)</text>
	<text x="5631.32" y="2602.73" style="font-family:'Helvetica';font-size:121.51px;fill:#000000">0.73 (0.70, 0.76)</text>
	<text x="5631.32" y="2793.35" style="font-family:'Helvetica';font-size:121.51px;fill:#000000">1.00 (0.97, 1.03)</text>
	<text x="5631.32" y="2984.24" style="font-family:'Helvetica';font-size:121.51px;fill:#000000">1.01 (0.99, 1.03)</text>
	<text x="5631.32" y="3174.86" style="font-family:'Helvetica';font-size:121.51px;fill:#000000">0.38 (0.36, 0.40)</text>
	<text x="5631.32" y="3365.75" style="font-family:'Helvetica';font-size:121.51px;fill:#000000">0.97 (0.95, 1.00)</text>
	<text x="5631.32" y="3556.37" style="font-family:'Helvetica';font-size:121.51px;fill:#000000">0.95 (0.94, 0.96)</text>
	<text x="5631.32" y="3747.26" style="font-family:'Helvetica';font-size:121.51px;fill:#000000">1.00 (1.00, 1.00)</text>
	<text x="5631.32" y="3937.88" style="font-family:'Helvetica';font-size:121.51px;fill:#000000">1.10 (1.06, 1.14)</text>
	<text x="5631.32" y="4128.77" style="font-family:'Helvetica';font-size:121.51px;fill:#000000">0.87 (0.86, 0.88)</text>
	<text x="5631.32" y="4319.39" style="font-family:'Helvetica';font-size:121.51px;fill:#000000">1.10 (1.08, 1.12)</text>
	<text x="5631.32" y="4510.28" style="font-family:'Helvetica';font-size:121.51px;fill:#000000">0.90 (0.88, 0.92)</text>
	<text x="5631.32" y="4700.90" style="font-family:'Helvetica';font-size:121.51px;fill:#000000">0.66 (0.63, 0.70)</text>
	<text x="5631.32" y="4891.79" style="font-family:'Helvetica';font-size:121.51px;fill:#000000">0.99 (0.95, 1.02)</text>
	<text x="5631.32" y="5082.41" style="font-family:'Helvetica';font-size:121.51px;fill:#000000">1.09 (1.06, 1.12)</text>
	<text x="5631.32" y="5273.30" style="font-family:'Helvetica';font-size:121.51px;fill:#000000">0.61 (0.58, 0.65)</text>
	<text x="5631.32" y="5463.92" style="font-family:'Helvetica';font-size:121.51px;fill:#000000">1.03 (1.00, 1.06)</text>
	<text x="5631.32" y="5654.81" style="font-family:'Helvetica';font-size:121.51px;fill:#000000">1.03 (1.02, 1.05)</text>
	<text x="5631.32" y="5845.70" style="font-family:'Helvetica';font-size:121.51px;fill:#000000">1.00 (1.00, 1.00)</text>
	<text x="5631.32" y="6036.32" style="font-family:'Helvetica';font-size:121.51px;fill:#000000">1.09 (1.06, 1.13)</text>
	<text x="5631.32" y="6227.21" style="font-family:'Helvetica';font-size:121.51px;fill:#000000">0.86 (0.85, 0.87)</text>
	<text x="5631.32" y="6417.83" style="font-family:'Helvetica';font-size:121.51px;fill:#000000">1.10 (1.08, 1.11)</text>
	<text x="5631.32" y="6608.72" style="font-family:'Helvetica';font-size:121.51px;fill:#000000">0.90 (0.88, 0.92)</text>
	<text x="5631.32" y="6799.34" style="font-family:'Helvetica';font-size:121.51px;fill:#000000">0.66 (0.63, 0.69)</text>
	<text x="5631.32" y="6990.23" style="font-family:'Helvetica';font-size:121.51px;fill:#000000">0.98 (0.95, 1.02)</text>
	<text x="5631.32" y="7180.85" style="font-family:'Helvetica';font-size:121.51px;fill:#000000">1.09 (1.06, 1.12)</text>
	<text x="5631.32" y="7371.74" style="font-family:'Helvetica';font-size:121.51px;fill:#000000">0.60 (0.57, 0.64)</text>
	<text x="5631.32" y="7562.36" style="font-family:'Helvetica';font-size:121.51px;fill:#000000">1.03 (1.00, 1.06)</text>
	<text x="5631.32" y="7753.25" style="font-family:'Helvetica';font-size:121.51px;fill:#000000">1.03 (1.01, 1.05)</text>
	<text x="5631.32" y="1076.42" style="font-family:'Helvetica';font-size:121.51px;fill:#000000">Ratio (95% CI)</text>
	<text x="5631.32" y="885.80" style="font-family:'Helvetica';font-size:121.51px;fill:#000000">Hazard</text>
	<text x="5631.32" y="1648.82" style="font-family:'Helvetica';font-size:121.51px;fill:#000000">1.00 (1.00, 1.00)</text>
	<text x="5631.32" y="1839.71" style="font-family:'Helvetica';font-size:121.51px;fill:#000000">1.08 (1.04, 1.11)</text>
	<text x="5631.32" y="2030.33" style="font-family:'Helvetica';font-size:121.51px;fill:#000000">0.72 (0.72, 0.73)</text>
	<text x="5631.32" y="2221.22" style="font-family:'Helvetica';font-size:121.51px;fill:#000000">1.09 (1.07, 1.10)</text>
	<text x="5631.32" y="2411.84" style="font-family:'Helvetica';font-size:121.51px;fill:#000000">0.98 (0.96, 1.00)</text>
	<text x="5631.32" y="2602.73" style="font-family:'Helvetica';font-size:121.51px;fill:#000000">0.73 (0.70, 0.76)</text>
	<text x="5631.32" y="2793.35" style="font-family:'Helvetica';font-size:121.51px;fill:#000000">1.00 (0.97, 1.03)</text>
	<text x="5631.32" y="2984.24" style="font-family:'Helvetica';font-size:121.51px;fill:#000000">1.01 (0.99, 1.03)</text>
	<text x="5631.32" y="3174.86" style="font-family:'Helvetica';font-size:121.51px;fill:#000000">0.38 (0.36, 0.40)</text>
	<text x="5631.32" y="3365.75" style="font-family:'Helvetica';font-size:121.51px;fill:#000000">0.97 (0.95, 1.00)</text>
	<text x="5631.32" y="3556.37" style="font-family:'Helvetica';font-size:121.51px;fill:#000000">0.95 (0.94, 0.96)</text>
	<text x="5631.32" y="3747.26" style="font-family:'Helvetica';font-size:121.51px;fill:#000000">1.00 (1.00, 1.00)</text>
	<text x="5631.32" y="3937.88" style="font-family:'Helvetica';font-size:121.51px;fill:#000000">1.10 (1.06, 1.14)</text>
	<text x="5631.32" y="4128.77" style="font-family:'Helvetica';font-size:121.51px;fill:#000000">0.87 (0.86, 0.88)</text>
	<text x="5631.32" y="4319.39" style="font-family:'Helvetica';font-size:121.51px;fill:#000000">1.10 (1.08, 1.12)</text>
	<text x="5631.32" y="4510.28" style="font-family:'Helvetica';font-size:121.51px;fill:#000000">0.90 (0.88, 0.92)</text>
	<text x="5631.32" y="4700.90" style="font-family:'Helvetica';font-size:121.51px;fill:#000000">0.66 (0.63, 0.70)</text>
	<text x="5631.32" y="4891.79" style="font-family:'Helvetica';font-size:121.51px;fill:#000000">0.99 (0.95, 1.02)</text>
	<text x="5631.32" y="5082.41" style="font-family:'Helvetica';font-size:121.51px;fill:#000000">1.09 (1.06, 1.12)</text>
	<text x="5631.32" y="5273.30" style="font-family:'Helvetica';font-size:121.51px;fill:#000000">0.61 (0.58, 0.65)</text>
	<text x="5631.32" y="5463.92" style="font-family:'Helvetica';font-size:121.51px;fill:#000000">1.03 (1.00, 1.06)</text>
	<text x="5631.32" y="5654.81" style="font-family:'Helvetica';font-size:121.51px;fill:#000000">1.03 (1.02, 1.05)</text>
	<text x="5631.32" y="5845.70" style="font-family:'Helvetica';font-size:121.51px;fill:#000000">1.00 (1.00, 1.00)</text>
	<text x="5631.32" y="6036.32" style="font-family:'Helvetica';font-size:121.51px;fill:#000000">1.09 (1.06, 1.13)</text>
	<text x="5631.32" y="6227.21" style="font-family:'Helvetica';font-size:121.51px;fill:#000000">0.86 (0.85, 0.87)</text>
	<text x="5631.32" y="6417.83" style="font-family:'Helvetica';font-size:121.51px;fill:#000000">1.10 (1.08, 1.11)</text>
	<text x="5631.32" y="6608.72" style="font-family:'Helvetica';font-size:121.51px;fill:#000000">0.90 (0.88, 0.92)</text>
	<text x="5631.32" y="6799.34" style="font-family:'Helvetica';font-size:121.51px;fill:#000000">0.66 (0.63, 0.69)</text>
	<text x="5631.32" y="6990.23" style="font-family:'Helvetica';font-size:121.51px;fill:#000000">0.98 (0.95, 1.02)</text>
	<text x="5631.32" y="7180.85" style="font-family:'Helvetica';font-size:121.51px;fill:#000000">1.09 (1.06, 1.12)</text>
	<text x="5631.32" y="7371.74" style="font-family:'Helvetica';font-size:121.51px;fill:#000000">0.60 (0.57, 0.64)</text>
	<text x="5631.32" y="7562.36" style="font-family:'Helvetica';font-size:121.51px;fill:#000000">1.03 (1.00, 1.06)</text>
	<text x="5631.32" y="7753.25" style="font-family:'Helvetica';font-size:121.51px;fill:#000000">1.03 (1.01, 1.05)</text>
	<text x="5631.32" y="1076.42" style="font-family:'Helvetica';font-size:121.51px;fill:#000000">Ratio (95% CI)</text>
	<text x="5631.32" y="885.80" style="font-family:'Helvetica';font-size:121.51px;fill:#000000">Hazard</text>
	<polygon points="4283.03,1606.50 4326.84,1562.69 4370.65,1606.50 4326.84,1650.31" style="fill:#000000"/>
	<polygon points="4299.03,1606.50 4326.84,1578.69 4354.65,1606.50 4326.84,1634.31" style="fill:none;stroke:#000000;stroke-width:22.63"/>
	<polygon points="4345.95,1797.12 4389.76,1753.31 4433.57,1797.12 4389.76,1840.93" style="fill:#000000"/>
	<polygon points="4361.94,1797.12 4389.76,1769.31 4417.57,1797.12 4389.76,1824.93" style="fill:none;stroke:#000000;stroke-width:22.63"/>
	<polygon points="4003.56,1988.01 4047.37,1944.20 4091.18,1988.01 4047.37,2031.82" style="fill:#000000"/>
	<polygon points="4019.56,1988.01 4047.37,1960.20 4075.18,1988.01 4047.37,2015.82" style="fill:none;stroke:#000000;stroke-width:22.63"/>
	<polygon points="4354.86,2178.63 4398.67,2134.82 4442.48,2178.63 4398.67,2222.44" style="fill:#000000"/>
	<polygon points="4370.86,2178.63 4398.67,2150.82 4426.48,2178.63 4398.67,2206.44" style="fill:none;stroke:#000000;stroke-width:22.63"/>
	<polygon points="4264.67,2369.52 4308.48,2325.71 4352.29,2369.52 4308.48,2413.33" style="fill:#000000"/>
	<polygon points="4280.67,2369.52 4308.48,2341.71 4336.29,2369.52 4308.48,2397.33" style="fill:none;stroke:#000000;stroke-width:22.63"/>
	<polygon points="4007.34,2560.14 4051.15,2516.33 4094.96,2560.14 4051.15,2603.95" style="fill:#000000"/>
	<polygon points="4023.34,2560.14 4051.15,2532.33 4078.96,2560.14 4051.15,2587.95" style="fill:none;stroke:#000000;stroke-width:22.63"/>
	<polygon points="4281.68,2751.03 4325.49,2707.22 4369.30,2751.03 4325.49,2794.84" style="fill:#000000"/>
	<polygon points="4297.68,2751.03 4325.49,2723.22 4353.30,2751.03 4325.49,2778.84" style="fill:none;stroke:#000000;stroke-width:22.63"/>
	<polygon points="4292.21,2941.65 4336.02,2897.84 4379.83,2941.65 4336.02,2985.46" style="fill:#000000"/>
	<polygon points="4308.21,2941.65 4336.02,2913.84 4363.83,2941.65 4336.02,2969.46" style="fill:none;stroke:#000000;stroke-width:22.63"/>
	<polygon points="3452.17,3132.54 3495.98,3088.73 3539.79,3132.54 3495.98,3176.35" style="fill:#000000"/>
	<polygon points="3468.17,3132.54 3495.98,3104.73 3523.79,3132.54 3495.98,3160.35" style="fill:none;stroke:#000000;stroke-width:22.63"/>
	<polygon points="4259.00,3323.16 4302.81,3279.35 4346.62,3323.16 4302.81,3366.97" style="fill:#000000"/>
	<polygon points="4275.00,3323.16 4302.81,3295.35 4330.62,3323.16 4302.81,3350.97" style="fill:none;stroke:#000000;stroke-width:22.63"/>
	<polygon points="4239.02,3514.05 4282.83,3470.24 4326.64,3514.05 4282.83,3557.86" style="fill:#000000"/>
	<polygon points="4255.02,3514.05 4282.83,3486.24 4310.64,3514.05 4282.83,3541.86" style="fill:none;stroke:#000000;stroke-width:22.63"/>
	<polygon points="4283.03,3704.67 4326.84,3660.86 4370.65,3704.67 4326.84,3748.48" style="fill:#000000"/>
	<polygon points="4299.03,3704.67 4326.84,3676.86 4354.65,3704.67 4326.84,3732.48" style="fill:none;stroke:#000000;stroke-width:22.63"/>
	<polygon points="4362.96,3895.56 4406.77,3851.75 4450.58,3895.56 4406.77,3939.37" style="fill:#000000"/>
	<polygon points="4378.96,3895.56 4406.77,3867.75 4434.58,3895.56 4406.77,3923.37" style="fill:none;stroke:#000000;stroke-width:22.63"/>
	<polygon points="4160.44,4086.18 4204.25,4042.37 4248.06,4086.18 4204.25,4129.99" style="fill:#000000"/>
	<polygon points="4176.44,4086.18 4204.25,4058.37 4232.06,4086.18 4204.25,4113.99" style="fill:none;stroke:#000000;stroke-width:22.63"/>
	<polygon points="4364.58,4277.07 4408.39,4233.26 4452.20,4277.07 4408.39,4320.88" style="fill:#000000"/>
	<polygon points="4380.58,4277.07 4408.39,4249.26 4436.20,4277.07 4408.39,4304.88" style="fill:none;stroke:#000000;stroke-width:22.63"/>
	<polygon points="4195.81,4467.69 4239.62,4423.88 4283.44,4467.69 4239.62,4511.50" style="fill:#000000"/>
	<polygon points="4211.81,4467.69 4239.62,4439.88 4267.44,4467.69 4239.62,4495.50" style="fill:none;stroke:#000000;stroke-width:22.63"/>
	<polygon points="3929.84,4658.58 3973.65,4614.77 4017.46,4658.58 3973.65,4702.39" style="fill:#000000"/>
	<polygon points="3945.84,4658.58 3973.65,4630.77 4001.46,4658.58 3973.65,4686.39" style="fill:none;stroke:#000000;stroke-width:22.63"/>
	<polygon points="4270.88,4849.20 4314.69,4805.39 4358.50,4849.20 4314.69,4893.01" style="fill:#000000"/>
	<polygon points="4286.88,4849.20 4314.69,4821.39 4342.50,4849.20 4314.69,4877.01" style="fill:none;stroke:#000000;stroke-width:22.63"/>
	<polygon points="4359.18,5040.09 4402.99,4996.28 4446.80,5040.09 4402.99,5083.90" style="fill:#000000"/>
	<polygon points="4375.18,5040.09 4402.99,5012.28 4430.80,5040.09 4402.99,5067.90" style="fill:none;stroke:#000000;stroke-width:22.63"/>
	<polygon points="3863.69,5230.71 3907.50,5186.90 3951.31,5230.71 3907.50,5274.52" style="fill:#000000"/>
	<polygon points="3879.68,5230.71 3907.50,5202.90 3935.31,5230.71 3907.50,5258.52" style="fill:none;stroke:#000000;stroke-width:22.63"/>
	<polygon points="4310.30,5421.60 4354.11,5377.79 4397.93,5421.60 4354.11,5465.41" style="fill:#000000"/>
	<polygon points="4326.30,5421.60 4354.11,5393.79 4381.93,5421.60 4354.11,5449.41" style="fill:none;stroke:#000000;stroke-width:22.63"/>
	<polygon points="4311.65,5612.22 4355.46,5568.41 4399.28,5612.22 4355.46,5656.03" style="fill:#000000"/>
	<polygon points="4327.65,5612.22 4355.46,5584.41 4383.28,5612.22 4355.46,5640.03" style="fill:none;stroke:#000000;stroke-width:22.63"/>
	<polygon points="4283.03,5803.11 4326.84,5759.30 4370.65,5803.11 4326.84,5846.92" style="fill:#000000"/>
	<polygon points="4299.03,5803.11 4326.84,5775.30 4354.65,5803.11 4326.84,5830.92" style="fill:none;stroke:#000000;stroke-width:22.63"/>
	<polygon points="4361.07,5994.00 4404.88,5950.19 4448.69,5994.00 4404.88,6037.81" style="fill:#000000"/>
	<polygon points="4377.07,5994.00 4404.88,5966.19 4432.69,5994.00 4404.88,6021.81" style="fill:none;stroke:#000000;stroke-width:22.63"/>
	<polygon points="4155.31,6184.62 4199.12,6140.81 4242.93,6184.62 4199.12,6228.43" style="fill:#000000"/>
	<polygon points="4171.31,6184.62 4199.12,6156.81 4226.93,6184.62 4199.12,6212.43" style="fill:none;stroke:#000000;stroke-width:22.63"/>
	<polygon points="4361.61,6375.51 4405.42,6331.70 4449.23,6375.51 4405.42,6419.32" style="fill:#000000"/>
	<polygon points="4377.61,6375.51 4405.42,6347.70 4433.23,6375.51 4405.42,6403.32" style="fill:none;stroke:#000000;stroke-width:22.63"/>
	<polygon points="4193.92,6566.13 4237.73,6522.32 4281.55,6566.13 4237.73,6609.94" style="fill:#000000"/>
	<polygon points="4209.92,6566.13 4237.73,6538.32 4265.55,6566.13 4237.73,6593.94" style="fill:none;stroke:#000000;stroke-width:22.63"/>
	<polygon points="3927.68,6757.02 3971.49,6713.21 4015.30,6757.02 3971.49,6800.83" style="fill:#000000"/>
	<polygon points="3943.68,6757.02 3971.49,6729.21 3999.30,6757.02 3971.49,6784.83" style="fill:none;stroke:#000000;stroke-width:22.63"/>
	<polygon points="4269.80,6947.64 4313.61,6903.83 4357.42,6947.64 4313.61,6991.45" style="fill:#000000"/>
	<polygon points="4285.80,6947.64 4313.61,6919.83 4341.42,6947.64 4313.61,6975.45" style="fill:none;stroke:#000000;stroke-width:22.63"/>
	<polygon points="4356.75,7138.53 4400.56,7094.72 4444.37,7138.53 4400.56,7182.34" style="fill:#000000"/>
	<polygon points="4372.75,7138.53 4400.56,7110.72 4428.37,7138.53 4400.56,7166.34" style="fill:none;stroke:#000000;stroke-width:22.63"/>
	<polygon points="3847.21,7329.15 3891.03,7285.34 3934.84,7329.15 3891.03,7372.96" style="fill:#000000"/>
	<polygon points="3863.21,7329.15 3891.03,7301.34 3918.84,7329.15 3891.03,7356.96" style="fill:none;stroke:#000000;stroke-width:22.63"/>
	<polygon points="4307.60,7520.04 4351.41,7476.23 4395.22,7520.04 4351.41,7563.85" style="fill:#000000"/>
	<polygon points="4323.60,7520.04 4351.41,7492.23 4379.23,7520.04 4351.41,7547.85" style="fill:none;stroke:#000000;stroke-width:22.63"/>
	<polygon points="4308.95,7710.66 4352.76,7666.85 4396.57,7710.66 4352.76,7754.47" style="fill:#000000"/>
	<polygon points="4324.95,7710.66 4352.76,7682.85 4380.58,7710.66 4352.76,7738.47" style="fill:none;stroke:#000000;stroke-width:22.63"/>
	<line x1="397.74" y1="8282.79" x2="7222.83" y2="8282.79" style="stroke:#000000;stroke-width:15.08"/>
	<text x="3729.82" y="8420.09" style="font-family:'Helvetica';font-size:121.51px;fill:#000000" text-anchor="middle"> </text>
	<text x="4924.13" y="8420.09" style="font-family:'Helvetica';font-size:121.51px;fill:#000000" text-anchor="middle"> </text>
	<line x1="4327.11" y1="8282.79" x2="4327.11" y2="8387.55" style="stroke:#000000;stroke-width:15.08"/>
	<text x="4327.11" y="8524.85" style="font-family:'Helvetica';font-size:121.51px;fill:#000000" text-anchor="middle">1</text>
	<line x1="3132.53" y1="8282.79" x2="3132.53" y2="8387.55" style="stroke:#000000;stroke-width:15.08"/>
	<text x="3132.53" y="8524.85" style="font-family:'Helvetica';font-size:121.51px;fill:#000000" text-anchor="middle">.25</text>
	<line x1="3729.82" y1="8282.79" x2="3729.82" y2="8387.55" style="stroke:#000000;stroke-width:15.08"/>
	<text x="3729.82" y="8524.85" style="font-family:'Helvetica';font-size:121.51px;fill:#000000" text-anchor="middle">.5</text>
	<line x1="4327.11" y1="8282.79" x2="4327.11" y2="8387.55" style="stroke:#000000;stroke-width:15.08"/>
	<text x="4327.11" y="8524.85" style="font-family:'Helvetica';font-size:121.51px;fill:#000000" text-anchor="middle">1</text>
	<line x1="4924.13" y1="8282.79" x2="4924.13" y2="8387.55" style="stroke:#000000;stroke-width:15.08"/>
	<text x="4924.13" y="8524.85" style="font-family:'Helvetica';font-size:121.51px;fill:#000000" text-anchor="middle">2</text>
	<line x1="5521.42" y1="8282.79" x2="5521.42" y2="8387.55" style="stroke:#000000;stroke-width:15.08"/>
	<text x="5521.42" y="8524.85" style="font-family:'Helvetica';font-size:121.51px;fill:#000000" text-anchor="middle">4</text>
	<line x1="4327.11" y1="8282.79" x2="4327.11" y2="8387.55" style="stroke:#000000;stroke-width:15.08"/>
	<text x="3810.29" y="544.24" style="font-family:'Helvetica';font-size:209.54px;fill:#000000" text-anchor="middle">complete case analysis</text>
	<text x="3810.29" y="228.56" style="font-family:'Helvetica';font-size:261.92px;fill:#000000" text-anchor="middle">tested</text>
</svg>
