<?xml version="1.0" encoding="UTF-8" standalone="no"?>
<!-- This is a Stata 16.1 generated SVG file (http://www.stata.com) -->

<svg version="1.1" width="10.47in" height="12.00in" viewBox="0 0 7542 8640" xmlns="http://www.w3.org/2000/svg" xmlns:xlink="http://www.w3.org/1999/xlink">
	<desc>Stata Graph - Graph</desc>
	<rect x="0" y="0" width="7542" height="8640" style="fill:#F0F0F0;stroke:none"/>
	<rect x="0.00" y="0.27" width="7542.00" height="8639.73" style="fill:#FFFFFF"/>
	<rect x="7.54" y="7.81" width="7526.92" height="8624.65" style="fill:none;stroke:#FFFFFF;stroke-width:15.08"/>
	<rect x="397.74" y="652.32" width="6825.09" height="7630.47" style="fill:#FFFFFF"/>
	<rect x="405.29" y="659.86" width="6810.01" height="7615.39" style="fill:none;stroke:#FFFFFF;stroke-width:15.08"/>
	<line x1="397.74" y1="1272.51" x2="7222.83" y2="1272.51" style="stroke:#C0C0C0;stroke-width:15.08"/>
	<text x="507.64" y="8039.45" style="font-family:'Helvetica';font-size:121.51px;fill:#000000">NOTE: Weights are from random effects analysis</text>
	<line x1="4327.11" y1="8282.79" x2="4327.11" y2="1272.51" style="stroke:#000000;stroke-width:15.08"/>
	<text x="507.64" y="7943.87" style="font-family:'Helvetica';font-size:121.51px;fill:#000000">.</text>
	<line x1="4327.11" y1="1606.23" x2="4327.11" y2="1606.23" style="stroke:#000000;stroke-width:22.63"/>
	<line x1="4239.62" y1="1797.12" x2="4546.37" y2="1797.12" style="stroke:#000000;stroke-width:22.63"/>
	<line x1="4120.27" y1="1987.74" x2="4273.11" y2="1987.74" style="stroke:#000000;stroke-width:22.63"/>
	<line x1="4420.81" y1="2178.63" x2="4617.93" y2="2178.63" style="stroke:#000000;stroke-width:22.63"/>
	<line x1="4434.31" y1="2369.25" x2="4681.65" y2="2369.25" style="stroke:#000000;stroke-width:22.63"/>
	<line x1="4594.70" y1="2560.14" x2="5086.95" y2="2560.14" style="stroke:#000000;stroke-width:22.63"/>
	<line x1="4426.75" y1="2750.76" x2="4702.17" y2="2750.76" style="stroke:#000000;stroke-width:22.63"/>
	<line x1="4666.53" y1="2941.65" x2="5013.51" y2="2941.65" style="stroke:#000000;stroke-width:22.63"/>
	<line x1="4000.92" y1="3132.27" x2="4641.42" y2="3132.27" style="stroke:#000000;stroke-width:22.63"/>
	<line x1="4395.43" y1="3323.16" x2="4789.93" y2="3323.16" style="stroke:#000000;stroke-width:22.63"/>
	<line x1="4533.95" y1="3513.78" x2="4744.84" y2="3513.78" style="stroke:#000000;stroke-width:22.63"/>
	<line x1="4327.11" y1="3704.67" x2="4327.11" y2="3704.67" style="stroke:#000000;stroke-width:22.63"/>
	<line x1="4263.12" y1="3895.29" x2="4575.53" y2="3895.29" style="stroke:#000000;stroke-width:22.63"/>
	<line x1="4165.64" y1="4086.18" x2="4326.84" y2="4086.18" style="stroke:#000000;stroke-width:22.63"/>
	<line x1="4437.01" y1="4276.80" x2="4642.50" y2="4276.80" style="stroke:#000000;stroke-width:22.63"/>
	<line x1="4296.60" y1="4467.69" x2="4556.63" y2="4467.69" style="stroke:#000000;stroke-width:22.63"/>
	<line x1="4415.68" y1="4658.31" x2="4914.95" y2="4658.31" style="stroke:#000000;stroke-width:22.63"/>
	<line x1="4272.84" y1="4849.20" x2="4561.49" y2="4849.20" style="stroke:#000000;stroke-width:22.63"/>
	<line x1="4617.93" y1="5039.82" x2="4987.86" y2="5039.82" style="stroke:#000000;stroke-width:22.63"/>
	<line x1="4166.72" y1="5230.71" x2="4832.59" y2="5230.71" style="stroke:#000000;stroke-width:22.63"/>
	<line x1="4332.78" y1="5421.33" x2="4756.99" y2="5421.33" style="stroke:#000000;stroke-width:22.63"/>
	<line x1="4531.25" y1="5612.22" x2="4752.40" y2="5612.22" style="stroke:#000000;stroke-width:22.63"/>
	<line x1="4327.11" y1="5803.11" x2="4327.11" y2="5803.11" style="stroke:#000000;stroke-width:22.63"/>
	<line x1="4264.47" y1="5993.73" x2="4576.88" y2="5993.73" style="stroke:#000000;stroke-width:22.63"/>
	<line x1="4118.11" y1="6184.62" x2="4283.37" y2="6184.62" style="stroke:#000000;stroke-width:22.63"/>
	<line x1="4441.87" y1="6375.24" x2="4647.36" y2="6375.24" style="stroke:#000000;stroke-width:22.63"/>
	<line x1="4299.57" y1="6566.13" x2="4559.60" y2="6566.13" style="stroke:#000000;stroke-width:22.63"/>
	<line x1="4421.35" y1="6756.75" x2="4920.89" y2="6756.75" style="stroke:#000000;stroke-width:22.63"/>
	<line x1="4277.43" y1="6947.64" x2="4566.08" y2="6947.64" style="stroke:#000000;stroke-width:22.63"/>
	<line x1="4630.35" y1="7138.26" x2="5000.28" y2="7138.26" style="stroke:#000000;stroke-width:22.63"/>
	<line x1="4169.15" y1="7329.15" x2="4835.02" y2="7329.15" style="stroke:#000000;stroke-width:22.63"/>
	<line x1="4341.69" y1="7519.77" x2="4765.90" y2="7519.77" style="stroke:#000000;stroke-width:22.63"/>
	<line x1="4539.08" y1="7710.66" x2="4759.96" y2="7710.66" style="stroke:#000000;stroke-width:22.63"/>
	<text x="507.64" y="1458.20" style="font-family:'Helvetica';font-size:121.51px;fill:#000000">onscoviddeath</text>
	<text x="507.64" y="1648.82" style="font-family:'Helvetica';font-size:121.51px;fill:#000000">model1</text>
	<text x="507.64" y="3747.26" style="font-family:'Helvetica';font-size:121.51px;fill:#000000">model2</text>
	<text x="507.64" y="5845.70" style="font-family:'Helvetica';font-size:121.51px;fill:#000000">model3</text>
	<text x="507.64" y="1076.42" style="font-family:'Helvetica';font-size:121.51px;fill:#000000">model</text>
	<text x="1286.66" y="1648.82" style="font-family:'Helvetica';font-size:121.51px;fill:#000000">British or Mixed British</text>
	<text x="1286.66" y="1839.71" style="font-family:'Helvetica';font-size:121.51px;fill:#000000">Irish</text>
	<text x="1286.66" y="2030.33" style="font-family:'Helvetica';font-size:121.51px;fill:#000000">Other White</text>
	<text x="1286.66" y="2221.22" style="font-family:'Helvetica';font-size:121.51px;fill:#000000">Indian</text>
	<text x="1286.66" y="2411.84" style="font-family:'Helvetica';font-size:121.51px;fill:#000000">Pakistani</text>
	<text x="1286.66" y="2602.73" style="font-family:'Helvetica';font-size:121.51px;fill:#000000">Bangladeshi</text>
	<text x="1286.66" y="2793.35" style="font-family:'Helvetica';font-size:121.51px;fill:#000000">Caribbean</text>
	<text x="1286.66" y="2984.24" style="font-family:'Helvetica';font-size:121.51px;fill:#000000">African</text>
	<text x="1286.66" y="3174.86" style="font-family:'Helvetica';font-size:121.51px;fill:#000000">Chinese</text>
	<text x="1286.66" y="3365.75" style="font-family:'Helvetica';font-size:121.51px;fill:#000000">All mixed</text>
	<text x="1286.66" y="3556.37" style="font-family:'Helvetica';font-size:121.51px;fill:#000000">All Other</text>
	<text x="1286.66" y="3747.26" style="font-family:'Helvetica';font-size:121.51px;fill:#000000">British or Mixed British</text>
	<text x="1286.66" y="3937.88" style="font-family:'Helvetica';font-size:121.51px;fill:#000000">Irish</text>
	<text x="1286.66" y="4128.77" style="font-family:'Helvetica';font-size:121.51px;fill:#000000">Other White</text>
	<text x="1286.66" y="4319.39" style="font-family:'Helvetica';font-size:121.51px;fill:#000000">Indian</text>
	<text x="1286.66" y="4510.28" style="font-family:'Helvetica';font-size:121.51px;fill:#000000">Pakistani</text>
	<text x="1286.66" y="4700.90" style="font-family:'Helvetica';font-size:121.51px;fill:#000000">Bangladeshi</text>
	<text x="1286.66" y="4891.79" style="font-family:'Helvetica';font-size:121.51px;fill:#000000">Caribbean</text>
	<text x="1286.66" y="5082.41" style="font-family:'Helvetica';font-size:121.51px;fill:#000000">African</text>
	<text x="1286.66" y="5273.30" style="font-family:'Helvetica';font-size:121.51px;fill:#000000">Chinese</text>
	<text x="1286.66" y="5463.92" style="font-family:'Helvetica';font-size:121.51px;fill:#000000">All mixed</text>
	<text x="1286.66" y="5654.81" style="font-family:'Helvetica';font-size:121.51px;fill:#000000">All Other</text>
	<text x="1286.66" y="5845.70" style="font-family:'Helvetica';font-size:121.51px;fill:#000000">British or Mixed British</text>
	<text x="1286.66" y="6036.32" style="font-family:'Helvetica';font-size:121.51px;fill:#000000">Irish</text>
	<text x="1286.66" y="6227.21" style="font-family:'Helvetica';font-size:121.51px;fill:#000000">Other White</text>
	<text x="1286.66" y="6417.83" style="font-family:'Helvetica';font-size:121.51px;fill:#000000">Indian</text>
	<text x="1286.66" y="6608.72" style="font-family:'Helvetica';font-size:121.51px;fill:#000000">Pakistani</text>
	<text x="1286.66" y="6799.34" style="font-family:'Helvetica';font-size:121.51px;fill:#000000">Bangladeshi</text>
	<text x="1286.66" y="6990.23" style="font-family:'Helvetica';font-size:121.51px;fill:#000000">Caribbean</text>
	<text x="1286.66" y="7180.85" style="font-family:'Helvetica';font-size:121.51px;fill:#000000">African</text>
	<text x="1286.66" y="7371.74" style="font-family:'Helvetica';font-size:121.51px;fill:#000000">Chinese</text>
	<text x="1286.66" y="7562.36" style="font-family:'Helvetica';font-size:121.51px;fill:#000000">All mixed</text>
	<text x="1286.66" y="7753.25" style="font-family:'Helvetica';font-size:121.51px;fill:#000000">All Other</text>
	<text x="1286.66" y="1076.42" style="font-family:'Helvetica';font-size:121.51px;fill:#000000">eth16</text>
	<text x="5631.32" y="1648.82" style="font-family:'Helvetica';font-size:121.51px;fill:#000000">1.00 (1.00, 1.00)</text>
	<text x="5631.32" y="1839.71" style="font-family:'Helvetica';font-size:121.51px;fill:#000000">1.08 (0.90, 1.29)</text>
	<text x="5631.32" y="2030.33" style="font-family:'Helvetica';font-size:121.51px;fill:#000000">0.86 (0.79, 0.94)</text>
	<text x="5631.32" y="2221.22" style="font-family:'Helvetica';font-size:121.51px;fill:#000000">1.25 (1.11, 1.40)</text>
	<text x="5631.32" y="2411.84" style="font-family:'Helvetica';font-size:121.51px;fill:#000000">1.31 (1.13, 1.51)</text>
	<text x="5631.32" y="2602.73" style="font-family:'Helvetica';font-size:121.51px;fill:#000000">1.82 (1.36, 2.42)</text>
	<text x="5631.32" y="2793.35" style="font-family:'Helvetica';font-size:121.51px;fill:#000000">1.32 (1.12, 1.55)</text>
	<text x="5631.32" y="2984.24" style="font-family:'Helvetica';font-size:121.51px;fill:#000000">1.81 (1.48, 2.22)</text>
	<text x="5631.32" y="3174.86" style="font-family:'Helvetica';font-size:121.51px;fill:#000000">0.99 (0.68, 1.44)</text>
	<text x="5631.32" y="3365.75" style="font-family:'Helvetica';font-size:121.51px;fill:#000000">1.36 (1.08, 1.71)</text>
	<text x="5631.32" y="3556.37" style="font-family:'Helvetica';font-size:121.51px;fill:#000000">1.44 (1.27, 1.62)</text>
	<text x="5631.32" y="3747.26" style="font-family:'Helvetica';font-size:121.51px;fill:#000000">1.00 (1.00, 1.00)</text>
	<text x="5631.32" y="3937.88" style="font-family:'Helvetica';font-size:121.51px;fill:#000000">1.11 (0.93, 1.33)</text>
	<text x="5631.32" y="4128.77" style="font-family:'Helvetica';font-size:121.51px;fill:#000000">0.91 (0.83, 1.00)</text>
	<text x="5631.32" y="4319.39" style="font-family:'Helvetica';font-size:121.51px;fill:#000000">1.28 (1.14, 1.44)</text>
	<text x="5631.32" y="4510.28" style="font-family:'Helvetica';font-size:121.51px;fill:#000000">1.12 (0.97, 1.31)</text>
	<text x="5631.32" y="4700.90" style="font-family:'Helvetica';font-size:121.51px;fill:#000000">1.48 (1.11, 1.98)</text>
	<text x="5631.32" y="4891.79" style="font-family:'Helvetica';font-size:121.51px;fill:#000000">1.11 (0.94, 1.31)</text>
	<text x="5631.32" y="5082.41" style="font-family:'Helvetica';font-size:121.51px;fill:#000000">1.74 (1.40, 2.15)</text>
	<text x="5631.32" y="5273.30" style="font-family:'Helvetica';font-size:121.51px;fill:#000000">1.22 (0.83, 1.80)</text>
	<text x="5631.32" y="5463.92" style="font-family:'Helvetica';font-size:121.51px;fill:#000000">1.29 (1.01, 1.65)</text>
	<text x="5631.32" y="5654.81" style="font-family:'Helvetica';font-size:121.51px;fill:#000000">1.44 (1.27, 1.64)</text>
	<text x="5631.32" y="5845.70" style="font-family:'Helvetica';font-size:121.51px;fill:#000000">1.00 (1.00, 1.00)</text>
	<text x="5631.32" y="6036.32" style="font-family:'Helvetica';font-size:121.51px;fill:#000000">1.11 (0.93, 1.34)</text>
	<text x="5631.32" y="6227.21" style="font-family:'Helvetica';font-size:121.51px;fill:#000000">0.86 (0.78, 0.95)</text>
	<text x="5631.32" y="6417.83" style="font-family:'Helvetica';font-size:121.51px;fill:#000000">1.29 (1.14, 1.45)</text>
	<text x="5631.32" y="6608.72" style="font-family:'Helvetica';font-size:121.51px;fill:#000000">1.13 (0.97, 1.31)</text>
	<text x="5631.32" y="6799.34" style="font-family:'Helvetica';font-size:121.51px;fill:#000000">1.49 (1.12, 1.99)</text>
	<text x="5631.32" y="6990.23" style="font-family:'Helvetica';font-size:121.51px;fill:#000000">1.12 (0.94, 1.32)</text>
	<text x="5631.32" y="7180.85" style="font-family:'Helvetica';font-size:121.51px;fill:#000000">1.76 (1.42, 2.18)</text>
	<text x="5631.32" y="7371.74" style="font-family:'Helvetica';font-size:121.51px;fill:#000000">1.23 (0.83, 1.80)</text>
	<text x="5631.32" y="7562.36" style="font-family:'Helvetica';font-size:121.51px;fill:#000000">1.30 (1.02, 1.66)</text>
	<text x="5631.32" y="7753.25" style="font-family:'Helvetica';font-size:121.51px;fill:#000000">1.45 (1.28, 1.65)</text>
	<text x="5631.32" y="1076.42" style="font-family:'Helvetica';font-size:121.51px;fill:#000000">Ratio (95% CI)</text>
	<text x="5631.32" y="885.80" style="font-family:'Helvetica';font-size:121.51px;fill:#000000">Hazard</text>
	<text x="5631.32" y="1648.82" style="font-family:'Helvetica';font-size:121.51px;fill:#000000">1.00 (1.00, 1.00)</text>
	<text x="5631.32" y="1839.71" style="font-family:'Helvetica';font-size:121.51px;fill:#000000">1.08 (0.90, 1.29)</text>
	<text x="5631.32" y="2030.33" style="font-family:'Helvetica';font-size:121.51px;fill:#000000">0.86 (0.79, 0.94)</text>
	<text x="5631.32" y="2221.22" style="font-family:'Helvetica';font-size:121.51px;fill:#000000">1.25 (1.11, 1.40)</text>
	<text x="5631.32" y="2411.84" style="font-family:'Helvetica';font-size:121.51px;fill:#000000">1.31 (1.13, 1.51)</text>
	<text x="5631.32" y="2602.73" style="font-family:'Helvetica';font-size:121.51px;fill:#000000">1.82 (1.36, 2.42)</text>
	<text x="5631.32" y="2793.35" style="font-family:'Helvetica';font-size:121.51px;fill:#000000">1.32 (1.12, 1.55)</text>
	<text x="5631.32" y="2984.24" style="font-family:'Helvetica';font-size:121.51px;fill:#000000">1.81 (1.48, 2.22)</text>
	<text x="5631.32" y="3174.86" style="font-family:'Helvetica';font-size:121.51px;fill:#000000">0.99 (0.68, 1.44)</text>
	<text x="5631.32" y="3365.75" style="font-family:'Helvetica';font-size:121.51px;fill:#000000">1.36 (1.08, 1.71)</text>
	<text x="5631.32" y="3556.37" style="font-family:'Helvetica';font-size:121.51px;fill:#000000">1.44 (1.27, 1.62)</text>
	<text x="5631.32" y="3747.26" style="font-family:'Helvetica';font-size:121.51px;fill:#000000">1.00 (1.00, 1.00)</text>
	<text x="5631.32" y="3937.88" style="font-family:'Helvetica';font-size:121.51px;fill:#000000">1.11 (0.93, 1.33)</text>
	<text x="5631.32" y="4128.77" style="font-family:'Helvetica';font-size:121.51px;fill:#000000">0.91 (0.83, 1.00)</text>
	<text x="5631.32" y="4319.39" style="font-family:'Helvetica';font-size:121.51px;fill:#000000">1.28 (1.14, 1.44)</text>
	<text x="5631.32" y="4510.28" style="font-family:'Helvetica';font-size:121.51px;fill:#000000">1.12 (0.97, 1.31)</text>
	<text x="5631.32" y="4700.90" style="font-family:'Helvetica';font-size:121.51px;fill:#000000">1.48 (1.11, 1.98)</text>
	<text x="5631.32" y="4891.79" style="font-family:'Helvetica';font-size:121.51px;fill:#000000">1.11 (0.94, 1.31)</text>
	<text x="5631.32" y="5082.41" style="font-family:'Helvetica';font-size:121.51px;fill:#000000">1.74 (1.40, 2.15)</text>
	<text x="5631.32" y="5273.30" style="font-family:'Helvetica';font-size:121.51px;fill:#000000">1.22 (0.83, 1.80)</text>
	<text x="5631.32" y="5463.92" style="font-family:'Helvetica';font-size:121.51px;fill:#000000">1.29 (1.01, 1.65)</text>
	<text x="5631.32" y="5654.81" style="font-family:'Helvetica';font-size:121.51px;fill:#000000">1.44 (1.27, 1.64)</text>
	<text x="5631.32" y="5845.70" style="font-family:'Helvetica';font-size:121.51px;fill:#000000">1.00 (1.00, 1.00)</text>
	<text x="5631.32" y="6036.32" style="font-family:'Helvetica';font-size:121.51px;fill:#000000">1.11 (0.93, 1.34)</text>
	<text x="5631.32" y="6227.21" style="font-family:'Helvetica';font-size:121.51px;fill:#000000">0.86 (0.78, 0.95)</text>
	<text x="5631.32" y="6417.83" style="font-family:'Helvetica';font-size:121.51px;fill:#000000">1.29 (1.14, 1.45)</text>
	<text x="5631.32" y="6608.72" style="font-family:'Helvetica';font-size:121.51px;fill:#000000">1.13 (0.97, 1.31)</text>
	<text x="5631.32" y="6799.34" style="font-family:'Helvetica';font-size:121.51px;fill:#000000">1.49 (1.12, 1.99)</text>
	<text x="5631.32" y="6990.23" style="font-family:'Helvetica';font-size:121.51px;fill:#000000">1.12 (0.94, 1.32)</text>
	<text x="5631.32" y="7180.85" style="font-family:'Helvetica';font-size:121.51px;fill:#000000">1.76 (1.42, 2.18)</text>
	<text x="5631.32" y="7371.74" style="font-family:'Helvetica';font-size:121.51px;fill:#000000">1.23 (0.83, 1.80)</text>
	<text x="5631.32" y="7562.36" style="font-family:'Helvetica';font-size:121.51px;fill:#000000">1.30 (1.02, 1.66)</text>
	<text x="5631.32" y="7753.25" style="font-family:'Helvetica';font-size:121.51px;fill:#000000">1.45 (1.28, 1.65)</text>
	<text x="5631.32" y="1076.42" style="font-family:'Helvetica';font-size:121.51px;fill:#000000">Ratio (95% CI)</text>
	<text x="5631.32" y="885.80" style="font-family:'Helvetica';font-size:121.51px;fill:#000000">Hazard</text>
	<polygon points="4283.03,1606.50 4326.84,1562.69 4370.65,1606.50 4326.84,1650.31" style="fill:#000000"/>
	<polygon points="4299.03,1606.50 4326.84,1578.69 4354.65,1606.50 4326.84,1634.31" style="fill:none;stroke:#000000;stroke-width:22.63"/>
	<polygon points="4348.92,1797.12 4392.73,1753.31 4436.54,1797.12 4392.73,1840.93" style="fill:#000000"/>
	<polygon points="4364.91,1797.12 4392.73,1769.31 4420.54,1797.12 4392.73,1824.93" style="fill:none;stroke:#000000;stroke-width:22.63"/>
	<polygon points="4152.88,1988.01 4196.69,1944.20 4240.50,1988.01 4196.69,2031.82" style="fill:#000000"/>
	<polygon points="4168.88,1988.01 4196.69,1960.20 4224.50,1988.01 4196.69,2015.82" style="fill:none;stroke:#000000;stroke-width:22.63"/>
	<polygon points="4475.29,2178.63 4519.10,2134.82 4562.91,2178.63 4519.10,2222.44" style="fill:#000000"/>
	<polygon points="4491.29,2178.63 4519.10,2150.82 4546.91,2178.63 4519.10,2206.44" style="fill:none;stroke:#000000;stroke-width:22.63"/>
	<polygon points="4513.90,2369.52 4557.71,2325.71 4601.52,2369.52 4557.71,2413.33" style="fill:#000000"/>
	<polygon points="4529.90,2369.52 4557.71,2341.71 4585.52,2369.52 4557.71,2397.33" style="fill:none;stroke:#000000;stroke-width:22.63"/>
	<polygon points="4796.88,2560.14 4840.69,2516.33 4884.51,2560.14 4840.69,2603.95" style="fill:#000000"/>
	<polygon points="4812.88,2560.14 4840.69,2532.33 4868.51,2560.14 4840.69,2587.95" style="fill:none;stroke:#000000;stroke-width:22.63"/>
	<polygon points="4520.65,2751.03 4564.46,2707.22 4608.27,2751.03 4564.46,2794.84" style="fill:#000000"/>
	<polygon points="4536.65,2751.03 4564.46,2723.22 4592.27,2751.03 4564.46,2778.84" style="fill:none;stroke:#000000;stroke-width:22.63"/>
	<polygon points="4796.07,2941.65 4839.88,2897.84 4883.70,2941.65 4839.88,2985.46" style="fill:#000000"/>
	<polygon points="4812.07,2941.65 4839.88,2913.84 4867.70,2941.65 4839.88,2969.46" style="fill:none;stroke:#000000;stroke-width:22.63"/>
	<polygon points="4277.09,3132.54 4320.90,3088.73 4364.71,3132.54 4320.90,3176.35" style="fill:#000000"/>
	<polygon points="4293.09,3132.54 4320.90,3104.73 4348.71,3132.54 4320.90,3160.35" style="fill:none;stroke:#000000;stroke-width:22.63"/>
	<polygon points="4548.73,3323.16 4592.54,3279.35 4636.35,3323.16 4592.54,3366.97" style="fill:#000000"/>
	<polygon points="4564.73,3323.16 4592.54,3295.35 4620.36,3323.16 4592.54,3350.97" style="fill:none;stroke:#000000;stroke-width:22.63"/>
	<polygon points="4595.45,3514.05 4639.26,3470.24 4683.07,3514.05 4639.26,3557.86" style="fill:#000000"/>
	<polygon points="4611.45,3514.05 4639.26,3486.24 4667.07,3514.05 4639.26,3541.86" style="fill:none;stroke:#000000;stroke-width:22.63"/>
	<polygon points="4283.03,3704.67 4326.84,3660.86 4370.65,3704.67 4326.84,3748.48" style="fill:#000000"/>
	<polygon points="4299.03,3704.67 4326.84,3676.86 4354.65,3704.67 4326.84,3732.48" style="fill:none;stroke:#000000;stroke-width:22.63"/>
	<polygon points="4375.38,3895.56 4419.19,3851.75 4463.00,3895.56 4419.19,3939.37" style="fill:#000000"/>
	<polygon points="4391.38,3895.56 4419.19,3867.75 4447.00,3895.56 4419.19,3923.37" style="fill:none;stroke:#000000;stroke-width:22.63"/>
	<polygon points="4202.29,4086.18 4246.10,4042.37 4289.92,4086.18 4246.10,4129.99" style="fill:#000000"/>
	<polygon points="4218.29,4086.18 4246.10,4058.37 4273.92,4086.18 4246.10,4113.99" style="fill:none;stroke:#000000;stroke-width:22.63"/>
	<polygon points="4495.81,4277.07 4539.62,4233.26 4583.43,4277.07 4539.62,4320.88" style="fill:#000000"/>
	<polygon points="4511.81,4277.07 4539.62,4249.26 4567.43,4277.07 4539.62,4304.88" style="fill:none;stroke:#000000;stroke-width:22.63"/>
	<polygon points="4382.67,4467.69 4426.48,4423.88 4470.29,4467.69 4426.48,4511.50" style="fill:#000000"/>
	<polygon points="4398.67,4467.69 4426.48,4439.88 4454.29,4467.69 4426.48,4495.50" style="fill:none;stroke:#000000;stroke-width:22.63"/>
	<polygon points="4621.37,4658.58 4665.18,4614.77 4708.99,4658.58 4665.18,4702.39" style="fill:#000000"/>
	<polygon points="4637.37,4658.58 4665.18,4630.77 4692.99,4658.58 4665.18,4686.39" style="fill:none;stroke:#000000;stroke-width:22.63"/>
	<polygon points="4373.22,4849.20 4417.03,4805.39 4460.84,4849.20 4417.03,4893.01" style="fill:#000000"/>
	<polygon points="4389.22,4849.20 4417.03,4821.39 4444.84,4849.20 4417.03,4877.01" style="fill:none;stroke:#000000;stroke-width:22.63"/>
	<polygon points="4758.81,5040.09 4802.62,4996.28 4846.43,5040.09 4802.62,5083.90" style="fill:#000000"/>
	<polygon points="4774.81,5040.09 4802.62,5012.28 4830.43,5040.09 4802.62,5067.90" style="fill:none;stroke:#000000;stroke-width:22.63"/>
	<polygon points="4455.84,5230.71 4499.66,5186.90 4543.47,5230.71 4499.66,5274.52" style="fill:#000000"/>
	<polygon points="4471.84,5230.71 4499.66,5202.90 4527.47,5230.71 4499.66,5258.52" style="fill:none;stroke:#000000;stroke-width:22.63"/>
	<polygon points="4500.94,5421.60 4544.75,5377.79 4588.56,5421.60 4544.75,5465.41" style="fill:#000000"/>
	<polygon points="4516.94,5421.60 4544.75,5393.79 4572.56,5421.60 4544.75,5449.41" style="fill:none;stroke:#000000;stroke-width:22.63"/>
	<polygon points="4597.88,5612.22 4641.69,5568.41 4685.50,5612.22 4641.69,5656.03" style="fill:#000000"/>
	<polygon points="4613.88,5612.22 4641.69,5584.41 4669.50,5612.22 4641.69,5640.03" style="fill:none;stroke:#000000;stroke-width:22.63"/>
	<polygon points="4283.03,5803.11 4326.84,5759.30 4370.65,5803.11 4326.84,5846.92" style="fill:#000000"/>
	<polygon points="4299.03,5803.11 4326.84,5775.30 4354.65,5803.11 4326.84,5830.92" style="fill:none;stroke:#000000;stroke-width:22.63"/>
	<polygon points="4376.73,5994.00 4420.54,5950.19 4464.35,5994.00 4420.54,6037.81" style="fill:#000000"/>
	<polygon points="4392.73,5994.00 4420.54,5966.19 4448.35,5994.00 4420.54,6021.81" style="fill:none;stroke:#000000;stroke-width:22.63"/>
	<polygon points="4156.66,6184.62 4200.47,6140.81 4244.28,6184.62 4200.47,6228.43" style="fill:#000000"/>
	<polygon points="4172.66,6184.62 4200.47,6156.81 4228.28,6184.62 4200.47,6212.43" style="fill:none;stroke:#000000;stroke-width:22.63"/>
	<polygon points="4500.67,6375.51 4544.48,6331.70 4588.29,6375.51 4544.48,6419.32" style="fill:#000000"/>
	<polygon points="4516.67,6375.51 4544.48,6347.70 4572.29,6375.51 4544.48,6403.32" style="fill:none;stroke:#000000;stroke-width:22.63"/>
	<polygon points="4385.64,6566.13 4429.45,6522.32 4473.26,6566.13 4429.45,6609.94" style="fill:#000000"/>
	<polygon points="4401.64,6566.13 4429.45,6538.32 4457.26,6566.13 4429.45,6593.94" style="fill:none;stroke:#000000;stroke-width:22.63"/>
	<polygon points="4627.04,6757.02 4670.85,6713.21 4714.66,6757.02 4670.85,6800.83" style="fill:#000000"/>
	<polygon points="4643.04,6757.02 4670.85,6729.21 4698.66,6757.02 4670.85,6784.83" style="fill:none;stroke:#000000;stroke-width:22.63"/>
	<polygon points="4377.81,6947.64 4421.62,6903.83 4465.43,6947.64 4421.62,6991.45" style="fill:#000000"/>
	<polygon points="4393.81,6947.64 4421.62,6919.83 4449.43,6947.64 4421.62,6975.45" style="fill:none;stroke:#000000;stroke-width:22.63"/>
	<polygon points="4771.23,7138.53 4815.04,7094.72 4858.85,7138.53 4815.04,7182.34" style="fill:#000000"/>
	<polygon points="4787.23,7138.53 4815.04,7110.72 4842.85,7138.53 4815.04,7166.34" style="fill:none;stroke:#000000;stroke-width:22.63"/>
	<polygon points="4458.00,7329.15 4501.82,7285.34 4545.63,7329.15 4501.82,7372.96" style="fill:#000000"/>
	<polygon points="4474.00,7329.15 4501.82,7301.34 4529.63,7329.15 4501.82,7356.96" style="fill:none;stroke:#000000;stroke-width:22.63"/>
	<polygon points="4509.85,7520.04 4553.66,7476.23 4597.47,7520.04 4553.66,7563.85" style="fill:#000000"/>
	<polygon points="4525.85,7520.04 4553.66,7492.23 4581.47,7520.04 4553.66,7547.85" style="fill:none;stroke:#000000;stroke-width:22.63"/>
	<polygon points="4605.71,7710.66 4649.52,7666.85 4693.33,7710.66 4649.52,7754.47" style="fill:#000000"/>
	<polygon points="4621.71,7710.66 4649.52,7682.85 4677.33,7710.66 4649.52,7738.47" style="fill:none;stroke:#000000;stroke-width:22.63"/>
	<line x1="397.74" y1="8282.79" x2="7222.83" y2="8282.79" style="stroke:#000000;stroke-width:15.08"/>
	<text x="3729.82" y="8420.09" style="font-family:'Helvetica';font-size:121.51px;fill:#000000" text-anchor="middle"> </text>
	<text x="4924.13" y="8420.09" style="font-family:'Helvetica';font-size:121.51px;fill:#000000" text-anchor="middle"> </text>
	<line x1="4327.11" y1="8282.79" x2="4327.11" y2="8387.55" style="stroke:#000000;stroke-width:15.08"/>
	<text x="4327.11" y="8524.85" style="font-family:'Helvetica';font-size:121.51px;fill:#000000" text-anchor="middle">1</text>
	<line x1="3132.53" y1="8282.79" x2="3132.53" y2="8387.55" style="stroke:#000000;stroke-width:15.08"/>
	<text x="3132.53" y="8524.85" style="font-family:'Helvetica';font-size:121.51px;fill:#000000" text-anchor="middle">.25</text>
	<line x1="3729.82" y1="8282.79" x2="3729.82" y2="8387.55" style="stroke:#000000;stroke-width:15.08"/>
	<text x="3729.82" y="8524.85" style="font-family:'Helvetica';font-size:121.51px;fill:#000000" text-anchor="middle">.5</text>
	<line x1="4327.11" y1="8282.79" x2="4327.11" y2="8387.55" style="stroke:#000000;stroke-width:15.08"/>
	<text x="4327.11" y="8524.85" style="font-family:'Helvetica';font-size:121.51px;fill:#000000" text-anchor="middle">1</text>
	<line x1="4924.13" y1="8282.79" x2="4924.13" y2="8387.55" style="stroke:#000000;stroke-width:15.08"/>
	<text x="4924.13" y="8524.85" style="font-family:'Helvetica';font-size:121.51px;fill:#000000" text-anchor="middle">2</text>
	<line x1="5521.42" y1="8282.79" x2="5521.42" y2="8387.55" style="stroke:#000000;stroke-width:15.08"/>
	<text x="5521.42" y="8524.85" style="font-family:'Helvetica';font-size:121.51px;fill:#000000" text-anchor="middle">4</text>
	<line x1="4327.11" y1="8282.79" x2="4327.11" y2="8387.55" style="stroke:#000000;stroke-width:15.08"/>
	<text x="3810.29" y="544.24" style="font-family:'Helvetica';font-size:209.54px;fill:#000000" text-anchor="middle">complete case analysis</text>
	<text x="3810.29" y="228.56" style="font-family:'Helvetica';font-size:261.92px;fill:#000000" text-anchor="middle">onscoviddeath</text>
</svg>
