<?xml version="1.0" encoding="UTF-8" standalone="no"?>
<!-- This is a Stata 16.1 generated SVG file (http://www.stata.com) -->

<svg version="1.1" width="11.28in" height="10.66in" viewBox="0 0 8120 7678" xmlns="http://www.w3.org/2000/svg" xmlns:xlink="http://www.w3.org/1999/xlink">
	<desc>Stata Graph - Graph</desc>
	<rect x="0" y="0" width="8120" height="7678" style="fill:#F0F0F0;stroke:none"/>
	<rect x="0.00" y="0.00" width="8119.75" height="7678.00" style="fill:#FFFFFF"/>
	<rect x="7.68" y="7.68" width="8104.39" height="7662.64" style="fill:none;stroke:#FFFFFF;stroke-width:15.36"/>
	<rect x="426.55" y="664.04" width="7346.82" height="6528.55" style="fill:#FFFFFF"/>
	<rect x="434.23" y="671.72" width="7331.47" height="6513.19" style="fill:none;stroke:#FFFFFF;stroke-width:15.36"/>
	<line x1="426.55" y1="1628.52" x2="7773.38" y2="1628.52" style="stroke:#C0C0C0;stroke-width:15.36"/>
	<text x="538.46" y="6833.47" style="font-family:'Helvetica';font-size:245.38px;fill:#000000">NOTE: Weights are from random effects analysis</text>
	<line x1="4244.98" y1="7192.59" x2="4244.98" y2="1628.52" style="stroke:#000000;stroke-width:15.36"/>
	<text x="538.46" y="6685.03" style="font-family:'Helvetica';font-size:245.38px;fill:#000000">.</text>
	<line x1="4244.98" y1="2147.93" x2="4244.98" y2="2147.93" style="stroke:#000000;stroke-width:23.03"/>
	<line x1="4927.82" y1="2444.56" x2="4976.29" y2="2444.56" style="stroke:#000000;stroke-width:23.03"/>
	<line x1="4778.87" y1="2741.44" x2="4860.84" y2="2741.44" style="stroke:#000000;stroke-width:23.03"/>
	<line x1="4551.26" y1="3038.06" x2="4682.70" y2="3038.06" style="stroke:#000000;stroke-width:23.03"/>
	<line x1="4343.69" y1="3334.94" x2="4452.55" y2="3334.94" style="stroke:#000000;stroke-width:23.03"/>
	<line x1="4244.98" y1="3631.57" x2="4244.98" y2="3631.57" style="stroke:#000000;stroke-width:23.03"/>
	<line x1="4793.59" y1="3928.44" x2="4851.19" y2="3928.44" style="stroke:#000000;stroke-width:23.03"/>
	<line x1="4704.52" y1="4225.07" x2="4797.65" y2="4225.07" style="stroke:#000000;stroke-width:23.03"/>
	<line x1="4543.39" y1="4521.95" x2="4697.17" y2="4521.95" style="stroke:#000000;stroke-width:23.03"/>
	<line x1="4511.68" y1="4818.57" x2="4639.82" y2="4818.57" style="stroke:#000000;stroke-width:23.03"/>
	<line x1="4244.98" y1="5115.45" x2="4244.98" y2="5115.45" style="stroke:#000000;stroke-width:23.03"/>
	<line x1="4792.58" y1="5412.08" x2="4850.18" y2="5412.08" style="stroke:#000000;stroke-width:23.03"/>
	<line x1="4704.27" y1="5708.96" x2="4797.40" y2="5708.96" style="stroke:#000000;stroke-width:23.03"/>
	<line x1="4542.38" y1="6005.58" x2="4696.15" y2="6005.58" style="stroke:#000000;stroke-width:23.03"/>
	<line x1="4506.09" y1="6302.46" x2="4633.98" y2="6302.46" style="stroke:#000000;stroke-width:23.03"/>
	<text x="538.46" y="1937.00" style="font-family:'Helvetica';font-size:245.38px;fill:#000000">positivetest</text>
	<text x="538.46" y="2233.87" style="font-family:'Helvetica';font-size:245.38px;fill:#000000">model1</text>
	<text x="538.46" y="3717.51" style="font-family:'Helvetica';font-size:245.38px;fill:#000000">model2</text>
	<text x="538.46" y="5201.40" style="font-family:'Helvetica';font-size:245.38px;fill:#000000">model3</text>
	<text x="538.46" y="1343.49" style="font-family:'Helvetica';font-size:245.38px;fill:#000000">model</text>
	<text x="1565.38" y="2233.87" style="font-family:'Helvetica';font-size:245.38px;fill:#000000">White</text>
	<text x="1565.38" y="2530.50" style="font-family:'Helvetica';font-size:245.38px;fill:#000000">South Asian</text>
	<text x="1565.38" y="2827.38" style="font-family:'Helvetica';font-size:245.38px;fill:#000000">Black</text>
	<text x="1565.38" y="3124.00" style="font-family:'Helvetica';font-size:245.38px;fill:#000000">Mixed</text>
	<text x="1565.38" y="3420.88" style="font-family:'Helvetica';font-size:245.38px;fill:#000000">Other</text>
	<text x="1565.38" y="3717.51" style="font-family:'Helvetica';font-size:245.38px;fill:#000000">White</text>
	<text x="1565.38" y="4014.39" style="font-family:'Helvetica';font-size:245.38px;fill:#000000">South Asian</text>
	<text x="1565.38" y="4311.01" style="font-family:'Helvetica';font-size:245.38px;fill:#000000">Black</text>
	<text x="1565.38" y="4607.89" style="font-family:'Helvetica';font-size:245.38px;fill:#000000">Mixed</text>
	<text x="1565.38" y="4904.52" style="font-family:'Helvetica';font-size:245.38px;fill:#000000">Other</text>
	<text x="1565.38" y="5201.40" style="font-family:'Helvetica';font-size:245.38px;fill:#000000">White</text>
	<text x="1565.38" y="5498.02" style="font-family:'Helvetica';font-size:245.38px;fill:#000000">South Asian</text>
	<text x="1565.38" y="5794.90" style="font-family:'Helvetica';font-size:245.38px;fill:#000000">Black</text>
	<text x="1565.38" y="6091.52" style="font-family:'Helvetica';font-size:245.38px;fill:#000000">Mixed</text>
	<text x="1565.38" y="6388.40" style="font-family:'Helvetica';font-size:245.38px;fill:#000000">Other</text>
	<text x="1565.38" y="1343.49" style="font-family:'Helvetica';font-size:245.38px;fill:#000000">eth5</text>
	<text x="5642.39" y="2233.87" style="font-family:'Helvetica';font-size:245.38px;fill:#000000">1.00 (1.00, 1.00)</text>
	<text x="5642.39" y="2530.50" style="font-family:'Helvetica';font-size:245.38px;fill:#000000">2.14 (2.09, 2.20)</text>
	<text x="5642.39" y="2827.38" style="font-family:'Helvetica';font-size:245.38px;fill:#000000">1.86 (1.78, 1.94)</text>
	<text x="5642.39" y="3124.00" style="font-family:'Helvetica';font-size:245.38px;fill:#000000">1.49 (1.39, 1.60)</text>
	<text x="5642.39" y="3420.88" style="font-family:'Helvetica';font-size:245.38px;fill:#000000">1.18 (1.11, 1.25)</text>
	<text x="5642.39" y="3717.51" style="font-family:'Helvetica';font-size:245.38px;fill:#000000">1.00 (1.00, 1.00)</text>
	<text x="5642.39" y="4014.39" style="font-family:'Helvetica';font-size:245.38px;fill:#000000">1.86 (1.81, 1.92)</text>
	<text x="5642.39" y="4311.01" style="font-family:'Helvetica';font-size:245.38px;fill:#000000">1.73 (1.64, 1.81)</text>
	<text x="5642.39" y="4607.89" style="font-family:'Helvetica';font-size:245.38px;fill:#000000">1.50 (1.38, 1.63)</text>
	<text x="5642.39" y="4904.52" style="font-family:'Helvetica';font-size:245.38px;fill:#000000">1.43 (1.33, 1.53)</text>
	<text x="5642.39" y="5201.40" style="font-family:'Helvetica';font-size:245.38px;fill:#000000">1.00 (1.00, 1.00)</text>
	<text x="5642.39" y="5498.02" style="font-family:'Helvetica';font-size:245.38px;fill:#000000">1.86 (1.80, 1.92)</text>
	<text x="5642.39" y="5794.90" style="font-family:'Helvetica';font-size:245.38px;fill:#000000">1.73 (1.64, 1.81)</text>
	<text x="5642.39" y="6091.52" style="font-family:'Helvetica';font-size:245.38px;fill:#000000">1.50 (1.38, 1.63)</text>
	<text x="5642.39" y="6388.40" style="font-family:'Helvetica';font-size:245.38px;fill:#000000">1.42 (1.33, 1.52)</text>
	<text x="5642.39" y="1343.49" style="font-family:'Helvetica';font-size:245.38px;fill:#000000">Ratio (95% CI)</text>
	<text x="5642.39" y="1046.87" style="font-family:'Helvetica';font-size:245.38px;fill:#000000">Hazard</text>
	<text x="5642.39" y="2233.87" style="font-family:'Helvetica';font-size:245.38px;fill:#000000">1.00 (1.00, 1.00)</text>
	<text x="5642.39" y="2530.50" style="font-family:'Helvetica';font-size:245.38px;fill:#000000">2.14 (2.09, 2.20)</text>
	<text x="5642.39" y="2827.38" style="font-family:'Helvetica';font-size:245.38px;fill:#000000">1.86 (1.78, 1.94)</text>
	<text x="5642.39" y="3124.00" style="font-family:'Helvetica';font-size:245.38px;fill:#000000">1.49 (1.39, 1.60)</text>
	<text x="5642.39" y="3420.88" style="font-family:'Helvetica';font-size:245.38px;fill:#000000">1.18 (1.11, 1.25)</text>
	<text x="5642.39" y="3717.51" style="font-family:'Helvetica';font-size:245.38px;fill:#000000">1.00 (1.00, 1.00)</text>
	<text x="5642.39" y="4014.39" style="font-family:'Helvetica';font-size:245.38px;fill:#000000">1.86 (1.81, 1.92)</text>
	<text x="5642.39" y="4311.01" style="font-family:'Helvetica';font-size:245.38px;fill:#000000">1.73 (1.64, 1.81)</text>
	<text x="5642.39" y="4607.89" style="font-family:'Helvetica';font-size:245.38px;fill:#000000">1.50 (1.38, 1.63)</text>
	<text x="5642.39" y="4904.52" style="font-family:'Helvetica';font-size:245.38px;fill:#000000">1.43 (1.33, 1.53)</text>
	<text x="5642.39" y="5201.40" style="font-family:'Helvetica';font-size:245.38px;fill:#000000">1.00 (1.00, 1.00)</text>
	<text x="5642.39" y="5498.02" style="font-family:'Helvetica';font-size:245.38px;fill:#000000">1.86 (1.80, 1.92)</text>
	<text x="5642.39" y="5794.90" style="font-family:'Helvetica';font-size:245.38px;fill:#000000">1.73 (1.64, 1.81)</text>
	<text x="5642.39" y="6091.52" style="font-family:'Helvetica';font-size:245.38px;fill:#000000">1.50 (1.38, 1.63)</text>
	<text x="5642.39" y="6388.40" style="font-family:'Helvetica';font-size:245.38px;fill:#000000">1.42 (1.33, 1.52)</text>
	<text x="5642.39" y="1343.49" style="font-family:'Helvetica';font-size:245.38px;fill:#000000">Ratio (95% CI)</text>
	<text x="5642.39" y="1046.87" style="font-family:'Helvetica';font-size:245.38px;fill:#000000">Hazard</text>
	<polygon points="4200.02,2147.93 4244.73,2103.22 4289.44,2147.93 4244.73,2192.64" style="fill:#000000"/>
	<polygon points="4216.31,2147.93 4244.73,2119.51 4273.15,2147.93 4244.73,2176.35" style="fill:none;stroke:#000000;stroke-width:23.03"/>
	<polygon points="4907.22,2444.81 4951.93,2400.10 4996.64,2444.81 4951.93,2489.52" style="fill:#000000"/>
	<polygon points="4923.51,2444.81 4951.93,2416.39 4980.35,2444.81 4951.93,2473.23" style="fill:none;stroke:#000000;stroke-width:23.03"/>
	<polygon points="4775.02,2741.44 4819.73,2696.73 4864.44,2741.44 4819.73,2786.14" style="fill:#000000"/>
	<polygon points="4791.31,2741.44 4819.73,2713.02 4848.15,2741.44 4819.73,2769.86" style="fill:none;stroke:#000000;stroke-width:23.03"/>
	<polygon points="4572.27,3038.31 4616.98,2993.61 4661.69,3038.31 4616.98,3083.02" style="fill:#000000"/>
	<polygon points="4588.56,3038.31 4616.98,3009.89 4645.40,3038.31 4616.98,3066.73" style="fill:none;stroke:#000000;stroke-width:23.03"/>
	<polygon points="4353.29,3334.94 4397.99,3290.23 4442.70,3334.94 4397.99,3379.65" style="fill:#000000"/>
	<polygon points="4369.57,3334.94 4397.99,3306.52 4426.41,3334.94 4397.99,3363.36" style="fill:none;stroke:#000000;stroke-width:23.03"/>
	<polygon points="4200.02,3631.82 4244.73,3587.11 4289.44,3631.82 4244.73,3676.53" style="fill:#000000"/>
	<polygon points="4216.31,3631.82 4244.73,3603.40 4273.15,3631.82 4244.73,3660.24" style="fill:none;stroke:#000000;stroke-width:23.03"/>
	<polygon points="4777.56,3928.44 4822.27,3883.74 4866.97,3928.44 4822.27,3973.15" style="fill:#000000"/>
	<polygon points="4793.85,3928.44 4822.27,3900.02 4850.69,3928.44 4822.27,3956.86" style="fill:none;stroke:#000000;stroke-width:23.03"/>
	<polygon points="4706.25,4225.32 4750.96,4180.62 4795.67,4225.32 4750.96,4270.03" style="fill:#000000"/>
	<polygon points="4722.54,4225.32 4750.96,4196.90 4779.38,4225.32 4750.96,4253.74" style="fill:none;stroke:#000000;stroke-width:23.03"/>
	<polygon points="4575.32,4521.95 4620.03,4477.24 4664.73,4521.95 4620.03,4566.66" style="fill:#000000"/>
	<polygon points="4591.61,4521.95 4620.03,4493.53 4648.45,4521.95 4620.03,4550.37" style="fill:none;stroke:#000000;stroke-width:23.03"/>
	<polygon points="4530.91,4818.83 4575.62,4774.12 4620.33,4818.83 4575.62,4863.54" style="fill:#000000"/>
	<polygon points="4547.20,4818.83 4575.62,4790.41 4604.04,4818.83 4575.62,4847.25" style="fill:none;stroke:#000000;stroke-width:23.03"/>
	<polygon points="4200.02,5115.45 4244.73,5070.74 4289.44,5115.45 4244.73,5160.16" style="fill:#000000"/>
	<polygon points="4216.31,5115.45 4244.73,5087.03 4273.15,5115.45 4244.73,5143.87" style="fill:none;stroke:#000000;stroke-width:23.03"/>
	<polygon points="4776.54,5412.33 4821.25,5367.62 4865.96,5412.33 4821.25,5457.04" style="fill:#000000"/>
	<polygon points="4792.83,5412.33 4821.25,5383.91 4849.67,5412.33 4821.25,5440.75" style="fill:none;stroke:#000000;stroke-width:23.03"/>
	<polygon points="4706.00,5708.96 4750.71,5664.25 4795.42,5708.96 4750.71,5753.66" style="fill:#000000"/>
	<polygon points="4722.29,5708.96 4750.71,5680.54 4779.13,5708.96 4750.71,5737.38" style="fill:none;stroke:#000000;stroke-width:23.03"/>
	<polygon points="4574.30,6005.84 4619.01,5961.13 4663.72,6005.84 4619.01,6050.54" style="fill:#000000"/>
	<polygon points="4590.59,6005.84 4619.01,5977.42 4647.43,6005.84 4619.01,6034.26" style="fill:none;stroke:#000000;stroke-width:23.03"/>
	<polygon points="4525.08,6302.46 4569.78,6257.75 4614.49,6302.46 4569.78,6347.17" style="fill:#000000"/>
	<polygon points="4541.36,6302.46 4569.78,6274.04 4598.20,6302.46 4569.78,6330.88" style="fill:none;stroke:#000000;stroke-width:23.03"/>
	<line x1="426.55" y1="7192.59" x2="7773.38" y2="7192.59" style="stroke:#000000;stroke-width:15.36"/>
	<text x="3601.98" y="7417.51" style="font-family:'Helvetica';font-size:245.38px;fill:#000000" text-anchor="middle"> </text>
	<text x="4887.73" y="7417.51" style="font-family:'Helvetica';font-size:245.38px;fill:#000000" text-anchor="middle"> </text>
	<line x1="4244.98" y1="7192.59" x2="4244.98" y2="7299.16" style="stroke:#000000;stroke-width:15.36"/>
	<text x="4244.98" y="7524.33" style="font-family:'Helvetica';font-size:245.38px;fill:#000000" text-anchor="middle">1</text>
	<line x1="2959.23" y1="7192.59" x2="2959.23" y2="7299.16" style="stroke:#000000;stroke-width:15.36"/>
	<text x="2959.23" y="7524.33" style="font-family:'Helvetica';font-size:245.38px;fill:#000000" text-anchor="middle">.25</text>
	<line x1="3601.98" y1="7192.59" x2="3601.98" y2="7299.16" style="stroke:#000000;stroke-width:15.36"/>
	<text x="3601.98" y="7524.33" style="font-family:'Helvetica';font-size:245.38px;fill:#000000" text-anchor="middle">.5</text>
	<line x1="4244.98" y1="7192.59" x2="4244.98" y2="7299.16" style="stroke:#000000;stroke-width:15.36"/>
	<text x="4244.98" y="7524.33" style="font-family:'Helvetica';font-size:245.38px;fill:#000000" text-anchor="middle">1</text>
	<line x1="4887.73" y1="7192.59" x2="4887.73" y2="7299.16" style="stroke:#000000;stroke-width:15.36"/>
	<text x="4887.73" y="7524.33" style="font-family:'Helvetica';font-size:245.38px;fill:#000000" text-anchor="middle">2</text>
	<line x1="5530.48" y1="7192.59" x2="5530.48" y2="7299.16" style="stroke:#000000;stroke-width:15.36"/>
	<text x="5530.48" y="7524.33" style="font-family:'Helvetica';font-size:245.38px;fill:#000000" text-anchor="middle">4</text>
	<line x1="4244.98" y1="7192.59" x2="4244.98" y2="7299.16" style="stroke:#000000;stroke-width:15.36"/>
	<text x="4099.84" y="554.05" style="font-family:'Helvetica';font-size:213.15px;fill:#000000" text-anchor="middle">complete case analysis</text>
	<text x="4099.84" y="232.48" style="font-family:'Helvetica';font-size:266.69px;fill:#000000" text-anchor="middle">positivetest</text>
</svg>
