<?xml version="1.0" encoding="UTF-8" standalone="no"?>
<!-- This is a Stata 16.1 generated SVG file (http://www.stata.com) -->

<svg version="1.1" width="10.47in" height="12.00in" viewBox="0 0 7542 8640" xmlns="http://www.w3.org/2000/svg" xmlns:xlink="http://www.w3.org/1999/xlink">
	<desc>Stata Graph - Graph</desc>
	<rect x="0" y="0" width="7542" height="8640" style="fill:#F0F0F0;stroke:none"/>
	<rect x="0.00" y="0.27" width="7542.00" height="8639.73" style="fill:#FFFFFF"/>
	<rect x="7.54" y="7.81" width="7526.92" height="8624.65" style="fill:none;stroke:#FFFFFF;stroke-width:15.08"/>
	<rect x="397.74" y="652.32" width="6825.09" height="7630.47" style="fill:#FFFFFF"/>
	<rect x="405.29" y="659.86" width="6810.01" height="7615.39" style="fill:none;stroke:#FFFFFF;stroke-width:15.08"/>
	<line x1="397.74" y1="1272.51" x2="7222.83" y2="1272.51" style="stroke:#C0C0C0;stroke-width:15.08"/>
	<text x="507.64" y="8039.45" style="font-family:'Helvetica';font-size:121.51px;fill:#000000">NOTE: Weights are from random effects analysis</text>
	<line x1="4327.11" y1="8282.79" x2="4327.11" y2="1272.51" style="stroke:#000000;stroke-width:15.08"/>
	<text x="507.64" y="7943.87" style="font-family:'Helvetica';font-size:121.51px;fill:#000000">.</text>
	<line x1="4327.11" y1="1606.23" x2="4327.11" y2="1606.23" style="stroke:#000000;stroke-width:22.63"/>
	<line x1="3132.53" y1="1797.12" x2="4291.74" y2="1797.12" style="stroke:#000000;stroke-width:22.63"/>
	<line x1="4279.32" y1="1987.74" x2="4457.53" y2="1987.74" style="stroke:#000000;stroke-width:22.63"/>
	<line x1="4678.68" y1="2178.63" x2="4862.30" y2="2178.63" style="stroke:#000000;stroke-width:22.63"/>
	<line x1="4583.63" y1="2369.25" x2="4821.52" y2="2369.25" style="stroke:#000000;stroke-width:22.63"/>
	<line x1="4520.72" y1="2560.14" x2="4983.81" y2="2560.14" style="stroke:#000000;stroke-width:22.63"/>
	<line x1="4584.17" y1="2750.76" x2="4911.71" y2="2750.76" style="stroke:#000000;stroke-width:22.63"/>
	<line x1="4853.66" y1="2941.65" x2="5069.40" y2="2941.65" style="stroke:#000000;stroke-width:22.63"/>
	<line x1="4453.48" y1="3132.27" x2="4912.79" y2="3132.27" style="stroke:#000000;stroke-width:22.63"/>
	<line x1="4607.39" y1="3323.16" x2="4910.90" y2="3323.16" style="stroke:#000000;stroke-width:22.63"/>
	<line x1="4749.16" y1="3513.78" x2="4916.57" y2="3513.78" style="stroke:#000000;stroke-width:22.63"/>
	<line x1="4327.11" y1="3704.67" x2="4327.11" y2="3704.67" style="stroke:#000000;stroke-width:22.63"/>
	<line x1="3213.54" y1="3895.29" x2="4373.02" y2="3895.29" style="stroke:#000000;stroke-width:22.63"/>
	<line x1="4320.90" y1="4086.18" x2="4518.02" y2="4086.18" style="stroke:#000000;stroke-width:22.63"/>
	<line x1="4616.85" y1="4276.80" x2="4821.52" y2="4276.80" style="stroke:#000000;stroke-width:22.63"/>
	<line x1="4475.89" y1="4467.69" x2="4736.47" y2="4467.69" style="stroke:#000000;stroke-width:22.63"/>
	<line x1="4516.94" y1="4658.31" x2="5002.71" y2="4658.31" style="stroke:#000000;stroke-width:22.63"/>
	<line x1="4549.34" y1="4849.20" x2="4886.06" y2="4849.20" style="stroke:#000000;stroke-width:22.63"/>
	<line x1="4765.90" y1="5039.82" x2="5007.57" y2="5039.82" style="stroke:#000000;stroke-width:22.63"/>
	<line x1="4687.86" y1="5230.71" x2="5189.02" y2="5230.71" style="stroke:#000000;stroke-width:22.63"/>
	<line x1="4566.62" y1="5421.33" x2="4904.15" y2="5421.33" style="stroke:#000000;stroke-width:22.63"/>
	<line x1="4750.24" y1="5612.22" x2="4933.58" y2="5612.22" style="stroke:#000000;stroke-width:22.63"/>
	<line x1="4327.11" y1="5803.11" x2="4327.11" y2="5803.11" style="stroke:#000000;stroke-width:22.63"/>
	<line x1="3213.27" y1="5993.73" x2="4372.75" y2="5993.73" style="stroke:#000000;stroke-width:22.63"/>
	<line x1="4318.74" y1="6184.62" x2="4515.86" y2="6184.62" style="stroke:#000000;stroke-width:22.63"/>
	<line x1="4615.77" y1="6375.24" x2="4820.44" y2="6375.24" style="stroke:#000000;stroke-width:22.63"/>
	<line x1="4474.54" y1="6566.13" x2="4735.39" y2="6566.13" style="stroke:#000000;stroke-width:22.63"/>
	<line x1="4515.86" y1="6756.75" x2="5001.36" y2="6756.75" style="stroke:#000000;stroke-width:22.63"/>
	<line x1="4549.07" y1="6947.64" x2="4885.79" y2="6947.64" style="stroke:#000000;stroke-width:22.63"/>
	<line x1="4764.82" y1="7138.26" x2="5006.49" y2="7138.26" style="stroke:#000000;stroke-width:22.63"/>
	<line x1="4684.89" y1="7329.15" x2="5185.78" y2="7329.15" style="stroke:#000000;stroke-width:22.63"/>
	<line x1="4566.08" y1="7519.77" x2="4903.61" y2="7519.77" style="stroke:#000000;stroke-width:22.63"/>
	<line x1="4749.43" y1="7710.66" x2="4932.77" y2="7710.66" style="stroke:#000000;stroke-width:22.63"/>
	<line x1="3132.53" y1="1797.12" x2="3180.33" y2="1844.64" style="stroke:#000000;stroke-width:22.63"/>
	<line x1="3132.53" y1="1797.12" x2="3180.33" y2="1749.33" style="stroke:#000000;stroke-width:22.63"/>
	<text x="507.64" y="1458.20" style="font-family:'Helvetica';font-size:121.51px;fill:#000000">icu</text>
	<text x="507.64" y="1648.82" style="font-family:'Helvetica';font-size:121.51px;fill:#000000">model1</text>
	<text x="507.64" y="3747.26" style="font-family:'Helvetica';font-size:121.51px;fill:#000000">model2</text>
	<text x="507.64" y="5845.70" style="font-family:'Helvetica';font-size:121.51px;fill:#000000">model3</text>
	<text x="507.64" y="1076.42" style="font-family:'Helvetica';font-size:121.51px;fill:#000000">model</text>
	<text x="1286.66" y="1648.82" style="font-family:'Helvetica';font-size:121.51px;fill:#000000">British or Mixed British</text>
	<text x="1286.66" y="1839.71" style="font-family:'Helvetica';font-size:121.51px;fill:#000000">Irish</text>
	<text x="1286.66" y="2030.33" style="font-family:'Helvetica';font-size:121.51px;fill:#000000">Other White</text>
	<text x="1286.66" y="2221.22" style="font-family:'Helvetica';font-size:121.51px;fill:#000000">Indian</text>
	<text x="1286.66" y="2411.84" style="font-family:'Helvetica';font-size:121.51px;fill:#000000">Pakistani</text>
	<text x="1286.66" y="2602.73" style="font-family:'Helvetica';font-size:121.51px;fill:#000000">Bangladeshi</text>
	<text x="1286.66" y="2793.35" style="font-family:'Helvetica';font-size:121.51px;fill:#000000">Caribbean</text>
	<text x="1286.66" y="2984.24" style="font-family:'Helvetica';font-size:121.51px;fill:#000000">African</text>
	<text x="1286.66" y="3174.86" style="font-family:'Helvetica';font-size:121.51px;fill:#000000">Chinese</text>
	<text x="1286.66" y="3365.75" style="font-family:'Helvetica';font-size:121.51px;fill:#000000">All mixed</text>
	<text x="1286.66" y="3556.37" style="font-family:'Helvetica';font-size:121.51px;fill:#000000">All Other</text>
	<text x="1286.66" y="3747.26" style="font-family:'Helvetica';font-size:121.51px;fill:#000000">British or Mixed British</text>
	<text x="1286.66" y="3937.88" style="font-family:'Helvetica';font-size:121.51px;fill:#000000">Irish</text>
	<text x="1286.66" y="4128.77" style="font-family:'Helvetica';font-size:121.51px;fill:#000000">Other White</text>
	<text x="1286.66" y="4319.39" style="font-family:'Helvetica';font-size:121.51px;fill:#000000">Indian</text>
	<text x="1286.66" y="4510.28" style="font-family:'Helvetica';font-size:121.51px;fill:#000000">Pakistani</text>
	<text x="1286.66" y="4700.90" style="font-family:'Helvetica';font-size:121.51px;fill:#000000">Bangladeshi</text>
	<text x="1286.66" y="4891.79" style="font-family:'Helvetica';font-size:121.51px;fill:#000000">Caribbean</text>
	<text x="1286.66" y="5082.41" style="font-family:'Helvetica';font-size:121.51px;fill:#000000">African</text>
	<text x="1286.66" y="5273.30" style="font-family:'Helvetica';font-size:121.51px;fill:#000000">Chinese</text>
	<text x="1286.66" y="5463.92" style="font-family:'Helvetica';font-size:121.51px;fill:#000000">All mixed</text>
	<text x="1286.66" y="5654.81" style="font-family:'Helvetica';font-size:121.51px;fill:#000000">All Other</text>
	<text x="1286.66" y="5845.70" style="font-family:'Helvetica';font-size:121.51px;fill:#000000">British or Mixed British</text>
	<text x="1286.66" y="6036.32" style="font-family:'Helvetica';font-size:121.51px;fill:#000000">Irish</text>
	<text x="1286.66" y="6227.21" style="font-family:'Helvetica';font-size:121.51px;fill:#000000">Other White</text>
	<text x="1286.66" y="6417.83" style="font-family:'Helvetica';font-size:121.51px;fill:#000000">Indian</text>
	<text x="1286.66" y="6608.72" style="font-family:'Helvetica';font-size:121.51px;fill:#000000">Pakistani</text>
	<text x="1286.66" y="6799.34" style="font-family:'Helvetica';font-size:121.51px;fill:#000000">Bangladeshi</text>
	<text x="1286.66" y="6990.23" style="font-family:'Helvetica';font-size:121.51px;fill:#000000">Caribbean</text>
	<text x="1286.66" y="7180.85" style="font-family:'Helvetica';font-size:121.51px;fill:#000000">African</text>
	<text x="1286.66" y="7371.74" style="font-family:'Helvetica';font-size:121.51px;fill:#000000">Chinese</text>
	<text x="1286.66" y="7562.36" style="font-family:'Helvetica';font-size:121.51px;fill:#000000">All mixed</text>
	<text x="1286.66" y="7753.25" style="font-family:'Helvetica';font-size:121.51px;fill:#000000">All Other</text>
	<text x="1286.66" y="1076.42" style="font-family:'Helvetica';font-size:121.51px;fill:#000000">eth16</text>
	<text x="5631.32" y="1648.82" style="font-family:'Helvetica';font-size:121.51px;fill:#000000">1.00 (1.00, 1.00)</text>
	<text x="5631.32" y="1839.71" style="font-family:'Helvetica';font-size:121.51px;fill:#000000">0.23 (0.06, 0.92)</text>
	<text x="5631.32" y="2030.33" style="font-family:'Helvetica';font-size:121.51px;fill:#000000">1.10 (0.89, 1.37)</text>
	<text x="5631.32" y="2221.22" style="font-family:'Helvetica';font-size:121.51px;fill:#000000">2.89 (2.32, 3.61)</text>
	<text x="5631.32" y="2411.84" style="font-family:'Helvetica';font-size:121.51px;fill:#000000">2.46 (1.85, 3.27)</text>
	<text x="5631.32" y="2602.73" style="font-family:'Helvetica';font-size:121.51px;fill:#000000">2.77 (1.59, 4.82)</text>
	<text x="5631.32" y="2793.35" style="font-family:'Helvetica';font-size:121.51px;fill:#000000">2.74 (1.85, 4.06)</text>
	<text x="5631.32" y="2984.24" style="font-family:'Helvetica';font-size:121.51px;fill:#000000">4.57 (3.53, 5.92)</text>
	<text x="5631.32" y="3174.86" style="font-family:'Helvetica';font-size:121.51px;fill:#000000">2.35 (1.35, 4.07)</text>
	<text x="5631.32" y="3365.75" style="font-family:'Helvetica';font-size:121.51px;fill:#000000">2.82 (1.96, 4.05)</text>
	<text x="5631.32" y="3556.37" style="font-family:'Helvetica';font-size:121.51px;fill:#000000">3.36 (2.75, 4.11)</text>
	<text x="5631.32" y="3747.26" style="font-family:'Helvetica';font-size:121.51px;fill:#000000">1.00 (1.00, 1.00)</text>
	<text x="5631.32" y="3937.88" style="font-family:'Helvetica';font-size:121.51px;fill:#000000">0.28 (0.07, 1.12)</text>
	<text x="5631.32" y="4128.77" style="font-family:'Helvetica';font-size:121.51px;fill:#000000">1.25 (0.99, 1.58)</text>
	<text x="5631.32" y="4319.39" style="font-family:'Helvetica';font-size:121.51px;fill:#000000">2.56 (2.00, 3.27)</text>
	<text x="5631.32" y="4510.28" style="font-family:'Helvetica';font-size:121.51px;fill:#000000">1.95 (1.43, 2.67)</text>
	<text x="5631.32" y="4700.90" style="font-family:'Helvetica';font-size:121.51px;fill:#000000">2.82 (1.58, 5.05)</text>
	<text x="5631.32" y="4891.79" style="font-family:'Helvetica';font-size:121.51px;fill:#000000">2.55 (1.70, 3.82)</text>
	<text x="5631.32" y="5082.41" style="font-family:'Helvetica';font-size:121.51px;fill:#000000">3.82 (2.86, 5.11)</text>
	<text x="5631.32" y="5273.30" style="font-family:'Helvetica';font-size:121.51px;fill:#000000">4.33 (2.37, 7.88)</text>
	<text x="5631.32" y="5463.92" style="font-family:'Helvetica';font-size:121.51px;fill:#000000">2.66 (1.78, 3.99)</text>
	<text x="5631.32" y="5654.81" style="font-family:'Helvetica';font-size:121.51px;fill:#000000">3.43 (2.76, 4.28)</text>
	<text x="5631.32" y="5845.70" style="font-family:'Helvetica';font-size:121.51px;fill:#000000">1.00 (1.00, 1.00)</text>
	<text x="5631.32" y="6036.32" style="font-family:'Helvetica';font-size:121.51px;fill:#000000">0.28 (0.07, 1.12)</text>
	<text x="5631.32" y="6227.21" style="font-family:'Helvetica';font-size:121.51px;fill:#000000">1.24 (0.98, 1.57)</text>
	<text x="5631.32" y="6417.83" style="font-family:'Helvetica';font-size:121.51px;fill:#000000">2.55 (2.00, 3.26)</text>
	<text x="5631.32" y="6608.72" style="font-family:'Helvetica';font-size:121.51px;fill:#000000">1.95 (1.42, 2.66)</text>
	<text x="5631.32" y="6799.34" style="font-family:'Helvetica';font-size:121.51px;fill:#000000">2.81 (1.57, 5.03)</text>
	<text x="5631.32" y="6990.23" style="font-family:'Helvetica';font-size:121.51px;fill:#000000">2.55 (1.70, 3.81)</text>
	<text x="5631.32" y="7180.85" style="font-family:'Helvetica';font-size:121.51px;fill:#000000">3.81 (2.85, 5.09)</text>
	<text x="5631.32" y="7371.74" style="font-family:'Helvetica';font-size:121.51px;fill:#000000">4.29 (2.36, 7.83)</text>
	<text x="5631.32" y="7562.36" style="font-family:'Helvetica';font-size:121.51px;fill:#000000">2.66 (1.77, 3.98)</text>
	<text x="5631.32" y="7753.25" style="font-family:'Helvetica';font-size:121.51px;fill:#000000">3.43 (2.75, 4.27)</text>
	<text x="5631.32" y="1076.42" style="font-family:'Helvetica';font-size:121.51px;fill:#000000">Ratio (95% CI)</text>
	<text x="5631.32" y="885.80" style="font-family:'Helvetica';font-size:121.51px;fill:#000000">Hazard</text>
	<text x="5631.32" y="1648.82" style="font-family:'Helvetica';font-size:121.51px;fill:#000000">1.00 (1.00, 1.00)</text>
	<text x="5631.32" y="1839.71" style="font-family:'Helvetica';font-size:121.51px;fill:#000000">0.23 (0.06, 0.92)</text>
	<text x="5631.32" y="2030.33" style="font-family:'Helvetica';font-size:121.51px;fill:#000000">1.10 (0.89, 1.37)</text>
	<text x="5631.32" y="2221.22" style="font-family:'Helvetica';font-size:121.51px;fill:#000000">2.89 (2.32, 3.61)</text>
	<text x="5631.32" y="2411.84" style="font-family:'Helvetica';font-size:121.51px;fill:#000000">2.46 (1.85, 3.27)</text>
	<text x="5631.32" y="2602.73" style="font-family:'Helvetica';font-size:121.51px;fill:#000000">2.77 (1.59, 4.82)</text>
	<text x="5631.32" y="2793.35" style="font-family:'Helvetica';font-size:121.51px;fill:#000000">2.74 (1.85, 4.06)</text>
	<text x="5631.32" y="2984.24" style="font-family:'Helvetica';font-size:121.51px;fill:#000000">4.57 (3.53, 5.92)</text>
	<text x="5631.32" y="3174.86" style="font-family:'Helvetica';font-size:121.51px;fill:#000000">2.35 (1.35, 4.07)</text>
	<text x="5631.32" y="3365.75" style="font-family:'Helvetica';font-size:121.51px;fill:#000000">2.82 (1.96, 4.05)</text>
	<text x="5631.32" y="3556.37" style="font-family:'Helvetica';font-size:121.51px;fill:#000000">3.36 (2.75, 4.11)</text>
	<text x="5631.32" y="3747.26" style="font-family:'Helvetica';font-size:121.51px;fill:#000000">1.00 (1.00, 1.00)</text>
	<text x="5631.32" y="3937.88" style="font-family:'Helvetica';font-size:121.51px;fill:#000000">0.28 (0.07, 1.12)</text>
	<text x="5631.32" y="4128.77" style="font-family:'Helvetica';font-size:121.51px;fill:#000000">1.25 (0.99, 1.58)</text>
	<text x="5631.32" y="4319.39" style="font-family:'Helvetica';font-size:121.51px;fill:#000000">2.56 (2.00, 3.27)</text>
	<text x="5631.32" y="4510.28" style="font-family:'Helvetica';font-size:121.51px;fill:#000000">1.95 (1.43, 2.67)</text>
	<text x="5631.32" y="4700.90" style="font-family:'Helvetica';font-size:121.51px;fill:#000000">2.82 (1.58, 5.05)</text>
	<text x="5631.32" y="4891.79" style="font-family:'Helvetica';font-size:121.51px;fill:#000000">2.55 (1.70, 3.82)</text>
	<text x="5631.32" y="5082.41" style="font-family:'Helvetica';font-size:121.51px;fill:#000000">3.82 (2.86, 5.11)</text>
	<text x="5631.32" y="5273.30" style="font-family:'Helvetica';font-size:121.51px;fill:#000000">4.33 (2.37, 7.88)</text>
	<text x="5631.32" y="5463.92" style="font-family:'Helvetica';font-size:121.51px;fill:#000000">2.66 (1.78, 3.99)</text>
	<text x="5631.32" y="5654.81" style="font-family:'Helvetica';font-size:121.51px;fill:#000000">3.43 (2.76, 4.28)</text>
	<text x="5631.32" y="5845.70" style="font-family:'Helvetica';font-size:121.51px;fill:#000000">1.00 (1.00, 1.00)</text>
	<text x="5631.32" y="6036.32" style="font-family:'Helvetica';font-size:121.51px;fill:#000000">0.28 (0.07, 1.12)</text>
	<text x="5631.32" y="6227.21" style="font-family:'Helvetica';font-size:121.51px;fill:#000000">1.24 (0.98, 1.57)</text>
	<text x="5631.32" y="6417.83" style="font-family:'Helvetica';font-size:121.51px;fill:#000000">2.55 (2.00, 3.26)</text>
	<text x="5631.32" y="6608.72" style="font-family:'Helvetica';font-size:121.51px;fill:#000000">1.95 (1.42, 2.66)</text>
	<text x="5631.32" y="6799.34" style="font-family:'Helvetica';font-size:121.51px;fill:#000000">2.81 (1.57, 5.03)</text>
	<text x="5631.32" y="6990.23" style="font-family:'Helvetica';font-size:121.51px;fill:#000000">2.55 (1.70, 3.81)</text>
	<text x="5631.32" y="7180.85" style="font-family:'Helvetica';font-size:121.51px;fill:#000000">3.81 (2.85, 5.09)</text>
	<text x="5631.32" y="7371.74" style="font-family:'Helvetica';font-size:121.51px;fill:#000000">4.29 (2.36, 7.83)</text>
	<text x="5631.32" y="7562.36" style="font-family:'Helvetica';font-size:121.51px;fill:#000000">2.66 (1.77, 3.98)</text>
	<text x="5631.32" y="7753.25" style="font-family:'Helvetica';font-size:121.51px;fill:#000000">3.43 (2.75, 4.27)</text>
	<text x="5631.32" y="1076.42" style="font-family:'Helvetica';font-size:121.51px;fill:#000000">Ratio (95% CI)</text>
	<text x="5631.32" y="885.80" style="font-family:'Helvetica';font-size:121.51px;fill:#000000">Hazard</text>
	<polygon points="4283.03,1606.50 4326.84,1562.69 4370.65,1606.50 4326.84,1650.31" style="fill:#000000"/>
	<polygon points="4299.03,1606.50 4326.84,1578.69 4354.65,1606.50 4326.84,1634.31" style="fill:none;stroke:#000000;stroke-width:22.63"/>
	<polygon points="3668.19,1797.12 3712.00,1753.31 3755.81,1797.12 3712.00,1840.93" style="fill:#000000"/>
	<polygon points="3684.19,1797.12 3712.00,1769.31 3739.81,1797.12 3712.00,1824.93" style="fill:none;stroke:#000000;stroke-width:22.63"/>
	<polygon points="4324.34,1988.01 4368.15,1944.20 4411.97,1988.01 4368.15,2031.82" style="fill:#000000"/>
	<polygon points="4340.34,1988.01 4368.15,1960.20 4395.97,1988.01 4368.15,2015.82" style="fill:none;stroke:#000000;stroke-width:22.63"/>
	<polygon points="4726.68,2178.63 4770.49,2134.82 4814.30,2178.63 4770.49,2222.44" style="fill:#000000"/>
	<polygon points="4742.68,2178.63 4770.49,2150.82 4798.30,2178.63 4770.49,2206.44" style="fill:none;stroke:#000000;stroke-width:22.63"/>
	<polygon points="4658.63,2369.52 4702.44,2325.71 4746.25,2369.52 4702.44,2413.33" style="fill:#000000"/>
	<polygon points="4674.63,2369.52 4702.44,2341.71 4730.26,2369.52 4702.44,2397.33" style="fill:none;stroke:#000000;stroke-width:22.63"/>
	<polygon points="4708.32,2560.14 4752.13,2516.33 4795.94,2560.14 4752.13,2603.95" style="fill:#000000"/>
	<polygon points="4724.31,2560.14 4752.13,2532.33 4779.94,2560.14 4752.13,2587.95" style="fill:none;stroke:#000000;stroke-width:22.63"/>
	<polygon points="4704.00,2751.03 4747.81,2707.22 4791.62,2751.03 4747.81,2794.84" style="fill:#000000"/>
	<polygon points="4719.99,2751.03 4747.81,2723.22 4775.62,2751.03 4747.81,2778.84" style="fill:none;stroke:#000000;stroke-width:22.63"/>
	<polygon points="4917.58,2941.65 4961.39,2897.84 5005.21,2941.65 4961.39,2985.46" style="fill:#000000"/>
	<polygon points="4933.58,2941.65 4961.39,2913.84 4989.21,2941.65 4961.39,2969.46" style="fill:none;stroke:#000000;stroke-width:22.63"/>
	<polygon points="4639.19,3132.54 4683.00,3088.73 4726.81,3132.54 4683.00,3176.35" style="fill:#000000"/>
	<polygon points="4655.19,3132.54 4683.00,3104.73 4710.81,3132.54 4683.00,3160.35" style="fill:none;stroke:#000000;stroke-width:22.63"/>
	<polygon points="4715.07,3323.16 4758.88,3279.35 4802.69,3323.16 4758.88,3366.97" style="fill:#000000"/>
	<polygon points="4731.07,3323.16 4758.88,3295.35 4786.69,3323.16 4758.88,3350.97" style="fill:none;stroke:#000000;stroke-width:22.63"/>
	<polygon points="4789.05,3514.05 4832.86,3470.24 4876.68,3514.05 4832.86,3557.86" style="fill:#000000"/>
	<polygon points="4805.05,3514.05 4832.86,3486.24 4860.68,3514.05 4832.86,3541.86" style="fill:none;stroke:#000000;stroke-width:22.63"/>
	<polygon points="4283.03,3704.67 4326.84,3660.86 4370.65,3704.67 4326.84,3748.48" style="fill:#000000"/>
	<polygon points="4299.03,3704.67 4326.84,3676.86 4354.65,3704.67 4326.84,3732.48" style="fill:none;stroke:#000000;stroke-width:22.63"/>
	<polygon points="3749.47,3895.56 3793.28,3851.75 3837.09,3895.56 3793.28,3939.37" style="fill:#000000"/>
	<polygon points="3765.46,3895.56 3793.28,3867.75 3821.09,3895.56 3793.28,3923.37" style="fill:none;stroke:#000000;stroke-width:22.63"/>
	<polygon points="4375.65,4086.18 4419.46,4042.37 4463.27,4086.18 4419.46,4129.99" style="fill:#000000"/>
	<polygon points="4391.65,4086.18 4419.46,4058.37 4447.27,4086.18 4419.46,4113.99" style="fill:none;stroke:#000000;stroke-width:22.63"/>
	<polygon points="4675.10,4277.07 4718.91,4233.26 4762.73,4277.07 4718.91,4320.88" style="fill:#000000"/>
	<polygon points="4691.10,4277.07 4718.91,4249.26 4746.73,4277.07 4718.91,4304.88" style="fill:none;stroke:#000000;stroke-width:22.63"/>
	<polygon points="4562.23,4467.69 4606.04,4423.88 4649.86,4467.69 4606.04,4511.50" style="fill:#000000"/>
	<polygon points="4578.23,4467.69 4606.04,4439.88 4633.86,4467.69 4606.04,4495.50" style="fill:none;stroke:#000000;stroke-width:22.63"/>
	<polygon points="4715.88,4658.58 4759.69,4614.77 4803.50,4658.58 4759.69,4702.39" style="fill:#000000"/>
	<polygon points="4731.88,4658.58 4759.69,4630.77 4787.50,4658.58 4759.69,4686.39" style="fill:none;stroke:#000000;stroke-width:22.63"/>
	<polygon points="4673.75,4849.20 4717.56,4805.39 4761.38,4849.20 4717.56,4893.01" style="fill:#000000"/>
	<polygon points="4689.75,4849.20 4717.56,4821.39 4745.38,4849.20 4717.56,4877.01" style="fill:none;stroke:#000000;stroke-width:22.63"/>
	<polygon points="4842.79,5040.09 4886.60,4996.28 4930.41,5040.09 4886.60,5083.90" style="fill:#000000"/>
	<polygon points="4858.79,5040.09 4886.60,5012.28 4914.41,5040.09 4886.60,5067.90" style="fill:none;stroke:#000000;stroke-width:22.63"/>
	<polygon points="4894.63,5230.71 4938.44,5186.90 4982.25,5230.71 4938.44,5274.52" style="fill:#000000"/>
	<polygon points="4910.63,5230.71 4938.44,5202.90 4966.25,5230.71 4938.44,5258.52" style="fill:none;stroke:#000000;stroke-width:22.63"/>
	<polygon points="4691.30,5421.60 4735.12,5377.79 4778.93,5421.60 4735.12,5465.41" style="fill:#000000"/>
	<polygon points="4707.30,5421.60 4735.12,5393.79 4762.93,5421.60 4735.12,5449.41" style="fill:none;stroke:#000000;stroke-width:22.63"/>
	<polygon points="4797.96,5612.22 4841.77,5568.41 4885.59,5612.22 4841.77,5656.03" style="fill:#000000"/>
	<polygon points="4813.96,5612.22 4841.77,5584.41 4869.59,5612.22 4841.77,5640.03" style="fill:none;stroke:#000000;stroke-width:22.63"/>
	<polygon points="4283.03,5803.11 4326.84,5759.30 4370.65,5803.11 4326.84,5846.92" style="fill:#000000"/>
	<polygon points="4299.03,5803.11 4326.84,5775.30 4354.65,5803.11 4326.84,5830.92" style="fill:none;stroke:#000000;stroke-width:22.63"/>
	<polygon points="3749.20,5994.00 3793.01,5950.19 3836.82,5994.00 3793.01,6037.81" style="fill:#000000"/>
	<polygon points="3765.19,5994.00 3793.01,5966.19 3820.82,5994.00 3793.01,6021.81" style="fill:none;stroke:#000000;stroke-width:22.63"/>
	<polygon points="4373.22,6184.62 4417.03,6140.81 4460.84,6184.62 4417.03,6228.43" style="fill:#000000"/>
	<polygon points="4389.22,6184.62 4417.03,6156.81 4444.84,6184.62 4417.03,6212.43" style="fill:none;stroke:#000000;stroke-width:22.63"/>
	<polygon points="4674.02,6375.51 4717.83,6331.70 4761.65,6375.51 4717.83,6419.32" style="fill:#000000"/>
	<polygon points="4690.02,6375.51 4717.83,6347.70 4745.65,6375.51 4717.83,6403.32" style="fill:none;stroke:#000000;stroke-width:22.63"/>
	<polygon points="4560.88,6566.13 4604.69,6522.32 4648.51,6566.13 4604.69,6609.94" style="fill:#000000"/>
	<polygon points="4576.88,6566.13 4604.69,6538.32 4632.51,6566.13 4604.69,6593.94" style="fill:none;stroke:#000000;stroke-width:22.63"/>
	<polygon points="4714.80,6757.02 4758.61,6713.21 4802.42,6757.02 4758.61,6800.83" style="fill:#000000"/>
	<polygon points="4730.80,6757.02 4758.61,6729.21 4786.42,6757.02 4758.61,6784.83" style="fill:none;stroke:#000000;stroke-width:22.63"/>
	<polygon points="4673.48,6947.64 4717.29,6903.83 4761.11,6947.64 4717.29,6991.45" style="fill:#000000"/>
	<polygon points="4689.48,6947.64 4717.29,6919.83 4745.11,6947.64 4717.29,6975.45" style="fill:none;stroke:#000000;stroke-width:22.63"/>
	<polygon points="4841.71,7138.53 4885.52,7094.72 4929.33,7138.53 4885.52,7182.34" style="fill:#000000"/>
	<polygon points="4857.71,7138.53 4885.52,7110.72 4913.33,7138.53 4885.52,7166.34" style="fill:none;stroke:#000000;stroke-width:22.63"/>
	<polygon points="4891.39,7329.15 4935.20,7285.34 4979.01,7329.15 4935.20,7372.96" style="fill:#000000"/>
	<polygon points="4907.39,7329.15 4935.20,7301.34 4963.01,7329.15 4935.20,7356.96" style="fill:none;stroke:#000000;stroke-width:22.63"/>
	<polygon points="4690.76,7520.04 4734.58,7476.23 4778.39,7520.04 4734.58,7563.85" style="fill:#000000"/>
	<polygon points="4706.76,7520.04 4734.58,7492.23 4762.39,7520.04 4734.58,7547.85" style="fill:none;stroke:#000000;stroke-width:22.63"/>
	<polygon points="4797.15,7710.66 4840.96,7666.85 4884.78,7710.66 4840.96,7754.47" style="fill:#000000"/>
	<polygon points="4813.15,7710.66 4840.96,7682.85 4868.78,7710.66 4840.96,7738.47" style="fill:none;stroke:#000000;stroke-width:22.63"/>
	<line x1="397.74" y1="8282.79" x2="7222.83" y2="8282.79" style="stroke:#000000;stroke-width:15.08"/>
	<text x="3729.82" y="8420.09" style="font-family:'Helvetica';font-size:121.51px;fill:#000000" text-anchor="middle"> </text>
	<text x="4924.13" y="8420.09" style="font-family:'Helvetica';font-size:121.51px;fill:#000000" text-anchor="middle"> </text>
	<line x1="4327.11" y1="8282.79" x2="4327.11" y2="8387.55" style="stroke:#000000;stroke-width:15.08"/>
	<text x="4327.11" y="8524.85" style="font-family:'Helvetica';font-size:121.51px;fill:#000000" text-anchor="middle">1</text>
	<line x1="3748.45" y1="8282.79" x2="3748.45" y2="8387.55" style="stroke:#000000;stroke-width:15.08"/>
	<text x="3748.45" y="8524.85" style="font-family:'Helvetica';font-size:121.51px;fill:#000000" text-anchor="middle">.25</text>
	<line x1="4037.65" y1="8282.79" x2="4037.65" y2="8387.55" style="stroke:#000000;stroke-width:15.08"/>
	<text x="4037.65" y="8524.85" style="font-family:'Helvetica';font-size:121.51px;fill:#000000" text-anchor="middle">.5</text>
	<line x1="4327.11" y1="8282.79" x2="4327.11" y2="8387.55" style="stroke:#000000;stroke-width:15.08"/>
	<text x="4327.11" y="8524.85" style="font-family:'Helvetica';font-size:121.51px;fill:#000000" text-anchor="middle">1</text>
	<line x1="4616.31" y1="8282.79" x2="4616.31" y2="8387.55" style="stroke:#000000;stroke-width:15.08"/>
	<text x="4616.31" y="8524.85" style="font-family:'Helvetica';font-size:121.51px;fill:#000000" text-anchor="middle">2</text>
	<line x1="4905.77" y1="8282.79" x2="4905.77" y2="8387.55" style="stroke:#000000;stroke-width:15.08"/>
	<text x="4905.77" y="8524.85" style="font-family:'Helvetica';font-size:121.51px;fill:#000000" text-anchor="middle">4</text>
	<line x1="4327.11" y1="8282.79" x2="4327.11" y2="8387.55" style="stroke:#000000;stroke-width:15.08"/>
	<text x="3810.29" y="544.24" style="font-family:'Helvetica';font-size:209.54px;fill:#000000" text-anchor="middle">complete case analysis</text>
	<text x="3810.29" y="228.56" style="font-family:'Helvetica';font-size:261.92px;fill:#000000" text-anchor="middle">icu</text>
</svg>
