<?xml version="1.0" encoding="UTF-8" standalone="no"?>
<!-- This is a Stata 16.1 generated SVG file (http://www.stata.com) -->

<svg version="1.1" width="10.47in" height="12.00in" viewBox="0 0 7542 8640" xmlns="http://www.w3.org/2000/svg" xmlns:xlink="http://www.w3.org/1999/xlink">
	<desc>Stata Graph - Graph</desc>
	<rect x="0" y="0" width="7542" height="8640" style="fill:#F0F0F0;stroke:none"/>
	<rect x="0.00" y="0.27" width="7542.00" height="8639.73" style="fill:#FFFFFF"/>
	<rect x="7.54" y="7.81" width="7526.92" height="8624.65" style="fill:none;stroke:#FFFFFF;stroke-width:15.08"/>
	<rect x="397.74" y="652.32" width="6825.09" height="7630.47" style="fill:#FFFFFF"/>
	<rect x="405.29" y="659.86" width="6810.01" height="7615.39" style="fill:none;stroke:#FFFFFF;stroke-width:15.08"/>
	<line x1="397.74" y1="1272.51" x2="7222.83" y2="1272.51" style="stroke:#C0C0C0;stroke-width:15.08"/>
	<text x="507.64" y="8039.45" style="font-family:'Helvetica';font-size:121.51px;fill:#000000">NOTE: Weights are from random effects analysis</text>
	<line x1="4327.11" y1="8282.79" x2="4327.11" y2="1272.51" style="stroke:#000000;stroke-width:15.08"/>
	<text x="507.64" y="7943.87" style="font-family:'Helvetica';font-size:121.51px;fill:#000000">.</text>
	<line x1="4327.11" y1="1606.23" x2="4327.11" y2="1606.23" style="stroke:#000000;stroke-width:22.63"/>
	<line x1="4376.80" y1="1797.12" x2="4551.23" y2="1797.12" style="stroke:#000000;stroke-width:22.63"/>
	<line x1="4313.07" y1="1987.74" x2="4368.42" y2="1987.74" style="stroke:#000000;stroke-width:22.63"/>
	<line x1="4968.96" y1="2178.63" x2="5033.76" y2="2178.63" style="stroke:#000000;stroke-width:22.63"/>
	<line x1="4956.53" y1="2369.25" x2="5028.90" y2="2369.25" style="stroke:#000000;stroke-width:22.63"/>
	<line x1="4395.70" y1="2560.14" x2="4590.92" y2="2560.14" style="stroke:#000000;stroke-width:22.63"/>
	<line x1="4666.53" y1="2750.76" x2="4813.69" y2="2750.76" style="stroke:#000000;stroke-width:22.63"/>
	<line x1="4918.73" y1="2941.65" x2="5015.40" y2="2941.65" style="stroke:#000000;stroke-width:22.63"/>
	<line x1="3494.63" y1="3132.27" x2="3785.45" y2="3132.27" style="stroke:#000000;stroke-width:22.63"/>
	<line x1="4615.50" y1="3323.16" x2="4738.36" y2="3323.16" style="stroke:#000000;stroke-width:22.63"/>
	<line x1="4849.88" y1="3513.78" x2="4916.30" y2="3513.78" style="stroke:#000000;stroke-width:22.63"/>
	<line x1="4327.11" y1="3704.67" x2="4327.11" y2="3704.67" style="stroke:#000000;stroke-width:22.63"/>
	<line x1="4373.02" y1="3895.29" x2="4564.46" y2="3895.29" style="stroke:#000000;stroke-width:22.63"/>
	<line x1="4404.61" y1="4086.18" x2="4470.22" y2="4086.18" style="stroke:#000000;stroke-width:22.63"/>
	<line x1="4854.74" y1="4276.80" x2="4930.61" y2="4276.80" style="stroke:#000000;stroke-width:22.63"/>
	<line x1="4806.40" y1="4467.69" x2="4888.49" y2="4467.69" style="stroke:#000000;stroke-width:22.63"/>
	<line x1="4253.40" y1="4658.31" x2="4473.46" y2="4658.31" style="stroke:#000000;stroke-width:22.63"/>
	<line x1="4557.98" y1="4849.20" x2="4716.48" y2="4849.20" style="stroke:#000000;stroke-width:22.63"/>
	<line x1="4903.34" y1="5039.82" x2="5015.13" y2="5039.82" style="stroke:#000000;stroke-width:22.63"/>
	<line x1="3952.05" y1="5230.71" x2="4291.20" y2="5230.71" style="stroke:#000000;stroke-width:22.63"/>
	<line x1="4623.06" y1="5421.33" x2="4766.17" y2="5421.33" style="stroke:#000000;stroke-width:22.63"/>
	<line x1="4864.46" y1="5612.22" x2="4941.95" y2="5612.22" style="stroke:#000000;stroke-width:22.63"/>
	<line x1="4327.11" y1="5803.11" x2="4327.11" y2="5803.11" style="stroke:#000000;stroke-width:22.63"/>
	<line x1="4371.13" y1="5993.73" x2="4562.30" y2="5993.73" style="stroke:#000000;stroke-width:22.63"/>
	<line x1="4392.19" y1="6184.62" x2="4458.34" y2="6184.62" style="stroke:#000000;stroke-width:22.63"/>
	<line x1="4851.77" y1="6375.24" x2="4927.64" y2="6375.24" style="stroke:#000000;stroke-width:22.63"/>
	<line x1="4804.51" y1="6566.13" x2="4886.60" y2="6566.13" style="stroke:#000000;stroke-width:22.63"/>
	<line x1="4250.97" y1="6756.75" x2="4471.03" y2="6756.75" style="stroke:#000000;stroke-width:22.63"/>
	<line x1="4556.63" y1="6947.64" x2="4715.13" y2="6947.64" style="stroke:#000000;stroke-width:22.63"/>
	<line x1="4900.37" y1="7138.26" x2="5012.16" y2="7138.26" style="stroke:#000000;stroke-width:22.63"/>
	<line x1="3931.53" y1="7329.15" x2="4270.68" y2="7329.15" style="stroke:#000000;stroke-width:22.63"/>
	<line x1="4620.36" y1="7519.77" x2="4763.47" y2="7519.77" style="stroke:#000000;stroke-width:22.63"/>
	<line x1="4861.49" y1="7710.66" x2="4938.98" y2="7710.66" style="stroke:#000000;stroke-width:22.63"/>
	<text x="507.64" y="1458.20" style="font-family:'Helvetica';font-size:121.51px;fill:#000000">positivetest</text>
	<text x="507.64" y="1648.82" style="font-family:'Helvetica';font-size:121.51px;fill:#000000">model1</text>
	<text x="507.64" y="3747.26" style="font-family:'Helvetica';font-size:121.51px;fill:#000000">model2</text>
	<text x="507.64" y="5845.70" style="font-family:'Helvetica';font-size:121.51px;fill:#000000">model3</text>
	<text x="507.64" y="1076.42" style="font-family:'Helvetica';font-size:121.51px;fill:#000000">model</text>
	<text x="1286.66" y="1648.82" style="font-family:'Helvetica';font-size:121.51px;fill:#000000">British or Mixed British</text>
	<text x="1286.66" y="1839.71" style="font-family:'Helvetica';font-size:121.51px;fill:#000000">Irish</text>
	<text x="1286.66" y="2030.33" style="font-family:'Helvetica';font-size:121.51px;fill:#000000">Other White</text>
	<text x="1286.66" y="2221.22" style="font-family:'Helvetica';font-size:121.51px;fill:#000000">Indian</text>
	<text x="1286.66" y="2411.84" style="font-family:'Helvetica';font-size:121.51px;fill:#000000">Pakistani</text>
	<text x="1286.66" y="2602.73" style="font-family:'Helvetica';font-size:121.51px;fill:#000000">Bangladeshi</text>
	<text x="1286.66" y="2793.35" style="font-family:'Helvetica';font-size:121.51px;fill:#000000">Caribbean</text>
	<text x="1286.66" y="2984.24" style="font-family:'Helvetica';font-size:121.51px;fill:#000000">African</text>
	<text x="1286.66" y="3174.86" style="font-family:'Helvetica';font-size:121.51px;fill:#000000">Chinese</text>
	<text x="1286.66" y="3365.75" style="font-family:'Helvetica';font-size:121.51px;fill:#000000">All mixed</text>
	<text x="1286.66" y="3556.37" style="font-family:'Helvetica';font-size:121.51px;fill:#000000">All Other</text>
	<text x="1286.66" y="3747.26" style="font-family:'Helvetica';font-size:121.51px;fill:#000000">British or Mixed British</text>
	<text x="1286.66" y="3937.88" style="font-family:'Helvetica';font-size:121.51px;fill:#000000">Irish</text>
	<text x="1286.66" y="4128.77" style="font-family:'Helvetica';font-size:121.51px;fill:#000000">Other White</text>
	<text x="1286.66" y="4319.39" style="font-family:'Helvetica';font-size:121.51px;fill:#000000">Indian</text>
	<text x="1286.66" y="4510.28" style="font-family:'Helvetica';font-size:121.51px;fill:#000000">Pakistani</text>
	<text x="1286.66" y="4700.90" style="font-family:'Helvetica';font-size:121.51px;fill:#000000">Bangladeshi</text>
	<text x="1286.66" y="4891.79" style="font-family:'Helvetica';font-size:121.51px;fill:#000000">Caribbean</text>
	<text x="1286.66" y="5082.41" style="font-family:'Helvetica';font-size:121.51px;fill:#000000">African</text>
	<text x="1286.66" y="5273.30" style="font-family:'Helvetica';font-size:121.51px;fill:#000000">Chinese</text>
	<text x="1286.66" y="5463.92" style="font-family:'Helvetica';font-size:121.51px;fill:#000000">All mixed</text>
	<text x="1286.66" y="5654.81" style="font-family:'Helvetica';font-size:121.51px;fill:#000000">All Other</text>
	<text x="1286.66" y="5845.70" style="font-family:'Helvetica';font-size:121.51px;fill:#000000">British or Mixed British</text>
	<text x="1286.66" y="6036.32" style="font-family:'Helvetica';font-size:121.51px;fill:#000000">Irish</text>
	<text x="1286.66" y="6227.21" style="font-family:'Helvetica';font-size:121.51px;fill:#000000">Other White</text>
	<text x="1286.66" y="6417.83" style="font-family:'Helvetica';font-size:121.51px;fill:#000000">Indian</text>
	<text x="1286.66" y="6608.72" style="font-family:'Helvetica';font-size:121.51px;fill:#000000">Pakistani</text>
	<text x="1286.66" y="6799.34" style="font-family:'Helvetica';font-size:121.51px;fill:#000000">Bangladeshi</text>
	<text x="1286.66" y="6990.23" style="font-family:'Helvetica';font-size:121.51px;fill:#000000">Caribbean</text>
	<text x="1286.66" y="7180.85" style="font-family:'Helvetica';font-size:121.51px;fill:#000000">African</text>
	<text x="1286.66" y="7371.74" style="font-family:'Helvetica';font-size:121.51px;fill:#000000">Chinese</text>
	<text x="1286.66" y="7562.36" style="font-family:'Helvetica';font-size:121.51px;fill:#000000">All mixed</text>
	<text x="1286.66" y="7753.25" style="font-family:'Helvetica';font-size:121.51px;fill:#000000">All Other</text>
	<text x="1286.66" y="1076.42" style="font-family:'Helvetica';font-size:121.51px;fill:#000000">eth16</text>
	<text x="5631.32" y="1648.82" style="font-family:'Helvetica';font-size:121.51px;fill:#000000">1.00 (1.00, 1.00)</text>
	<text x="5631.32" y="1839.71" style="font-family:'Helvetica';font-size:121.51px;fill:#000000">1.17 (1.06, 1.30)</text>
	<text x="5631.32" y="2030.33" style="font-family:'Helvetica';font-size:121.51px;fill:#000000">1.02 (0.98, 1.05)</text>
	<text x="5631.32" y="2221.22" style="font-family:'Helvetica';font-size:121.51px;fill:#000000">2.19 (2.11, 2.27)</text>
	<text x="5631.32" y="2411.84" style="font-family:'Helvetica';font-size:121.51px;fill:#000000">2.17 (2.08, 2.26)</text>
	<text x="5631.32" y="2602.73" style="font-family:'Helvetica';font-size:121.51px;fill:#000000">1.21 (1.08, 1.36)</text>
	<text x="5631.32" y="2793.35" style="font-family:'Helvetica';font-size:121.51px;fill:#000000">1.62 (1.48, 1.76)</text>
	<text x="5631.32" y="2984.24" style="font-family:'Helvetica';font-size:121.51px;fill:#000000">2.10 (1.99, 2.22)</text>
	<text x="5631.32" y="3174.86" style="font-family:'Helvetica';font-size:121.51px;fill:#000000">0.45 (0.38, 0.53)</text>
	<text x="5631.32" y="3365.75" style="font-family:'Helvetica';font-size:121.51px;fill:#000000">1.50 (1.40, 1.61)</text>
	<text x="5631.32" y="3556.37" style="font-family:'Helvetica';font-size:121.51px;fill:#000000">1.91 (1.83, 1.98)</text>
	<text x="5631.32" y="3747.26" style="font-family:'Helvetica';font-size:121.51px;fill:#000000">1.00 (1.00, 1.00)</text>
	<text x="5631.32" y="3937.88" style="font-family:'Helvetica';font-size:121.51px;fill:#000000">1.18 (1.05, 1.32)</text>
	<text x="5631.32" y="4128.77" style="font-family:'Helvetica';font-size:121.51px;fill:#000000">1.14 (1.09, 1.18)</text>
	<text x="5631.32" y="4319.39" style="font-family:'Helvetica';font-size:121.51px;fill:#000000">1.93 (1.85, 2.02)</text>
	<text x="5631.32" y="4510.28" style="font-family:'Helvetica';font-size:121.51px;fill:#000000">1.83 (1.74, 1.92)</text>
	<text x="5631.32" y="4700.90" style="font-family:'Helvetica';font-size:121.51px;fill:#000000">1.04 (0.92, 1.19)</text>
	<text x="5631.32" y="4891.79" style="font-family:'Helvetica';font-size:121.51px;fill:#000000">1.43 (1.31, 1.57)</text>
	<text x="5631.32" y="5082.41" style="font-family:'Helvetica';font-size:121.51px;fill:#000000">2.08 (1.95, 2.22)</text>
	<text x="5631.32" y="5273.30" style="font-family:'Helvetica';font-size:121.51px;fill:#000000">0.79 (0.65, 0.96)</text>
	<text x="5631.32" y="5463.92" style="font-family:'Helvetica';font-size:121.51px;fill:#000000">1.53 (1.41, 1.66)</text>
	<text x="5631.32" y="5654.81" style="font-family:'Helvetica';font-size:121.51px;fill:#000000">1.95 (1.87, 2.04)</text>
	<text x="5631.32" y="5845.70" style="font-family:'Helvetica';font-size:121.51px;fill:#000000">1.00 (1.00, 1.00)</text>
	<text x="5631.32" y="6036.32" style="font-family:'Helvetica';font-size:121.51px;fill:#000000">1.18 (1.05, 1.31)</text>
	<text x="5631.32" y="6227.21" style="font-family:'Helvetica';font-size:121.51px;fill:#000000">1.12 (1.08, 1.16)</text>
	<text x="5631.32" y="6417.83" style="font-family:'Helvetica';font-size:121.51px;fill:#000000">1.92 (1.84, 2.01)</text>
	<text x="5631.32" y="6608.72" style="font-family:'Helvetica';font-size:121.51px;fill:#000000">1.83 (1.74, 1.91)</text>
	<text x="5631.32" y="6799.34" style="font-family:'Helvetica';font-size:121.51px;fill:#000000">1.04 (0.92, 1.18)</text>
	<text x="5631.32" y="6990.23" style="font-family:'Helvetica';font-size:121.51px;fill:#000000">1.43 (1.31, 1.57)</text>
	<text x="5631.32" y="7180.85" style="font-family:'Helvetica';font-size:121.51px;fill:#000000">2.08 (1.95, 2.22)</text>
	<text x="5631.32" y="7371.74" style="font-family:'Helvetica';font-size:121.51px;fill:#000000">0.77 (0.63, 0.94)</text>
	<text x="5631.32" y="7562.36" style="font-family:'Helvetica';font-size:121.51px;fill:#000000">1.53 (1.41, 1.66)</text>
	<text x="5631.32" y="7753.25" style="font-family:'Helvetica';font-size:121.51px;fill:#000000">1.95 (1.86, 2.03)</text>
	<text x="5631.32" y="1076.42" style="font-family:'Helvetica';font-size:121.51px;fill:#000000">Ratio (95% CI)</text>
	<text x="5631.32" y="885.80" style="font-family:'Helvetica';font-size:121.51px;fill:#000000">Hazard</text>
	<text x="5631.32" y="1648.82" style="font-family:'Helvetica';font-size:121.51px;fill:#000000">1.00 (1.00, 1.00)</text>
	<text x="5631.32" y="1839.71" style="font-family:'Helvetica';font-size:121.51px;fill:#000000">1.17 (1.06, 1.30)</text>
	<text x="5631.32" y="2030.33" style="font-family:'Helvetica';font-size:121.51px;fill:#000000">1.02 (0.98, 1.05)</text>
	<text x="5631.32" y="2221.22" style="font-family:'Helvetica';font-size:121.51px;fill:#000000">2.19 (2.11, 2.27)</text>
	<text x="5631.32" y="2411.84" style="font-family:'Helvetica';font-size:121.51px;fill:#000000">2.17 (2.08, 2.26)</text>
	<text x="5631.32" y="2602.73" style="font-family:'Helvetica';font-size:121.51px;fill:#000000">1.21 (1.08, 1.36)</text>
	<text x="5631.32" y="2793.35" style="font-family:'Helvetica';font-size:121.51px;fill:#000000">1.62 (1.48, 1.76)</text>
	<text x="5631.32" y="2984.24" style="font-family:'Helvetica';font-size:121.51px;fill:#000000">2.10 (1.99, 2.22)</text>
	<text x="5631.32" y="3174.86" style="font-family:'Helvetica';font-size:121.51px;fill:#000000">0.45 (0.38, 0.53)</text>
	<text x="5631.32" y="3365.75" style="font-family:'Helvetica';font-size:121.51px;fill:#000000">1.50 (1.40, 1.61)</text>
	<text x="5631.32" y="3556.37" style="font-family:'Helvetica';font-size:121.51px;fill:#000000">1.91 (1.83, 1.98)</text>
	<text x="5631.32" y="3747.26" style="font-family:'Helvetica';font-size:121.51px;fill:#000000">1.00 (1.00, 1.00)</text>
	<text x="5631.32" y="3937.88" style="font-family:'Helvetica';font-size:121.51px;fill:#000000">1.18 (1.05, 1.32)</text>
	<text x="5631.32" y="4128.77" style="font-family:'Helvetica';font-size:121.51px;fill:#000000">1.14 (1.09, 1.18)</text>
	<text x="5631.32" y="4319.39" style="font-family:'Helvetica';font-size:121.51px;fill:#000000">1.93 (1.85, 2.02)</text>
	<text x="5631.32" y="4510.28" style="font-family:'Helvetica';font-size:121.51px;fill:#000000">1.83 (1.74, 1.92)</text>
	<text x="5631.32" y="4700.90" style="font-family:'Helvetica';font-size:121.51px;fill:#000000">1.04 (0.92, 1.19)</text>
	<text x="5631.32" y="4891.79" style="font-family:'Helvetica';font-size:121.51px;fill:#000000">1.43 (1.31, 1.57)</text>
	<text x="5631.32" y="5082.41" style="font-family:'Helvetica';font-size:121.51px;fill:#000000">2.08 (1.95, 2.22)</text>
	<text x="5631.32" y="5273.30" style="font-family:'Helvetica';font-size:121.51px;fill:#000000">0.79 (0.65, 0.96)</text>
	<text x="5631.32" y="5463.92" style="font-family:'Helvetica';font-size:121.51px;fill:#000000">1.53 (1.41, 1.66)</text>
	<text x="5631.32" y="5654.81" style="font-family:'Helvetica';font-size:121.51px;fill:#000000">1.95 (1.87, 2.04)</text>
	<text x="5631.32" y="5845.70" style="font-family:'Helvetica';font-size:121.51px;fill:#000000">1.00 (1.00, 1.00)</text>
	<text x="5631.32" y="6036.32" style="font-family:'Helvetica';font-size:121.51px;fill:#000000">1.18 (1.05, 1.31)</text>
	<text x="5631.32" y="6227.21" style="font-family:'Helvetica';font-size:121.51px;fill:#000000">1.12 (1.08, 1.16)</text>
	<text x="5631.32" y="6417.83" style="font-family:'Helvetica';font-size:121.51px;fill:#000000">1.92 (1.84, 2.01)</text>
	<text x="5631.32" y="6608.72" style="font-family:'Helvetica';font-size:121.51px;fill:#000000">1.83 (1.74, 1.91)</text>
	<text x="5631.32" y="6799.34" style="font-family:'Helvetica';font-size:121.51px;fill:#000000">1.04 (0.92, 1.18)</text>
	<text x="5631.32" y="6990.23" style="font-family:'Helvetica';font-size:121.51px;fill:#000000">1.43 (1.31, 1.57)</text>
	<text x="5631.32" y="7180.85" style="font-family:'Helvetica';font-size:121.51px;fill:#000000">2.08 (1.95, 2.22)</text>
	<text x="5631.32" y="7371.74" style="font-family:'Helvetica';font-size:121.51px;fill:#000000">0.77 (0.63, 0.94)</text>
	<text x="5631.32" y="7562.36" style="font-family:'Helvetica';font-size:121.51px;fill:#000000">1.53 (1.41, 1.66)</text>
	<text x="5631.32" y="7753.25" style="font-family:'Helvetica';font-size:121.51px;fill:#000000">1.95 (1.86, 2.03)</text>
	<text x="5631.32" y="1076.42" style="font-family:'Helvetica';font-size:121.51px;fill:#000000">Ratio (95% CI)</text>
	<text x="5631.32" y="885.80" style="font-family:'Helvetica';font-size:121.51px;fill:#000000">Hazard</text>
	<polygon points="4283.03,1606.50 4326.84,1562.69 4370.65,1606.50 4326.84,1650.31" style="fill:#000000"/>
	<polygon points="4299.03,1606.50 4326.84,1578.69 4354.65,1606.50 4326.84,1634.31" style="fill:none;stroke:#000000;stroke-width:22.63"/>
	<polygon points="4420.20,1797.12 4464.01,1753.31 4507.82,1797.12 4464.01,1840.93" style="fill:#000000"/>
	<polygon points="4436.20,1797.12 4464.01,1769.31 4491.83,1797.12 4464.01,1824.93" style="fill:none;stroke:#000000;stroke-width:22.63"/>
	<polygon points="4296.80,1988.01 4340.61,1944.20 4384.42,1988.01 4340.61,2031.82" style="fill:#000000"/>
	<polygon points="4312.80,1988.01 4340.61,1960.20 4368.42,1988.01 4340.61,2015.82" style="fill:none;stroke:#000000;stroke-width:22.63"/>
	<polygon points="4957.55,2178.63 5001.36,2134.82 5045.17,2178.63 5001.36,2222.44" style="fill:#000000"/>
	<polygon points="4973.55,2178.63 5001.36,2150.82 5029.17,2178.63 5001.36,2206.44" style="fill:none;stroke:#000000;stroke-width:22.63"/>
	<polygon points="4948.91,2369.52 4992.72,2325.71 5036.53,2369.52 4992.72,2413.33" style="fill:#000000"/>
	<polygon points="4964.90,2369.52 4992.72,2341.71 5020.53,2369.52 4992.72,2397.33" style="fill:none;stroke:#000000;stroke-width:22.63"/>
	<polygon points="4449.36,2560.14 4493.18,2516.33 4536.99,2560.14 4493.18,2603.95" style="fill:#000000"/>
	<polygon points="4465.36,2560.14 4493.18,2532.33 4520.99,2560.14 4493.18,2587.95" style="fill:none;stroke:#000000;stroke-width:22.63"/>
	<polygon points="4696.16,2751.03 4739.98,2707.22 4783.79,2751.03 4739.98,2794.84" style="fill:#000000"/>
	<polygon points="4712.16,2751.03 4739.98,2723.22 4767.79,2751.03 4739.98,2778.84" style="fill:none;stroke:#000000;stroke-width:22.63"/>
	<polygon points="4923.25,2941.65 4967.06,2897.84 5010.88,2941.65 4967.06,2985.46" style="fill:#000000"/>
	<polygon points="4939.25,2941.65 4967.06,2913.84 4994.88,2941.65 4967.06,2969.46" style="fill:none;stroke:#000000;stroke-width:22.63"/>
	<polygon points="3596.09,3132.54 3639.90,3088.73 3683.72,3132.54 3639.90,3176.35" style="fill:#000000"/>
	<polygon points="3612.09,3132.54 3639.90,3104.73 3667.72,3132.54 3639.90,3160.35" style="fill:none;stroke:#000000;stroke-width:22.63"/>
	<polygon points="4632.98,3323.16 4676.79,3279.35 4720.60,3323.16 4676.79,3366.97" style="fill:#000000"/>
	<polygon points="4648.98,3323.16 4676.79,3295.35 4704.60,3323.16 4676.79,3350.97" style="fill:none;stroke:#000000;stroke-width:22.63"/>
	<polygon points="4839.01,3514.05 4882.82,3470.24 4926.63,3514.05 4882.82,3557.86" style="fill:#000000"/>
	<polygon points="4855.01,3514.05 4882.82,3486.24 4910.63,3514.05 4882.82,3541.86" style="fill:none;stroke:#000000;stroke-width:22.63"/>
	<polygon points="4283.03,3704.67 4326.84,3660.86 4370.65,3704.67 4326.84,3748.48" style="fill:#000000"/>
	<polygon points="4299.03,3704.67 4326.84,3676.86 4354.65,3704.67 4326.84,3732.48" style="fill:none;stroke:#000000;stroke-width:22.63"/>
	<polygon points="4424.79,3895.56 4468.60,3851.75 4512.41,3895.56 4468.60,3939.37" style="fill:#000000"/>
	<polygon points="4440.79,3895.56 4468.60,3867.75 4496.42,3895.56 4468.60,3923.37" style="fill:none;stroke:#000000;stroke-width:22.63"/>
	<polygon points="4393.47,4086.18 4437.28,4042.37 4481.09,4086.18 4437.28,4129.99" style="fill:#000000"/>
	<polygon points="4409.47,4086.18 4437.28,4058.37 4465.09,4086.18 4437.28,4113.99" style="fill:none;stroke:#000000;stroke-width:22.63"/>
	<polygon points="4848.73,4277.07 4892.54,4233.26 4936.35,4277.07 4892.54,4320.88" style="fill:#000000"/>
	<polygon points="4864.73,4277.07 4892.54,4249.26 4920.35,4277.07 4892.54,4304.88" style="fill:none;stroke:#000000;stroke-width:22.63"/>
	<polygon points="4803.63,4467.69 4847.44,4423.88 4891.26,4467.69 4847.44,4511.50" style="fill:#000000"/>
	<polygon points="4819.63,4467.69 4847.44,4439.88 4875.26,4467.69 4847.44,4495.50" style="fill:none;stroke:#000000;stroke-width:22.63"/>
	<polygon points="4319.48,4658.58 4363.29,4614.77 4407.11,4658.58 4363.29,4702.39" style="fill:#000000"/>
	<polygon points="4335.48,4658.58 4363.29,4630.77 4391.11,4658.58 4363.29,4686.39" style="fill:none;stroke:#000000;stroke-width:22.63"/>
	<polygon points="4593.29,4849.20 4637.10,4805.39 4680.91,4849.20 4637.10,4893.01" style="fill:#000000"/>
	<polygon points="4609.29,4849.20 4637.10,4821.39 4664.91,4849.20 4637.10,4877.01" style="fill:none;stroke:#000000;stroke-width:22.63"/>
	<polygon points="4915.42,5040.09 4959.23,4996.28 5003.05,5040.09 4959.23,5083.90" style="fill:#000000"/>
	<polygon points="4931.42,5040.09 4959.23,5012.28 4987.05,5040.09 4959.23,5067.90" style="fill:none;stroke:#000000;stroke-width:22.63"/>
	<polygon points="4077.54,5230.71 4121.35,5186.90 4165.17,5230.71 4121.35,5274.52" style="fill:#000000"/>
	<polygon points="4093.54,5230.71 4121.35,5202.90 4149.17,5230.71 4121.35,5258.52" style="fill:none;stroke:#000000;stroke-width:22.63"/>
	<polygon points="4650.80,5421.60 4694.61,5377.79 4738.42,5421.60 4694.61,5465.41" style="fill:#000000"/>
	<polygon points="4666.80,5421.60 4694.61,5393.79 4722.42,5421.60 4694.61,5449.41" style="fill:none;stroke:#000000;stroke-width:22.63"/>
	<polygon points="4859.26,5612.22 4903.07,5568.41 4946.88,5612.22 4903.07,5656.03" style="fill:#000000"/>
	<polygon points="4875.26,5612.22 4903.07,5584.41 4930.88,5612.22 4903.07,5640.03" style="fill:none;stroke:#000000;stroke-width:22.63"/>
	<polygon points="4283.03,5803.11 4326.84,5759.30 4370.65,5803.11 4326.84,5846.92" style="fill:#000000"/>
	<polygon points="4299.03,5803.11 4326.84,5775.30 4354.65,5803.11 4326.84,5830.92" style="fill:none;stroke:#000000;stroke-width:22.63"/>
	<polygon points="4422.90,5994.00 4466.71,5950.19 4510.52,5994.00 4466.71,6037.81" style="fill:#000000"/>
	<polygon points="4438.90,5994.00 4466.71,5966.19 4494.53,5994.00 4466.71,6021.81" style="fill:none;stroke:#000000;stroke-width:22.63"/>
	<polygon points="4381.32,6184.62 4425.13,6140.81 4468.94,6184.62 4425.13,6228.43" style="fill:#000000"/>
	<polygon points="4397.32,6184.62 4425.13,6156.81 4452.94,6184.62 4425.13,6212.43" style="fill:none;stroke:#000000;stroke-width:22.63"/>
	<polygon points="4845.76,6375.51 4889.57,6331.70 4933.38,6375.51 4889.57,6419.32" style="fill:#000000"/>
	<polygon points="4861.76,6375.51 4889.57,6347.70 4917.38,6375.51 4889.57,6403.32" style="fill:none;stroke:#000000;stroke-width:22.63"/>
	<polygon points="4801.47,6566.13 4845.28,6522.32 4889.10,6566.13 4845.28,6609.94" style="fill:#000000"/>
	<polygon points="4817.47,6566.13 4845.28,6538.32 4873.10,6566.13 4845.28,6593.94" style="fill:none;stroke:#000000;stroke-width:22.63"/>
	<polygon points="4317.05,6757.02 4360.86,6713.21 4404.68,6757.02 4360.86,6800.83" style="fill:#000000"/>
	<polygon points="4333.05,6757.02 4360.86,6729.21 4388.68,6757.02 4360.86,6784.83" style="fill:none;stroke:#000000;stroke-width:22.63"/>
	<polygon points="4591.94,6947.64 4635.75,6903.83 4679.56,6947.64 4635.75,6991.45" style="fill:#000000"/>
	<polygon points="4607.93,6947.64 4635.75,6919.83 4663.56,6947.64 4635.75,6975.45" style="fill:none;stroke:#000000;stroke-width:22.63"/>
	<polygon points="4912.45,7138.53 4956.26,7094.72 5000.08,7138.53 4956.26,7182.34" style="fill:#000000"/>
	<polygon points="4928.45,7138.53 4956.26,7110.72 4984.08,7138.53 4956.26,7166.34" style="fill:none;stroke:#000000;stroke-width:22.63"/>
	<polygon points="4057.29,7329.15 4101.10,7285.34 4144.91,7329.15 4101.10,7372.96" style="fill:#000000"/>
	<polygon points="4073.29,7329.15 4101.10,7301.34 4128.91,7329.15 4101.10,7356.96" style="fill:none;stroke:#000000;stroke-width:22.63"/>
	<polygon points="4648.10,7520.04 4691.91,7476.23 4735.72,7520.04 4691.91,7563.85" style="fill:#000000"/>
	<polygon points="4664.10,7520.04 4691.91,7492.23 4719.72,7520.04 4691.91,7547.85" style="fill:none;stroke:#000000;stroke-width:22.63"/>
	<polygon points="4856.29,7710.66 4900.10,7666.85 4943.91,7710.66 4900.10,7754.47" style="fill:#000000"/>
	<polygon points="4872.29,7710.66 4900.10,7682.85 4927.91,7710.66 4900.10,7738.47" style="fill:none;stroke:#000000;stroke-width:22.63"/>
	<line x1="397.74" y1="8282.79" x2="7222.83" y2="8282.79" style="stroke:#000000;stroke-width:15.08"/>
	<text x="3729.82" y="8420.09" style="font-family:'Helvetica';font-size:121.51px;fill:#000000" text-anchor="middle"> </text>
	<text x="4924.13" y="8420.09" style="font-family:'Helvetica';font-size:121.51px;fill:#000000" text-anchor="middle"> </text>
	<line x1="4327.11" y1="8282.79" x2="4327.11" y2="8387.55" style="stroke:#000000;stroke-width:15.08"/>
	<text x="4327.11" y="8524.85" style="font-family:'Helvetica';font-size:121.51px;fill:#000000" text-anchor="middle">1</text>
	<line x1="3132.53" y1="8282.79" x2="3132.53" y2="8387.55" style="stroke:#000000;stroke-width:15.08"/>
	<text x="3132.53" y="8524.85" style="font-family:'Helvetica';font-size:121.51px;fill:#000000" text-anchor="middle">.25</text>
	<line x1="3729.82" y1="8282.79" x2="3729.82" y2="8387.55" style="stroke:#000000;stroke-width:15.08"/>
	<text x="3729.82" y="8524.85" style="font-family:'Helvetica';font-size:121.51px;fill:#000000" text-anchor="middle">.5</text>
	<line x1="4327.11" y1="8282.79" x2="4327.11" y2="8387.55" style="stroke:#000000;stroke-width:15.08"/>
	<text x="4327.11" y="8524.85" style="font-family:'Helvetica';font-size:121.51px;fill:#000000" text-anchor="middle">1</text>
	<line x1="4924.13" y1="8282.79" x2="4924.13" y2="8387.55" style="stroke:#000000;stroke-width:15.08"/>
	<text x="4924.13" y="8524.85" style="font-family:'Helvetica';font-size:121.51px;fill:#000000" text-anchor="middle">2</text>
	<line x1="5521.42" y1="8282.79" x2="5521.42" y2="8387.55" style="stroke:#000000;stroke-width:15.08"/>
	<text x="5521.42" y="8524.85" style="font-family:'Helvetica';font-size:121.51px;fill:#000000" text-anchor="middle">4</text>
	<line x1="4327.11" y1="8282.79" x2="4327.11" y2="8387.55" style="stroke:#000000;stroke-width:15.08"/>
	<text x="3810.29" y="544.24" style="font-family:'Helvetica';font-size:209.54px;fill:#000000" text-anchor="middle">complete case analysis</text>
	<text x="3810.29" y="228.56" style="font-family:'Helvetica';font-size:261.92px;fill:#000000" text-anchor="middle">positivetest</text>
</svg>
