<?xml version="1.0" encoding="UTF-8" standalone="no"?>
<!-- This is a Stata 16.1 generated SVG file (http://www.stata.com) -->

<svg version="1.1" width="11.28in" height="10.66in" viewBox="0 0 8120 7678" xmlns="http://www.w3.org/2000/svg" xmlns:xlink="http://www.w3.org/1999/xlink">
	<desc>Stata Graph - Graph</desc>
	<rect x="0" y="0" width="8120" height="7678" style="fill:#F0F0F0;stroke:none"/>
	<rect x="0.00" y="0.00" width="8119.75" height="7678.00" style="fill:#FFFFFF"/>
	<rect x="7.68" y="7.68" width="8104.39" height="7662.64" style="fill:none;stroke:#FFFFFF;stroke-width:15.36"/>
	<rect x="426.55" y="664.04" width="7346.82" height="6528.55" style="fill:#FFFFFF"/>
	<rect x="434.23" y="671.72" width="7331.47" height="6513.19" style="fill:none;stroke:#FFFFFF;stroke-width:15.36"/>
	<line x1="426.55" y1="1628.52" x2="7773.38" y2="1628.52" style="stroke:#C0C0C0;stroke-width:15.36"/>
	<text x="538.46" y="6833.47" style="font-family:'Helvetica';font-size:245.38px;fill:#000000">NOTE: Weights are from random effects analysis</text>
	<line x1="4244.98" y1="7192.59" x2="4244.98" y2="1628.52" style="stroke:#000000;stroke-width:15.36"/>
	<text x="538.46" y="6685.03" style="font-family:'Helvetica';font-size:245.38px;fill:#000000">.</text>
	<line x1="4244.98" y1="2147.93" x2="4244.98" y2="2147.93" style="stroke:#000000;stroke-width:23.03"/>
	<line x1="4619.77" y1="2444.56" x2="4789.02" y2="2444.56" style="stroke:#000000;stroke-width:23.03"/>
	<line x1="4609.37" y1="2741.44" x2="4863.12" y2="2741.44" style="stroke:#000000;stroke-width:23.03"/>
	<line x1="4340.90" y1="3038.06" x2="4841.55" y2="3038.06" style="stroke:#000000;stroke-width:23.03"/>
	<line x1="4297.00" y1="3334.94" x2="4676.36" y2="3334.94" style="stroke:#000000;stroke-width:23.03"/>
	<line x1="4244.98" y1="3631.57" x2="4244.98" y2="3631.57" style="stroke:#000000;stroke-width:23.03"/>
	<line x1="4562.17" y1="3928.44" x2="4743.35" y2="3928.44" style="stroke:#000000;stroke-width:23.03"/>
	<line x1="4462.19" y1="4225.07" x2="4731.93" y2="4225.07" style="stroke:#000000;stroke-width:23.03"/>
	<line x1="4207.94" y1="4521.95" x2="4756.29" y2="4521.95" style="stroke:#000000;stroke-width:23.03"/>
	<line x1="4385.31" y1="4818.57" x2="4778.87" y2="4818.57" style="stroke:#000000;stroke-width:23.03"/>
	<line x1="4244.98" y1="5115.45" x2="4244.98" y2="5115.45" style="stroke:#000000;stroke-width:23.03"/>
	<line x1="4566.99" y1="5412.08" x2="4747.92" y2="5412.08" style="stroke:#000000;stroke-width:23.03"/>
	<line x1="4469.55" y1="5708.96" x2="4739.29" y2="5708.96" style="stroke:#000000;stroke-width:23.03"/>
	<line x1="4215.04" y1="6005.58" x2="4763.40" y2="6005.58" style="stroke:#000000;stroke-width:23.03"/>
	<line x1="4390.64" y1="6302.46" x2="4783.95" y2="6302.46" style="stroke:#000000;stroke-width:23.03"/>
	<text x="538.46" y="1937.00" style="font-family:'Helvetica';font-size:245.38px;fill:#000000">cpnsdeath</text>
	<text x="538.46" y="2233.87" style="font-family:'Helvetica';font-size:245.38px;fill:#000000">model1</text>
	<text x="538.46" y="3717.51" style="font-family:'Helvetica';font-size:245.38px;fill:#000000">model2</text>
	<text x="538.46" y="5201.40" style="font-family:'Helvetica';font-size:245.38px;fill:#000000">model3</text>
	<text x="538.46" y="1343.49" style="font-family:'Helvetica';font-size:245.38px;fill:#000000">model</text>
	<text x="1565.38" y="2233.87" style="font-family:'Helvetica';font-size:245.38px;fill:#000000">White</text>
	<text x="1565.38" y="2530.50" style="font-family:'Helvetica';font-size:245.38px;fill:#000000">South Asian</text>
	<text x="1565.38" y="2827.38" style="font-family:'Helvetica';font-size:245.38px;fill:#000000">Black</text>
	<text x="1565.38" y="3124.00" style="font-family:'Helvetica';font-size:245.38px;fill:#000000">Mixed</text>
	<text x="1565.38" y="3420.88" style="font-family:'Helvetica';font-size:245.38px;fill:#000000">Other</text>
	<text x="1565.38" y="3717.51" style="font-family:'Helvetica';font-size:245.38px;fill:#000000">White</text>
	<text x="1565.38" y="4014.39" style="font-family:'Helvetica';font-size:245.38px;fill:#000000">South Asian</text>
	<text x="1565.38" y="4311.01" style="font-family:'Helvetica';font-size:245.38px;fill:#000000">Black</text>
	<text x="1565.38" y="4607.89" style="font-family:'Helvetica';font-size:245.38px;fill:#000000">Mixed</text>
	<text x="1565.38" y="4904.52" style="font-family:'Helvetica';font-size:245.38px;fill:#000000">Other</text>
	<text x="1565.38" y="5201.40" style="font-family:'Helvetica';font-size:245.38px;fill:#000000">White</text>
	<text x="1565.38" y="5498.02" style="font-family:'Helvetica';font-size:245.38px;fill:#000000">South Asian</text>
	<text x="1565.38" y="5794.90" style="font-family:'Helvetica';font-size:245.38px;fill:#000000">Black</text>
	<text x="1565.38" y="6091.52" style="font-family:'Helvetica';font-size:245.38px;fill:#000000">Mixed</text>
	<text x="1565.38" y="6388.40" style="font-family:'Helvetica';font-size:245.38px;fill:#000000">Other</text>
	<text x="1565.38" y="1343.49" style="font-family:'Helvetica';font-size:245.38px;fill:#000000">eth5</text>
	<text x="5642.39" y="2233.87" style="font-family:'Helvetica';font-size:245.38px;fill:#000000">1.00 (1.00, 1.00)</text>
	<text x="5642.39" y="2530.50" style="font-family:'Helvetica';font-size:245.38px;fill:#000000">1.64 (1.50, 1.80)</text>
	<text x="5642.39" y="2827.38" style="font-family:'Helvetica';font-size:245.38px;fill:#000000">1.70 (1.48, 1.95)</text>
	<text x="5642.39" y="3124.00" style="font-family:'Helvetica';font-size:245.38px;fill:#000000">1.45 (1.11, 1.90)</text>
	<text x="5642.39" y="3420.88" style="font-family:'Helvetica';font-size:245.38px;fill:#000000">1.30 (1.06, 1.59)</text>
	<text x="5642.39" y="3717.51" style="font-family:'Helvetica';font-size:245.38px;fill:#000000">1.00 (1.00, 1.00)</text>
	<text x="5642.39" y="4014.39" style="font-family:'Helvetica';font-size:245.38px;fill:#000000">1.55 (1.41, 1.71)</text>
	<text x="5642.39" y="4311.01" style="font-family:'Helvetica';font-size:245.38px;fill:#000000">1.46 (1.26, 1.69)</text>
	<text x="5642.39" y="4607.89" style="font-family:'Helvetica';font-size:245.38px;fill:#000000">1.29 (0.96, 1.74)</text>
	<text x="5642.39" y="4904.52" style="font-family:'Helvetica';font-size:245.38px;fill:#000000">1.44 (1.16, 1.78)</text>
	<text x="5642.39" y="5201.40" style="font-family:'Helvetica';font-size:245.38px;fill:#000000">1.00 (1.00, 1.00)</text>
	<text x="5642.39" y="5498.02" style="font-family:'Helvetica';font-size:245.38px;fill:#000000">1.56 (1.42, 1.72)</text>
	<text x="5642.39" y="5794.90" style="font-family:'Helvetica';font-size:245.38px;fill:#000000">1.47 (1.27, 1.70)</text>
	<text x="5642.39" y="6091.52" style="font-family:'Helvetica';font-size:245.38px;fill:#000000">1.30 (0.97, 1.75)</text>
	<text x="5642.39" y="6388.40" style="font-family:'Helvetica';font-size:245.38px;fill:#000000">1.45 (1.17, 1.79)</text>
	<text x="5642.39" y="1343.49" style="font-family:'Helvetica';font-size:245.38px;fill:#000000">Ratio (95% CI)</text>
	<text x="5642.39" y="1046.87" style="font-family:'Helvetica';font-size:245.38px;fill:#000000">Hazard</text>
	<text x="5642.39" y="2233.87" style="font-family:'Helvetica';font-size:245.38px;fill:#000000">1.00 (1.00, 1.00)</text>
	<text x="5642.39" y="2530.50" style="font-family:'Helvetica';font-size:245.38px;fill:#000000">1.64 (1.50, 1.80)</text>
	<text x="5642.39" y="2827.38" style="font-family:'Helvetica';font-size:245.38px;fill:#000000">1.70 (1.48, 1.95)</text>
	<text x="5642.39" y="3124.00" style="font-family:'Helvetica';font-size:245.38px;fill:#000000">1.45 (1.11, 1.90)</text>
	<text x="5642.39" y="3420.88" style="font-family:'Helvetica';font-size:245.38px;fill:#000000">1.30 (1.06, 1.59)</text>
	<text x="5642.39" y="3717.51" style="font-family:'Helvetica';font-size:245.38px;fill:#000000">1.00 (1.00, 1.00)</text>
	<text x="5642.39" y="4014.39" style="font-family:'Helvetica';font-size:245.38px;fill:#000000">1.55 (1.41, 1.71)</text>
	<text x="5642.39" y="4311.01" style="font-family:'Helvetica';font-size:245.38px;fill:#000000">1.46 (1.26, 1.69)</text>
	<text x="5642.39" y="4607.89" style="font-family:'Helvetica';font-size:245.38px;fill:#000000">1.29 (0.96, 1.74)</text>
	<text x="5642.39" y="4904.52" style="font-family:'Helvetica';font-size:245.38px;fill:#000000">1.44 (1.16, 1.78)</text>
	<text x="5642.39" y="5201.40" style="font-family:'Helvetica';font-size:245.38px;fill:#000000">1.00 (1.00, 1.00)</text>
	<text x="5642.39" y="5498.02" style="font-family:'Helvetica';font-size:245.38px;fill:#000000">1.56 (1.42, 1.72)</text>
	<text x="5642.39" y="5794.90" style="font-family:'Helvetica';font-size:245.38px;fill:#000000">1.47 (1.27, 1.70)</text>
	<text x="5642.39" y="6091.52" style="font-family:'Helvetica';font-size:245.38px;fill:#000000">1.30 (0.97, 1.75)</text>
	<text x="5642.39" y="6388.40" style="font-family:'Helvetica';font-size:245.38px;fill:#000000">1.45 (1.17, 1.79)</text>
	<text x="5642.39" y="1343.49" style="font-family:'Helvetica';font-size:245.38px;fill:#000000">Ratio (95% CI)</text>
	<text x="5642.39" y="1046.87" style="font-family:'Helvetica';font-size:245.38px;fill:#000000">Hazard</text>
	<polygon points="4200.02,2147.93 4244.73,2103.22 4289.44,2147.93 4244.73,2192.64" style="fill:#000000"/>
	<polygon points="4216.31,2147.93 4244.73,2119.51 4273.15,2147.93 4244.73,2176.35" style="fill:none;stroke:#000000;stroke-width:23.03"/>
	<polygon points="4659.56,2444.81 4704.27,2400.10 4748.98,2444.81 4704.27,2489.52" style="fill:#000000"/>
	<polygon points="4675.85,2444.81 4704.27,2416.39 4732.69,2444.81 4704.27,2473.23" style="fill:none;stroke:#000000;stroke-width:23.03"/>
	<polygon points="4691.54,2741.44 4736.24,2696.73 4780.95,2741.44 4736.24,2786.14" style="fill:#000000"/>
	<polygon points="4707.82,2741.44 4736.24,2713.02 4764.66,2741.44 4736.24,2769.86" style="fill:none;stroke:#000000;stroke-width:23.03"/>
	<polygon points="4546.39,3038.31 4591.10,2993.61 4635.81,3038.31 4591.10,3083.02" style="fill:#000000"/>
	<polygon points="4562.68,3038.31 4591.10,3009.89 4619.52,3038.31 4591.10,3066.73" style="fill:none;stroke:#000000;stroke-width:23.03"/>
	<polygon points="4441.85,3334.94 4486.55,3290.23 4531.26,3334.94 4486.55,3379.65" style="fill:#000000"/>
	<polygon points="4458.13,3334.94 4486.55,3306.52 4514.97,3334.94 4486.55,3363.36" style="fill:none;stroke:#000000;stroke-width:23.03"/>
	<polygon points="4200.02,3631.82 4244.73,3587.11 4289.44,3631.82 4244.73,3676.53" style="fill:#000000"/>
	<polygon points="4216.31,3631.82 4244.73,3603.40 4273.15,3631.82 4244.73,3660.24" style="fill:none;stroke:#000000;stroke-width:23.03"/>
	<polygon points="4607.80,3928.44 4652.51,3883.74 4697.21,3928.44 4652.51,3973.15" style="fill:#000000"/>
	<polygon points="4624.09,3928.44 4652.51,3900.02 4680.93,3928.44 4652.51,3956.86" style="fill:none;stroke:#000000;stroke-width:23.03"/>
	<polygon points="4552.23,4225.32 4596.94,4180.62 4641.64,4225.32 4596.94,4270.03" style="fill:#000000"/>
	<polygon points="4568.52,4225.32 4596.94,4196.90 4625.36,4225.32 4596.94,4253.74" style="fill:none;stroke:#000000;stroke-width:23.03"/>
	<polygon points="4437.28,4521.95 4481.99,4477.24 4526.69,4521.95 4481.99,4566.66" style="fill:#000000"/>
	<polygon points="4453.57,4521.95 4481.99,4493.53 4510.41,4521.95 4481.99,4550.37" style="fill:none;stroke:#000000;stroke-width:23.03"/>
	<polygon points="4537.26,4818.83 4581.96,4774.12 4626.67,4818.83 4581.96,4863.54" style="fill:#000000"/>
	<polygon points="4553.54,4818.83 4581.96,4790.41 4610.38,4818.83 4581.96,4847.25" style="fill:none;stroke:#000000;stroke-width:23.03"/>
	<polygon points="4200.02,5115.45 4244.73,5070.74 4289.44,5115.45 4244.73,5160.16" style="fill:#000000"/>
	<polygon points="4216.31,5115.45 4244.73,5087.03 4273.15,5115.45 4244.73,5143.87" style="fill:none;stroke:#000000;stroke-width:23.03"/>
	<polygon points="4612.62,5412.33 4657.33,5367.62 4702.04,5412.33 4657.33,5457.04" style="fill:#000000"/>
	<polygon points="4628.91,5412.33 4657.33,5383.91 4685.75,5412.33 4657.33,5440.75" style="fill:none;stroke:#000000;stroke-width:23.03"/>
	<polygon points="4559.59,5708.96 4604.29,5664.25 4649.00,5708.96 4604.29,5753.66" style="fill:#000000"/>
	<polygon points="4575.87,5708.96 4604.29,5680.54 4632.71,5708.96 4604.29,5737.38" style="fill:none;stroke:#000000;stroke-width:23.03"/>
	<polygon points="4444.38,6005.84 4489.09,5961.13 4533.80,6005.84 4489.09,6050.54" style="fill:#000000"/>
	<polygon points="4460.67,6005.84 4489.09,5977.42 4517.51,6005.84 4489.09,6034.26" style="fill:none;stroke:#000000;stroke-width:23.03"/>
	<polygon points="4542.58,6302.46 4587.29,6257.75 4632.00,6302.46 4587.29,6347.17" style="fill:#000000"/>
	<polygon points="4558.87,6302.46 4587.29,6274.04 4615.71,6302.46 4587.29,6330.88" style="fill:none;stroke:#000000;stroke-width:23.03"/>
	<line x1="426.55" y1="7192.59" x2="7773.38" y2="7192.59" style="stroke:#000000;stroke-width:15.36"/>
	<text x="3601.98" y="7417.51" style="font-family:'Helvetica';font-size:245.38px;fill:#000000" text-anchor="middle"> </text>
	<text x="4887.73" y="7417.51" style="font-family:'Helvetica';font-size:245.38px;fill:#000000" text-anchor="middle"> </text>
	<line x1="4244.98" y1="7192.59" x2="4244.98" y2="7299.16" style="stroke:#000000;stroke-width:15.36"/>
	<text x="4244.98" y="7524.33" style="font-family:'Helvetica';font-size:245.38px;fill:#000000" text-anchor="middle">1</text>
	<line x1="2959.23" y1="7192.59" x2="2959.23" y2="7299.16" style="stroke:#000000;stroke-width:15.36"/>
	<text x="2959.23" y="7524.33" style="font-family:'Helvetica';font-size:245.38px;fill:#000000" text-anchor="middle">.25</text>
	<line x1="3601.98" y1="7192.59" x2="3601.98" y2="7299.16" style="stroke:#000000;stroke-width:15.36"/>
	<text x="3601.98" y="7524.33" style="font-family:'Helvetica';font-size:245.38px;fill:#000000" text-anchor="middle">.5</text>
	<line x1="4244.98" y1="7192.59" x2="4244.98" y2="7299.16" style="stroke:#000000;stroke-width:15.36"/>
	<text x="4244.98" y="7524.33" style="font-family:'Helvetica';font-size:245.38px;fill:#000000" text-anchor="middle">1</text>
	<line x1="4887.73" y1="7192.59" x2="4887.73" y2="7299.16" style="stroke:#000000;stroke-width:15.36"/>
	<text x="4887.73" y="7524.33" style="font-family:'Helvetica';font-size:245.38px;fill:#000000" text-anchor="middle">2</text>
	<line x1="5530.48" y1="7192.59" x2="5530.48" y2="7299.16" style="stroke:#000000;stroke-width:15.36"/>
	<text x="5530.48" y="7524.33" style="font-family:'Helvetica';font-size:245.38px;fill:#000000" text-anchor="middle">4</text>
	<line x1="4244.98" y1="7192.59" x2="4244.98" y2="7299.16" style="stroke:#000000;stroke-width:15.36"/>
	<text x="4099.84" y="554.05" style="font-family:'Helvetica';font-size:213.15px;fill:#000000" text-anchor="middle">complete case analysis</text>
	<text x="4099.84" y="232.48" style="font-family:'Helvetica';font-size:266.69px;fill:#000000" text-anchor="middle">cpnsdeath</text>
</svg>
