<?xml version="1.0" encoding="UTF-8" standalone="no"?>
<!-- This is a Stata 16.1 generated SVG file (http://www.stata.com) -->

<svg version="1.1" width="11.28in" height="10.66in" viewBox="0 0 8120 7678" xmlns="http://www.w3.org/2000/svg" xmlns:xlink="http://www.w3.org/1999/xlink">
	<desc>Stata Graph - Graph</desc>
	<rect x="0" y="0" width="8120" height="7678" style="fill:#F0F0F0;stroke:none"/>
	<rect x="0.00" y="0.00" width="8119.75" height="7678.00" style="fill:#FFFFFF"/>
	<rect x="7.68" y="7.68" width="8104.39" height="7662.64" style="fill:none;stroke:#FFFFFF;stroke-width:15.36"/>
	<rect x="426.55" y="664.04" width="7346.82" height="6528.55" style="fill:#FFFFFF"/>
	<rect x="434.23" y="671.72" width="7331.47" height="6513.19" style="fill:none;stroke:#FFFFFF;stroke-width:15.36"/>
	<line x1="426.55" y1="1628.52" x2="7773.38" y2="1628.52" style="stroke:#C0C0C0;stroke-width:15.36"/>
	<text x="538.46" y="6833.47" style="font-family:'Helvetica';font-size:245.38px;fill:#000000">NOTE: Weights are from random effects analysis</text>
	<line x1="4244.98" y1="7192.59" x2="4244.98" y2="1628.52" style="stroke:#000000;stroke-width:15.36"/>
	<text x="538.46" y="6685.03" style="font-family:'Helvetica';font-size:245.38px;fill:#000000">.</text>
	<line x1="4244.98" y1="2147.93" x2="4244.98" y2="2147.93" style="stroke:#000000;stroke-width:23.03"/>
	<line x1="4315.02" y1="2444.56" x2="4334.05" y2="2444.56" style="stroke:#000000;stroke-width:23.03"/>
	<line x1="4282.54" y1="2741.44" x2="4314.00" y2="2741.44" style="stroke:#000000;stroke-width:23.03"/>
	<line x1="4249.04" y1="3038.06" x2="4293.96" y2="3038.06" style="stroke:#000000;stroke-width:23.03"/>
	<line x1="3922.21" y1="3334.94" x2="3961.29" y2="3334.94" style="stroke:#000000;stroke-width:23.03"/>
	<line x1="4244.98" y1="3631.57" x2="4244.98" y2="3631.57" style="stroke:#000000;stroke-width:23.03"/>
	<line x1="4265.28" y1="3928.44" x2="4287.61" y2="3928.44" style="stroke:#000000;stroke-width:23.03"/>
	<line x1="4282.54" y1="4225.07" x2="4318.57" y2="4225.07" style="stroke:#000000;stroke-width:23.03"/>
	<line x1="4265.28" y1="4521.95" x2="4318.06" y2="4521.95" style="stroke:#000000;stroke-width:23.03"/>
	<line x1="4100.60" y1="4818.57" x2="4147.29" y2="4818.57" style="stroke:#000000;stroke-width:23.03"/>
	<line x1="4244.98" y1="5115.45" x2="4244.98" y2="5115.45" style="stroke:#000000;stroke-width:23.03"/>
	<line x1="4263.51" y1="5412.08" x2="4285.84" y2="5412.08" style="stroke:#000000;stroke-width:23.03"/>
	<line x1="4281.52" y1="5708.96" x2="4317.56" y2="5708.96" style="stroke:#000000;stroke-width:23.03"/>
	<line x1="4263.51" y1="6005.58" x2="4316.03" y2="6005.58" style="stroke:#000000;stroke-width:23.03"/>
	<line x1="4095.27" y1="6302.46" x2="4141.96" y2="6302.46" style="stroke:#000000;stroke-width:23.03"/>
	<text x="538.46" y="1937.00" style="font-family:'Helvetica';font-size:245.38px;fill:#000000">tested</text>
	<text x="538.46" y="2233.87" style="font-family:'Helvetica';font-size:245.38px;fill:#000000">model1</text>
	<text x="538.46" y="3717.51" style="font-family:'Helvetica';font-size:245.38px;fill:#000000">model2</text>
	<text x="538.46" y="5201.40" style="font-family:'Helvetica';font-size:245.38px;fill:#000000">model3</text>
	<text x="538.46" y="1343.49" style="font-family:'Helvetica';font-size:245.38px;fill:#000000">model</text>
	<text x="1565.38" y="2233.87" style="font-family:'Helvetica';font-size:245.38px;fill:#000000">White</text>
	<text x="1565.38" y="2530.50" style="font-family:'Helvetica';font-size:245.38px;fill:#000000">South Asian</text>
	<text x="1565.38" y="2827.38" style="font-family:'Helvetica';font-size:245.38px;fill:#000000">Black</text>
	<text x="1565.38" y="3124.00" style="font-family:'Helvetica';font-size:245.38px;fill:#000000">Mixed</text>
	<text x="1565.38" y="3420.88" style="font-family:'Helvetica';font-size:245.38px;fill:#000000">Other</text>
	<text x="1565.38" y="3717.51" style="font-family:'Helvetica';font-size:245.38px;fill:#000000">White</text>
	<text x="1565.38" y="4014.39" style="font-family:'Helvetica';font-size:245.38px;fill:#000000">South Asian</text>
	<text x="1565.38" y="4311.01" style="font-family:'Helvetica';font-size:245.38px;fill:#000000">Black</text>
	<text x="1565.38" y="4607.89" style="font-family:'Helvetica';font-size:245.38px;fill:#000000">Mixed</text>
	<text x="1565.38" y="4904.52" style="font-family:'Helvetica';font-size:245.38px;fill:#000000">Other</text>
	<text x="1565.38" y="5201.40" style="font-family:'Helvetica';font-size:245.38px;fill:#000000">White</text>
	<text x="1565.38" y="5498.02" style="font-family:'Helvetica';font-size:245.38px;fill:#000000">South Asian</text>
	<text x="1565.38" y="5794.90" style="font-family:'Helvetica';font-size:245.38px;fill:#000000">Black</text>
	<text x="1565.38" y="6091.52" style="font-family:'Helvetica';font-size:245.38px;fill:#000000">Mixed</text>
	<text x="1565.38" y="6388.40" style="font-family:'Helvetica';font-size:245.38px;fill:#000000">Other</text>
	<text x="1565.38" y="1343.49" style="font-family:'Helvetica';font-size:245.38px;fill:#000000">eth5</text>
	<text x="5642.39" y="2233.87" style="font-family:'Helvetica';font-size:245.38px;fill:#000000">1.00 (1.00, 1.00)</text>
	<text x="5642.39" y="2530.50" style="font-family:'Helvetica';font-size:245.38px;fill:#000000">1.09 (1.08, 1.10)</text>
	<text x="5642.39" y="2827.38" style="font-family:'Helvetica';font-size:245.38px;fill:#000000">1.06 (1.04, 1.08)</text>
	<text x="5642.39" y="3124.00" style="font-family:'Helvetica';font-size:245.38px;fill:#000000">1.03 (1.00, 1.05)</text>
	<text x="5642.39" y="3420.88" style="font-family:'Helvetica';font-size:245.38px;fill:#000000">0.72 (0.71, 0.74)</text>
	<text x="5642.39" y="3717.51" style="font-family:'Helvetica';font-size:245.38px;fill:#000000">1.00 (1.00, 1.00)</text>
	<text x="5642.39" y="4014.39" style="font-family:'Helvetica';font-size:245.38px;fill:#000000">1.03 (1.02, 1.05)</text>
	<text x="5642.39" y="4311.01" style="font-family:'Helvetica';font-size:245.38px;fill:#000000">1.06 (1.04, 1.08)</text>
	<text x="5642.39" y="4607.89" style="font-family:'Helvetica';font-size:245.38px;fill:#000000">1.05 (1.02, 1.08)</text>
	<text x="5642.39" y="4904.52" style="font-family:'Helvetica';font-size:245.38px;fill:#000000">0.88 (0.86, 0.90)</text>
	<text x="5642.39" y="5201.40" style="font-family:'Helvetica';font-size:245.38px;fill:#000000">1.00 (1.00, 1.00)</text>
	<text x="5642.39" y="5498.02" style="font-family:'Helvetica';font-size:245.38px;fill:#000000">1.03 (1.02, 1.05)</text>
	<text x="5642.39" y="5794.90" style="font-family:'Helvetica';font-size:245.38px;fill:#000000">1.06 (1.04, 1.08)</text>
	<text x="5642.39" y="6091.52" style="font-family:'Helvetica';font-size:245.38px;fill:#000000">1.05 (1.02, 1.08)</text>
	<text x="5642.39" y="6388.40" style="font-family:'Helvetica';font-size:245.38px;fill:#000000">0.87 (0.85, 0.90)</text>
	<text x="5642.39" y="1343.49" style="font-family:'Helvetica';font-size:245.38px;fill:#000000">Ratio (95% CI)</text>
	<text x="5642.39" y="1046.87" style="font-family:'Helvetica';font-size:245.38px;fill:#000000">Hazard</text>
	<text x="5642.39" y="2233.87" style="font-family:'Helvetica';font-size:245.38px;fill:#000000">1.00 (1.00, 1.00)</text>
	<text x="5642.39" y="2530.50" style="font-family:'Helvetica';font-size:245.38px;fill:#000000">1.09 (1.08, 1.10)</text>
	<text x="5642.39" y="2827.38" style="font-family:'Helvetica';font-size:245.38px;fill:#000000">1.06 (1.04, 1.08)</text>
	<text x="5642.39" y="3124.00" style="font-family:'Helvetica';font-size:245.38px;fill:#000000">1.03 (1.00, 1.05)</text>
	<text x="5642.39" y="3420.88" style="font-family:'Helvetica';font-size:245.38px;fill:#000000">0.72 (0.71, 0.74)</text>
	<text x="5642.39" y="3717.51" style="font-family:'Helvetica';font-size:245.38px;fill:#000000">1.00 (1.00, 1.00)</text>
	<text x="5642.39" y="4014.39" style="font-family:'Helvetica';font-size:245.38px;fill:#000000">1.03 (1.02, 1.05)</text>
	<text x="5642.39" y="4311.01" style="font-family:'Helvetica';font-size:245.38px;fill:#000000">1.06 (1.04, 1.08)</text>
	<text x="5642.39" y="4607.89" style="font-family:'Helvetica';font-size:245.38px;fill:#000000">1.05 (1.02, 1.08)</text>
	<text x="5642.39" y="4904.52" style="font-family:'Helvetica';font-size:245.38px;fill:#000000">0.88 (0.86, 0.90)</text>
	<text x="5642.39" y="5201.40" style="font-family:'Helvetica';font-size:245.38px;fill:#000000">1.00 (1.00, 1.00)</text>
	<text x="5642.39" y="5498.02" style="font-family:'Helvetica';font-size:245.38px;fill:#000000">1.03 (1.02, 1.05)</text>
	<text x="5642.39" y="5794.90" style="font-family:'Helvetica';font-size:245.38px;fill:#000000">1.06 (1.04, 1.08)</text>
	<text x="5642.39" y="6091.52" style="font-family:'Helvetica';font-size:245.38px;fill:#000000">1.05 (1.02, 1.08)</text>
	<text x="5642.39" y="6388.40" style="font-family:'Helvetica';font-size:245.38px;fill:#000000">0.87 (0.85, 0.90)</text>
	<text x="5642.39" y="1343.49" style="font-family:'Helvetica';font-size:245.38px;fill:#000000">Ratio (95% CI)</text>
	<text x="5642.39" y="1046.87" style="font-family:'Helvetica';font-size:245.38px;fill:#000000">Hazard</text>
	<polygon points="4200.02,2147.93 4244.73,2103.22 4289.44,2147.93 4244.73,2192.64" style="fill:#000000"/>
	<polygon points="4216.31,2147.93 4244.73,2119.51 4273.15,2147.93 4244.73,2176.35" style="fill:none;stroke:#000000;stroke-width:23.03"/>
	<polygon points="4279.70,2444.81 4324.41,2400.10 4369.12,2444.81 4324.41,2489.52" style="fill:#000000"/>
	<polygon points="4295.99,2444.81 4324.41,2416.39 4352.83,2444.81 4324.41,2473.23" style="fill:none;stroke:#000000;stroke-width:23.03"/>
	<polygon points="4253.56,2741.44 4298.27,2696.73 4342.98,2741.44 4298.27,2786.14" style="fill:#000000"/>
	<polygon points="4269.85,2741.44 4298.27,2713.02 4326.69,2741.44 4298.27,2769.86" style="fill:none;stroke:#000000;stroke-width:23.03"/>
	<polygon points="4226.67,3038.31 4271.37,2993.61 4316.08,3038.31 4271.37,3083.02" style="fill:#000000"/>
	<polygon points="4242.95,3038.31 4271.37,3009.89 4299.79,3038.31 4271.37,3066.73" style="fill:none;stroke:#000000;stroke-width:23.03"/>
	<polygon points="3897.04,3334.94 3941.75,3290.23 3986.46,3334.94 3941.75,3379.65" style="fill:#000000"/>
	<polygon points="3913.33,3334.94 3941.75,3306.52 3970.17,3334.94 3941.75,3363.36" style="fill:none;stroke:#000000;stroke-width:23.03"/>
	<polygon points="4200.02,3631.82 4244.73,3587.11 4289.44,3631.82 4244.73,3676.53" style="fill:#000000"/>
	<polygon points="4216.31,3631.82 4244.73,3603.40 4273.15,3631.82 4244.73,3660.24" style="fill:none;stroke:#000000;stroke-width:23.03"/>
	<polygon points="4231.74,3928.44 4276.45,3883.74 4321.16,3928.44 4276.45,3973.15" style="fill:#000000"/>
	<polygon points="4248.03,3928.44 4276.45,3900.02 4304.87,3928.44 4276.45,3956.86" style="fill:none;stroke:#000000;stroke-width:23.03"/>
	<polygon points="4255.85,4225.32 4300.56,4180.62 4345.26,4225.32 4300.56,4270.03" style="fill:#000000"/>
	<polygon points="4272.14,4225.32 4300.56,4196.90 4328.98,4225.32 4300.56,4253.74" style="fill:none;stroke:#000000;stroke-width:23.03"/>
	<polygon points="4246.71,4521.95 4291.42,4477.24 4336.13,4521.95 4291.42,4566.66" style="fill:#000000"/>
	<polygon points="4263.00,4521.95 4291.42,4493.53 4319.84,4521.95 4291.42,4550.37" style="fill:none;stroke:#000000;stroke-width:23.03"/>
	<polygon points="4078.98,4818.83 4123.69,4774.12 4168.40,4818.83 4123.69,4863.54" style="fill:#000000"/>
	<polygon points="4095.27,4818.83 4123.69,4790.41 4152.11,4818.83 4123.69,4847.25" style="fill:none;stroke:#000000;stroke-width:23.03"/>
	<polygon points="4200.02,5115.45 4244.73,5070.74 4289.44,5115.45 4244.73,5160.16" style="fill:#000000"/>
	<polygon points="4216.31,5115.45 4244.73,5087.03 4273.15,5115.45 4244.73,5143.87" style="fill:none;stroke:#000000;stroke-width:23.03"/>
	<polygon points="4229.71,5412.33 4274.42,5367.62 4319.13,5412.33 4274.42,5457.04" style="fill:#000000"/>
	<polygon points="4246.00,5412.33 4274.42,5383.91 4302.84,5412.33 4274.42,5440.75" style="fill:none;stroke:#000000;stroke-width:23.03"/>
	<polygon points="4254.83,5708.96 4299.54,5664.25 4344.25,5708.96 4299.54,5753.66" style="fill:#000000"/>
	<polygon points="4271.12,5708.96 4299.54,5680.54 4327.96,5708.96 4299.54,5737.38" style="fill:none;stroke:#000000;stroke-width:23.03"/>
	<polygon points="4244.94,6005.84 4289.64,5961.13 4334.35,6005.84 4289.64,6050.54" style="fill:#000000"/>
	<polygon points="4261.22,6005.84 4289.64,5977.42 4318.06,6005.84 4289.64,6034.26" style="fill:none;stroke:#000000;stroke-width:23.03"/>
	<polygon points="4073.91,6302.46 4118.62,6257.75 4163.32,6302.46 4118.62,6347.17" style="fill:#000000"/>
	<polygon points="4090.20,6302.46 4118.62,6274.04 4147.04,6302.46 4118.62,6330.88" style="fill:none;stroke:#000000;stroke-width:23.03"/>
	<line x1="426.55" y1="7192.59" x2="7773.38" y2="7192.59" style="stroke:#000000;stroke-width:15.36"/>
	<text x="3601.98" y="7417.51" style="font-family:'Helvetica';font-size:245.38px;fill:#000000" text-anchor="middle"> </text>
	<text x="4887.73" y="7417.51" style="font-family:'Helvetica';font-size:245.38px;fill:#000000" text-anchor="middle"> </text>
	<line x1="4244.98" y1="7192.59" x2="4244.98" y2="7299.16" style="stroke:#000000;stroke-width:15.36"/>
	<text x="4244.98" y="7524.33" style="font-family:'Helvetica';font-size:245.38px;fill:#000000" text-anchor="middle">1</text>
	<line x1="2959.23" y1="7192.59" x2="2959.23" y2="7299.16" style="stroke:#000000;stroke-width:15.36"/>
	<text x="2959.23" y="7524.33" style="font-family:'Helvetica';font-size:245.38px;fill:#000000" text-anchor="middle">.25</text>
	<line x1="3601.98" y1="7192.59" x2="3601.98" y2="7299.16" style="stroke:#000000;stroke-width:15.36"/>
	<text x="3601.98" y="7524.33" style="font-family:'Helvetica';font-size:245.38px;fill:#000000" text-anchor="middle">.5</text>
	<line x1="4244.98" y1="7192.59" x2="4244.98" y2="7299.16" style="stroke:#000000;stroke-width:15.36"/>
	<text x="4244.98" y="7524.33" style="font-family:'Helvetica';font-size:245.38px;fill:#000000" text-anchor="middle">1</text>
	<line x1="4887.73" y1="7192.59" x2="4887.73" y2="7299.16" style="stroke:#000000;stroke-width:15.36"/>
	<text x="4887.73" y="7524.33" style="font-family:'Helvetica';font-size:245.38px;fill:#000000" text-anchor="middle">2</text>
	<line x1="5530.48" y1="7192.59" x2="5530.48" y2="7299.16" style="stroke:#000000;stroke-width:15.36"/>
	<text x="5530.48" y="7524.33" style="font-family:'Helvetica';font-size:245.38px;fill:#000000" text-anchor="middle">4</text>
	<line x1="4244.98" y1="7192.59" x2="4244.98" y2="7299.16" style="stroke:#000000;stroke-width:15.36"/>
	<text x="4099.84" y="554.05" style="font-family:'Helvetica';font-size:213.15px;fill:#000000" text-anchor="middle">complete case analysis</text>
	<text x="4099.84" y="232.48" style="font-family:'Helvetica';font-size:266.69px;fill:#000000" text-anchor="middle">tested</text>
</svg>
