<?xml version="1.0" encoding="UTF-8" standalone="no"?>
<!-- This is a Stata 16.1 generated SVG file (http://www.stata.com) -->

<svg version="1.1" width="10.47in" height="12.00in" viewBox="0 0 7542 8640" xmlns="http://www.w3.org/2000/svg" xmlns:xlink="http://www.w3.org/1999/xlink">
	<desc>Stata Graph - Graph</desc>
	<rect x="0" y="0" width="7542" height="8640" style="fill:#F0F0F0;stroke:none"/>
	<rect x="0.00" y="0.27" width="7542.00" height="8639.73" style="fill:#FFFFFF"/>
	<rect x="7.54" y="7.81" width="7526.92" height="8624.65" style="fill:none;stroke:#FFFFFF;stroke-width:15.08"/>
	<rect x="397.74" y="652.32" width="6825.09" height="7630.47" style="fill:#FFFFFF"/>
	<rect x="405.29" y="659.86" width="6810.01" height="7615.39" style="fill:none;stroke:#FFFFFF;stroke-width:15.08"/>
	<line x1="397.74" y1="1272.51" x2="7222.83" y2="1272.51" style="stroke:#C0C0C0;stroke-width:15.08"/>
	<text x="507.64" y="8039.45" style="font-family:'Helvetica';font-size:121.51px;fill:#000000">NOTE: Weights are from random effects analysis</text>
	<line x1="4327.11" y1="8282.79" x2="4327.11" y2="1272.51" style="stroke:#000000;stroke-width:15.08"/>
	<text x="507.64" y="7943.87" style="font-family:'Helvetica';font-size:121.51px;fill:#000000">.</text>
	<line x1="4327.11" y1="1606.23" x2="4327.11" y2="1606.23" style="stroke:#000000;stroke-width:22.63"/>
	<line x1="4255.83" y1="1797.12" x2="4630.08" y2="1797.12" style="stroke:#000000;stroke-width:22.63"/>
	<line x1="4142.96" y1="1987.74" x2="4329.54" y2="1987.74" style="stroke:#000000;stroke-width:22.63"/>
	<line x1="4541.78" y1="2178.63" x2="4766.17" y2="2178.63" style="stroke:#000000;stroke-width:22.63"/>
	<line x1="4619.55" y1="2369.25" x2="4892.81" y2="2369.25" style="stroke:#000000;stroke-width:22.63"/>
	<line x1="4605.50" y1="2560.14" x2="5182.54" y2="2560.14" style="stroke:#000000;stroke-width:22.63"/>
	<line x1="4474.54" y1="2750.76" x2="4802.89" y2="2750.76" style="stroke:#000000;stroke-width:22.63"/>
	<line x1="4778.86" y1="2941.65" x2="5157.70" y2="2941.65" style="stroke:#000000;stroke-width:22.63"/>
	<line x1="3891.30" y1="3132.27" x2="4690.02" y2="3132.27" style="stroke:#000000;stroke-width:22.63"/>
	<line x1="4411.09" y1="3323.16" x2="4876.61" y2="3323.16" style="stroke:#000000;stroke-width:22.63"/>
	<line x1="4681.65" y1="3513.78" x2="4918.46" y2="3513.78" style="stroke:#000000;stroke-width:22.63"/>
	<line x1="4327.11" y1="3704.67" x2="4327.11" y2="3704.67" style="stroke:#000000;stroke-width:22.63"/>
	<line x1="4291.74" y1="3895.29" x2="4671.39" y2="3895.29" style="stroke:#000000;stroke-width:22.63"/>
	<line x1="4208.03" y1="4086.18" x2="4402.99" y2="4086.18" style="stroke:#000000;stroke-width:22.63"/>
	<line x1="4547.99" y1="4276.80" x2="4784.26" y2="4276.80" style="stroke:#000000;stroke-width:22.63"/>
	<line x1="4468.33" y1="4467.69" x2="4755.91" y2="4467.69" style="stroke:#000000;stroke-width:22.63"/>
	<line x1="4451.05" y1="4658.31" x2="5030.79" y2="4658.31" style="stroke:#000000;stroke-width:22.63"/>
	<line x1="4329.27" y1="4849.20" x2="4669.23" y2="4849.20" style="stroke:#000000;stroke-width:22.63"/>
	<line x1="4705.41" y1="5039.82" x2="5116.12" y2="5039.82" style="stroke:#000000;stroke-width:22.63"/>
	<line x1="4142.42" y1="5230.71" x2="4990.83" y2="5230.71" style="stroke:#000000;stroke-width:22.63"/>
	<line x1="4299.30" y1="5421.33" x2="4809.37" y2="5421.33" style="stroke:#000000;stroke-width:22.63"/>
	<line x1="4702.98" y1="5612.22" x2="4949.51" y2="5612.22" style="stroke:#000000;stroke-width:22.63"/>
	<line x1="4327.11" y1="5803.11" x2="4327.11" y2="5803.11" style="stroke:#000000;stroke-width:22.63"/>
	<line x1="4294.71" y1="5993.73" x2="4674.36" y2="5993.73" style="stroke:#000000;stroke-width:22.63"/>
	<line x1="4194.26" y1="6184.62" x2="4390.57" y2="6184.62" style="stroke:#000000;stroke-width:22.63"/>
	<line x1="4552.04" y1="6375.24" x2="4788.31" y2="6375.24" style="stroke:#000000;stroke-width:22.63"/>
	<line x1="4468.60" y1="6566.13" x2="4756.18" y2="6566.13" style="stroke:#000000;stroke-width:22.63"/>
	<line x1="4452.94" y1="6756.75" x2="5032.68" y2="6756.75" style="stroke:#000000;stroke-width:22.63"/>
	<line x1="4334.13" y1="6947.64" x2="4674.09" y2="6947.64" style="stroke:#000000;stroke-width:22.63"/>
	<line x1="4711.89" y1="7138.26" x2="5122.60" y2="7138.26" style="stroke:#000000;stroke-width:22.63"/>
	<line x1="4141.34" y1="7329.15" x2="4989.75" y2="7329.15" style="stroke:#000000;stroke-width:22.63"/>
	<line x1="4304.43" y1="7519.77" x2="4814.50" y2="7519.77" style="stroke:#000000;stroke-width:22.63"/>
	<line x1="4708.38" y1="7710.66" x2="4954.64" y2="7710.66" style="stroke:#000000;stroke-width:22.63"/>
	<text x="507.64" y="1458.20" style="font-family:'Helvetica';font-size:121.51px;fill:#000000">cpnsdeath</text>
	<text x="507.64" y="1648.82" style="font-family:'Helvetica';font-size:121.51px;fill:#000000">model1</text>
	<text x="507.64" y="3747.26" style="font-family:'Helvetica';font-size:121.51px;fill:#000000">model2</text>
	<text x="507.64" y="5845.70" style="font-family:'Helvetica';font-size:121.51px;fill:#000000">model3</text>
	<text x="507.64" y="1076.42" style="font-family:'Helvetica';font-size:121.51px;fill:#000000">model</text>
	<text x="1286.66" y="1648.82" style="font-family:'Helvetica';font-size:121.51px;fill:#000000">British or Mixed British</text>
	<text x="1286.66" y="1839.71" style="font-family:'Helvetica';font-size:121.51px;fill:#000000">Irish</text>
	<text x="1286.66" y="2030.33" style="font-family:'Helvetica';font-size:121.51px;fill:#000000">Other White</text>
	<text x="1286.66" y="2221.22" style="font-family:'Helvetica';font-size:121.51px;fill:#000000">Indian</text>
	<text x="1286.66" y="2411.84" style="font-family:'Helvetica';font-size:121.51px;fill:#000000">Pakistani</text>
	<text x="1286.66" y="2602.73" style="font-family:'Helvetica';font-size:121.51px;fill:#000000">Bangladeshi</text>
	<text x="1286.66" y="2793.35" style="font-family:'Helvetica';font-size:121.51px;fill:#000000">Caribbean</text>
	<text x="1286.66" y="2984.24" style="font-family:'Helvetica';font-size:121.51px;fill:#000000">African</text>
	<text x="1286.66" y="3174.86" style="font-family:'Helvetica';font-size:121.51px;fill:#000000">Chinese</text>
	<text x="1286.66" y="3365.75" style="font-family:'Helvetica';font-size:121.51px;fill:#000000">All mixed</text>
	<text x="1286.66" y="3556.37" style="font-family:'Helvetica';font-size:121.51px;fill:#000000">All Other</text>
	<text x="1286.66" y="3747.26" style="font-family:'Helvetica';font-size:121.51px;fill:#000000">British or Mixed British</text>
	<text x="1286.66" y="3937.88" style="font-family:'Helvetica';font-size:121.51px;fill:#000000">Irish</text>
	<text x="1286.66" y="4128.77" style="font-family:'Helvetica';font-size:121.51px;fill:#000000">Other White</text>
	<text x="1286.66" y="4319.39" style="font-family:'Helvetica';font-size:121.51px;fill:#000000">Indian</text>
	<text x="1286.66" y="4510.28" style="font-family:'Helvetica';font-size:121.51px;fill:#000000">Pakistani</text>
	<text x="1286.66" y="4700.90" style="font-family:'Helvetica';font-size:121.51px;fill:#000000">Bangladeshi</text>
	<text x="1286.66" y="4891.79" style="font-family:'Helvetica';font-size:121.51px;fill:#000000">Caribbean</text>
	<text x="1286.66" y="5082.41" style="font-family:'Helvetica';font-size:121.51px;fill:#000000">African</text>
	<text x="1286.66" y="5273.30" style="font-family:'Helvetica';font-size:121.51px;fill:#000000">Chinese</text>
	<text x="1286.66" y="5463.92" style="font-family:'Helvetica';font-size:121.51px;fill:#000000">All mixed</text>
	<text x="1286.66" y="5654.81" style="font-family:'Helvetica';font-size:121.51px;fill:#000000">All Other</text>
	<text x="1286.66" y="5845.70" style="font-family:'Helvetica';font-size:121.51px;fill:#000000">British or Mixed British</text>
	<text x="1286.66" y="6036.32" style="font-family:'Helvetica';font-size:121.51px;fill:#000000">Irish</text>
	<text x="1286.66" y="6227.21" style="font-family:'Helvetica';font-size:121.51px;fill:#000000">Other White</text>
	<text x="1286.66" y="6417.83" style="font-family:'Helvetica';font-size:121.51px;fill:#000000">Indian</text>
	<text x="1286.66" y="6608.72" style="font-family:'Helvetica';font-size:121.51px;fill:#000000">Pakistani</text>
	<text x="1286.66" y="6799.34" style="font-family:'Helvetica';font-size:121.51px;fill:#000000">Bangladeshi</text>
	<text x="1286.66" y="6990.23" style="font-family:'Helvetica';font-size:121.51px;fill:#000000">Caribbean</text>
	<text x="1286.66" y="7180.85" style="font-family:'Helvetica';font-size:121.51px;fill:#000000">African</text>
	<text x="1286.66" y="7371.74" style="font-family:'Helvetica';font-size:121.51px;fill:#000000">Chinese</text>
	<text x="1286.66" y="7562.36" style="font-family:'Helvetica';font-size:121.51px;fill:#000000">All mixed</text>
	<text x="1286.66" y="7753.25" style="font-family:'Helvetica';font-size:121.51px;fill:#000000">All Other</text>
	<text x="1286.66" y="1076.42" style="font-family:'Helvetica';font-size:121.51px;fill:#000000">eth16</text>
	<text x="5631.32" y="1648.82" style="font-family:'Helvetica';font-size:121.51px;fill:#000000">1.00 (1.00, 1.00)</text>
	<text x="5631.32" y="1839.71" style="font-family:'Helvetica';font-size:121.51px;fill:#000000">1.14 (0.92, 1.42)</text>
	<text x="5631.32" y="2030.33" style="font-family:'Helvetica';font-size:121.51px;fill:#000000">0.90 (0.81, 1.00)</text>
	<text x="5631.32" y="2221.22" style="font-family:'Helvetica';font-size:121.51px;fill:#000000">1.46 (1.28, 1.66)</text>
	<text x="5631.32" y="2411.84" style="font-family:'Helvetica';font-size:121.51px;fill:#000000">1.65 (1.40, 1.93)</text>
	<text x="5631.32" y="2602.73" style="font-family:'Helvetica';font-size:121.51px;fill:#000000">1.93 (1.38, 2.70)</text>
	<text x="5631.32" y="2793.35" style="font-family:'Helvetica';font-size:121.51px;fill:#000000">1.44 (1.19, 1.74)</text>
	<text x="5631.32" y="2984.24" style="font-family:'Helvetica';font-size:121.51px;fill:#000000">2.10 (1.69, 2.62)</text>
	<text x="5631.32" y="3174.86" style="font-family:'Helvetica';font-size:121.51px;fill:#000000">0.96 (0.60, 1.52)</text>
	<text x="5631.32" y="3365.75" style="font-family:'Helvetica';font-size:121.51px;fill:#000000">1.44 (1.10, 1.89)</text>
	<text x="5631.32" y="3556.37" style="font-family:'Helvetica';font-size:121.51px;fill:#000000">1.73 (1.51, 1.99)</text>
	<text x="5631.32" y="3747.26" style="font-family:'Helvetica';font-size:121.51px;fill:#000000">1.00 (1.00, 1.00)</text>
	<text x="5631.32" y="3937.88" style="font-family:'Helvetica';font-size:121.51px;fill:#000000">1.20 (0.96, 1.49)</text>
	<text x="5631.32" y="4128.77" style="font-family:'Helvetica';font-size:121.51px;fill:#000000">0.98 (0.87, 1.09)</text>
	<text x="5631.32" y="4319.39" style="font-family:'Helvetica';font-size:121.51px;fill:#000000">1.48 (1.29, 1.70)</text>
	<text x="5631.32" y="4510.28" style="font-family:'Helvetica';font-size:121.51px;fill:#000000">1.39 (1.18, 1.65)</text>
	<text x="5631.32" y="4700.90" style="font-family:'Helvetica';font-size:121.51px;fill:#000000">1.62 (1.15, 2.26)</text>
	<text x="5631.32" y="4891.79" style="font-family:'Helvetica';font-size:121.51px;fill:#000000">1.22 (1.00, 1.49)</text>
	<text x="5631.32" y="5082.41" style="font-family:'Helvetica';font-size:121.51px;fill:#000000">1.97 (1.55, 2.50)</text>
	<text x="5631.32" y="5273.30" style="font-family:'Helvetica';font-size:121.51px;fill:#000000">1.32 (0.81, 2.16)</text>
	<text x="5631.32" y="5463.92" style="font-family:'Helvetica';font-size:121.51px;fill:#000000">1.30 (0.97, 1.75)</text>
	<text x="5631.32" y="5654.81" style="font-family:'Helvetica';font-size:121.51px;fill:#000000">1.79 (1.55, 2.06)</text>
	<text x="5631.32" y="5845.70" style="font-family:'Helvetica';font-size:121.51px;fill:#000000">1.00 (1.00, 1.00)</text>
	<text x="5631.32" y="6036.32" style="font-family:'Helvetica';font-size:121.51px;fill:#000000">1.20 (0.96, 1.50)</text>
	<text x="5631.32" y="6227.21" style="font-family:'Helvetica';font-size:121.51px;fill:#000000">0.96 (0.86, 1.08)</text>
	<text x="5631.32" y="6417.83" style="font-family:'Helvetica';font-size:121.51px;fill:#000000">1.49 (1.30, 1.71)</text>
	<text x="5631.32" y="6608.72" style="font-family:'Helvetica';font-size:121.51px;fill:#000000">1.39 (1.18, 1.65)</text>
	<text x="5631.32" y="6799.34" style="font-family:'Helvetica';font-size:121.51px;fill:#000000">1.62 (1.16, 2.27)</text>
	<text x="5631.32" y="6990.23" style="font-family:'Helvetica';font-size:121.51px;fill:#000000">1.23 (1.01, 1.50)</text>
	<text x="5631.32" y="7180.85" style="font-family:'Helvetica';font-size:121.51px;fill:#000000">1.98 (1.56, 2.52)</text>
	<text x="5631.32" y="7371.74" style="font-family:'Helvetica';font-size:121.51px;fill:#000000">1.32 (0.81, 2.16)</text>
	<text x="5631.32" y="7562.36" style="font-family:'Helvetica';font-size:121.51px;fill:#000000">1.31 (0.97, 1.76)</text>
	<text x="5631.32" y="7753.25" style="font-family:'Helvetica';font-size:121.51px;fill:#000000">1.80 (1.56, 2.07)</text>
	<text x="5631.32" y="1076.42" style="font-family:'Helvetica';font-size:121.51px;fill:#000000">Ratio (95% CI)</text>
	<text x="5631.32" y="885.80" style="font-family:'Helvetica';font-size:121.51px;fill:#000000">Hazard</text>
	<text x="5631.32" y="1648.82" style="font-family:'Helvetica';font-size:121.51px;fill:#000000">1.00 (1.00, 1.00)</text>
	<text x="5631.32" y="1839.71" style="font-family:'Helvetica';font-size:121.51px;fill:#000000">1.14 (0.92, 1.42)</text>
	<text x="5631.32" y="2030.33" style="font-family:'Helvetica';font-size:121.51px;fill:#000000">0.90 (0.81, 1.00)</text>
	<text x="5631.32" y="2221.22" style="font-family:'Helvetica';font-size:121.51px;fill:#000000">1.46 (1.28, 1.66)</text>
	<text x="5631.32" y="2411.84" style="font-family:'Helvetica';font-size:121.51px;fill:#000000">1.65 (1.40, 1.93)</text>
	<text x="5631.32" y="2602.73" style="font-family:'Helvetica';font-size:121.51px;fill:#000000">1.93 (1.38, 2.70)</text>
	<text x="5631.32" y="2793.35" style="font-family:'Helvetica';font-size:121.51px;fill:#000000">1.44 (1.19, 1.74)</text>
	<text x="5631.32" y="2984.24" style="font-family:'Helvetica';font-size:121.51px;fill:#000000">2.10 (1.69, 2.62)</text>
	<text x="5631.32" y="3174.86" style="font-family:'Helvetica';font-size:121.51px;fill:#000000">0.96 (0.60, 1.52)</text>
	<text x="5631.32" y="3365.75" style="font-family:'Helvetica';font-size:121.51px;fill:#000000">1.44 (1.10, 1.89)</text>
	<text x="5631.32" y="3556.37" style="font-family:'Helvetica';font-size:121.51px;fill:#000000">1.73 (1.51, 1.99)</text>
	<text x="5631.32" y="3747.26" style="font-family:'Helvetica';font-size:121.51px;fill:#000000">1.00 (1.00, 1.00)</text>
	<text x="5631.32" y="3937.88" style="font-family:'Helvetica';font-size:121.51px;fill:#000000">1.20 (0.96, 1.49)</text>
	<text x="5631.32" y="4128.77" style="font-family:'Helvetica';font-size:121.51px;fill:#000000">0.98 (0.87, 1.09)</text>
	<text x="5631.32" y="4319.39" style="font-family:'Helvetica';font-size:121.51px;fill:#000000">1.48 (1.29, 1.70)</text>
	<text x="5631.32" y="4510.28" style="font-family:'Helvetica';font-size:121.51px;fill:#000000">1.39 (1.18, 1.65)</text>
	<text x="5631.32" y="4700.90" style="font-family:'Helvetica';font-size:121.51px;fill:#000000">1.62 (1.15, 2.26)</text>
	<text x="5631.32" y="4891.79" style="font-family:'Helvetica';font-size:121.51px;fill:#000000">1.22 (1.00, 1.49)</text>
	<text x="5631.32" y="5082.41" style="font-family:'Helvetica';font-size:121.51px;fill:#000000">1.97 (1.55, 2.50)</text>
	<text x="5631.32" y="5273.30" style="font-family:'Helvetica';font-size:121.51px;fill:#000000">1.32 (0.81, 2.16)</text>
	<text x="5631.32" y="5463.92" style="font-family:'Helvetica';font-size:121.51px;fill:#000000">1.30 (0.97, 1.75)</text>
	<text x="5631.32" y="5654.81" style="font-family:'Helvetica';font-size:121.51px;fill:#000000">1.79 (1.55, 2.06)</text>
	<text x="5631.32" y="5845.70" style="font-family:'Helvetica';font-size:121.51px;fill:#000000">1.00 (1.00, 1.00)</text>
	<text x="5631.32" y="6036.32" style="font-family:'Helvetica';font-size:121.51px;fill:#000000">1.20 (0.96, 1.50)</text>
	<text x="5631.32" y="6227.21" style="font-family:'Helvetica';font-size:121.51px;fill:#000000">0.96 (0.86, 1.08)</text>
	<text x="5631.32" y="6417.83" style="font-family:'Helvetica';font-size:121.51px;fill:#000000">1.49 (1.30, 1.71)</text>
	<text x="5631.32" y="6608.72" style="font-family:'Helvetica';font-size:121.51px;fill:#000000">1.39 (1.18, 1.65)</text>
	<text x="5631.32" y="6799.34" style="font-family:'Helvetica';font-size:121.51px;fill:#000000">1.62 (1.16, 2.27)</text>
	<text x="5631.32" y="6990.23" style="font-family:'Helvetica';font-size:121.51px;fill:#000000">1.23 (1.01, 1.50)</text>
	<text x="5631.32" y="7180.85" style="font-family:'Helvetica';font-size:121.51px;fill:#000000">1.98 (1.56, 2.52)</text>
	<text x="5631.32" y="7371.74" style="font-family:'Helvetica';font-size:121.51px;fill:#000000">1.32 (0.81, 2.16)</text>
	<text x="5631.32" y="7562.36" style="font-family:'Helvetica';font-size:121.51px;fill:#000000">1.31 (0.97, 1.76)</text>
	<text x="5631.32" y="7753.25" style="font-family:'Helvetica';font-size:121.51px;fill:#000000">1.80 (1.56, 2.07)</text>
	<text x="5631.32" y="1076.42" style="font-family:'Helvetica';font-size:121.51px;fill:#000000">Ratio (95% CI)</text>
	<text x="5631.32" y="885.80" style="font-family:'Helvetica';font-size:121.51px;fill:#000000">Hazard</text>
	<polygon points="4283.03,1606.50 4326.84,1562.69 4370.65,1606.50 4326.84,1650.31" style="fill:#000000"/>
	<polygon points="4299.03,1606.50 4326.84,1578.69 4354.65,1606.50 4326.84,1634.31" style="fill:none;stroke:#000000;stroke-width:22.63"/>
	<polygon points="4399.14,1797.12 4442.95,1753.31 4486.76,1797.12 4442.95,1840.93" style="fill:#000000"/>
	<polygon points="4415.14,1797.12 4442.95,1769.31 4470.76,1797.12 4442.95,1824.93" style="fill:none;stroke:#000000;stroke-width:22.63"/>
	<polygon points="4192.30,1988.01 4236.11,1944.20 4279.93,1988.01 4236.11,2031.82" style="fill:#000000"/>
	<polygon points="4208.30,1988.01 4236.11,1960.20 4263.93,1988.01 4236.11,2015.82" style="fill:none;stroke:#000000;stroke-width:22.63"/>
	<polygon points="4610.03,2178.63 4653.84,2134.82 4697.65,2178.63 4653.84,2222.44" style="fill:#000000"/>
	<polygon points="4626.03,2178.63 4653.84,2150.82 4681.65,2178.63 4653.84,2206.44" style="fill:none;stroke:#000000;stroke-width:22.63"/>
	<polygon points="4712.10,2369.52 4755.91,2325.71 4799.72,2369.52 4755.91,2413.33" style="fill:#000000"/>
	<polygon points="4728.09,2369.52 4755.91,2341.71 4783.72,2369.52 4755.91,2397.33" style="fill:none;stroke:#000000;stroke-width:22.63"/>
	<polygon points="4850.08,2560.14 4893.89,2516.33 4937.70,2560.14 4893.89,2603.95" style="fill:#000000"/>
	<polygon points="4866.08,2560.14 4893.89,2532.33 4921.70,2560.14 4893.89,2587.95" style="fill:none;stroke:#000000;stroke-width:22.63"/>
	<polygon points="4594.64,2751.03 4638.45,2707.22 4682.26,2751.03 4638.45,2794.84" style="fill:#000000"/>
	<polygon points="4610.64,2751.03 4638.45,2723.22 4666.26,2751.03 4638.45,2778.84" style="fill:none;stroke:#000000;stroke-width:22.63"/>
	<polygon points="4924.33,2941.65 4968.15,2897.84 5011.96,2941.65 4968.15,2985.46" style="fill:#000000"/>
	<polygon points="4940.33,2941.65 4968.15,2913.84 4995.96,2941.65 4968.15,2969.46" style="fill:none;stroke:#000000;stroke-width:22.63"/>
	<polygon points="4246.85,3132.54 4290.66,3088.73 4334.47,3132.54 4290.66,3176.35" style="fill:#000000"/>
	<polygon points="4262.85,3132.54 4290.66,3104.73 4318.47,3132.54 4290.66,3160.35" style="fill:none;stroke:#000000;stroke-width:22.63"/>
	<polygon points="4599.77,3323.16 4643.58,3279.35 4687.39,3323.16 4643.58,3366.97" style="fill:#000000"/>
	<polygon points="4615.77,3323.16 4643.58,3295.35 4671.39,3323.16 4643.58,3350.97" style="fill:none;stroke:#000000;stroke-width:22.63"/>
	<polygon points="4756.11,3514.05 4799.92,3470.24 4843.73,3514.05 4799.92,3557.86" style="fill:#000000"/>
	<polygon points="4772.11,3514.05 4799.92,3486.24 4827.73,3514.05 4799.92,3541.86" style="fill:none;stroke:#000000;stroke-width:22.63"/>
	<polygon points="4283.03,3704.67 4326.84,3660.86 4370.65,3704.67 4326.84,3748.48" style="fill:#000000"/>
	<polygon points="4299.03,3704.67 4326.84,3676.86 4354.65,3704.67 4326.84,3732.48" style="fill:none;stroke:#000000;stroke-width:22.63"/>
	<polygon points="4437.75,3895.56 4481.56,3851.75 4525.38,3895.56 4481.56,3939.37" style="fill:#000000"/>
	<polygon points="4453.75,3895.56 4481.56,3867.75 4509.38,3895.56 4481.56,3923.37" style="fill:none;stroke:#000000;stroke-width:22.63"/>
	<polygon points="4261.70,4086.18 4305.51,4042.37 4349.32,4086.18 4305.51,4129.99" style="fill:#000000"/>
	<polygon points="4277.70,4086.18 4305.51,4058.37 4333.32,4086.18 4305.51,4113.99" style="fill:none;stroke:#000000;stroke-width:22.63"/>
	<polygon points="4622.18,4277.07 4665.99,4233.26 4709.80,4277.07 4665.99,4320.88" style="fill:#000000"/>
	<polygon points="4638.18,4277.07 4665.99,4249.26 4693.80,4277.07 4665.99,4304.88" style="fill:none;stroke:#000000;stroke-width:22.63"/>
	<polygon points="4568.17,4467.69 4611.99,4423.88 4655.80,4467.69 4611.99,4511.50" style="fill:#000000"/>
	<polygon points="4584.17,4467.69 4611.99,4439.88 4639.80,4467.69 4611.99,4495.50" style="fill:none;stroke:#000000;stroke-width:22.63"/>
	<polygon points="4696.97,4658.58 4740.79,4614.77 4784.60,4658.58 4740.79,4702.39" style="fill:#000000"/>
	<polygon points="4712.97,4658.58 4740.79,4630.77 4768.60,4658.58 4740.79,4686.39" style="fill:none;stroke:#000000;stroke-width:22.63"/>
	<polygon points="4455.30,4849.20 4499.12,4805.39 4542.93,4849.20 4499.12,4893.01" style="fill:#000000"/>
	<polygon points="4471.30,4849.20 4499.12,4821.39 4526.93,4849.20 4499.12,4877.01" style="fill:none;stroke:#000000;stroke-width:22.63"/>
	<polygon points="4866.82,5040.09 4910.63,4996.28 4954.44,5040.09 4910.63,5083.90" style="fill:#000000"/>
	<polygon points="4882.82,5040.09 4910.63,5012.28 4938.44,5040.09 4910.63,5067.90" style="fill:none;stroke:#000000;stroke-width:22.63"/>
	<polygon points="4522.54,5230.71 4566.35,5186.90 4610.16,5230.71 4566.35,5274.52" style="fill:#000000"/>
	<polygon points="4538.54,5230.71 4566.35,5202.90 4594.16,5230.71 4566.35,5258.52" style="fill:none;stroke:#000000;stroke-width:22.63"/>
	<polygon points="4510.39,5421.60 4554.20,5377.79 4598.01,5421.60 4554.20,5465.41" style="fill:#000000"/>
	<polygon points="4526.39,5421.60 4554.20,5393.79 4582.01,5421.60 4554.20,5449.41" style="fill:none;stroke:#000000;stroke-width:22.63"/>
	<polygon points="4782.30,5612.22 4826.11,5568.41 4869.92,5612.22 4826.11,5656.03" style="fill:#000000"/>
	<polygon points="4798.30,5612.22 4826.11,5584.41 4853.93,5612.22 4826.11,5640.03" style="fill:none;stroke:#000000;stroke-width:22.63"/>
	<polygon points="4283.03,5803.11 4326.84,5759.30 4370.65,5803.11 4326.84,5846.92" style="fill:#000000"/>
	<polygon points="4299.03,5803.11 4326.84,5775.30 4354.65,5803.11 4326.84,5830.92" style="fill:none;stroke:#000000;stroke-width:22.63"/>
	<polygon points="4440.72,5994.00 4484.53,5950.19 4528.35,5994.00 4484.53,6037.81" style="fill:#000000"/>
	<polygon points="4456.72,5994.00 4484.53,5966.19 4512.35,5994.00 4484.53,6021.81" style="fill:none;stroke:#000000;stroke-width:22.63"/>
	<polygon points="4248.47,6184.62 4292.28,6140.81 4336.09,6184.62 4292.28,6228.43" style="fill:#000000"/>
	<polygon points="4264.47,6184.62 4292.28,6156.81 4320.09,6184.62 4292.28,6212.43" style="fill:none;stroke:#000000;stroke-width:22.63"/>
	<polygon points="4626.23,6375.51 4670.04,6331.70 4713.85,6375.51 4670.04,6419.32" style="fill:#000000"/>
	<polygon points="4642.23,6375.51 4670.04,6347.70 4697.85,6375.51 4670.04,6403.32" style="fill:none;stroke:#000000;stroke-width:22.63"/>
	<polygon points="4568.44,6566.13 4612.26,6522.32 4656.07,6566.13 4612.26,6609.94" style="fill:#000000"/>
	<polygon points="4584.44,6566.13 4612.26,6538.32 4640.07,6566.13 4612.26,6593.94" style="fill:none;stroke:#000000;stroke-width:22.63"/>
	<polygon points="4698.86,6757.02 4742.68,6713.21 4786.49,6757.02 4742.68,6800.83" style="fill:#000000"/>
	<polygon points="4714.86,6757.02 4742.68,6729.21 4770.49,6757.02 4742.68,6784.83" style="fill:none;stroke:#000000;stroke-width:22.63"/>
	<polygon points="4460.16,6947.64 4503.98,6903.83 4547.79,6947.64 4503.98,6991.45" style="fill:#000000"/>
	<polygon points="4476.16,6947.64 4503.98,6919.83 4531.79,6947.64 4503.98,6975.45" style="fill:none;stroke:#000000;stroke-width:22.63"/>
	<polygon points="4873.30,7138.53 4917.11,7094.72 4960.92,7138.53 4917.11,7182.34" style="fill:#000000"/>
	<polygon points="4889.30,7138.53 4917.11,7110.72 4944.92,7138.53 4917.11,7166.34" style="fill:none;stroke:#000000;stroke-width:22.63"/>
	<polygon points="4521.73,7329.15 4565.54,7285.34 4609.35,7329.15 4565.54,7372.96" style="fill:#000000"/>
	<polygon points="4537.73,7329.15 4565.54,7301.34 4593.35,7329.15 4565.54,7356.96" style="fill:none;stroke:#000000;stroke-width:22.63"/>
	<polygon points="4515.52,7520.04 4559.33,7476.23 4603.14,7520.04 4559.33,7563.85" style="fill:#000000"/>
	<polygon points="4531.52,7520.04 4559.33,7492.23 4587.14,7520.04 4559.33,7547.85" style="fill:none;stroke:#000000;stroke-width:22.63"/>
	<polygon points="4787.43,7710.66 4831.24,7666.85 4875.05,7710.66 4831.24,7754.47" style="fill:#000000"/>
	<polygon points="4803.43,7710.66 4831.24,7682.85 4859.06,7710.66 4831.24,7738.47" style="fill:none;stroke:#000000;stroke-width:22.63"/>
	<line x1="397.74" y1="8282.79" x2="7222.83" y2="8282.79" style="stroke:#000000;stroke-width:15.08"/>
	<text x="3729.82" y="8420.09" style="font-family:'Helvetica';font-size:121.51px;fill:#000000" text-anchor="middle"> </text>
	<text x="4924.13" y="8420.09" style="font-family:'Helvetica';font-size:121.51px;fill:#000000" text-anchor="middle"> </text>
	<line x1="4327.11" y1="8282.79" x2="4327.11" y2="8387.55" style="stroke:#000000;stroke-width:15.08"/>
	<text x="4327.11" y="8524.85" style="font-family:'Helvetica';font-size:121.51px;fill:#000000" text-anchor="middle">1</text>
	<line x1="3132.53" y1="8282.79" x2="3132.53" y2="8387.55" style="stroke:#000000;stroke-width:15.08"/>
	<text x="3132.53" y="8524.85" style="font-family:'Helvetica';font-size:121.51px;fill:#000000" text-anchor="middle">.25</text>
	<line x1="3729.82" y1="8282.79" x2="3729.82" y2="8387.55" style="stroke:#000000;stroke-width:15.08"/>
	<text x="3729.82" y="8524.85" style="font-family:'Helvetica';font-size:121.51px;fill:#000000" text-anchor="middle">.5</text>
	<line x1="4327.11" y1="8282.79" x2="4327.11" y2="8387.55" style="stroke:#000000;stroke-width:15.08"/>
	<text x="4327.11" y="8524.85" style="font-family:'Helvetica';font-size:121.51px;fill:#000000" text-anchor="middle">1</text>
	<line x1="4924.13" y1="8282.79" x2="4924.13" y2="8387.55" style="stroke:#000000;stroke-width:15.08"/>
	<text x="4924.13" y="8524.85" style="font-family:'Helvetica';font-size:121.51px;fill:#000000" text-anchor="middle">2</text>
	<line x1="5521.42" y1="8282.79" x2="5521.42" y2="8387.55" style="stroke:#000000;stroke-width:15.08"/>
	<text x="5521.42" y="8524.85" style="font-family:'Helvetica';font-size:121.51px;fill:#000000" text-anchor="middle">4</text>
	<line x1="4327.11" y1="8282.79" x2="4327.11" y2="8387.55" style="stroke:#000000;stroke-width:15.08"/>
	<text x="3810.29" y="544.24" style="font-family:'Helvetica';font-size:209.54px;fill:#000000" text-anchor="middle">complete case analysis</text>
	<text x="3810.29" y="228.56" style="font-family:'Helvetica';font-size:261.92px;fill:#000000" text-anchor="middle">cpnsdeath</text>
</svg>
